<svg xmlns="http://www.w3.org/2000/svg" width="28" height="27" viewBox="0 0 28 27">
  <g id="airtime" transform="translate(0.093 -0.481)">
    <rect id="Rectangle_1294" data-name="Rectangle 1294" width="28" height="27" transform="translate(-0.093 0.481)" fill="none"/>
    <g id="download" transform="translate(5.728 5.757)">
      <path id="Path_9057" data-name="Path 9057" d="M14.793.248,14.325,3.06c1.577.2,2.438,1.836,2.737,3.76a10.667,10.667,0,0,1,2.894.355C19.6,3.35,17.657.664,14.793.248" transform="translate(-6.211 -0.043)" fill="#422343"/>
      <path id="Path_9058" data-name="Path 9058" d="M11,16.922c.005-1.5,1.32-2.224,3.687-2.224a6.891,6.891,0,0,1,2.656.476c.2.078.361.152.561.244a1.413,1.413,0,1,0,1.244-2.537,8.573,8.573,0,0,0-1.816-.676,10.645,10.645,0,0,0-2.894-.355c-3.064,0-6.139,1.533-6.161,5.072H11Z" transform="translate(-3.591 -5.074)" fill="#422343"/>
      <path id="Path_9059" data-name="Path 9059" d="M9.642,17.731A1.366,1.366,0,0,0,8.281,19.1v.037c0,2.334,1.416,4.411,4.125,4.411,3.558,0,4.76-3.572,4.941-6.2a6.9,6.9,0,0,0-2.656-.476c0,1.55-.512,3.867-2.15,3.867A1.494,1.494,0,0,1,11,19.1a1.366,1.366,0,0,0-1.362-1.372" transform="translate(-3.591 -7.255)" fill="#422343"/>
      <path id="Path_9060" data-name="Path 9060" d="M19.824,11.84a11.011,11.011,0,0,0,.144-1.167,6.9,6.9,0,0,0-2.656-.476c0,.206-.009.426-.028.652a7.246,7.246,0,0,1,2.541.991M15.783,1.468a1.425,1.425,0,0,1-1.458,2.121,2.339,2.339,0,0,1,.976.35,1.919,1.919,0,0,0,.483-2.471" transform="translate(-6.211 -0.572)" fill="#221823"/>
      <g id="Group_6499" data-name="Group 6499" transform="translate(0 0.148)">
        <path id="Path_9061" data-name="Path 9061" d="M8.114,3A1.425,1.425,0,0,0,8.582.19a5.514,5.514,0,0,0-.79-.056C3.657.134,0,4.695,0,10.109A12.488,12.488,0,0,0,1.189,15.5a1.428,1.428,0,0,0,1.892.643,1.408,1.408,0,0,0,.638-1.906,9.675,9.675,0,0,1-.891-4.123c0-3.591,2.289-7.126,4.963-7.126A2.589,2.589,0,0,1,8.114,3" transform="translate(0 -0.134)" fill="#422343"/>
      </g>
    </g>
  </g>
</svg>
