<svg id="btc" xmlns="http://www.w3.org/2000/svg" width="43" height="43" viewBox="0 0 43 43">
  <circle id="circle" cx="21.5" cy="21.5" r="21.5" fill="#fff" opacity="0.37"/>
  <path id="Icon_metro-bitcoin" data-name="Icon metro-bitcoin" d="M24.64,12.1a3.561,3.561,0,0,1-1.968,3.876A4.512,4.512,0,0,1,25.3,17.523a4.453,4.453,0,0,1,.676,3.215,5.68,5.68,0,0,1-.488,1.878,4.146,4.146,0,0,1-.969,1.337,4.931,4.931,0,0,1-1.457.879,8.879,8.879,0,0,1-1.825.518,18.1,18.1,0,0,1-2.186.225v3.831H16.737V25.636q-1.2,0-1.833-.015v3.786H12.591V25.576q-.27,0-.811-.008t-.826-.008h-3l.466-2.749h1.668a.8.8,0,0,0,.871-.766v-6.04h.24a1.527,1.527,0,0,0-.24-.015V11.679a1.193,1.193,0,0,0-1.337-1.022H7.948V8.193l3.185.015q.962,0,1.457-.015V4.407H14.9V8.118q1.232-.03,1.833-.03V4.407h2.314V8.193a13.4,13.4,0,0,1,2.1.338,6.832,6.832,0,0,1,1.7.676,3.442,3.442,0,0,1,1.239,1.172,3.834,3.834,0,0,1,.548,1.72Zm-3.23,8.188a2,2,0,0,0-.225-.962,2.253,2.253,0,0,0-.556-.691,2.853,2.853,0,0,0-.864-.458,7.293,7.293,0,0,0-.984-.278,8.884,8.884,0,0,0-1.112-.135q-.661-.045-1.037-.045t-.969.015q-.593.015-.714.015v5.078q.12,0,.556.008t.721.008q.285,0,.8-.023t.879-.06q.368-.038.856-.128a5.75,5.75,0,0,0,.834-.21,5.106,5.106,0,0,0,.714-.316,2.082,2.082,0,0,0,.593-.451,2.124,2.124,0,0,0,.368-.6,1.992,1.992,0,0,0,.143-.766Zm-1.067-7.151a1.972,1.972,0,0,0-.188-.879,2.094,2.094,0,0,0-.458-.631,2.246,2.246,0,0,0-.721-.421,5.164,5.164,0,0,0-.826-.248,8.272,8.272,0,0,0-.924-.12q-.548-.045-.871-.038t-.811.015l-.593.008v4.612l.518.008q.443.008.7,0t.751-.03a6.354,6.354,0,0,0,.826-.083q.331-.06.774-.165a2.547,2.547,0,0,0,.729-.278,4.125,4.125,0,0,0,.556-.406,1.446,1.446,0,0,0,.406-.578,2.084,2.084,0,0,0,.135-.766Z" transform="translate(4.052 4.593)" fill="#fff"/>
</svg>
