<svg xmlns="http://www.w3.org/2000/svg" width="22" height="22" viewBox="0 0 22 22">
  <g id="buycoins" transform="translate(-197.091 -281.744)">
    <rect id="Rectangle_1316" data-name="Rectangle 1316" width="22" height="22" transform="translate(197.091 281.744)" fill="none"/>
    <g id="Page_1" data-name="Page 1" transform="translate(199.091 282.744)">
      <g id="withdrawal">
        <path id="Rectangle" d="M542.482,283H557.21a1.573,1.573,0,0,1,1.636,1.5V286a1.572,1.572,0,0,1-1.636,1.5H542.482a1.572,1.572,0,0,1-1.636-1.5v-1.5a1.573,1.573,0,0,1,1.636-1.5Zm0,1.5V286H557.21v-1.5Z" transform="translate(-540.846 -283)" fill="#422343" fill-rule="evenodd"/>
        <path id="Rectangle-2" data-name="Rectangle" d="M557.694,300.934a2.385,2.385,0,0,1-2.5,2.248h-10a2.384,2.384,0,0,1-2.5-2.248V286.692h15v14.242Zm-1.668-12.743H544.36v12.743a.713.713,0,0,0,.244.53.882.882,0,0,0,.589.22h10a.8.8,0,0,0,.833-.75Z" transform="translate(-541.193 -283.182)" fill="#422343" fill-rule="evenodd"/>
        <path id="Path_11" data-name="Path 11" d="M553.3,295.973a.749.749,0,1,1-1.5,0V294.1a.375.375,0,0,0-.749,0v.749a1.874,1.874,0,1,1-3.748,0v-1.873a.749.749,0,1,1,1.5,0v1.873a.375.375,0,0,0,.75,0V294.1a1.874,1.874,0,1,1,3.748,0Z" transform="translate(-541.306 -284.474)" fill="#422343" fill-rule="evenodd"/>
        <path id="Path_12" data-name="Path 12" d="M555.094,294.077a.749.749,0,0,1,0,1.5h-1.5a.749.749,0,0,1,0-1.5Z" transform="translate(-542.012 -284.826)" fill="#422343" fill-rule="evenodd"/>
        <path id="Path_13" data-name="Path 13" d="M546.21,295.576a.749.749,0,0,1,0-1.5h1.5a.749.749,0,0,1,0,1.5Z" transform="translate(-541.294 -284.826)" fill="#422343" fill-rule="evenodd"/>
        <path id="Path_14" data-name="Path 14" d="M551.576,288.941a.749.749,0,1,1-1.5,0v-1.5a.749.749,0,1,1,1.5,0Z" transform="translate(-541.826 -283.601)" fill="#422343" fill-rule="evenodd"/>
        <path id="Path_14_Copy" data-name="Path 14 Copy" d="M551.576,301.863a.749.749,0,1,1-1.5,0v-1.5a.749.749,0,1,1,1.5,0Z" transform="translate(-541.826 -285.705)" fill="#422343" fill-rule="evenodd"/>
      </g>
    </g>
  </g>
</svg>
