<svg xmlns="http://www.w3.org/2000/svg" width="27" height="28" viewBox="0 0 27 28">
  <g id="calculator" transform="translate(-0.467 0.123)">
    <rect id="Rectangle_1288" data-name="Rectangle 1288" width="27" height="28" transform="translate(0.467 -0.123)" fill="none"/>
    <path id="calculator-2" data-name="calculator" d="M11.661,3.856H4.086A1.519,1.519,0,0,0,2.571,5.371v7.575a1.519,1.519,0,0,0,1.515,1.515h7.575a1.519,1.519,0,0,0,1.515-1.515V5.371a1.519,1.519,0,0,0-1.515-1.515Zm0,6.06H4.086V8.4h7.575Zm12.12-6.06H16.205A1.519,1.519,0,0,0,14.69,5.371V25.066a1.519,1.519,0,0,0,1.515,1.515H23.78A1.519,1.519,0,0,0,25.3,25.066V5.371A1.519,1.519,0,0,0,23.78,3.856Zm0,13.635H16.205V15.976H23.78Zm0-4.545H16.205V11.431H23.78Zm-12.12,3.03H4.086a1.519,1.519,0,0,0-1.515,1.515v7.575a1.519,1.519,0,0,0,1.515,1.515h7.575a1.519,1.519,0,0,0,1.515-1.515V17.491A1.519,1.519,0,0,0,11.661,15.976Zm0,6.06H8.631v3.03H7.116v-3.03H4.086V20.521h3.03v-3.03H8.631v3.03h3.03Z" transform="translate(-0.046 -1.111)" fill="#422343"/>
  </g>
</svg>
