<svg id="dollersymbol" xmlns="http://www.w3.org/2000/svg" width="43" height="43" viewBox="0 0 43 43">
  <circle id="circle" cx="21.5" cy="21.5" r="21.5" fill="#fff" opacity="0.37"/>
  <path id="Icon_awesome-dollar-sign" data-name="Icon awesome-dollar-sign" d="M11,12.267,5.32,10.606a1.55,1.55,0,0,1,.436-3.038H9.24a3.208,3.208,0,0,1,1.8.552.819.819,0,0,0,1.025-.105l1.829-1.787A.852.852,0,0,0,13.8,4.94,7.432,7.432,0,0,0,9.251,3.364V.841A.843.843,0,0,0,8.41,0H6.728a.843.843,0,0,0-.841.841V3.364H5.756A5.759,5.759,0,0,0,.027,9.65a6.017,6.017,0,0,0,4.4,5.077L9.818,16.3a1.55,1.55,0,0,1-.436,3.038H5.9a3.208,3.208,0,0,1-1.8-.552.819.819,0,0,0-1.025.105L1.246,20.682a.852.852,0,0,0,.095,1.288,7.432,7.432,0,0,0,4.546,1.577v2.523a.843.843,0,0,0,.841.841H8.41a.843.843,0,0,0,.841-.841V23.535a5.937,5.937,0,0,0,5.555-3.821A5.771,5.771,0,0,0,11,12.267Z" transform="translate(13.554 8.545)" fill="#fff"/>
</svg>
