<svg xmlns="http://www.w3.org/2000/svg" width="27" height="28" viewBox="0 0 27 28">
  <g id="drhome" transform="translate(-0.467)">
    <rect id="Rectangle_1281" data-name="Rectangle 1281" width="27" height="28" transform="translate(0.467)" fill="none"/>
    <path id="home" d="M11.362,12.985A6.493,6.493,0,1,0,4.87,6.493,6.492,6.492,0,0,0,11.362,12.985Zm4.545,1.623H15.06a8.83,8.83,0,0,1-7.4,0H6.817A6.819,6.819,0,0,0,0,21.426v2.11a2.435,2.435,0,0,0,2.435,2.435H20.29a2.435,2.435,0,0,0,2.435-2.435v-2.11A6.819,6.819,0,0,0,15.907,14.609Z" transform="translate(2.525 0.991)" fill="#422343"/>
  </g>
</svg>
