<svg xmlns="http://www.w3.org/2000/svg" width="28" height="27" viewBox="0 0 28 27">
  <g id="drrateus" transform="translate(0.093 -0.436)">
    <rect id="Rectangle_1289" data-name="Rectangle 1289" width="28" height="27" transform="translate(-0.093 0.436)" fill="none"/>
    <path id="Icon_material-rate-review" data-name="Icon material-rate-review" d="M23.424,3H5.269A2.266,2.266,0,0,0,3.011,5.269L3,25.693l4.539-4.539H23.424a2.276,2.276,0,0,0,2.269-2.269V5.269A2.276,2.276,0,0,0,23.424,3ZM7.539,16.616v-2.8l7.806-7.806a.562.562,0,0,1,.806,0l2.008,2.008a.562.562,0,0,1,0,.806l-7.818,7.8Zm13.616,0h-8.51l2.269-2.269h6.241Z" transform="translate(-0.256 -0.104)" fill="#422343"/>
  </g>
</svg>
