<svg xmlns="http://www.w3.org/2000/svg" width="27" height="22" viewBox="0 0 27 22">
  <g id="enable_pro" transform="translate(-53.112 -243.631)">
    <rect id="Rectangle_1314" data-name="Rectangle 1314" width="27" height="22" transform="translate(53.112 243.631)" fill="none"/>
    <path id="Path_254" data-name="Path 254" d="M2580.113,1458.141l11.734-4.511,12.447,4.511-12.447,4.48Z" transform="translate(-2526 -1209)" fill="none" stroke="#fff" stroke-linecap="round" stroke-linejoin="round" stroke-width="1"/>
    <path id="Path_255" data-name="Path 255" d="M2592.7,1459.322l3.684,1.534v9.6" transform="translate(-2525.885 -1208.846)" fill="none" stroke="#fff" stroke-linecap="round" stroke-linejoin="round" stroke-width="1"/>
    <path id="Path_256" data-name="Path 256" d="M2599.893,1459.676v8.225a23.793,23.793,0,0,1-8.4,1.5,37.906,37.906,0,0,1-8.371-1.5v-8.225" transform="translate(-2526 -1208.908)" fill="none" stroke="#fff" stroke-linecap="round" stroke-linejoin="round" stroke-width="1"/>
    <path id="Path_257" data-name="Path 257" d="M2596.382,1470.634a1.414,1.414,0,0,1,1.477,1.366,1.461,1.461,0,0,1-1.477,1.477,1.433,1.433,0,0,1-1.449-1.477A1.376,1.376,0,0,1,2596.382,1470.634Z" transform="translate(-2525.869 -1208.846)" fill="none" stroke="#fff" stroke-linecap="round" stroke-linejoin="round" stroke-width="1"/>
  </g>
</svg>
