<svg xmlns="http://www.w3.org/2000/svg" width="28" height="27" viewBox="0 0 28 27">
  <g id="freegift" transform="translate(0.093 -0.481)">
    <rect id="Rectangle_1294" data-name="Rectangle 1294" width="28" height="27" transform="translate(-0.093 0.481)" fill="none"/>
    <g id="toxic-warning-sign" transform="translate(1.265 4.171)">
      <path id="Path_9062" data-name="Path 9062" d="M8.41,38.476H20.03a1.461,1.461,0,0,0,1.461-1.461V29.708H6.949v7.307A1.461,1.461,0,0,0,8.41,38.476Z" transform="translate(-1.578 -18.855)" fill="#422343"/>
      <path id="Path_9063" data-name="Path 9063" d="M4.463,8.143V10.1h16.36V8.143a1.461,1.461,0,0,0-1.461-1.461H15.084c2.031,0,4.953-1.972,4.313-4.062A3.786,3.786,0,0,0,15.619,0C13.3.013,12.7,4.865,12.7,4.865h-.062S12.043.013,9.729,0a3.786,3.786,0,0,0-3.778,2.62c-.64,2.091,2.281,4.062,4.313,4.062H5.924A1.461,1.461,0,0,0,4.463,8.143Zm12.858-6.38s-.072,2.388-3.28,4.171A6.117,6.117,0,0,1,17.321,1.763Zm-9.267,0a6.115,6.115,0,0,1,3.279,4.171C8.125,4.151,8.054,1.763,8.054,1.763Z" transform="translate(0 0)" fill="#422343"/>
    </g>
  </g>
</svg>
