<svg xmlns="http://www.w3.org/2000/svg" width="28" height="27" viewBox="0 0 28 27">
  <g id="halloffame" transform="translate(0.093 -0.481)">
    <rect id="Rectangle_1294" data-name="Rectangle 1294" width="28" height="27" transform="translate(-0.093 0.481)" fill="none"/>
    <g id="team-leader" transform="translate(2.555 2.56)">
      <path id="Path_9050" data-name="Path 9050" d="M19.892,15.784a1.892,1.892,0,1,1,1.892-1.892A1.894,1.894,0,0,1,19.892,15.784Z" transform="translate(-0.971 -0.592)" fill="#422343"/>
      <path id="Path_9051" data-name="Path 9051" d="M3.892,15.784a1.892,1.892,0,1,1,1.892-1.892A1.894,1.894,0,0,1,3.892,15.784Z" transform="translate(-0.108 -0.592)" fill="#422343"/>
      <path id="Path_9052" data-name="Path 9052" d="M11.838,16.176a2.838,2.838,0,1,1,2.838-2.838A2.842,2.842,0,0,1,11.838,16.176Z" transform="translate(-0.485 -0.511)" fill="#422343"/>
      <path id="Path_9053" data-name="Path 9053" d="M16.2,22.73H7.21a.71.71,0,0,1-.71-.71V20.6A2.6,2.6,0,0,1,9.1,18h5.2a2.6,2.6,0,0,1,2.6,2.6v1.419A.71.71,0,0,1,16.2,22.73Z" transform="translate(-0.351 -0.915)" fill="#422343"/>
      <path id="Path_9054" data-name="Path 9054" d="M21.067,17H18.7a2.513,2.513,0,0,0-.851.142,4.527,4.527,0,0,1,1.561,3.642h3.548a.715.715,0,0,0,.71-.71V19.6A2.6,2.6,0,0,0,21.067,17Z" transform="translate(-0.963 -0.861)" fill="#422343"/>
      <path id="Path_9055" data-name="Path 9055" d="M4.967,17H2.6A2.6,2.6,0,0,0,0,19.6v.473a.715.715,0,0,0,.71.71H4.257a4.527,4.527,0,0,1,1.561-3.642A2.513,2.513,0,0,0,4.967,17Z" transform="translate(0 -0.861)" fill="#422343"/>
      <path id="Path_9056" data-name="Path 9056" d="M15.01,8.57H8.45a.71.71,0,0,1-.7-.578L7.012,4.05A.71.71,0,0,1,8,3.27l1.589.706,1.531-2.622a.738.738,0,0,1,1.226,0l1.531,2.622,1.589-.706a.711.711,0,0,1,.986.78l-.741,3.942a.711.711,0,0,1-.7.578Z" transform="translate(-0.378)" fill="#422343"/>
    </g>
  </g>
</svg>
