<svg xmlns="http://www.w3.org/2000/svg" width="25" height="25" viewBox="0 0 25 25">
  <g id="history" transform="translate(-216.001 -731)">
    <rect id="background" width="25" height="25" transform="translate(216.001 731)" fill="none"/>
    <g id="iconchart" transform="translate(218.501 733.5)">
      <path id="Vector" d="M901,754.5a1.5,1.5,0,0,1-1.5-1.5v-9a1.5,1.5,0,0,1,3,0v9A1.5,1.5,0,0,1,901,754.5Z" transform="translate(-899.5 -734.5)" fill="#d1bbd2" fill-rule="evenodd"/>
      <path id="Vector-2" data-name="Vector" d="M907,753.5a1.466,1.466,0,0,1-1.5-1.429V734.929a1.5,1.5,0,0,1,3,0v17.143A1.466,1.466,0,0,1,907,753.5Z" transform="translate(-899.833 -733.5)" fill="#d1bbd2" fill-rule="evenodd"/>
      <path id="Vector-3" data-name="Vector" d="M913,754.5a1.5,1.5,0,0,1-1.5-1.5v-6a1.5,1.5,0,0,1,3,0v6A1.5,1.5,0,0,1,913,754.5Z" transform="translate(-900.167 -734.5)" fill="#d1bbd2" fill-rule="evenodd"/>
      <path id="Vector-4" data-name="Vector" d="M919,754.5a1.5,1.5,0,0,1-1.5-1.5V741a1.5,1.5,0,0,1,3,0v12A1.5,1.5,0,0,1,919,754.5Z" transform="translate(-900.5 -734.5)" fill="#d1bbd2" fill-rule="evenodd"/>
    </g>
  </g>
</svg>
