<svg xmlns="http://www.w3.org/2000/svg" width="28" height="28" viewBox="0 0 28 28">
  <g id="invitefriend" transform="translate(0.093 0)">
    <rect id="Rectangle_1289" data-name="Rectangle 1289" width="28" height="28" transform="translate(-0.093 0)" fill="none"/>
    <path id="invitefriend-2" data-name="invitefriend" d="M24.011,8H21.548V5.541a.617.617,0,0,0-.616-.616H19.7a.617.617,0,0,0-.616.616V8H16.623a.617.617,0,0,0-.616.616V9.851a.617.617,0,0,0,.616.616h2.463v2.463a.617.617,0,0,0,.616.616h1.231a.617.617,0,0,0,.616-.616V10.466h2.463a.617.617,0,0,0,.616-.616V8.619A.617.617,0,0,0,24.011,8ZM8.619,9.851A4.925,4.925,0,1,0,3.694,4.925,4.925,4.925,0,0,0,8.619,9.851Zm3.448,1.231h-.643a6.7,6.7,0,0,1-5.61,0H5.172A5.173,5.173,0,0,0,0,16.254v1.6A1.847,1.847,0,0,0,1.847,19.7H15.392a1.847,1.847,0,0,0,1.847-1.847v-1.6A5.173,5.173,0,0,0,12.067,11.082Z" transform="translate(1.645 4.189)" fill="#422343"/>
  </g>
</svg>
