<svg xmlns="http://www.w3.org/2000/svg" width="27" height="28" viewBox="0 0 27 28">
  <g id="kycapplication" transform="translate(-0.467 0.169)">
    <rect id="Rectangle_1287" data-name="Rectangle 1287" width="27" height="28" transform="translate(0.467 -0.169)" fill="none"/>
    <g id="kycapplication-2" data-name="kycapplication" transform="translate(2.744 0.851)">
      <path id="Path_6038" data-name="Path 6038" d="M5.336,13.084a.834.834,0,0,1-.421-.112.82.82,0,0,1-.3-1.127c1.055-1.769,4.261-5.9,11.265-5.9a13.293,13.293,0,0,1,7.905,2.383A13.373,13.373,0,0,1,27.107,11.8a.817.817,0,0,1-.219,1.144.845.845,0,0,1-1.161-.218,11.214,11.214,0,0,0-9.849-5.143c-6.139,0-8.913,3.562-9.819,5.09A.819.819,0,0,1,5.336,13.084Z" transform="translate(-4.5 -2.845)" fill="#422343"/>
      <path id="Path_6039" data-name="Path 6039" d="M19.584,29.858a.83.83,0,0,1-.207-.024c-5.08-1.268-6.977-6.376-7.055-6.588L12.31,23.2c-.041-.147-1.061-3.651.5-5.7a3.848,3.848,0,0,1,3.249-1.416,3.469,3.469,0,0,1,2.97,1.286,6.418,6.418,0,0,1,.978,2.424c.445,1.752.765,2.672,2.614,2.766a1.912,1.912,0,0,0,1.648-.843,4.911,4.911,0,0,0,.344-4.512,9.471,9.471,0,0,0-8.56-5.951,8.718,8.718,0,0,0-5.62,1.97,9.075,9.075,0,0,0-2.81,4.117c-.913,2.878.285,7.4.3,7.443a.818.818,0,0,1-.593,1A.842.842,0,0,1,6.3,25.2c-.053-.206-1.334-5.031-.279-8.357a10.561,10.561,0,0,1,16.771-4.8,11.511,11.511,0,0,1,3.379,4.565,6.491,6.491,0,0,1-.557,6.063,3.557,3.557,0,0,1-3.083,1.522c-3.166-.159-3.735-2.383-4.15-4-.427-1.663-.7-2.465-2.33-2.465a2.239,2.239,0,0,0-1.915.761,4,4,0,0,0-.516,2.6,8.431,8.431,0,0,0,.279,1.64c.13.33,1.826,4.512,5.887,5.526a.819.819,0,0,1,.6,1A.841.841,0,0,1,19.584,29.858Z" transform="translate(-4.679 -3.31)" fill="#422343"/>
      <path id="Path_6040" data-name="Path 6040" d="M13.66,30.088a.849.849,0,0,1-.612-.26,13.21,13.21,0,0,1-3.624-7.549v-.018a8.762,8.762,0,0,1,1.86-6.735,6.913,6.913,0,0,1,5.377-2.153A6.681,6.681,0,0,1,22.786,17a10.141,10.141,0,0,1,1.153,3.509.828.828,0,0,1-.749.9.838.838,0,0,1-.921-.731h0a8.492,8.492,0,0,0-.98-2.931,5.017,5.017,0,0,0-4.635-2.731,5.291,5.291,0,0,0-4.124,1.6,7.206,7.206,0,0,0-1.456,5.438,11.6,11.6,0,0,0,3.191,6.653.812.812,0,0,1-.042,1.162A.846.846,0,0,1,13.66,30.088Z" transform="translate(-5.282 -3.918)" fill="#422343"/>
      <path id="Path_6041" data-name="Path 6041" d="M24.179,29a6.859,6.859,0,0,1-4.477-1.48A8.265,8.265,0,0,1,17,22.21a.831.831,0,0,1,1.657-.13,6.7,6.7,0,0,0,2.111,4.182A5.72,5.72,0,0,0,25.164,27.3a.829.829,0,0,1,.92.725.819.819,0,0,1-.731.908A10.1,10.1,0,0,1,24.179,29Z" transform="translate(-6.407 -5.199)" fill="#422343"/>
      <path id="Path_6042" data-name="Path 6042" d="M24.264,4.055c-.695-.454-3.158-1.8-7.789-1.8-4.862,0-7.331,1.492-7.878,1.87a.648.648,0,0,0-.1.077.018.018,0,0,1-.012.006h0a.818.818,0,0,0,.558,1.433.852.852,0,0,0,.487-.153h0l-.006.006C9.547,5.47,11.678,3.9,16.475,3.9S23.4,5.476,23.426,5.488l-.006-.006.012-.012a.841.841,0,0,0,1.342-.655A.82.82,0,0,0,24.264,4.055Z" transform="translate(-5.097 -2.25)" fill="#422343"/>
    </g>
  </g>
</svg>
