<svg id="ltc" xmlns="http://www.w3.org/2000/svg" width="43" height="43" viewBox="0 0 43 43">
  <circle id="circle" cx="21.5" cy="21.5" r="21.5" fill="#fff" opacity="0.37"/>
  <path id="litecoin" d="M21.338,3.661A12.5,12.5,0,0,0,3.661,21.339,12.5,12.5,0,0,0,21.338,3.661ZM12.5,23.047A10.547,10.547,0,1,1,23.046,12.5,10.559,10.559,0,0,1,12.5,23.047ZM9.482,17.187h9.2l-.52,1.953H6.941l1.62-6.123L5.419,14.16l.609-2.3,3.142-1.142L10.908,4.15H12.93L11.409,9.9l3.213-1.168-.609,2.3L10.8,12.2Zm0,0" transform="translate(9 9)" fill="#fff"/>
</svg>
