<svg xmlns="http://www.w3.org/2000/svg" width="28" height="28.093" viewBox="0 0 28 28.093">
  <g id="notification" transform="translate(0.093)">
    <rect id="Rectangle_1291" data-name="Rectangle 1291" width="28" height="28" transform="translate(-0.093 0.093)" fill="none"/>
    <path id="notification-2" data-name="notification" d="M16.971,3.375a1.971,1.971,0,0,0-2,2.011v.939a8.691,8.691,0,0,0-6.674,8.448v7.375L5.625,24.83v1.341H28.318V24.83l-2.67-2.682V14.773a8.691,8.691,0,0,0-6.674-8.448V5.386a1.971,1.971,0,0,0-2-2.011Zm2.67,24.137H14.3a2.67,2.67,0,1,0,5.339,0Z" transform="translate(-2.77 -3.375)" fill="#422343"/>
  </g>
</svg>
