<svg xmlns="http://www.w3.org/2000/svg" width="99.44" height="100.174" viewBox="0 0 99.44 100.174">
  <path id="op1" d="M55.1.084a5.5,5.5,0,0,1-1,.124,33.429,33.429,0,0,0-7.716,1.936c-.151.069-.577.247-.961.4a37.1,37.1,0,0,0-4.064,1.95,2.573,2.573,0,0,1-.714.33c-.206.055-.371.151-.371.206s-.11.137-.233.192a3.627,3.627,0,0,0-.659.357,5.892,5.892,0,0,1-.728.412,3.977,3.977,0,0,0-.769.481,2.388,2.388,0,0,1-.535.343,49.131,49.131,0,0,0-5.986,4.339,25.374,25.374,0,0,0-2.9,3.089,1.368,1.368,0,0,1-.288.412,24.843,24.843,0,0,0-2,3.144c-.151.343-.453.947-.645,1.359a9.354,9.354,0,0,0-.879,4.613,4.925,4.925,0,0,0,1.634,3.789,6.308,6.308,0,0,0,4.586,1.867,10.846,10.846,0,0,0,3.844-.439c.453-.124,1.057-.275,1.346-.357a3.37,3.37,0,0,0,.755-.261c.316-.165,2.087-.961,2.169-.961A53.965,53.965,0,0,0,44.8,23.85c1.771-1.181,3.323-2.21,3.46-2.279s.961-.577,1.854-1.112,1.991-1.153,2.444-1.387,1.1-.577,1.442-.755.989-.467,1.442-.632,1.016-.412,1.236-.508.563-.247.755-.33a11.6,11.6,0,0,1,2.924-.522,4.851,4.851,0,0,1,5.258,3.323,6.872,6.872,0,0,1,.261,2.677,10.282,10.282,0,0,1-.714,4.394c-.11.261-.261.632-.343.824A31.544,31.544,0,0,1,61.1,33.694a52.975,52.975,0,0,1-7.03,7.277c-.755.632-1.593,1.318-1.854,1.538a23.5,23.5,0,0,1-1.991,1.455c-.3.192-.8.522-1.1.741a36.775,36.775,0,0,1-4.394,2.334c-.371.165-.879.384-1.126.494a2.079,2.079,0,0,1-.7.192,2.942,2.942,0,0,0-.7.151,1.313,1.313,0,0,1-1.8-1.208c0-1.126.535-1.84,3.913-5.19,3.652-3.625,4.05-4.16,4.05-5.533A3.327,3.327,0,0,0,46.19,32.8a3.423,3.423,0,0,0-2.059-.384,5.26,5.26,0,0,0-3.1.783c-.22.137-.563.316-.755.412a2.366,2.366,0,0,0-.412.247c-.041.041-.316.247-.618.481a18.353,18.353,0,0,0-2.732,2.8,19.118,19.118,0,0,0-1.744,2.9,14.014,14.014,0,0,0-1.359,5.3c0,2.952,1.538,5.313,3.913,5.986a17.921,17.921,0,0,0,4.627.014,26.118,26.118,0,0,0,3.734-1.153.572.572,0,0,1,.33-.124,42.078,42.078,0,0,0,5.835-2.979c.316-.206.673-.439.81-.522s.769-.467,1.442-.879,1.236-.8,1.277-.838a11.917,11.917,0,0,1,1.03-.755c.535-.371,1.153-.8,1.373-.947s.879-.659,1.442-1.112a54.839,54.839,0,0,0,8.567-8.238c.3-.371.577-.714.618-.755.11-.082,1.043-1.428,1.689-2.444a17.862,17.862,0,0,0,.975-1.675c.261-.494.618-1.167.8-1.51s.563-1.236.865-1.991.577-1.5.632-1.648A31.6,31.6,0,0,0,74.6,18.482a20.335,20.335,0,0,0-.494-7.208,11.787,11.787,0,0,0-.8-1.991,15.031,15.031,0,0,0-4.874-5.9,7.194,7.194,0,0,1-.769-.6A19.292,19.292,0,0,0,63.188.784,22.566,22.566,0,0,0,60.593.208,29.6,29.6,0,0,0,55.1.084ZM94.9,67.978c-.041.027-.673.151-1.428.275s-1.991.316-2.746.453l-1.373.233V81.57c0,13.716-.027,13.139.783,14.856a5,5,0,0,0,1.249,1.634C92.844,99.391,94.2,99.8,97.1,99.817c2.471,0,2.375.1,2.32-2.183l-.041-1.648-1.057-.1c-1.881-.165-2.787-.92-2.993-2.485-.055-.467-.1-6.343-.082-13.043C95.26,68.76,95.233,67.648,94.9,67.978Zm-38.018.275c-3.048.453-4.064.645-4.188.8-.1.11-.11,4.49-.069,12.865.069,11.7.1,12.755.316,13.318a5.933,5.933,0,0,0,1.5,2.5c1.442,1.442,3.281,2.032,6.3,2.032,1.675,0,1.908-.027,2.018-.247a13.344,13.344,0,0,0,.1-3.2c-.082-.343-.137-.357-1.167-.439a2.845,2.845,0,0,1-2.609-1.469l-.343-.618L58.7,86.677c-.027-5.3,0-7.167.124-7.318s.59-.192,2.059-.192c2.265,0,2.073.22,2.018-2.4l-.041-1.785-1.922-.069a13.315,13.315,0,0,1-2.087-.178c-.137-.082-.178-.92-.178-3.4V68.046l-.3.014c-.178.014-.838.1-1.483.192ZM9.312,74.444A21.975,21.975,0,0,0,5.056,75.46a5.354,5.354,0,0,1-.618.22,11.36,11.36,0,0,0-2.609,1.3,4.487,4.487,0,0,0,.261.714,18.037,18.037,0,0,0,1.318,2.7,1.247,1.247,0,0,0,.316-.124,14.863,14.863,0,0,1,2.224-.906c.412-.124.906-.288,1.1-.357a10.921,10.921,0,0,1,3.762-.261c1.867.3,2.554,1.167,2.664,3.378.055,1.222.055,1.249-.261,1.332a24.741,24.741,0,0,1-2.8.1c-3.268,0-4.27.192-6.384,1.222a7.438,7.438,0,0,0-3.8,4.682,9.322,9.322,0,0,0,.082,4.394A8.655,8.655,0,0,0,8.571,100,15.209,15.209,0,0,0,18.58,97.112l.892-.728.041-7.263c.041-8.416.027-8.7-.989-10.764A7.812,7.812,0,0,0,15.6,75.529c-.439-.206-.92-.412-1.071-.481A13.925,13.925,0,0,0,9.312,74.444Zm4.05,13.235A26.3,26.3,0,0,1,13.5,91.4c0,3.9.055,3.652-.961,4.188a4.636,4.636,0,0,1-2.142.261H8.736l-.686-.467a4.1,4.1,0,0,1-.961-.892,5.107,5.107,0,0,1,.124-5.437,5.639,5.639,0,0,1,1.744-1.236.63.63,0,0,0,.371-.124c.192-.206.824-.261,2.43-.233,1.153.014,1.51.055,1.606.22ZM43.568,74.774a15.236,15.236,0,0,0-7.112,3.817l-.577.522V99.391c0,.22.206.233,2.993.206l2.979-.041.041-9.57.027-9.556.522-.412a4.6,4.6,0,0,1,1.716-.92,9.4,9.4,0,0,1,3.542-.343,5.088,5.088,0,0,0,1.153.041,3.042,3.042,0,0,0,.563-1.043c.206-.549.535-1.263.7-1.593.453-.865.412-1.085-.192-1.222-.288-.069-.81-.192-1.181-.275A16.931,16.931,0,0,0,43.568,74.774ZM73.43,74.8a2.923,2.923,0,0,0-.947.261.572.572,0,0,1-.33.124,4.7,4.7,0,0,0-1.085.439,10.4,10.4,0,0,0-3.364,3.13,14.043,14.043,0,0,0-1.414,2.952,5.191,5.191,0,0,1-.206.686c-.055.151-.22.741-.357,1.3a26.739,26.739,0,0,0-.014,7.62,13.717,13.717,0,0,0,1.208,3.226.14.14,0,0,1,.124.151c0,.522,1.634,2.595,2.787,3.529a9.871,9.871,0,0,0,2.5,1.291,16.583,16.583,0,0,0,3.858.659,17.261,17.261,0,0,0,6.631-1.579,4.635,4.635,0,0,1,.838-.412,4.322,4.322,0,0,0,1.428-.879A11.963,11.963,0,0,0,83.466,94a1.3,1.3,0,0,0-.535.275,1.227,1.227,0,0,1-.535.275,1.008,1.008,0,0,0-.453.192,13.107,13.107,0,0,1-1.579.632,7.221,7.221,0,0,1-3.226.467c-1.7,0-1.991-.027-2.54-.288-1.922-.92-3.021-3.24-3.021-6.371a8.961,8.961,0,0,1,.041-1.249c.014-.027,3.062-.069,6.755-.11l6.728-.069-.041-1.373c-.082-2.691-.8-6.316-1.414-7.139-.055-.082-.247-.426-.426-.769a7.231,7.231,0,0,0-4.16-3.35A13.734,13.734,0,0,0,73.43,74.8Zm2.952,4.366c.577.151,1.785,1.126,1.785,1.428a1.821,1.821,0,0,0,.206.535,5.871,5.871,0,0,1,.343,2.911c-.137.178-.673.206-3.446.206H71.988l-.082-.343a5.7,5.7,0,0,1,.851-3.309,3.489,3.489,0,0,1,1.936-1.455,3.439,3.439,0,0,1,.961-.178c.082.027.412.124.728.206ZM26.131,65.136A3.83,3.83,0,0,0,24.319,66.6c-.439.673-.453.728-.453,2.128v1.455l.522.714a3.421,3.421,0,0,0,1.936,1.455,3.831,3.831,0,0,0,3.5-.522,4.084,4.084,0,0,0,1.085-5.08,3.187,3.187,0,0,0-1.414-1.428A4.477,4.477,0,0,0,26.131,65.136Zm3.364,9.913a10.752,10.752,0,0,1-1.373.261c-.522.069-1.483.206-2.128.3a7.277,7.277,0,0,0-1.277.247c-.124.11-.137,23.437-.027,23.643a17.273,17.273,0,0,0,2.883.124c2.8,0,2.815,0,2.883-.316.041-.165.055-5.712.041-12.316-.041-11.9-.041-12.014-.316-12.041a2.273,2.273,0,0,0-.686.1Z" transform="translate(0)" fill="red"/>
</svg>
