<svg id="op2" xmlns="http://www.w3.org/2000/svg" xmlns:xlink="http://www.w3.org/1999/xlink" width="114.401" height="124.881" viewBox="0 0 114.401 124.881">
  <defs>
    <clipPath id="clip-path">
      <path id="Path_15586" data-name="Path 15586" d="M270,242h22.024v41.4H270Zm0,0" transform="translate(-270 -242)"/>
    </clipPath>
  </defs>
  <path id="Path_15579" data-name="Path 15579" d="M193.452.9c2.157-.8,4.685-1.387,6.855-.322,1.291.837,1.493,2.538,1.557,3.945.206,3.209-1.167,6.232-2.656,8.988a89.562,89.562,0,0,1-9.839,13.534c-5.021,6.01-10.054,12.018-15.281,17.853-.964,1.155-2.081,2.178-2.97,3.4,1.829,1.965,3.663,3.931,5.4,5.97q-9.158.044-18.315,0-.247-9.344-.293-18.682c2.577,1.763,4.6,4.275,7.2,5.966a149.328,149.328,0,0,0,11.643-9.671c3.528-3.254,7.087-6.491,10.331-10.034a68.387,68.387,0,0,0,9.5-11.813,9.577,9.577,0,0,0,1.572-4.781,1.938,1.938,0,0,0-1.819-1.973,19.367,19.367,0,0,0-6.435,1.181,53.388,53.388,0,0,0-10.883,5.179,7.327,7.327,0,0,1,1.553-1.389A58.7,58.7,0,0,1,193.452.9" transform="translate(-103.886 0)" fill="#1162af"/>
  <path id="Path_15580" data-name="Path 15580" d="M94.935,17.864a29.411,29.411,0,0,1,22.867-2.22,29.815,29.815,0,0,1,17.159,14.032c.229.492.611,1,.465,1.572-3.244,3.543-6.8,6.78-10.331,10.034a149.322,149.322,0,0,1-11.643,9.671c-2.6-1.691-4.62-4.2-7.2-5.966q.04,9.338.293,18.682,9.157.05,18.315,0c-1.74-2.039-3.574-4.005-5.4-5.97.889-1.219,2.006-2.242,2.97-3.4,5.227-5.835,10.26-11.843,15.281-17.853a31.307,31.307,0,0,1,.255,13.473A29.638,29.638,0,0,1,125.6,68.389a29.3,29.3,0,0,1-17.682,5.063c-5.493-.015-10.765-2.054-15.416-4.863l-.09-.083a4.753,4.753,0,0,0-.409-.363,31.612,31.612,0,0,1-9.139-10.136,195.006,195.006,0,0,1,19.721-19.013,23.947,23.947,0,0,1,2.745-2.073c.436.007.7.424,1.017.667,1.743,1.733,3.464,3.491,5.208,5.224.311-5.745.086-11.5.116-17.25-.087-.108-.259-.326-.345-.436-4.751-.15-9.517.008-14.272-.063A7.171,7.171,0,0,0,94,25.379c2.112,1.844,4.047,3.885,5.97,5.925q-9.725,10.17-18.72,21.015l-.424.119a5.379,5.379,0,0,1-.762-2.114,29.925,29.925,0,0,1,2.007-18.762,29.321,29.321,0,0,1,12.862-13.7" transform="translate(-52.227 -9.403)" fill="#bcbdc1"/>
  <path id="Path_15581" data-name="Path 15581" d="M73.308,46.054a7.171,7.171,0,0,1,3.056-.315c4.755.071,9.521-.087,14.272.063.086.11.258.327.345.436-.031,5.748.2,11.5-.116,17.25C89.12,61.753,87.4,60,85.656,58.262c-.315-.243-.581-.66-1.017-.667a23.95,23.95,0,0,0-2.745,2.073A195,195,0,0,0,62.173,78.681c-3.265,3.787-6.569,7.658-8.737,12.2-.585,1.387-1.294,3.117-.424,4.526,1.107,1.321,3.067,1.117,4.575.791,3.034-.8,5.723-2.494,8.445-3.993a36.578,36.578,0,0,0,5.279-3.391,4.753,4.753,0,0,1,.409.363,35.671,35.671,0,0,0-4.371,3.071,56.31,56.31,0,0,1-11.161,6.525c-1.852.721-3.993,1.246-5.894.39a4.545,4.545,0,0,1-2.329-3.8c-.247-2.7.968-5.223,2.157-7.559a87.244,87.244,0,0,1,9.5-13.672,2.138,2.138,0,0,0,.513-1.021l.424-.119q8.977-10.83,18.72-21.015c-1.923-2.039-3.858-4.08-5.97-5.925" transform="translate(-31.533 -30.078)" fill="#db1f27"/>
  <path id="Path_15582" data-name="Path 15582" d="M85.167,250.765c-.037-5.763,5.187-10.792,10.868-10.975,3.727-.226,7.9.644,10.383,3.651,2.3,2.686,2.745,6.391,2.561,9.8-2.478.068-4.961.087-7.439-.015.374-2.178,0-4.7-1.725-6.24-1.842-1.977-5.723-1.2-6.506,1.425-.637,1.4.191,2.907,1.169,3.9,3.405,3.53,7.916,5.737,11.359,9.222a13.839,13.839,0,0,1,3.952,8.692c.278,3.229-.367,6.817-2.816,9.131-2.355,2.363-5.813,3.076-9.029,3.225-3.679.21-7.793-.625-10.256-3.592-2.708-3.252-3.262-7.758-2.884-11.847,2.648.039,5.295,0,7.943.02a43.8,43.8,0,0,0,.378,5.74,4.375,4.375,0,0,0,5.138,3.653,4.79,4.79,0,0,0,3.592-5.138,5.621,5.621,0,0,0-1.871-3.64c-4.084-3.15-8.08-6.41-12.034-9.716a9.035,9.035,0,0,1-2.783-7.29" transform="translate(-55.719 -157.726)" fill="#20201e"/>
  <path id="Path_15583" data-name="Path 15583" d="M7.984,265.479c-.027,4.009,0,8.021-.012,12.03,2.029.417,4.35.548,6.086-.783,1.688-1.3,2.093-3.57,2.081-5.576a7.2,7.2,0,0,0-1.665-4.88,6.28,6.28,0,0,0-5.268-1.552C8.734,264.835,7.758,264.655,7.984,265.479Zm0-17.115c-.016,3.611-.008,7.226,0,10.838a8.187,8.187,0,0,0,4.563-.453,4.661,4.661,0,0,0,2.668-3.694c.225-1.879.187-4.1-1.3-5.482-1.545-1.523-3.919-1.53-5.925-1.208M0,242.849c5.063-.018,10.124,0,15.186-.007a8.2,8.2,0,0,1,7.415,4.338c1.12,2.324,1.061,5,.794,7.507-.364,2.783-1.664,5.82-4.462,6.9,2.934.262,4.327,3.323,4.8,5.868.565,3.3.881,6.859-.38,10.042a10.639,10.639,0,0,1-8.946,6.109c-4.8.037-9.612,0-14.415.019q.016-20.39,0-40.777" transform="translate(0 -159.754)" fill="#20201e"/>
  <path id="Path_15584" data-name="Path 15584" d="M175.375,242.844c2.722-.015,5.445-.011,8.167,0q4.709,12.371,9.465,24.719a6.816,6.816,0,0,0,1,2.168q.068-13.431.008-26.871c2.411-.045,4.818-.012,7.226-.018.019,13.593,0,27.187.011,40.78-2.8-.019-5.605.041-8.407-.027-3.241-8.8-6.466-17.609-9.772-26.383-.027.291-.079.877-.106,1.169.011,8.408-.008,16.814.008,25.218-2.535.049-5.071.012-7.6.027q.012-20.39,0-40.777" transform="translate(-115.373 -159.749)" fill="#20201e"/>
  <g id="Group_9230" data-name="Group 9230" transform="translate(92.377 82.798)" clip-path="url(#clip-path)">
    <path id="Path_15585" data-name="Path 15585" d="M270.719,242.842c2.73,0,5.459-.023,8.194.016-.031,11.471-.083,22.946.023,34.416,4.519-.04,9.04-.059,13.559.008-.036,2.112-.017,4.222-.017,6.337-7.245.008-14.494-.011-21.739.011-.027-13.6.015-27.193-.018-40.788" transform="translate(-270.473 -242.55)" fill="#20201e"/>
  </g>
</svg>
