<svg xmlns="http://www.w3.org/2000/svg" width="123.5" height="79.35" viewBox="0 0 123.5 79.35">
  <g id="op3" transform="translate(-35.979 35)">
    <path id="Path_15966" data-name="Path 15966" d="M42.805,21.4A21.4,21.4,0,1,1,21.4,0a21.4,21.4,0,0,1,21.4,21.4" transform="translate(76.327 -35)" fill="#ee3023"/>
    <path id="Path_15967" data-name="Path 15967" d="M12.948,31.634c-5.879.02-12-5-12.026-13.06A18.169,18.169,0,0,1,7.454,5.07,21.409,21.409,0,0,1,20.4.182a5.391,5.391,0,0,1,1.542.173A8.89,8.89,0,0,0,14.965,8.9a1.909,1.909,0,0,0,.027.35c6.516,1.589,9.473,5.521,9.493,10.96A11.455,11.455,0,0,1,12.947,31.634" transform="translate(84.953 -33.295)" fill="#fff"/>
    <path id="Path_15968" data-name="Path 15968" d="M11.381,22.826,4.837,7.21H9.112l4.082,10.37L17.15,7.21h4.082L14.881,22.826ZM32.62,14.937a7.284,7.284,0,0,0-.228-1.852,4.438,4.438,0,0,0-.68-1.51,3.442,3.442,0,0,0-1.1-1.007,3.256,3.256,0,0,0-3.044,0,3.4,3.4,0,0,0-1.1,1.007,4.434,4.434,0,0,0-.68,1.51,7.713,7.713,0,0,0,0,3.724,4.888,4.888,0,0,0,.661,1.51,3.244,3.244,0,0,0,1.1,1.026,3.092,3.092,0,0,0,1.538.374,3.011,3.011,0,0,0,1.522-.374,3.461,3.461,0,0,0,1.1-1.026,4.649,4.649,0,0,0,.68-1.51,7.242,7.242,0,0,0,.228-1.872m3.952.017a9.9,9.9,0,0,1-.468,3,8.243,8.243,0,0,1-1.4,2.639,6.868,6.868,0,0,1-2.332,1.88,7.19,7.19,0,0,1-3.288.712,7.169,7.169,0,0,1-3.288-.712,6.921,6.921,0,0,1-2.336-1.88,8.315,8.315,0,0,1-1.392-2.639,9.9,9.9,0,0,1-.468-3,9.756,9.756,0,0,1,.468-2.981,8.158,8.158,0,0,1,1.392-2.607A6.831,6.831,0,0,1,25.8,7.522a7.322,7.322,0,0,1,3.288-.7,7.243,7.243,0,0,1,3.272.7,7.008,7.008,0,0,1,2.332,1.844A7.9,7.9,0,0,1,36.1,11.973a9.756,9.756,0,0,1,.468,2.981m12.069-4.308a5.968,5.968,0,0,0-2.163-.456,3.757,3.757,0,0,0-1.77.393,3.492,3.492,0,0,0-1.227,1.054,4.813,4.813,0,0,0-.724,1.5,6.049,6.049,0,0,0-.244,1.707,8.073,8.073,0,0,0,.212,1.868,4.816,4.816,0,0,0,.645,1.561,3.431,3.431,0,0,0,1.093,1.074,2.963,2.963,0,0,0,1.565.405,3.274,3.274,0,0,0,1.514-.405,2.677,2.677,0,0,0,1.1-.96Zm.322,12.179-.161-1.2a4.963,4.963,0,0,1-1.455,1.081,4.544,4.544,0,0,1-2.131.472,5.765,5.765,0,0,1-2.839-.68,6.358,6.358,0,0,1-2.069-1.813,8.3,8.3,0,0,1-1.278-2.627,11.134,11.134,0,0,1-.432-3.111,10.087,10.087,0,0,1,.448-2.981,7.886,7.886,0,0,1,1.372-2.607A6.853,6.853,0,0,1,42.731,7.52a7.188,7.188,0,0,1,3.26-.7,8.862,8.862,0,0,1,2.651.452V1.216h4.015V22.826Zm15-7.322c-.433.023-.881.063-1.337.114q-.655.078-1.3.212a3,3,0,0,0-1.813.889,2.181,2.181,0,0,0-.5,1.38,1.536,1.536,0,0,0,.57,1.247,2.485,2.485,0,0,0,1.612.468,3.708,3.708,0,0,0,1.518-.322,4.507,4.507,0,0,0,1.254-.81Zm.322,7.31-.157-1.168a4.453,4.453,0,0,1-1.659,1.129,5.846,5.846,0,0,1-2.21.409,5.524,5.524,0,0,1-1.935-.342,5.036,5.036,0,0,1-1.644-.971,4.764,4.764,0,0,1-1.593-3.645,4.425,4.425,0,0,1,.456-2.057,4.488,4.488,0,0,1,1.235-1.506,6.862,6.862,0,0,1,1.789-1,11.24,11.24,0,0,1,2.112-.586,15.4,15.4,0,0,1,1.707-.24c.617-.055,1.133-.1,1.545-.146v-.228a2.265,2.265,0,0,0-.668-1.848,2.81,2.81,0,0,0-1.837-.551,5.053,5.053,0,0,0-1.306.165,5.68,5.68,0,0,0-1.1.4,9.834,9.834,0,0,0-.865.488,6.1,6.1,0,0,0-.6.436L56.223,8.735a5.712,5.712,0,0,1,.794-.551,8.9,8.9,0,0,1,1.3-.633,10.917,10.917,0,0,1,1.715-.519,9.489,9.489,0,0,1,2.057-.212,7.739,7.739,0,0,1,2.367.342A4.79,4.79,0,0,1,66.3,8.232a5,5,0,0,1,1.215,1.844,7.424,7.424,0,0,1,.437,2.7V22.814ZM80.365,4.779a6.32,6.32,0,0,0-.759-.275,5.241,5.241,0,0,0-1.51-.177,2.053,2.053,0,0,0-1.408.5,2.087,2.087,0,0,0-.566,1.636V7.21h3.37v3.24H76.153V22.826H72.134V10.45H70.061V7.21h2.072V6.368a7.477,7.477,0,0,1,.389-2.576,4.456,4.456,0,0,1,1.085-1.715A4.244,4.244,0,0,1,75.244,1.1,6.568,6.568,0,0,1,77.289.8a8.812,8.812,0,0,1,2.411.275,7.233,7.233,0,0,1,1.117.374ZM91.317,14.937a7.47,7.47,0,0,0-.228-1.852,4.438,4.438,0,0,0-.68-1.51,3.442,3.442,0,0,0-1.1-1.007,3.256,3.256,0,0,0-3.044,0,3.453,3.453,0,0,0-1.1,1.007,4.588,4.588,0,0,0-.68,1.51,7.848,7.848,0,0,0,0,3.724,4.987,4.987,0,0,0,.665,1.51,3.268,3.268,0,0,0,1.1,1.026,3.118,3.118,0,0,0,1.542.374,3.012,3.012,0,0,0,1.522-.374,3.46,3.46,0,0,0,1.1-1.026,4.651,4.651,0,0,0,.68-1.51,7.417,7.417,0,0,0,.228-1.872m3.952.017a9.783,9.783,0,0,1-.472,3A8.157,8.157,0,0,1,93.4,20.593a6.868,6.868,0,0,1-2.332,1.88,7.948,7.948,0,0,1-6.575,0,6.921,6.921,0,0,1-2.336-1.88,8.315,8.315,0,0,1-1.392-2.639,9.778,9.778,0,0,1-.468-3,9.638,9.638,0,0,1,.468-2.981,8.158,8.158,0,0,1,1.392-2.607A6.831,6.831,0,0,1,84.5,7.522a7.322,7.322,0,0,1,3.288-.7,7.242,7.242,0,0,1,3.272.7,7.007,7.007,0,0,1,2.332,1.844A7.823,7.823,0,0,1,94.8,11.973a9.642,9.642,0,0,1,.472,2.981m12.47,7.871V13.918A4.464,4.464,0,0,0,107,11.162a2.477,2.477,0,0,0-2.076-.971,3.224,3.224,0,0,0-1.73.488,7.3,7.3,0,0,0-1.38,1.07V22.826H97.793V7.21h3.661l.193,1.231a7.22,7.22,0,0,1,4.5-1.616,6.682,6.682,0,0,1,2.269.37A4.449,4.449,0,0,1,110.2,8.378a5.455,5.455,0,0,1,1.152,2.1,10.6,10.6,0,0,1,.405,3.111v9.233Zm16.516-9.686a4.116,4.116,0,0,0-.342-1.408,2.98,2.98,0,0,0-.684-.971,2.655,2.655,0,0,0-1.84-.732,3.077,3.077,0,0,0-1.986.779,3.329,3.329,0,0,0-1.109,2.332ZM118.2,16.022a3.745,3.745,0,0,0,1.235,2.851,4.476,4.476,0,0,0,2.859.877,7.856,7.856,0,0,0,1.53-.146,7.046,7.046,0,0,0,1.27-.374,7.644,7.644,0,0,0,.944-.452,3.146,3.146,0,0,0,.586-.425l1.07,3.276q-.23.159-.731.437a7.541,7.541,0,0,1-1.247.519,13.673,13.673,0,0,1-1.75.421,12.731,12.731,0,0,1-2.2.177,8.693,8.693,0,0,1-2.9-.484,6.485,6.485,0,0,1-2.411-1.51,7.366,7.366,0,0,1-1.652-2.54,9.617,9.617,0,0,1-.617-3.63,10,10,0,0,1,.566-3.5A7.43,7.43,0,0,1,116.3,8.96a6.877,6.877,0,0,1,2.3-1.589,7.2,7.2,0,0,1,2.8-.551,7.664,7.664,0,0,1,2.757.488,5.647,5.647,0,0,1,2.186,1.506,7.266,7.266,0,0,1,1.455,2.643,12.291,12.291,0,0,1,.535,3.854v.712Zm0,0" transform="translate(31.143 21.163)" fill="#ee3023"/>
  </g>
</svg>
