<svg xmlns="http://www.w3.org/2000/svg" width="160.953" height="51.693" viewBox="0 0 160.953 51.693">
  <g id="oop4" transform="translate(-36.703 -3.195)">
    <path id="path3136" d="M60.181,72l-6.7.044v8.951c.106.882-.879.369-2.308,0-16.726-2.722-16.6,16.82-11.332,20.6,3.978,2.853,7.458,2.9,11.332,1.878,2.433-.487,3.227-2.3,3.24-1.658l.034,1.658h5.73ZM53.345,86.049v12.32s-7.1,2.159-9.1,0c-2.266-2.444-1.591-10.3.962-12.229,2.166-1.633,5.207-.991,8.137-.091Z" transform="translate(0 -49.483)" fill="#f35a21"/>
    <path id="rect3909" d="M140.32,108.21h6.721v21.381H140.32Z" transform="translate(-74.521 -75.525)" fill="#f35a21"/>
    <path id="rect3912" d="M140.473,84.909h6.586l.034,5.079h-6.62Z" transform="translate(-74.631 -58.768)" fill="#f35a21"/>
    <path id="path3934" d="M268.36,80.043v29.305h6.709V94.673c3.808-5.119,10.018-3.632,10.622,0v14.665h5.75v-14.6a9.058,9.058,0,0,0-2.849-6.4c-2.042-1.8-8.63-2-10.864-.544a13.439,13.439,0,0,0-2.6,1.6l-.017-1.465v-7.86Z" transform="translate(-166.606 -55.268)" fill="#f35a21"/>
    <path id="path3936" d="M371.717,80.4h6.465v7.758l6.771.017c.263,0,.358.133.357.425l-.017,3.664c0,.315-.207.359-.455.385H378.42v10.072a3.017,3.017,0,0,0,3.062,3.062h4.934c.629-.053.413,4.1,0,3.811a31.847,31.847,0,0,1-10.072,0c-2.487-.18-4.459-3.281-4.448-4.594V92.811l-3.378.059c-.157-.007-.218-.179-.209-.339l-.017-3.977c0-.217.056-.395.3-.417l3.29-.081Z" transform="translate(-238.477 -55.525)" fill="#f35a21"/>
    <path id="path3938" d="M448.61,104.131h5.534v13.281c1.379.219,1.639-.286,2.358-1.107l9.961-12.223,4.668-.048-15.88,22.521c-1.528.639-5.484.664-6.785,0Z" transform="translate(-296.137 -72.522)" fill="#f35a21"/>
    <path id="path3940" d="M191.857,101.036c-3.211-.671-7.617-.142-10.548.34-7.246,1.464-8.773,10.348.51,12.76,6.036,1.86,9.585,2.445,9.56,4.23-.031,2.191-6.891,2.982-9.56.228h-5.75c-.56,2.546-.384,3.971,6.363,6.091a29.442,29.442,0,0,0,8.711.034c11.029-1.189,9.82-12.482,0-13.509-5.695-.425-8.481-1.3-8.574-3.493-.065-1.546,4.912-2.418,9.319,0l5.773-.117c1.619-1.836.031-4.857-5.8-6.567Z" transform="translate(-99.721 -70.138)" fill="#f35a21"/>
    <path id="path3942" d="M551.565,44.357l4.5-4.5c15.026,14.9,4.34,27.872-10.947,40.494,9.226-11.818,21.444-23.559,6.448-35.994Z" transform="translate(-365.648 -26.367)" fill="#f35a21"/>
    <path id="path3944" d="M273.492,15.791a20.68,20.68,0,0,0,4.764-4.764c-36.108-19.449-87.8,2.28-114.669,11.909C194.384,12.782,246.918-.03,273.492,15.791Z" transform="translate(-91.253 0)" fill="#f35a21"/>
    <path id="path3946" d="M517.013,45.153h4.475c4.948-7.1,11-14.105,14.581-21.318C529.138,30.478,523.356,38.04,517.013,45.153Z" transform="translate(-345.436 -14.843)" fill="#f35a21"/>
  </g>
</svg>
