<svg xmlns="http://www.w3.org/2000/svg" width="161.083" height="57.49" viewBox="0 0 161.083 57.49">
  <g id="op6" transform="translate(-0.008 0.126)">
    <path id="Path_15571" data-name="Path 15571" d="M71.355,25.977l9.063.262v2.934l-.262.8-.267.267-.267.534-15.738.267-.267,1.865v.267l.267.267,3.735.267H84.688c3.616-1.811,6.075-7.651,4.8-11.468l-1.331-.8-8.8-.267.082-4.085,13.54.354-6.157,22.4,6.669.267,4.264-12.27,5.813,6.669h6.991l-5.066-8.534.267-.8c1.161-1.167,4.722-3.468,6.4-3.468l1.069.267c6.162,7.007,5.557,10.568-.8,16.8H119.9l16-19.2v-.649h-7.466L123.1,26.239h-.8l-1.869-7.313-14.664-.153c-.251-.027-5,4.254-6.708,4.532.671-2.945,1.44-5.868,2.17-8.8V13.97L94.565,13.7h-20C69.8,16.079,69.648,21.712,71.355,25.977Zm0,0" transform="translate(25.191 5.428)" fill="#e30016" fill-rule="evenodd"/>
    <path id="Path_15573" data-name="Path 15573" d="M47.6,33.786,51.251,23.5,54.9,33.933h8.54L55.117,13.5H47.308L39.063,33.786Zm0,0" transform="translate(15.467 5.346)" fill="#009ee0" fill-rule="evenodd"/>
    <path id="Path_15574" data-name="Path 15574" d="M20.309,33.786,23.958,23.5l3.654,10.437h8.534L27.829,13.5H20.015L11.769,33.786Zm0,0" transform="translate(4.658 5.346)" fill="#009ee0" fill-rule="evenodd"/>
    <path id="Path_15575" data-name="Path 15575" d="M27.3,13.707v6.277h5.911v13.65h8.1V19.984h4.815V13.707Zm0,0" transform="translate(10.807 5.428)" fill="#009ee0" fill-rule="evenodd"/>
    <path id="Path_15576" data-name="Path 15576" d="M.008,13.863V20.14H5.919V33.789h8.1V20.14h4.815V13.863Zm0,0" transform="translate(0 5.49)" fill="#009ee0" fill-rule="evenodd"/>
    <path id="Path_15577" data-name="Path 15577" d="M67.709,57.4C51.017,39.931,57.157,9.955,84.227-.09,65.533,12.949,56.258,30.443,67.709,57.4Zm0,0" transform="translate(23.15 -0.036)" fill="#e30016" fill-rule="evenodd"/>
  </g>
</svg>
