<svg xmlns="http://www.w3.org/2000/svg" width="160.953" height="100" viewBox="0 0 160.953 100">
  <g id="op7" transform="translate(-0.547 -23.741)">
    <rect id="Rectangle_3100" data-name="Rectangle 3100" width="57" height="57" rx="28.5" transform="translate(52.547 66.741)" fill="#5a376d"/>
    <path id="Path_15587" data-name="Path 15587" d="M145.214,39.606c.016-.592-.018-1.892-.018-2.4,0-1.108-.056-6.249.042-6.932.509-3.608,3.067-3.583,5.831-3.583,2.7,0,5.268-.085,5.817,3.6.2,1.379.1,5.163.116,6.968,0,.4-.033,1.767-.016,2.346H161.5c0-2.209-.014-4.995-.014-7.2,0-2.375-.151-4.129-1.22-5.84-1.74-2.784-4.939-2.8-7.868-2.8-5.15,0-10.875-.552-11.543,6.2-.214,2.171-.067,4.763-.065,7.008,0,1.045-.024,2.256-.013,2.636ZM38.323,26.826l6.486-.139c3.367,0,4.615,1.763,4.62,4.962.006,3.154-1.43,4.877-4.562,4.877l-6.559-.177ZM33.9,39.408l13.822-.042c4.229-.539,6.2-3.193,6.2-7.717s-1.852-7.316-6.126-7.8l-13.9-.085Zm26.67-9.584c-.444-3.228,2.832-2.878,5.35-2.878h8.26l.029-3.181H67.6c-5.831,0-11.8-.715-11.819,7.884-.013,4.327,1.687,6.872,5.545,7.594a37.8,37.8,0,0,0,6.332.214h6.559l-.009-3.2H65.575c-1.477,0-4.428.223-4.973-1.428a2.575,2.575,0,0,1,.108-1.792H73.638l-.007-3.177c-1.055-.03-12.585.075-13.059-.036Zm61.731,2.52a6.159,6.159,0,0,1,.979-4.361c.977-1.1,2.227-1.3,4.127-1.3,3.139,0,6.326-.4,6.675,4.164a6.1,6.1,0,0,1-.994,4.338c-.9,1.119-2.185,1.338-4.119,1.338-3.4,0-6.251.26-6.669-4.179Zm2.551-8.532c-3.007.27-4.843,1.079-5.992,3.107-1.113,1.964-1.22,5.44-.594,7.793,1.193,4.481,5.143,4.745,8.91,4.745,4,0,8.264.549,10.437-3.215a11.188,11.188,0,0,0,.641-7.688c-1.24-4.7-5.091-4.788-8.88-4.788-1.429,0-3.134-.079-4.521.046Zm-40.309,2.9a19.9,19.9,0,0,1,5.118.234c3.159,1.048,2.94,5.762,1.978,7.632a3.824,3.824,0,0,1-3.447,1.939,19.026,19.026,0,0,1-5.168-.281,3.488,3.488,0,0,1-2.444-2.944,7.99,7.99,0,0,1,.431-4.714c.651-1.226,1.727-1.717,3.533-1.867Zm-8.519,5.054c0,5.235,2.708,7.692,7.944,7.692H89c5.127,0,7.772-2.658,7.772-7.75,0-5.328-2.431-7.942-7.772-7.942H84.374c-3.047,0-5.65.536-7.167,2.8a9.41,9.41,0,0,0-1.182,5.2ZM23.531,23.9l-4.694.034a15.941,15.941,0,0,0-.675,1.6l-2.748,6.684c-.208.529-.447,1.173-.686,1.68-.547,1.16-1.265,2.089-2.658,2.1A2.727,2.727,0,0,1,9.381,33.99c-.865-1.975-1.91-4.671-2.75-6.736-.2-.492-1.218-3.107-1.389-3.344L.547,23.9a10.048,10.048,0,0,0,.48,1.213L2.5,28.724c.646,1.622,1.309,3.2,1.968,4.8.614,1.5,1.314,3.579,2.223,4.546,1.524,1.624,2.8,1.474,5.321,1.474,2.493,0,4.03.092,5.36-1.436A17.252,17.252,0,0,0,19.6,33.572Zm88.261,12.627c-4.551,0-8.818.878-8.8-4.935.022-5.788,4.061-4.9,8.8-4.9q2.3,0,4.589.007v-2.92l-6.439-.009c-5.726,0-11.288-.507-11.32,7.884-.016,4.236,1.626,6.794,5.284,7.542a32.663,32.663,0,0,0,6.152.266l6.325-.023v-2.9ZM25.823,23.769h4.4V39.39h-4.4V23.769" fill="#202020" fill-rule="evenodd"/>
    <path id="Path_15588" data-name="Path 15588" d="M57.725,74.827H55.538v7.14h2.187a2.53,2.53,0,0,0,2.122-.912,4.3,4.3,0,0,0,.719-2.7,4.084,4.084,0,0,0-.731-2.618,2.544,2.544,0,0,0-2.11-.91Zm-3.463,8.286V73.746h3.572a3.792,3.792,0,0,1,2.994,1.171,4.917,4.917,0,0,1,1.041,3.376,5.319,5.319,0,0,1-1.077,3.55,3.736,3.736,0,0,1-3.009,1.269Zm9.079-8.063v-1.3h1.146v1.3Zm0,8.063V76.3h1.146v6.812Zm5.777-6a1.771,1.771,0,0,0-1.49.675,3.1,3.1,0,0,0-.52,1.924,3.041,3.041,0,0,0,.534,1.914,1.78,1.78,0,0,0,1.488.684,1.848,1.848,0,0,0,1.542-.628,3.07,3.07,0,0,0,.5-1.924,3.184,3.184,0,0,0-.52-1.977,1.825,1.825,0,0,0-1.535-.673Zm2.015,5.17a2.612,2.612,0,0,1-.938.793,2.971,2.971,0,0,1-3.445-.739,3.978,3.978,0,0,1-.84-2.648,3.894,3.894,0,0,1,.842-2.618,2.8,2.8,0,0,1,2.232-.988,2.6,2.6,0,0,1,1.186.257,2.849,2.849,0,0,1,.952.822V76.3H72.24v6.664a3.008,3.008,0,0,1-.751,2.285,3.475,3.475,0,0,1-2.424.7,3.665,3.665,0,0,1-2.118-.529,1.68,1.68,0,0,1-.764-1.466V83.9H67.3v.025a.86.86,0,0,0,.449.791,2.719,2.719,0,0,0,1.351.264,2.36,2.36,0,0,0,1.557-.415,1.719,1.719,0,0,0,.473-1.361Zm2.855-7.229v-1.3h1.146v1.3Zm0,8.063V76.3h1.146v6.812ZM78.223,81.4a1,1,0,0,0,.13.612.6.6,0,0,0,.48.154c.067,0,.147,0,.243-.007s.219-.013.371-.027V83.1c-.192.034-.36.058-.512.076a3.785,3.785,0,0,1-.4.025,1.633,1.633,0,0,1-1.131-.31,1.514,1.514,0,0,1-.324-1.108V77.211H76.058V76.3h1.017V74.4h1.148v1.9h1.223v.911H78.223Zm6.528.806a3.788,3.788,0,0,1-1.139.838,2.975,2.975,0,0,1-1.276.281,2.3,2.3,0,0,1-1.628-.543,1.947,1.947,0,0,1-.586-1.5A1.874,1.874,0,0,1,80.7,79.82a3.157,3.157,0,0,1,1.754-.681c.2-.022.469-.053.809-.089a5.232,5.232,0,0,0,1.068-.172.47.47,0,0,0,.26-.2,1.4,1.4,0,0,0,.065-.539.9.9,0,0,0-.382-.784A2.076,2.076,0,0,0,83.12,77.1a1.907,1.907,0,0,0-1.2.319,1.126,1.126,0,0,0-.4.943H80.435v-.051a2,2,0,0,1,.724-1.629,3.055,3.055,0,0,1,2-.6,3.229,3.229,0,0,1,2.013.512,1.921,1.921,0,0,1,.645,1.6V81.6a1.075,1.075,0,0,0,.1.565.416.416,0,0,0,.346.127,1.128,1.128,0,0,0,.125-.007c.051-.007.109-.018.176-.031v.885a2.668,2.668,0,0,1-.366.08,1.889,1.889,0,0,1-.3.025,1.268,1.268,0,0,1-.858-.25.943.943,0,0,1-.286-.751Zm-.109-2.554a4.864,4.864,0,0,1-1.571.386c-.265.034-.462.062-.594.083a1.638,1.638,0,0,0-.9.369,1.032,1.032,0,0,0-.273.777.978.978,0,0,0,.319.782,1.346,1.346,0,0,0,.909.273,2.361,2.361,0,0,0,1.513-.465,1.44,1.44,0,0,0,.594-1.189Zm2.984,3.465V73.746h1.159v9.367Zm10.092-8.286H95.532v7.14h2.187a2.532,2.532,0,0,0,2.122-.912,4.3,4.3,0,0,0,.719-2.7,4.083,4.083,0,0,0-.731-2.618,2.544,2.544,0,0,0-2.111-.914Zm-3.463,8.286V73.746h3.572a3.8,3.8,0,0,1,3,1.171,4.924,4.924,0,0,1,1.04,3.376,5.318,5.318,0,0,1-1.078,3.55,3.735,3.735,0,0,1-3.009,1.269Zm11.28,0V74.879h-2.956V73.746h7.188v1.133h-2.956v8.233Zm5.364,0V73.746h1.278V77.59h4.857V73.746h1.278v9.367h-1.278v-4.39h-4.857v4.39Zm12.56-3.087h1.224a2.158,2.158,0,0,0,.677,1.624,2.524,2.524,0,0,0,1.762.6,2.847,2.847,0,0,0,1.714-.458,1.462,1.462,0,0,0,.628-1.249c0-.715-.786-1.264-2.355-1.637-.094-.022-.165-.036-.216-.049a6.182,6.182,0,0,1-2.52-1.008,2.019,2.019,0,0,1-.615-1.58,2.487,2.487,0,0,1,.916-2.013,3.7,3.7,0,0,1,2.437-.759,3.522,3.522,0,0,1,2.44.8,2.81,2.81,0,0,1,.9,2.185l-1.211.007a2,2,0,0,0-.641-1.436,2.336,2.336,0,0,0-1.577-.5,2.49,2.49,0,0,0-1.5.409,1.283,1.283,0,0,0-.559,1.088c0,.722.773,1.264,2.317,1.617l.529.129a1.177,1.177,0,0,1,.134.031,5.316,5.316,0,0,1,2.008.784,2.084,2.084,0,0,1,.572.773,2.517,2.517,0,0,1,.2,1.016,2.654,2.654,0,0,1-.97,2.158,3.981,3.981,0,0,1-2.623.8,3.814,3.814,0,0,1-2.656-.863,3.379,3.379,0,0,1-1.015-2.473Zm9.588-.94h3.738a2.117,2.117,0,0,0-.485-1.474,2.012,2.012,0,0,0-2.685-.009,2.367,2.367,0,0,0-.568,1.48Zm3.711,1.825h1.133a2.776,2.776,0,0,1-.979,1.774,3.074,3.074,0,0,1-2,.648,2.8,2.8,0,0,1-2.239-.952,3.865,3.865,0,0,1-.82-2.6,4.147,4.147,0,0,1,.813-2.723,2.759,2.759,0,0,1,2.244-.979,2.89,2.89,0,0,1,2.274.9,3.7,3.7,0,0,1,.8,2.549c0,.139,0,.243,0,.31a1.863,1.863,0,0,1-.014.2h-4.913a2.53,2.53,0,0,0,.534,1.664,2.029,2.029,0,0,0,2.583.228,1.661,1.661,0,0,0,.584-1.023Zm2.538,2.2V76.3h1.1v1.218a2.247,2.247,0,0,1,.742-1.023,1.89,1.89,0,0,1,1.146-.34h.184a.849.849,0,0,1,.116.016v1.206a.78.78,0,0,0-.1-.011h-.17a1.858,1.858,0,0,0-1.4.5,2.029,2.029,0,0,0-.48,1.455v3.791Zm5.979,0L142.761,76.3h1.229l1.9,5.458,1.857-5.458h1.228l-2.487,6.812Zm4.611-8.063v-1.3h1.146v1.3Zm0,8.063V76.3h1.146v6.812Zm7.413-4.546a1.469,1.469,0,0,0-.5-1.079,1.865,1.865,0,0,0-1.242-.38,1.692,1.692,0,0,0-1.434.668,3.128,3.128,0,0,0-.5,1.908A3.246,3.246,0,0,0,154.1,81.6a1.594,1.594,0,0,0,1.376.675,1.724,1.724,0,0,0,1.876-1.615h1.093a2.732,2.732,0,0,1-.883,1.953,3.112,3.112,0,0,1-2.138.7,2.7,2.7,0,0,1-2.2-.959,4.726,4.726,0,0,1,.034-5.313,2.86,2.86,0,0,1,2.29-.97,3.037,3.037,0,0,1,2.059.672,2.438,2.438,0,0,1,.822,1.818Zm3.19.52h3.738a2.116,2.116,0,0,0-.483-1.474,2.015,2.015,0,0,0-2.687-.009,2.378,2.378,0,0,0-.567,1.481Zm3.713,1.825h1.134a2.783,2.783,0,0,1-.98,1.774,3.076,3.076,0,0,1-2,.648,2.8,2.8,0,0,1-2.241-.952,3.862,3.862,0,0,1-.82-2.6,4.14,4.14,0,0,1,.814-2.723,2.755,2.755,0,0,1,2.245-.979,2.887,2.887,0,0,1,2.272.9,3.693,3.693,0,0,1,.8,2.549v.31a1.859,1.859,0,0,1-.016.2H160.5a2.518,2.518,0,0,0,.534,1.664,2.029,2.029,0,0,0,2.583.228,1.668,1.668,0,0,0,.588-1.019" transform="translate(-28.821 -26.698)" fill-rule="evenodd"/>
    <path id="Path_15904" data-name="Path 15904" d="M399.474,37.8l3.427.014V59.851h-3.258l-.006-2.143c-.161.065-.082.018-.183.2-1.477,2.71-5.708,2.864-8.072,1.644-2.5-1.291-3.921-3.994-3.932-7.578-.029-9.638,8.438-9.834,11.389-6.76.143.148.482.679.627.724Zm.065,14.874c.17-1.774-.177-4.426-1.742-5.6a4.237,4.237,0,0,0-3.961-.623,4.071,4.071,0,0,0-2.437,2.538,7.423,7.423,0,0,0-.456,2.04c-.6,6.711,4.93,7.784,7.2,5.217a6.093,6.093,0,0,0,1.4-3.57" transform="translate(-329.392 46.167)" fill="#fefefe" fill-rule="evenodd"/>
    <path id="Path_15905" data-name="Path 15905" d="M423.988,46.112a9.821,9.821,0,0,1,1.3-5.134,6.257,6.257,0,0,1,3.582-2.837,8.323,8.323,0,0,1,5.547.261c3.23,1.367,4.4,5.433,3.08,8.773a8.864,8.864,0,0,1-1.246,1.99,12.709,12.709,0,0,1-1.613,1.568c-1.18.956-2.363,1.693-3.8,2.676a14.91,14.91,0,0,0-1.814,1.427,6.982,6.982,0,0,0-.773.845,3.19,3.19,0,0,0-.5,1.016h10.272l-.011,3.146-14.425-.005a9.621,9.621,0,0,1,1.073-4.332c1.568-3,4.486-4.343,7.031-6.269a11.215,11.215,0,0,0,1.731-1.627,5.928,5.928,0,0,0,.764-1.2c1.383-3.107-.561-6.41-4.084-5.578-1.8.425-2.415,2.391-2.594,4.041-.04.36-.033.918-.107,1.251l-3.416-.007" transform="translate(-348.782 46.174)" fill="#fefefe" fill-rule="evenodd"/>
    <path id="Path_15906" data-name="Path 15906" d="M457.3,37.8l3.423.014.013,8.154c.146-.076.3-.36.414-.509,2.243-2.842,7.482-2.686,9.187.492.916,1.709.641,4.5.65,6.662.009,2.4.034,4.843,0,7.234h-3.434c-.054-2.811.005-5.684.005-8.5a8.443,8.443,0,0,0-.48-3.8c-.907-1.763-4.2-1.888-5.624.306a5.668,5.668,0,0,0-.728,3.5c0,2.826.044,5.677,0,8.507H457.29l.01-22.06" transform="translate(-366.863 46.165)" fill="#fefefe" fill-rule="evenodd"/>
  </g>
</svg>
