<svg id="op8" xmlns="http://www.w3.org/2000/svg" width="123.5" height="62.719" viewBox="0 0 123.5 62.719">
  <path id="Path_15964" data-name="Path 15964" d="M0,0V62.719H60.656V0ZM29.156,7.844c4.267-.033,7.987,2.635,11.187,7.969A37.182,37.182,0,0,1,45.563,33Q46.313,43.35,42,49.344q-4.9,7.05-15.063,5.562A15.14,15.14,0,0,1,15,46.063q-3.15-6.7-2-16a33.551,33.551,0,0,1,5.5-15.25c3.133-4.6,6.69-6.935,10.656-6.969ZM123.5.006H62.85v62.7H123.5Z" fill="red"/>
  <path id="Path_15965" data-name="Path 15965" d="M81.588,40V31.462L77.3,40H74.448l-4.2-8.493V40h-3.4V23.181h4.013l5.649,11.045,5.627-11.045h3.946V40H81.588m35.277-5.25a5.8,5.8,0,0,1-.359,2.051,4.2,4.2,0,0,1-1.155,1.672,5.883,5.883,0,0,1-2.1,1.115,10.412,10.412,0,0,1-3.161.412,16.286,16.286,0,0,1-3.262-.3,11.871,11.871,0,0,1-2.275-.635v-3.2q.347.156.874.346t1.143.323q.628.156,1.289.256a8.318,8.318,0,0,0,1.244.1,4.423,4.423,0,0,0,2.062-.379,1.287,1.287,0,0,0,.684-1.215,2.216,2.216,0,0,0-.112-.747,1.4,1.4,0,0,0-.448-.591,4.254,4.254,0,0,0-.908-.569q-.572-.29-1.513-.658a11.63,11.63,0,0,1-1.726-.814,4.568,4.568,0,0,1-1.255-1.048,4.279,4.279,0,0,1-.773-1.4,6.152,6.152,0,0,1-.258-1.895,4.065,4.065,0,0,1,.5-2.017,4.6,4.6,0,0,1,1.39-1.527,6.418,6.418,0,0,1,2.085-.97,9.438,9.438,0,0,1,2.6-.346,19.764,19.764,0,0,1,2.69.167,16,16,0,0,1,1.861.357v3.154q-.807-.2-1.861-.39a11.853,11.853,0,0,0-1.973-.178,3.516,3.516,0,0,0-1.827.368,1.134,1.134,0,0,0-.583,1,2.518,2.518,0,0,0,.078.657,1.178,1.178,0,0,0,.4.58,4.9,4.9,0,0,0,.941.568q.617.29,1.692.68a6.4,6.4,0,0,1,3.049,1.973,4.958,4.958,0,0,1,.953,3.1m-18.62-8.627V40H93.257V26.123H89.334V23.181h12.789v2.943H98.245" fill="#fff"/>
</svg>
