<svg id="op9" xmlns="http://www.w3.org/2000/svg" width="123.5" height="123.295" viewBox="0 0 123.5 123.295">
  <path id="Path_15969" data-name="Path 15969" d="M55.061.2a8.362,8.362,0,0,1-1.55.211,7.322,7.322,0,0,0-1.55.211,6.217,6.217,0,0,1-1.183.211A63.681,63.681,0,0,0,41.3,3.317a2.134,2.134,0,0,1-.718.2.53.53,0,0,0-.38.127,1.113,1.113,0,0,1-.521.239,3.33,3.33,0,0,0-.676.2c-.113.056-.465.211-.775.338s-.747.338-.958.451a1.884,1.884,0,0,1-.662.2.677.677,0,0,0-.423.211.644.644,0,0,1-.423.211.644.644,0,0,0-.423.211.677.677,0,0,1-.437.211.863.863,0,0,0-.465.211.713.713,0,0,1-.423.211.412.412,0,0,0-.3.127,3.313,3.313,0,0,1-.817.507c-.394.2-.831.409-.944.493s-.775.451-1.479.859a8.919,8.919,0,0,0-1.31.859.237.237,0,0,1-.2.113A27.532,27.532,0,0,0,25.62,11.5a1.422,1.422,0,0,1-.451.324,6.467,6.467,0,0,0-1.493,1.141.282.282,0,0,1-.254.127c-.113,0-.2.056-.2.113a2.067,2.067,0,0,1-.62.563,35.509,35.509,0,0,0-4.381,4.043c-3.1,3.113-3.874,3.944-3.874,4.127a.209.209,0,0,1-.113.2,4.7,4.7,0,0,0-.662.747,7.7,7.7,0,0,1-.733.817.354.354,0,0,0-.183.254.736.736,0,0,1-.141.31,24.408,24.408,0,0,0-1.55,2.141,1.183,1.183,0,0,1-.254.366,2.918,2.918,0,0,0-.465.662,6.612,6.612,0,0,1-.549.873,10.543,10.543,0,0,0-.845,1.338c-.085.155-.268.465-.423.7a5.033,5.033,0,0,0-.409.733,1.356,1.356,0,0,1-.282.394.449.449,0,0,0-.155.366c0,.141-.056.268-.141.268s-.169.155-.225.352a1.11,1.11,0,0,1-.282.507.568.568,0,0,0-.2.409.644.644,0,0,1-.211.423.616.616,0,0,0-.211.38.718.718,0,0,1-.211.409.863.863,0,0,0-.211.465.677.677,0,0,1-.211.437A.761.761,0,0,0,5.476,36c0,.183-.056.338-.141.338s-.183.169-.225.38a2.712,2.712,0,0,1-.282.676,1.136,1.136,0,0,0-.2.578c0,.169-.07.338-.155.366a.5.5,0,0,0-.2.394,2.823,2.823,0,0,1-.268.775,1.814,1.814,0,0,0-.225.606,1.171,1.171,0,0,1-.127.423,57.023,57.023,0,0,0-2.2,7.705c-.127.62-.324,1.493-.437,1.93a6.967,6.967,0,0,0-.2,1.338,4.123,4.123,0,0,1-.155,1.028A12.911,12.911,0,0,0,.4,54.579c-.07.845-.2,1.986-.268,2.536a74.04,74.04,0,0,0,0,9.015c.07.465.183,1.535.254,2.395a11.588,11.588,0,0,0,.282,1.944A3.514,3.514,0,0,1,.828,71.5,8.062,8.062,0,0,0,1.025,73c.113.479.31,1.381.437,2a60.983,60.983,0,0,0,1.859,6.649A2.445,2.445,0,0,1,3.5,82.3a1.827,1.827,0,0,0,.211.606,2,2,0,0,1,.211.648c0,.141.07.254.141.254s.141.183.141.409a.864.864,0,0,0,.211.578,1.39,1.39,0,0,1,.3.648c.042.268.141.479.211.479s.127.155.127.338a.761.761,0,0,0,.211.507.677.677,0,0,1,.211.437.863.863,0,0,0,.211.465.783.783,0,0,1,.211.479.68.68,0,0,0,.211.451.644.644,0,0,1,.211.423.644.644,0,0,0,.211.423.68.68,0,0,1,.211.451.386.386,0,0,0,.211.338.4.4,0,0,1,.211.338.419.419,0,0,0,.155.352,1.357,1.357,0,0,1,.282.394,5.892,5.892,0,0,0,.409.733,5.8,5.8,0,0,1,.409.7,6.932,6.932,0,0,0,.465.775c.183.268.38.592.437.7.225.451,1.761,2.8,1.93,2.958.042.042.31.437.62.873a3,3,0,0,0,.662.817c.07,0,.127.085.127.169a2.022,2.022,0,0,0,.465.7c.239.282.549.648.662.817.634.916,7.72,8.17,7.987,8.17.085,0,.183.1.239.211a.337.337,0,0,0,.282.211.282.282,0,0,1,.254.127,61.306,61.306,0,0,0,6.255,4.522,4.437,4.437,0,0,1,.648.423,2.389,2.389,0,0,0,.775.423c.1,0,.183.056.183.113a2.783,2.783,0,0,0,.775.507,3.768,3.768,0,0,1,.845.521.517.517,0,0,0,.366.127c.141,0,.268.056.268.113a2.214,2.214,0,0,0,.775.465,2.382,2.382,0,0,1,.775.437c0,.07.07.113.155.113a24.03,24.03,0,0,1,2.7,1.211c.211.113.437.183.507.141s.2.014.3.127a.566.566,0,0,0,.338.211,15.672,15.672,0,0,1,2.127.775,73.468,73.468,0,0,0,8.029,2.324,5.964,5.964,0,0,1,1.1.268,3.748,3.748,0,0,0,1.071.155,1.635,1.635,0,0,1,.817.155,4.032,4.032,0,0,0,1.324.225,5.651,5.651,0,0,1,1.451.225,55.951,55.951,0,0,0,7.621.423,50.981,50.981,0,0,0,7.494-.437,3.315,3.315,0,0,1,1.2-.169,5.762,5.762,0,0,0,1.451-.211,4.082,4.082,0,0,1,1.169-.211,3.628,3.628,0,0,0,1.113-.211,2.818,2.818,0,0,1,.859-.211,5.159,5.159,0,0,0,1.071-.2c.394-.113,1.55-.437,2.55-.733a37.975,37.975,0,0,0,4.747-1.55,1.553,1.553,0,0,1,.634-.2,1.026,1.026,0,0,0,.521-.211,1.161,1.161,0,0,1,.563-.211,1.067,1.067,0,0,0,.563-.211,1.121,1.121,0,0,1,.535-.211c.141,0,.254-.07.254-.141a.145.145,0,0,1,.155-.141,35.693,35.693,0,0,0,4.212-1.958,5.938,5.938,0,0,1,.7-.409c.352-.183.831-.451,1.056-.592s.549-.338.7-.423.479-.268.7-.423a7.675,7.675,0,0,1,.747-.437c.169-.1.31-.225.31-.3a.129.129,0,0,1,.141-.113,18.243,18.243,0,0,0,2.676-1.761,23.528,23.528,0,0,0,2.465-1.831c.085-.085.423-.38.775-.648a35.844,35.844,0,0,0,4.141-3.888c3.353-3.353,3.888-3.93,3.888-4.1a.209.209,0,0,1,.113-.2,13.387,13.387,0,0,0,1.338-1.592c.056-.07.521-.718,1.014-1.409s1.1-1.535,1.324-1.859a2.69,2.69,0,0,0,.437-.747.141.141,0,0,1,.141-.141c.07,0,.169-.155.225-.352s.141-.352.211-.352.2-.141.268-.324a7.223,7.223,0,0,1,.423-.733,5.894,5.894,0,0,0,.409-.733,1.356,1.356,0,0,1,.282-.394.419.419,0,0,0,.155-.352.4.4,0,0,1,.211-.338.391.391,0,0,0,.211-.352.427.427,0,0,1,.211-.352.386.386,0,0,0,.211-.338.68.68,0,0,1,.211-.451.644.644,0,0,0,.211-.423.644.644,0,0,1,.211-.423.581.581,0,0,0,.211-.324,6.486,6.486,0,0,1,.437-1.071c.451-.972.493-1.057.972-2.2.169-.394.352-.831.423-.986.409-.986,1.62-4.635,2.2-6.621.127-.465.324-1.127.423-1.465a4.208,4.208,0,0,0,.2-1.014,2.894,2.894,0,0,1,.211-.873,3.65,3.65,0,0,0,.211-1.141,2.639,2.639,0,0,1,.211-1.014,3.567,3.567,0,0,0,.211-1.268,2.265,2.265,0,0,1,.155-1,8.188,8.188,0,0,0,.282-1.972c.07-.986.183-2.155.254-2.578a67.681,67.681,0,0,0,0-8.452c-.085-.423-.183-1.535-.254-2.465a9.749,9.749,0,0,0-.268-2,2.925,2.925,0,0,1-.169-1.1,4.3,4.3,0,0,0-.211-1.3,3.279,3.279,0,0,1-.211-1.056,3.438,3.438,0,0,0-.211-1.057,2.84,2.84,0,0,1-.211-.845,5.428,5.428,0,0,0-.2-1.014c-.113-.352-.31-1-.423-1.423a64.982,64.982,0,0,0-3.113-8.762,1.587,1.587,0,0,1-.211-.592c0-.127-.056-.225-.141-.225s-.141-.127-.141-.268a.761.761,0,0,0-.183-.465,1.392,1.392,0,0,1-.3-.578c-.042-.211-.155-.38-.225-.38s-.141-.127-.141-.268a.857.857,0,0,0-.211-.493.729.729,0,0,1-.211-.394.573.573,0,0,0-.155-.352,4.488,4.488,0,0,1-.7-1.211c-.085-.211-.211-.38-.282-.38s-.127-.127-.127-.282a.4.4,0,0,0-.2-.366.557.557,0,0,1-.282-.31,3.687,3.687,0,0,0-.366-.662,7.677,7.677,0,0,1-.437-.747c-.1-.169-.225-.31-.3-.31s-.113-.085-.113-.183a8.372,8.372,0,0,0-.916-1.437c-.493-.7-.986-1.38-1.085-1.521-.183-.254-.507-.69-.817-1.042a.736.736,0,0,1-.141-.31.375.375,0,0,0-.169-.254,6.1,6.1,0,0,1-.747-.817,4.7,4.7,0,0,0-.662-.747.209.209,0,0,1-.113-.2,3.3,3.3,0,0,0-.592-.775c-1.282-1.338-5.142-5.156-5.733-5.649-.324-.282-.93-.8-1.338-1.127s-.887-.775-1.1-.958a1.8,1.8,0,0,0-.451-.338,11.032,11.032,0,0,1-1.2-.817c-1.564-1.127-2.719-1.9-3.958-2.676-.592-.366-1.183-.747-1.338-.845s-.409-.239-.563-.31-.465-.268-.7-.423-.93-.535-1.55-.845-1.226-.634-1.338-.69c-.859-.465-1.127-.578-1.324-.578-.127,0-.225-.056-.225-.141s-.169-.183-.38-.225a2.17,2.17,0,0,1-.535-.2,2.053,2.053,0,0,0-.563-.2,1.119,1.119,0,0,1-.507-.239c-.042-.085-.254-.155-.465-.183a.993.993,0,0,1-.535-.2.585.585,0,0,0-.366-.169,2.05,2.05,0,0,1-.634-.2,6.2,6.2,0,0,0-.733-.268c-.155-.042-.718-.239-1.268-.423A60.511,60.511,0,0,0,69.852.4,15.949,15.949,0,0,1,68.021.148,120.46,120.46,0,0,0,55.061.2Zm6.325,28.962a7.319,7.319,0,0,1,2.352,1.127A5.684,5.684,0,0,1,65.993,33.5a13.885,13.885,0,0,1-.014,4.7,6.627,6.627,0,0,1-4.085,4.254c-.606.225-1.085.268-3.381.268H55.836l-1.057-.507a5.617,5.617,0,0,1-1.8-1.268,5.748,5.748,0,0,1-1.352-1.874,8.5,8.5,0,0,1,.155-6.832,8,8,0,0,1,2.564-2.536.655.655,0,0,0,.38-.141,2.722,2.722,0,0,1,.845-.338,24.464,24.464,0,0,1,5.818-.07Zm-20.243,5.55a7.284,7.284,0,0,1,4.367,2.254,6.285,6.285,0,0,1,1.338,1.888l.394.789.042,13.8c.014,9.509-.014,14.115-.127,14.791a15.309,15.309,0,0,1-.986,4.212.74.74,0,0,0-.127.409,1.618,1.618,0,0,1-.2.634c-.1.211-.423.859-.7,1.437a11.268,11.268,0,0,1-1.662,2.676,16.364,16.364,0,0,1-7.015,5.283A21.405,21.405,0,0,1,29,84.316c-5.325.3-11.185-1.437-14.129-4.156s-3.747-5.691-2.352-8.692a4.06,4.06,0,0,1,.578-1.014.221.221,0,0,0,.127-.2,16.407,16.407,0,0,1,2.3-2.817c1.38-1.338,1.606-1.366,2.437-.225a10.435,10.435,0,0,0,4.7,3.268,14.936,14.936,0,0,0,1.8.38,5.5,5.5,0,0,0,2.395-.042c1.845-.352,2.254-.535,3.127-1.38,1.085-1.057,1.38-1.761,1.55-3.789.07-.9.155-7.114.211-13.819.085-13.706,0-12.8,1.169-14.3a8.356,8.356,0,0,1,5.1-2.817,6.887,6.887,0,0,1,3.127,0ZM92.6,45.324a14.734,14.734,0,0,1,1.479.268c.268.085.873.268,1.338.394a19.7,19.7,0,0,1,11.889,9.861c.268.535.563,1.155.662,1.366a1.618,1.618,0,0,1,.2.634.651.651,0,0,0,.141.409,2.324,2.324,0,0,1,.268.761c.085.352.211.916.3,1.268a13.694,13.694,0,0,1,.521,3.663,14.372,14.372,0,0,1-.1,2.747c-.085.535-.211,1.31-.282,1.719a9.061,9.061,0,0,1-.268,1.2,23.692,23.692,0,0,1-1.592,4.127,21.431,21.431,0,0,1-6.579,7.128A19.958,19.958,0,0,1,96.8,82.823a2.3,2.3,0,0,0-.634.2,18.988,18.988,0,0,1-3.254.845,27.224,27.224,0,0,1-7.1,0,19.192,19.192,0,0,1-5.959-2.014,21.087,21.087,0,0,1-8.466-8.607c-.916-1.888-1.113-2.367-1.113-2.691a1.4,1.4,0,0,0-.169-.592,5.174,5.174,0,0,1-.282-1.014c-.056-.394-.169-.986-.239-1.338a28.573,28.573,0,0,1,.07-6.48,18.62,18.62,0,0,1,.845-3.071,2.488,2.488,0,0,0,.2-.592,15.545,15.545,0,0,1,1.324-2.719,3.778,3.778,0,0,0,.366-.62,15.3,15.3,0,0,1,1.071-1.395,19.407,19.407,0,0,1,9.776-6.719c.423-.127,1.113-.324,1.535-.437a5.788,5.788,0,0,1,1.409-.239,6.775,6.775,0,0,0,1.071-.127,30.873,30.873,0,0,1,5.353.113ZM61.26,46.1a6.515,6.515,0,0,1,4.733,4.451c.155.535.2,2.944.2,14.03,0,14.3.014,14.03-.7,15.425a9.27,9.27,0,0,1-2.24,2.465c-1.521.817-2.479.972-5.367.873-2.493-.085-2.986-.225-4.254-1.183a6.873,6.873,0,0,1-2.493-3.888c-.113-.465-.155-4.522-.155-13.622,0-14.03-.014-13.706.775-15.284A6.639,6.639,0,0,1,53.723,47.1c1.211-.9,2.24-1.155,4.789-1.155a18.022,18.022,0,0,1,2.747.155Z" transform="translate(0 0)" fill="red"/>
  <path id="Path_15970" data-name="Path 15970" d="M588.412,403.345a5.823,5.823,0,0,0-2.071.747.585.585,0,0,1-.352.169,9.674,9.674,0,0,0-2.3,2.268,4.024,4.024,0,0,1-.268.549,8.953,8.953,0,0,0-.662,6.057,7.116,7.116,0,0,0,5.226,5.381,7.311,7.311,0,0,0,6.635-1.55,7.772,7.772,0,0,0,2.479-4.93,6.166,6.166,0,0,0-.056-2.479,7,7,0,0,0-2.155-4.24,6.449,6.449,0,0,0-3.663-1.986A5.764,5.764,0,0,0,588.412,403.345Z" transform="translate(-500.458 -346.371)" fill="red"/>
</svg>
