<svg id="paxful" xmlns="http://www.w3.org/2000/svg" width="43" height="43" viewBox="0 0 43 43">
  <circle id="circle" cx="21.5" cy="21.5" r="21.5" fill="#fff" opacity="0.37"/>
  <g id="PAXFUL-2" data-name="PAXFUL" transform="translate(9 9)">
    <path id="Path_6032" data-name="Path 6032" d="M56.314,12.579,63.23,22.13h-4.5a2.184,2.184,0,0,1-1.757-.769l-.11-.11-2.525-3.513a2.68,2.68,0,0,1,0-2.854l.11-.22Zm-9-10.869a2.047,2.047,0,0,1,1.757.769l.11.11,1.317,1.866a2.533,2.533,0,0,1,.11,2.635l-.11.11L48.628,9.834,42.7,1.6Z" transform="translate(-40.841 0.157)" fill="#fff"/>
    <path id="Path_6033" data-name="Path 6033" d="M65.262,0,41.548,25.471c-.22.329-.769-.11-.439-.439L58.236.878A2.345,2.345,0,0,1,60.1,0Z" transform="translate(-41.006)" fill="#fff"/>
  </g>
</svg>
