<svg xmlns="http://www.w3.org/2000/svg" width="28" height="27" viewBox="0 0 28 27">
  <g id="pin" transform="translate(0.093 -0.481)">
    <rect id="Rectangle_1294" data-name="Rectangle 1294" width="28" height="27" transform="translate(-0.093 0.481)" fill="none"/>
    <g id="password" transform="translate(2.555 -99.308)">
      <g id="Group_6498" data-name="Group 6498" transform="translate(0 106.667)">
        <g id="Group_6497" data-name="Group 6497">
          <path id="Path_9048" data-name="Path 9048" d="M18.448,108.559a4.174,4.174,0,0,1,1.694.369.473.473,0,0,0,.664-.454,1.886,1.886,0,0,0-1.885-1.808H1.892A1.894,1.894,0,0,0,0,108.559v4.73a1.894,1.894,0,0,0,1.892,1.892h10.88a.473.473,0,0,0,.473-.473v-.473a1.9,1.9,0,0,1,.8-1.537.472.472,0,0,0,.2-.334A4.239,4.239,0,0,1,18.448,108.559ZM4.367,110.988a.473.473,0,0,1-.473.819l-.11-.063v.127a.473.473,0,1,1-.946,0v-.127l-.11.063a.473.473,0,0,1-.473-.819l.11-.063-.11-.063a.473.473,0,0,1,.473-.819l.11.063v-.127a.473.473,0,0,1,.946,0v.127l.11-.063a.473.473,0,0,1,.473.819l-.11.063Zm3.784,0a.473.473,0,0,1-.473.819l-.11-.063v.127a.473.473,0,0,1-.946,0v-.127l-.11.063a.473.473,0,0,1-.473-.819l.11-.063-.11-.063a.473.473,0,0,1,.473-.819l.11.063v-.127a.473.473,0,1,1,.946,0v.127l.11-.063a.473.473,0,0,1,.473.819l-.11.063Zm3.784,0a.473.473,0,0,1-.473.819l-.11-.063v.127a.473.473,0,0,1-.946,0v-.127l-.11.063a.473.473,0,0,1-.473-.819l.11-.063-.11-.063a.473.473,0,0,1,.473-.819l.11.063v-.127a.473.473,0,1,1,.946,0v.127l.11-.063a.473.473,0,0,1,.473.819l-.11.063Z" transform="translate(0 -106.667)" fill="#422343"/>
          <path id="Path_9049" data-name="Path 9049" d="M327.569,174.45v-.473a3.311,3.311,0,0,0-6.622,0v.473a.947.947,0,0,0-.946.946v4.73a.947.947,0,0,0,.946.946h6.622a.947.947,0,0,0,.946-.946V175.4A.947.947,0,0,0,327.569,174.45Zm-2.838,3.639v.618a.473.473,0,0,1-.946,0v-.618a.934.934,0,0,1-.473-.8.946.946,0,1,1,1.892,0A.933.933,0,0,1,324.73,178.089Zm.946-3.639h-2.838v-.473a1.419,1.419,0,0,1,2.838,0Z" transform="translate(-305.809 -167.828)" fill="#422343"/>
        </g>
      </g>
    </g>
  </g>
</svg>
