<svg id="pm" xmlns="http://www.w3.org/2000/svg" width="43" height="43" viewBox="0 0 43 43">
  <circle id="circle" cx="21.5" cy="21.5" r="21.5" fill="#fff" opacity="0.37"/>
  <path id="Path_6034" data-name="Path 6034" d="M34.456,101.914s9.119,1.969,10.4-2.269c1.256-4.155-2.91-5.015-2.91-5.015H40.116V101.6H38.155V94.857H36.418v-.712s6.58-.026,7.307.059c3.653.427,5.432,6.972-.42,8.276a17.562,17.562,0,0,1-8.849-.565Zm3.688,1.5V107.6s-.011.89-.814.89h-1v.7h5.66v-.768H40.738a.729.729,0,0,1-.646-.73v-4.311H38.155l-.011.038Zm7.234,5.805h5.7v-.874H49.44a1.111,1.111,0,0,1-.532-.91V96.91l6.354,12.3,6.216-12.062-.137,10.406a.7.7,0,0,1-.724.86c-.879,0-1.066.027-1.066.027l-.011.67h5.7v-.8H63.911a.5.5,0,0,1-.555-.555c0-.609,0-12.63,0-12.63s.008-.276.5-.276h1.155V94H61.474L55.65,106.07,49.863,94.086H46.7v.721h1s.348-.038.348.491-.137,12.2-.137,12.2a.865.865,0,0,1-.948.906H45.38v.88l0-.058Z" transform="translate(-28.456 -80)" fill="#fff" fill-rule="evenodd"/>
</svg>
