<svg xmlns="http://www.w3.org/2000/svg" width="22" height="22" viewBox="0 0 22 22">
  <g id="pro_info" transform="translate(-1172 -62)">
    <rect id="Rectangle_1358" data-name="Rectangle 1358" width="22" height="22" transform="translate(1172 62)" fill="none"/>
    <path id="Vector" d="M734.933,552.66l-2.443,4.91-5.466.79a1.121,1.121,0,0,0-.958.784,1.212,1.212,0,0,0,.3,1.24l3.954,3.82-.936,5.395a1.275,1.275,0,0,0,.507,1.183,1.132,1.132,0,0,0,1.229.067l4.889-2.548,4.889,2.548a1.132,1.132,0,0,0,1.229-.068,1.276,1.276,0,0,0,.507-1.182L741.7,564.2l3.954-3.82a1.213,1.213,0,0,0,.3-1.24,1.122,1.122,0,0,0-.957-.785l-5.466-.79-2.444-4.91a1.2,1.2,0,0,0-2.146,0Z" transform="translate(446.994 -488.499)" fill="#bdbdbd" fill-rule="evenodd"/>
  </g>
</svg>
