<svg xmlns="http://www.w3.org/2000/svg" width="22" height="22" viewBox="0 0 22 22">
  <g id="pro_pass" transform="translate(-1172 -122)">
    <rect id="Rectangle_1359" data-name="Rectangle 1359" width="22" height="22" transform="translate(1172 122)" fill="none"/>
    <path id="Vector" d="M745.395,618.792l-1.763-1.023a8.055,8.055,0,0,0,0-2.919l1.763-1.023a.5.5,0,0,0,.227-.583,10.386,10.386,0,0,0-2.259-3.929.491.491,0,0,0-.612-.1l-1.763,1.022a7.809,7.809,0,0,0-2.516-1.46v-2.042a.5.5,0,0,0-.393-.491,10.357,10.357,0,0,0-4.518,0,.5.5,0,0,0-.388.491v2.046a8.055,8.055,0,0,0-2.516,1.461l-1.758-1.023a.491.491,0,0,0-.613.1,10.325,10.325,0,0,0-2.259,3.935.5.5,0,0,0,.228.581l1.762,1.023a8.053,8.053,0,0,0,0,2.919l-1.762,1.023a.5.5,0,0,0-.228.581,10.371,10.371,0,0,0,2.259,3.929.5.5,0,0,0,.613.1l1.762-1.023a7.819,7.819,0,0,0,2.516,1.461v2.045a.5.5,0,0,0,.393.491,10.355,10.355,0,0,0,4.518,0,.5.5,0,0,0,.388-.491v-2.045a8.039,8.039,0,0,0,2.516-1.461l1.763,1.023a.491.491,0,0,0,.612-.1,10.285,10.285,0,0,0,2.259-3.929.514.514,0,0,0-.231-.589h0Zm-9.574.845a3.327,3.327,0,1,1,3.309-3.327,3.327,3.327,0,0,1-3.309,3.327Z" transform="translate(447.196 -483.297)" fill="#bdbdbd" fill-rule="evenodd"/>
  </g>
</svg>
