<svg xmlns="http://www.w3.org/2000/svg" width="22" height="22" viewBox="0 0 22 22">
  <g id="pro_logout" transform="translate(-1172 -152)">
    <rect id="Rectangle_1361" data-name="Rectangle 1361" width="22" height="22" transform="translate(1172 152)" fill="none"/>
    <path id="Vector" d="M745.717,671.049l-6.665,7.271a.946.946,0,0,1-1.626-.739v-4.155h-5.4a1,1,0,0,1-.953-1.039v-4.155a1,1,0,0,1,.953-1.039h5.4v-4.155a.946.946,0,0,1,1.626-.739l6.665,7.271A1.116,1.116,0,0,1,745.717,671.049Zm-12.1,7.054v-1.731a.5.5,0,0,0-.476-.519h-3.332a1.33,1.33,0,0,1-1.27-1.385v-8.31a1.33,1.33,0,0,1,1.27-1.385h3.332a.5.5,0,0,0,.476-.52v-1.731a.5.5,0,0,0-.476-.519h-3.332A3.994,3.994,0,0,0,726,666.155v8.31a3.994,3.994,0,0,0,3.809,4.155h3.332a.5.5,0,0,0,.476-.519Z" transform="translate(447.004 -507.303)" fill="#f24545" fill-rule="evenodd"/>
  </g>
</svg>
