<svg xmlns="http://www.w3.org/2000/svg" width="22" height="22" viewBox="0 0 22 22">
  <g id="pro_account" transform="translate(-1172 -91)">
    <rect id="Rectangle_1360" data-name="Rectangle 1360" width="22" height="22" transform="translate(1172 91)" fill="none"/>
    <path id="Icon_metro-tools" data-name="Icon metro-tools" d="M24.821,8.866a4.979,4.979,0,0,1-7.058,6.247l-1.377,1.5.983.987.587-.587a.768.768,0,0,1,1.087,0l4.763,4.811a.768.768,0,0,1,0,1.087l-2.174,2.174a.768.768,0,0,1-1.087,0l-4.763-4.811a.768.768,0,0,1,0-1.087l.536-.536-.937-.939L8.8,24.911a1.537,1.537,0,0,1-2.174,0l-.543-.543a1.537,1.537,0,0,1,0-2.174l7.5-6.284-4.984-5H7.024L5.2,7.983,6.668,6.515l3,1.833.02,1.541,5.042,5.061,1.467-1.228A4.985,4.985,0,0,1,22.1,6.155L18.867,9.339l2.718,2.718,3.236-3.191ZM7.881,22.961a.769.769,0,1,0,0,1.088A.769.769,0,0,0,7.881,22.961Z" transform="translate(1167.797 86.415)" fill="#bdbdbd"/>
  </g>
</svg>
