<svg xmlns="http://www.w3.org/2000/svg" width="25" height="25" viewBox="0 0 25 25">
  <g id="profile" transform="translate(-294 -731)">
    <rect id="background" width="25" height="25" transform="translate(294 731)" fill="none"/>
    <g id="iconuser" transform="translate(0.69 0.8)">
      <path id="Vector" d="M533.314,743.2a5.371,5.371,0,0,1-4.018-1.9,6.106,6.106,0,0,1-1.578-3.98,5.6,5.6,0,0,1,11.191,0,6.105,6.105,0,0,1-1.578,3.98,5.371,5.371,0,0,1-4.018,1.9Zm0-9.16a3.372,3.372,0,0,0-3.452,3.277,4.153,4.153,0,0,0,1.072,2.665,2.988,2.988,0,0,0,4.757,0,4.153,4.153,0,0,0,1.072-2.665,3.37,3.37,0,0,0-3.451-3.277h0Z" transform="translate(-227.645)" fill="#d1bbd2" fill-rule="evenodd"/>
      <path id="Vector-2" data-name="Vector" d="M541.756,754.693a1.032,1.032,0,0,1-1.047-1.018v-2.334a2.963,2.963,0,0,0-.9-2.373,3.151,3.151,0,0,0-2.443-.871h-9.114a3.151,3.151,0,0,0-2.443.871,2.963,2.963,0,0,0-.9,2.373v2.334a1.048,1.048,0,0,1-2.1,0v-2.334a4.95,4.95,0,0,1,1.509-3.815,5.257,5.257,0,0,1,3.926-1.465h9.117a5.258,5.258,0,0,1,3.926,1.465,4.951,4.951,0,0,1,1.509,3.814v2.334a1.034,1.034,0,0,1-1.048,1.018Z" transform="translate(-227 -1.241)" fill="#d1bbd2" fill-rule="evenodd"/>
    </g>
  </g>
</svg>
