<svg xmlns="http://www.w3.org/2000/svg" width="28" height="27" viewBox="0 0 28 27">
  <g id="publicpay" transform="translate(0.093 -0.481)">
    <rect id="Rectangle_1294" data-name="Rectangle 1294" width="28" height="27" transform="translate(-0.093 0.481)" fill="none"/>
    <g id="payment-method" transform="translate(-76.765 4.266)">
      <g id="Group_6501" data-name="Group 6501" transform="translate(84.359)">
        <g id="Group_6500" data-name="Group 6500">
          <path id="Path_9064" data-name="Path 9064" d="M96.474,8.614c-.19-.149-1.863-1.992-2.811-2.851,0,0,0,0,0-.008V1.787A1.79,1.79,0,0,0,91.872,0H86.021a1.667,1.667,0,0,0-1.662,1.662v9.308a1.79,1.79,0,0,0,1.787,1.787h2.133a.126.126,0,0,0,.125-.137l-.093-.79a.123.123,0,0,0-.125-.109h-.254a.126.126,0,0,1-.125-.125V1.02A.126.126,0,0,1,87.932.9h3.952a.728.728,0,0,1,.726.726v9.489a.61.61,0,0,1-.444.581h-.008A4.089,4.089,0,0,1,91.142,10.3a.078.078,0,0,1-.012-.04c-.028-.254-.315-2.714-1.625-2.714a.983.983,0,0,0-.109,0s-1.049.089-.181,3.077c0,.008,0,.012,0,.02l.383,3.311a.031.031,0,0,0,0,.016A7.578,7.578,0,0,0,91.2,16.987a.13.13,0,0,1,.032.085v.286a.011.011,0,0,1-.012.012h-.1a.449.449,0,0,0-.448.448v1.166a.449.449,0,0,0,.448.448h4.747a.449.449,0,0,0,.448-.448V17.825a.449.449,0,0,0-.448-.448.011.011,0,0,1-.012-.012c.157-1.46.722-6.453,1.024-6.844a.126.126,0,0,0,.02-.04A1.842,1.842,0,0,0,96.474,8.614ZM86.226,11.6a.113.113,0,0,1-.113.113A.719.719,0,0,1,85.4,11V1.613A.719.719,0,0,1,86.113.9a.113.113,0,0,1,.113.113Z" transform="translate(-84.359)" fill="#422343"/>
        </g>
      </g>
    </g>
  </g>
</svg>
