<svg xmlns="http://www.w3.org/2000/svg" width="28" height="26" viewBox="0 0 28 26">
  <g id="referral" transform="translate(0.093 -0.046)">
    <rect id="Rectangle_1290" data-name="Rectangle 1290" width="28" height="26" transform="translate(-0.093 0.046)" fill="none"/>
    <path id="referral-2" data-name="referral" d="M21.853,12.686v2.482h4.963V12.686Zm-2.482,8.2c1.191.881,2.742,2.047,3.971,2.966.5-.658.993-1.328,1.489-1.985-1.228-.918-2.779-2.085-3.971-2.978C20.364,19.56,19.868,20.23,19.372,20.888Zm5.46-14.9c-.5-.658-.993-1.328-1.489-1.985-1.228.918-2.779,2.085-3.971,2.978.5.658.993,1.328,1.489,1.985C22.052,8.07,23.6,6.916,24.831,5.985ZM4.482,10.2A2.489,2.489,0,0,0,2,12.686v2.482a2.489,2.489,0,0,0,2.482,2.482H5.723v4.963H8.2V17.649H9.445l6.2,3.723V6.482L9.445,10.2Zm14.27,3.723A5.559,5.559,0,0,0,16.89,9.77v8.3A5.512,5.512,0,0,0,18.751,13.927Z" transform="translate(-0.45 -0.034)" fill="#422343"/>
  </g>
</svg>
