<svg xmlns="http://www.w3.org/2000/svg" width="41" height="56" viewBox="0 0 41 56">
  <g id="selectedprofile" transform="translate(-266.91 -723)">
    <rect id="background" width="41" height="55" transform="translate(266.91 724)" fill="none"/>
    <g id="Group_6155" data-name="Group 6155" transform="translate(268.875 723)">
      <g id="iconuser" transform="translate(7.86 0)">
        <path id="Vector" d="M988.729,737.665a5.658,5.658,0,0,1-4.315-2.154,7.106,7.106,0,0,1-1.695-4.5,6.01,6.01,0,0,1,12.019,0,7.111,7.111,0,0,1-1.695,4.5A5.66,5.66,0,0,1,988.729,737.665Zm0-10.362a3.712,3.712,0,0,0-3.708,3.707,4.839,4.839,0,0,0,1.151,3.015,3.113,3.113,0,0,0,5.109,0,4.839,4.839,0,0,0,1.151-3.015,3.71,3.71,0,0,0-3.707-3.707h0Z" transform="translate(-977.896 -725)" fill="#422343" fill-rule="evenodd"/>
        <path id="Vector-2" data-name="Vector" d="M998.636,748.826a1.152,1.152,0,0,1-1.152-1.151v-2.64a3.405,3.405,0,0,0-3.671-3.669H983.793a3.406,3.406,0,0,0-3.672,3.669v2.64a1.151,1.151,0,0,1-2.3,0v-2.64a5.687,5.687,0,0,1,5.974-5.972h10.022a5.7,5.7,0,0,1,5.978,5.972v2.64a1.166,1.166,0,0,1-.34.813,1.151,1.151,0,0,1-.812.339h0Z" transform="translate(-977.81 -725.247)" fill="#422343" fill-rule="evenodd"/>
      </g>
      <rect id="Rectangle_1355" data-name="Rectangle 1355" width="37" height="5" rx="2.5" transform="translate(0.035 49)" fill="#422343"/>
    </g>
  </g>
</svg>
