<svg xmlns="http://www.w3.org/2000/svg" width="22" height="22" viewBox="0 0 22 22">
  <g id="sellcoins" transform="translate(-49 -284.249)">
    <rect id="Rectangle_1315" data-name="Rectangle 1315" width="22" height="22" transform="translate(49 284.249)" fill="none"/>
    <g id="_23" data-name="23" transform="translate(-0.493 0)">
      <path id="Vector" d="M410.808,291.728a.72.72,0,0,0-.431-.42.7.7,0,0,0-.812.274.767.767,0,0,0-.118.289.767.767,0,0,0,.141.6,3.3,3.3,0,0,1,.471,1.695,2.528,2.528,0,0,1,0,.318,3.429,3.429,0,0,1-.521,1.481l-.1.147a6.327,6.327,0,0,1-2.025,1.756h-.071l-.071.038a12.5,12.5,0,0,1-11.564.051l-.072-.038-.1-.051a6.272,6.272,0,0,1-1.977-1.762l-.086-.126a3.468,3.468,0,0,1-.536-1.481,2.759,2.759,0,0,1-.018-.333c0-2.806,3.926-5.182,8.566-5.182a13.693,13.693,0,0,1,1.506.082.726.726,0,0,0,.789-.663.738.738,0,0,0-.639-.817,14.966,14.966,0,0,0-1.656-.082c-5.6,0-9.994,2.961-9.994,6.663V298.6a4.222,4.222,0,0,0,0,.466,5.043,5.043,0,0,0,.879,2.332,7.6,7.6,0,0,0,2.434,2.221,14.245,14.245,0,0,0,13.341-.03,7.6,7.6,0,0,0,2.434-2.221,5.03,5.03,0,0,0,.9-2.295,4.366,4.366,0,0,0,0-.474v-4.442a4.817,4.817,0,0,0-.679-2.435h0Zm-.749,6.877a2.534,2.534,0,0,1,0,.318,3.542,3.542,0,0,1-.62,1.622,6.283,6.283,0,0,1-1.993,1.762,12.694,12.694,0,0,1-11.9,0,6.262,6.262,0,0,1-1.977-1.755,3.552,3.552,0,0,1-.642-1.636,2.84,2.84,0,0,1,0-.311v-.987c.149.163.306.319.476.475l.136.117q.214.186.449.363l.171.133c.207.148.422.288.65.429l.214.118a14.107,14.107,0,0,0,12.949-.008l.178-.1c.236-.14.449-.289.666-.436l.171-.112a5.855,5.855,0,0,0,.457-.37l.135-.118a6.522,6.522,0,0,0,.476-.474v.962Z" transform="translate(-341 -0.018)" fill="#422343" fill-rule="evenodd"/>
      <path id="Vector-2" data-name="Vector" d="M402.72,290.494a.744.744,0,1,0-1.488,0,2.232,2.232,0,1,0,0,4.464v1.488h-1.488a.744.744,0,1,0,0,1.488h1.488a.744.744,0,1,0,1.488,0,2.232,2.232,0,0,0,0-4.464v-1.488h1.488a.744.744,0,1,0,0-1.488Zm.744,5.208a.745.745,0,0,1-.744.744v-1.488a.745.745,0,0,1,.744.744Zm-2.232-2.232a.744.744,0,1,1,0-1.488Z" transform="translate(-341.483 -0.071)" fill="#422343" fill-rule="evenodd"/>
      <path id="Vector-3" data-name="Vector" d="M406.494,288.97a.743.743,0,0,0,.528-.216l.96-.967v4.159a.744.744,0,0,0,1.488,0v-4.159l.959.96a.744.744,0,0,0,1.05-1.049l-2.232-2.232a.745.745,0,0,0-1.049,0l-2.232,2.232a.744.744,0,0,0,.529,1.273Z" transform="translate(-341.959 0)" fill="#422343" fill-rule="evenodd"/>
    </g>
  </g>
</svg>
