<svg xmlns="http://www.w3.org/2000/svg" width="28" height="27" viewBox="0 0 28 27">
  <g id="ticket" transform="translate(0.093 -0.481)">
    <rect id="Rectangle_1294" data-name="Rectangle 1294" width="28" height="27" transform="translate(-0.093 0.481)" fill="none"/>
    <g id="writing" transform="translate(2.415 2.989)">
      <path id="Path_9066" data-name="Path 9066" d="M276.364,64.553l-2.733-2.733-5.088,5.131,2.733,2.733Zm0,0" transform="translate(-256.534 -59.166)" fill="#422343"/>
      <path id="Path_9067" data-name="Path 9067" d="M210.383,209.355a.644.644,0,0,0,.843.842l3.271-1.692-2.423-2.423Zm0,0" transform="translate(-200.821 -197.232)" fill="#422343"/>
      <path id="Path_9068" data-name="Path 9068" d="M412.541,2.921a.644.644,0,0,0,0-.911L410.719.189a.644.644,0,0,0-.911,0l-1.555,1.555,2.732,2.733Zm0,0" transform="translate(-390.245 0)" fill="#422343"/>
      <path id="Path_9069" data-name="Path 9069" d="M2.432,133.882h.644v3.263a.644.644,0,0,0,1.1.455l3.719-3.719H15.4a1.935,1.935,0,0,0,1.932-1.932v-6.4L15.3,127.586a1.914,1.914,0,0,1-.616.414L11,129.913a2.033,2.033,0,0,1-.844.2,1.9,1.9,0,0,1-.555-.091H5.008a.644.644,0,0,1,0-1.288H8.27a1.928,1.928,0,0,1,.1-1.3l1.988-3.86a1.761,1.761,0,0,1,.373-.527L12.778,121H2.432A1.935,1.935,0,0,0,.5,122.932v9.017a1.935,1.935,0,0,0,1.932,1.932Zm0,0" transform="translate(0 -115.804)" fill="#422343"/>
    </g>
  </g>
</svg>
