<svg id="usdt" xmlns="http://www.w3.org/2000/svg" width="43" height="43" viewBox="0 0 43 43">
  <circle id="circle" cx="21.5" cy="21.5" r="21.5" fill="#fff" opacity="0.37"/>
  <g id="Group_6115" data-name="Group 6115" transform="translate(8.062 9.436)">
    <path id="Path_6016" data-name="Path 6016" d="M374.38,208.589a4.132,4.132,0,0,1,.788-.382,11.921,11.921,0,0,1,1.7-.472,31.654,31.654,0,0,1,3.487-.53c1.546-.157,3.1-.251,4.652-.3v3.609c.752.02,1.511.033,2.283.033h.287c.9,0,1.792-.018,2.67-.045v-3.581c1.408.051,2.814.141,4.216.284a31.477,31.477,0,0,1,3.487.53,12.027,12.027,0,0,1,1.7.471,4.153,4.153,0,0,1,.787.382.95.95,0,0,1,.513.67.977.977,0,0,0-.476-.724,4.129,4.129,0,0,0-.781-.435,12.079,12.079,0,0,0-1.689-.572,31.1,31.1,0,0,0-3.5-.656c-1.413-.186-2.833-.292-4.255-.356v-3.582h7.641v-5.254H377.361v5.254H385V206.5c-1.568.06-3.134.169-4.691.375a30.867,30.867,0,0,0-3.5.657,12.007,12.007,0,0,0-1.689.572,4.107,4.107,0,0,0-.782.434.979.979,0,0,0-.476.724A.949.949,0,0,1,374.38,208.589Z" transform="translate(-373.867 -197.679)" fill="#fff"/>
    <path id="Path_6017" data-name="Path 6017" d="M400.409,213.1a4.083,4.083,0,0,1-.793.35,12.513,12.513,0,0,1-1.7.425c-1.148.222-2.316.353-3.482.463-2.337.2-4.686.288-7.034.284s-4.7-.082-7.034-.285c-1.166-.111-2.334-.242-3.482-.463a12.515,12.515,0,0,1-1.7-.425,4.058,4.058,0,0,1-.793-.35.934.934,0,0,1-.532-.642.994.994,0,0,0,.457.751,4.145,4.145,0,0,0,.777.466,11.679,11.679,0,0,0,1.688.619,27.4,27.4,0,0,0,3.5.723,45.473,45.473,0,0,0,4.712.421v10.51h5.241V215.419c1.429-.071,2.856-.193,4.275-.4a27.1,27.1,0,0,0,3.5-.723,11.5,11.5,0,0,0,1.688-.618,4.207,4.207,0,0,0,.777-.465.994.994,0,0,0,.457-.751A.933.933,0,0,1,400.409,213.1Z" transform="translate(-373.867 -200.95)" fill="#fff"/>
  </g>
</svg>
