<svg xmlns="http://www.w3.org/2000/svg" width="27" height="28" viewBox="0 0 27 28">
  <g id="withdraw" transform="translate(-0.467 -0.091)">
    <rect id="Rectangle_1284" data-name="Rectangle 1284" width="27" height="28" transform="translate(0.467 0.091)" fill="none"/>
    <path id="withdraw-2" data-name="withdraw" d="M23.577,4.5H1.241A1.2,1.2,0,0,0,0,5.645V17.092a1.2,1.2,0,0,0,1.241,1.145H23.577a1.2,1.2,0,0,0,1.241-1.145V5.645A1.2,1.2,0,0,0,23.577,4.5ZM1.861,16.519V14.23a2.391,2.391,0,0,1,2.482,2.289Zm0-8.013V6.217H4.343A2.391,2.391,0,0,1,1.861,8.506Zm10.547,6.3a3.281,3.281,0,0,1-3.1-3.434,3.281,3.281,0,0,1,3.1-3.434,3.281,3.281,0,0,1,3.1,3.434A3.281,3.281,0,0,1,12.409,14.8Zm10.547,1.717H20.474a2.391,2.391,0,0,1,2.482-2.289Zm0-8.013a2.391,2.391,0,0,1-2.482-2.289h2.482Z" transform="translate(1.395 2.477)" fill="#422343"/>
  </g>
</svg>
