<svg id="avatar-4" xmlns="http://www.w3.org/2000/svg" xmlns:xlink="http://www.w3.org/1999/xlink" width="86" height="86" viewBox="0 0 86 86">
  <defs>
    <clipPath id="clip-path">
      <circle id="Ellipse_403" data-name="Ellipse 403" cx="43" cy="43" r="43"/>
    </clipPath>
  </defs>
  <g id="Group_6478" data-name="Group 6478" clip-path="url(#clip-path)">
    <rect id="Rectangle_1437" data-name="Rectangle 1437" width="85.8" height="85.8" fill="#c5d2ff"/>
  </g>
  <g id="Group_6483" data-name="Group 6483" clip-path="url(#clip-path)">
    <g id="Group_6479" data-name="Group 6479">
      <path id="Path_7825" data-name="Path 7825" d="M74.9,60.8h.3c.1.2.1.4.2.6.2.1.4.1.6.2.2-.2.4-.3.6-.1.4.3.4.9.5,1.4a5.537,5.537,0,0,1,.2,1.8c-.2.4-.2,1.1-.7,1.3a9.852,9.852,0,0,1-.2,1.7c0,.3-.4.2-.6.3,0,.5-.1.9-.1,1.4a7.366,7.366,0,0,0,.4,1.4c.2,0,.4,0,.5.2.2.6.3,1.3.6,2,.1.3.2.5.3.8.2.1.5.1.6.3a1.644,1.644,0,0,1-.8,1.2h-.2c-.2-.1-.3-.2-.5-.3,0-.1-.1-.2-.1-.3a1.374,1.374,0,0,1-.8-.5,5.362,5.362,0,0,1-1.1-2.7,11.109,11.109,0,0,1,.1-2.6c0-.2.2-.2.4-.3a7.719,7.719,0,0,0-.2-1.5,14.456,14.456,0,0,1,0-3.6V61.6a.52.52,0,0,1,.2-.4C74.9,61.1,74.9,61,74.9,60.8Z" fill="#3b53b5"/>
      <path id="Path_7826" data-name="Path 7826" d="M75.4,71.5a2.917,2.917,0,0,1-.1-1.6,8.331,8.331,0,0,1,.4,1.5C75.6,71.4,75.5,71.5,75.4,71.5Z" fill="#fff"/>
    </g>
    <g id="Group_6480" data-name="Group 6480">
      <path id="Path_7839" data-name="Path 7839" d="M44.5,13.8a8.767,8.767,0,0,1,2.8,0,7.741,7.741,0,0,1,3,1.1c.3.2.5.4.8.6a6.788,6.788,0,0,1,2-.7,17.7,17.7,0,0,1,2.3-.1,8.025,8.025,0,0,1,3,.6,13.557,13.557,0,0,1,4.9,2.9,11.746,11.746,0,0,1,2.4,3,14.1,14.1,0,0,1,1.9,6c.3,1.5.3,3,.6,4.4a12.664,12.664,0,0,0,1.5,3.1c1,1.5,2.4,2.7,3.3,4.2a16.39,16.39,0,0,1,2.4,5.6,13.478,13.478,0,0,1,.3,6,7.313,7.313,0,0,0,0,3.6,7.76,7.76,0,0,0,1.6,2.4,10.433,10.433,0,0,1,1.9,3.2,9.067,9.067,0,0,1,.1,4.9,10.434,10.434,0,0,1-.8,2.5c-.1.2-.5.1-.5-.1a3.751,3.751,0,0,1,.1-1l-.3.3v-.7a21.724,21.724,0,0,0-1.2,3.6c.1,0,.2-.1.3-.1-.1.3-.1.5-.2.8.1.1.2.1.4.2,0,.3-.1.5-.1.8.1.1.2.2.2.3-.1-.3.2-.8.6-.5a5.094,5.094,0,0,0,.7,1.7c.2.5.7.8.9,1.2.1,0,.2-.1.3-.1a.6.6,0,0,1-.1.4.661.661,0,0,1-.6-.1c-.1.2,0,.4-.3.5h-.3c.1.2.1.6-.2.5a3.124,3.124,0,0,1-1.6-2.1,8.272,8.272,0,0,1-.3-4.4,11.562,11.562,0,0,0,.8-4.5,3.118,3.118,0,0,0-.9-2.1A1.232,1.232,0,0,1,76,61a1.483,1.483,0,0,1-.7-.1,24.1,24.1,0,0,1,0,3.8,7.283,7.283,0,0,1-.7,2.4,5.359,5.359,0,0,0-.5,1.1,4.084,4.084,0,0,0,.1,1.9,9.678,9.678,0,0,0,.8,2.4,14.7,14.7,0,0,0,1,1.3c.3.6.9.9,1.3,1.5A19.225,19.225,0,0,1,78.6,77a6.788,6.788,0,0,1,.7,2,18.736,18.736,0,0,1,.9,4.1c.2,1.7.2,3.4.5,5.1.5,3.2-11.1-.5-12.2-1.1A11.477,11.477,0,0,0,65.6,86a12.537,12.537,0,0,1-2.5-.9,5.75,5.75,0,0,1-1.7-2.8c-.6-1.6,0-3.5-.7-5.1a5.452,5.452,0,0,0-1.5-2.4,15.054,15.054,0,0,0-1.7-1c0-.3.1-.6-.2-.7-.2-.2-.5.1-.7.2a15.4,15.4,0,0,0-3.5-1.5,4.253,4.253,0,0,0-1.1-.2,21.856,21.856,0,0,1-6.7-.7,24.128,24.128,0,0,1-2.5-.8c-.9-.4-1.8-.7-2.6-1.1-.7-.3-1.3-.7-2-1-1.2-.4-2.4-.9-3.6-1.3A38.164,38.164,0,0,0,31,65.4c-.9-.2-2-.1-2.7-.9a3.839,3.839,0,0,0,1.8-.9c.6-.5,1.3-.8,1.9-1.3.2.1.3.2.5.2.3-.1.3-.5.5-.8a2.905,2.905,0,0,1,1.1-1.1,1.374,1.374,0,0,0,.5-.8c.2-.3.5-.5.6-.8a23.276,23.276,0,0,0,.8-3.8,7.85,7.85,0,0,0,.4-3.7,4.418,4.418,0,0,0-.6-1.6c-.3-1.1-.7-2.2-1-3.4-.3-1.1-.5-2.2-.8-3.3A16.152,16.152,0,0,1,34,41c.2-1.2.2-2.4.4-3.7s.5-2.5.8-3.7a12.9,12.9,0,0,1,.8-2.8,13.989,13.989,0,0,1,1.6-2.6c.2-.2.2-.5.3-.7a.349.349,0,0,0-.2-.1,12.165,12.165,0,0,0-1.5,1.7,9.055,9.055,0,0,0-1.3,2.6,41.1,41.1,0,0,0-1.7,6c-.2,1.1-.5,2.2-.6,3.3a26.6,26.6,0,0,0-.3,2.8,21.584,21.584,0,0,0,.1,4.4,16.508,16.508,0,0,1-.4,7,17.88,17.88,0,0,1-1.3,3.2,8.468,8.468,0,0,1-4.4,3.5,44.8,44.8,0,0,0-6.2,2,19.389,19.389,0,0,0-4.3,2.7c-1,.8-2,1.7-3.1,2.5-.4.3-.8.5-1.2.8-.2.1-.4.3-.6.3a5.134,5.134,0,0,1-2.4-.7c-.6-.4-.8-1.2-1.1-1.8a7.494,7.494,0,0,1,.5-1.6c0-.2.1-.2.2-.1a6.107,6.107,0,0,0,.3,1.3,2.648,2.648,0,0,0,1.9,1.5,2.485,2.485,0,0,0,2-.7,5.5,5.5,0,0,0,1.3-1.7,15.5,15.5,0,0,0,1.2-4.7,17.1,17.1,0,0,0,0-3.2c0-1.3-.2-2.6-.3-3.9a9.68,9.68,0,0,1,.4-3.8A21.618,21.618,0,0,1,17,47.3c1.2-1.9,1.9-4.1,3-6.1a13.3,13.3,0,0,1,1.4-1.9,12.016,12.016,0,0,1,2.9-2.6,11.516,11.516,0,0,0,4-4.2,27.115,27.115,0,0,0,1.3-3c.7-1.9.9-3.9,1.5-5.9a5.651,5.651,0,0,1,1.1-2.5A12.663,12.663,0,0,1,34.7,19c.9-.5,1.9-.8,2.8-1.3a15.526,15.526,0,0,0,2.3-2.1,9.737,9.737,0,0,1,2.4-1.5A9.693,9.693,0,0,0,44.5,13.8Z" fill="#92a5ff"/>
      <path id="Path_7840" data-name="Path 7840" d="M37.8,27.3a.349.349,0,0,0,.2.1,4.875,4.875,0,0,1-.3.7,22.606,22.606,0,0,0-1.6,2.6,14.732,14.732,0,0,0-.8,2.8c-.3,1.2-.6,2.5-.8,3.7s-.3,2.4-.4,3.7a16.152,16.152,0,0,0,0,2.2c.3,1.1.5,2.2.8,3.3s.7,2.2,1,3.4a7.579,7.579,0,0,1,.6,1.6,7.85,7.85,0,0,1-.4,3.7,23.276,23.276,0,0,1-.8,3.8c-.1.3-.4.5-.6.8a5.582,5.582,0,0,1-.5.8,2.9,2.9,0,0,0-1.1,1.1c-.2.3-.2.6-.5.8-.2-.1-.3-.2-.5-.2-.6.5-1.3.8-1.9,1.3a4.37,4.37,0,0,1-1.8.9c-.1,0-.2,0-.2.1-.1-.2-.1-.5-.3-.6h-.7c-1.1.2-2.1.5-3.2.6-.5.1-1,.1-1.4.2-.3.2-.1.6-.1.8a16.293,16.293,0,0,0-3.1,1.1c-.3.2-.7-.1-1,0a31.358,31.358,0,0,0-3.1,1.8c-1.4.9-2.9,1.8-4.2,2.8-.7.8-1.5,1.4-2.1,2,.1.2.5.5.4.8-.2.4-.7,0-1,0-.6.1-.9.6-1.2,1a21.414,21.414,0,0,1-1.3-1.9,4.671,4.671,0,0,1-.5-1,8.521,8.521,0,0,1,0-5,4,4,0,0,1,1-1.8c.1.5-.3,1-.3,1.5a5.583,5.583,0,0,0,.4,3.1A10.015,10.015,0,0,0,8.6,73c.5-.5.9-1,1.4-1.5a4.751,4.751,0,0,1-2.4-2c-.1-.2-.1-.4-.2-.6V67.7c.3.6.5,1.4,1.1,1.8a5.134,5.134,0,0,0,2.4.7.864.864,0,0,0,.6-.3c.4-.3.8-.5,1.2-.8,1.1-.8,2.1-1.7,3.1-2.5a19.389,19.389,0,0,1,4.3-2.7,44.8,44.8,0,0,1,6.2-2,8.008,8.008,0,0,0,4.4-3.5A12.66,12.66,0,0,0,32,55.2a16.6,16.6,0,0,0,.4-7,32.329,32.329,0,0,1-.1-4.4,24.019,24.019,0,0,1,.3-2.8c.1-1.1.4-2.2.6-3.3a41.1,41.1,0,0,1,1.7-6,9.055,9.055,0,0,1,1.3-2.6C36.8,28.5,37.2,27.8,37.8,27.3Z" fill="#5b75c9"/>
      <path id="Path_7841" data-name="Path 7841" d="M27.1,64c.2,0,.5-.1.7,0s.2.4.3.6c.1,0,.2,0,.2-.1.7.7,1.8.6,2.7.9a22.03,22.03,0,0,1,3.6,1.3c1.2.4,2.4.9,3.6,1.3a9.342,9.342,0,0,1,2,1c.9.4,1.8.7,2.6,1.1a18.286,18.286,0,0,0,2.5.8,21.54,21.54,0,0,0,6.7.7,3.6,3.6,0,0,1,1.1.2,37.785,37.785,0,0,0,3.5,1.7,2,2,0,0,0,.2,1.5,11.271,11.271,0,0,1,.3,1.8c.1.6.7,1.1,1,1.6A28.965,28.965,0,0,1,60,81.3a10.41,10.41,0,0,1,.6,1.6c.5,1.7-13.134,4.134-13.134,4.134L29.781,85.7s-11.61-4.276-10.71-6.476c.7-2,2.129-5.825,2.329-7.925a14.675,14.675,0,0,0,1.2-5.5c0-.3-.2-.6.1-.8a3.178,3.178,0,0,1,1.4-.2A26.267,26.267,0,0,1,27.1,64Z" fill="#ff227d"/>
      <path id="Path_7842" data-name="Path 7842" d="M6.3,65.3a.6.6,0,0,1,.4.1,9.652,9.652,0,0,0,0,1.7,4,4,0,0,0,.7,1.8,1.421,1.421,0,0,0,.2.6,4.751,4.751,0,0,0,2.4,2c-.5.5-.9,1-1.4,1.5a12.6,12.6,0,0,1-2.2-3.1A5.471,5.471,0,0,1,6,66.8,4.013,4.013,0,0,0,6.3,65.3Z" fill="#afa079"/>
      <path id="Path_7843" data-name="Path 7843" d="M33.3,65.3c2.3.3,4.5.8,6.7,1.2a56.454,56.454,0,0,1,7.1,1.7,26.96,26.96,0,0,1,5.5,2.4c-.4,0-.8.1-1.2.1-1-.5-1.9-1.2-2.9-1.7a14.262,14.262,0,0,0-2.7-.9c-2.7-.5-5.4-.8-8.1-1.2-.5-.1-1-.4-1.6-.5C35.2,66.1,34.2,65.7,33.3,65.3Z" fill="#fff"/>
      <path id="Path_7844" data-name="Path 7844" d="M19.3,66.8a19.165,19.165,0,0,1,3.1-1.1,17.5,17.5,0,0,1-1.2,5.5A11.725,11.725,0,0,1,17.8,76a6.979,6.979,0,0,1-2.7,1.4c-1.5.4-3.2.7-4.6-.1A10.887,10.887,0,0,1,7.2,75c.4-.4.6-.9,1.2-1,.3,0,.8.4,1,0,.1-.3-.2-.5-.4-.8l2.1-1.8a38.32,38.32,0,0,1,4.2-2.8,31.36,31.36,0,0,1,3.1-1.8C18.7,66.6,19,67,19.3,66.8Z" fill="#afa079"/>
      <path id="Path_7845" data-name="Path 7845" d="M37.7,66.9c2.7.4,5.4.7,8.1,1.2a12.238,12.238,0,0,1,2.7.9c1,.5,1.9,1.2,2.9,1.7a17.526,17.526,0,0,1-5.6-.6,14.262,14.262,0,0,1-2.7-.9c-.9-.4-1.8-.7-2.6-1.1a8.108,8.108,0,0,0-2.1-1A1.445,1.445,0,0,1,37.7,66.9Z" fill="#fcc14b"/>
      <path id="Path_7846" data-name="Path 7846" d="M53.1,71.7a15.4,15.4,0,0,1,3.5,1.5,3.508,3.508,0,0,1,.8.5c-.3-.1-.5-.2-.8-.3C55.4,72.9,54.3,72.3,53.1,71.7Z" fill="#fff"/>
      <path id="Path_7847" data-name="Path 7847" d="M56.6,73.2c.2-.1.4-.4.7-.2.3.1.2.5.2.7a9.5,9.5,0,0,1,1.7,1,5.452,5.452,0,0,1,1.5,2.4c.7,1.6,0,3.5.7,5.1.4,1-.6,2-1.1.3a10.41,10.41,0,0,0-.6-1.6A28.964,28.964,0,0,0,57.8,78a3.915,3.915,0,0,1-1-1.6,11.271,11.271,0,0,0-.3-1.8,3.887,3.887,0,0,1-.2-1.5c.3.1.5.2.8.3C57.2,73.5,56.9,73.3,56.6,73.2Z" fill="#e01270"/>
    </g>
    <g id="Group_6481" data-name="Group 6481">
      <path id="Path_7865" data-name="Path 7865" d="M48.9,20.8c.2-.2.3-.5.5-.6.1.3.3.5.3.8a4.615,4.615,0,0,0,.6,3.6,9.611,9.611,0,0,0,1.4,2.1c.6.7,1.2,1.5,1.9,2.2A6.342,6.342,0,0,1,55,31.6c.3,1-.2,2-.3,3.1a11.325,11.325,0,0,0,.6,3.6,6.094,6.094,0,0,1,0,3,9.363,9.363,0,0,1-.4,1.6,15.457,15.457,0,0,1-.7,2.3,10.978,10.978,0,0,0-1.1,3.5c0,.6.1,1.2.1,1.9a7.653,7.653,0,0,1-.6,3c-.6,1.6-1.6,3-1.8,4.7-.1.8-.2,1.5-.3,2.3a5.278,5.278,0,0,0,.4,2.5,7.476,7.476,0,0,0,1.5,2.4,27.463,27.463,0,0,1,2.2,2.6,5.23,5.23,0,0,1,1,2.3c.5,1.8.3,3.7,1.1,5.3.2.4.3.9.7,1-1.2.4-2.2,1.1-3.4,1.4a31.129,31.129,0,0,1-4.1,1.1,16.367,16.367,0,0,1-3.8.4c-1.4,0-2.7,0-4.1-.1-1.3-.1-2.6-.1-3.8-.3-1.2-.3-2.4-.7-3.6-1a9.487,9.487,0,0,1-3.9-2.7c-.4-.6-.8-1.2-1.2-1.9a10.434,10.434,0,0,1-.8-2.5,25,25,0,0,1-.5-2.9,20.479,20.479,0,0,1-.1-3.5,7.017,7.017,0,0,0,2.5-.1,6.686,6.686,0,0,0,1.9-.5,16.55,16.55,0,0,0,3.4-2.5,13.5,13.5,0,0,0,2-2.7,12.972,12.972,0,0,0,1.4-3.2,3.582,3.582,0,0,1,.4-1.1c.7-.7,1.8-.2,2.7-.4a6.7,6.7,0,0,0-1.8-1.1,36.545,36.545,0,0,1-3.1-2.4,15.934,15.934,0,0,1-1.3-1.3c-.3-.3-.4-.7-.7-.8a13.969,13.969,0,0,1-.9-2.9,17.281,17.281,0,0,1-.1-6c.3-2,.4-4.1.8-6.1a14.6,14.6,0,0,1,1-3.4c.4-.4.7-1,1.1-1.5a17.517,17.517,0,0,1,4.8-3.8,12.272,12.272,0,0,1,2.6-1.2,10.076,10.076,0,0,0,2.3-1.2,1.765,1.765,0,0,0,.8-.9A2.351,2.351,0,0,0,48.9,20.8Z" fill="#f4a187"/>
      <path id="Path_7866" data-name="Path 7866" d="M50.3,24.6a4.615,4.615,0,0,1-.6-3.6,6.713,6.713,0,0,0,.6,1.5,14,14,0,0,0,1,1.6c.4.5.9.8,1.3,1.3a2.7,2.7,0,0,0,.8.7c.9.6,1.7,1.2,2.6,1.8A6.228,6.228,0,0,1,57.5,30a14.191,14.191,0,0,1,.5,2.2,45.129,45.129,0,0,0,.1,5.2,12.716,12.716,0,0,1,.2,3.4,5.224,5.224,0,0,1-.7,2.1c-.8,1.2-1.8,2.3-2.6,3.6a8.383,8.383,0,0,0-.9,2.5c-.3,1.3.1,2.8-.5,4-.5,1.1-1.4,2-1.9,3.2a6.025,6.025,0,0,0-.5,3.5,5.112,5.112,0,0,0,1.3,2.4,17.411,17.411,0,0,0,1.4,1.2,25.6,25.6,0,0,0,2.6,2c.4.4,1,.8,1.2,1.3a11.552,11.552,0,0,1,.9,4.9,8.755,8.755,0,0,0,.6,2.8c.2.5.5.9.7,1.3-.8.4-1.6.9-2.4,1.3-.5-.1-.6-.7-.7-1-.8-1.7-.6-3.6-1.1-5.3a8.009,8.009,0,0,0-1-2.3c-.8-.9-1.5-1.7-2.2-2.6A7.476,7.476,0,0,1,51,63.3a5.482,5.482,0,0,1-.4-2.5c.1-.8.2-1.5.3-2.3a24.071,24.071,0,0,1,1.8-4.7,8.025,8.025,0,0,0,.6-3,11.483,11.483,0,0,1-.1-1.9,10.242,10.242,0,0,1,1.1-3.5,8.78,8.78,0,0,0,.7-2.3,9.363,9.363,0,0,0,.4-1.6,6.094,6.094,0,0,0,0-3,15.058,15.058,0,0,1-.6-3.6c.1-1,.6-2,.3-3.1a5.407,5.407,0,0,0-1.4-2.7c-.7-.7-1.2-1.5-1.9-2.2A10.03,10.03,0,0,1,50.3,24.6Z" fill="#d3826c"/>
      <path id="Path_7867" data-name="Path 7867" d="M40.7,24.5c2.3-1.1,4.9-1.5,7.1-2.7a2.361,2.361,0,0,1-.8.9,7.242,7.242,0,0,1-2.3,1.2,12.272,12.272,0,0,0-2.6,1.2,16.147,16.147,0,0,0-4.8,3.8c-.4.4-.7,1-1.1,1.5a18.186,18.186,0,0,1,1.6-3.1A7.1,7.1,0,0,1,40.7,24.5Z" fill="#d3826c"/>
      <path id="Path_7868" data-name="Path 7868" d="M42.2,38.4c.4-.1.6.3.9.5.3.1.7-.3,1,0,.1.4-.2.6-.4.9s-.4.7-.7.8c-.2.1-.4.2-.5,0a3.233,3.233,0,0,1-.3-1.7C42.1,38.7,42,38.5,42.2,38.4Z" fill="#d3826c"/>
      <path id="Path_7869" data-name="Path 7869" d="M35.3,48.7a5.008,5.008,0,0,1,.7.8,5.347,5.347,0,0,0,1.3,1.3,36.546,36.546,0,0,0,3.1,2.4,6.7,6.7,0,0,1,1.8,1.1c-.9.2-1.9-.2-2.7.4a4.875,4.875,0,0,0-.4,1.1A12.971,12.971,0,0,1,37.7,59a12.716,12.716,0,0,1-5.4,5.2,5.918,5.918,0,0,1-1.9.5,7.017,7.017,0,0,1-2.5.1c.1-.2,0-.6.3-.7a3.694,3.694,0,0,0,1.4-.7,16.1,16.1,0,0,0,3-2.1,10.927,10.927,0,0,0,2.3-3,10.525,10.525,0,0,0,.8-3.6c.1-1.1.1-2.2.1-3.3a6.15,6.15,0,0,0-.1-1.4C35.8,49.7,35.5,49.2,35.3,48.7Z" fill="#d3826c"/>
      <path id="Path_7870" data-name="Path 7870" d="M75.5,60.2c.4,0,.7-.3,1.1-.3a14.083,14.083,0,0,1,4.5.7,3.858,3.858,0,0,1,1.7,1.1c.6.7,1.3,1.2,1.9,1.9.5.6.9,1.2,1.4,1.8a10.092,10.092,0,0,1,1.5,2.1,7.364,7.364,0,0,1-.1,3.3c-.3,1.2-.5,2.4-.9,3.6a16.587,16.587,0,0,1-1.2,3.1c-.6,1.6-5.9,3.9-6.3,2.5a13.919,13.919,0,0,0-.6-1.3,9.187,9.187,0,0,0-1.1-2.9A10.766,10.766,0,0,1,79.8,74c.7-.4,1.6-.5,2.1-1.1-.4-.3-.9-.6-1.3-.9a2.651,2.651,0,0,0-.6-.5c-.2,0-.4.1-.6.1-1.1.1-2.2,0-3.3,0a6.632,6.632,0,0,1-1.9.9c-.3,0-.6,0-.7-.3a3.812,3.812,0,0,1,.1-1.5c-.3-.1-.3-.4-.3-.6a.349.349,0,0,1-.2-.1c0-.2-.2-.4,0-.6A12.769,12.769,0,0,1,76,65.8a6.078,6.078,0,0,1,1.4-1,15.058,15.058,0,0,1,3.6-.6,8.991,8.991,0,0,0-1.8-1.6c-1.1-.3-2.5-.2-3.6-.6a1.22,1.22,0,0,1-.8-.9C74.8,60.4,75.2,60.2,75.5,60.2Z" fill="#f4a187"/>
      <path id="Path_7871" data-name="Path 7871" d="M22.3,65.2c.1-.1.3,0,.4,0a6.552,6.552,0,0,0,0,1.4,21.052,21.052,0,0,0-.2,2.5c-.1,1.5-.2,3.1-.3,4.6-.4,2.5-.7,4.9-1.2,7.4a2.462,2.462,0,0,0-.1,1.2v.1a6.39,6.39,0,0,0-1.3,1.5C18.5,85.3,7.2,74.3,7.8,73.8c.8-.8,1.8-1.4,2.6-2.2a42.7,42.7,0,0,1,4.4-3A37.126,37.126,0,0,1,20.1,66,11.874,11.874,0,0,1,22.3,65.2Z" fill="#f4a187"/>
      <path id="Path_7872" data-name="Path 7872" d="M22.6,69.1a21.052,21.052,0,0,1,.2-2.5,16.043,16.043,0,0,1,.1,4.9c-.1,2-.1,4-.3,5.9a19.2,19.2,0,0,1-.9,4,2.7,2.7,0,0,1-.7.8c-.1-.4.1-.8.1-1.2.5-2.4.8-4.9,1.2-7.4Z" fill="#d3826c"/>
      <path id="Path_7873" data-name="Path 7873" d="M79.4,71.3c.2,0,.4-.1.6-.1.2.1.4.4.6.5a10.144,10.144,0,0,0,1.3.9c-.5.6-1.4.7-2.1,1.1a8.4,8.4,0,0,0-2.4,1.8c-.1-.1-.2-.3-.3-.4a35.835,35.835,0,0,1,2.8-3.7A.9.9,0,0,0,79.4,71.3Z" fill="#c4603d"/>
      <path id="Path_7874" data-name="Path 7874" d="M78.5,78.4c.2.4.4.8.6,1.3a10.459,10.459,0,0,1,.3,4.3A15.281,15.281,0,0,1,78,88.6a3.887,3.887,0,0,0-.2,1.5,7.548,7.548,0,0,1-.5-4.2c.2-1.3.6-2.6.9-3.8A15.417,15.417,0,0,0,78.5,78.4Z" fill="#c4603d"/>
    </g>
    <g id="Group_6482" data-name="Group 6482">
      <path id="Path_7879" data-name="Path 7879" d="M45.4,14.6c1.1-.1,2.1,0,3.2,0v.2a17.2,17.2,0,0,0-3.2.2,8.686,8.686,0,0,0-5,2.6,6.142,6.142,0,0,1-2.6,1.5A12.979,12.979,0,0,0,34.1,21a15.379,15.379,0,0,0-1.3,1.2,9.142,9.142,0,0,1,4.9-3.5,7.5,7.5,0,0,0,2-1A15.379,15.379,0,0,0,41,16.5,8.38,8.38,0,0,1,45.4,14.6Z" fill="#3b53b5"/>
      <path id="Path_7880" data-name="Path 7880" d="M44.9,16.2a7.026,7.026,0,0,1,3.2-.6,3.778,3.778,0,0,1,2.1.4c-.7.1-1.4-.1-2.1,0a7.75,7.75,0,0,0-3,.7c-1.7.7-3.1,2-4.7,2.8a20.291,20.291,0,0,1-2.6,1.1A9.078,9.078,0,0,0,33,24.2c-.8,1.4-1.3,2.9-2.1,4.2a28.494,28.494,0,0,1,1.2-3.1,9.044,9.044,0,0,1,3.8-4.4c1.1-.6,2.3-.9,3.4-1.5a16.825,16.825,0,0,0,3.4-2A11.422,11.422,0,0,1,44.9,16.2Z" fill="#3b53b5"/>
      <path id="Path_7881" data-name="Path 7881" d="M51,15.6h.2c-.3.8-.6,1.5-.9,2.2-.2.5-.3,1.1-.5,1.6a18.212,18.212,0,0,0,1.5,2.7,15.942,15.942,0,0,0,3.3,2.5,17.191,17.191,0,0,1,3.3,3.3,8.671,8.671,0,0,1,1.3,4.4c0,1-.4,2-.1,3.1.3,1.7,1.1,3.3.8,5.1a6.248,6.248,0,0,1-1,2.2c-.6,1-1.4,1.8-2,2.9a9.979,9.979,0,0,0-1,2.9,14.719,14.719,0,0,0,0,2.1,6.911,6.911,0,0,1-1.4,4,7.1,7.1,0,0,0-1.3,2.2,3.943,3.943,0,0,0,.9,3.6c1.2,1.6,2.7,2.9,3.9,4.5a6.99,6.99,0,0,1,1.3,2.9,23,23,0,0,1,.3,2.6,7.511,7.511,0,0,0,.5,2.6,8.2,8.2,0,0,0,1.7,2,6.773,6.773,0,0,1,1.4,4.1c.1,1.1-.4,2.1,0,3.2a3.04,3.04,0,0,0,1.7,2.1,20.48,20.48,0,0,0,2.4.5,6.789,6.789,0,0,1,2,.7,6.9,6.9,0,0,1,1.8,1.6,3.787,3.787,0,0,1,.8,3.1,12.859,12.859,0,0,0-.4-1.9,4.194,4.194,0,0,0-.9-1.4,4.589,4.589,0,0,0-2.2-1.5,15.985,15.985,0,0,0-2.1-.5,4.756,4.756,0,0,1-2.1-.7,3.642,3.642,0,0,1-1.3-3.4,9.162,9.162,0,0,0-.1-3.3,6.59,6.59,0,0,0-1.1-2.4c-.5-.6-1.1-1.1-1.5-1.7a5.246,5.246,0,0,1-.6-2.8c-.6-1.7-.8-3.7-1.9-5.3-1.2-1.5-2.6-2.8-3.7-4.2a5.01,5.01,0,0,1-1.3-3.4,5.322,5.322,0,0,1,1.2-2.9,6.716,6.716,0,0,0,1.6-4.5,9.255,9.255,0,0,1,2-6.4,18.1,18.1,0,0,0,1.8-2.7,4.986,4.986,0,0,0-.1-3.6,8.428,8.428,0,0,1-.5-4.2,7.689,7.689,0,0,0-1.4-5.7,18.442,18.442,0,0,0-4.6-4.2,5.463,5.463,0,0,1-1.8-1.9,11.459,11.459,0,0,1-1-2.3,3.552,3.552,0,0,1-.4.9h-.2a11.5,11.5,0,0,1,.6-1.7A13.783,13.783,0,0,1,51,15.6Z" fill="#3b53b5"/>
      <path id="Path_7882" data-name="Path 7882" d="M53,15.9a10.819,10.819,0,0,1,1.8,0,6.8,6.8,0,0,1,2,.2,10.556,10.556,0,0,1,4.8,2.5,14.475,14.475,0,0,1,3,4,13.316,13.316,0,0,1,1,2.8c.4,1.5.4,3.1.8,4.7a14.629,14.629,0,0,0,1.7,5.1c1,1.4,2.4,2.6,3.4,3.9a13.248,13.248,0,0,1,1.6,2.5,10.235,10.235,0,0,1,.9,4.2,25.612,25.612,0,0,1-.3,3.9,9.042,9.042,0,0,0,1.4,5.6c.8,1.2,1.7,2.2,2.4,3.4a2.1,2.1,0,0,1,.4,1.1c-.4-.1-.5-.6-.8-.9-.8-1.2-1.8-2.2-2.5-3.4a9.038,9.038,0,0,1-1.1-2.7,12.194,12.194,0,0,1-.1-3.8,18.287,18.287,0,0,0,.2-3.3,10.352,10.352,0,0,0-1-4.2,10.76,10.76,0,0,0-2.4-3.2,24.288,24.288,0,0,1-2.6-3,14.3,14.3,0,0,1-1.7-4.9,52.974,52.974,0,0,0-1-5.5,11.949,11.949,0,0,0-1.5-3.5,23.716,23.716,0,0,0-2.5-2.9,9.407,9.407,0,0,0-3.1-1.7,10.548,10.548,0,0,0-1.9-.5c-.7-.1-1.5-.1-2.2-.2a23,23,0,0,0-2.6.3A4.89,4.89,0,0,1,53,15.9Z" fill="#3b53b5"/>
      <path id="Path_7883" data-name="Path 7883" d="M47.3,17.4a11.275,11.275,0,0,1,2.4-.8.349.349,0,0,0,.1.2,9.037,9.037,0,0,0-2.1.8,15.569,15.569,0,0,0-2.8,1.6,9.354,9.354,0,0,1-3.1,1,15.805,15.805,0,0,0-3.6,1.4,10.8,10.8,0,0,0-3.6,3.1,25.938,25.938,0,0,0-2.5,3.9,37.736,37.736,0,0,0-2.6,6.6c-.5,1.6-.8,3.3-1.3,5a32.078,32.078,0,0,0-1,6.2,22.823,22.823,0,0,0,.4,4.5,6.522,6.522,0,0,1,.2,2.4,7.991,7.991,0,0,1-1.4,3.6c-1,1.5-2.3,2.9-3.2,4.5a32.352,32.352,0,0,0-1.3,3.3,1.7,1.7,0,0,1-.1-.7,9.38,9.38,0,0,1,1-2.8c.9-1.6,2.2-2.9,3.2-4.4a7.091,7.091,0,0,0,1.3-3.5,28.514,28.514,0,0,0-.4-4,27.733,27.733,0,0,1-.1-4.1,22.653,22.653,0,0,1,.9-5.2c.3-1.2.6-2.4.9-3.7a33.762,33.762,0,0,1,2.6-6.9,27.908,27.908,0,0,1,1.9-3.3,14.29,14.29,0,0,1,3-3.5,13.057,13.057,0,0,1,3.6-2.1c1.1-.4,2.2-.7,3.3-1C44.5,19.2,45.8,18,47.3,17.4Z" fill="#3b53b5"/>
      <path id="Path_7884" data-name="Path 7884" d="M51.7,17.4a7.387,7.387,0,0,1,2.1,0,5.659,5.659,0,0,1,2.5.8,23.126,23.126,0,0,1,2.4,2A13.222,13.222,0,0,1,61.2,23a22.74,22.74,0,0,1,2.7,5.4c.4,1.3.8,2.6,1.2,4a22.677,22.677,0,0,0,.6,2.5,12.814,12.814,0,0,0,1.1,3.3c.5.8.9,1.6,1.5,2.4.3.4.7.7,1,1.1a7.584,7.584,0,0,1,1.6,3.8c.1,1.3-.2,2.7-.1,4a12.9,12.9,0,0,0,.8,2.8,7.842,7.842,0,0,1,.9,2.4,17.7,17.7,0,0,1-.1,2.3,9.079,9.079,0,0,0,.3,2.3,7.741,7.741,0,0,0,.7,1.6,5.112,5.112,0,0,1,.4,2.7c-.2,1.3-.4,2.6-.5,3.9H73a25.724,25.724,0,0,1,.5-4,5.829,5.829,0,0,0-.6-2.9,7.617,7.617,0,0,1-.8-3.9,10.869,10.869,0,0,0,.1-1.8,12.473,12.473,0,0,0-1-2.7,10.1,10.1,0,0,1-.7-3c0-1.6.4-3.1,0-4.7a8.958,8.958,0,0,0-1.7-3,15.583,15.583,0,0,1-1.6-2A8.755,8.755,0,0,1,66,36.9a26.155,26.155,0,0,1-.9-3.8c-.4-1.9-1-3.7-1.6-5.6a26.376,26.376,0,0,0-2.3-4.4,15.459,15.459,0,0,0-2.4-2.7c-.7-.6-1.4-1.3-2.1-1.8a6.11,6.11,0,0,0-1.4-.7A25.791,25.791,0,0,0,51.7,17.4Z" fill="#3b53b5"/>
      <path id="Path_7885" data-name="Path 7885" d="M56.7,17.4a4.187,4.187,0,0,1,2.1.8,13.655,13.655,0,0,1,2.3,1.9,12.9,12.9,0,0,1,3,5.5,5.867,5.867,0,0,1,.4,2.3,17.1,17.1,0,0,0-.9-3,13.227,13.227,0,0,0-2.3-4.2,6.73,6.73,0,0,0-1.5-1.4,7.013,7.013,0,0,0-2.1-1.4A3.128,3.128,0,0,0,56.7,17.4Z" fill="#3b53b5"/>
      <path id="Path_7886" data-name="Path 7886" d="M46.1,19.8a18.762,18.762,0,0,1,3.6-2.1c-.2.4-.6.5-1,.7-.9.5-1.7,1.3-2.6,1.8a13.272,13.272,0,0,1-2.1.9c-1.1.3-2.3.6-3.4,1a11.382,11.382,0,0,0-4.9,3.5,26.37,26.37,0,0,0-2.3,3.5c-.4.8-.9,1.6-1.2,2.4a19.33,19.33,0,0,0-1.6,4.6c-.3,1.3-.6,2.7-.8,4a23.165,23.165,0,0,0-.6,4.6,36.879,36.879,0,0,0,.1,4.7,19.329,19.329,0,0,1,.1,3.4A13.577,13.577,0,0,1,27.5,58a20.97,20.97,0,0,1-2.2,3c-.6.7-1.2,1.5-1.8,2.2-.3.3-.5.6-.9.7a14.7,14.7,0,0,1,1-1.3l2.1-2.7a20.671,20.671,0,0,0,2.7-4.5,11.489,11.489,0,0,0,.7-3.6,54.567,54.567,0,0,1-.2-7,24.176,24.176,0,0,1,.6-4.7,38.308,38.308,0,0,1,1.9-7.4,40.658,40.658,0,0,1,2.8-5.5,13.222,13.222,0,0,1,4.6-4.5,27.046,27.046,0,0,1,5.4-2A17.153,17.153,0,0,0,46.1,19.8Z" fill="#3b53b5"/>
      <path id="Path_7887" data-name="Path 7887" d="M50.8,18.7a.349.349,0,0,1,.1-.2,20.129,20.129,0,0,1,2.5,1.4A18.628,18.628,0,0,1,56,22.2a18.641,18.641,0,0,1,2.9,4.4,14.624,14.624,0,0,1,1.8,5.7c.2,1.2-.1,2.4.2,3.5.3,1,.5,2,.7,3a13.551,13.551,0,0,1-.1,3.5,27.585,27.585,0,0,1-.8,2.7c-.2.8-.5,1.5-.7,2.2-.2.6-.2,1.2-.4,1.8-.6,1.3-.5,2.9-1.3,4.2a8.656,8.656,0,0,0-1,2.4,8.423,8.423,0,0,0-.4,2.7,10.146,10.146,0,0,0,1.6,4.5,16.924,16.924,0,0,1,1.7,2.9c.8,2,.2,4.2,1,6.1.5,1.3,1.6,2.1,2.5,3.1a5.7,5.7,0,0,1,1.1,2.2,11.7,11.7,0,0,0,.5,2c.4.9,1.3,1.4,1.8,2.1.5.6.7,1.3,1.2,1.8.8.8,1.9,1.2,2.7,2,1.2.9,2.2,3.1,1.4,2a10.087,10.087,0,0,0-3.1-2.7A5.088,5.088,0,0,1,67.7,83c-.4-.5-.6-1.1-1-1.5-.4-.6-1-1-1.5-1.6a3.63,3.63,0,0,1-.7-1.7,7.862,7.862,0,0,0-.8-2.6c-.6-1-1.6-1.7-2.3-2.7a6.855,6.855,0,0,1-1.1-2.8c-.1-1.2-.1-2.3-.3-3.5a7.918,7.918,0,0,0-1.3-2.8,12.75,12.75,0,0,1-1.5-2.5,10.294,10.294,0,0,1-.8-4.3,11.228,11.228,0,0,1,1.4-4c.7-1.1.7-2.5,1.1-3.7.5-1.2.6-2.4,1-3.6a12.665,12.665,0,0,1,.6-1.8,10.357,10.357,0,0,0,.5-6.5c-.2-.9-.5-1.7-.6-2.5-.1-1,.1-2-.1-3.1a15.893,15.893,0,0,0-1.7-5.2,18.28,18.28,0,0,0-2.8-4.4c-.6-.6-1.2-1.2-1.8-1.7C53,19.9,51.9,19.3,50.8,18.7Z" fill="#3b53b5"/>
      <path id="Path_7888" data-name="Path 7888" d="M52.9,18.6a5.663,5.663,0,0,1,1.8.3,5.575,5.575,0,0,1,1.9.9,11.318,11.318,0,0,1,1.3,1c.7.7,1.3,1.4,2,2.2a18.187,18.187,0,0,1,1.5,2.3,13.339,13.339,0,0,1,1.3,3.3c.3,1.1.6,2.2.8,3.3a31.458,31.458,0,0,0,.9,5.2,13.826,13.826,0,0,0,3.1,5.5A5.806,5.806,0,0,1,68.6,45a8.077,8.077,0,0,1-.5,3.1,3.112,3.112,0,0,0,.7,2.8A4.347,4.347,0,0,1,70.2,53a4.5,4.5,0,0,1-.1,3.6,3.289,3.289,0,0,0,.1,2.9,6.911,6.911,0,0,1,1.4,3.3,7.15,7.15,0,0,1-.3,2.5,11.824,11.824,0,0,0,.2,5.3,11.689,11.689,0,0,0,.6,2c.5.9,1,1.9,1.5,2.8s1.2,1.7,1.7,2.7a4.692,4.692,0,0,1,.7,2.8,7.5,7.5,0,0,0-.9-2.5c-.5-1.1-1.3-1.9-1.9-3a23.877,23.877,0,0,1-1.6-3.2,12.866,12.866,0,0,1-.4-8.4,4.274,4.274,0,0,0-.6-2.9,9.517,9.517,0,0,1-1.2-2.5c-.2-1.3.6-2.5.6-3.7a4.558,4.558,0,0,0-.5-2.3c-.4-.9-1.3-1.3-1.7-2.2a4.146,4.146,0,0,1-.2-2.7A6.9,6.9,0,0,0,68,45a10.927,10.927,0,0,0-.5-1.7,9.55,9.55,0,0,0-1.2-1.6,11.456,11.456,0,0,1-2.5-5.2c-.3-1.3-.4-2.6-.6-3.8-.2-1-.3-2-.6-3a19.3,19.3,0,0,0-1.1-3.4A10.46,10.46,0,0,0,60.2,24a18.4,18.4,0,0,0-1.7-2.2c-.5-.5-.9-1-1.5-1.5a4.991,4.991,0,0,0-1.7-1.1A6.441,6.441,0,0,1,52.9,18.6Z" fill="#3b53b5"/>
      <path id="Path_7889" data-name="Path 7889" d="M48.5,19.8a1.421,1.421,0,0,1,.6-.2,1.794,1.794,0,0,1-.5.7,8.022,8.022,0,0,1-3.4,1.8,25.492,25.492,0,0,0-5.3,1.8,12.1,12.1,0,0,0-4.3,4.4,20.027,20.027,0,0,0-1.5,2.9A41.086,41.086,0,0,0,32,38a33.353,33.353,0,0,0-.6,6.2c-.1,2.4.1,4.9.2,7.3a7.451,7.451,0,0,1-.6,3.3,13.264,13.264,0,0,1-1.6,3.4,17.285,17.285,0,0,1-3.1,3.5c-.5.4-1.1.9-1.6,1.3a1.421,1.421,0,0,1-.6.2,52.865,52.865,0,0,0,4.1-4.1,9.53,9.53,0,0,0,1.9-3,11.374,11.374,0,0,0,1.1-4c0-1.6-.1-3.1-.2-4.7a59.334,59.334,0,0,1,.2-7.3,32.182,32.182,0,0,1,1.5-6.3,28.637,28.637,0,0,1,2-4.8,15.739,15.739,0,0,1,3.8-4.7,13.4,13.4,0,0,1,5-2.3c1-.4,2.1-.6,3.1-1.1A6.221,6.221,0,0,0,48.5,19.8Z" fill="#3b53b5"/>
      <path id="Path_7890" data-name="Path 7890" d="M51,19.8c.3.1.5.4.7.6,1.3,1.2,2.5,2.4,3.7,3.6a10.1,10.1,0,0,1,1.3,1.6,17.41,17.41,0,0,1-1.2-1.4c-1.3-1.3-2.9-2.5-4.2-3.8A1.628,1.628,0,0,1,51,19.8Z" fill="#3b53b5"/>
      <path id="Path_7891" data-name="Path 7891" d="M57.5,22.6a10.8,10.8,0,0,1,2.8,3.9,16.206,16.206,0,0,1,1.3,3.3,15.253,15.253,0,0,1,.8,3.7c.1,1.2.1,2.4.3,3.6a12.758,12.758,0,0,0,.6,3.3,7.217,7.217,0,0,0,1.4,2.4,6.71,6.71,0,0,1,1.6,4c.1,1.3-.5,2.5-.1,3.7.3,1,1.2,1.6,1.6,2.4a4.138,4.138,0,0,1,.1,3.6,3.872,3.872,0,0,0-.3,2.6c.3,1.4,1.5,2.3,1.7,3.7.2,1.5-.4,2.9-.5,4.4a11.8,11.8,0,0,0,.5,3.7,17.652,17.652,0,0,0,1.8,4.5,25.6,25.6,0,0,1,2.3,4.7,11.234,11.234,0,0,1,.3,3.2c0,.7.2,1.4.2,2.1a8.56,8.56,0,0,1-.5-2.3,13.329,13.329,0,0,0-.3-2.8,25.6,25.6,0,0,0-2.3-4.7A14.641,14.641,0,0,1,69,71.1a12.58,12.58,0,0,1-.4-4.3c.1-1.3.7-2.6.4-3.9a7.552,7.552,0,0,0-1.3-2.3,4.3,4.3,0,0,1-.4-3.5,8.8,8.8,0,0,0,.5-1.5,3.019,3.019,0,0,0-.2-2.1c-.4-1-1.4-1.5-1.8-2.5a4.468,4.468,0,0,1,0-2.8,6.367,6.367,0,0,0-1.2-4.8c-.4-.6-.9-1.1-1.3-1.8a6.805,6.805,0,0,1-.8-2.4c-.2-1.7-.4-3.5-.5-5.2a13.591,13.591,0,0,0-.7-3.5,28.744,28.744,0,0,0-2.1-5.1A7.28,7.28,0,0,0,57.5,22.6Z" fill="#3b53b5"/>
      <path id="Path_7892" data-name="Path 7892" d="M43.4,29.2h-.2a2.2,2.2,0,0,1-.1.8,5.768,5.768,0,0,0-.3-1.4c0,.1-.1.4-.1.5a2.945,2.945,0,0,0-2.4-1.3,5.236,5.236,0,0,0-3.4,1c-.3.2-.3.5-.4.8a15.526,15.526,0,0,1,3.1.3c.6.2,1.1.4,1.7.6a6.07,6.07,0,0,0,1.8.5A3.805,3.805,0,0,0,43.4,29.2Z" fill="#5b75c9"/>
      <path id="Path_7893" data-name="Path 7893" d="M55.4,31.4a7.771,7.771,0,0,0-3-1.8,4.052,4.052,0,0,0-3.2.7v-.4a1.8,1.8,0,0,0-.6.9v-.5a1.438,1.438,0,0,0-.2,1.4,18.61,18.61,0,0,0,3.4-.4,6.28,6.28,0,0,1,3.3.6,5.736,5.736,0,0,1,.7.4A1.086,1.086,0,0,0,55.4,31.4Z" fill="#5b75c9"/>
      <path id="Path_7894" data-name="Path 7894" d="M38.4,32.4a.569.569,0,0,1,.7.4c.1.5-.3,1.1-.8.9A.72.72,0,0,1,38.4,32.4Z" fill="#151c2d"/>
      <path id="Path_7895" data-name="Path 7895" d="M44.6,32.9c.3-.2.3.2.2.4-.2,1.8-.4,3.5-.7,5.3a.523.523,0,0,1-.8.4,3.5,3.5,0,0,1-1.7-.9c-.3-.3-.1-.8.1-1.1.6-.9,1.2-1.8,1.9-2.7A12.133,12.133,0,0,1,44.6,32.9Zm-2.7,4.8a16.444,16.444,0,0,1,1.4-2.2A10.232,10.232,0,0,0,41.9,37.7Zm1.3.3c-.2,0-.2.2-.2.3,0,.4.7.5.8.2C43.9,38.1,43.4,37.9,43.2,38Z" fill="#e99679"/>
      <path id="Path_7896" data-name="Path 7896" d="M28.4,33.7A6.535,6.535,0,0,1,27,36.6a13.149,13.149,0,0,1-2.5,2.2,10.528,10.528,0,0,0-2.4,2.3c-.8,1.2-1.3,2.7-2,4a45.874,45.874,0,0,1-3.3,4.4,11.574,11.574,0,0,0-1.4,2.4c-.4,1.8.2,3.6.4,5.4l.3,2.4a23.079,23.079,0,0,1-.3,3.7,9.8,9.8,0,0,1-2.1,4.9,1,1,0,0,1-.5.4c.2-.4.5-.8.7-1.2a16.04,16.04,0,0,0,1.7-6.4,27.76,27.76,0,0,0-.6-6.4,20.084,20.084,0,0,1,.1-2.4,4.958,4.958,0,0,1,.8-2,24.282,24.282,0,0,1,2.4-3.2,11.18,11.18,0,0,0,1.9-2.9c.5-1.1,1-2.2,1.6-3.3a12.522,12.522,0,0,1,2.3-2.3,14.309,14.309,0,0,0,2.4-1.9A9.13,9.13,0,0,0,28,34.4,5.737,5.737,0,0,1,28.4,33.7Z" fill="#3b53b5"/>
      <path id="Path_7897" data-name="Path 7897" d="M50.8,34.1a.442.442,0,0,1,.7.3c.1.4-.2,1-.7.9A.7.7,0,0,1,50.8,34.1Z" fill="#151c2d"/>
      <path id="Path_7898" data-name="Path 7898" d="M36.8,34.5v-.2a7.491,7.491,0,0,0,1.6.4,6.15,6.15,0,0,0,1.4-.1A2.558,2.558,0,0,1,36.8,34.5Z" fill="#d3826c"/>
      <path id="Path_7899" data-name="Path 7899" d="M41.9,37.7a6.356,6.356,0,0,1,1.4-2.2C42.8,36.2,42.4,37,41.9,37.7Z" fill="#f4a187"/>
      <path id="Path_7900" data-name="Path 7900" d="M51.2,35.9c.5-.1,1-.2,1.6-.3-.4.7-1.3.7-2,.7-.5-.1-1.1-.1-1.4-.5A10.869,10.869,0,0,0,51.2,35.9Z" fill="#d3826c"/>
      <path id="Path_7901" data-name="Path 7901" d="M35.7,36.9a.815.815,0,0,1,1.1.5,1.506,1.506,0,0,1-.3,1.7,1.09,1.09,0,0,1-1.4.2,1.249,1.249,0,0,1-.4-1.3A2.132,2.132,0,0,1,35.7,36.9Z" fill="#fc9dc2"/>
      <path id="Path_7902" data-name="Path 7902" d="M26.9,37.8a4.671,4.671,0,0,1,.5-1c0,.2-.1.5-.1.7a51.486,51.486,0,0,0-1.6,5.6,15.334,15.334,0,0,0-.2,3.7,49.866,49.866,0,0,1,.7,5.4,6.6,6.6,0,0,1-2.3,4.5,8.288,8.288,0,0,0-2.5,4.9,21.657,21.657,0,0,1-.4,2.5c0,.2-.2.3-.3.4,0-.5.1-.9.1-1.4a8.909,8.909,0,0,1,1.9-5.7c.5-.6,1.1-1.1,1.6-1.7a5.856,5.856,0,0,0,1.4-4.4c-.1-1.5-.5-2.9-.6-4.4a23.578,23.578,0,0,1,.2-3.8A32.38,32.38,0,0,1,26.9,37.8Z" fill="#3b53b5"/>
      <path id="Path_7903" data-name="Path 7903" d="M67.6,37.2a.758.758,0,0,1,.4.2,29.192,29.192,0,0,0,2.1,2.8,7.41,7.41,0,0,1,1.2,1.3A8.585,8.585,0,0,1,72.5,45c.2,2.2-.4,4.5.3,6.6.3,1.3,1.1,2.5,1.2,3.9a5.6,5.6,0,0,0,.5,2.5c.3.6,1,1.1,1.2,1.8A5.48,5.48,0,0,1,74.1,58c-.5-.8-.3-1.9-.5-2.8a32.09,32.09,0,0,0-1.2-3.3c-.7-2.2-.1-4.5-.3-6.7a6.314,6.314,0,0,0-1.4-3.8c-.5-.5-1-1-1.5-1.6A20.279,20.279,0,0,0,67.9,38,4.117,4.117,0,0,1,67.6,37.2Z" fill="#3b53b5"/>
      <path id="Path_7904" data-name="Path 7904" d="M51.2,39a1.38,1.38,0,0,1,1.7.8,1.678,1.678,0,0,1-1.4,2.1,1.194,1.194,0,0,1-1.4-1.1A1.52,1.52,0,0,1,51.2,39Z" fill="#fc9dc2"/>
      <path id="Path_7905" data-name="Path 7905" d="M25.1,40a2.7,2.7,0,0,1,.7-.8,2.919,2.919,0,0,1-1.1,1.6,10.081,10.081,0,0,0-1.9,1.7,4,4,0,0,0-.7,1.8,15.1,15.1,0,0,1-1,3,12.206,12.206,0,0,1-2,2.5A6.113,6.113,0,0,0,17.8,52a10.624,10.624,0,0,0-.1,4.7,21.561,21.561,0,0,1,0,4.4A10.32,10.32,0,0,1,16.6,65a5.927,5.927,0,0,1-1.1,1.9A14.763,14.763,0,0,0,16.7,64a11.337,11.337,0,0,0,.6-3.1,21.584,21.584,0,0,0-.1-4.4,11.854,11.854,0,0,1,0-4.2,5.155,5.155,0,0,1,.9-2c.8-1.2,2-2,2.6-3.3A31.033,31.033,0,0,0,22,43a4.442,4.442,0,0,1,1.7-1.9A7.551,7.551,0,0,0,25.1,40Z" fill="#3b53b5"/>
      <path id="Path_7906" data-name="Path 7906" d="M39.1,41.6a4.86,4.86,0,0,1,2.9-.5,6.183,6.183,0,0,1,3.5,1.5c-1.2-.2-2.4-.2-3.7-.3C41,42.3,40.1,41.7,39.1,41.6Zm2.6-.2a3.887,3.887,0,0,0,1.5.2A3.887,3.887,0,0,0,41.7,41.4Z" fill="#ff2453"/>
      <path id="Path_7907" data-name="Path 7907" d="M41.7,41.4a3.887,3.887,0,0,1,1.5.2A3.887,3.887,0,0,1,41.7,41.4Z" fill="#fc9dc2"/>
      <path id="Path_7908" data-name="Path 7908" d="M40.1,43.1a3.232,3.232,0,0,1-1.2-1.4,3.552,3.552,0,0,0,.9.4,10.657,10.657,0,0,0,3.1.6,24.369,24.369,0,0,1,2.7.1,5.273,5.273,0,0,1-1.5,1.1,3.6,3.6,0,0,1-2.7-.2A5.171,5.171,0,0,1,40.1,43.1Zm1-.2a2.777,2.777,0,0,0,1.8.3A11.271,11.271,0,0,0,41.1,42.9Z" fill="#ff2453"/>
      <path id="Path_7909" data-name="Path 7909" d="M38.9,41.7l.2-.1c1,.1,1.8.6,2.8.7,1.2.1,2.4.1,3.7.3h.1a.349.349,0,0,0-.1.2c-.9,0-1.8-.1-2.7-.1a10.657,10.657,0,0,1-3.1-.6A3.552,3.552,0,0,1,38.9,41.7Z" fill="#e21a4e"/>
      <path id="Path_7910" data-name="Path 7910" d="M23.8,43.3a2.589,2.589,0,0,1,.7-1.1,11.51,11.51,0,0,0-.7,6.6c.1,1.1.6,2.2.4,3.3a6.96,6.96,0,0,1-2,4,8.757,8.757,0,0,0-2.1,3.4,18.654,18.654,0,0,0-.7,4,3.255,3.255,0,0,1-.4,1.4c0-.6.1-1.2.1-1.8a16.455,16.455,0,0,1,.4-3.1,8.834,8.834,0,0,1,1.3-3c.6-.9,1.4-1.6,2-2.5a5.078,5.078,0,0,0,1-2.9,20.236,20.236,0,0,0-.4-2.6,13.552,13.552,0,0,1-.2-2A12.421,12.421,0,0,1,23.8,43.3Z" fill="#3b53b5"/>
      <path id="Path_7911" data-name="Path 7911" d="M41.1,42.9l1.8.3A3.611,3.611,0,0,1,41.1,42.9Z" fill="#fc9dc2"/>
      <path id="Path_7912" data-name="Path 7912" d="M62.5,44a1.729,1.729,0,0,1-.1-1,18.256,18.256,0,0,1,1.1,6.1,21.028,21.028,0,0,1-1.4,6.6,7.036,7.036,0,0,0-.4,4.3,3.1,3.1,0,0,0,.6,1.3,11.37,11.37,0,0,1,1.3,3,10.751,10.751,0,0,1-.1,3.1,2.981,2.981,0,0,0,.4,1.9,21.976,21.976,0,0,1,2,2.3,8.155,8.155,0,0,1,1.5,3.6,7.719,7.719,0,0,0,.2,1.5,6.479,6.479,0,0,0,1.7,1.6,5.552,5.552,0,0,1,1.8,2.5,5.732,5.732,0,0,1,.4,1.4,31.358,31.358,0,0,0-1.8-3.1c-.7-.7-1.6-1-2.2-1.8a2.273,2.273,0,0,1-.5-1.8,5.549,5.549,0,0,0-.6-2.2,9.8,9.8,0,0,0-1.8-2.7c-.6-.7-1.4-1.2-1.5-2.1-.2-1.2.2-2.4.1-3.5,0-1.4-.9-2.6-1.6-3.9a5.078,5.078,0,0,1-.5-3.2,11.136,11.136,0,0,1,.8-3,23.555,23.555,0,0,0,1-3.8A18.811,18.811,0,0,0,62.5,44Z" fill="#3b53b5"/>
      <path id="Path_7913" data-name="Path 7913" d="M59.3,43.5h.3c-.4,1-1,1.9-1.5,2.9a10.817,10.817,0,0,0-.5,3.6,13.683,13.683,0,0,1-2.1,5.5,5.752,5.752,0,0,0-.1,4.8c.3.8,1.1,1.5,1.1,2.4-.4-1-1.3-1.7-1.6-2.8a6.282,6.282,0,0,1-.2-3.6,10.084,10.084,0,0,1,.9-1.8,13.134,13.134,0,0,0,1.6-4.3,11.683,11.683,0,0,1,.4-3.7A22.8,22.8,0,0,1,59.3,43.5Z" fill="#3b53b5"/>
      <path id="Path_7914" data-name="Path 7914" d="M61.3,47.3a13.5,13.5,0,0,1,.4-2.8c-.1.8-.1,1.7-.2,2.6-.1,1.4-.1,2.8-.3,4.2a22.261,22.261,0,0,1-1.6,4.3,6.8,6.8,0,0,0-.6,4.2,6.5,6.5,0,0,0,.9,2.3,12.294,12.294,0,0,1,1.4,2.5,7.826,7.826,0,0,1,.5,3.4,6.183,6.183,0,0,0,.3,3c.4.9,1.3,1.4,2,2.1a6.228,6.228,0,0,1,1.4,1.8,7.274,7.274,0,0,1,.6,2.1,2.64,2.64,0,0,0,.7,1.9c.7.7,1.7,1.2,2.4,2,.5.6.5,1.4,1,2a5.531,5.531,0,0,0,1.4,1.2,5.547,5.547,0,0,1,1.7,2.3.661.661,0,0,1-.1.6,3.088,3.088,0,0,0-.7-1.4,7.965,7.965,0,0,0-1.7-1.5,3.182,3.182,0,0,1-1.3-1.5c-.2-.4-.3-.9-.5-1.3-.7-1-2.1-1.4-2.8-2.5-.6-.9-.3-2.1-.7-3.2a5.778,5.778,0,0,0-1.9-2.5,6.49,6.49,0,0,1-1.8-1.9,8.681,8.681,0,0,1-.3-3.6,8.422,8.422,0,0,0-.4-2.7,14.917,14.917,0,0,0-1.4-2.4,6.855,6.855,0,0,1-1.1-2.8,7.653,7.653,0,0,1,.7-4.2c.5-1.2,1.1-2.4,1.5-3.7C61.1,50.3,61.1,48.8,61.3,47.3Z" fill="#3b53b5"/>
      <path id="Path_7915" data-name="Path 7915" d="M39.8,45a5.86,5.86,0,0,1,3.7.1.6.6,0,0,0-.4.1,2.01,2.01,0,0,1,.8.4,12.5,12.5,0,0,0-1.9-.3A16.6,16.6,0,0,0,39.8,45Z" fill="#d3826c"/>
      <path id="Path_7916" data-name="Path 7916" d="M21.7,48.5a12.665,12.665,0,0,1,.6-1.8,6.387,6.387,0,0,1-1,3.3,15.1,15.1,0,0,0-1.8,2.6c-.5,1.4,0,2.8-.4,4.2h-.2a9.633,9.633,0,0,0,0-1.7A7.412,7.412,0,0,1,19,53a7.5,7.5,0,0,1,1-2A5.342,5.342,0,0,0,21.7,48.5Z" fill="#3b53b5"/>
      <path id="Path_7917" data-name="Path 7917" d="M64.1,47.1a18.736,18.736,0,0,1,.9,4.1,8.222,8.222,0,0,1-.1,3.5,11.2,11.2,0,0,0-.7,4.5,4.37,4.37,0,0,0,.9,1.8,6.062,6.062,0,0,1,1.1,3.5,14.159,14.159,0,0,1-.4,2,3.609,3.609,0,0,0,1,2.8,8.267,8.267,0,0,1,1.6,2.9,21.386,21.386,0,0,0,.6,2.7,7.54,7.54,0,0,1,.6,1.3,3.436,3.436,0,0,1-1.3-2.5,8.172,8.172,0,0,0-1.7-4.2,4.357,4.357,0,0,1-1.1-2.9c0-.6.3-1.2.3-1.7a5,5,0,0,0-1-3.7,4.351,4.351,0,0,1-1-1.9,9.91,9.91,0,0,1,.7-4.5,7.017,7.017,0,0,0,.3-2.9,25.82,25.82,0,0,0-.3-2.9A12.86,12.86,0,0,1,64.1,47.1Z" fill="#3b53b5"/>
      <path id="Path_7918" data-name="Path 7918" d="M21.7,51.9c.1-.3-.1-.7.2-.9a2.537,2.537,0,0,1,.2,1.2,8.358,8.358,0,0,1-.8,2,12.227,12.227,0,0,1-1.2,1.9c.2-.5.5-.9.7-1.4A13.087,13.087,0,0,0,21.7,51.9Z" fill="#3b53b5"/>
      <path id="Path_7919" data-name="Path 7919" d="M75,60.3a1.978,1.978,0,0,1,2,0c.1.2-.1.5-.3.6a2.25,2.25,0,0,1-1.4-.1c-.3-.1-.4-.2-.3-.5Z" fill="#ff227d"/>
      <path id="Path_7920" data-name="Path 7920" d="M18.4,60.3a8.173,8.173,0,0,1-.1,2.7,7.2,7.2,0,0,1-1.1,3.2c-.1,0-.1.1-.2.1a11.275,11.275,0,0,0,.8-2.4C18.1,62.7,18.2,61.5,18.4,60.3Z" fill="#3b53b5"/>
      <path id="Path_7921" data-name="Path 7921" d="M80.6,63.9a4.386,4.386,0,0,1,3.2.4,16.352,16.352,0,0,0-2.2-.2C81.3,64,81,64,80.6,63.9Z" fill="#c56442"/>
      <path id="Path_7922" data-name="Path 7922" d="M24.8,66.4a1.421,1.421,0,0,1,.2-.6,15.029,15.029,0,0,1,.2,2,34.967,34.967,0,0,1,.2,5.6c-.1,2.2-.3,4.4-.4,6.6a12.287,12.287,0,0,1-.2,2.7,6.6,6.6,0,0,1-.1-1.4c0-2.4.1-4.8.2-7.2V70C24.9,68.8,24.7,67.6,24.8,66.4Z" fill="#f26ba2"/>
      <path id="Path_7923" data-name="Path 7923" d="M78.3,66.5a8.935,8.935,0,0,1,5.6.3c-1.1,0-2.2-.3-3.3-.3a7.267,7.267,0,0,0-2.5.4,14.52,14.52,0,0,0-2.5,1.2,13.3,13.3,0,0,1-1.9,1.4,8.486,8.486,0,0,1,2.2-2A24.426,24.426,0,0,1,78.3,66.5Z" fill="#d3826c"/>
      <path id="Path_7924" data-name="Path 7924" d="M72.8,69.7c-.1-.2.6-1.1.9-1.1s.3.2.3.4-.6.9-.8.9C73.1,70,72.8,69.8,72.8,69.7Z" fill="#ff227d"/>
      <path id="Path_7925" data-name="Path 7925" d="M77.7,68.8a7.845,7.845,0,0,1,2.2-.2,6.448,6.448,0,0,1,2,.3c.5.2,1,.5,1.4.7a5.274,5.274,0,0,1-1.2-.3,7.342,7.342,0,0,0-5.2.1,11.614,11.614,0,0,0-2.7,1.4.1.1,0,0,0-.1.1,2,2,0,0,1,1-.8A10.535,10.535,0,0,1,77.7,68.8Z" fill="#d3826c"/>
      <path id="Path_7926" data-name="Path 7926" d="M73.9,69.6c.3-.1.5.3.4.5-.2.5-.9,1.2-1.1,1.1s0-.7.2-1A2.651,2.651,0,0,1,73.9,69.6Z" fill="#ff227d"/>
      <path id="Path_7927" data-name="Path 7927" d="M73.3,72c-.1-.1.5-1,.9-1.2a.1.1,0,0,0,.1-.1c.2.1.4.2.4.4-.2.4-.8,1.1-1,1.1-.3,0-.3-.1-.4-.2Z" fill="#ff227d"/>
      <path id="Path_7929" data-name="Path 7929" d="M26.8,76.7a2.2,2.2,0,0,1-.1-.8,24.425,24.425,0,0,0,1,2.4A25.281,25.281,0,0,0,29.5,82a16.091,16.091,0,0,1,1.7,2.8c-.1-.1-.3-.2-.4-.3A30.673,30.673,0,0,1,28,80.3C27.6,79,27.1,77.9,26.8,76.7Z" fill="#f26ba2"/>
      <path id="Path_7931" data-name="Path 7931" d="M57.8,83a16.825,16.825,0,0,0,2-3.4,2.146,2.146,0,0,1-.4,1.5,19.183,19.183,0,0,1-2.3,3.5c-1.1,1.4-2.3,2.7-3.5,4a2.379,2.379,0,0,1-1.3.9,28.905,28.905,0,0,0,2.9-3.2A26.906,26.906,0,0,0,57.8,83Z" fill="#f26ba2"/>
    </g>
  </g>
</svg>
