<svg id="avatar-11" xmlns="http://www.w3.org/2000/svg" xmlns:xlink="http://www.w3.org/1999/xlink" width="86" height="86" viewBox="0 0 86 86">
  <defs>
    <clipPath id="clip-path">
      <circle id="Ellipse_391" data-name="Ellipse 391" cx="43" cy="43" r="43" transform="translate(0.1 0.1)"/>
    </clipPath>
    <clipPath id="clip-path-2">
      <circle id="Ellipse_392" data-name="Ellipse 392" cx="43" cy="43" r="43"/>
    </clipPath>
  </defs>
  <g id="Group_6455" data-name="Group 6455">
    <g id="Group_6454" data-name="Group 6454" transform="translate(-0.1 -0.1)" clip-path="url(#clip-path)">
      <rect id="Rectangle_1433" data-name="Rectangle 1433" width="86.2" height="86.2" fill="#b3eaff"/>
    </g>
  </g>
  <g id="Group_6457" data-name="Group 6457">
    <g id="Group_6456" data-name="Group 6456" clip-path="url(#clip-path-2)">
      <path id="Path_7193" data-name="Path 7193" d="M56.7,48.1a1.38,1.38,0,0,1,.3-.4c1,.1,1.6,1,2.2,1.7A38.1,38.1,0,0,0,62.5,53a14.339,14.339,0,0,1,2,2.3,1.421,1.421,0,0,1-.6-.2,18.342,18.342,0,0,1-3-1.8,6.72,6.72,0,0,0-3-1.3c-.2,1.3-.5,2.5-.8,3.7-.3,1.7-.6,3.4-1,5.1a14.619,14.619,0,0,0-.5,2c0-.1-.1-.2-.1-.4a12.86,12.86,0,0,1,.4-1.9,38.594,38.594,0,0,0,.6-4.9c.1-1.2.3-2.5.3-3.7C56.9,50.6,56.7,49.4,56.7,48.1Z" fill="#143f4f"/>
      <path id="Path_7194" data-name="Path 7194" d="M28.7,48.7a3.328,3.328,0,0,1,1-.6.634.634,0,0,1,.5.6,3.224,3.224,0,0,0-.8,1.4c-1.3,3.4-2.5,7-2.5,10.7-.1,1.1.1,2.3.1,3.4.1,1.5.4,3,.6,4.6-.1-.1-.3-.2-.3-.4-.2-1.1-.5-2.1-.6-3.2a9.737,9.737,0,0,1-.2-2.4c0-1.3-.1-2.7,0-4a23.2,23.2,0,0,1,.7-3.8,20,20,0,0,1,1.1-3.7,4.121,4.121,0,0,0-.1-2.2C28.4,48.9,28.6,48.9,28.7,48.7Z" fill="#143f4f"/>
      <path id="Path_7195" data-name="Path 7195" d="M53.3,50.7c1.1-.9,2.3-1.7,3.4-2.6,0,1.3.2,2.5.1,3.8-.1,1.2-.2,2.5-.3,3.7a40.957,40.957,0,0,1-.6,4.9.749.749,0,0,1-.1-.5c.1-1.3,0-2.6,0-3.9a20.9,20.9,0,0,0-.1-2.5c-1.1.5-2.3,1-3.5,1.5s-2.4,1.1-3.6,1.7c-.5.3-1.2.4-1.7.7a12.75,12.75,0,0,1-2.7,1.1,12.232,12.232,0,0,1-1.7.3c-.3-.3-.6-.5-.9-.8-.4.2-.7.4-1.1.6-.6-.1-1.1-.2-1.7-.3a16.587,16.587,0,0,1-3.1-1.2,28.515,28.515,0,0,1-4.6-3.1,6.815,6.815,0,0,1-1.2-1.2,15.637,15.637,0,0,0-1.7,2.5c-.1.2-.2.4-.1.5.6,1.1,1.3,2.1,1.9,3.2a31.756,31.756,0,0,0,2.7,3.7c.2.2.4.6.7.6a9.993,9.993,0,0,0,1.4-.8c.9-.5,1.7-1.2,2.6-1.7a1.421,1.421,0,0,0,.2.6,20.16,20.16,0,0,0,1.8,3.2c-1,1.8-1.6,3.8-2.5,5.7a5.257,5.257,0,0,1,.4-1.7c.4-1.2.8-2.5,1.3-3.7a9.908,9.908,0,0,1-1.1-1.7,12.1,12.1,0,0,1-4.2.5,3.45,3.45,0,0,1-.9-.8l-2.1-2.7c-.5-.7-1-1.5-1.5-2.3a27.035,27.035,0,0,0-.8,4.1c0,.7-.2,1.4-.2,2.1,0,1.4-.1,2.9,0,4.3,0,.7.2,1.4.2,2.1a13.635,13.635,0,0,1-.4-1.7c-.2-1.5-.5-3-.6-4.6a19.329,19.329,0,0,1-.1-3.4,28.383,28.383,0,0,1,2.5-10.7,3.924,3.924,0,0,1,.8-1.4,11.97,11.97,0,0,0,2.4,2.6,8.855,8.855,0,0,0,2.8,2.3c.5.3,1.1.5,1.6.8a10.771,10.771,0,0,0,5.6,1A9.775,9.775,0,0,0,47,54.2c.8-.4,1.6-.8,2.3-1.2A38.094,38.094,0,0,0,53.3,50.7Z" fill="#d9cea8"/>
      <path id="Path_7196" data-name="Path 7196" d="M23.5,52.5A40.952,40.952,0,0,1,28.2,49a4.121,4.121,0,0,1,.1,2.2,25.94,25.94,0,0,0-1.1,3.7c-.3,1.3-.5,2.6-.7,3.8-.1,1.3,0,2.7,0,4a9.737,9.737,0,0,0,.2,2.4c.1,1.1.4,2.1.6,3.2,0,.2.2.3.3.4.1.6.3,1.2.4,1.7a31,31,0,0,0,2.1,5.8,21.481,21.481,0,0,0,1.4,2.6,39.558,39.558,0,0,0,2.2,3.4c.9,1.2,1.7,2.5,2.6,3.7.8,1.1,1.7,2.2,2.5,3.2.7-.7,1.5-1.4,2.2-2,.8-.6,1.5-1.4,2.3-2.1a6.1,6.1,0,0,0,1.3-1.5A10.7,10.7,0,0,0,46,81.9c.8-1,1.6-2,2.3-3,1-1.5,1.9-3.1,2.8-4.6A28.1,28.1,0,0,0,53,70.4a13.355,13.355,0,0,0,.7-1.8c.3-.9.6-1.9.8-2.8.2-1.2.6-2.3.8-3.5,0,.1.1.2.1.4.2-.7.3-1.3.5-2,.4-1.7.6-3.4,1-5.1.3-1.2.6-2.5.8-3.7a6.72,6.72,0,0,1,3,1.3,18.342,18.342,0,0,0,3,1.8,1.421,1.421,0,0,0,.6.2,5.284,5.284,0,0,1,1,3.2c-.4,1.7-.2,3.5-.5,5.2a22.646,22.646,0,0,1-1.6,5.8A28.221,28.221,0,0,1,60.9,74a26.023,26.023,0,0,1-2.5,3.1c-.6.5-1,1.2-1.6,1.6A26.524,26.524,0,0,1,52.6,82c-2.6,1.8-5.4,3.3-8.1,5.1A22.687,22.687,0,0,0,42,88.9c-.6.5-1.1,1-1.7,1.5-1.2,1.4-2.4,2.8-3.5,4.3-.5.7-1,1.5-1.5,2.2a24.727,24.727,0,0,1,1.1-3.6,17.494,17.494,0,0,1,2.2-4c-.1,0-.2-.1-.3-.1a10.144,10.144,0,0,0-.9,1.3c-.7-.6-1.3-1.2-2-1.8-1-.9-2.1-1.8-3.1-2.8-1.5-1.4-3.1-2.6-4.5-4.1-3.6-3.5-6.9-7.4-8.7-12.1a28.115,28.115,0,0,1-1-3.1,36.4,36.4,0,0,1-1.5-7.3,7.569,7.569,0,0,0-.1-1.5,5.319,5.319,0,0,1,2.1-2.6,24.265,24.265,0,0,1,2.8-2A3.1,3.1,0,0,0,23.5,52.5Z" fill="#1b4e61"/>
      <path id="Path_7197" data-name="Path 7197" d="M28.2,55.2a18.438,18.438,0,0,1,1.7-2.5,6.815,6.815,0,0,0,1.2,1.2A20.633,20.633,0,0,0,35.7,57a11.72,11.72,0,0,0,3.1,1.2,10.1,10.1,0,0,0,1.7.3c-1.1.7-2.1,1.4-3.1,2.1-.9.6-1.7,1.2-2.6,1.7a9.993,9.993,0,0,1-1.4.8c-.3-.1-.5-.4-.7-.6A31.756,31.756,0,0,1,30,58.8c-.6-1.1-1.3-2.1-1.9-3.2C28,55.6,28.1,55.4,28.2,55.2Z" fill="#f9f8dc"/>
      <path id="Path_7198" data-name="Path 7198" d="M52.3,55.1c1.1-.5,2.3-.9,3.5-1.5a20.9,20.9,0,0,1,.1,2.5c0,1.3.1,2.6,0,3.9a.9.9,0,0,0,.1.5c-.6.3-1.2.7-1.8,1-1.5.7-2.9,1.5-4.3,2.2-.6.3-1.2.5-1.8.8-.3-.3-.6-.7-.9-1-.8-.7-1.5-1.6-2.3-2.4a23.366,23.366,0,0,0-2.3-2.2,4.671,4.671,0,0,0,1.7-.3A12.75,12.75,0,0,0,47,57.5c.5-.3,1.1-.4,1.7-.7A30.061,30.061,0,0,1,52.3,55.1Z" fill="#f9f8dc"/>
      <path id="Path_7199" data-name="Path 7199" d="M28.8,57.9a18.186,18.186,0,0,0,1.5,2.3c.7.9,1.3,1.8,2.1,2.7a3.45,3.45,0,0,0,.9.8,12.1,12.1,0,0,0,4.2-.5,9.908,9.908,0,0,0,1.1,1.7c-.5,1.2-.9,2.5-1.3,3.7a5.257,5.257,0,0,0-.4,1.7c-.3.7-.5,1.4-.8,2.1-.6,1.3-.8,2.6-1.3,3.9a36.315,36.315,0,0,0-1,4.5,3.812,3.812,0,0,0-.1,1.5c-.7-1.1-1.5-2.2-2.2-3.4a13.047,13.047,0,0,1-1.4-2.6A28.636,28.636,0,0,1,28,70.5c0-.7-.2-1.4-.2-2.1-.1-1.4,0-2.9,0-4.3A14.919,14.919,0,0,1,28,62C28.2,60.6,28.5,59.3,28.8,57.9Z" fill="#f9f8dc"/>
      <path id="Path_7200" data-name="Path 7200" d="M40.5,58.7c.4-.2.7-.4,1.1-.6.3.3.6.5.9.8.8.7,1.6,1.5,2.3,2.2-.7,1.2-1.7,2.3-2.3,3.5.2.7.3,1.5.5,2.2.1,1.5.3,3,.5,4.5q.3,3.75.9,7.5c.1.8.2,1.6.3,2.3.1.8.1,1.6.2,2.4-.4.6-.9,1-1.3,1.5a22.913,22.913,0,0,1-2.3,2.1c-.8.7-1.5,1.3-2.2,2a34.888,34.888,0,0,1-2.5-3.2c-.9-1.2-1.8-2.4-2.6-3.7a3.812,3.812,0,0,1,.1-1.5,36.315,36.315,0,0,1,1-4.5c.5-1.3.7-2.6,1.3-3.9.3-.7.5-1.4.8-2.1a57.864,57.864,0,0,1,2.5-5.7,20.16,20.16,0,0,1-1.8-3.2c-.1-.2-.1-.4-.2-.6A33.925,33.925,0,0,1,40.5,58.7Z" fill="#039be5"/>
      <path id="Path_7201" data-name="Path 7201" d="M16.8,58.4a.349.349,0,0,1,.1-.2,3.812,3.812,0,0,1,.1,1.5A36.4,36.4,0,0,0,18.5,67c.3,1,.6,2.1,1,3.1a35.97,35.97,0,0,0,8.7,12.1c1.4,1.5,6.5,6,7.6,6.9.6.6,8.2-1,9.1-1.6,2.7-1.7,5.5-3.2,8.1-5.1a33.916,33.916,0,0,0,4.2-3.3c.6-.5,1-1.1,1.6-1.6.9-1,1.7-2.1,2.5-3.1a24.709,24.709,0,0,0,2.3-4.6A23.82,23.82,0,0,0,65.2,64c.3-1.7.1-3.5.5-5.2a.52.52,0,0,0,.4.2l-.3,1.2c0,1.2.1,2.5,0,3.7-.2,1-.3,2-.6,3-.5,1.6-.9,3.1-1.5,4.7a29.96,29.96,0,0,1-5.4,9.5,23.768,23.768,0,0,1-3.6,3.5c-1,.8-23.1,3.9-24.7,2.7a20,20,0,0,1-2.2-1.9,27.936,27.936,0,0,1-4.5-4.6,25.5,25.5,0,0,1-3.1-4.7A34.822,34.822,0,0,1,18,71.8a25.159,25.159,0,0,1-1.3-4.7,26.073,26.073,0,0,1-.5-4.8V60.7A3.624,3.624,0,0,0,16.8,58.4Z" fill="#143f4f"/>
      <path id="Path_7203" data-name="Path 7203" d="M15.1,59.5a9.908,9.908,0,0,0,1.7-1.1c0,.9-.1,1.7-.1,2.5v1.6a26.073,26.073,0,0,0,.5,4.8A41.155,41.155,0,0,0,18.5,72a34.822,34.822,0,0,0,2.2,4.3c.9,1.7,4.9,5.7,6.573,7.32s-4.651-2.377-4.651-2.377l-3.488-2.18L15.209,76.3S4.555,67.644,5.855,66.444A25.707,25.707,0,0,1,8.5,64.5c.9-.7,1.8-1.4,2.7-2A11.639,11.639,0,0,1,15.1,59.5Z" fill="#1b4e61"/>
      <path id="Path_7204" data-name="Path 7204" d="M66,58.8a5.372,5.372,0,0,0,1.6,1,42.485,42.485,0,0,1,7,4.3A60.345,60.345,0,0,1,87,78.9a35.38,35.38,0,0,1,2.3,5.3c2.4,5.6-46.6,7.2-45.8,6.6A41.216,41.216,0,0,1,48,88.1a42.8,42.8,0,0,0,6.6-3.7,28.31,28.31,0,0,0,9-13c.6-1.5,1-3.1,1.5-4.7.3-1,.4-2,.6-3,.1-1.2,0-2.5,0-3.7C65.8,59.6,66.1,58.8,66,58.8Z" fill="#1b4e61"/>
      <path id="Path_7205" data-name="Path 7205" d="M54.1,61.5c.6-.3,1.2-.7,1.8-1a12.86,12.86,0,0,1-.4,1.9c-.2,1.2-.5,2.3-.8,3.5a22.881,22.881,0,0,1-.8,2.8,13.356,13.356,0,0,1-.7,1.8,28.1,28.1,0,0,1-1.9,3.9c-.9,1.6-1.8,3.1-2.8,4.6,0-.2.1-.3.1-.5,1-2.1,1.9-4.2,2.8-6.3.6-2,1.2-3.9,1.6-5.9a28.958,28.958,0,0,0,.6-4.1c-.7.3-1.4.7-2.1,1-.9.4-1.8.9-2.7,1.3-.4.2-.9.5-1.3.3a11.688,11.688,0,0,1-3-1.4c-.2.1-.3.3-.4.4l-1.2,1.5c-.1.5.1,1,0,1.4a17.417,17.417,0,0,0-.5-2.2c.6-1.2,1.6-2.3,2.3-3.5.8.8,1.5,1.6,2.3,2.4a9.016,9.016,0,0,1,.9,1,14.167,14.167,0,0,1,1.8-.8C51.3,63,52.6,62.1,54.1,61.5Z" fill="#d9cea8"/>
      <path id="Path_7206" data-name="Path 7206" d="M51.6,63.2c.7-.3,1.4-.7,2.1-1a26.985,26.985,0,0,1-.6,4.1,30.3,30.3,0,0,1-1.6,5.9c-.9,2.1-1.8,4.2-2.8,6.3a.749.749,0,0,0-.1.5c-.7,1-1.5,2-2.3,3-.4.6-1,1-1.4,1.6a19.418,19.418,0,0,0-.2-2.4c-.1-.8-.2-1.6-.3-2.3a47.965,47.965,0,0,1-.9-7.5c-.1-1.5-.4-3-.5-4.5.1-.5-.1-1,0-1.4.4-.5.8-.9,1.2-1.5.1-.1.2-.4.4-.4a11.688,11.688,0,0,0,3,1.4,1.943,1.943,0,0,0,1.3-.3A11.74,11.74,0,0,1,51.6,63.2Z" fill="#f9f8dc"/>
    </g>
  </g>
  <g id="Group_6459" data-name="Group 6459">
    <g id="Group_6458" data-name="Group 6458" clip-path="url(#clip-path-2)">
      <path id="Path_7227" data-name="Path 7227" d="M52,11.5a8.259,8.259,0,0,1,4.4.5c.4.2,1,.4,1.1.9.2,1.3-.5,2.7.1,4a9.118,9.118,0,0,0,1.7,2.3,19.311,19.311,0,0,1,2.2,3.6c.5,1,.8,2,1.2,3a14.484,14.484,0,0,1,0,8.5,7.012,7.012,0,0,1-1.2,2.8,2.777,2.777,0,0,0-1.8.3c-.2.6-.2,1.3-.4,1.9-.1.3-.2.7-.3,1a4.875,4.875,0,0,1-.7.3c-.1,0-.2-.1-.3-.1V40c.1-.3.1-.5.2-.8v-.1a7.412,7.412,0,0,0,.1-2.1,3.582,3.582,0,0,0-.4-1.1,23.578,23.578,0,0,0-1.2-2.8,8.3,8.3,0,0,1-.6-2.1,10.793,10.793,0,0,1-.3-1.9,11.4,11.4,0,0,1,.2-2.6c-.1-.1-.1-.2-.2-.3-.7-.5-1.6-.3-2.4-.4-1.1-.1-2.1-.2-3.2-.4a23.04,23.04,0,0,1-4.3-1.2,26.867,26.867,0,0,1-3.2-1.9A8.519,8.519,0,0,1,41,20.7c-.2,0-.5-.1-.6.1a25.426,25.426,0,0,0-2.8,2.9c-.5.7-1,1.3-1.6,2a7.272,7.272,0,0,1-.8.9,16.273,16.273,0,0,1,1.3-3.7A11.727,11.727,0,0,1,41.7,18a1.531,1.531,0,0,0,.7-.5,17.986,17.986,0,0,1,5.4-4.9A20.174,20.174,0,0,1,52,11.5Z" fill="#92a5ff"/>
      <path id="Path_7228" data-name="Path 7228" d="M40.6,20.8a.471.471,0,0,1,.6-.1c-.1,0-.3.1-.4.1a5.013,5.013,0,0,0,.8,1.4,11.492,11.492,0,0,0,4.2,3.1,14.915,14.915,0,0,0,8.1,1.2,5.847,5.847,0,0,0,1.9-.4c.1.1.1.2.2.3a10.978,10.978,0,0,0-.2,2.6,3.4,3.4,0,0,1-.1-1,16.606,16.606,0,0,0,.8,5.8c.4,1.1,1.4,2.1,1.5,3.4a34.128,34.128,0,0,0-4.6,1c-.7.2-1,.9-1.6,1.3a6.106,6.106,0,0,1-1.3.3,5.65,5.65,0,0,1-2.6-.2A5.922,5.922,0,0,1,45,38.3a2.28,2.28,0,0,1-.7-1.9,1.805,1.805,0,0,0,.1,2.2,6.113,6.113,0,0,0,2.2,1.3,9.286,9.286,0,0,0,3.7.6,3.6,3.6,0,0,0,2.2-.9c.4-.3.6-.7,1.1-.8.9-.3,1.9-.5,2.8-.8a10.462,10.462,0,0,1,1.7-.4,10.284,10.284,0,0,0,.1,1.7c-.1.3-.1.5-.2.8a25.027,25.027,0,0,1-.9,2.5,12.735,12.735,0,0,1-1.3,1.9,14.716,14.716,0,0,1-3.4,3.2,13.754,13.754,0,0,1-4.6,2.5.563.563,0,0,1-.7-.6,21.656,21.656,0,0,0-.4-2.5,9.842,9.842,0,0,0-2.6-4.8,3.592,3.592,0,0,0-1-.7,13.018,13.018,0,0,0-1.7-.8c-.4-.1-.9-.2-1.4-.3a5.273,5.273,0,0,0,1.5-1.1c.2-.2.5-.5.4-.8-.3.1-.6.3-.9.2a7.519,7.519,0,0,0-1.5,0,2.714,2.714,0,0,0-.3,1.6,10.8,10.8,0,0,0-3.1.2,23.4,23.4,0,0,0-2.4.9c-.7.3-1.2.7-1.8,1-.1-.2-.3-.4-.3-.6a19.119,19.119,0,0,1-.3-5.3c.1-1.1.4-2.1.5-3.1v-.1a2.349,2.349,0,0,0,.7,1.4,8.69,8.69,0,0,0,2.6,1.6,4.621,4.621,0,0,0,3.8-.3,1.47,1.47,0,0,0,.5-.6,1.2,1.2,0,0,0-.8.2,4.552,4.552,0,0,1-2,.5A5.437,5.437,0,0,1,33,34.6a6.815,6.815,0,0,0-1.2-1.2c.5-1,1-2,1.5-2.9.2.2.4.1.6.1a5.657,5.657,0,0,1,3.1.7,6.356,6.356,0,0,1,2.2,1.4c.3.3.5.8,1,.8a1.884,1.884,0,0,0-.2-.8,6.479,6.479,0,0,0-1.7-1.6,10.1,10.1,0,0,0,1.7.3.487.487,0,0,0,.2-.8,3.252,3.252,0,0,0-1.6-1.2,7.111,7.111,0,0,0-3.2-.7,2.45,2.45,0,0,0-1.2.4c.3-.5.5-1,.8-1.4a3.552,3.552,0,0,0,.4-.9,3.45,3.45,0,0,0,.8-.9c.5-.6,1.1-1.3,1.6-2A21.164,21.164,0,0,1,40.6,20.8Z" fill="#e97951"/>
      <path id="Path_7229" data-name="Path 7229" d="M34.2,28.9a2.843,2.843,0,0,1,1.2-.4,7.111,7.111,0,0,1,3.2.7,3.252,3.252,0,0,1,1.6,1.2c.1.3.2.8-.2.8a10.1,10.1,0,0,1-1.7-.3,15.358,15.358,0,0,0-3-1.1c-.3-.1-.7-.1-1.1-.2a.6.6,0,0,1-.3-.6C34.2,29.1,34.2,29,34.2,28.9Z" fill="#92a5ff"/>
      <path id="Path_7230" data-name="Path 7230" d="M47,32.7a3.617,3.617,0,0,1,2.3,0,4.552,4.552,0,0,1,1.9.8A4.644,4.644,0,0,1,53,35.1H51.8a13.234,13.234,0,0,0-3.3-.8c-.5-.1-1.1-.1-1.6-.2-.2-.1-.6-.2-.6-.5C46.3,33.1,46.7,32.9,47,32.7Z" fill="#92a5ff"/>
      <path id="Path_7231" data-name="Path 7231" d="M30.7,36.9a16.127,16.127,0,0,1,1.2-3.5c-.1,1-.4,2.1-.5,3.1a15.646,15.646,0,0,0,.3,5.3c0,.2.2.4.3.6a8.107,8.107,0,0,1,1.8-1,17.03,17.03,0,0,1,2.4-.9,8.133,8.133,0,0,1,3.1-.2c.2,0,.5.1.7.1.5.1.9.2,1.4.3a8.865,8.865,0,0,1,1.7.8,3.592,3.592,0,0,1,1,.7A10.726,10.726,0,0,1,46.7,47a7.267,7.267,0,0,1,.4,2.5c0,.3.4.7.7.6a15.792,15.792,0,0,0,4.6-2.5,14.841,14.841,0,0,0,3.4-3.2,21.413,21.413,0,0,0,1.3-1.9A18.41,18.41,0,0,0,58,40v.5c.1,0,.2.1.3.1.2-.1.5-.1.7-.3.1-.3.2-.7.3-1a15.469,15.469,0,0,1-.6,3.1c-.3,1.3-.7,2.6-1.1,3.8a5.638,5.638,0,0,1-.4,1.2c-.5.6-.8,1.3-1.3,1.9-1,1.2-2.1,2.4-3.2,3.5A19.01,19.01,0,0,1,48,56.1a12.735,12.735,0,0,1-5.4,1.4,14.769,14.769,0,0,1-2.1-.1,13.79,13.79,0,0,1-2.9-.8A15.079,15.079,0,0,1,35,55.4a9.78,9.78,0,0,1-3.6-3.1,9.993,9.993,0,0,0-.8-1.4,9.368,9.368,0,0,1-1.1-3.2c-.1-.8-.2-1.7-.3-2.5a25.089,25.089,0,0,1,1-6.1A8.734,8.734,0,0,1,30.7,36.9Z" fill="#92a5ff"/>
      <path id="Path_7232" data-name="Path 7232" d="M40.9,20.8c.1,0,.3-.1.4-.1A8.689,8.689,0,0,0,43,22.3a24.565,24.565,0,0,0,3.2,1.9,15.211,15.211,0,0,0,4.3,1.2c1.1.1,2.1.3,3.2.4.8.1,1.7-.1,2.4.4a12.86,12.86,0,0,1-1.9.4,14.167,14.167,0,0,1-8.1-1.2,11.8,11.8,0,0,1-4.2-3.1C41.4,21.7,41,21.4,40.9,20.8ZM55.8,28a16.606,16.606,0,0,0,.8,5.8c.4,1.1,1.4,2.1,1.5,3.4a34.128,34.128,0,0,0-4.6,1c-.7.2-1,.9-1.6,1.3a6.106,6.106,0,0,1-1.3.3,5.65,5.65,0,0,1-2.6-.2,5.922,5.922,0,0,1-2.9-1.3,2.28,2.28,0,0,1-.7-1.9,1.805,1.805,0,0,0,.1,2.2,6.113,6.113,0,0,0,2.2,1.3,9.286,9.286,0,0,0,3.7.6,3.6,3.6,0,0,0,2.2-.9c.4-.3.6-.7,1.1-.8.9-.3,1.9-.5,2.8-.8a10.462,10.462,0,0,1,1.7-.4,10.284,10.284,0,0,0,.1,1.7v-.1a14.769,14.769,0,0,1,.1-2.1A3.582,3.582,0,0,0,58,36a23.578,23.578,0,0,0-1.2-2.8,8.3,8.3,0,0,1-.6-2.1,10.793,10.793,0,0,1-.3-1.9C55.9,28.7,55.8,28.4,55.8,28ZM33.5,30.3c.2.2.4.1.6.1a5.657,5.657,0,0,1,3.1.7,6.356,6.356,0,0,1,2.2,1.4c.3.3.5.8,1,.8a1.884,1.884,0,0,0-.2-.8,6.479,6.479,0,0,0-1.7-1.6,15.358,15.358,0,0,0-3-1.1c-.3-.1-.7-.1-1.1-.2a.6.6,0,0,1-.3-.6C33.9,29.5,33.7,29.9,33.5,30.3Zm-1.6,3.1a2.349,2.349,0,0,0,.7,1.4,8.69,8.69,0,0,0,2.6,1.6,4.621,4.621,0,0,0,3.8-.3,1.47,1.47,0,0,0,.5-.6,1.2,1.2,0,0,0-.8.2,4.552,4.552,0,0,1-2,.5,5.437,5.437,0,0,1-3.6-1.6,6.814,6.814,0,0,0-1.2-1.2Zm8.7.5c-.1,0-.2.2-.3.3a7.1,7.1,0,0,1,2.9.5c.5.2.8.6,1.4.6,0-.1.1-.2.1-.3a1.205,1.205,0,0,0-.5-.5,5.224,5.224,0,0,0-2.1-.7A7.569,7.569,0,0,0,40.6,33.9Zm4.5.8c-.2.1-.2.4-.3.6a2.622,2.622,0,0,1,.9-.5,5.7,5.7,0,0,1,1.3-.1,13.449,13.449,0,0,1,3.5.5,4.451,4.451,0,0,1,2.1,1.2,3.394,3.394,0,0,0,.6.6,1.7,1.7,0,0,0-.1-.7,3.482,3.482,0,0,0-1.3-1.1,13.234,13.234,0,0,0-3.3-.8c-.5-.1-1.1-.1-1.6-.2A2.273,2.273,0,0,0,45.1,34.7Z" fill="#c76847"/>
      <path id="Path_7233" data-name="Path 7233" d="M58.4,37a4.973,4.973,0,0,1-.1,2.1A14.768,14.768,0,0,1,58.4,37Z" fill="#e97951"/>
      <path id="Path_7234" data-name="Path 7234" d="M59.7,37.4a2.777,2.777,0,0,1,1.8-.3A5.034,5.034,0,0,1,64.8,40a4.123,4.123,0,0,1-.1,2.9,6.113,6.113,0,0,1-1.3,2.2,5.381,5.381,0,0,1-2.8,2.1,9.363,9.363,0,0,1-1.6.4,8.807,8.807,0,0,1-1.7-.2,5.638,5.638,0,0,0,.4-1.2c.4-1.3.8-2.6,1.1-3.8a16.96,16.96,0,0,0,.6-3.1A12.5,12.5,0,0,1,59.7,37.4Z" fill="#dc5031"/>
      <path id="Path_7235" data-name="Path 7235" d="M41,38.8c.3,0,.6-.2.9-.2.2.3-.1.6-.4.8A5.273,5.273,0,0,1,40,40.5c-.2,0-.5-.1-.7-.1a3.049,3.049,0,0,1,.3-1.6A6.534,6.534,0,0,1,41,38.8Z" fill="#c76847"/>
      <path id="Path_7236" data-name="Path 7236" d="M34.6,43.3a10.3,10.3,0,0,1,4.6-1A4.945,4.945,0,0,1,43,44.1a9.106,9.106,0,0,1,1.7,5c0,.2-.1.5-.4.5a8.767,8.767,0,0,1-2.8,0,7.972,7.972,0,0,1-1.5-.3,1.6,1.6,0,0,1-.9-.7c-.3-.4-.2-1-.4-1.4l-1.2.9c-.4.2-.8-.2-1.1-.3a14.347,14.347,0,0,1-2.7-2.3c-.2-.3-.5-.5-.7-.8A2.239,2.239,0,0,1,34.6,43.3Z" fill="#e97951"/>
      <path id="Path_7237" data-name="Path 7237" d="M37.8,45a11.7,11.7,0,0,0,2,.5c.1,0,.4,0,.4.2-.1.3-.5.4-.8.4A1.714,1.714,0,0,1,37.8,45Z" fill="#c76847"/>
      <path id="Path_7238" data-name="Path 7238" d="M68.7,100.3a1.672,1.672,0,0,1,1.2.1h0a.852.852,0,0,1-1.1.5c0-.2.1-.4.1-.6Z" fill="#f0a98f"/>
      <path id="Path_7239" data-name="Path 7239" d="M72.1,101.6h0c0-.3-.4-.4-.6-.5h0a.46.46,0,0,0-.3.7.534.534,0,0,0,.9-.2Z" fill="#f0a98f"/>
      <path id="Path_7240" data-name="Path 7240" d="M72.4,103.4c-.1-.4-.4-.5-.8-.6h-.1a.49.49,0,0,0,.1.9h.1c.3.1.5-.1.7-.3Z" fill="#f0a98f"/>
      <path id="Path_7241" data-name="Path 7241" d="M72.3,105.4a.319.319,0,0,0-.3-.3h-.1c-.2.1-.4.4-.2.6l.1.1a.9.9,0,0,0,.5-.1Z" fill="#f0a98f"/>
    </g>
  </g>
  <g id="Group_6461" data-name="Group 6461">
    <g id="Group_6460" data-name="Group 6460" clip-path="url(#clip-path-2)">
      <path id="Path_7242" data-name="Path 7242" d="M35.8,31.7a.641.641,0,0,1,.8.6c0,.4-.5.9-.9.7A.7.7,0,0,1,35.8,31.7Z" fill="#151c2c"/>
      <path id="Path_7243" data-name="Path 7243" d="M34.5,32.9c.4.2.7.4,1.1.6.5.2,1,.3,1.5.5a3.031,3.031,0,0,1-2.4-.6C34.6,33.2,34.6,33,34.5,32.9Z" fill="#c76847"/>
      <path id="Path_7244" data-name="Path 7244" d="M34.2,33.6c.6.2,1,.5,1.6.7.4.1.8.1,1.2.2A2.333,2.333,0,0,1,34.2,33.6Z" fill="#c66745"/>
      <path id="Path_7245" data-name="Path 7245" d="M42,33.9a8.8,8.8,0,0,1,1.5.5,12.254,12.254,0,0,1-1.4,4.2c-.2.4-.7.3-1,.3a7.106,7.106,0,0,1-2.1-.3.876.876,0,0,1-.5-1,7.183,7.183,0,0,1,1.4-2A17.327,17.327,0,0,1,42,33.9Z" fill="#dd4f31"/>
      <path id="Path_7246" data-name="Path 7246" d="M60.7,36.7c-.6,0-1.3-.1-1.9-.1h-.4c-1.6.1-3.1.4-4.6.6a3.118,3.118,0,0,0-.9-2.1,4.44,4.44,0,0,0-1.1-.8,8.034,8.034,0,0,0-4.3-1,3.631,3.631,0,0,0-2.6,1.1,6.594,6.594,0,0,0-4.1-1.2,3.521,3.521,0,0,0-1-1.9,12.03,12.03,0,0,0-2.7-1.6,5.183,5.183,0,0,0-3-.5,2.341,2.341,0,0,0-1.7,1.5,4.075,4.075,0,0,0-.5,1.8,3.029,3.029,0,0,0,1.6,2.2A5.365,5.365,0,0,0,36.7,36a5.482,5.482,0,0,0,2.5-.4,3.353,3.353,0,0,0,1.5-1.8,5.652,5.652,0,0,1,1.3,0,8.8,8.8,0,0,1,1.5.5,8.793,8.793,0,0,0,1,.6,3.254,3.254,0,0,0,.1,3.3,6.9,6.9,0,0,0,2.8,1.5,6.357,6.357,0,0,0,4.5.1,3.124,3.124,0,0,0,1.6-2.1,38.594,38.594,0,0,1,4.9-.6,9.4,9.4,0,0,1,2.9,0c.2.1.3,0,.4-.1C61.5,36.7,61.1,36.7,60.7,36.7ZM38.6,35.4a4.825,4.825,0,0,1-2.4.2,6.778,6.778,0,0,1-2.7-1.3,2.509,2.509,0,0,1-1.2-2.2c.2-.8.5-1.8,1.4-2.1a3.079,3.079,0,0,1,1.9,0,10.11,10.11,0,0,1,3.3,1.6,2.787,2.787,0,0,1,1.2,1.8A2.131,2.131,0,0,1,38.6,35.4Zm14,3.3a2.834,2.834,0,0,1-1.8.9,7.5,7.5,0,0,1-3-.3A4.588,4.588,0,0,1,45.1,38a2.586,2.586,0,0,1-.1-2.8,2.507,2.507,0,0,1,2-1.3,7.093,7.093,0,0,1,4.3.8A4.363,4.363,0,0,1,53,36.3,2.278,2.278,0,0,1,52.6,38.7Z" fill="#151c2c"/>
      <path id="Path_7247" data-name="Path 7247" d="M46.9,34.5a3.75,3.75,0,0,1,1.1-.1c-.3.1-.7.2-1,.3-.5.1-.9.4-1.4.5A1.858,1.858,0,0,1,46.9,34.5Z" fill="#faf9e4"/>
      <path id="Path_7248" data-name="Path 7248" d="M34.2,30.6a3.75,3.75,0,0,1,1.1-.1c-.3.1-.7.2-1,.3-.5.1-.9.4-1.4.5A1.858,1.858,0,0,1,34.2,30.6Z" fill="#faf9e4"/>
      <path id="Path_7249" data-name="Path 7249" d="M39.3,37.3a3.435,3.435,0,0,1,1.3-1.6A6.529,6.529,0,0,1,39.3,37.3Z" fill="#faf8dc"/>
      <path id="Path_7250" data-name="Path 7250" d="M48.1,35.9a.523.523,0,0,1,.8.4.643.643,0,0,1-.9.7C47.6,36.8,47.7,36.1,48.1,35.9Z" fill="#151c2c"/>
      <path id="Path_7251" data-name="Path 7251" d="M49.5,12.6a9.78,9.78,0,0,1,2.9-.9,16.886,16.886,0,0,0-4.5,2.1,17.141,17.141,0,0,0-3.7,3.9,8.766,8.766,0,0,0-1.7,4.1h-.2c.2-.6.2-1.1.4-1.7a14.481,14.481,0,0,1,2.2-3.8A10.536,10.536,0,0,1,49.5,12.6Zm3.5-.5a10.44,10.44,0,0,0-4.9,2.5,17.79,17.79,0,0,0-3.7,4.5,10.425,10.425,0,0,0-1.1,3.4h.2a10.559,10.559,0,0,1,1.9-4.8A16.022,16.022,0,0,1,47.9,15,13.367,13.367,0,0,1,53,12.2c.7-.2,1.4-.2,2.1-.4A5.105,5.105,0,0,0,53,12.1Zm2.1.3a18.707,18.707,0,0,0-4,1.3,9.583,9.583,0,0,0-4.4,3.8,17.507,17.507,0,0,0-2,4.4,3.284,3.284,0,0,0-.1,1.7c.1-.2.2-.5.3-.7a13.279,13.279,0,0,1,2.5-6A10.718,10.718,0,0,1,51.2,14a12.948,12.948,0,0,1,4.7-1.5c.2-.1.5,0,.5-.2A2.879,2.879,0,0,0,55.1,12.4Zm1.5.3a26.543,26.543,0,0,0-3,1.1,16.169,16.169,0,0,0-3.9,2.5,22.26,22.26,0,0,0-1.9,2.4A18.831,18.831,0,0,0,46,22.5a3.887,3.887,0,0,0-.2,1.5c.1,0,.2,0,.2.1.1-.3.1-.6.2-1a18.543,18.543,0,0,1,1.2-3.3,11.609,11.609,0,0,1,3.5-4.4,15.776,15.776,0,0,1,5.6-2.5c.2-.1.5-.1.6-.3C57,12.5,56.8,12.7,56.6,12.7Zm-2.7,3.6a20.379,20.379,0,0,0-2.6,3.9A17.88,17.88,0,0,0,50,23.4a5.84,5.84,0,0,0-.4,1.8h.3c.1-.2.1-.5.2-.7a24.688,24.688,0,0,1,2.2-5.3c.5-.8.9-1.6,1.4-2.3a16.17,16.17,0,0,1,3.2-3.2v-.3A16.425,16.425,0,0,0,53.9,16.3Zm-.1-1.8a16.544,16.544,0,0,0-3.6,3.4,14.228,14.228,0,0,0-3.1,6.7c.1,0,.2,0,.2.1A14.679,14.679,0,0,1,51.5,17a15.067,15.067,0,0,1,2.3-2.1,4.508,4.508,0,0,0,1.4-1A2.847,2.847,0,0,0,53.8,14.5Zm1.6,1.7c-.6.8-1.2,1.6-1.8,2.5a11.507,11.507,0,0,0-1.2,2.5,16.9,16.9,0,0,0-1.2,4.4h.3a17.268,17.268,0,0,1,1.7-5.3A20.16,20.16,0,0,1,55,17.1a12.387,12.387,0,0,1,1.8-2.2v-.3A5.391,5.391,0,0,0,55.4,16.2Zm.2,1.2a27.89,27.89,0,0,0-2.4,5.3,13.655,13.655,0,0,0-.7,2.9h.3a5.274,5.274,0,0,0,.3-1.2,15,15,0,0,1,1.1-3.6,17.206,17.206,0,0,1,2-3.8c.2-.4.6-.7.5-1.2A15.259,15.259,0,0,0,55.6,17.4Zm-3.7.2a22.348,22.348,0,0,0-2.7,4.1,9.071,9.071,0,0,0-1,3.3h.3a16.553,16.553,0,0,1,.6-2.1,22.155,22.155,0,0,1,2.3-4.3,18.4,18.4,0,0,1,1.7-2.2A13.577,13.577,0,0,0,51.9,17.6Zm3.7,2.1c-.4,1.1-.7,2.2-1,3.3a12.611,12.611,0,0,0-.5,2.8h.3a11.271,11.271,0,0,0,.3-1.8A20.074,20.074,0,0,1,56,19.2a12.2,12.2,0,0,0,.7-1.7A7.561,7.561,0,0,0,55.6,19.7Zm-13.8-.9a2.614,2.614,0,0,0-.8.3,14.79,14.79,0,0,0-3.1,2.5,7.344,7.344,0,0,0-1.4,2.6c-.1.4-.3.9-.4,1.4.1,0,.3.1.3-.1a9.678,9.678,0,0,1,.8-2.4,8.975,8.975,0,0,1,2.2-2.6,7.9,7.9,0,0,1,2.3-1.4,2.994,2.994,0,0,1-.4.8A4.185,4.185,0,0,0,39.5,21,7.76,7.76,0,0,0,37,24.9a1.374,1.374,0,0,0,.5-.8,7.81,7.81,0,0,1,3.7-3.9c0,.2-.1.5-.1.7a10.092,10.092,0,0,0,.7-1.5,12.9,12.9,0,0,1,.9-1.6C42.3,17.9,42.1,18.4,41.8,18.8Zm15.4-.9c0,.7.1,1.4.1,2a14.488,14.488,0,0,1-1,5.8,1.205,1.205,0,0,1-.5.5v.2c.2-.1.3-.1.5-.2a21.741,21.741,0,0,0,.1,4.4,14.585,14.585,0,0,0,2,5c-.7-2-1.7-3.9-1.8-6-.1-1.1-.1-2.3-.1-3.4.2-.1.3-.2.5-.3-.1,0-.3-.2-.3-.2a16.255,16.255,0,0,0,.9-6.9A1.268,1.268,0,0,0,57.2,17.9Zm.8.4a5.019,5.019,0,0,1,.2,1.2,13.463,13.463,0,0,1-.2,5.3c0,.2-.2.3-.3.4a.367.367,0,0,0,.3-.1,1.38,1.38,0,0,1,.4-.3.349.349,0,0,0-.2-.1v-.1a11.27,11.27,0,0,0,.5-3.2,6.348,6.348,0,0,0-.5-3.1Zm-1.8,3.5c-.3,1.4-.7,2.7-1.1,4,.1-.1.3-.1.3-.2a8.51,8.51,0,0,0,.6-1.7c.3-1.3.5-2.7.7-4.1V19C56.5,20,56.4,20.9,56.2,21.8Zm3.1-2.3c0,.7.2,1.3.2,2a21.656,21.656,0,0,1-.4,2.5c-.3.2-.6.5-.9.7v.1l.3.1c.2,1.4.7,2.8.9,4.3.2,1.2.3,2.5.4,3.7.1.7,0,1.4.1,2a6.6,6.6,0,0,0,.1-1.4,35.928,35.928,0,0,0-.3-4.7c-.2-1.4-.6-2.8-.9-4.1.1-.1.3-.2.4-.3.2.5.3,1,.5,1.6a35.75,35.75,0,0,1,1,5.7c.1,1.3-.1,2.7,0,4a25.122,25.122,0,0,0-.3-8.2,19.659,19.659,0,0,0-1-3.2.55.55,0,0,1,.5-.3H60c.2.1.1-.2.2-.3.2-.2.5-.4.7-.6a8.794,8.794,0,0,1,.6,1,19.854,19.854,0,0,1,.9,2.6v-.4a10.926,10.926,0,0,0-.5-1.7,7.458,7.458,0,0,0-.9-1.5c.1-.1.3-.2.4-.3v-.2a2.092,2.092,0,0,0-.6.4,2.247,2.247,0,0,0-.2-1.8,14.769,14.769,0,0,1-.1,2.1,5.008,5.008,0,0,1-.8.7,10.206,10.206,0,0,0,.3-3A16.37,16.37,0,0,1,59.3,19.5Zm.6,4.7a7.5,7.5,0,0,1,.9,2.5c.2,1.2.5,2.4.6,3.6a15.334,15.334,0,0,1-.2,3.7,3.75,3.75,0,0,0-.1,1.1,15.087,15.087,0,0,0,.5-4.2,25.42,25.42,0,0,0-.7-4.7A6.028,6.028,0,0,0,60,24C60,24.1,59.9,24.1,59.9,24.2Zm-3.1,1.5c.1,0,.3.2.3.2a17.53,17.53,0,0,0,.6,6,9.979,9.979,0,0,0,1,2.9,37.751,37.751,0,0,1-1.3-5.6,20.479,20.479,0,0,1-.1-3.5c.2-.1.3-.3.5-.4a17.2,17.2,0,0,0,.2,3.2l.9,4.2a20.024,20.024,0,0,1,.4,2.4,23.215,23.215,0,0,0-.7-4.6,29.31,29.31,0,0,1-.5-2.9c-.1-.8-.1-1.6-.2-2.5a.367.367,0,0,0-.3.1C57.3,25.2,57.1,25.5,56.8,25.7Zm5.3.7c0,.7.2,1.3.2,2a17.758,17.758,0,0,1-.2,4.6c-.2,1.1-.6,2.1-.9,3.2a1.612,1.612,0,0,0,.4-.7,11.422,11.422,0,0,0,.9-2.6,13.809,13.809,0,0,0-.4-6.7C62.2,26.2,62.2,26.3,62.1,26.4Zm-.5,10.2a2.875,2.875,0,0,0,.7-1.8A13.356,13.356,0,0,0,61.6,36.6Zm-2.5-.1a6.15,6.15,0,0,0-.1-1.4C58.7,35.5,59.1,36,59.1,36.5Zm.5-1.3a2.25,2.25,0,0,0,.1,1.4A1.691,1.691,0,0,0,59.6,35.2Zm.7.4v.9A.631.631,0,0,0,60.3,35.6Zm.5.3v.8a4.875,4.875,0,0,0,.3-.7A.367.367,0,0,0,60.8,35.9Z" fill="#3b53b5"/>
      <path id="Path_7252" data-name="Path 7252" d="M33.2,36.7a1.158,1.158,0,0,1,1.4.6,1.453,1.453,0,0,1-1.1,2A1.344,1.344,0,0,1,32.1,38,1.82,1.82,0,0,1,33.2,36.7Z" fill="#dd4f31"/>
      <path id="Path_7253" data-name="Path 7253" d="M47,37.2a8.329,8.329,0,0,0,2.2.3A1.985,1.985,0,0,1,47,37.2Z" fill="#c76847"/>
      <path id="Path_7254" data-name="Path 7254" d="M59.2,38.5c0-.4-.3-.9.1-1.1A3.75,3.75,0,0,1,59.2,38.5Z" fill="#357e8f"/>
      <path id="Path_7255" data-name="Path 7255" d="M46.9,37.8a10.794,10.794,0,0,1,1.9.3A1.877,1.877,0,0,1,46.9,37.8Z" fill="#c76847"/>
      <path id="Path_7256" data-name="Path 7256" d="M41.1,38.1a.481.481,0,0,1,.6.2c.1.4-.6.5-.9.3A.35.35,0,0,1,41.1,38.1Z" fill="#af3116"/>
      <path id="Path_7257" data-name="Path 7257" d="M58.5,39.8c0-.4-.2-.9.2-1.1A2.344,2.344,0,0,1,58.5,39.8Z" fill="#357e8f"/>
      <path id="Path_7258" data-name="Path 7258" d="M58.9,40c0-.4-.1-.9.2-1.2A1.721,1.721,0,0,1,58.9,40Z" fill="#357e8f"/>
      <path id="Path_7259" data-name="Path 7259" d="M59.3,40.2a2.035,2.035,0,0,1,1.5-.6,1.955,1.955,0,0,1,1.5.7,1.768,1.768,0,0,1,.3,1.6,3.865,3.865,0,0,1-1.2,1.9,2.03,2.03,0,0,1-1.7-.1c-.4-.2-.7.1-1.1.2v-.3c.4-.2.7-.5,1.2-.4.4.1.8.5,1.3.3a2.982,2.982,0,0,0,1.2-1.7,1.277,1.277,0,0,0-.2-1.2,1.717,1.717,0,0,0-1.5-.6C60.1,40,59.7,40.2,59.3,40.2Z" fill="#b03318"/>
      <path id="Path_7260" data-name="Path 7260" d="M49.3,41.3a1.183,1.183,0,0,1,1,.1,1.709,1.709,0,0,1,.7,1.3,2.235,2.235,0,0,1-1.2,1.5,1.413,1.413,0,0,1-2-1.3C47.7,42.1,48.5,41.5,49.3,41.3Z" fill="#dd4f31"/>
      <path id="Path_7261" data-name="Path 7261" d="M37.1,43.9a4.163,4.163,0,0,1,3.1.3,5.273,5.273,0,0,1,1.5,1.1c-.2,0-.5,0-.6-.1a8.272,8.272,0,0,0-1.6-.9,6.154,6.154,0,0,0-1.9-.2C37.3,44.2,37.2,44,37.1,43.9Z" fill="#dd5133"/>
      <path id="Path_7262" data-name="Path 7262" d="M21.1,58.6A21.1,21.1,0,0,0,23,56.3a2.744,2.744,0,0,1-1,1.8,18.568,18.568,0,0,0-2.2,2.7c-.2.2-.3.5-.6.6A17.261,17.261,0,0,1,21.1,58.6Z" fill="#102f3a"/>
      <path id="Path_7263" data-name="Path 7263" d="M31.2,35.6h.2a12.252,12.252,0,0,1-.2,1.9A4.061,4.061,0,0,1,31.2,35.6Zm-.7,3.3a4.678,4.678,0,0,0,.2-1.7C30.3,37.7,30.5,38.3,30.5,38.9Zm.3-.9a4.4,4.4,0,0,0,.2,1.6A4.3,4.3,0,0,0,31,38Zm-.6,3a11.019,11.019,0,0,0,.2-1.8A2.247,2.247,0,0,0,30.2,41Zm.3-1.2a2.257,2.257,0,0,0,.2,1.6V40A.215.215,0,0,0,30.5,39.8Zm6.3,1a3.178,3.178,0,0,0,1.4-.2A3.178,3.178,0,0,0,36.8,40.8Zm1.6.2c.3,0,.7.1,1-.2C39.1,40.7,38.6,40.5,38.4,41ZM31,40.7a3.416,3.416,0,0,0,.3,1.7A4.671,4.671,0,0,0,31,40.7Zm4.3.5a3.258,3.258,0,0,0,1.3-.4A1.844,1.844,0,0,0,35.3,41.2Zm4.2-.2h.9A.517.517,0,0,0,39.5,41Zm1,0a2.1,2.1,0,0,0,1.1.4A1.5,1.5,0,0,0,40.5,41Zm17.2,1.1a2.2,2.2,0,0,0,.5-1.2C57.8,41.2,57.8,41.7,57.7,42.1Zm-20.9-.6a2.016,2.016,0,0,0,1.1-.3A1.431,1.431,0,0,0,36.8,41.5Zm-7,1.6a11.076,11.076,0,0,0,.2-1.9A2.539,2.539,0,0,0,29.8,43.1Zm8.3-1.8c.2.4.8.2,1.1.1A3.75,3.75,0,0,0,38.1,41.3Zm1.2.1c.2.3.7.2,1,.2A.919.919,0,0,0,39.3,41.4Zm-4.1.6a5.023,5.023,0,0,0,1.3-.5A1.536,1.536,0,0,0,35.2,42Zm6.6-.6a2.384,2.384,0,0,0,1.1.6A1.738,1.738,0,0,0,41.8,41.4Zm-8.1.8a2.925,2.925,0,0,0,1.2-.7C34.5,41.7,33.9,41.8,33.7,42.2Zm3-.1a2.016,2.016,0,0,0,1.1-.3C37.4,41.8,36.8,41.6,36.7,42.1Zm3.6-.4c.2.4.6.4,1,.4A1.777,1.777,0,0,0,40.3,41.7Zm-10,.1a9.7,9.7,0,0,0,.1,1.7,9.7,9.7,0,0,0,.1-1.7Zm11,0c.2.4.7.4,1.1.5A1.606,1.606,0,0,0,41.3,41.8Zm-3.4.3a3.788,3.788,0,0,0,1.5,0A1.933,1.933,0,0,0,37.9,42.1Zm-5.5.9a6.885,6.885,0,0,0,1.3-1.1C33.2,42.2,32.6,42.5,32.4,43Zm7.2-.9a1.09,1.09,0,0,0,1.1.2A2.344,2.344,0,0,0,39.6,42.1Zm3.6,0a4.811,4.811,0,0,0,1.1.9A1.943,1.943,0,0,0,43.2,42.1Zm-9.7,1a3.067,3.067,0,0,0,1.4-.9A3.39,3.39,0,0,0,33.5,43.1Zm1.4-.2a5.023,5.023,0,0,0,1.3-.5A1.536,1.536,0,0,0,34.9,42.9Zm-4.1-.5a4.529,4.529,0,0,0,.3,1.6,2.879,2.879,0,0,0-.1-1.3C31,42.5,30.9,42.5,30.8,42.4Zm10.4.1c.2.4.7.4,1.1.5A1.606,1.606,0,0,0,41.2,42.5ZM56.7,44a3.674,3.674,0,0,0,.9-1.6A6.084,6.084,0,0,0,56.7,44Zm-24.3-.4a2.94,2.94,0,0,0,1.2-1A2.335,2.335,0,0,0,32.4,43.6Zm24.8.7a2.722,2.722,0,0,0,.8-1.6A5.988,5.988,0,0,0,57.2,44.3Zm-25.5-.5a3.553,3.553,0,0,0,.2-1A.919.919,0,0,0,31.7,43.8Zm12.4-.4a3.126,3.126,0,0,0,.9,1.1C44.8,44,44.5,43.5,44.1,43.4ZM32.3,44.6a4.125,4.125,0,0,0,1.3-1A2.209,2.209,0,0,0,32.3,44.6Zm10.3-1.1c.4.4.9.7,1.3,1.1A2.03,2.03,0,0,0,42.6,43.5Zm.9,0c.1.5.6.8.9,1.1A3.126,3.126,0,0,0,43.5,43.5ZM29.9,45.1a3.887,3.887,0,0,0-.2-1.5A2,2,0,0,0,29.9,45.1Zm1.3.6a3.887,3.887,0,0,0-.2-1.5A2.727,2.727,0,0,0,31.2,45.7Zm26.4-.5a2.389,2.389,0,0,0,.5-1.4A2.919,2.919,0,0,0,57.6,45.2ZM30.3,43.8a2.953,2.953,0,0,0,.2,1.3C30.6,44.7,30.7,44.1,30.3,43.8Zm1.5,1.8a10.462,10.462,0,0,1,.4-1.7C31.7,44.3,31.8,45,31.8,45.6Zm24.8-.7c-.2.4-.5.8-.7,1.2A4.188,4.188,0,0,0,57,44.5C56.9,44.6,56.7,44.7,56.6,44.9Zm-10.9.9a2.078,2.078,0,0,0-.5-1.2A3.08,3.08,0,0,0,45.7,45.8Zm-1.9-1a3.458,3.458,0,0,0,.7,1.2A1.855,1.855,0,0,0,43.8,44.8Zm.7,0a1.606,1.606,0,0,0,.5,1.1A2.22,2.22,0,0,0,44.5,44.8ZM32.8,46.4h0a5.638,5.638,0,0,0,.4-1.2C32.9,45.5,32.9,46,32.8,46.4Zm23.6.3a3.072,3.072,0,0,0,1-1.5C57,45.6,56.8,46.2,56.4,46.7Zm-26.6.1a3.437,3.437,0,0,0,.1-1.4A1.691,1.691,0,0,0,29.8,46.8Zm.7.1a3.437,3.437,0,0,0,.1-1.4C30.3,45.8,30.4,46.4,30.5,46.9Zm.9-1.3a5.652,5.652,0,0,0,0,1.3C31.6,46.5,31.8,46,31.4,45.6Zm2.1,1.5a2.663,2.663,0,0,0,.3-1.2A1.1,1.1,0,0,0,33.5,47.1Zm11.8-1a2.768,2.768,0,0,0,.3,1.3A2.082,2.082,0,0,0,45.3,46.1Zm.6.1a6.468,6.468,0,0,0,.4,1.3C46.2,47.1,46.3,46.5,45.9,46.2Zm10.8,1.3a2.384,2.384,0,0,0,.6-1.1A3.881,3.881,0,0,0,56.7,47.5ZM58.3,42a1.606,1.606,0,0,0,.5-1.1A2.22,2.22,0,0,0,58.3,42ZM30.9,48.1a8.6,8.6,0,0,0,.1-1.6A1.81,1.81,0,0,0,30.9,48.1Zm24-.3c.5-.3,1-.6,1.1-1.2A3.179,3.179,0,0,0,54.9,47.8Zm-22.5.4a4.3,4.3,0,0,0,0-1.6A1.8,1.8,0,0,0,32.4,48.2Zm-2.2.2V47C29.8,47.4,30.1,47.9,30.2,48.4Zm4.3.1a2.3,2.3,0,0,0,.4-1.4A1.792,1.792,0,0,0,34.5,48.5Zm-1.4.5a8.6,8.6,0,0,0,.1-1.6A2.22,2.22,0,0,0,33.1,49Zm1-1a8.6,8.6,0,0,0,.1-1.6A2.22,2.22,0,0,0,34.1,48Zm1.2.8a3.079,3.079,0,0,0,.3-1.3A1.814,1.814,0,0,0,35.3,48.8Zm3.1-.1a2.768,2.768,0,0,0,.3-1.3A2.082,2.082,0,0,0,38.4,48.7Zm-6.7.3a4.4,4.4,0,0,0-.2-1.6A4.145,4.145,0,0,0,31.7,49Zm.4-2.6a4.424,4.424,0,0,0,.5-1.5A2.7,2.7,0,0,0,32.1,46.4Zm13.2,2.4a2.462,2.462,0,0,0-.1-1.2A2.462,2.462,0,0,0,45.3,48.8Zm6.6,0c.6-.3,1.3-.6,1.5-1.3C52.8,47.9,52.4,48.4,51.9,48.8ZM36,49a4.951,4.951,0,0,0,.4-1.3A1.844,1.844,0,0,0,36,49Zm16.8.1a4.061,4.061,0,0,0,1.5-1.4A9.6,9.6,0,0,0,52.8,49.1Zm2.2-.5a4.061,4.061,0,0,0,1.5-1.4A4.009,4.009,0,0,0,55,48.6Zm-17.5.6a7.6,7.6,0,0,0,.4-1.1C37.5,48.2,37.5,48.7,37.5,49.2ZM37,50.6a7.6,7.6,0,0,0,.4-1.1C37,49.7,37,50.2,37,50.6Zm-.6-1.4a7.6,7.6,0,0,0,.4-1.1C36.5,48.2,36.4,48.7,36.4,49.2ZM46.2,48a5.019,5.019,0,0,0,.2,1.2A1.277,1.277,0,0,0,46.2,48ZM33.6,49.5a7.084,7.084,0,0,0,.1-1.4A3.329,3.329,0,0,0,33.6,49.5Zm19.8.2,1.2-.9c.1-.1.1-.2.1-.4A7.993,7.993,0,0,0,53.4,49.7Zm1.9-.4a1.441,1.441,0,0,0,.9-1.1A10.627,10.627,0,0,0,55.3,49.3Zm-24.4-.5a5.638,5.638,0,0,0,.4,1.2c0-.4-.1-.8-.1-1.2Zm1.6,1.5a4.3,4.3,0,0,0,0-1.6A1.8,1.8,0,0,0,32.5,50.3Zm-2.2-1.4a3.686,3.686,0,0,0,.5,1.7A3.8,3.8,0,0,0,30.3,48.9Zm23.4,1.3c.5-.4,1.2-.6,1.4-1.3C54.4,49.2,54.1,49.8,53.7,50.2Zm-19-.1a2.537,2.537,0,0,0,.2-1.2C34.5,49.2,34.7,49.7,34.7,50.1Zm1.8.4a2.537,2.537,0,0,0,.2-1.2C36.3,49.6,36.4,50.1,36.5,50.5Zm1.1-.1a3.36,3.36,0,0,0,.5-1.4A2.654,2.654,0,0,0,37.6,50.4ZM39.3,49v1.2A1.051,1.051,0,0,0,39.3,49Zm6,1.2a4.1,4.1,0,0,0,.1-1.1C45,49.3,45.3,49.8,45.3,50.2Zm4.7-.3a2.252,2.252,0,0,0,1.4-.8A2.851,2.851,0,0,0,50,49.9Zm-14.7.3h0a1.978,1.978,0,0,0,.2-1.1C35.3,49.4,35.4,49.8,35.3,50.2Zm10.5-1a4.869,4.869,0,0,0,.1,1.2C46,50.1,46.3,49.5,45.8,49.2Zm-12,1.5a2,2,0,0,0,.2-1.3A2,2,0,0,0,33.8,50.7Zm17.1-.3a3.067,3.067,0,0,0,1.4-.9A2.629,2.629,0,0,0,50.9,50.4Zm-2.6.8A3.434,3.434,0,0,0,49.5,50,6.815,6.815,0,0,0,48.3,51.2Zm1.3.9a3.434,3.434,0,0,0,1.2-1.2A3.434,3.434,0,0,0,49.6,52.1Zm-.3,2a3.045,3.045,0,0,0,1.3-.9C50.1,53.3,49.7,53.8,49.3,54.1Zm4.6-6.8a2.585,2.585,0,0,0,1.2-1.1C54.6,46.4,54.3,46.9,53.9,47.3Zm1.5-1.5a4.125,4.125,0,0,0,1-1.3C55.9,44.8,55.7,45.4,55.4,45.8ZM40.5,50.9a3.3,3.3,0,0,0,0-1.4C40.3,49.9,40.5,50.5,40.5,50.9Zm-.6-1.3a6.753,6.753,0,0,0-.2,1.4C39.9,50.6,40.2,50,39.9,49.6Zm1.3,0v1.3A.936.936,0,0,0,41.2,49.6ZM32,51.2a7.719,7.719,0,0,0-.2-1.5A2,2,0,0,0,32,51.2Zm1.1.1a3.812,3.812,0,0,0,.1-1.5A1.93,1.93,0,0,0,33.1,51.3Zm1.2.4a3.812,3.812,0,0,0,.1-1.5A3.685,3.685,0,0,0,34.3,51.7Zm9.2-.3a4.013,4.013,0,0,0,.3-1.5C43.4,50.3,43.5,50.9,43.5,51.4Zm-1-.1a4.013,4.013,0,0,0,.3-1.5A2.7,2.7,0,0,0,42.5,51.3Zm9.1-.3a3.045,3.045,0,0,0,1.3-.9A2.8,2.8,0,0,0,51.6,51Zm-12.7-.7a7.845,7.845,0,0,0-.2,1.4,2.01,2.01,0,0,0,.4-1.3C39,50.3,39,50.3,38.9,50.3Zm7.9,1.2a2.281,2.281,0,0,0,.6-1.2C47,50.5,46.9,51,46.8,51.5Zm.8-.1a2.4,2.4,0,0,0,.7-1.2A2.515,2.515,0,0,0,47.6,51.4Zm1.5,0a4,4,0,0,0,1.2-1A2.335,2.335,0,0,0,49.1,51.4Zm3.1.2a2.765,2.765,0,0,0,1.3-1.1A2.85,2.85,0,0,0,52.2,51.6Zm-21.1-1a1.872,1.872,0,0,0,.5,1.4A2.389,2.389,0,0,0,31.1,50.6Zm22.4.8a3.745,3.745,0,0,0,1.3-1.2C54.2,50.4,53.9,50.9,53.5,51.4ZM34.9,52a6.468,6.468,0,0,0,.4-1.3A1.678,1.678,0,0,0,34.9,52Zm.7.2a6.943,6.943,0,0,0,.5-1.3A1.536,1.536,0,0,0,35.6,52.2Zm-3.3-1.3a3.4,3.4,0,0,0,.2,1.4C32.6,51.9,32.7,51.2,32.3,50.9Zm4,1.5a3.33,3.33,0,0,0,.5-1.5A2.7,2.7,0,0,0,36.3,52.4Zm.8.2a8.447,8.447,0,0,0,.5-1.7A2.155,2.155,0,0,0,37.1,52.6Zm3.3-1.5a4.869,4.869,0,0,0-.1,1.2C40.5,51.9,40.7,51.4,40.4,51.1Zm-6.7,1.5a3.3,3.3,0,0,0,0-1.4C33.4,51.5,33.5,52.1,33.7,52.6Zm7.3-.2a2.745,2.745,0,0,0,.2-1.3A2,2,0,0,0,41,52.4Zm9.5-.2a3.126,3.126,0,0,0,1.1-.9A2.012,2.012,0,0,0,50.5,52.2Zm-2.9.4a2.66,2.66,0,0,0,1-1.1A5.242,5.242,0,0,0,47.6,52.6Zm-14.5.5a5.634,5.634,0,0,0,0-1.3C32.7,52.1,33,52.7,33.1,53.1Zm10.6.1a3.194,3.194,0,0,0,.3-1.4A2.543,2.543,0,0,0,43.7,53.2Zm-.8-.1a3.194,3.194,0,0,0,.3-1.4A5.768,5.768,0,0,0,42.9,53.1Zm3.6-2.6a3.194,3.194,0,0,0,.3-1.4A3.194,3.194,0,0,0,46.5,50.5Zm-2.1,1.9a3.194,3.194,0,0,0,.3-1.4A8.874,8.874,0,0,0,44.4,52.4Zm-.2-1.1a3.194,3.194,0,0,0,.3-1.4A3.194,3.194,0,0,0,44.2,51.3Zm1.1.4a3.194,3.194,0,0,0,.3-1.4A3.529,3.529,0,0,0,45.3,51.7Zm-6,1a3.194,3.194,0,0,0,.3-1.4A7.006,7.006,0,0,0,39.3,52.7Zm6.8.2a2.589,2.589,0,0,0,.7-1.1C46.3,52,46.3,52.5,46.1,52.9Zm4.5-.1a2,2,0,0,0,1.2-1A5.3,5.3,0,0,0,50.6,52.8Zm-4.1.5a3.805,3.805,0,0,0,.9-1.3A4.276,4.276,0,0,0,46.5,53.3Zm-1-1.1a3.805,3.805,0,0,0,.9-1.3A4.276,4.276,0,0,0,45.5,52.2ZM38,52.1a5.019,5.019,0,0,0-.2,1.2,2.843,2.843,0,0,0,.4-1.2A.139.139,0,0,1,38,52.1Zm.2-1.8a5.019,5.019,0,0,0-.2,1.2,2.843,2.843,0,0,0,.4-1.2Zm10,2.8a2.168,2.168,0,0,0,1.1-1C48.8,52.2,48.5,52.7,48.2,53.1Zm-13.9.5a7.719,7.719,0,0,0,.2-1.5C34,52.4,34.2,53.1,34.3,53.6Zm16.8-.3a2.585,2.585,0,0,0,1.2-1.1A11.986,11.986,0,0,0,51.1,53.3Zm-6.1.4a2.091,2.091,0,0,0,.7-1.3C45.2,52.7,45.2,53.2,45,53.7Zm-3.2-2.1a1.735,1.735,0,0,0,.3-1.4C41.7,50.5,41.8,51.1,41.8,51.6Zm-9.7.8a2.843,2.843,0,0,0,.4,1.2A1.746,1.746,0,0,0,32.1,52.4Zm3.3,1.3a4.951,4.951,0,0,0,.4-1.3C35.3,52.7,35.4,53.3,35.4,53.7Zm13.5-.2a1.943,1.943,0,0,0,1.1-.9A2.445,2.445,0,0,0,48.9,53.5Zm-8.4.4a5.638,5.638,0,0,0,.4-1.2A1.374,1.374,0,0,0,40.5,53.9Zm.9-.7a5.638,5.638,0,0,0,.4-1.2A1.374,1.374,0,0,0,41.4,53.2Zm-5.3.9c.1-.4.3-.8.4-1.3C36,53.1,36.1,53.7,36.1,54.1Zm7.7.1a2.666,2.666,0,0,0,.7-1.4A3.694,3.694,0,0,0,43.8,54.2Zm-1.2.6a2.666,2.666,0,0,0,.7-1.4A3.694,3.694,0,0,0,42.6,54.8Zm-.6-.5a1.872,1.872,0,0,0,.5-1.4C42.3,53.3,42.2,53.8,42,54.3Zm-5.2.1a2.355,2.355,0,0,0,.5-1.3C36.8,53.3,36.8,53.9,36.8,54.4Zm2.3-.1a3.259,3.259,0,0,0,.4-1.3A3.259,3.259,0,0,0,39.1,54.3Zm-.6-.8a3.259,3.259,0,0,0,.4-1.3C38.6,52.5,38.6,53,38.5,53.5Zm-5,1c0-.4-.1-.9-.1-1.3A1.515,1.515,0,0,0,33.5,54.5Zm11.8.1a1.525,1.525,0,0,0,.7-1.2A2.4,2.4,0,0,0,45.3,54.6Zm1.1-.2c.3-.3.7-.6.8-1A7.006,7.006,0,0,0,46.4,54.4Zm-1,1.4c.3-.3.7-.6.8-1A3.915,3.915,0,0,0,45.4,55.8Zm1.8-1.5a3.178,3.178,0,0,0,1-1A9.428,9.428,0,0,0,47.2,54.3Zm-9.8.5a2.1,2.1,0,0,0,.4-1.1A4.874,4.874,0,0,0,37.4,54.8Zm-3.3.1V53.7A1.271,1.271,0,0,0,34.1,54.9Zm3.8.4a2.966,2.966,0,0,0,.7-1.5C38.3,54.2,38.2,54.8,37.9,55.3Zm9.8-.5a2.132,2.132,0,0,0,1.1-1A5.471,5.471,0,0,0,47.7,54.8Zm2-.1a2.262,2.262,0,0,0,1.2-.9A3.778,3.778,0,0,0,49.7,54.7Zm-5.4.4a2.384,2.384,0,0,0,.6-1.1A2.384,2.384,0,0,0,44.3,55.1Zm.1,1a2.286,2.286,0,0,0,.7-1A1.445,1.445,0,0,0,44.4,56.1Zm-5-.9a1.606,1.606,0,0,0,.5-1.1A2.22,2.22,0,0,0,39.4,55.2Zm.5-1.5a2.663,2.663,0,0,0,.3-1.2A1.8,1.8,0,0,0,39.9,53.7ZM35,55.4a2.462,2.462,0,0,0,.1-1.2C34.8,54.5,35,55,35,55.4Zm5.4-.1a2.384,2.384,0,0,0,.6-1.1A1.738,1.738,0,0,0,40.4,55.3Zm.9-.6a2.144,2.144,0,0,0,.4-1.2C41.4,53.8,41.4,54.3,41.3,54.7Zm.8-1.7a2.843,2.843,0,0,0,.4-1.2A1.374,1.374,0,0,0,42.1,53Zm-6.4,2.6a2.836,2.836,0,0,0,.4-1.3A1.373,1.373,0,0,0,35.7,55.6ZM48,55.5a1.818,1.818,0,0,0,1.1-1A3.46,3.46,0,0,0,48,55.5Zm-4.9.5a2.091,2.091,0,0,0,.7-1.3A2.091,2.091,0,0,0,43.1,56Zm.2,1.4a2.091,2.091,0,0,0,.7-1.3C43.6,56.4,43.5,57,43.3,57.4Zm-6.9-1.5a2.1,2.1,0,0,0,.4-1.1C36.4,55,36.5,55.5,36.4,55.9Zm9.6.2a2.342,2.342,0,0,0,1.2-1.2A3.434,3.434,0,0,0,46,56.1ZM42.1,56a2.286,2.286,0,0,0,.7-1A2.045,2.045,0,0,0,42.1,56Zm-1,1.4a2.286,2.286,0,0,0,.7-1A1.445,1.445,0,0,0,41.1,57.4Zm.8-.2a2.286,2.286,0,0,0,.7-1C42.2,56.4,42.1,56.8,41.9,57.2Zm-5-1c.3-.3.6-.6.5-1A4.671,4.671,0,0,0,36.9,56.2Zm1.7.2a1.524,1.524,0,0,0,.6-1A1.326,1.326,0,0,0,38.6,56.4Zm7.7.1c.5-.2,1.2-.4,1.2-1A12.7,12.7,0,0,0,46.3,56.5Zm-6.9.1a2.836,2.836,0,0,0,.8-1.1C39.7,55.7,39.6,56.2,39.4,56.6Zm1.9-.4A3.458,3.458,0,0,0,42,55C41.5,55.2,41.5,55.8,41.3,56.2Zm1.8.6c.3-.3.7-.7.7-1.1A1.9,1.9,0,0,0,43.1,56.8Zm-5.5-.2a1.242,1.242,0,0,0,.6-.8A1.555,1.555,0,0,0,37.6,56.6Zm2.7.2a2.1,2.1,0,0,0,.7-1.1C40.6,56,40.5,56.5,40.3,56.8Zm3.8.3a2.836,2.836,0,0,0,.9-1A2.189,2.189,0,0,0,44.1,57.1ZM38.7,57a2.651,2.651,0,0,0,.5-.6C38.9,56.4,38.8,56.7,38.7,57Zm6,.2a1.765,1.765,0,0,0,.9-.8A6.469,6.469,0,0,0,44.7,57.2Z" fill="#3b53b5"/>
      <path id="Path_7264" data-name="Path 7264" d="M39.4,64.5a3.441,3.441,0,0,1,2.8-.2c.1.1.3.2.4.3a12.252,12.252,0,0,0-1.9-.2,6.106,6.106,0,0,0-1.3.3Z" fill="#1688b5"/>
      <path id="Path_7265" data-name="Path 7265" d="M59.3,70.9A8.776,8.776,0,0,1,58.1,73a22.149,22.149,0,0,1-4,4.1c-1.4,1.2-2.8,2.4-4.1,3.7a.31.31,0,0,1,.1-.2c1.3-1.3,2.6-2.5,4-3.8.8-.8,1.7-1.5,2.5-2.4A32.378,32.378,0,0,0,59.3,70.9Z" fill="#163540"/>
      <path id="Path_7266" data-name="Path 7266" d="M28,76.8a16.632,16.632,0,0,0,3.1,5.5,30.127,30.127,0,0,1,2.2,2.8.781.781,0,0,1-.4-.4c-.6-.8-1.3-1.5-1.9-2.2a10.615,10.615,0,0,1-1.6-2.1,10.242,10.242,0,0,1-1.1-2.7A1.332,1.332,0,0,1,28,76.8Z" fill="#102f3a"/>
    </g>
  </g>
</svg>
