<svg id="avatar-12" xmlns="http://www.w3.org/2000/svg" xmlns:xlink="http://www.w3.org/1999/xlink" width="86" height="86" viewBox="0 0 86 86">
  <defs>
    <clipPath id="clip-path">
      <circle id="Ellipse_387" data-name="Ellipse 387" cx="43" cy="43" r="43"/>
    </clipPath>
  </defs>
  <g id="Group_6442" data-name="Group 6442" clip-path="url(#clip-path)">
    <path id="Path_9043" data-name="Path 9043" d="M0,0H86V86H0Z" fill="#c0ffed"/>
  </g>
  <g id="Group_6446" data-name="Group 6446" clip-path="url(#clip-path)">
    <path id="Path_6813" data-name="Path 6813" d="M61,61.2c.3-.2.7-.1,1.1-.1.4.3.9.3,1.3.7a14.8,14.8,0,0,0,1.3.8c.5.3,1,.7,1.5,1a22.68,22.68,0,0,1,3.4,1.9l3.6,2.1c1.3.8,4,2.3,4,2.3l-3.289,3.307L71.3,75.758l-5.476,4.195-7.295,3.48A50.7,50.7,0,0,1,42.54,86.3c-9.49.261-18.909-4.552-18.909-4.552l-8.283-5.181-4.421-4.455L8.019,68.445A10.318,10.318,0,0,1,10.1,67.2c.9-.3,1.7-.7,2.6-1,1.1-.3,2.2-.6,3.3-1a54.822,54.822,0,0,1,6.7-1.7,12.213,12.213,0,0,1,4.2-.6c.3,0,.4.2.7.3a2.769,2.769,0,0,1,.9.1v.3h3.7a38.593,38.593,0,0,1,4.9.6c1.9.2,3.7.2,5.6.3a38.463,38.463,0,0,0,4.8.1c1.7-.1,3.4-.4,5-.6a49.938,49.938,0,0,0,5.1-1.6A18.3,18.3,0,0,0,61,61.2Z" fill="#06d6a0"/>
    <g id="Group_6444" data-name="Group 6444">
      <path id="Path_6862" data-name="Path 6862" d="M51.7,16A12.529,12.529,0,0,1,57,14.1a7.612,7.612,0,0,1,2.1.3c1.1.4,1.9,1.4,2.9,2,.6.4,1.3,0,1.9.3A1.952,1.952,0,0,1,65.1,18a5.827,5.827,0,0,1,.2,4.3A2.258,2.258,0,0,1,64,23.7a19.623,19.623,0,0,1-5.4-.3.951.951,0,0,0-1,.4c-.7.6-1.3,1.3-2,2a10.049,10.049,0,0,1-2.4,1.6c-1.5.8-3.3.6-4.9.9a7.6,7.6,0,0,0-2.5.6c-.2.1-.2.3-.2.5-.1,1-.3,2-.4,3a27.586,27.586,0,0,1-.8,2.7,5.482,5.482,0,0,0,.4,2.5,41.56,41.56,0,0,0,2.4,4.7c.6.9,1.2,1.9,1.9,2.8a7.509,7.509,0,0,0,2.5,2.2,4.465,4.465,0,0,0,2.8-.6c1.7-.9,3.2-2.2,5-2.8a12.85,12.85,0,0,1,3.4-.7,6.146,6.146,0,0,1,3,.5c.2.1.3.2.3.4a8.279,8.279,0,0,1,.7,2.7c0,1.1.2,2.1.2,3.2a19.009,19.009,0,0,1-.5,5.8,9.533,9.533,0,0,1-1.3,2.9,6.844,6.844,0,0,1-2.7,2.1,17.593,17.593,0,0,1-5.5.9,11.489,11.489,0,0,1-3.6-.7,11.858,11.858,0,0,1-4.6-3c-.8-.8-1.3-1.7-2.1-2.5a18.936,18.936,0,0,1-1.9-3,33.1,33.1,0,0,1-1.5-3.3c-.3-1.2-.7-2.4-.9-3.6v-.2c-.1-1.1-.4-2.2-.4-3.4-.1-2-.2-4-.2-5.9,0-.4-.3-.6-.6-.8a4.506,4.506,0,0,0-3.6,0,3.023,3.023,0,0,0-1.7,1.8,9.385,9.385,0,0,0-.6,1.5,2.428,2.428,0,0,1-1.7-1.4c-.2-.3-.2-.7-.4-.9a4.923,4.923,0,0,0-1.7-.6,2.036,2.036,0,0,1-1.1-1.9c0-.6.3-1.3-.1-1.8A1.262,1.262,0,0,0,29,31a2.777,2.777,0,0,1-1.8-.3,1.231,1.231,0,0,1-.5-1A2.348,2.348,0,0,1,28,27.2c1-.6,2.3-.5,3.2-1.2a3.948,3.948,0,0,0,1.2-2.4,5.134,5.134,0,0,1,2.1-3.1c1.1-.7,2.5-.4,3.7-.7A5.428,5.428,0,0,0,41,17.9a5.818,5.818,0,0,1,3.6-2.1,7.512,7.512,0,0,1,3.3.4A5.02,5.02,0,0,0,51.7,16Z" fill="#1b4e61"/>
      <path id="Path_6863" data-name="Path 6863" d="M57.5,23.8a1.022,1.022,0,0,1,1-.4,19.623,19.623,0,0,0,5.4.3,2.092,2.092,0,0,1-.6.4,11.628,11.628,0,0,1-4.9-.3c-.6.6-1.2,1.2-1.8,1.9-.7.8-1.3,1.7-2,2.5a7.046,7.046,0,0,1-4.3,1.9,26.729,26.729,0,0,1-4-.1,5.9,5.9,0,0,1-1.2,2.2c.2-1,.3-2,.4-3,0-.2,0-.4.2-.5a10.154,10.154,0,0,1,2.5-.6c1.6-.2,3.4-.1,4.9-.9a7.759,7.759,0,0,0,2.4-1.6C56.2,25.1,56.8,24.4,57.5,23.8Z" fill="#c4603d"/>
      <path id="Path_6864" data-name="Path 6864" d="M56.7,25.7a10.708,10.708,0,0,1,1.8-1.9,11.529,11.529,0,0,0,4.9.3.675.675,0,0,0,.6-.4c.2,1,.6,2.1.7,3.1a56.3,56.3,0,0,1,1,9.2c0,1.6.3,3.2.4,4.8a21.75,21.75,0,0,1-.1,2.6,7.579,7.579,0,0,0-3-.5,12.85,12.85,0,0,0-3.4.7c-1.9.5-3.4,1.8-5,2.8a3.9,3.9,0,0,1-2.8.6,6.654,6.654,0,0,1-2.5-2.2A27.5,27.5,0,0,1,47.4,42,41.559,41.559,0,0,1,45,37.3a3.627,3.627,0,0,1-.4-2.5,27.586,27.586,0,0,0,.8-2.7,5.9,5.9,0,0,0,1.2-2.2c1.3,0,2.7.2,4,.1a7.664,7.664,0,0,0,4.3-1.9A29.946,29.946,0,0,1,56.7,25.7Z" fill="#e97951"/>
      <path id="Path_6865" data-name="Path 6865" d="M37.5,35a4.507,4.507,0,0,1,3.6,0c.3.2.7.4.6.8a38.364,38.364,0,0,0,.2,5.9c0,1.1.3,2.2.4,3.4-1.2-.2-2.6,0-3.7-.7-.3-.2-.5-.3-.8-.5a5.725,5.725,0,0,1-1.5-1.6,5.155,5.155,0,0,1-.9-2,13.4,13.4,0,0,1-.1-2,4.714,4.714,0,0,1,.6-1.5A2.623,2.623,0,0,1,37.5,35Z" fill="#dd4f31"/>
      <path id="Path_6866" data-name="Path 6866" d="M47.8,39.6a11.084,11.084,0,0,1,.9,1.9,9.847,9.847,0,0,0,2,3c.5.6,1.1,1,1.7,1.6A6.058,6.058,0,0,1,50.3,45a6.89,6.89,0,0,1-2.5-4.8Q47.8,39.9,47.8,39.6Z" fill="#c4603d"/>
      <path id="Path_6867" data-name="Path 6867" d="M37.8,43.9c.3.2.5.3.8.5,1.1.7,2.5.5,3.7.7v.2a6.579,6.579,0,0,1-4,1.7h-1v-.4C37.4,45.7,37.7,44.8,37.8,43.9Z" fill="#c4603d"/>
      <path id="Path_6868" data-name="Path 6868" d="M38.3,47a6.34,6.34,0,0,0,4-1.7c.2,1.2.6,2.4.9,3.6a14.962,14.962,0,0,0,.6,2.9c.3,1,.6,1.9.9,2.9a18.616,18.616,0,0,0,2.5,5.1A26.061,26.061,0,0,0,53,65a9.456,9.456,0,0,0,2.4,1.4,28.332,28.332,0,0,1-11.8,2.4H42.2c-1.3-.1-2.6-.1-3.9-.3a21.275,21.275,0,0,1-5-1.1,18.46,18.46,0,0,1-4.4-2.3c-.7-.5-1.4-.9-2.1-1.5a1.275,1.275,0,0,1-.4-.6c.1-.1.2-.2.3-.2A34.294,34.294,0,0,0,31.6,60a18.312,18.312,0,0,0,3.1-2.4,7.183,7.183,0,0,0,1.4-2,17.633,17.633,0,0,0,.7-4c.2-1.6.2-3.3.4-4.9v.4A3.75,3.75,0,0,0,38.3,47Z" fill="#e97951"/>
      <path id="Path_6869" data-name="Path 6869" d="M59.9,46.2a5.2,5.2,0,0,1,4-.7,2.391,2.391,0,0,1,1.5,1.3,9.15,9.15,0,0,1-1.7.1,28.5,28.5,0,0,0-2.9.3,6.083,6.083,0,0,1-2.3.3A2.949,2.949,0,0,1,59.9,46.2Z" fill="#e97951"/>
      <path id="Path_6870" data-name="Path 6870" d="M43.2,49a33.1,33.1,0,0,0,1.5,3.3,18.935,18.935,0,0,0,1.9,3,25.247,25.247,0,0,0,2.1,2.5,11.858,11.858,0,0,0,4.6,3,11.489,11.489,0,0,0,3.6.7,16.7,16.7,0,0,0,5.5-.9,1.729,1.729,0,0,1-.1,1,9.53,9.53,0,0,1-2.7,2.6,21.752,21.752,0,0,1-4.2,2.4A14.918,14.918,0,0,1,53,65.2,22.3,22.3,0,0,1,47.2,60a20.125,20.125,0,0,1-2.5-5.1c-.3-1-.7-1.9-.9-2.9C43.6,50.9,43.3,50,43.2,49Z" fill="#c4603d"/>
    </g>
    <g id="Group_6445" data-name="Group 6445">
      <path id="Path_6879" data-name="Path 6879" d="M56,14.9a6.251,6.251,0,0,1,4,.9,12.244,12.244,0,0,1,3.4,3,5.389,5.389,0,0,1,1,3,6.15,6.15,0,0,1-.1,1.4H64a7.388,7.388,0,0,0,0-2.1,6.5,6.5,0,0,0-2.4-3.7,11.865,11.865,0,0,0-2.3-1.6A7.762,7.762,0,0,0,56,14.9Z" fill="#11303b"/>
      <path id="Path_6880" data-name="Path 6880" d="M53.4,15.8a4.558,4.558,0,0,1,2.3-.5,7.627,7.627,0,0,1,4.2,1.2A8.748,8.748,0,0,1,62,18.7a6.941,6.941,0,0,1,1.2,3.1,3.591,3.591,0,0,1-.2,1.8c-.2-.7-.1-1.4-.3-2.1a6.913,6.913,0,0,0-1-2.5,7.727,7.727,0,0,0-3.6-3.1,8.2,8.2,0,0,0-4.4-.3C53.7,15.8,53.5,15.8,53.4,15.8Z" fill="#102f3b"/>
      <path id="Path_6881" data-name="Path 6881" d="M52,16.7a7.06,7.06,0,0,1,2.4-.6,6.2,6.2,0,0,1,2.7.2,8.718,8.718,0,0,1,3.1,1.8,6.356,6.356,0,0,1,1.4,2.2,3.65,3.65,0,0,1,.2,2.9c-.1.1-.2.5-.4.4a3.887,3.887,0,0,0,.2-1.5,4.89,4.89,0,0,0-.8-2.3,6.424,6.424,0,0,0-5.1-3.4,12.223,12.223,0,0,0-3.3.2A.6.6,0,0,1,52,16.7Z" fill="#102f3b"/>
      <path id="Path_6882" data-name="Path 6882" d="M41.9,18a5.027,5.027,0,0,1,3.7-1.2,4.191,4.191,0,0,1,1.5.4,7.383,7.383,0,0,0-3.9.4c-.8.3-1.3,1.1-2.1,1.2A6.034,6.034,0,0,1,41.9,18Z" fill="#102f3b"/>
      <path id="Path_6883" data-name="Path 6883" d="M51.1,17.4a9.417,9.417,0,0,1,5-.3,6.341,6.341,0,0,1,3.1,1.7,4.948,4.948,0,0,1,1.2,4.5h-.2a5.95,5.95,0,0,0-.8-3.7,4.1,4.1,0,0,0-2.1-1.8,8.046,8.046,0,0,0-5.3-.4,11.065,11.065,0,0,0-3.8,1.8,12.227,12.227,0,0,1-1.9,1.2,4.136,4.136,0,0,1-1.9.5,17.7,17.7,0,0,1-2.3-.1A7.048,7.048,0,0,0,36,25.4a3.886,3.886,0,0,1-1.8,2.2c-1.5.7-3.3.1-4.9.7a12.9,12.9,0,0,0-1.6.9c.3-.5.9-.7,1.4-1a4.058,4.058,0,0,1,1.9-.4,10.554,10.554,0,0,0,2.5-.2,3.378,3.378,0,0,0,2.3-2.2,8.642,8.642,0,0,1,2.1-2.9A6.589,6.589,0,0,1,43,20.7a5.7,5.7,0,0,0,3.4-.5A15.038,15.038,0,0,1,51.1,17.4Z" fill="#163441"/>
      <path id="Path_6884" data-name="Path 6884" d="M50,17.3c.2-.1.4-.1.6-.2v.1c-.3.1-.5.2-.8.3-1.3.6-2.5,1.3-3.8,1.9a11.068,11.068,0,0,1-2.6.7,13.425,13.425,0,0,0-3.5.4,6.534,6.534,0,0,0-4,3.1,7.8,7.8,0,0,1-2.4,3c-.9.5-2,.3-3,.6-.6.1-1.2.4-1.8.5.1-.1.2-.1.4-.2a5.678,5.678,0,0,1,2.2-.7,5.222,5.222,0,0,0,2.1-.4,8.767,8.767,0,0,0,2.5-2.9,6.112,6.112,0,0,1,3.4-2.9,12.8,12.8,0,0,1,3.9-.7,7.6,7.6,0,0,0,2.6-.6A23.041,23.041,0,0,1,50,17.3Z" fill="#12323e"/>
      <path id="Path_6885" data-name="Path 6885" d="M44,18.7c1.6-.1,2.9-1.1,4.4-1.5h.3a16.494,16.494,0,0,1-3.6,1.6c-.9.2-1.9.1-2.8.3-.6.1-1.2.3-1.8.4A5.871,5.871,0,0,1,44,18.7Z" fill="#12313d"/>
      <path id="Path_6886" data-name="Path 6886" d="M63.2,17.3a3.983,3.983,0,0,1,1.9,2.5,3.593,3.593,0,0,1-.1,2.5,5.951,5.951,0,0,0-1.1-4.1C63.7,17.8,63.3,17.6,63.2,17.3Z" fill="#12323e"/>
      <path id="Path_6887" data-name="Path 6887" d="M48.7,19.4a6.76,6.76,0,0,1,5.1-1.7,8.314,8.314,0,0,1,4.5,1.7,3.738,3.738,0,0,1,1.1,4l-.2.1A4.3,4.3,0,0,0,59,21a3.925,3.925,0,0,0-2.1-2.1,7.773,7.773,0,0,0-5.6-.7,5.1,5.1,0,0,0-2.8,1.7c-.9.9-1.8,2-3.1,2.3-1.6.3-3.2-.5-4.7-.2a5.11,5.11,0,0,0-3.6,3.1A7.448,7.448,0,0,1,36,27.5v-.3c0-.2.2-.3.2-.5.4-.8.5-1.6.9-2.4a5.422,5.422,0,0,1,3.5-2.6c1.6-.3,3.1.5,4.6.3C46.8,21.5,47.7,20.3,48.7,19.4Z" fill="#12323e"/>
      <path id="Path_6888" data-name="Path 6888" d="M51.1,19.7a5.268,5.268,0,0,1,3.7-.4,4.909,4.909,0,0,1,2.8,2.1,7.539,7.539,0,0,1,.6,1.3.349.349,0,0,1,.1.2c-.5-.2-.6-.8-.9-1.3a4.89,4.89,0,0,0-2.5-2,5.58,5.58,0,0,0-4,.5c-1.1.6-1.9,1.6-2.9,2.2a4.872,4.872,0,0,1-3.3.7,8.2,8.2,0,0,0-4.4.2,5.619,5.619,0,0,0-2.2,2.6A10.707,10.707,0,0,1,36.6,28a5.263,5.263,0,0,1-1.4,1.2,11.422,11.422,0,0,1-2.6.9,5.366,5.366,0,0,1-2.2.1,3.194,3.194,0,0,0-1.4.3,1.149,1.149,0,0,1,.9-.6,10.869,10.869,0,0,1,1.8.1,5.84,5.84,0,0,0,1.8-.4A5.223,5.223,0,0,0,36.4,28c1.3-1.3,1.7-3.2,2.9-4.5a3.833,3.833,0,0,1,2.9-1c1,0,2,.2,3.1.3a6.028,6.028,0,0,0,2.3-.6C48.8,21.6,49.8,20.4,51.1,19.7Z" fill="#12313d"/>
      <path id="Path_6889" data-name="Path 6889" d="M35.6,20.9a12.86,12.86,0,0,1,1.9-.4v.2c-1.3.4-2.8.8-3.6,2-.6.8-.7,2-1.6,2.6.1-.3.3-.6.4-.9a8.865,8.865,0,0,1,.8-1.7A4.1,4.1,0,0,1,35.6,20.9Z" fill="#11303b"/>
      <path id="Path_6890" data-name="Path 6890" d="M49.4,22.7a5.645,5.645,0,0,1,3-1.7,4.188,4.188,0,0,1,2.5.5A15.1,15.1,0,0,0,58,23.1v.2c-1.5-.3-2.6-1.6-4.1-1.9a3.33,3.33,0,0,0-2.2.1c-1.2.5-2,1.7-3.1,2.2a4.594,4.594,0,0,1-3.8.5,5.522,5.522,0,0,0-3.8-.1,4.076,4.076,0,0,0-2.1,2,13.248,13.248,0,0,1-1.6,2.5,6.332,6.332,0,0,1-2.6,1.6,11.627,11.627,0,0,1-1.8.4c-.1,0-.3-.1-.4-.1.8-.2,1.5-.4,2.3-.6a6.08,6.08,0,0,0,2.4-1.5,8.585,8.585,0,0,0,1.3-2.3A5.2,5.2,0,0,1,40.3,24a5.078,5.078,0,0,1,3.2-.5c.8.1,1.6.4,2.4.5A3.912,3.912,0,0,0,49.4,22.7Z" fill="#102f3a"/>
      <path id="Path_6891" data-name="Path 6891" d="M35.4,22.4a3.134,3.134,0,0,1,1.1-.8c-.5.6-1.1,1.1-1.6,1.7A10.588,10.588,0,0,1,33,25.6a2.1,2.1,0,0,1-1.1.4,4.953,4.953,0,0,0,2.2-2.1A8.091,8.091,0,0,1,35.4,22.4Z" fill="#163441"/>
      <path id="Path_6892" data-name="Path 6892" d="M49.5,24.1a11.286,11.286,0,0,1,4.7-1.5v.2a14.159,14.159,0,0,0-2,.4c-.8.3-1.5.7-2.3,1a19.571,19.571,0,0,1-3.4,1.2,28.637,28.637,0,0,0-2.8.7,8.525,8.525,0,0,0-2.9,1.7c-1.4,1.2-2.4,2.8-3.9,3.9a7.349,7.349,0,0,1-4.6,1.1,1.421,1.421,0,0,1-.6-.2,2.537,2.537,0,0,1,1.2-.2,7.655,7.655,0,0,0,3.9-1.1,13.9,13.9,0,0,0,2.1-2.1,11.167,11.167,0,0,1,2.8-2.5,12.66,12.66,0,0,1,3.2-1.3A15.078,15.078,0,0,0,49.5,24.1Z" fill="#102f3b"/>
      <path id="Path_6893" data-name="Path 6893" d="M53.9,24.1a4.447,4.447,0,0,1,2-.8,12.9,12.9,0,0,0-1.6.9,9.189,9.189,0,0,1-3.2,1.4,21.145,21.145,0,0,1-3.5.2,9.2,9.2,0,0,0-5.3,2.4c-.8.8-1.5,1.7-2.3,2.4a12.911,12.911,0,0,1-3.7,2.8,11.661,11.661,0,0,1-4.5.6,1.421,1.421,0,0,1-.6-.2,27.129,27.129,0,0,0,4.1-.4,8.228,8.228,0,0,0,2.5-1.2,27.25,27.25,0,0,0,2.5-2.3,12.285,12.285,0,0,1,2.6-2.5,8.065,8.065,0,0,1,3.9-1.7c1.5-.3,3-.1,4.4-.4A11.065,11.065,0,0,0,53.9,24.1Z" fill="#102f3b"/>
      <path id="Path_6894" data-name="Path 6894" d="M55.8,24c.2-.2.4-.5.8-.5a5.752,5.752,0,0,1-1.9,1.9,10.438,10.438,0,0,1-2.4,1.1c-1.5.4-3.1.2-4.6.5a8.919,8.919,0,0,0-4.1,1.8c-1.6,1.2-2.8,2.9-4.4,4.1A8.093,8.093,0,0,1,35,34.8a8.744,8.744,0,0,1-3.6-.1c.2-.2.6-.1.9-.1a8.57,8.57,0,0,0,5.2-1,10.038,10.038,0,0,0,2.6-2c.7-.7,1.3-1.4,2-2.1A10.585,10.585,0,0,1,46,27.1a9.928,9.928,0,0,1,4.2-.5,5.759,5.759,0,0,0,2.9-.5A21.152,21.152,0,0,0,55.8,24Z" fill="#11313d"/>
      <path id="Path_6895" data-name="Path 6895" d="M42.2,25a10.869,10.869,0,0,1,1.8-.1,3.178,3.178,0,0,1-.9.3,4.754,4.754,0,0,0-3.5,2.4,19.855,19.855,0,0,1-2,2.1A9.033,9.033,0,0,1,33.3,32a4.067,4.067,0,0,1-1.9,0,2.92,2.92,0,0,1,.9-.2,9.188,9.188,0,0,0,4.5-1.7,11.12,11.12,0,0,0,2.6-2.7A5.031,5.031,0,0,1,42.2,25Z" fill="#11303c"/>
      <path id="Path_6896" data-name="Path 6896" d="M35.1,28.2a5.241,5.241,0,0,0,1-1.1v.3a4.013,4.013,0,0,1-1.6,1.3,7.386,7.386,0,0,1-3.3.5,5.022,5.022,0,0,0-2.1.2c-.4.1-.7.4-1.1.5a2.323,2.323,0,0,1,1.9-.9c.8-.1,1.6.1,2.4,0A6.937,6.937,0,0,0,35.1,28.2Z" fill="#24404b"/>
      <path id="Path_6897" data-name="Path 6897" d="M44.2,29.3a6.713,6.713,0,0,1,1.5-.6c-.8.6-1.7,1-2.5,1.7-1,.9-1.6,2.2-2.7,2.9-.6.2-1,.8-1.6.8.4-.3.9-.6,1.4-.9.3-.1.5-.4.7-.6l.9-1.2A5.827,5.827,0,0,1,44.2,29.3Z" fill="#102f3b"/>
      <path id="Path_6898" data-name="Path 6898" d="M31.5,31c.3,0,.6-.2,1-.2.1,0,.3.1.4.1a14.159,14.159,0,0,1-2,.4c-.2,0-.3-.1-.5-.2C30.7,30.9,31.1,31,31.5,31Z" fill="#2b4651"/>
      <path id="Path_6899" data-name="Path 6899" d="M53.6,33.3a7.47,7.47,0,0,1,5.1-.4c.6.1,1.4.3,1.6.9.1.2-.1.4-.2.6a5.381,5.381,0,0,0-2.5-.9,1.7,1.7,0,0,0-1,0,10.657,10.657,0,0,0-3.1.6,2.054,2.054,0,0,1-1.1,0A2.55,2.55,0,0,1,53.6,33.3Z" fill="#1b4e61"/>
      <path id="Path_6900" data-name="Path 6900" d="M64.3,34.3a1.27,1.27,0,0,1,1.1-1.5.9.9,0,0,1,.1.5,4.44,4.44,0,0,0-1.1.8Z" fill="#1d5062"/>
      <path id="Path_6901" data-name="Path 6901" d="M56.6,33.5a1.7,1.7,0,0,1,1,0Z" fill="#3d6372"/>
      <path id="Path_6902" data-name="Path 6902" d="M64.5,34.2a2.836,2.836,0,0,1,1.1-.8,2.232,2.232,0,0,1,1.4.3,2.272,2.272,0,0,0-2.1.5,4.869,4.869,0,0,0-.2,2.1,6.551,6.551,0,0,0,.5,2.5,3.318,3.318,0,0,0,1.6,1.5,1.3,1.3,0,0,1-1.3-.5,5.405,5.405,0,0,1-1.3-3.7H63.1c-.3,0-.6.1-.9.1-.4.1-.8.1-1.2.2a7.334,7.334,0,0,1-1.2,3.5,3.23,3.23,0,0,1-2.5,1.4,6.356,6.356,0,0,1-3.3-.7,4.061,4.061,0,0,1-1.4-1.5,3.08,3.08,0,0,1-.5-1.2,7.412,7.412,0,0,1-.1-2.1l-1.5-.3a39.668,39.668,0,0,0-4.8-.7v-.2a1.268,1.268,0,0,1,.6.1,14.919,14.919,0,0,0,2.1.2,14.279,14.279,0,0,0-2.9-.3l-.2.2a39.666,39.666,0,0,0-4.9-.1,1.421,1.421,0,0,1-.6-.2,1.173,1.173,0,0,1,1.1-.5,19.269,19.269,0,0,1,2.4.1c1.7.2,3.4.3,5.1.6a18.457,18.457,0,0,1,2.3.4,7.972,7.972,0,0,0,1.5.3,3.25,3.25,0,0,1,1.3-1.3,11.336,11.336,0,0,1,3.1-.6h1a5.813,5.813,0,0,1,2.5.9l.6.6a3.81,3.81,0,0,1,.3,1,11.233,11.233,0,0,1,3.2-.3A4.013,4.013,0,0,1,64.5,34.2Z" fill="#102f3b"/>
      <path id="Path_6903" data-name="Path 6903" d="M64.9,34.2a1.616,1.616,0,0,1,2.9,1.3,12.949,12.949,0,0,1-.4,3.9,1.6,1.6,0,0,1-.5,1,2.4,2.4,0,0,1-1.6-1.5,7.418,7.418,0,0,1-.5-2.5A2.763,2.763,0,0,1,64.9,34.2Z" fill="#46acc3"/>
      <path id="Path_6904" data-name="Path 6904" d="M54.1,34.3a8.236,8.236,0,0,1,3.5-.4c1,.1,2.2.3,2.7,1.3a2.059,2.059,0,0,1,.2,1.7,7.274,7.274,0,0,1-.6,2.1A3.363,3.363,0,0,1,58,40.8a4.6,4.6,0,0,1-2.6,0,3.929,3.929,0,0,1-2.9-2.4,3.854,3.854,0,0,1-.2-2.6L52,36l.1-.3.3-.3h.1l.1-.1A2.84,2.84,0,0,1,54.1,34.3Z" fill="#46acc3"/>
      <path id="Path_6905" data-name="Path 6905" d="M55.2,34.6a2.777,2.777,0,0,1,1.8-.3,3.166,3.166,0,0,1,1.6.4,7.719,7.719,0,0,0-1.5-.2C56.5,34.5,55.9,34.6,55.2,34.6Z" fill="#e6f0da"/>
      <path id="Path_6906" data-name="Path 6906" d="M66.7,34.7c.4.2.4.7.4,1.1a13.732,13.732,0,0,1-.5,2.8A10.243,10.243,0,0,0,66.7,34.7Z" fill="#e6f0da"/>
      <path id="Path_6907" data-name="Path 6907" d="M61.4,36.2c.6-.5,1.5-.3,2.2-.3a3.083,3.083,0,0,1-1,.1A2.537,2.537,0,0,1,61.4,36.2Z" fill="#f9f7dc"/>
      <path id="Path_6908" data-name="Path 6908" d="M62.2,36.3a2.769,2.769,0,0,1,.9-.1c.5.8,1,1.6,1.4,2.3a6.5,6.5,0,0,1,1.1,2.2,1.323,1.323,0,0,1-.2,1.2,3.166,3.166,0,0,1-1.2.8,8.585,8.585,0,0,1-1.7.3c-.2,0-.6.1-.6-.2a12.034,12.034,0,0,1,0-1.9A34.4,34.4,0,0,1,62.2,36.3Z" fill="#dd4f31"/>
      <path id="Path_6909" data-name="Path 6909" d="M37.6,38a1.805,1.805,0,0,1,1.7-1.4,2.1,2.1,0,0,1,1.5.5c.2.1.2.3.2.5-.6-.1-1.1-.7-1.7-.5a1.6,1.6,0,0,0-1.5,1.4,2.954,2.954,0,0,0,1.5,3.2,2.483,2.483,0,0,0,1.7,0,.215.215,0,0,1,.2.2c-1.1.9-2.8.1-3.3-1.1A3.927,3.927,0,0,1,37.6,38Z" fill="#af3116"/>
      <path id="Path_6910" data-name="Path 6910" d="M63.8,38.8a3.081,3.081,0,0,1,.9,2A17.6,17.6,0,0,0,63.8,38.8Z" fill="#f9f7dc"/>
      <path id="Path_6911" data-name="Path 6911" d="M54.5,39.9a6.963,6.963,0,0,0,2.5.5,2.462,2.462,0,0,1-1.2.1A1.371,1.371,0,0,1,54.5,39.9Z" fill="#b6dcd3"/>
      <path id="Path_6912" data-name="Path 6912" d="M51.5,42a1.484,1.484,0,0,1,1.7-.8,1.609,1.609,0,0,1,1.2,1.3c-.4-.1-.8-.3-1.1-.4a1.078,1.078,0,0,0,1.1.6,1.611,1.611,0,1,1-2.9-.7Z" fill="#dd4f31"/>
      <path id="Path_6913" data-name="Path 6913" d="M62.7,41.8c.2,0,.5.1.5.3-.1.5-1.2.5-.9-.1A.52.52,0,0,1,62.7,41.8Z" fill="#af3116"/>
      <path id="Path_6914" data-name="Path 6914" d="M59.8,46.7a6.989,6.989,0,0,1,2.4-.9,3.086,3.086,0,0,1,2.6.7,1.95,1.95,0,0,1-1.3-.1,10.869,10.869,0,0,0-1.8.1,21.718,21.718,0,0,0-2.4.7C59.3,46.9,59.6,46.8,59.8,46.7Z" fill="#c4603d"/>
      <path id="Path_6915" data-name="Path 6915" d="M44,33.4c.3-1.1.3-2.3.7-3.5a5.462,5.462,0,0,1-.1,1.8c-.1.5-.2.9-.3,1.4Zm-.4-1.7a13.553,13.553,0,0,0-.2,2,9.363,9.363,0,0,0,.4-1.6c.1-.7.3-1.3.4-2A3.511,3.511,0,0,0,43.6,31.7Zm-.9,1.8c.2-.5.2-1.1.4-1.6a2.745,2.745,0,0,0,.2-1.3A9.367,9.367,0,0,0,42.7,33.5Zm-.5-1.3a4.4,4.4,0,0,0-.2,1.6,18.915,18.915,0,0,0,.5-2.3A.908.908,0,0,0,42.2,32.2Zm.7,3.2a1.412,1.412,0,0,0-.1.9,18.1,18.1,0,0,0,.3,2.3c0-.6-.1-1.2-.1-1.9A5.283,5.283,0,0,1,42.9,35.4Zm.5,0a6.729,6.729,0,0,0,.1,2,3.36,3.36,0,0,0,.5,1.4,18.458,18.458,0,0,1-.4-2.3A1.978,1.978,0,0,0,43.4,35.4Zm-1.3,1.2a17.852,17.852,0,0,0,.2,2.3,10.819,10.819,0,0,0,0-1.8,3.812,3.812,0,0,0-.1-1.5A3.083,3.083,0,0,0,42.1,36.6Zm1.2,2.3a4.671,4.671,0,0,0,.3,1.7,4.128,4.128,0,0,0,.7,1.5C44,41.1,43.7,40,43.3,38.9Zm1.3-.1a6.7,6.7,0,0,0,.7,1.8,6.191,6.191,0,0,0,1.1,1.7,4.875,4.875,0,0,0-.3-.7C45.5,40.7,45.1,39.7,44.6,38.8Zm-1.9,2a12.665,12.665,0,0,0,.6,1.8c-.2-1.1-.5-2.2-.8-3.3A3.645,3.645,0,0,0,42.7,40.8ZM44,39.5a11.5,11.5,0,0,0,.6,1.7,5.388,5.388,0,0,0,.7,1.3,14.461,14.461,0,0,1-.9-2.2C44.3,40.1,44.3,39.7,44,39.5Zm-1.6,1.9a7.845,7.845,0,0,0,.2,2.2,13.894,13.894,0,0,0,.6,1.9c-.1-.6-.3-1.2-.4-1.8A15.718,15.718,0,0,1,42.4,41.4Zm1.7,1.4a14.167,14.167,0,0,0,.8,1.8,2.552,2.552,0,0,0,.7,1,22.876,22.876,0,0,1-1-2.3C44.5,43.1,44.4,42.8,44.1,42.8Zm-.7.2a2.663,2.663,0,0,0,.3,1.2,3.694,3.694,0,0,0,.7,1.4,7.838,7.838,0,0,1-.5-1.4A6.117,6.117,0,0,0,43.4,43Zm2.7.1A9.765,9.765,0,0,0,48.2,46a16.444,16.444,0,0,1-1.4-2.2C46.5,43.5,46.4,43.1,46.1,43.1Zm-.7-.1a3.36,3.36,0,0,0,.5,1.4,6.014,6.014,0,0,0,.9,1.3c-.2-.4-.5-.8-.7-1.3C45.9,44,45.7,43.5,45.4,43Zm17.2.6a2.2,2.2,0,0,0,.8-.1A.627.627,0,0,0,62.6,43.6Zm1.9-.2a3.379,3.379,0,0,0,1.2.6A6.72,6.72,0,0,0,64.5,43.4Zm-17.1,0a3.1,3.1,0,0,0,.6,1.3,10.917,10.917,0,0,0,1.3,1.7c-.3-.6-.7-1.1-1-1.6S47.7,43.8,47.4,43.4Zm13.3.6a11.271,11.271,0,0,1,1.8-.3A2.273,2.273,0,0,0,60.7,44Zm2.9-.2c.5.1.9.2,1.4.3a3.7,3.7,0,0,0-1.1-.5C63.7,43.7,63.7,43.8,63.6,43.8Zm-4.6.5a.781.781,0,0,0-.4.4,16.316,16.316,0,0,0,1.9-.9C60,44,59.5,44.1,59,44.3Zm2.9,0c.3.1.7-.1,1-.2A1.8,1.8,0,0,0,61.9,44.3Zm1.2-.1c.4.2.9.3,1.4.5A1.872,1.872,0,0,0,63.1,44.2Zm-3.3.8a15.872,15.872,0,0,0,2-.7C61.1,44.5,60.2,44.5,59.8,45Zm5.5-.7a9.428,9.428,0,0,0,1,1C66.1,44.9,65.8,44.4,65.3,44.3Zm-3.9.8a5.732,5.732,0,0,0,1.4-.4C62.3,44.7,61.7,44.6,61.4,45.1Zm-3.8.9a3.328,3.328,0,0,0,1-.6c.3-.3.7-.4,1-.7A4.644,4.644,0,0,0,57.6,46ZM63,44.9a4.253,4.253,0,0,1,1.1.2.85.85,0,0,0-.5-.3C63.4,44.8,63.1,44.6,63,44.9Zm1.8-.2a4.811,4.811,0,0,0,1.1.9C65.6,45.2,65.3,44.7,64.8,44.7Zm-5.6,1a2.181,2.181,0,0,0-.5.4,3.7,3.7,0,0,0,1.1-.5,10.908,10.908,0,0,0,1.1-.6A7.663,7.663,0,0,0,59.2,45.7Zm-3.2.6c.7-.3,1.3-.9,1.9-1.2A3.865,3.865,0,0,0,56,46.3Zm8.2-1.1c.5.3,1,.5,1.4.8A1.419,1.419,0,0,0,64.2,45.2Zm1.8.5a8.794,8.794,0,0,0,.6,1A.8.8,0,0,0,66,45.7Zm-.5.4a3.45,3.45,0,0,0,.8.9C66,46.7,65.9,46.2,65.5,46.1Zm-22.1.1a6.529,6.529,0,0,0,.6,2.4Zm.8,0a12.09,12.09,0,0,0,.5,1.8,2.506,2.506,0,0,0,.4.7,14.161,14.161,0,0,1-.7-2.2C44.5,46.3,44.4,46.2,44.2,46.2Zm3.3.1a5.171,5.171,0,0,0,.6,1.3,2.836,2.836,0,0,0,.8,1.1c-.3-.6-.6-1.1-.9-1.7C47.9,46.8,47.8,46.4,47.5,46.3Zm-2.2.1a8.8,8.8,0,0,0,.5,1.5,2.622,2.622,0,0,0,.5.9c-.2-.6-.5-1.2-.7-1.7C45.6,46.8,45.6,46.5,45.3,46.4Zm.9,0a8.428,8.428,0,0,0,.6,1.4,6.071,6.071,0,0,0,.7,1,8.865,8.865,0,0,0-.8-1.7C46.5,46.8,46.5,46.5,46.2,46.4Zm9.2.9h.2a3.45,3.45,0,0,0,.9-.8A2.1,2.1,0,0,0,55.4,47.3Zm-6.7-.5c.2.7.6,1.2.8,1.9a4.284,4.284,0,0,0-.5-1.6A.265.265,0,0,0,48.7,46.8Zm5.6.7c-.2.3-.4.5-.3.9a8.157,8.157,0,0,0,1.1-1.7A2.047,2.047,0,0,0,54.3,47.5Zm2.2.4c.4-.3.9-.6,1-1.1A1.818,1.818,0,0,0,56.5,47.9Zm-3.4,0a6.47,6.47,0,0,0,.8-.9C53.5,47.1,53.3,47.5,53.1,47.9Zm2.1.1a.55.55,0,0,0-.3.5,17.411,17.411,0,0,0,1.4-1.2A2.1,2.1,0,0,0,55.2,48Zm2.7-.7a1.991,1.991,0,0,0-.8,1.2,11.985,11.985,0,0,0,1.1-1.2Zm-8.1.1a8.51,8.51,0,0,0,.6,1.7,5.768,5.768,0,0,0-.3-1.4C50,47.5,49.9,47.5,49.8,47.4Zm1,0c.1.6.4,1.1.5,1.6A2.352,2.352,0,0,0,50.8,47.4Zm13.2,0a13.4,13.4,0,0,1,.1,2c.3-.3.2-.8.2-1.2C64.2,47.9,64.3,47.5,64,47.4Zm-1.9.1a11.627,11.627,0,0,0,.4,1.8,4.329,4.329,0,0,0-.1-1.6A1.439,1.439,0,0,1,62.1,47.5Zm2.7,0a5.079,5.079,0,0,1,.3,1.7,2.228,2.228,0,0,0,0-1.4C65.1,47.6,65,47.6,64.8,47.5Zm.8,0c.1.6.1,1.3.2,1.9a3.788,3.788,0,0,0,0-1.5C65.9,47.7,65.7,47.6,65.6,47.5Zm-2.4.8a4.1,4.1,0,0,1,.1,1.1,2.491,2.491,0,0,0-.2-1.9C63.1,47.8,63.2,48.1,63.2,48.3Zm-1.9-.6c0,.6.2,1.1.2,1.7A2.059,2.059,0,0,0,61.3,47.7Zm-9.3.2v1.8a3.333,3.333,0,0,0,.2-1.7C52.2,47.9,52.1,47.9,52,47.9Zm14.4-.1a6.729,6.729,0,0,0,.1,2A4.441,4.441,0,0,0,66.4,47.8ZM53,48.6a1.209,1.209,0,0,0-.3,1,4.812,4.812,0,0,0,.8-1.6C53.3,48.1,53.2,48.4,53,48.6Zm7.4-.6a12.233,12.233,0,0,1,.3,1.7,2.573,2.573,0,0,0-.1-1.5A.215.215,0,0,0,60.4,48Zm-.9.1a9.363,9.363,0,0,0,.4,1.6C59.8,49.1,59.9,48.4,59.5,48.1Zm-.9.1a5.274,5.274,0,0,0,.3,1.2,3.178,3.178,0,0,0,.3.9,5.019,5.019,0,0,0-.2-1.2C58.9,48.7,58.9,48.4,58.6,48.2Zm-3.3,1.6c.3-.1.4-.4.6-.6.2-.3.5-.5.6-.9A3,3,0,0,0,55.3,49.8Zm2.3-1a2.016,2.016,0,0,0-.3,1.1,3.79,3.79,0,0,0,.6-1.3C57.8,48.6,57.7,48.6,57.6,48.8Zm-2.8.4a1.524,1.524,0,0,0-.6,1,7.272,7.272,0,0,0,.8-.9c.2-.3.4-.5.6-.8A2.853,2.853,0,0,0,54.8,49.2Zm-1,.2c-.2.3-.5.5-.4.9.5-.3.7-.9,1-1.4A1.024,1.024,0,0,0,53.8,49.4Zm-9.4-.3a4.006,4.006,0,0,0,.8,2.3l-.3-.9C44.7,50,44.6,49.5,44.4,49.1Zm1.7-.1a2.716,2.716,0,0,0,.6,1.7A6.973,6.973,0,0,0,46.1,49Zm3,.1a14.814,14.814,0,0,0,.3,1.9,4.329,4.329,0,0,0-.1-1.6C49.3,49.3,49.2,49.1,49.1,49.1Zm7.1.8a3.45,3.45,0,0,0,.9-.8C56.6,49.1,56.4,49.6,56.2,49.9Zm2-.9a2.22,2.22,0,0,0,.1,1.6c0-.4.1-.8.1-1.2A.758.758,0,0,0,58.2,49Zm-10.1.2a8.469,8.469,0,0,0,.4,1.7,8.752,8.752,0,0,0-.2-1.6A.349.349,0,0,1,48.1,49.2Zm-.9.3a4.191,4.191,0,0,0,.4,1.5A3.707,3.707,0,0,0,47.2,49.5Zm3,0a8.6,8.6,0,0,0,.1,1.6c.3-.5.1-1.1.2-1.6Zm-4.8,0a3.506,3.506,0,0,0,.6,1.4C45.8,50.4,45.6,50,45.4,49.5Zm19.6.1a9,9,0,0,0,.3,1.6,2.769,2.769,0,0,0,.1-.9C65.3,50,65.3,49.6,65,49.6Zm-1.8,0a10.794,10.794,0,0,0,.3,1.9,1.7,1.7,0,0,0,.1-.7C63.4,50.4,63.5,49.9,63.2,49.6Zm1.1,1.8a3.722,3.722,0,0,0-.2-1.8A9.907,9.907,0,0,0,64.3,51.4Zm1.6-1.7c.1.5.1,1,.2,1.5A1.6,1.6,0,0,0,65.9,49.7Zm-3.6.1a11.019,11.019,0,0,0,.2,1.8,4.3,4.3,0,0,0,0-1.6Zm-1.9.2c.1.6.2,1.1.3,1.7a2.556,2.556,0,0,0,0-1.5C60.6,50,60.5,50,60.4,50Zm1.1,0c.1.5.1,1,.2,1.6a3.788,3.788,0,0,0,0-1.5A.31.31,0,0,0,61.5,50Zm-10.3.3-.3,1.5a12.665,12.665,0,0,0,.6-1.8Q51.2,50.15,51.2,50.3Zm.6,1.1a9.382,9.382,0,0,0,.9-1.2A1.863,1.863,0,0,0,51.8,51.4Zm3-.2a1.949,1.949,0,0,0,1-1A1.949,1.949,0,0,0,54.8,51.2Zm4.9-1.1c.1.5.1,1,.2,1.5a2.079,2.079,0,0,0,.1-1.1C59.9,50.3,59.8,50.1,59.7,50.1Zm-6.2,1.7c.2-.2.4-.5.6-.7a1.794,1.794,0,0,0,.5-.7A2.028,2.028,0,0,0,53.5,51.8Zm2.3.1.9-1.5A2.551,2.551,0,0,0,55.8,51.9Zm-3,.2a6.894,6.894,0,0,0,.7-1.5A1.683,1.683,0,0,0,52.8,52.1Zm4.2-1a4.013,4.013,0,0,0-.3,1.5,12.665,12.665,0,0,0,.6-1.8Q57.15,50.8,57,51.1Zm1.9-.5c0,.6.1,1.2.1,1.8A2.749,2.749,0,0,0,58.9,50.6Zm-1.1.6a3.812,3.812,0,0,0,.1,1.5,7.569,7.569,0,0,0,.1-1.5Zm-11.4,0a5.782,5.782,0,0,0,.5,1.4A2.654,2.654,0,0,0,46.4,51.2Zm1.5,1.7a9.7,9.7,0,0,0-.1-1.7A4.879,4.879,0,0,0,47.9,52.9Zm.8-1.3a3.178,3.178,0,0,0,.2,1.4,4.854,4.854,0,0,0,0-1.7C48.8,51.4,48.7,51.5,48.7,51.6Zm.9,1.5a7.772,7.772,0,0,0,.2-1.6A4.4,4.4,0,0,0,49.6,53.1Zm4.4.5c.1-.7.4-1.3.5-1.9A2.237,2.237,0,0,0,54,53.6Zm10.9-1.9a14.769,14.769,0,0,1-.1,2.1,4.671,4.671,0,0,0,.3-1.7A.4.4,0,0,0,64.9,51.7Zm.9,0a13.334,13.334,0,0,0,0,2A4.678,4.678,0,0,0,66,52C66,51.9,65.8,51.8,65.8,51.7Zm-13.9.5a4.193,4.193,0,0,0-.4,1.6c.3-.6.5-1.3.8-1.9C52.1,51.9,52,52,51.9,52.2ZM64,51.7a13.352,13.352,0,0,0,0,2,1.077,1.077,0,0,0,.2-.8A1.322,1.322,0,0,0,64,51.7Zm2.5.1a16.2,16.2,0,0,1-.1,2.2,4.013,4.013,0,0,0,.3-1.5A.844.844,0,0,0,66.5,51.8Zm-6.9,0a4.854,4.854,0,0,0,0,1.7A2.483,2.483,0,0,0,59.6,51.8Zm3.5.8a4.819,4.819,0,0,0,0,1.2,4.133,4.133,0,0,0,.2-1.9C63,52,63.1,52.4,63.1,52.6ZM50.2,53.8a5.663,5.663,0,0,0,.3-1.8A2.777,2.777,0,0,0,50.2,53.8Zm4.6,0h0a12.09,12.09,0,0,0,.5-1.8A2.383,2.383,0,0,0,54.8,53.8ZM60.3,52v1.9a2.622,2.622,0,0,0,.2-1.5C60.6,52.2,60.5,52.1,60.3,52Zm1,.1a9.7,9.7,0,0,1-.1,1.7h.2a9.853,9.853,0,0,0,.2-1.7Zm.8-.1v1.7a1.939,1.939,0,0,0,.2-1.5C62.4,52.1,62.3,52.1,62.1,52Zm-3.7.1a4.819,4.819,0,0,0,0,1.2.735.735,0,0,0,.2.6C58.6,53.3,58.8,52.6,58.4,52.1Zm-5.5,2c.1-.3.2-.7.3-1.1.1-.2.3-.5.2-.7A2.573,2.573,0,0,0,52.9,54.1Zm3,0a8.585,8.585,0,0,0,.3-1.7C55.7,52.8,55.8,53.5,55.9,54.1Zm-5-1.2a9,9,0,0,0-.3,1.6,5.84,5.84,0,0,0,.4-1.8A.349.349,0,0,1,50.9,52.9Zm1.3.6a7.772,7.772,0,0,0-.2,1.6,17.983,17.983,0,0,1,.6-2.2A.548.548,0,0,0,52.2,53.5ZM57,53a2.573,2.573,0,0,0,.1,1.5V52.9Zm-10.4.1c.1.5.4,1,.5,1.5A2.7,2.7,0,0,0,46.6,53.1Zm1.1.5a5.262,5.262,0,0,0,.4,1.8,13.664,13.664,0,0,0-.2-1.9C47.8,53.5,47.7,53.5,47.7,53.6Zm10,0a2.2,2.2,0,0,0,.1,1.4,4.819,4.819,0,0,0,0-1.2A.349.349,0,0,0,57.7,53.6Zm-8.9.3a9.7,9.7,0,0,0,.1,1.7V53.7A.31.31,0,0,0,48.8,53.9Zm4.7-.1a2.9,2.9,0,0,0,0,1.6,8.753,8.753,0,0,0,.2-1.6A.139.139,0,0,1,53.5,53.8Zm-3.9.5a4.067,4.067,0,0,0,0,1.9c.1-.6.1-1.3.2-1.9Zm4.8,1.9a14.769,14.769,0,0,1-.1-2.1A3.015,3.015,0,0,0,54.4,56.2Zm4.2-.3a3.673,3.673,0,0,0,.1-1.8A5.462,5.462,0,0,0,58.6,55.9Zm.5-.3a1.632,1.632,0,0,0,.2-1.5C59.2,54.6,59.2,55.1,59.1,55.6Zm.6.1a3.812,3.812,0,0,0,.1-1.5A7.569,7.569,0,0,0,59.7,55.7Zm2-.9a3.6,3.6,0,0,1-.2,1.1,1.939,1.939,0,0,0,.3-1.8C61.7,54.3,61.8,54.6,61.7,54.8Zm-1.1-.4a11.019,11.019,0,0,1-.2,1.8,2.543,2.543,0,0,0,.4-1.7C60.8,54.4,60.7,54.4,60.6,54.4Zm2.4,0a5.84,5.84,0,0,1-.4,1.8,4.245,4.245,0,0,0,.6-1.9A.349.349,0,0,1,63,54.4Zm1.6,1.8a2.656,2.656,0,0,0,.4-1.9A12.86,12.86,0,0,0,64.6,56.2ZM63.9,55c0,.4-.2.8-.2,1.3a3.018,3.018,0,0,0,.5-1.9C63.9,54.5,63.9,54.8,63.9,55Zm1.8-.5a12.5,12.5,0,0,0-.3,1.9,3.018,3.018,0,0,0,.5-1.9ZM55.2,56.1c0-.5.1-1,.1-1.6A1.81,1.81,0,0,0,55.2,56.1ZM56,55a3.75,3.75,0,0,0,.1,1.1,7.569,7.569,0,0,0,.1-1.5A.52.52,0,0,0,56,55Zm-4.9.2a4.3,4.3,0,0,0,0,1.6c.1-.7.1-1.3.2-2C51.3,55,51.1,55.1,51.1,55.2Zm5.9-.1c.1.4,0,1,.3,1.3a5.7,5.7,0,0,0-.1-1.3Zm-6.7.6c.1.5.1,1,.2,1.4a13.352,13.352,0,0,0,0-2C50.2,55.2,50.3,55.5,50.3,55.7Zm2.5,1.2V55.2A1.718,1.718,0,0,0,52.8,56.9Zm-4.5-1.1a3.63,3.63,0,0,0,.7,1.7c-.1-.4-.3-.8-.4-1.2C48.5,56,48.5,55.8,48.3,55.8Zm3.4.6a6.15,6.15,0,0,0,.1,1.4c0-.7.1-1.4.1-2.2A1.345,1.345,0,0,0,51.7,56.4Zm6.2-.4c0,.3.1.7.1,1a1.729,1.729,0,0,0,.1-1A.139.139,0,0,0,57.9,56Zm-4.6,0a4.678,4.678,0,0,0,.2,1.7,8.6,8.6,0,0,0-.1-1.6C53.5,56.1,53.4,56,53.3,56Zm5.7.6c.3-.1.2-.4.2-.6C59,56.1,59,56.4,59,56.6Zm-4.1-.2a3.545,3.545,0,0,0,.3,1.1c0-.4-.1-.8-.1-1.1Zm.8,0a1.4,1.4,0,0,0,.3.9,3.751,3.751,0,0,0-.1-1A.31.31,0,0,1,55.7,56.4Zm1.2.9a1.729,1.729,0,0,0-.1-1A.92.92,0,0,0,56.9,57.3Zm2.7-.8L59.3,58a2.6,2.6,0,0,0,.4-1.5ZM61.3,58a2.976,2.976,0,0,0,.5-1.5A2.7,2.7,0,0,0,61.3,58Zm1.2-1.5a8.469,8.469,0,0,0-.4,1.7,3.486,3.486,0,0,0,.6-1.7Zm-13.1,0c0,.2-.1.4,0,.6a3.506,3.506,0,0,0,.6,1.4C49.7,57.8,49.6,57.1,49.4,56.5ZM60.2,58a2.026,2.026,0,0,0,.4-1.5A8.331,8.331,0,0,0,60.2,58Zm3.2-.8a4.874,4.874,0,0,1-.4,1.1,2.928,2.928,0,0,0,.7-1.6C63.5,56.7,63.4,57,63.4,57.2Zm1,0a10.907,10.907,0,0,1-.6,1.1,1.38,1.38,0,0,0,.4-.3,2.513,2.513,0,0,0,.6-1.4C64.6,56.7,64.5,57,64.4,57.2Zm-10,1.1a9.971,9.971,0,0,0-.2-1.6C53.9,57.2,54.2,57.8,54.4,58.3Zm4.1.1a1.845,1.845,0,0,0,.5-1.6A14.241,14.241,0,0,0,58.5,58.4ZM58,57.1a5.652,5.652,0,0,0,0,1.3,2.953,2.953,0,0,0,.2-1.3Zm6.2,1.7a2.809,2.809,0,0,0,1-1.2c.1-.2.1-.4.2-.6Zm-7.1-1.3v1.1c.3-.4.1-.9.2-1.4C57.2,57.3,57.1,57.4,57.1,57.5Zm-6.8,0a1.872,1.872,0,0,0,.5,1.4A3.36,3.36,0,0,0,50.3,57.5Zm5.8-.1a1.258,1.258,0,0,0,.2,1.3A5.852,5.852,0,0,0,56.1,57.4Zm-3.8.6a3.194,3.194,0,0,0,.3,1.4c-.1-.6-.1-1.2-.2-1.8C52.3,57.7,52.2,57.8,52.3,58Zm-1.1.3a6.117,6.117,0,0,0,.5,1.2,13.636,13.636,0,0,1-.4-1.7C51.1,57.8,51.1,58.1,51.2,58.3Zm1.7-.5a4.424,4.424,0,0,0,.5,1.5,11.044,11.044,0,0,0-.3-1.6A.349.349,0,0,0,52.9,57.8Zm2.3,0c-.1.4.2.8.4,1.1A4.875,4.875,0,0,0,55.2,57.8Zm-1.2.7a2.506,2.506,0,0,0,.4.7,1.854,1.854,0,0,0-.2-.7C54.2,58.4,54,58.5,54,58.5Zm4.9,1.4a1.8,1.8,0,0,0,.7-1.5A6.893,6.893,0,0,0,58.9,59.9Zm.7.2a4.44,4.44,0,0,0,.8-1.1c.1-.1,0-.3,0-.5C60.1,59,59.9,59.5,59.6,60.1Zm2.7-1.4a11.906,11.906,0,0,0-.9,1.5,5.826,5.826,0,0,0,1.1-1.5Zm-1,.1a5.388,5.388,0,0,0-.7,1.3,3.587,3.587,0,0,0,1-1.4A.438.438,0,0,0,61.3,58.8ZM63,59c-.2.4-.5.7-.7,1.1a2.122,2.122,0,0,0,1-1.3C63.2,58.8,63.1,58.9,63,59Zm-4.6-.2c-.2.4-.3.9-.5,1.3v.2a2.274,2.274,0,0,0,.6-1.2C58.5,59,58.4,58.9,58.4,58.8Zm-1.2,1.6a4.013,4.013,0,0,0,.3-1.5A2.7,2.7,0,0,0,57.2,60.4Zm-.9-1.2a5.852,5.852,0,0,0,.2,1.3,6.552,6.552,0,0,0,0-1.4C56.5,59.2,56.4,59.2,56.3,59.2Zm-1.3.2c.2.5.4,1.1,1,1.2-.3-.4-.5-.8-.8-1.2A.139.139,0,0,0,55,59.4Zm-.8.1a2.03,2.03,0,0,0,1.1,1.3A12.667,12.667,0,0,1,54.2,59.5Zm-1,.1a1.738,1.738,0,0,0,.6,1.1c-.1-.3-.3-.7-.4-1A.349.349,0,0,1,53.2,59.6Zm.7.5a2.651,2.651,0,0,0,.5.6l-.3-.6ZM58,61a2.047,2.047,0,0,0,.8-.8C58.4,60.2,58.2,60.7,58,61Zm.8,0a1.387,1.387,0,0,0,.7-.8A1.779,1.779,0,0,0,58.8,61Zm-2-.3a.764.764,0,0,0,.2.5,1.087,1.087,0,0,0,.1-.5C57.1,60.6,56.9,60.7,56.8,60.7Z" fill="#223f4a"/>
      <path id="Path_6916" data-name="Path 6916" d="M64.3,62.6h.2a.454.454,0,0,1,0,.5,11.8,11.8,0,0,1-3.1,3.2c-.7.5-1.3.9-2,1.4a17.79,17.79,0,0,1-3,1.7,21.491,21.491,0,0,1-3.2,1.3c-.8.2-1.7.5-2.5.7-2,.3-4,.8-6,.9a32.33,32.33,0,0,1-4.4.1,18.609,18.609,0,0,1-3.4-.4,35.886,35.886,0,0,1-3.5-.8,18.667,18.667,0,0,1-3.2-1.5,18.576,18.576,0,0,1-1.9-1.1,19.165,19.165,0,0,1-2.2-1.8A13.019,13.019,0,0,1,24.6,65a10.475,10.475,0,0,1-.8-1.1c-.1-.1-.1-.2-.1-.4.1,0,.3.1.4.1.1.6.7.9,1,1.4a10.483,10.483,0,0,0,2,2.2,17.1,17.1,0,0,1,1.4,1.1,19.918,19.918,0,0,0,1.9,1.2c1,.5,1.9,1,2.9,1.4A57.823,57.823,0,0,0,39,72.1a28.121,28.121,0,0,0,5.8-.1,10.284,10.284,0,0,1,1.7-.1c1.4-.2,2.7-.6,4.1-.7a25.044,25.044,0,0,0,2.6-.7,13.063,13.063,0,0,0,2.1-.8c1-.4,1.9-.9,2.9-1.4a16.444,16.444,0,0,0,2.2-1.4A13.29,13.29,0,0,0,63,64.8C63.4,64,63.9,63.4,64.3,62.6Z" fill="#247082"/>
    </g>
  </g>
</svg>
