<svg id="avatar-5" xmlns="http://www.w3.org/2000/svg" xmlns:xlink="http://www.w3.org/1999/xlink" width="86" height="86" viewBox="0 0 86 86">
  <defs>
    <clipPath id="clip-path">
      <circle id="Ellipse_405" data-name="Ellipse 405" cx="43" cy="43" r="43"/>
    </clipPath>
  </defs>
  <g id="Group_6484" data-name="Group 6484" clip-path="url(#clip-path)">
    <rect id="Rectangle_1438" data-name="Rectangle 1438" width="86" height="86" fill="#c5d2ff"/>
  </g>
  <g id="Group_6488" data-name="Group 6488" clip-path="url(#clip-path)">
    <g id="Group_6485" data-name="Group 6485">
      <path id="Path_7968" data-name="Path 7968" d="M50.5,18a17.216,17.216,0,0,1,6,.3,9.4,9.4,0,0,1,3.2,1.5,5.008,5.008,0,0,1,1.8,2,6.652,6.652,0,0,1,2.4.7A10.353,10.353,0,0,1,67.6,26a21.109,21.109,0,0,1,2.5,5.5,18.815,18.815,0,0,1,.5,3.3c.1,1.5.2,3,.2,4.5a20.883,20.883,0,0,1-.8,5c-.4,1.3-.9,2.6-1.4,3.9a22.079,22.079,0,0,0-1.3,6.3,4.106,4.106,0,0,0,1.1,2.8c1,1,2.5,1.4,3.6,2.4,1.5,1.1,2.9,2.6,2.9,4.5a6.529,6.529,0,0,1-.5,2,27.51,27.51,0,0,0-1.4,3,3.776,3.776,0,0,0,.3,3.1,21.1,21.1,0,0,1,1.6,3.4,4.061,4.061,0,0,1-.5,2.1A3,3,0,0,1,72.9,79a8.331,8.331,0,0,1-1.5.4,5.228,5.228,0,0,1-1.6-.6,10.382,10.382,0,0,1-1.7-1.2A24.051,24.051,0,0,1,66,75.2,14.528,14.528,0,0,1,64.2,72a17.571,17.571,0,0,1-1.3-5,4.253,4.253,0,0,0-.2,1.1,25.945,25.945,0,0,0,.4,5.6c.2.9.5,1.8.7,2.7a8.78,8.78,0,0,0,.7,2.3,13.122,13.122,0,0,0,2.7,3.5,9.428,9.428,0,0,1,1,1c.1.1.2.4,0,.5a3.8,3.8,0,0,1-1.8.3,6.819,6.819,0,0,1-2.7-1,10.038,10.038,0,0,1-2.6-2,10.7,10.7,0,0,1-1.4-1.6c-.3-.6-.7-1.1-1-1.7a16.587,16.587,0,0,1-1.2-3.1,24.038,24.038,0,0,1-1.6-6.4,4.4,4.4,0,0,0-.2-1c0,.7-.1,1.3-.1,2a25.726,25.726,0,0,0,.6,6.8c.2.8.5,1.7.7,2.5a12.358,12.358,0,0,0,2.9,5.4,9.36,9.36,0,0,0,2.1,2.8,1.128,1.128,0,0,1,.3,1.1c-.1.3-.4.4-.7.5a7.771,7.771,0,0,1-5.1-1.4,14.473,14.473,0,0,1-6.2-7.8,19.953,19.953,0,0,1-.9-3.5,16.962,16.962,0,0,1-.1-4.5,13.565,13.565,0,0,1,.6-2.9c.6-.1.9-.7,1.3-1,.6-.5,1.2-1.1,1.8-1.6a28.329,28.329,0,0,0,2.8-2.3,27.948,27.948,0,0,0,3.8-3.9,28.514,28.514,0,0,0,2.6-4.1,18.667,18.667,0,0,0,1.5-3.2c.1-.4.5-.5.9-.7a7.241,7.241,0,0,0,3.7-4,5.134,5.134,0,0,0,.7-2.4,23.857,23.857,0,0,1-1.2,2.2c-.2.2-.6.3-.8.5a4.355,4.355,0,0,1-1.6,1c-.5.1-1.1.2-1.6.3-.1,0-.2,0-.3.2a13.7,13.7,0,0,1-1.5,3.5,31.36,31.36,0,0,1-1.8,3.1,15.757,15.757,0,0,1-1.2,1.5,5.845,5.845,0,0,1-1.3,1.4c-.7.4-1.3.9-2,1.3a5.783,5.783,0,0,1-1.4.5c-.6.2-1.2.6-1.9.8.9-1.7,1.7-3.3,2.7-4.9a69.01,69.01,0,0,0-7.8-.9,85.076,85.076,0,0,0-8.8-.4,12.034,12.034,0,0,0-1.9,0,1.7,1.7,0,0,0-.1.7c-.2-.2-.5-.4-.6-.7a24.426,24.426,0,0,0-1-2.4,18.661,18.661,0,0,1-.7-2.2,9.7,9.7,0,0,1-.1-1.7c0-.5-.3-1.1-.2-1.6a20.023,20.023,0,0,1,.4-2.4.481.481,0,0,0-.2-.6,1.421,1.421,0,0,0-.6.2c-.1,0-.2-.1-.3-.1a3.352,3.352,0,0,0,0-1,5.008,5.008,0,0,0-.7-.8c-.5-.5-.7-1.2-1.3-1.5.1-1.1.6-2,.7-3.1a7.332,7.332,0,0,0-1.2,3.2,6.893,6.893,0,0,0-.1,3.5,2.92,2.92,0,0,1,.2.9,3.328,3.328,0,0,1-.6,1A16.579,16.579,0,0,0,28.3,50c-.3.9-.7,1.8-1.1,2.8-.5,1.3-.8,2.6-1.3,3.9l-.3.9c.9-1.4,1.3-3,2.1-4.4,1.2-2.1,2.9-4,4-6.2.2.2.4.3.5.5a1.388,1.388,0,0,1,0,.9c-.1,1.1-.1,2.3-.1,3.4a8.662,8.662,0,0,0,.6,3.2c.4,1.1.7,2.2,1.1,3.2a19.753,19.753,0,0,1,.8,2.6,5.022,5.022,0,0,1,.2,2.1,22.131,22.131,0,0,1-1.5,5,20.642,20.642,0,0,1-3.5,5.2,10.512,10.512,0,0,1-2.9,2.3c-.4.2-.8,0-1.2-.1.3-1.3,1.3-2.1,2-3.1a31.72,31.72,0,0,0,2.4-4.9,26.118,26.118,0,0,0,1.4-5.5h-.3a24.371,24.371,0,0,1-1.4,2.8l-1.5,2.7a21.285,21.285,0,0,1-1.6,2.5,20.277,20.277,0,0,0-1.3,1.8,18.835,18.835,0,0,1-3.3,3.6,6.106,6.106,0,0,1-1.3-.3c.3-.5.7-1,1-1.6A35.707,35.707,0,0,0,25.2,69l-.6.6c-1.1,1.3-2.3,2.4-3.4,3.6a4.2,4.2,0,0,1-1.4.9,3.528,3.528,0,0,0-1.3-.8c-.1-.1-.2-.3-.3-.4-.1-.2-.2-.3-.2-.5.1-.2.3-.3.4-.4a25.757,25.757,0,0,0,3.4-3.2c.6-.8,1.2-1.6,1.7-2.4s.8-1.6,1.3-2.4a24.762,24.762,0,0,1,1.9-2.6,31.01,31.01,0,0,0,2.7-5.1,4.282,4.282,0,0,0,.6-2.2,31.824,31.824,0,0,1-1.6,3.2,37.918,37.918,0,0,1-3,4,19.677,19.677,0,0,1-2.5,2.5,16.38,16.38,0,0,1-2.6,2,14.045,14.045,0,0,1-2.9,0c-.1-.1-.2-.2-.3-.2a9.13,9.13,0,0,1,.8-1.3,23.759,23.759,0,0,0,2.6-5,24.543,24.543,0,0,0,.8-2.9c.5-.5,1-.9,1.5-1.5a22.733,22.733,0,0,0,3.3-4.8,8.428,8.428,0,0,0,.6-1.4c-.4.7-.9,1.3-1.3,2a17.526,17.526,0,0,1-4.6,4.8c-.9.6-1.9,1-2.8,1.5a2.324,2.324,0,0,1-2,.1c-.1,0-.1-.1-.2-.1h0a5.347,5.347,0,0,1,1.3-1.3c1.2-1.1,2.6-2,3.8-3.1a26.706,26.706,0,0,0,3.8-4.4,40.369,40.369,0,0,0,2.9-5.9c.8-1.9,1.7-3.8,2.6-5.6a47.09,47.09,0,0,1,3.2-5.8,48.432,48.432,0,0,1,3-4.4,23.768,23.768,0,0,1,3.5-3.6A19.526,19.526,0,0,1,50.5,18Z" fill="#ff227d"/>
      <path id="Path_7969" data-name="Path 7969" d="M45.9,30.2c1,0,2.1-.2,3.1-.1-1.7.1-3.4,0-5.1.2l-1.8.3A9.68,9.68,0,0,1,45.9,30.2Z" fill="#f9f8dc"/>
      <path id="Path_7970" data-name="Path 7970" d="M39,31.6a.6.6,0,0,1,.4-.1C39.5,31.8,38.8,31.9,39,31.6Z" fill="#fff"/>
      <path id="Path_7971" data-name="Path 7971" d="M52.3,61.3c-.8.3-1.7.4-2.4.7a8.525,8.525,0,0,1-3.2.2,8.165,8.165,0,0,1-2.7-.6,12.234,12.234,0,0,1-2.4-1,8.65,8.65,0,0,1-1-.7,13.028,13.028,0,0,0-1.5-1,11.9,11.9,0,0,1-1.9-2,5.008,5.008,0,0,0-.7-.8v-.3c-.2-.2-.5-.4-.6-.7,0-.1,0-.1-.1-.2.2,1.3.4,2.6.5,3.9a33.031,33.031,0,0,0,3,2.2,22.908,22.908,0,0,0,8.9,2.6,6.608,6.608,0,0,0,2.8,0c.5-.8.9-1.6,1.4-2.4A.1.1,0,0,1,52.3,61.3Z" fill="#d3826c"/>
      <path id="Path_7972" data-name="Path 7972" d="M36.6,55a12.034,12.034,0,0,1,1.9,0,86.366,86.366,0,0,1,8.8.4,69.01,69.01,0,0,1,7.8.9c-.9,1.6-1.8,3.3-2.7,4.9-.8.3-1.7.4-2.4.7a8.525,8.525,0,0,1-3.2.2,8.165,8.165,0,0,1-2.7-.6,12.234,12.234,0,0,1-2.4-1,8.65,8.65,0,0,1-1-.7,13.028,13.028,0,0,0-1.5-1,11.9,11.9,0,0,1-1.9-2,5.008,5.008,0,0,0-.7-.8v-.3A.846.846,0,0,1,36.6,55Z" fill="#1b4e61"/>
      <path id="Path_7973" data-name="Path 7973" d="M20.5,56.8a3.79,3.79,0,0,0,1.3-.6c-.3,1-.5,1.9-.8,2.9-.9.4-1.8-.1-2.7-.3a2.891,2.891,0,0,1-2-1.4c.1,0,.2-.1.3-.2a6.753,6.753,0,0,0,1.4.2A7.052,7.052,0,0,0,20.5,56.8Z" fill="#3367db"/>
      <path id="Path_7974" data-name="Path 7974" d="M16.1,56.7l.1.1c.1,0,.1.1.2.1,0,.1.1.2.1.3-.1,0-.2.1-.3.2A1.952,1.952,0,0,1,16.1,56.7Z" fill="#e1ddbd"/>
      <path id="Path_7975" data-name="Path 7975" d="M16.2,57.3c.1,0,.2-.1.3-.2l.1.1c-.1,0-.2.1-.3.2a3.228,3.228,0,0,0,2,1.4c.9.2,1.8.7,2.7.3a19.855,19.855,0,0,1-2.6,5,5.67,5.67,0,0,0-.8,1.3c.1.1.2.2.3.2h-.4c.1.2.1.4.3.6a5.109,5.109,0,0,0,3.9,1.4,1.844,1.844,0,0,0,1.3-.4c.3-.3.5-.6.8-.9a14.648,14.648,0,0,1-1.7,2.4,17.215,17.215,0,0,1-3.4,3.2.781.781,0,0,0-.4.4.764.764,0,0,0,.2.5c-.1.2-.3.3-.3.5a5.105,5.105,0,0,0,.3,2.1c.1.4.4.6.8.8a17.546,17.546,0,0,0,2.4,1.1.854.854,0,0,0,.7,0,5.372,5.372,0,0,0,1.6-1,2.36,2.36,0,0,0,.7,1.6,2.455,2.455,0,0,0,2.6.4A7.552,7.552,0,0,0,29.6,77a19.988,19.988,0,0,0,2.6-2.4,19.481,19.481,0,0,0,2.7-3.7c.8-1.2,1.4-2.5,2.1-3.8.4-.7.6-1.4,1-2.1a15.122,15.122,0,0,0,4.5,2,22.552,22.552,0,0,0,5.1.8,19.269,19.269,0,0,1-.1,2.4,14.27,14.27,0,0,0,.6,6.8c.4,1,.6,2,1,3a16.231,16.231,0,0,0,4.2,6.7c.7.5,1.3,1.2,2,1.6a6.236,6.236,0,0,0,3.4,1.1,4.539,4.539,0,0,0,2.3-.8v-.2c.3-.1.6-.2.7-.5a1.128,1.128,0,0,0-.3-1.1A11.41,11.41,0,0,1,59.3,84a9.853,9.853,0,0,1-.2-1.7A13.3,13.3,0,0,0,61,83.7a5.615,5.615,0,0,0,4.2.7c.4-.1.8-.1,1.2-.2-.1,0-.2-.1-.4-.1a5.23,5.23,0,0,0,1.8-.3c.2-.1.1-.4,0-.5a9.428,9.428,0,0,0-1-1,13.122,13.122,0,0,1-2.7-3.5A11.781,11.781,0,0,0,66,79.9a5.45,5.45,0,0,0,2.2.5,7.045,7.045,0,0,0,2.9-.4,2.523,2.523,0,0,0,1.5-1,3,3,0,0,0,1.5-1.2,4.061,4.061,0,0,0,.5-2.1,20.236,20.236,0,0,0-.4-2.6,16.2,16.2,0,0,1-.1-2.2c.5.5,1.1.8,1.6,1.3a19.927,19.927,0,0,1,3.2,3.3c.5.8,1.2,1.5,1.7,2.3.7,1-36.1,9-35.6,10.1.8,1.4-19.542-3.5-19.542-3.5L10.981,73.3,4.506,63.172A8.528,8.528,0,0,1,7.9,61.3a36.175,36.175,0,0,0,5.5-2A11.018,11.018,0,0,1,16.2,57.3Z" fill="#6e8bf4"/>
      <path id="Path_7976" data-name="Path 7976" d="M36.2,58.7A17.8,17.8,0,0,0,39.3,61a22.908,22.908,0,0,0,8.9,2.6,7.083,7.083,0,0,0,2.9,0,21.806,21.806,0,0,0-1.6,4.5,14.961,14.961,0,0,0-.6,2.9,16.963,16.963,0,0,0,.1,4.5c.2,1.2.6,2.3.9,3.5a14.125,14.125,0,0,0,6.2,7.8,7.771,7.771,0,0,0,5.1,1.4v.2a4.89,4.89,0,0,1-2.3.8,5.987,5.987,0,0,1-3.4-1.1,7.831,7.831,0,0,1-2-1.6,16.231,16.231,0,0,1-4.2-6.7c-.4-1-.6-2-1-3a15.646,15.646,0,0,1-.6-6.8,9.662,9.662,0,0,0,.1-2.4,21.708,21.708,0,0,1-5.1-.8,18.177,18.177,0,0,1-4.5-2c-.4.7-.6,1.4-1,2.1-.7,1.3-1.4,2.6-2.1,3.8a25.076,25.076,0,0,1-2.7,3.7,19.989,19.989,0,0,1-2.6,2.4,17.1,17.1,0,0,1-2.3,1.3,2.486,2.486,0,0,1-2.6-.4,2.928,2.928,0,0,1-.7-1.6c-.5.3-1,.7-1.6,1a.854.854,0,0,1-.7,0A25.571,25.571,0,0,1,19.5,76a1.549,1.549,0,0,1-.8-.8,5.105,5.105,0,0,1-.3-2.1.85.85,0,0,1,.3-.5c.1.1.2.3.3.4a3.775,3.775,0,0,0,1,1.2c.2.2.5.4.7.3a7.456,7.456,0,0,0,1.7-1.4c-.3.6-.7,1-1,1.6a6.107,6.107,0,0,0,1.3.3A22.379,22.379,0,0,0,26,71.4c.5-.6.8-1.2,1.3-1.8-.2.6-.5,1.1-.7,1.7-.2.7-.6,1.4-.8,2.1a3.36,3.36,0,0,0-.5,1.4,1.2,1.2,0,0,0,.9,1.2,2.247,2.247,0,0,0,1.8-.2,10.175,10.175,0,0,0,3.2-2.6,25.5,25.5,0,0,0,3-5c.3-.6.5-1.2.8-1.9a24.551,24.551,0,0,0,1-4.7A14.645,14.645,0,0,1,36.2,58.7Z" fill="#3367db"/>
      <path id="Path_7977" data-name="Path 7977" d="M24.2,64.4a8.7,8.7,0,0,1,1.1-.9c0,.1-.1.2-.1.3-.5.8-.8,1.6-1.3,2.4-.3.3-.5.6-.8.9a2.2,2.2,0,0,1-1.3.4,5.109,5.109,0,0,1-3.9-1.4c-.2-.2-.2-.4-.3-.6H18a9.4,9.4,0,0,0,2.9,0A5.682,5.682,0,0,0,24.2,64.4Z" fill="#3367db"/>
      <path id="Path_7978" data-name="Path 7978" d="M50.4,21.1a6.552,6.552,0,0,1,1.4,0,22.538,22.538,0,0,0-6.7,3,20.2,20.2,0,0,0-4.5,3.7c-.4.4-.7,1-1.1,1.4a10.292,10.292,0,0,1,2.9-4.6,12.406,12.406,0,0,1,5-3.1A27.188,27.188,0,0,1,50.4,21.1Zm11.4,1.2a3.839,3.839,0,0,1-1.5,2.4A15.221,15.221,0,0,1,54.9,27a29,29,0,0,1-6.5,1.4,28.958,28.958,0,0,0-4.1.6,10.434,10.434,0,0,0-2.5.8,15.054,15.054,0,0,0-2.2,1.1,1.344,1.344,0,0,0-.6.7.6.6,0,0,1,.4-.1c.9-.3,1.7-.7,2.7-1a12.629,12.629,0,0,1,3.9-.4c1,0,2.1-.2,3.1-.1.2,0,.4.1.7.1a19.932,19.932,0,0,0,3.4-.5,8.279,8.279,0,0,0,2.7-.7c1-.5,2.1-.8,3.1-1.3.7-.3,1.1-.9,1.8-1.2.2.3.3.6.5.9a12.667,12.667,0,0,1,1.1,1.3c.4.7.5,1.6.9,2.3v-.7a4.141,4.141,0,0,1,.9,2.3c.1.6.3,1.2.4,1.9.2,1.2.4,2.4.5,3.5a1.012,1.012,0,0,0,.4.7c.1-.1.3,0,.3-.2a7.81,7.81,0,0,0-.1-3.4,20.28,20.28,0,0,0-1.2-4c-.5-1-1.1-1.8-1.5-2.8a22.5,22.5,0,0,1-.8-2.4,6.605,6.605,0,0,1-.3-2.4A4.908,4.908,0,0,0,61.8,22.3Zm2.7,4.4a3.6,3.6,0,0,0,.2,1.1A38.117,38.117,0,0,1,67,32.3l.6,1.8a19.093,19.093,0,0,1,.5,4.8,10.794,10.794,0,0,0,.3-1.9,8.879,8.879,0,0,0-.1-2.3,13.429,13.429,0,0,0-1.8-5.2A15.455,15.455,0,0,0,64.5,26.7ZM34.8,32.9a6.71,6.71,0,0,0-.6,2.8h.1c.1-.3.1-.5.4-.7.4-.3,1-.1,1.5-.1.2-.7.2-1.5.4-2.2A26.044,26.044,0,0,1,38.2,28a6.117,6.117,0,0,0,.5-1.2A18.7,18.7,0,0,0,34.8,32.9Zm.1,19.8a18.661,18.661,0,0,1-.7-2.2,9.7,9.7,0,0,1-.1-1.7c0-.5-.3-1.1-.2-1.6a20.023,20.023,0,0,1,.4-2.4c0-.2,0-.5-.2-.6a1.421,1.421,0,0,0-.6.2c-.1,0-.2-.1-.3-.1a3.352,3.352,0,0,0,0-1,5.008,5.008,0,0,0-.7-.8c-.5-.5-.7-1.2-1.3-1.5.1-1.1.6-2,.7-3.1a7.332,7.332,0,0,0-1.2,3.2,6.893,6.893,0,0,0-.1,3.5,2.92,2.92,0,0,1,.2.9,3.328,3.328,0,0,1-.6,1A16.579,16.579,0,0,0,28.4,50c-.3.9-.7,1.8-1.1,2.8-.5,1.3-.8,2.6-1.3,3.9l-.3.9c.9-1.4,1.3-3,2.1-4.4,1.2-2.1,2.9-4,4-6.2.2.2.4.3.5.5a1.388,1.388,0,0,1,0,.9c-.1,1.1-.1,2.3-.1,3.4a8.662,8.662,0,0,0,.6,3.2c.4,1.1.7,2.2,1.1,3.2a19.753,19.753,0,0,1,.8,2.6,5.022,5.022,0,0,1,.2,2.1,22.131,22.131,0,0,1-1.5,5,20.642,20.642,0,0,1-3.5,5.2A12.776,12.776,0,0,1,27,75.4c-.4.2-.8,0-1.2-.1.3-1.3,1.3-2.1,2-3.1a27.832,27.832,0,0,0,2.4-4.9,26.118,26.118,0,0,0,1.4-5.5h-.3a24.371,24.371,0,0,1-1.4,2.8l-1.5,2.7a21.285,21.285,0,0,1-1.6,2.5c-.2.6-.5,1.1-.7,1.7a18.028,18.028,0,0,0-.8,2.1,3.36,3.36,0,0,0-.5,1.4,1.2,1.2,0,0,0,.9,1.2,2.247,2.247,0,0,0,1.8-.2,10.175,10.175,0,0,0,3.2-2.6,25.5,25.5,0,0,0,3-5c.3-.6.5-1.2.8-1.9a24.551,24.551,0,0,0,1-4.7c.2-1,.2-2,.4-3l.1.1c-.1-1.3-.3-2.6-.5-3.9A7.749,7.749,0,0,0,34.9,52.7Zm33.8-7.8a23.857,23.857,0,0,1-1.2,2.2c-.2.2-.6.3-.8.5a3.36,3.36,0,0,1-1.6,1c-.5.1-1.1.2-1.6.3-.1,0-.2,0-.3.2a13.7,13.7,0,0,1-1.5,3.5,31.36,31.36,0,0,1-1.8,3.1,15.757,15.757,0,0,1-1.2,1.5,5.845,5.845,0,0,1-1.3,1.4,22.631,22.631,0,0,0-2,1.3,5.783,5.783,0,0,1-1.4.5c-.6.2-1.2.6-1.8.8-.5.8-.9,1.6-1.4,2.4h0a21.806,21.806,0,0,0-1.6,4.5c.6-.1.9-.7,1.3-1,.6-.5,1.2-1.1,1.8-1.6a28.329,28.329,0,0,0,2.8-2.3,27.948,27.948,0,0,0,3.8-3.9,35.359,35.359,0,0,0,2.6-4.1A18.667,18.667,0,0,0,63,52c.1-.4.5-.5.9-.7a7.241,7.241,0,0,0,3.7-4A3.747,3.747,0,0,0,68.7,44.9ZM27.1,48.5c-.4.7-.9,1.3-1.3,2a17.526,17.526,0,0,1-4.6,4.8c-.9.6-1.9,1-2.8,1.5a2.324,2.324,0,0,1-2,.1c0,.1.1.2.1.3l.1.1a6.753,6.753,0,0,0,1.4.2,10.272,10.272,0,0,0,2.5-.7,3.79,3.79,0,0,0,1.3-.6c.5-.5,1-.9,1.5-1.5a22.733,22.733,0,0,0,3.3-4.8A5.783,5.783,0,0,0,27.1,48.5Zm3.4,5.4a31.824,31.824,0,0,1-1.6,3.2,37.918,37.918,0,0,1-3,4,19.677,19.677,0,0,1-2.5,2.5,16.38,16.38,0,0,1-2.6,2,8.154,8.154,0,0,0,3.4-1.2,8.7,8.7,0,0,1,1.1-.9c0,.1-.1.2-.1.3a24.762,24.762,0,0,1,1.9-2.6,31.01,31.01,0,0,0,2.7-5.1A3.6,3.6,0,0,0,30.5,53.9Zm33.8,3.6a9.792,9.792,0,0,0,1.2,6.7c.9,1.4,2.5,2.2,3.7,3.3a8.32,8.32,0,0,1,1.3,1.8,6.982,6.982,0,0,1,.8,2,14.919,14.919,0,0,1,.2,2.1c.1-.6.1-1.2.2-1.8a19.67,19.67,0,0,0,.3-2.4,6.261,6.261,0,0,0-.3-2.7A7.886,7.886,0,0,0,70.5,65c-.7-.7-1.7-1.1-2.4-1.7a6.739,6.739,0,0,1-2.8-4,23.813,23.813,0,0,1-.5-2.6,9.151,9.151,0,0,0-.1-1.6A9.27,9.27,0,0,0,64.3,57.5Zm10.2,8.6a27.51,27.51,0,0,0-1.4,3,3.776,3.776,0,0,0,.3,3.1A21.1,21.1,0,0,1,75,75.6a20.236,20.236,0,0,0-.4-2.6,16.2,16.2,0,0,1-.1-2.2,25.123,25.123,0,0,1,.4-2.7,8.1,8.1,0,0,0,.2-3.8C74.8,64.8,74.8,65.5,74.5,66.1Zm-11.7.7a4.253,4.253,0,0,0-.2,1.1,25.945,25.945,0,0,0,.4,5.6c.2.9.5,1.8.7,2.7v-.3a10.9,10.9,0,0,0,4,2.7,7.058,7.058,0,0,0,3.8.5,5.228,5.228,0,0,1-1.6-.6,10.382,10.382,0,0,1-1.7-1.2,24.051,24.051,0,0,1-2.1-2.4,14.528,14.528,0,0,1-1.8-3.2A15.567,15.567,0,0,1,62.8,66.8Zm-7.3.4c0,.7-.1,1.3-.1,2A25.726,25.726,0,0,0,56,76c.2.8.5,1.7.7,2.5a12.358,12.358,0,0,0,2.9,5.4,9.853,9.853,0,0,1-.2-1.7,13.129,13.129,0,0,1,.1-2.8c-.3-.6-.7-1.1-1-1.7a16.587,16.587,0,0,1-1.2-3.1,24.038,24.038,0,0,1-1.6-6.4A2.959,2.959,0,0,0,55.5,67.2ZM25,69.5c-1.1,1.3-2.3,2.4-3.4,3.6a4.2,4.2,0,0,1-1.4.9,3.528,3.528,0,0,0-1.3-.8,3.775,3.775,0,0,0,1,1.2c.2.2.5.4.7.3a7.456,7.456,0,0,0,1.7-1.4A35.707,35.707,0,0,0,25.7,69,1.794,1.794,0,0,0,25,69.5Z" fill="#e01270"/>
      <path id="Path_7979" data-name="Path 7979" d="M63.6,76a10.9,10.9,0,0,0,4,2.7,7.058,7.058,0,0,0,3.8.5,8.33,8.33,0,0,0,1.5-.4,4.924,4.924,0,0,1-1.5,1,7.282,7.282,0,0,1-2.9.4,5.45,5.45,0,0,1-2.2-.5,18.577,18.577,0,0,1-1.9-1.1,15.456,15.456,0,0,1-.7-2.3C63.7,76.2,63.6,76.1,63.6,76Z" fill="#3367db"/>
      <path id="Path_7980" data-name="Path 7980" d="M59.3,82.2a13.129,13.129,0,0,1,.1-2.8A10.7,10.7,0,0,0,60.8,81a16.38,16.38,0,0,0,2.6,2,7.94,7.94,0,0,0,2.7,1c.1,0,.2.1.4.1a5.019,5.019,0,0,1-1.2.2,5.692,5.692,0,0,1-4.2-.7A21.963,21.963,0,0,1,59.3,82.2Z" fill="#3367db"/>
    </g>
    <g id="Group_6486" data-name="Group 6486">
      <path id="Path_8002" data-name="Path 8002" d="M57.4,28.2c.7-.4,1.4-.8,2.2-1.2a.52.52,0,0,1-.2.4,12.352,12.352,0,0,1-2.7,1.7A16.1,16.1,0,0,1,52,30.6c-2.3.4-4.6.6-6.8.9a21.13,21.13,0,0,0-7,1.7c-.4.2-.7.5-1.1.5.4-.6.8-1,1.2-1.5a2.853,2.853,0,0,1,.8-.7,10.93,10.93,0,0,0,1.5-.8A10.992,10.992,0,0,1,45,30a17.652,17.652,0,0,1,2.3,0,35.731,35.731,0,0,0,4.7-.4c1-.2,2.1-.3,3.1-.6A7.023,7.023,0,0,0,57.4,28.2Z" fill="#d3826c"/>
      <path id="Path_8003" data-name="Path 8003" d="M65.1,38.8a25.017,25.017,0,0,0-.5-4.7,14.083,14.083,0,0,0-2.5-5.9,7.945,7.945,0,0,1-1.4-1.8,4.129,4.129,0,0,1-1.1.7.52.52,0,0,1-.2.4,17.772,17.772,0,0,1-2.7,1.7A16.1,16.1,0,0,1,52,30.7c-2.3.4-4.6.6-6.8.9a21.13,21.13,0,0,0-7,1.7c-.4.2-.7.5-1.1.5h0c-.2.3-.4.7-.6,1l.1.1a2.925,2.925,0,0,0-.7,1.2c-.4,1.2-.8,2.4-1.1,3.6a11.539,11.539,0,0,0-.1,2.6v.3a14.58,14.58,0,0,1-.7,1.9h.1c-.2,3.1-.2,6.4,1.1,9.2a13.066,13.066,0,0,0,1.7,2.8,17.114,17.114,0,0,0,1.8,2,4.74,4.74,0,0,1,1,1,9.381,9.381,0,0,1,1.2.9,10.085,10.085,0,0,0,1.8.9,12.9,12.9,0,0,0,2.8.8,6.886,6.886,0,0,0,3.2.1,6.448,6.448,0,0,0,2-.3,10.884,10.884,0,0,0,2.4-.7,14.909,14.909,0,0,0,4.3-2.3,18.53,18.53,0,0,0,3.3-4,23.052,23.052,0,0,0,2.6-5.5,1.421,1.421,0,0,0,.2-.6.349.349,0,0,0-.1-.2c.1-.2.3-.4.4-.6.3-1,.6-2.1.8-3.1a17.562,17.562,0,0,0,.6-4C65.1,40.2,65.2,39.5,65.1,38.8Z" fill="#f4a187"/>
      <path id="Path_8004" data-name="Path 8004" d="M34.6,42.3a11.109,11.109,0,0,1,.1-2.6c.3-1.2.7-2.4,1.1-3.6a7.458,7.458,0,0,1,.7-1.2l-.1-.1a1.486,1.486,0,0,0-.9-.2,3.408,3.408,0,0,0-2.2.7,4.069,4.069,0,0,0-1.4,2,6.723,6.723,0,0,0-.4,4.2A4.368,4.368,0,0,0,34,44.6a14.58,14.58,0,0,1,.7-1.9A.756.756,0,0,1,34.6,42.3Z" fill="#f4a187"/>
      <path id="Path_8005" data-name="Path 8005" d="M65.1,38.8a2.537,2.537,0,0,1,1.2.2,5.373,5.373,0,0,1,2.3,1.9,4.314,4.314,0,0,1,.6,3.5,6.573,6.573,0,0,1-3.3,4,4.99,4.99,0,0,1-2.1.5l-.1-.1a.349.349,0,0,0-.1-.2c.1-.2.3-.4.4-.6.3-1,.6-2.1.8-3.1a17.562,17.562,0,0,0,.6-4A7.612,7.612,0,0,1,65.1,38.8Z" fill="#f4a187"/>
    </g>
    <g id="Group_6487" data-name="Group 6487">
      <path id="Path_8008" data-name="Path 8008" d="M40,34.7a9.363,9.363,0,0,1,1.6-.4,6.589,6.589,0,0,1,3.1.3c.8.3,1.7.5,2.1,1.2a1.147,1.147,0,0,1,.1,1c-.4-.1-.8-.1-1.2-.2-1.2-.3-2.4-.9-3.6-1.2a16.958,16.958,0,0,0-2.2-.4A.494.494,0,0,0,40,34.7Z" fill="#ff227d"/>
      <path id="Path_8009" data-name="Path 8009" d="M38,35.9c.1-.3.1-.6.3-.8a2.958,2.958,0,0,1-.2,1,16.6,16.6,0,0,0-.3,2.2A19.419,19.419,0,0,1,38,35.9Z" fill="#f9f8dc"/>
      <path id="Path_8010" data-name="Path 8010" d="M38.2,34.9a2.905,2.905,0,0,1,2.1-1.8,19.269,19.269,0,0,1,2.4-.1c1,.1,2,.4,3.1.6a5.58,5.58,0,0,1,2.1.9,4.039,4.039,0,0,1,1.5,1.7,4.5,4.5,0,0,1-.2,3.6,5.37,5.37,0,0,1,3.5.6,10.884,10.884,0,0,1,.7-2.4,3.262,3.262,0,0,1,2.1-1.7,9.352,9.352,0,0,1,4.7,0,7.066,7.066,0,0,1,2.5,1.1,5.263,5.263,0,0,1,1.2,1.4,4.245,4.245,0,0,1,1.9-.6c.4,0,.5.4.4.7h-.3c0-.1-.1-.2-.2-.3a5.488,5.488,0,0,0-1.7.5,4.763,4.763,0,0,1-.6,4,10.035,10.035,0,0,1-2.8,3,3.907,3.907,0,0,1-2.7.8,6.959,6.959,0,0,1-3.7-1.1A3.561,3.561,0,0,1,52.8,44a12.306,12.306,0,0,1-.3-3.3,5.853,5.853,0,0,0-3.7-.6,9.51,9.51,0,0,1-1.5,2,6.54,6.54,0,0,1-2.6,1.7,5.451,5.451,0,0,1-3.1,0,5.543,5.543,0,0,1-3.4-1.9,7.935,7.935,0,0,1-.8-4.8,6.456,6.456,0,0,1,.4-1.9,4.167,4.167,0,0,0-1.8-.8,1.421,1.421,0,0,1-.6-.2,1.062,1.062,0,0,1,1.3-.2A8.464,8.464,0,0,0,38.2,34.9Zm2.5-1.3a2.815,2.815,0,0,0-1.5.6,5.158,5.158,0,0,0-1.1,3.6,8.291,8.291,0,0,0,.7,4.1c.4.8,1.3,1.1,2.2,1.5a14.619,14.619,0,0,0,2,.5,4.551,4.551,0,0,0,3.2-1,7.917,7.917,0,0,0,2.9-4.3,3.318,3.318,0,0,0-1-3.1,2.384,2.384,0,0,0-1.1-.6,10.434,10.434,0,0,0-2.5-.8A8.169,8.169,0,0,0,40.7,33.6Zm15.7,3.1c-.9.2-2,.5-2.4,1.4a8.456,8.456,0,0,0-.9,4.7,3.406,3.406,0,0,0,.9,2.4,5.7,5.7,0,0,0,3.9,1.6,3.743,3.743,0,0,0,2.8-1,14.481,14.481,0,0,0,1.8-1.7,5.444,5.444,0,0,0,1.1-1.8,3.722,3.722,0,0,0,.2-1.8,3.282,3.282,0,0,0-1.5-2.7A8.228,8.228,0,0,0,56.4,36.7Z" fill="#3367db"/>
      <path id="Path_8011" data-name="Path 8011" d="M42.6,36.9a1.627,1.627,0,0,1,1.7.6,3.553,3.553,0,0,0-1-.2,1.978,1.978,0,0,0-1.1.2C42.2,37.2,42.3,36.9,42.6,36.9Z" fill="#c4603d"/>
      <path id="Path_8012" data-name="Path 8012" d="M55.7,37.5a3.157,3.157,0,0,1,1.9-.7,4.371,4.371,0,0,1,3.9,1.4c.4.4.9.7.9,1.3a10.085,10.085,0,0,0-1.8-.9,15.8,15.8,0,0,0-4.3-.5C56,38.1,55.5,37.9,55.7,37.5Z" fill="#ff227d"/>
      <path id="Path_8013" data-name="Path 8013" d="M35.1,37c.2-.1.3.1.4.1a10.143,10.143,0,0,0-1.3.9,2.539,2.539,0,0,0-.5,2.2,7.838,7.838,0,0,0,.5,1.4c-.3-.1-.5-.2-.6-.5a3.185,3.185,0,0,1,0-2.7A2.317,2.317,0,0,1,35.1,37Z" fill="#c76847" opacity="0.49"/>
      <path id="Path_8014" data-name="Path 8014" d="M43,37.8c.3-.2.6.1.6.4s-.2.9-.6.8C42.4,38.9,42.6,38.1,43,37.8Z" fill="#151c2c"/>
      <path id="Path_8015" data-name="Path 8015" d="M57.3,40c.2-.2.5-.5.8-.5a1.816,1.816,0,0,1,1.4.6c-.4,0-.8-.2-1.2-.2C58,39.9,57.6,40,57.3,40Z" fill="#c4603d"/>
      <path id="Path_8016" data-name="Path 8016" d="M58.2,40.3a.441.441,0,0,1,.6.4c0,.3-.1.7-.4.8a.441.441,0,0,1-.6-.4A.68.68,0,0,1,58.2,40.3Z" fill="#151c2c"/>
      <path id="Path_8017" data-name="Path 8017" d="M50,40.6c.1-.2.4,0,.6,0,.2.1.4.1.5.3A14.769,14.769,0,0,1,51,43a10.9,10.9,0,0,1-.3,2.6c-.2.3-.6.2-.9.2a4.529,4.529,0,0,1-1.6-.3.765.765,0,0,1-.2-.9,38.366,38.366,0,0,1,1.8-3.5C49.9,40.8,49.9,40.7,50,40.6Z" fill="#c76847" opacity="0.26"/>
      <path id="Path_8018" data-name="Path 8018" d="M65.4,41.7c.1-.3.5-.2.7-.2a2.163,2.163,0,0,1,1.1,1.2,3.359,3.359,0,0,1-.2,2.2,2.705,2.705,0,0,1-2.3,1.5v-.3a2.663,2.663,0,0,0,2.1-3.2A2.142,2.142,0,0,0,65.4,41.7Z" fill="#c76847" opacity="0.49"/>
      <path id="Path_8019" data-name="Path 8019" d="M49.5,45a3.233,3.233,0,0,1,.3-1.7A3.416,3.416,0,0,1,49.5,45Z" fill="#e99679"/>
      <path id="Path_8020" data-name="Path 8020" d="M39.5,44.2a1.6,1.6,0,0,1,1.6.5,1.622,1.622,0,0,1-.9,2.4,1.391,1.391,0,0,1-1.7-.9A1.65,1.65,0,0,1,39.5,44.2Z" fill="#fc9dc2"/>
      <path id="Path_8021" data-name="Path 8021" d="M57,47.8a1.558,1.558,0,1,1-1.1,1.9A1.754,1.754,0,0,1,57,47.8Z" fill="#fc9dc2"/>
      <path id="Path_8022" data-name="Path 8022" d="M44.5,49.1c.7-.2,1.4-.5,2.2-.7a1.986,1.986,0,0,1,1.1.1.31.31,0,0,0,.1.2H48a1.268,1.268,0,0,1,.6.1h.2a3.15,3.15,0,0,1,2.3,1.4,4.292,4.292,0,0,1-5.7.3A3.687,3.687,0,0,1,44.5,49.1Z" fill="#ff2453"/>
      <path id="Path_8023" data-name="Path 8023" d="M48.6,49.1H49a2.384,2.384,0,0,1,1.1.6A3.946,3.946,0,0,0,48.6,49.1Z" fill="#fc9dc2"/>
      <path id="Path_8024" data-name="Path 8024" d="M45.9,49.7c.8.1,1.6.3,2.4.4A10.039,10.039,0,0,1,45.9,49.7Z" fill="#fc9dc2"/>
      <path id="Path_8025" data-name="Path 8025" d="M46.1,52.2a2.747,2.747,0,0,1,2.6.6,5.019,5.019,0,0,1-1.2-.2A10.26,10.26,0,0,0,46.1,52.2Z" fill="#d3826c"/>
      <path id="Path_8026" data-name="Path 8026" d="M43.8,57.4a5.007,5.007,0,0,0,2.4.9c.7.1,1.2-.3,1.9-.4a2.258,2.258,0,0,1-1.1.8A3.048,3.048,0,0,1,43.8,57.4Z" fill="#d3826c"/>
      <path id="Path_8027" data-name="Path 8027" d="M42.5,58.6a9.868,9.868,0,0,0,2.7,1,12.412,12.412,0,0,0,2.7.3,9.82,9.82,0,0,1-3.4-.3A5.381,5.381,0,0,1,42.5,58.6Z" fill="#c56543"/>
      <path id="Path_8028" data-name="Path 8028" d="M33.3,61.4c.1-.8.1-1.7.2-2.5a9.662,9.662,0,0,1,.1,2.4,26.479,26.479,0,0,1-.9,4.9,26.684,26.684,0,0,1-2,4.6,8.636,8.636,0,0,1-1,1.6,11.084,11.084,0,0,0,.9-1.9A30.933,30.933,0,0,0,33.3,61.4Z" fill="#e01270"/>
    </g>
    <path id="Path_8081" data-name="Path 8081" d="M63.2,49.2a2.651,2.651,0,0,0-.5.6,26.98,26.98,0,0,1-2.5,3.4,35.945,35.945,0,0,1-3.5,3.2,15.762,15.762,0,0,1-2.4,1.5,10.774,10.774,0,0,1-4.2,1.6l-1.5.3a13.282,13.282,0,0,1-9.9-4,19.408,19.408,0,0,1-2.1-2.9,18.236,18.236,0,0,1-2-6.5c-.1-1.3-.1-2.5-.1-3.8a14.58,14.58,0,0,1-.7,1.9h.1c-.2,3.1-.2,6.4,1.1,9.2a13.066,13.066,0,0,0,1.7,2.8,17.114,17.114,0,0,0,1.8,2,4.74,4.74,0,0,1,1,1,9.381,9.381,0,0,1,1.2.9,10.085,10.085,0,0,0,1.8.9,12.9,12.9,0,0,0,2.8.8,6.886,6.886,0,0,0,3.2.1,6.448,6.448,0,0,0,2-.3,10.884,10.884,0,0,0,2.4-.7,14.909,14.909,0,0,0,4.3-2.3,18.53,18.53,0,0,0,3.3-4,23.052,23.052,0,0,0,2.6-5.5A.31.31,0,0,0,63.2,49.2Z" fill="#c76847" opacity="0.26"/>
  </g>
</svg>
