<svg id="avatar-7" xmlns="http://www.w3.org/2000/svg" xmlns:xlink="http://www.w3.org/1999/xlink" width="86" height="86" viewBox="0 0 86 86">
  <defs>
    <clipPath id="clip-path">
      <circle id="Ellipse_407" data-name="Ellipse 407" cx="43" cy="43" r="43" transform="translate(-0.4)"/>
    </clipPath>
    <clipPath id="clip-path-2">
      <circle id="Ellipse_408" data-name="Ellipse 408" cx="43" cy="43" r="43"/>
    </clipPath>
  </defs>
  <g id="Group_6489" data-name="Group 6489" transform="translate(0.4)" clip-path="url(#clip-path)">
    <rect id="Rectangle_1439" data-name="Rectangle 1439" width="85.6" height="85.6" fill="#e3ffde"/>
  </g>
  <g id="Group_6494" data-name="Group 6494" clip-path="url(#clip-path-2)">
    <g id="Group_6490" data-name="Group 6490">
      <path id="Path_8082" data-name="Path 8082" d="M44.3,17.9a42.1,42.1,0,0,1,5-.4h1.3a8.49,8.49,0,0,1,4.1,2.1,8.777,8.777,0,0,1,1.5,1.2,2.775,2.775,0,0,1,1.4,1.6c.3.9.5,1.9.8,2.8.3,1,.3,2,.5,2.9a27.1,27.1,0,0,1,.4,4,29.662,29.662,0,0,1-.3,4.2c-.3,1.4-.3,2.9-.6,4.3A50.088,50.088,0,0,1,57,45.8c-.5,1.6-.9,3.2-1.5,4.7a7.366,7.366,0,0,0-.4,1.4c-.1,1.5.1,2.9.1,4.4a19.67,19.67,0,0,0,.3,2.4.952.952,0,0,1-.2.7,9.063,9.063,0,0,1-1.9,1.3,21.16,21.16,0,0,1-2.1,1.1,22.769,22.769,0,0,1-3.6,1.5c-.1.2-.1.4-.3.5a15.743,15.743,0,0,1-7.1,1.3,6.448,6.448,0,0,1-2-.3c-.2-.1-.2-.3-.2-.5a11.7,11.7,0,0,1-2.5-.7.367.367,0,0,1-.1-.3,21.6,21.6,0,0,1-5.1-2.9A12.065,12.065,0,0,1,28,58.3a19.224,19.224,0,0,1-1.3-1.7,1.854,1.854,0,0,1-.2-.7c.7-1,1.5-2,2.2-3.1A13.979,13.979,0,0,0,30.5,48c.4-2.1.7-4.2,1-6.3a6.552,6.552,0,0,0,0-1.4c0-.7.1-1.3.1-2,0-.3,0-.6.2-.7.3-.2.6.1.8.2a8.1,8.1,0,0,0,2.2,0c.3,0,.4-.4.5-.7a18.03,18.03,0,0,1,.5-1.9,32.717,32.717,0,0,1,1.7-5.3c.4-1.2.7-2.3,1-3.5a20.077,20.077,0,0,0,.8-4.8c.1-1.1.3-2.1.4-3.2a2.935,2.935,0,0,0,.3-1,4.671,4.671,0,0,0,1.7.3A7.822,7.822,0,0,0,44.3,17.9Z" fill="#f4a187"/>
    </g>
    <g id="Group_6491" data-name="Group 6491">
      <path id="Path_8101" data-name="Path 8101" d="M25.6,56.2a2.354,2.354,0,0,1,.8-.2c.2,0,.3.2.4.4a11.169,11.169,0,0,0,1.9,2.4A11.5,11.5,0,0,0,31,60.9c.7.4,1.3.9,2,1.3a16.724,16.724,0,0,0,6.5,2.2,13.668,13.668,0,0,0,3.5,0,19.943,19.943,0,0,0,6.4-1.5,24.869,24.869,0,0,0,2.8-1.5,10.667,10.667,0,0,0,3.6-2.7,3.915,3.915,0,0,1,1,.8c.6.5,1.2.9,1.8,1.4a52.5,52.5,0,0,0,4.9,3.3c1.9,1.1,3.8,2.4,5.7,3.6,1.4,1,2.8,1.9,4.2,2.9,2.3,1.6-.951-.8,1.049,1.2,1.6,1.7-3.9,4.748-3.9,4.748l-4.656,3.573L58.6,84.3,43.545,86.669,30.516,84.944,23.4,82.454l-6.3-4.407-2.363-2.165L7.706,69.243A51.945,51.945,0,0,1,12.6,64.7c1.5-1.1,3-2,4.5-3,1.4-.9,2.9-1.7,4.3-2.7a22.63,22.63,0,0,1,2-1.3A9.413,9.413,0,0,1,25.6,56.2Z" fill="#93e088"/>
    </g>
    <g id="Group_6492" data-name="Group 6492">
      <path id="Path_8111" data-name="Path 8111" d="M32.6,31.1a6.591,6.591,0,0,1,3.9-.6c.3,0,.7.1.7.5,0,1,0,2-.1,3.1,0,1.2-.1,2.5-.1,3.7v1.6a.664.664,0,0,1-.4.5,4.533,4.533,0,0,1-2.3-.2,4.188,4.188,0,0,1-1.6-1.1,7.551,7.551,0,0,1-1.1-1.4,6.36,6.36,0,0,1-.5-3.6A3.181,3.181,0,0,1,32.6,31.1Z" fill="#f4a187"/>
      <path id="Path_8112" data-name="Path 8112" d="M51,30.7a.52.52,0,0,1,.4.2,9.4,9.4,0,0,1,1.5,3.2,1.4,1.4,0,0,1-.3,1.5,4.27,4.27,0,0,1-2.5.1c-.3-.2-.2-.6-.2-.9a15.95,15.95,0,0,1,.7-3.8A.536.536,0,0,1,51,30.7Z" fill="#c76847" opacity="0.26"/>
      <path id="Path_8113" data-name="Path 8113" d="M31.5,37.1a7.551,7.551,0,0,0,1.1,1.4c-.3.1-.6.3-.9.4A5.245,5.245,0,0,1,31.5,37.1Z" fill="#92a5ff"/>
      <path id="Path_8114" data-name="Path 8114" d="M48.1,13.3a6.606,6.606,0,0,1,1.5-.5,6.083,6.083,0,0,1,2.3.3,4.517,4.517,0,0,1,1.7,1.1c.6.5.8,1.3,1.4,1.9s1.5.8,2.1,1.4a3.114,3.114,0,0,1,.9,2.6,20.9,20.9,0,0,1-.1,2.5,12.177,12.177,0,0,0-3.1-2.9,15.453,15.453,0,0,0-2.2-1.2,11.364,11.364,0,0,0-2.5-.6,10.9,10.9,0,0,0-2.6.3c-1.2.1-2.5.4-3.7.4a8.592,8.592,0,0,1-3.2-.5,16.352,16.352,0,0,0,.2,2.2,17.129,17.129,0,0,1-.1,3.2A17.427,17.427,0,0,1,39.6,28c-.4,1.3-.5,2.6-.8,3.9a8.892,8.892,0,0,0,.4,3.6,8.488,8.488,0,0,0,.9,2.2,2.407,2.407,0,0,0,.6.8,1.964,1.964,0,0,0,1.5.5,7.448,7.448,0,0,0,2.4-1.1,14.256,14.256,0,0,1,6-1.7,9.217,9.217,0,0,1,4.9,1,7.28,7.28,0,0,1,1.8,1.7c.2.2.3.4.5.5a.67.67,0,0,0,.7-.4,3.255,3.255,0,0,0,.4-1.4,12.673,12.673,0,0,0,.4-3.4c0-.1.1-.2.2-.3a26.7,26.7,0,0,1,0,4c0,.9-.1,1.7-.1,2.6a35.561,35.561,0,0,1-.7,8,22.5,22.5,0,0,1-.8,2.4,6.686,6.686,0,0,1-1.6,2.5,19.166,19.166,0,0,1-2.2,1.8,6.855,6.855,0,0,1-2.8,1.1,11.868,11.868,0,0,1-4.6,0A8.937,8.937,0,0,1,42,53.4a13.089,13.089,0,0,1-1.9-2.7c-.3-.7-.8-1.4-1.1-2.1a28.577,28.577,0,0,1-1.6-6.4,34.188,34.188,0,0,1-.4-4.5c0-1.2.1-2.5.1-3.7.1-1,.1-2,.1-3.1,0-.4-.4-.5-.7-.5a6.591,6.591,0,0,0-3.9.6,3.848,3.848,0,0,0-1.7,2.4,2.92,2.92,0,0,1-.2-.9,27.129,27.129,0,0,1-.4-4.1,13.72,13.72,0,0,1,.5-4,10.758,10.758,0,0,1,2-4.5,10.085,10.085,0,0,1,4.6-3.3,3.722,3.722,0,0,1,1.8-.2c.4-.4.6-.9,1.1-1.2A9.55,9.55,0,0,1,41.9,14a4.345,4.345,0,0,1,2.5-.5c.6,0,1.2.2,1.7.2A3.289,3.289,0,0,0,48.1,13.3ZM50,38.2a6.941,6.941,0,0,0-3.1,1.2c-.5.4-1,.9-1.5,1.3a.864.864,0,0,0-.3.6,1.012,1.012,0,0,0,.7.4,6.512,6.512,0,0,0,3.9-.2c.4-.1.6-.5.9-.8.3,0,.5.4.8.6a5.315,5.315,0,0,0,3.3.3,1.482,1.482,0,0,0,1.2-.8.908.908,0,0,0,0-1,4.071,4.071,0,0,0-1.4-1.2,7.945,7.945,0,0,0-2.2-.6A8.578,8.578,0,0,0,50,38.2Z" fill="#92a5ff"/>
    </g>
    <g id="Group_6493" data-name="Group 6493">
      <path id="Path_8128" data-name="Path 8128" d="M48.3,13.9a4.076,4.076,0,0,1,3.4-.4A4.714,4.714,0,0,1,53.6,15a10.1,10.1,0,0,0-2.5-1.4A6.72,6.72,0,0,0,48.3,13.9Z" fill="#3b53b5"/>
      <path id="Path_8129" data-name="Path 8129" d="M43.4,14a4.433,4.433,0,0,1,2,.3c-.6,0-1.3-.1-1.9-.1a6.391,6.391,0,0,0-1.9.8A2.944,2.944,0,0,1,43.4,14Z" fill="#3b53b5"/>
      <path id="Path_8130" data-name="Path 8130" d="M49,14.3a7.017,7.017,0,0,1,2.5.1,5.071,5.071,0,0,1,1.6.9,13.355,13.355,0,0,0-1.8-.7,4.678,4.678,0,0,0-1.7-.2,14.159,14.159,0,0,0-2,.4,6.922,6.922,0,0,1-2.5.1,6.28,6.28,0,0,0-3.3.6,22.63,22.63,0,0,0-2,1.3,3.46,3.46,0,0,1,1.1-1,5.389,5.389,0,0,1,3-1,17.7,17.7,0,0,1,2.3.1C47.2,14.7,48.1,14.5,49,14.3Z" fill="#3b53b5"/>
      <path id="Path_8131" data-name="Path 8131" d="M47.2,15.4a13.734,13.734,0,0,1,3.5-.2,4.793,4.793,0,0,1,2,.7,10.926,10.926,0,0,0-1.7-.5c-1.7-.3-3.4.4-5.1.2a7.581,7.581,0,0,0-3.7.4,8.428,8.428,0,0,1-1.4.6,5.327,5.327,0,0,1,3.6-1.3A25.283,25.283,0,0,0,47.2,15.4Z" fill="#3b53b5"/>
      <path id="Path_8132" data-name="Path 8132" d="M53.8,15.4a12.165,12.165,0,0,0,1.7,1.5c.9.6,2,1.3,2.1,2.5a4.43,4.43,0,0,0-1.7-2.1c-.6-.4-1.1-.8-1.6-1.2C54,16,53.9,15.7,53.8,15.4Z" fill="#3b53b5"/>
      <path id="Path_8133" data-name="Path 8133" d="M48.3,16.1a4.967,4.967,0,0,1,3.4,0,1.374,1.374,0,0,1,.8.5,14.191,14.191,0,0,0-2.2-.5C49.6,16,48.9,16.2,48.3,16.1Z" fill="#3b53b5"/>
      <path id="Path_8134" data-name="Path 8134" d="M42.8,16.4a4.937,4.937,0,0,1,2.7-.3Z" fill="#3b53b5"/>
      <path id="Path_8135" data-name="Path 8135" d="M44.6,16.7a7.8,7.8,0,0,1,2.2-.3,14.132,14.132,0,0,1-2.2.6,6.15,6.15,0,0,1-2.7,0A20.22,20.22,0,0,0,44.6,16.7Z" fill="#3b53b5"/>
      <path id="Path_8136" data-name="Path 8136" d="M47.5,16.7a5.339,5.339,0,0,1,2.2-.2c.5.1.9.3,1.4.4a11.4,11.4,0,0,0-2.6-.2c-1.1.1-2.1.5-3.2.7a8.223,8.223,0,0,1-2.7.2,7.117,7.117,0,0,1-2.1-.4c1.1,0,2.1.3,3.2.2A13.318,13.318,0,0,0,47.5,16.7Z" fill="#3b53b5"/>
      <path id="Path_8137" data-name="Path 8137" d="M53.2,16.4A5.028,5.028,0,0,1,55.4,18C54.7,17.4,53.9,16.9,53.2,16.4Z" fill="#3b53b5"/>
      <path id="Path_8138" data-name="Path 8138" d="M39.4,16.5a5.547,5.547,0,0,1,.6.8c.2.3.5.5.5.9A2.454,2.454,0,0,1,39.4,16.5Z" fill="#3b53b5"/>
      <path id="Path_8139" data-name="Path 8139" d="M52.7,17.1a1.2,1.2,0,0,1,.8.2,4.644,4.644,0,0,1,1.8,1.6,14.7,14.7,0,0,1-1.3-1A14.8,14.8,0,0,1,52.7,17.1Z" fill="#3b53b5"/>
      <path id="Path_8140" data-name="Path 8140" d="M38,17.3a.6.6,0,0,1,.4-.1c-.4.3-.8.5-1.2.8A6.964,6.964,0,0,0,35,20.6a13.315,13.315,0,0,0-1,2.8,7.172,7.172,0,0,1,.7-2.5A8.223,8.223,0,0,1,38,17.3Z" fill="#3b53b5"/>
      <path id="Path_8141" data-name="Path 8141" d="M47.3,17.5a6.988,6.988,0,0,1,3.8.1,8.51,8.51,0,0,0-4.2.3,10.622,10.622,0,0,1-5.3.3c-.2-.1-.5-.2-.7-.3.6,0,1.2.2,1.8.2A12.424,12.424,0,0,0,47.3,17.5Z" fill="#3b53b5"/>
      <path id="Path_8142" data-name="Path 8142" d="M38.7,17.6a1.421,1.421,0,0,1,.6-.2,8.415,8.415,0,0,0-2.4,2.2,6.847,6.847,0,0,0-1.1,3,16.6,16.6,0,0,1-.3,2.2A9.391,9.391,0,0,1,37.2,19C37.6,18.6,38.1,18.1,38.7,17.6Z" fill="#3b53b5"/>
      <path id="Path_8143" data-name="Path 8143" d="M33.3,22.1a9.365,9.365,0,0,1,3.6-4.7c-.4.4-.9.8-1.3,1.2a7.821,7.821,0,0,0-1.7,2.6,12.609,12.609,0,0,0-1.2,4.2A6.46,6.46,0,0,1,33.3,22.1Z" fill="#3b53b5"/>
      <path id="Path_8144" data-name="Path 8144" d="M51.8,17.7a5.2,5.2,0,0,1,3.4,1.8A16.443,16.443,0,0,0,53,18.1C52.6,18,52.2,17.8,51.8,17.7Z" fill="#3b53b5"/>
      <path id="Path_8145" data-name="Path 8145" d="M39.1,19.5a9.13,9.13,0,0,1,.8-1.3c-.3.7-.8,1.3-1.1,2a17.615,17.615,0,0,0-1.2,4.5,3.673,3.673,0,0,1,.1-1.8A12.242,12.242,0,0,1,39.1,19.5Z" fill="#3b53b5"/>
      <path id="Path_8146" data-name="Path 8146" d="M55.8,18.4a1.887,1.887,0,0,1,1.3,1,2.389,2.389,0,0,1,.5,1.4A5.46,5.46,0,0,0,55.8,18.4Z" fill="#3b53b5"/>
      <path id="Path_8147" data-name="Path 8147" d="M39.1,21.8a19.854,19.854,0,0,1,.9-2.6,7.494,7.494,0,0,1-.5,1.6,21.044,21.044,0,0,0-.6,2.4,11.271,11.271,0,0,1-.3,1.8A8.591,8.591,0,0,1,39.1,21.8Z" fill="#3b53b5"/>
      <path id="Path_8148" data-name="Path 8148" d="M55.5,19.2a2.151,2.151,0,0,1,1.2.9,3.7,3.7,0,0,1,.5,1.1A15.079,15.079,0,0,0,55.5,19.2Z" fill="#3b53b5"/>
      <path id="Path_8149" data-name="Path 8149" d="M33.1,20.8c.3-.4.6-.9.9-1.3-.4.8-.9,1.5-1.3,2.3a14.093,14.093,0,0,0-1.1,4.6A9.825,9.825,0,0,1,33.1,20.8Z" fill="#3b53b5"/>
      <path id="Path_8150" data-name="Path 8150" d="M34.4,24.4A11.542,11.542,0,0,1,36,19.9a16.884,16.884,0,0,0-1.4,5c-.1,1-.1,2-.2,3A13.661,13.661,0,0,1,34.4,24.4Z" fill="#3b53b5"/>
      <path id="Path_8151" data-name="Path 8151" d="M36.8,22.2a6.632,6.632,0,0,1,.9-1.9,18.613,18.613,0,0,0-1,3.1,3.582,3.582,0,0,1-.4,1.1A9.484,9.484,0,0,1,36.8,22.2Z" fill="#3b53b5"/>
      <path id="Path_8152" data-name="Path 8152" d="M40,21.7c0-.3.1-.5.1-.8a6.2,6.2,0,0,1-.2,2.7,12.09,12.09,0,0,1-.5,1.8C39.6,24.1,39.9,22.9,40,21.7Z" fill="#3b53b5"/>
      <path id="Path_8153" data-name="Path 8153" d="M37,28.3a8.982,8.982,0,0,1,.5-3.6,8.585,8.585,0,0,1-.3,1.7A11.076,11.076,0,0,1,37,28.3Z" fill="#3b53b5"/>
      <path id="Path_8154" data-name="Path 8154" d="M33.5,26.2a2.2,2.2,0,0,1,.2-1.4c0,1.1,0,2.1.1,3.2a17.853,17.853,0,0,1,.2,2.3A13.974,13.974,0,0,1,33.5,26.2Z" fill="#3b53b5"/>
      <path id="Path_8155" data-name="Path 8155" d="M38,27.2a14.619,14.619,0,0,1,.5-2,18.575,18.575,0,0,1-.6,3.4A3.21,3.21,0,0,1,38,27.2Z" fill="#3b53b5"/>
      <path id="Path_8156" data-name="Path 8156" d="M36,28.5a5.343,5.343,0,0,1,.4-3.3c0,.6-.2,1.1-.2,1.7C36.1,27.4,36.1,28,36,28.5Z" fill="#3b53b5"/>
      <path id="Path_8157" data-name="Path 8157" d="M35,26.6a2.279,2.279,0,0,1,.3-1.1,7.719,7.719,0,0,0-.2,1.5v1.6A14.084,14.084,0,0,1,35,26.6Z" fill="#3b53b5"/>
      <path id="Path_8158" data-name="Path 8158" d="M32.9,29.3a9.23,9.23,0,0,1,.1-3.7C33,26.9,33,28.1,32.9,29.3Z" fill="#3b53b5"/>
      <path id="Path_8159" data-name="Path 8159" d="M38.5,28.4a11.275,11.275,0,0,1,.8-2.4c-.2,1.4-.8,2.7-.9,4.1A5.013,5.013,0,0,1,38.5,28.4Z" fill="#3b53b5"/>
      <path id="Path_8160" data-name="Path 8160" d="M31.3,31.6a17.523,17.523,0,0,1-.3-5.1c.1.9.1,1.8.2,2.7C31.2,30.1,31.3,30.9,31.3,31.6Z" fill="#3b53b5"/>
      <path id="Path_8161" data-name="Path 8161" d="M32.1,29.7a6.886,6.886,0,0,1-.1-3.2C31.9,27.6,32.1,28.7,32.1,29.7Z" fill="#3b53b5"/>
      <path id="Path_8162" data-name="Path 8162" d="M44.2,27.9A5.522,5.522,0,0,1,48,28c.4.2.8.7.7,1.1-.1.3-.4.2-.6.2a14.007,14.007,0,0,0-4.1.1,4.973,4.973,0,0,1-2.1.1c.2-.3.3-.7.6-.9A8.651,8.651,0,0,1,44.2,27.9Z" fill="#92a5ff"/>
      <path id="Path_8163" data-name="Path 8163" d="M45.6,28.2a.781.781,0,0,1-.4-.4,3.147,3.147,0,0,1,1.7,1.3C46.5,28.8,46,28.5,45.6,28.2Z" fill="#3b53b5"/>
      <path id="Path_8164" data-name="Path 8164" d="M46.3,27.8a1.891,1.891,0,0,1,1.2,1.4A5.263,5.263,0,0,1,46.3,27.8Z" fill="#3b53b5"/>
      <path id="Path_8165" data-name="Path 8165" d="M44.4,28A1.984,1.984,0,0,1,46,29,8.636,8.636,0,0,1,44.4,28Z" fill="#3b53b5"/>
      <path id="Path_8166" data-name="Path 8166" d="M47.4,28a1.91,1.91,0,0,1,.7,1.4A3.694,3.694,0,0,1,47.4,28Z" fill="#3b53b5"/>
      <path id="Path_8167" data-name="Path 8167" d="M54.3,28.4a5.229,5.229,0,0,1,3.7.1c.6.3,1.3.9,1.2,1.6-.4-.1-.9-.1-1.3-.2-.6-.1-1.1-.2-1.7-.3a7.551,7.551,0,0,0,1.4-1.1A2.609,2.609,0,0,0,56,29.6a8.129,8.129,0,0,0-2.2.1A2.541,2.541,0,0,0,54.3,28.4Z" fill="#92a5ff"/>
      <path id="Path_8168" data-name="Path 8168" d="M43.6,28.2a2.138,2.138,0,0,1,1.8.9A10.085,10.085,0,0,1,43.6,28.2Z" fill="#3b53b5"/>
      <path id="Path_8169" data-name="Path 8169" d="M54.8,29.6A1.952,1.952,0,0,1,56,28.3,7.1,7.1,0,0,1,54.8,29.6Z" fill="#3b53b5"/>
      <path id="Path_8170" data-name="Path 8170" d="M42.9,28.6c.6-.3,1.3.1,1.8.5A7.756,7.756,0,0,1,42.9,28.6Z" fill="#3b53b5"/>
      <path id="Path_8171" data-name="Path 8171" d="M48,28.3a.819.819,0,0,1,.4,1A3,3,0,0,1,48,28.3Z" fill="#3b53b5"/>
      <path id="Path_8172" data-name="Path 8172" d="M54.2,29.7a1.379,1.379,0,0,1,1-1.4A12.132,12.132,0,0,0,54.2,29.7Z" fill="#3b53b5"/>
      <path id="Path_8173" data-name="Path 8173" d="M55.5,29.6a1.93,1.93,0,0,1,1.3-1.2A15.379,15.379,0,0,1,55.5,29.6Z" fill="#3b53b5"/>
      <path id="Path_8174" data-name="Path 8174" d="M53.6,29.6a1.387,1.387,0,0,1,.7-1.2,3.942,3.942,0,0,1-.5,1.4S53.6,29.7,53.6,29.6Z" fill="#92a5ff"/>
      <path id="Path_8175" data-name="Path 8175" d="M56.1,29.8a2.268,2.268,0,0,1,1.6-1.1,7.551,7.551,0,0,1-1.4,1.1Z" fill="#3b53b5"/>
      <path id="Path_8176" data-name="Path 8176" d="M35.7,30.2a1.81,1.81,0,0,1-.1-1.6A4.329,4.329,0,0,1,35.7,30.2Z" fill="#3b53b5"/>
      <path id="Path_8177" data-name="Path 8177" d="M36.7,30.3a2.03,2.03,0,0,1,.1-1.7A9.15,9.15,0,0,1,36.7,30.3Z" fill="#3b53b5"/>
      <path id="Path_8178" data-name="Path 8178" d="M42.5,28.8a2.822,2.822,0,0,1,1.5.4c-.4,0-.7-.1-1.1-.1l-.2.2c.2,0,.4.1.6.1a3.4,3.4,0,0,1-1-.1c.1,0,.2-.1.3-.1A.756.756,0,0,1,42.5,28.8Z" fill="#3b53b5"/>
      <path id="Path_8179" data-name="Path 8179" d="M56.9,29.7a2.223,2.223,0,0,1,1.3-.8A2.871,2.871,0,0,1,56.9,29.7Z" fill="#3b53b5"/>
      <path id="Path_8180" data-name="Path 8180" d="M37.6,31a2.108,2.108,0,0,1,.1-1.9A12.1,12.1,0,0,1,37.6,31Z" fill="#3b53b5"/>
      <path id="Path_8181" data-name="Path 8181" d="M57.7,29.8a1.5,1.5,0,0,1,1.1-.4A1.037,1.037,0,0,1,57.7,29.8Z" fill="#3b53b5"/>
      <path id="Path_8182" data-name="Path 8182" d="M32,30a5.019,5.019,0,0,1,.2,1.2A1.637,1.637,0,0,1,32,30Z" fill="#3b53b5"/>
      <path id="Path_8183" data-name="Path 8183" d="M45.8,31.1c.6,0,.4,1.2-.2,1.1A.63.63,0,0,1,45.8,31.1Z" fill="#151c2c"/>
      <path id="Path_8184" data-name="Path 8184" d="M56.2,31.3a.338.338,0,0,1,.5.3c.1.4-.2,1-.6.8A.594.594,0,0,1,56.2,31.3Z" fill="#151c2c"/>
      <path id="Path_8185" data-name="Path 8185" d="M38.1,33.3c-.1-.4-.3-.9,0-1.3A2.854,2.854,0,0,1,38.1,33.3Z" fill="#3b53b5"/>
      <path id="Path_8186" data-name="Path 8186" d="M34.4,32.6a3.378,3.378,0,0,1,2.6-.2v.2a4.023,4.023,0,0,0-2.6.6,2.321,2.321,0,0,0-.6,2.1,2.2,2.2,0,0,0,.6,1.5c.5.2.7-.4,1.2-.5a1.284,1.284,0,0,1,1.4.5c-.1,0-.2,0-.2.1-.3-.2-.6-.4-.9-.3-.5,0-.7.7-1.3.7a1.068,1.068,0,0,1-.9-.7,3.408,3.408,0,0,1-.3-2.2A2.006,2.006,0,0,1,34.4,32.6Z" fill="#d3826c"/>
      <path id="Path_8187" data-name="Path 8187" d="M44.7,32.8a14.769,14.769,0,0,0,2.1.1A1.983,1.983,0,0,1,44.7,32.8Z" fill="#d3826c"/>
      <path id="Path_8188" data-name="Path 8188" d="M55.3,32.8a5.438,5.438,0,0,0,1.8,0,2.273,2.273,0,0,1-1.8.3Z" fill="#d3826c"/>
      <path id="Path_8189" data-name="Path 8189" d="M37.5,32.8c.4.2.1.7.1,1A1.645,1.645,0,0,1,37.5,32.8Z" fill="#3b53b5"/>
      <path id="Path_8190" data-name="Path 8190" d="M44.7,33.4c.6.1,1.2,0,1.8.1a2.247,2.247,0,0,1-1.8.2Z" fill="#d3826c"/>
      <path id="Path_8191" data-name="Path 8191" d="M55,33.7a15.483,15.483,0,0,1,2.2-.1,2.026,2.026,0,0,1-1.5.4A4.876,4.876,0,0,1,55,33.7Z" fill="#d3826c"/>
      <path id="Path_8192" data-name="Path 8192" d="M38,33.8a1.7,1.7,0,0,1,.2,1.4A2.2,2.2,0,0,1,38,33.8Z" fill="#3b53b5"/>
      <path id="Path_8193" data-name="Path 8193" d="M37.5,35.3a1.4,1.4,0,0,1,.2-1.4A3.4,3.4,0,0,1,37.5,35.3Z" fill="#3b53b5"/>
      <path id="Path_8194" data-name="Path 8194" d="M50.5,34.9c.3-.2.8,0,.7.4-.2.3-.6.2-.9.2C50.3,35.3,50.3,35,50.5,34.9Z" fill="#cc7a66"/>
      <path id="Path_8195" data-name="Path 8195" d="M37.6,37.4a2.824,2.824,0,0,1,.2-1.8A11.019,11.019,0,0,1,37.6,37.4Z" fill="#3b53b5"/>
      <path id="Path_8196" data-name="Path 8196" d="M38.2,35.7a2.514,2.514,0,0,1,.2,1.5A7.719,7.719,0,0,1,38.2,35.7Z" fill="#3b53b5"/>
      <path id="Path_8197" data-name="Path 8197" d="M38.8,36.2c0-.1.1-.2.2-.3a2.7,2.7,0,0,1,.3,1.5A6.117,6.117,0,0,1,38.8,36.2Z" fill="#3b53b5"/>
      <path id="Path_8198" data-name="Path 8198" d="M49.6,36.7c.4-.1.7-.1,1.1-.2a2.1,2.1,0,0,1-1.1.4C49.5,36.9,49.5,36.8,49.6,36.7Z" fill="#3b53b5"/>
      <path id="Path_8199" data-name="Path 8199" d="M52,36.6a3.36,3.36,0,0,1,1.4.5c-.4-.1-.9-.2-1.3-.3A.349.349,0,0,0,52,36.6Z" fill="#3b53b5"/>
      <path id="Path_8200" data-name="Path 8200" d="M47.6,37.3c.2-.4.7-.4,1.1-.4C48.3,37,47.9,37.2,47.6,37.3Z" fill="#3b53b5"/>
      <path id="Path_8201" data-name="Path 8201" d="M53.8,36.9a2.575,2.575,0,0,1,1.6.7A3.287,3.287,0,0,1,53.8,36.9Z" fill="#3b53b5"/>
      <path id="Path_8202" data-name="Path 8202" d="M51.6,37.2c.4-.3.9,0,1.3.3C52.4,37.4,52,37.3,51.6,37.2Z" fill="#3b53b5"/>
      <path id="Path_8203" data-name="Path 8203" d="M48.3,37.6a4.179,4.179,0,0,1,1-.4,4.728,4.728,0,0,1-1.2.7C48.2,37.8,48.2,37.6,48.3,37.6Z" fill="#3b53b5"/>
      <path id="Path_8204" data-name="Path 8204" d="M53.3,37.4a1.8,1.8,0,0,1,1.5.7A10.092,10.092,0,0,0,53.3,37.4Z" fill="#3b53b5"/>
      <path id="Path_8205" data-name="Path 8205" d="M59.2,38.6a1.4,1.4,0,0,1,0-1.4A6.534,6.534,0,0,1,59.2,38.6Z" fill="#3b53b5"/>
      <path id="Path_8206" data-name="Path 8206" d="M38.3,37.4a2.768,2.768,0,0,1,.3,1.3A1.943,1.943,0,0,1,38.3,37.4Z" fill="#3b53b5"/>
      <path id="Path_8207" data-name="Path 8207" d="M39.1,37.4a2.106,2.106,0,0,1,.5,1.3A2.106,2.106,0,0,1,39.1,37.4Z" fill="#3b53b5"/>
      <path id="Path_8208" data-name="Path 8208" d="M45.6,38.1a2.4,2.4,0,0,1,1.2-.7A1.525,1.525,0,0,1,45.6,38.1Z" fill="#3b53b5"/>
      <path id="Path_8209" data-name="Path 8209" d="M49.1,38.2a2.246,2.246,0,0,1,1.4-.6A3.506,3.506,0,0,1,49.1,38.2Z" fill="#3b53b5"/>
      <path id="Path_8210" data-name="Path 8210" d="M51.7,37.5a.842.842,0,0,1,.7.4C52.1,37.8,51.8,37.8,51.7,37.5Z" fill="#3b53b5"/>
      <path id="Path_8211" data-name="Path 8211" d="M46.6,38.4c0-.5.6-.6,1-.8A7.006,7.006,0,0,1,46.6,38.4Z" fill="#3b53b5"/>
      <path id="Path_8212" data-name="Path 8212" d="M52.8,37.8c.4-.3.8.2,1.2.4C53.6,38.1,53.2,37.9,52.8,37.8Z" fill="#3b53b5"/>
      <path id="Path_8213" data-name="Path 8213" d="M46.7,38.9a4.2,4.2,0,0,1,1.4-.9A1.945,1.945,0,0,1,46.7,38.9Z" fill="#3b53b5"/>
      <path id="Path_8214" data-name="Path 8214" d="M56,38.1a2.779,2.779,0,0,1,1.2,1.2A6.788,6.788,0,0,1,56,38.1Z" fill="#3b53b5"/>
      <path id="Path_8215" data-name="Path 8215" d="M55.3,38.3c.6,0,.9.5,1.1,1A10.949,10.949,0,0,1,55.3,38.3Z" fill="#3b53b5"/>
      <path id="Path_8216" data-name="Path 8216" d="M45,39.3c0-.4.5-.6.8-.8A1.085,1.085,0,0,1,45,39.3Z" fill="#3b53b5"/>
      <path id="Path_8217" data-name="Path 8217" d="M42.9,39.9c0-.4.4-.7.8-.9A6.47,6.47,0,0,1,42.9,39.9Z" fill="#3b53b5"/>
      <path id="Path_8218" data-name="Path 8218" d="M38.6,39.2h.2a3.4,3.4,0,0,1-.2,1.4Z" fill="#3b53b5"/>
      <path id="Path_8219" data-name="Path 8219" d="M39.5,40.3a1.844,1.844,0,0,1,.4-1.3A2.836,2.836,0,0,1,39.5,40.3Z" fill="#3b53b5"/>
      <path id="Path_8220" data-name="Path 8220" d="M58.7,39.1c.4.3.3.9.3,1.4C58.9,40,58.8,39.5,58.7,39.1Z" fill="#3b53b5"/>
      <path id="Path_8221" data-name="Path 8221" d="M40.6,40c.1-.3.3-.8.7-.8A1.779,1.779,0,0,1,40.6,40Z" fill="#3b53b5"/>
      <path id="Path_8222" data-name="Path 8222" d="M43.6,40.3a2.905,2.905,0,0,1,1.1-1.1A11.408,11.408,0,0,1,43.6,40.3Z" fill="#3b53b5"/>
      <path id="Path_8223" data-name="Path 8223" d="M37.9,41.4a2.51,2.51,0,0,1,.1-1.9A12.751,12.751,0,0,1,37.9,41.4Z" fill="#3b53b5"/>
      <path id="Path_8224" data-name="Path 8224" d="M56.4,39.6a1.653,1.653,0,0,1,.8,1.3A5.67,5.67,0,0,0,56.4,39.6Z" fill="#3b53b5"/>
      <path id="Path_8225" data-name="Path 8225" d="M57.1,39.5c.5.1.7.6.8,1.1C57.6,40.2,57.4,39.9,57.1,39.5Z" fill="#3b53b5"/>
      <path id="Path_8226" data-name="Path 8226" d="M58.2,39.7c.1.1.3.1.3.3a4.485,4.485,0,0,1,.1,1.1A10.261,10.261,0,0,1,58.2,39.7Z" fill="#3b53b5"/>
      <path id="Path_8227" data-name="Path 8227" d="M50.6,39.9a8.1,8.1,0,0,1,2.2,0,3.582,3.582,0,0,1,1.1.4,22.753,22.753,0,0,0-2.6-.2,10.081,10.081,0,0,0-2.5.5v-.2C49.4,40.3,50,40,50.6,39.9Z" fill="#d3826c"/>
      <path id="Path_8228" data-name="Path 8228" d="M55.9,39.8c.1,0,.2.1.3.1a4.875,4.875,0,0,1,.4,1.1C56.3,40.6,56.2,40.2,55.9,39.8Z" fill="#3b53b5"/>
      <path id="Path_8229" data-name="Path 8229" d="M41.5,41.4a2.751,2.751,0,0,1,.8-1.5A4.352,4.352,0,0,1,41.5,41.4Z" fill="#3b53b5"/>
      <path id="Path_8230" data-name="Path 8230" d="M43.6,41.4a2.54,2.54,0,0,1,1.2-1.3A15.38,15.38,0,0,1,43.6,41.4Z" fill="#3b53b5"/>
      <path id="Path_8231" data-name="Path 8231" d="M40.7,41.4a1.612,1.612,0,0,1,.6-1.3A3.1,3.1,0,0,1,40.7,41.4Z" fill="#3b53b5"/>
      <path id="Path_8232" data-name="Path 8232" d="M42.2,42c-.1-.7.5-1.2,1-1.6C42.9,40.9,42.5,41.4,42.2,42Z" fill="#3b53b5"/>
      <path id="Path_8233" data-name="Path 8233" d="M39.6,41.9a1.384,1.384,0,0,1,.3-1.4C39.8,40.9,39.7,41.4,39.6,41.9Z" fill="#3b53b5"/>
      <path id="Path_8234" data-name="Path 8234" d="M38.6,42.7c0-.5-.3-1.1.1-1.6A2.917,2.917,0,0,1,38.6,42.7Z" fill="#3b53b5"/>
      <path id="Path_8235" data-name="Path 8235" d="M57.8,41.3H58a2.462,2.462,0,0,1,.1,1.2A5.274,5.274,0,0,1,57.8,41.3Z" fill="#3b53b5"/>
      <path id="Path_8236" data-name="Path 8236" d="M56.9,41.4h.3a5.019,5.019,0,0,1,.2,1.2C57.2,42.2,57.1,41.8,56.9,41.4Z" fill="#3b53b5"/>
      <path id="Path_8237" data-name="Path 8237" d="M58.8,41.3a.349.349,0,0,1,.2.1,5.7,5.7,0,0,1-.1,1.3A6.149,6.149,0,0,1,58.8,41.3Z" fill="#3b53b5"/>
      <path id="Path_8238" data-name="Path 8238" d="M43.9,42.6a1.709,1.709,0,0,1,.7-1.3A5.388,5.388,0,0,1,43.9,42.6Z" fill="#3b53b5"/>
      <path id="Path_8239" data-name="Path 8239" d="M56.7,42.7a2.389,2.389,0,0,1-.5-1.4C56.7,41.6,56.6,42.2,56.7,42.7Z" fill="#3b53b5"/>
      <path id="Path_8240" data-name="Path 8240" d="M55.6,41.6c.4.1.4.7.4,1A1.433,1.433,0,0,1,55.6,41.6Z" fill="#3b53b5"/>
      <path id="Path_8241" data-name="Path 8241" d="M42.7,43.2c0-.5,0-1.2.5-1.4C43,42.2,42.9,42.7,42.7,43.2Z" fill="#3b53b5"/>
      <path id="Path_8242" data-name="Path 8242" d="M45.2,42a.349.349,0,0,0,.2.1c-.3.4-.5.8-.7,1.1A3.08,3.08,0,0,1,45.2,42Z" fill="#3b53b5"/>
      <path id="Path_8243" data-name="Path 8243" d="M51.2,41.9c.4.1.4.5.5.9A1.346,1.346,0,0,1,51.2,41.9Z" fill="#3b53b5"/>
      <path id="Path_8244" data-name="Path 8244" d="M52.9,42.1c.5.2.6.8.6,1.3A13.917,13.917,0,0,1,52.9,42.1Z" fill="#3b53b5"/>
      <path id="Path_8245" data-name="Path 8245" d="M55,42a1.746,1.746,0,0,1,.4,1.2A1.922,1.922,0,0,1,55,42Z" fill="#3b53b5"/>
      <path id="Path_8246" data-name="Path 8246" d="M48.2,43.3c.1-.4.1-.9.6-1A3.328,3.328,0,0,1,48.2,43.3Z" fill="#3b53b5"/>
      <path id="Path_8247" data-name="Path 8247" d="M49.8,43.1a1.332,1.332,0,0,1,.6-.9A3.49,3.49,0,0,1,49.8,43.1Z" fill="#3b53b5"/>
      <path id="Path_8248" data-name="Path 8248" d="M54.5,43.5a2.01,2.01,0,0,1-.4-1.3A3.992,3.992,0,0,1,54.5,43.5Z" fill="#3b53b5"/>
      <path id="Path_8249" data-name="Path 8249" d="M58.3,42.4h.3a3.812,3.812,0,0,1-.1,1.5A3.887,3.887,0,0,1,58.3,42.4Z" fill="#3b53b5"/>
      <path id="Path_8250" data-name="Path 8250" d="M45.5,43.6c.1-.4.2-1,.7-1.2A7.459,7.459,0,0,0,45.5,43.6Z" fill="#3b53b5"/>
      <path id="Path_8251" data-name="Path 8251" d="M39.1,42.9c0-.2.1-.3.1-.5.2.7.2,1.4.4,2.1A4.939,4.939,0,0,1,39.1,42.9Z" fill="#3b53b5"/>
      <path id="Path_8252" data-name="Path 8252" d="M42,44c0-.5-.2-1.1.3-1.5Z" fill="#3b53b5"/>
      <path id="Path_8253" data-name="Path 8253" d="M47.1,43.7c0-.4.1-1,.5-1.2A6.117,6.117,0,0,1,47.1,43.7Z" fill="#3b53b5"/>
      <path id="Path_8254" data-name="Path 8254" d="M38,42.7a.349.349,0,0,0,.2-.1c0,.5.1,1,.1,1.5A2.232,2.232,0,0,1,38,42.7Z" fill="#3b53b5"/>
      <path id="Path_8255" data-name="Path 8255" d="M50.5,43.9a2.745,2.745,0,0,1,.2-1.3A2.954,2.954,0,0,1,50.5,43.9Z" fill="#3b53b5"/>
      <path id="Path_8256" data-name="Path 8256" d="M46.6,42.7c0,.6-.4,1-.6,1.6A3.819,3.819,0,0,1,46.6,42.7Z" fill="#3b53b5"/>
      <path id="Path_8257" data-name="Path 8257" d="M43.7,44.3c-.1-.5-.2-1.1.2-1.4A5.9,5.9,0,0,1,43.7,44.3Z" fill="#3b53b5"/>
      <path id="Path_8258" data-name="Path 8258" d="M51.4,44.3a2.2,2.2,0,0,1-.2-1.4A2.2,2.2,0,0,1,51.4,44.3Z" fill="#3b53b5"/>
      <path id="Path_8259" data-name="Path 8259" d="M48.8,43.3a.367.367,0,0,0,.3-.1,4.253,4.253,0,0,1-.2,1.1A3.4,3.4,0,0,1,48.8,43.3Z" fill="#3b53b5"/>
      <path id="Path_8260" data-name="Path 8260" d="M56.9,43.1q.3.15.3.3a4.052,4.052,0,0,1,0,1.1A3.926,3.926,0,0,1,56.9,43.1Z" fill="#3b53b5"/>
      <path id="Path_8261" data-name="Path 8261" d="M57.7,43.1a1.594,1.594,0,0,1,0,1.5Z" fill="#3b53b5"/>
      <path id="Path_8262" data-name="Path 8262" d="M55.9,43.3c.4.3.3,1,.3,1.4h-.1A5.9,5.9,0,0,1,55.9,43.3Z" fill="#3b53b5"/>
      <path id="Path_8263" data-name="Path 8263" d="M47.7,45c0-.5-.1-1.1.3-1.5A3.339,3.339,0,0,1,47.7,45Z" fill="#3b53b5"/>
      <path id="Path_8264" data-name="Path 8264" d="M53,43.6a2.3,2.3,0,0,1,.4,1.4A5.732,5.732,0,0,1,53,43.6Z" fill="#3b53b5"/>
      <path id="Path_8265" data-name="Path 8265" d="M53.9,43.6c.3.2.3.6.4.9A1.8,1.8,0,0,1,53.9,43.6Z" fill="#3b53b5"/>
      <path id="Path_8266" data-name="Path 8266" d="M44.5,43.7h.2c-.1.4-.2.8-.3,1.3A6.151,6.151,0,0,1,44.5,43.7Z" fill="#3b53b5"/>
      <path id="Path_8267" data-name="Path 8267" d="M49.6,45.2a1.7,1.7,0,0,1,.2-1.4A2.4,2.4,0,0,1,49.6,45.2Z" fill="#3b53b5"/>
      <path id="Path_8268" data-name="Path 8268" d="M54.9,43.9h.3a3.329,3.329,0,0,1,.1,1.4A10.26,10.26,0,0,1,54.9,43.9Z" fill="#3b53b5"/>
      <path id="Path_8269" data-name="Path 8269" d="M59,43.8a.52.52,0,0,1,.2.4,4.869,4.869,0,0,1-.1,1.2A4.454,4.454,0,0,1,59,43.8Z" fill="#3b53b5"/>
      <path id="Path_8270" data-name="Path 8270" d="M45.1,45.3c0-.4-.2-1,.3-1.2A5.274,5.274,0,0,1,45.1,45.3Z" fill="#3b53b5"/>
      <path id="Path_8271" data-name="Path 8271" d="M46.3,45.4a2.232,2.232,0,0,1,.3-1.4A3.194,3.194,0,0,1,46.3,45.4Z" fill="#3b53b5"/>
      <path id="Path_8272" data-name="Path 8272" d="M41.3,45.4a2.438,2.438,0,0,1,0-1.2A1.65,1.65,0,0,1,41.3,45.4Z" fill="#3b53b5"/>
      <path id="Path_8273" data-name="Path 8273" d="M50.6,45.5a1.213,1.213,0,0,1,.1-1.3A5.7,5.7,0,0,1,50.6,45.5Z" fill="#3b53b5"/>
      <path id="Path_8274" data-name="Path 8274" d="M58.3,44.3h.2a8.6,8.6,0,0,1-.1,1.6A8.6,8.6,0,0,1,58.3,44.3Z" fill="#3b53b5"/>
      <path id="Path_8275" data-name="Path 8275" d="M38.6,44.4h.2a7.719,7.719,0,0,1,.2,1.5A4.191,4.191,0,0,1,38.6,44.4Z" fill="#3b53b5"/>
      <path id="Path_8276" data-name="Path 8276" d="M47,46a2.492,2.492,0,0,1,.3-1.7C47.2,44.9,47.1,45.4,47,46Z" fill="#3b53b5"/>
      <path id="Path_8277" data-name="Path 8277" d="M56.6,44.5a1.357,1.357,0,0,1,.1,1.5A7.569,7.569,0,0,1,56.6,44.5Z" fill="#3b53b5"/>
      <path id="Path_8278" data-name="Path 8278" d="M51.3,44.7c.4.3.2.8.2,1.2A1.721,1.721,0,0,1,51.3,44.7Z" fill="#3b53b5"/>
      <path id="Path_8279" data-name="Path 8279" d="M43.6,44.7c.3.4.1,1,.1,1.5A2.573,2.573,0,0,1,43.6,44.7Z" fill="#3b53b5"/>
      <path id="Path_8280" data-name="Path 8280" d="M48.3,45.1c0-.1.2-.2.3-.3-.1.5-.3,1.1-.4,1.6A1.95,1.95,0,0,1,48.3,45.1Z" fill="#3b53b5"/>
      <path id="Path_8281" data-name="Path 8281" d="M54.1,44.8c.1,0,.3.1.3.2a3.75,3.75,0,0,1,.1,1.1A4.951,4.951,0,0,1,54.1,44.8Z" fill="#3b53b5"/>
      <path id="Path_8282" data-name="Path 8282" d="M55.5,44.8c.1.1.2.2.2.3a3.75,3.75,0,0,1-.1,1.1C55.6,45.7,55.5,45.3,55.5,44.8Z" fill="#3b53b5"/>
      <path id="Path_8283" data-name="Path 8283" d="M52.9,46.2a2.382,2.382,0,0,1-.3-1.4A1.817,1.817,0,0,1,52.9,46.2Z" fill="#3b53b5"/>
      <path id="Path_8284" data-name="Path 8284" d="M57.5,45a.52.52,0,0,1,.2.4,5.852,5.852,0,0,1-.2,1.3A4.845,4.845,0,0,1,57.5,45Z" fill="#3b53b5"/>
      <path id="Path_8285" data-name="Path 8285" d="M42.6,45.1a3.812,3.812,0,0,1,.1,1.5A2.516,2.516,0,0,1,42.6,45.1Z" fill="#3b53b5"/>
      <path id="Path_8286" data-name="Path 8286" d="M48.9,47.1a2.016,2.016,0,0,1,.2-1.7A8.807,8.807,0,0,1,48.9,47.1Z" fill="#3b53b5"/>
      <path id="Path_8287" data-name="Path 8287" d="M41.7,45.5a3.812,3.812,0,0,1,.1,1.5A2.573,2.573,0,0,1,41.7,45.5Z" fill="#3b53b5"/>
      <path id="Path_8288" data-name="Path 8288" d="M51.8,45.6H52c0,.4.2,1-.1,1.4A6.6,6.6,0,0,0,51.8,45.6Z" fill="#3b53b5"/>
      <path id="Path_8289" data-name="Path 8289" d="M44.3,45.6a2.193,2.193,0,0,1,.2,1.6A8.753,8.753,0,0,1,44.3,45.6Z" fill="#3b53b5"/>
      <path id="Path_8290" data-name="Path 8290" d="M45.4,47a1.4,1.4,0,0,1,0-1.4Z" fill="#3b53b5"/>
      <path id="Path_8291" data-name="Path 8291" d="M46.3,47.1c-.1-.4-.4-1.1,0-1.4A3.3,3.3,0,0,1,46.3,47.1Z" fill="#3b53b5"/>
      <path id="Path_8292" data-name="Path 8292" d="M50.7,47.4a1.583,1.583,0,0,1,.1-1.5C50.8,46.4,50.7,46.9,50.7,47.4Z" fill="#3b53b5"/>
      <path id="Path_8293" data-name="Path 8293" d="M53.5,45.8a1.583,1.583,0,0,1,.1,1.5A7.569,7.569,0,0,1,53.5,45.8Z" fill="#3b53b5"/>
      <path id="Path_8294" data-name="Path 8294" d="M54.9,46.3a.349.349,0,0,0,.2-.1,2.492,2.492,0,0,1-.3,1.7A8.083,8.083,0,0,1,54.9,46.3Z" fill="#3b53b5"/>
      <path id="Path_8295" data-name="Path 8295" d="M56.7,46.4h.2a6.752,6.752,0,0,1-.2,1.4A3.3,3.3,0,0,1,56.7,46.4Z" fill="#3b53b5"/>
      <path id="Path_8296" data-name="Path 8296" d="M51.4,47.9a3.812,3.812,0,0,1-.1-1.5A7.569,7.569,0,0,1,51.4,47.9Z" fill="#3b53b5"/>
      <path id="Path_8297" data-name="Path 8297" d="M58.6,46.5h.2c0,.4.1.8-.2,1.1Z" fill="#3b53b5"/>
      <path id="Path_8298" data-name="Path 8298" d="M38.9,46.5a4.193,4.193,0,0,1,.4,1.6A3.166,3.166,0,0,1,38.9,46.5Z" fill="#3b53b5"/>
      <path id="Path_8299" data-name="Path 8299" d="M43.4,46.5a3.233,3.233,0,0,1,.3,1.7A2.107,2.107,0,0,1,43.4,46.5Z" fill="#3b53b5"/>
      <path id="Path_8300" data-name="Path 8300" d="M55.9,46.5c.2.3.1.6.1.9a1.613,1.613,0,0,1-.3.9A11.019,11.019,0,0,1,55.9,46.5Z" fill="#3b53b5"/>
      <path id="Path_8301" data-name="Path 8301" d="M58,47.8a2.2,2.2,0,0,1,.2-1.4A2.2,2.2,0,0,1,58,47.8Z" fill="#3b53b5"/>
      <path id="Path_8302" data-name="Path 8302" d="M39.7,46.7c.4.3.3.9.5,1.4A1.553,1.553,0,0,1,39.7,46.7Z" fill="#3b53b5"/>
      <path id="Path_8303" data-name="Path 8303" d="M34.6,47a12.9,12.9,0,0,1,.9,1.6A17.33,17.33,0,0,0,39.2,53a17.2,17.2,0,0,0,5,2.7,8.64,8.64,0,0,1-2.1-.7,9.24,9.24,0,0,1-3.4-2.1,15.269,15.269,0,0,1-3.4-4.5C35.1,48,34.8,47.5,34.6,47Z" fill="#d3826c"/>
      <path id="Path_8304" data-name="Path 8304" d="M42.6,47a2.953,2.953,0,0,1,.2,1.3A1.039,1.039,0,0,1,42.6,47Z" fill="#3b53b5"/>
      <path id="Path_8305" data-name="Path 8305" d="M46.8,47.1c.4.3.3.9.3,1.4A3.926,3.926,0,0,1,46.8,47.1Z" fill="#3b53b5"/>
      <path id="Path_8306" data-name="Path 8306" d="M48.1,47a3.178,3.178,0,0,1,.2,1.4A2.2,2.2,0,0,1,48.1,47Z" fill="#3b53b5"/>
      <path id="Path_8307" data-name="Path 8307" d="M54.2,47a.349.349,0,0,1,.1.2,4.013,4.013,0,0,1-.3,1.5A8.807,8.807,0,0,0,54.2,47Z" fill="#3b53b5"/>
      <path id="Path_8308" data-name="Path 8308" d="M52.9,47.1c.4.4.2,1.1.1,1.6A2.917,2.917,0,0,1,52.9,47.1Z" fill="#3b53b5"/>
      <path id="Path_8309" data-name="Path 8309" d="M45.1,47.4c.3.3.2.9.2,1.3A2.953,2.953,0,0,1,45.1,47.4Z" fill="#3b53b5"/>
      <path id="Path_8310" data-name="Path 8310" d="M42,49.1a1.81,1.81,0,0,1-.1-1.6A8.083,8.083,0,0,1,42,49.1Z" fill="#3b53b5"/>
      <path id="Path_8311" data-name="Path 8311" d="M49.1,48.8a1.72,1.72,0,0,1-.1-1.4A3.329,3.329,0,0,1,49.1,48.8Z" fill="#3b53b5"/>
      <path id="Path_8312" data-name="Path 8312" d="M51.9,47.7l.1-.1a2.556,2.556,0,0,1,0,1.5A3.437,3.437,0,0,1,51.9,47.7Z" fill="#3b53b5"/>
      <path id="Path_8313" data-name="Path 8313" d="M49.9,49a1.962,1.962,0,0,1-.1-1.5A2.573,2.573,0,0,1,49.9,49Z" fill="#3b53b5"/>
      <path id="Path_8314" data-name="Path 8314" d="M57,47.7a.215.215,0,0,0,.2.2,2.935,2.935,0,0,1-.3,1A2.633,2.633,0,0,1,57,47.7Z" fill="#3b53b5"/>
      <path id="Path_8315" data-name="Path 8315" d="M44.3,48.1c.1,0,.2,0,.2-.1a5.067,5.067,0,0,1,.2,1.3A2.843,2.843,0,0,1,44.3,48.1Z" fill="#3b53b5"/>
      <path id="Path_8316" data-name="Path 8316" d="M50.5,48h.3a4.869,4.869,0,0,1-.1,1.2A5.019,5.019,0,0,1,50.5,48Z" fill="#3b53b5"/>
      <path id="Path_8317" data-name="Path 8317" d="M40.9,48.1a.349.349,0,0,0,.2.1,1.95,1.95,0,0,1,.1,1.3A3.926,3.926,0,0,1,40.9,48.1Z" fill="#3b53b5"/>
      <path id="Path_8318" data-name="Path 8318" d="M57.7,49.7a2.6,2.6,0,0,1,.4-1.5A1.674,1.674,0,0,1,57.7,49.7Z" fill="#3b53b5"/>
      <path id="Path_8319" data-name="Path 8319" d="M55,48.4h.2a4.191,4.191,0,0,1-.4,1.5C54.9,49.3,54.9,48.9,55,48.4Z" fill="#3b53b5"/>
      <path id="Path_8320" data-name="Path 8320" d="M47.8,49.8a1.735,1.735,0,0,1-.3-1.4A3.926,3.926,0,0,1,47.8,49.8Z" fill="#3b53b5"/>
      <path id="Path_8321" data-name="Path 8321" d="M56.1,48.4a2.155,2.155,0,0,1-.5,1.7A5.488,5.488,0,0,1,56.1,48.4Z" fill="#3b53b5"/>
      <path id="Path_8322" data-name="Path 8322" d="M40.5,50a2.146,2.146,0,0,1-.4-1.5A2.822,2.822,0,0,1,40.5,50Z" fill="#3b53b5"/>
      <path id="Path_8323" data-name="Path 8323" d="M53.4,48.6a.349.349,0,0,1,.2.1,6.943,6.943,0,0,1-.5,1.3C53.2,49.5,53.3,49.1,53.4,48.6Z" fill="#3b53b5"/>
      <path id="Path_8324" data-name="Path 8324" d="M45.7,48.8c.3.3.3.9.4,1.3A2.836,2.836,0,0,1,45.7,48.8Z" fill="#3b53b5"/>
      <path id="Path_8325" data-name="Path 8325" d="M43.7,48.9a.349.349,0,0,1,.2.1,2.953,2.953,0,0,1,.2,1.3A5.732,5.732,0,0,1,43.7,48.9Z" fill="#3b53b5"/>
      <path id="Path_8326" data-name="Path 8326" d="M39.6,49a7.973,7.973,0,0,1,.8,1.6A2.722,2.722,0,0,1,39.6,49Z" fill="#3b53b5"/>
      <path id="Path_8327" data-name="Path 8327" d="M42.7,49a2.3,2.3,0,0,1,.4,1.4A2.735,2.735,0,0,1,42.7,49Z" fill="#3b53b5"/>
      <path id="Path_8328" data-name="Path 8328" d="M48.4,49.4c0-.2,0-.3.1-.4a4.329,4.329,0,0,1,.1,1.6A2.537,2.537,0,0,1,48.4,49.4Z" fill="#3b53b5"/>
      <path id="Path_8329" data-name="Path 8329" d="M54.1,49.2c.1,0,.2-.1.3-.2a3.694,3.694,0,0,1-.7,1.4A5.638,5.638,0,0,1,54.1,49.2Z" fill="#3b53b5"/>
      <path id="Path_8330" data-name="Path 8330" d="M49.5,50.5a3.4,3.4,0,0,1-.2-1.4A2.2,2.2,0,0,1,49.5,50.5Z" fill="#3b53b5"/>
      <path id="Path_8331" data-name="Path 8331" d="M51.2,49.3c.4.3.3.9.2,1.3A2.953,2.953,0,0,1,51.2,49.3Z" fill="#3b53b5"/>
      <path id="Path_8332" data-name="Path 8332" d="M52.4,49.3h.2a3.887,3.887,0,0,1-.2,1.5Z" fill="#3b53b5"/>
      <path id="Path_8333" data-name="Path 8333" d="M46.7,49.3c.4.3.4.9.4,1.4A5.732,5.732,0,0,1,46.7,49.3Z" fill="#3b53b5"/>
      <path id="Path_8334" data-name="Path 8334" d="M56.8,49.4a.367.367,0,0,1,.3.1,3.7,3.7,0,0,1-.5,1.1A5.019,5.019,0,0,1,56.8,49.4Z" fill="#3b53b5"/>
      <path id="Path_8335" data-name="Path 8335" d="M41.6,49.5a2.246,2.246,0,0,1,.6,1.4A2.847,2.847,0,0,1,41.6,49.5Z" fill="#3b53b5"/>
      <path id="Path_8336" data-name="Path 8336" d="M50.2,49.6h.2v1.3A5.066,5.066,0,0,1,50.2,49.6Z" fill="#3b53b5"/>
      <path id="Path_8337" data-name="Path 8337" d="M45,49.7h.2l.3,1.2A7.255,7.255,0,0,1,45,49.7Z" fill="#3b53b5"/>
      <path id="Path_8338" data-name="Path 8338" d="M57.3,51.3a7.539,7.539,0,0,1,.6-1.3,2.843,2.843,0,0,1-.4,1.2A.349.349,0,0,0,57.3,51.3Z" fill="#3b53b5"/>
      <path id="Path_8339" data-name="Path 8339" d="M41,50.1a2.2,2.2,0,0,1,.5,1.2A1.346,1.346,0,0,1,41,50.1Z" fill="#3b53b5"/>
      <path id="Path_8340" data-name="Path 8340" d="M54.1,51.5a3.36,3.36,0,0,1,.5-1.4A1.624,1.624,0,0,1,54.1,51.5Z" fill="#3b53b5"/>
      <path id="Path_8341" data-name="Path 8341" d="M44.5,50.6c0-.1.1-.2.1-.3a8.8,8.8,0,0,1,.5,1.5A6.721,6.721,0,0,1,44.5,50.6Z" fill="#3b53b5"/>
      <path id="Path_8342" data-name="Path 8342" d="M44,51.7c-.3-.2-.8-.8-.4-1.2C43.7,51,43.9,51.3,44,51.7Z" fill="#3b53b5"/>
      <path id="Path_8343" data-name="Path 8343" d="M46.9,52a4.013,4.013,0,0,1-.3-1.5A4.013,4.013,0,0,1,46.9,52Z" fill="#3b53b5"/>
      <path id="Path_8344" data-name="Path 8344" d="M47.6,50.5c.5.3.3,1,.4,1.5A4.191,4.191,0,0,1,47.6,50.5Z" fill="#3b53b5"/>
      <path id="Path_8345" data-name="Path 8345" d="M55.6,50.8c.1-.1.2-.2.3-.2a2.871,2.871,0,0,1-.8,1.3A9.745,9.745,0,0,1,55.6,50.8Z" fill="#3b53b5"/>
      <path id="Path_8346" data-name="Path 8346" d="M51.7,50.7c.4.3.1,1,0,1.4A3.3,3.3,0,0,1,51.7,50.7Z" fill="#3b53b5"/>
      <path id="Path_8347" data-name="Path 8347" d="M49.5,50.9c.4.3.3.8.2,1.2A5.019,5.019,0,0,1,49.5,50.9Z" fill="#3b53b5"/>
      <path id="Path_8348" data-name="Path 8348" d="M53.2,50.9a3.707,3.707,0,0,1-.4,1.5A4.191,4.191,0,0,1,53.2,50.9Z" fill="#3b53b5"/>
      <path id="Path_8349" data-name="Path 8349" d="M55.8,52.3a1.709,1.709,0,0,1,.7-1.3A2.389,2.389,0,0,1,55.8,52.3Z" fill="#3b53b5"/>
      <path id="Path_8350" data-name="Path 8350" d="M43.2,52.5c-.3-.4-.7-.9-.5-1.4A5.783,5.783,0,0,1,43.2,52.5Z" fill="#3b53b5"/>
      <path id="Path_8351" data-name="Path 8351" d="M48.6,51.1c.4.2.2.8.3,1.2A2.663,2.663,0,0,1,48.6,51.1Z" fill="#3b53b5"/>
      <path id="Path_8352" data-name="Path 8352" d="M50.8,51.3H51a3.049,3.049,0,0,1-.3,1.6A8.083,8.083,0,0,0,50.8,51.3Z" fill="#3b53b5"/>
      <path id="Path_8353" data-name="Path 8353" d="M41,51.6a2.925,2.925,0,0,1,.7,1.2A2.134,2.134,0,0,1,41,51.6Z" fill="#3b53b5"/>
      <path id="Path_8354" data-name="Path 8354" d="M41.7,51.8h.2a6.721,6.721,0,0,1,.6,1.2A2.135,2.135,0,0,1,41.7,51.8Z" fill="#3b53b5"/>
      <path id="Path_8355" data-name="Path 8355" d="M44.4,51.8a3.1,3.1,0,0,1,.6,1.3C44.7,52.7,44.3,52.3,44.4,51.8Z" fill="#3b53b5"/>
      <path id="Path_8356" data-name="Path 8356" d="M52.2,51.8c.2.5-.1,1-.3,1.5A3.653,3.653,0,0,1,52.2,51.8Z" fill="#3b53b5"/>
      <path id="Path_8357" data-name="Path 8357" d="M53.4,52.1c.3.4-.1.9-.3,1.3A2.768,2.768,0,0,1,53.4,52.1Z" fill="#3b53b5"/>
      <path id="Path_8358" data-name="Path 8358" d="M54,53.5a2.815,2.815,0,0,1,.6-1.5A2.529,2.529,0,0,1,54,53.5Z" fill="#3b53b5"/>
      <path id="Path_8359" data-name="Path 8359" d="M56.1,53.2a4.184,4.184,0,0,1,.8-1.2A1.482,1.482,0,0,1,56.1,53.2Z" fill="#3b53b5"/>
      <path id="Path_8360" data-name="Path 8360" d="M47.6,52.4a2.567,2.567,0,0,1,.5,1.2A1.584,1.584,0,0,1,47.6,52.4Z" fill="#3b53b5"/>
      <path id="Path_8361" data-name="Path 8361" d="M49.9,53.8a2.879,2.879,0,0,1,.1-1.3A1.99,1.99,0,0,1,49.9,53.8Z" fill="#3b53b5"/>
      <path id="Path_8362" data-name="Path 8362" d="M46,53.8a1.974,1.974,0,0,1-.6-1.2A6.659,6.659,0,0,1,46,53.8Z" fill="#3b53b5"/>
      <path id="Path_8363" data-name="Path 8363" d="M43.6,52.6a8.265,8.265,0,0,1,.7,1.3A2.091,2.091,0,0,1,43.6,52.6Z" fill="#3b53b5"/>
      <path id="Path_8364" data-name="Path 8364" d="M54.8,53.8c.2-.4.3-1,.8-1.2A1.991,1.991,0,0,1,54.8,53.8Z" fill="#3b53b5"/>
      <path id="Path_8365" data-name="Path 8365" d="M49,52.8h.2a3.4,3.4,0,0,1-.2,1.4Z" fill="#3b53b5"/>
      <path id="Path_8366" data-name="Path 8366" d="M46.6,52.9c.2-.2.3.1.3.2a2.92,2.92,0,0,1,.2.9A3.7,3.7,0,0,1,46.6,52.9Z" fill="#3b53b5"/>
      <path id="Path_8367" data-name="Path 8367" d="M50.9,54.6a3.887,3.887,0,0,1,.2-1.5A2,2,0,0,1,50.9,54.6Z" fill="#3b53b5"/>
      <path id="Path_8368" data-name="Path 8368" d="M42.9,53.3c.5.1.5.6.7,1A1.834,1.834,0,0,1,42.9,53.3Z" fill="#3b53b5"/>
      <path id="Path_8369" data-name="Path 8369" d="M45,53.5a3.379,3.379,0,0,1,.6,1.2A1.743,1.743,0,0,1,45,53.5Z" fill="#3b53b5"/>
      <path id="Path_8370" data-name="Path 8370" d="M51.8,54.9a1.575,1.575,0,0,1,.4-1.3A2.01,2.01,0,0,1,51.8,54.9Z" fill="#3b53b5"/>
      <path id="Path_8371" data-name="Path 8371" d="M48.3,55.1c0-.4-.2-.9,0-1.3A2.845,2.845,0,0,1,48.3,55.1Z" fill="#3b53b5"/>
      <path id="Path_8372" data-name="Path 8372" d="M52.8,55c.1-.4.1-1,.6-1.2A2.281,2.281,0,0,1,52.8,55Z" fill="#3b53b5"/>
      <path id="Path_8373" data-name="Path 8373" d="M46.8,55c-.3-.2-.7-.6-.6-1A8.794,8.794,0,0,1,46.8,55Z" fill="#3b53b5"/>
      <path id="Path_8374" data-name="Path 8374" d="M53.6,55.2a1.433,1.433,0,0,1,.5-1.1A1.274,1.274,0,0,1,53.6,55.2Z" fill="#3b53b5"/>
      <path id="Path_8375" data-name="Path 8375" d="M49.6,54.3c.3,0,.3.4.3.6a1.421,1.421,0,0,1-.2.6A4.869,4.869,0,0,1,49.6,54.3Z" fill="#3b53b5"/>
      <path id="Path_8376" data-name="Path 8376" d="M44.5,54.4a10.475,10.475,0,0,1,.8,1.1C44.9,55.2,44.4,54.9,44.5,54.4Z" fill="#3b53b5"/>
      <path id="Path_8377" data-name="Path 8377" d="M50.7,56.2a1.23,1.23,0,0,1,.1-1.3C50.8,55.4,50.7,55.8,50.7,56.2Z" fill="#3b53b5"/>
      <path id="Path_8378" data-name="Path 8378" d="M48.9,56.3c-.1-.3-.5-.8-.1-1.1C48.8,55.6,48.9,56,48.9,56.3Z" fill="#3b53b5"/>
      <path id="Path_8379" data-name="Path 8379" d="M51.4,56.2a1.431,1.431,0,0,1,.3-1.1C51.7,55.6,51.7,56,51.4,56.2Z" fill="#3b53b5"/>
      <path id="Path_8380" data-name="Path 8380" d="M52.3,56.1a1.135,1.135,0,0,1,.3-.8c.3-.1.1.3.1.4Z" fill="#3b53b5"/>
      <path id="Path_8381" data-name="Path 8381" d="M49.7,55.7h.2a2.769,2.769,0,0,1,.1.9C49.7,56.4,49.7,56,49.7,55.7Z" fill="#3b53b5"/>
      <path id="Path_8382" data-name="Path 8382" d="M40.2,55.9a16.5,16.5,0,0,0,5.7,1.8c1.1.1,2.2.2,3.4.2a9.15,9.15,0,0,1-1.7.1,13.425,13.425,0,0,1-3.5-.4A14.911,14.911,0,0,1,40.2,55.9Z" fill="#d3826c"/>
      <path id="Path_8383" data-name="Path 8383" d="M24.8,56.7c.3.1.4.4.5.6a8.342,8.342,0,0,0,.8,1.2,5.8,5.8,0,0,0,1,1.2A17.382,17.382,0,0,0,28.6,61a15.813,15.813,0,0,0,2.9,2.2c.9.6,1.9,1,2.8,1.5a12.379,12.379,0,0,0,3.2,1.2,17.558,17.558,0,0,0,3.9.6,9.15,9.15,0,0,0,1.7-.1c1.1-.2,2.3-.3,3.4-.6,1.2-.3,2.4-.8,3.6-1.2a24.416,24.416,0,0,0,5.6-3.9c.4-.3.8-.9,1.4-.9a32.36,32.36,0,0,1-5.9,4.4,15.112,15.112,0,0,1-2.9,1.3,24.824,24.824,0,0,1-5.4,1.2c-1,.1-2.1,0-3.2,0a16.908,16.908,0,0,1-4.8-1.2c-1-.4-1.9-1-2.9-1.4a27.032,27.032,0,0,1-3.3-2.2c-.7-.8-1.7-1.4-2.4-2.2C25.9,58.7,25,57.8,24.8,56.7Z" fill="#6fc161"/>
      <path id="Path_8384" data-name="Path 8384" d="M46.9,69.8a13.553,13.553,0,0,1,2-.2c-.9.2-1.8.3-2.6.4a40.455,40.455,0,0,1-4.9.4c-.6,0-1.2.1-1.8.1a6.279,6.279,0,0,1,1.9-.3A52.912,52.912,0,0,0,46.9,69.8Z" fill="#6fc161"/>
      <path id="Path_8385" data-name="Path 8385" d="M56,78.9a28.859,28.859,0,0,0,5.8-1.4,8.65,8.65,0,0,1-1.7.7c-.7.2-1.3.4-2,.6a14.723,14.723,0,0,1-3.6.4c-.7,0-1.5.1-2.2.1A24.566,24.566,0,0,1,56,78.9Z" fill="#6fc161"/>
    </g>
  </g>
</svg>
