<svg id="avatar-3" xmlns="http://www.w3.org/2000/svg" xmlns:xlink="http://www.w3.org/1999/xlink" width="86" height="86" viewBox="0 0 86 86">
  <defs>
    <clipPath id="clip-path">
      <circle id="Ellipse_401" data-name="Ellipse 401" cx="43" cy="43" r="43"/>
    </clipPath>
  </defs>
  <g id="Group_6473" data-name="Group 6473" clip-path="url(#clip-path)">
    <rect id="Rectangle_1436" data-name="Rectangle 1436" width="86" height="86" fill="#c5d2ff"/>
  </g>
  <g id="Group_6477" data-name="Group 6477" clip-path="url(#clip-path)">
    <g id="Group_6474" data-name="Group 6474">
      <path id="Path_7619" data-name="Path 7619" d="M44.6,13.2a13.678,13.678,0,0,1,2.9-.2.758.758,0,0,1-.2.4,4.939,4.939,0,0,0,1.8,2A8.129,8.129,0,0,1,51,17.2a4.911,4.911,0,0,1,1.3,3.5,5.274,5.274,0,0,1-.3,1.2,5.258,5.258,0,0,1,2.8,1.8,7.767,7.767,0,0,1,1.4,4.1,16.844,16.844,0,0,1-.8,5.9,35.8,35.8,0,0,1-1.1,3.5A16.924,16.924,0,0,1,53,40.3a3.157,3.157,0,0,1-1.7,1.1,12.57,12.57,0,0,1-6.1.2,32.089,32.089,0,0,1-10.7-4.3,43.652,43.652,0,0,0-5.7-2.9,13.272,13.272,0,0,0-2.1-.9c.2.3.6.6.7,1-.1.1-.1.2-.2.3a11.38,11.38,0,0,1-1.9-1.9,5.009,5.009,0,0,1-.6-3.2,6.912,6.912,0,0,1,3-5.3,4.983,4.983,0,0,1,0-4.3A10.336,10.336,0,0,1,31,16.5,12.664,12.664,0,0,1,34.1,15C37.5,13.7,41.1,13.6,44.6,13.2Z" fill="#1b4e61"/>
      <path id="Path_7620" data-name="Path 7620" d="M26.9,57.2a19.4,19.4,0,0,0,2.4-1.5c.7.5,1.4.9,2,1.4.2.2.4.6.8.7.7.2,1.3.8,2,1a12.089,12.089,0,0,1,2.5.8c.3.3.4.7.7.9A4.708,4.708,0,0,1,38.6,62c.1.4.3.8.4,1.2a1.375,1.375,0,0,1-1,.8,9.256,9.256,0,0,1-2.3.4,7.946,7.946,0,0,1-5.1-1.8c-.7-.5-1.3-1.1-2-1.7a5.9,5.9,0,0,1-1.2-2.2C27.2,58.2,27.1,57.7,26.9,57.2Z" fill="#6e8bf4"/>
      <path id="Path_7621" data-name="Path 7621" d="M49.9,63.2a11.274,11.274,0,0,1,1.2-1.8c.3,0,.2.2.1.4a12.445,12.445,0,0,0-1,2c-.5,1.2-1.2,2.3-1.6,3.5-.5,1.2-1,2.4-1.4,3.6-.4,1.3-.7,2.7-1,4-.5,2-.9,4.1-1.4,6.1A87.688,87.688,0,0,0,43,89.6a1.421,1.421,0,0,1-.2.6c-.1-1.4-.5-2.8-.6-4.2-.2-1.3-.2-2.6-.3-4-.2-2.6-.4-5.1-.8-7.7-.5-2.3-.5-4.7-1-7-.2-.7-.3-1.5-.5-2.2a4.329,4.329,0,0,1-.1-1.6c0-.1.1-.2.2-.3a1.69,1.69,0,0,1,.2.5,10.284,10.284,0,0,1,1.7-.1c1.4-.2,2.7-.2,4.1-.3.8,0,1.6-.1,2.4-.1.2,0,.3.1.5.2C48.9,63.4,49.4,63.2,49.9,63.2Z" fill="#fff"/>
      <path id="Path_7625" data-name="Path 7625" d="M44.8,86.948l8.756-1.333L62.361,82.3l9.875-7.223s8.313-6.894,6.813-8.394c-1.5-1.6-.149-.385-1.949-1.785A71.532,71.532,0,0,0,69.8,60a48.425,48.425,0,0,1-4.6-3.3,39.674,39.674,0,0,1-4.1-4.1c-1-.9-1.8-2-2.8-2.8a2.281,2.281,0,0,0-1.2-.6c-.3,0-.6.2-.9.2h-.9c-1.3.2-2.6.6-3.8.9-1.6.3-3.3.5-4.9.8-1.4.3-2.7.8-4.1,1.1a23.348,23.348,0,0,0-2.5.7c-2.5.8-5.1,1.1-7.7,1.8v-.3c-1,.2-1.9.5-2.8.7-.1.1-.1.3-.2.4.7.5,1.4.9,2,1.4.3.2.4.6.8.7.7.2,1.3.8,2,1a12.089,12.089,0,0,1,2.5.8c.3.3.4.7.7.9a4.708,4.708,0,0,1,1.3,1.5c.1.4.3.8.4,1.2a1.375,1.375,0,0,1-1,.8,9.256,9.256,0,0,1-2.3.4,7.946,7.946,0,0,1-5.1-1.8c-.7-.5-1.3-1.1-2-1.7a5.9,5.9,0,0,1-1.2-2.2,8.8,8.8,0,0,1-.5-1.5,43.194,43.194,0,0,1-4.5,1.9c-1.7.6-3.3,1.3-5,1.9-1.7.8-3.4,1.4-5.1,2.2-1,.5-2,1-3,1.4a15.713,15.713,0,0,1-2.3.9c-1.2.6.563,3.714.563,3.714l5.816,6.065L18.522,79.3l7.136,3.9,7.722,2.415ZM49.2,65.5a37.062,37.062,0,0,0-1.9,4.6,73.573,73.573,0,0,0-2.5,9.2c-.4,1.5-.7,3.1-1.1,4.6-.3,1.2-.079,2.5-.679,3.6a1.4,1.4,0,0,1-1.521,0c-.8-1.2,0-2.9,0-4.3a44.757,44.757,0,0,0-.6-6.3c-.3-2.1-.6-4.2-.7-6.3a54.026,54.026,0,0,0-.8-6.9c0-.1,0-.3.1-.3l.1-.1c1.8-1.6,4.5-1.3,6.7-1.4.9,0,4-.7,4.2.7C50.5,63.6,49.6,64.7,49.2,65.5Z" fill="#6e8bf4"/>
    </g>
    <g id="Group_6475" data-name="Group 6475">
      <path id="Path_7646" data-name="Path 7646" d="M36.3,25.3a11.187,11.187,0,0,1,3.6-.5,12.213,12.213,0,0,1,2.6.6,3.552,3.552,0,0,1,.9.4,14.523,14.523,0,0,0,.2,3.6A8.714,8.714,0,0,0,45,32.5a20.522,20.522,0,0,1,3.4,5.7h.3a6.251,6.251,0,0,1,.9-4,2.609,2.609,0,0,1,1.6-1.1,3.656,3.656,0,0,1,3.2.6A4.573,4.573,0,0,1,56,37.4a5.651,5.651,0,0,1-1.6,3.8,18.01,18.01,0,0,0,.6,3.2,17.421,17.421,0,0,0,1.7,4.5,5.38,5.38,0,0,1,.5,3.1A15.479,15.479,0,0,1,55,57.1c-.7,1-1.4,2-2.1,3.1-.6.8-1.2,1.6-1.9,2.4a4.069,4.069,0,0,1-2.6,1.3,20.264,20.264,0,0,1-4.3.6c-1.6,0-3.4.1-4.9-.7a1.284,1.284,0,0,0-.4-1c-.7-1.1-1.5-2.2-2.2-3.3a15.4,15.4,0,0,1-3.7-.9,23.924,23.924,0,0,1-2.1-1.3,13.307,13.307,0,0,1-2.3-3,24.883,24.883,0,0,1-2.6-8.4,52.159,52.159,0,0,1-.4-9.7c.1-1.4.1-2.8.3-4.2.2-1,.5-2,.8-3a13.264,13.264,0,0,1,1.6-3.4l.4-.4a4.424,4.424,0,0,0,1.5.5,13.551,13.551,0,0,0,3.5-.1A11.153,11.153,0,0,0,36.3,25.3Z" fill="#e8774f"/>
    </g>
    <g id="Group_6476" data-name="Group 6476">
      <path id="Path_7649" data-name="Path 7649" d="M45.5,13.6a5.84,5.84,0,0,1,1.8-.4c-1,.3-2.1.6-3.1,1A13.8,13.8,0,0,0,40,16.3a7.02,7.02,0,0,0-2.2,2.9,3.7,3.7,0,0,0,.7,3.2c.6.8,1.5,1.2,2,2a1.421,1.421,0,0,1,.2.6c-.3-.2-.4-.6-.7-.8a11.369,11.369,0,0,1-1.6-1.5,4.108,4.108,0,0,1-.8-3.2,4.981,4.981,0,0,1,1-1.9A13.968,13.968,0,0,1,44.7,14,2.01,2.01,0,0,1,45.5,13.6Z" fill="#102f3b"/>
      <path id="Path_7650" data-name="Path 7650" d="M44.4,13.5h1.1a6.89,6.89,0,0,0-.8.3l-.1-.1c-.1,0-.1,0-.2-.2Z" fill="#bec6ca"/>
      <path id="Path_7651" data-name="Path 7651" d="M40.6,14.4a9.037,9.037,0,0,1,2.1-.8c-.4.2-.8.3-1.3.5a11.59,11.59,0,0,0-5,4,5.033,5.033,0,0,0-.9,3.3,3.524,3.524,0,0,0,1.4,2,13.734,13.734,0,0,0,2,1.3c-.5.1-.9-.3-1.4-.5A9.337,9.337,0,0,1,36,22.9a3.532,3.532,0,0,1-.5-3.3A9.257,9.257,0,0,1,38.1,16C38.9,15.5,39.7,14.9,40.6,14.4Z" fill="#102f3b"/>
      <path id="Path_7652" data-name="Path 7652" d="M42.8,14.1a4.711,4.711,0,0,1,1.7-.4v.1a10.729,10.729,0,0,0-4.1,1.8,9.253,9.253,0,0,0-3.3,3.5,3.613,3.613,0,0,0-.3,2.7,3.561,3.561,0,0,0,1.4,1.8,16.287,16.287,0,0,0,1.7,1.1.349.349,0,0,1,.1.2,3.128,3.128,0,0,1-1-.5,7.1,7.1,0,0,1-1.4-1,4.212,4.212,0,0,1-1-2.6A6.916,6.916,0,0,1,40,15.9,8.389,8.389,0,0,1,42.8,14.1Z" fill="#102f3b"/>
      <path id="Path_7653" data-name="Path 7653" d="M46.9,13.6c.1,0,.3.1.3.2a5.2,5.2,0,0,0,2,2.4A4.689,4.689,0,0,1,51,18.1a5.708,5.708,0,0,1,.4,2.9,4.253,4.253,0,0,1-.2,1.1c.2-.1.5-.2.7-.3a1,1,0,0,1-.5.4c-.4.1-.8.3-1.3.4a13.43,13.43,0,0,0-5.4,2.2,13.444,13.444,0,0,1-1.4,1.1c.2-.3.5-.5.6-.8a4.623,4.623,0,0,0-.9-3.2,5.183,5.183,0,0,1-1.2-2.6,7.143,7.143,0,0,0,.8,1.5,6.71,6.71,0,0,1,1.6,4c.2-.2.5-.4.7-.6a6.154,6.154,0,0,0-.7-2.3c-.5-.9-1.5-1.6-1.9-2.6a2.193,2.193,0,0,1-.2-1.6,9.363,9.363,0,0,0,.4,1.6A8.446,8.446,0,0,0,44,21.1a4.3,4.3,0,0,1,1,3.1,1,1,0,0,0,.5-.4,18.77,18.77,0,0,0-1.2-3,22.63,22.63,0,0,1-1.3-2,4.418,4.418,0,0,1-.6-1.6,1.431,1.431,0,0,1,.3-1.1,2.769,2.769,0,0,0-.1,1.3c.4,1.6,1.7,2.8,2.5,4.2a2.977,2.977,0,0,1,.4,2.1c.2-.1.3-.2.5-.3a7.543,7.543,0,0,0-.9-2.9A15.258,15.258,0,0,0,44,18.9a3.458,3.458,0,0,1-.7-1.2c-.3-.7-.6-1.5,0-2.1a2.879,2.879,0,0,0-.1,1.3,4.351,4.351,0,0,0,1,1.9,13.443,13.443,0,0,1,1.1,1.4,5.078,5.078,0,0,1,1,2.9l.6-.3a6.448,6.448,0,0,0-.3-2,10.376,10.376,0,0,1-.4-1c.1,0,.2.1.3.1a5.376,5.376,0,0,1,.8,2.8,1.421,1.421,0,0,1,.6-.2,6.8,6.8,0,0,0-.2-2,3.128,3.128,0,0,0-.5-1h.4a5,5,0,0,1,.7,2.9c.2-.1.5-.1.7-.2a6.478,6.478,0,0,0-.2-2,3.128,3.128,0,0,0-.5-1h.3a3.521,3.521,0,0,1,.5,3c.2,0,.4-.1.6-.1a5.451,5.451,0,0,0-.1-2.2,10.374,10.374,0,0,0-.4-1c-.3-.3-.6-.7-.9-1a11.028,11.028,0,0,1-2-2.3c-.2-.5-.5-1-.2-1.6a6.989,6.989,0,0,0,.9,2.4,11.37,11.37,0,0,0,1.6,1.5c.3.3.7.6.8,1a5.009,5.009,0,0,1,.6,3.2c.1,0,.3-.1.4-.1a4.594,4.594,0,0,0-.5-3.8c-.6-1.1-1.8-1.6-2.6-2.6a4.128,4.128,0,0,1-.7-1.5c-.1-.2,0-.3,0-.5a5.427,5.427,0,0,0,1.5,2.5c.5.6,1.3.9,1.7,1.6a4.882,4.882,0,0,1,.8,4.2h.5a14.079,14.079,0,0,0,.1-2.9c0-.1-.1-.3-.1-.4-.4-1.3-1.7-2.1-2.7-2.9A3.31,3.31,0,0,1,46.9,13.6Z" fill="#173541"/>
      <path id="Path_7654" data-name="Path 7654" d="M39.5,14.2a4.424,4.424,0,0,1,1.5-.5c-.4.2-.9.4-1.3.6a11.259,11.259,0,0,0-4.8,4.1,4.622,4.622,0,0,0-.7,3A4.914,4.914,0,0,0,36.3,24c.4.3,1,.4,1.3.9A5.428,5.428,0,0,1,34.8,23a3.156,3.156,0,0,1-.8-2.9,7.154,7.154,0,0,1,2.5-3.9A15.674,15.674,0,0,1,39.5,14.2Z" fill="#102f3b"/>
      <path id="Path_7655" data-name="Path 7655" d="M44.6,14.2a5.34,5.34,0,0,1,1.8-.5c-1.7.8-3.6,1.3-5.1,2.5a5.462,5.462,0,0,0-2.6,3.2,3.083,3.083,0,0,0,.4,2.1c.5.8,1.3,1.4,1.9,2.2.3.5.7,1,.5,1.6a11.731,11.731,0,0,1-.5-1.1c-.5-.7-1.1-1.3-1.6-2a3.407,3.407,0,0,1-.9-2.4A6.07,6.07,0,0,1,39,18a7.809,7.809,0,0,1,2.7-2.4C42.7,15.1,43.7,14.7,44.6,14.2Z" fill="#102f3b"/>
      <path id="Path_7656" data-name="Path 7656" d="M37.6,14.6a3.168,3.168,0,0,1,1.5-.6,8.265,8.265,0,0,0-1.3.7A10.917,10.917,0,0,0,36.1,16a11.179,11.179,0,0,0-2.8,3.3,6.07,6.07,0,0,0-.5,1.8,3.84,3.84,0,0,0,1.1,2.3,4.968,4.968,0,0,0,1.9,1.3c.3.1.6.2.7.5a6.732,6.732,0,0,1-3.6-2.8,3.187,3.187,0,0,1,0-2.7,5.71,5.71,0,0,1,1.3-2.1A15.593,15.593,0,0,1,37.6,14.6Z" fill="#102f3b"/>
      <path id="Path_7657" data-name="Path 7657" d="M33.8,16.8A7.542,7.542,0,0,1,37,14.4a11.765,11.765,0,0,0-4.1,3.9,6.22,6.22,0,0,0-.9,2.6,4.589,4.589,0,0,0,1,2.5,13.5,13.5,0,0,0,2.7,2,2.722,2.722,0,0,1-1.6-.8A5.48,5.48,0,0,1,32.3,23a3.83,3.83,0,0,1-.3-3.3A11.883,11.883,0,0,1,33.8,16.8Z" fill="#102f3b"/>
      <path id="Path_7658" data-name="Path 7658" d="M42.9,15.7a19.234,19.234,0,0,1,2.5-1.2c-1,.8-2.2,1.2-3.2,1.9a5.827,5.827,0,0,0-2.1,2.3,2.973,2.973,0,0,0,.1,2.6c.4.8,1.1,1.4,1.5,2.2a8.331,8.331,0,0,1,.4,1.5c0,.2-.1.3-.1.4a4.2,4.2,0,0,0-.6-2.1c-.4-.7-1-1.2-1.4-1.9a2.973,2.973,0,0,1-.1-2.6C40.4,17.4,41.8,16.6,42.9,15.7Z" fill="#102f3b"/>
      <path id="Path_7659" data-name="Path 7659" d="M34.1,15.6a4.2,4.2,0,0,1,1.4-.9c-.1.1-.3.2-.4.3a4.44,4.44,0,0,0-1.1.8,9.51,9.51,0,0,0-2.7,3.6,3.654,3.654,0,0,0,0,2.9,6.4,6.4,0,0,0,2.4,2.5,2.276,2.276,0,0,1,.9.8,6.945,6.945,0,0,1-3.3-2.8,3.715,3.715,0,0,1-.4-2.5,5.6,5.6,0,0,1,1-2.4A23.365,23.365,0,0,1,34.1,15.6Z" fill="#102f3b"/>
      <path id="Path_7660" data-name="Path 7660" d="M45.5,14.7c.1.2.1.4.2.6a4.593,4.593,0,0,0,1.1,2.2L48.3,19c.1.1.1.3.2.4a1.381,1.381,0,0,1-.4-.3,15.1,15.1,0,0,1-2.2-2.8c-.1-.3-.2-.5-.3-.8A2.485,2.485,0,0,1,45.5,14.7Z" fill="#102f3b"/>
      <path id="Path_7661" data-name="Path 7661" d="M45,16.5a1.95,1.95,0,0,1-.1-1.3,4.529,4.529,0,0,0,.3,1.6,8.016,8.016,0,0,0,1.3,1.9,9.428,9.428,0,0,1,1,1c-.1,0-.2.1-.4.1-.6-.9-1.5-1.5-1.9-2.5A1.549,1.549,0,0,0,45,16.5Z" fill="#102f3b"/>
      <path id="Path_7662" data-name="Path 7662" d="M32.5,16.2a2.258,2.258,0,0,1,1.1-.8L33,16a6.845,6.845,0,0,0-1.7,2.1,4.777,4.777,0,0,0-.9,3.5,5.134,5.134,0,0,0,2.1,3.1c.4.4.9.7,1.3,1.1a4.188,4.188,0,0,1-1.6-1.1,5.44,5.44,0,0,1-2-3.1,4.875,4.875,0,0,1,.7-3.5A14.622,14.622,0,0,1,32.5,16.2Z" fill="#102f3b"/>
      <path id="Path_7663" data-name="Path 7663" d="M44.4,17.6a2.232,2.232,0,0,1-.2-2.1,4.629,4.629,0,0,0,1.1,3.2h0l1.2,1.2h-.3A7.976,7.976,0,0,1,44.4,17.6Z" fill="#102f3b"/>
      <path id="Path_7664" data-name="Path 7664" d="M30.7,17.3A4.036,4.036,0,0,1,32,16a9.382,9.382,0,0,1-.9,1.2,9.41,9.41,0,0,0-1.2,2.2,4.445,4.445,0,0,0,.2,3.4,9.718,9.718,0,0,0,2.7,3c-.5-.1-.9-.6-1.3-.9a5.842,5.842,0,0,1-2.1-3.2,5.462,5.462,0,0,1,.1-1.8A6.2,6.2,0,0,1,30.7,17.3Z" fill="#102f3b"/>
      <path id="Path_7665" data-name="Path 7665" d="M40.6,19.1a3.716,3.716,0,0,1,1.7-2.2A10.916,10.916,0,0,0,41,18.6a2.8,2.8,0,0,0,0,2.2,10.91,10.91,0,0,1,1.5,3.5,2.462,2.462,0,0,1-.1,1.2,8.752,8.752,0,0,0-.2-1.6,31.327,31.327,0,0,0-1.5-3.2A2.917,2.917,0,0,1,40.6,19.1Z" fill="#102f3b"/>
      <path id="Path_7666" data-name="Path 7666" d="M28.6,21.8a4.16,4.16,0,0,1,1.1-4.1,8.754,8.754,0,0,0-1,2.2,5.924,5.924,0,0,0,.6,3.2,13.222,13.222,0,0,0,2.5,2.8,5.8,5.8,0,0,1-1.7-1.4A6.051,6.051,0,0,1,28.6,21.8Z" fill="#102f3a"/>
      <path id="Path_7667" data-name="Path 7667" d="M41.4,19.6a2.6,2.6,0,0,1,.4-1.5c0,.4-.2.8-.2,1.2a4.8,4.8,0,0,0,.5,1.7,7.842,7.842,0,0,1,1.3,3.6,1.431,1.431,0,0,1-.3,1.1,9.652,9.652,0,0,0,0-1.7,9.889,9.889,0,0,0-.9-2.4A5.989,5.989,0,0,1,41.4,19.6Z" fill="#102f3b"/>
      <path id="Path_7668" data-name="Path 7668" d="M27.8,20.3a.864.864,0,0,1,.3-.6,12.052,12.052,0,0,0,0,1.9,4.942,4.942,0,0,0,1.4,3l1.2,1.2a2.151,2.151,0,0,1-1.2-.9,6.014,6.014,0,0,1-.9-1.3A5.42,5.42,0,0,1,27.8,20.3Z" fill="#213e49"/>
      <path id="Path_7669" data-name="Path 7669" d="M27.5,21.8c.1.3.2.7.3,1s.2.5.3.8a7.351,7.351,0,0,0,1.6,1.9,3.483,3.483,0,0,1-1.4-1.3,2.01,2.01,0,0,1-.4-.8,6.9,6.9,0,0,0-.4-1Z" fill="#102f3b"/>
      <path id="Path_7670" data-name="Path 7670" d="M52.1,22.2a4.784,4.784,0,0,1,1.7,1,4.932,4.932,0,0,1,1.6,3,2.152,2.152,0,0,1,0,.8,15.457,15.457,0,0,0-.7-2.3A4.292,4.292,0,0,0,52.1,22.2Z" fill="#102f3b"/>
      <path id="Path_7671" data-name="Path 7671" d="M51.4,22.3a2.629,2.629,0,0,1,1.4.9,7.923,7.923,0,0,1,2,4.1c-.2-.4-.2-.9-.4-1.3A11.574,11.574,0,0,0,53,23.6a10.592,10.592,0,0,0-1.2-1C51.5,22.5,51.4,22.4,51.4,22.3Z" fill="#102f3b"/>
      <path id="Path_7672" data-name="Path 7672" d="M50.8,22.6a3.328,3.328,0,0,1,1,.6,10.179,10.179,0,0,1,1.8,2.3,8.083,8.083,0,0,1,.7,2.2c-.2-.4-.3-.9-.5-1.4A8.8,8.8,0,0,0,51.4,23l-.6-.3C50.7,22.7,50.8,22.7,50.8,22.6Z" fill="#102f3b"/>
      <path id="Path_7673" data-name="Path 7673" d="M49.9,22.9a3.072,3.072,0,0,1,1.5,1,5.223,5.223,0,0,1,1.4,1.9.349.349,0,0,0,.1.2,3.707,3.707,0,0,1,.4,1.5,7.1,7.1,0,0,0-2.5-3.8C50.5,23.4,50.1,23.3,49.9,22.9Z" fill="#102f3b"/>
      <path id="Path_7674" data-name="Path 7674" d="M49.1,23.1c.1,0,.2.1.3.1a10.487,10.487,0,0,1,3,3.9,10.775,10.775,0,0,0-2.1-3A10.591,10.591,0,0,0,49.1,23.1Z" fill="#102f3b"/>
      <path id="Path_7675" data-name="Path 7675" d="M48,23.4c.1.1.3.2.4.3a5.957,5.957,0,0,1,1.4,2.1,7.741,7.741,0,0,1,.7,1.6,24.031,24.031,0,0,0-1.1-2.3c-.2-.3-.3-.5-.5-.8A2.581,2.581,0,0,1,48,23.4Z" fill="#102f3b"/>
      <path id="Path_7676" data-name="Path 7676" d="M48.6,23.4a5.716,5.716,0,0,1,.8.7,13.612,13.612,0,0,1,2.1,3.2,26.75,26.75,0,0,0-1.8-2.8A5.73,5.73,0,0,0,48.6,23.4Z" fill="#102f3b"/>
      <path id="Path_7677" data-name="Path 7677" d="M47.3,23.6a6.984,6.984,0,0,1,1.3,1.6,21.4,21.4,0,0,1,1,2.2h-.1A13.5,13.5,0,0,0,48,24.8C47.8,24.4,47.5,24,47.3,23.6Z" fill="#102f3b"/>
      <path id="Path_7678" data-name="Path 7678" d="M46.5,24a9.658,9.658,0,0,1,2.1,3.7,19.986,19.986,0,0,0-1-2.1A9.062,9.062,0,0,1,46.5,24Z" fill="#102f3b"/>
      <path id="Path_7679" data-name="Path 7679" d="M27.8,24.3A4.146,4.146,0,0,1,29,25.4c-.2-.1-.4-.1-.5-.2a8.016,8.016,0,0,0-1.3,1.9c-.1.2-.1.4-.2.6a9.829,9.829,0,0,0-.5,1.6c0,.1-.1.3-.1.4s-.1.3-.1.4a18.031,18.031,0,0,0-.5,1.9,16.471,16.471,0,0,1,.6-3.2c0-.1.1-.2.1-.3a6.373,6.373,0,0,0,.2-.7c.1-.2.1-.4.2-.5a5.547,5.547,0,0,1,1.4-2.2.349.349,0,0,1-.2-.1,6.73,6.73,0,0,0-1.4,1.5,8.762,8.762,0,0,0-1.1,5.9,2.877,2.877,0,0,1-.3-1.6,7.535,7.535,0,0,1,.7-3.3,6.286,6.286,0,0,1,1.9-2.6A1.759,1.759,0,0,1,27.8,24.3Z" fill="#13333e"/>
      <path id="Path_7680" data-name="Path 7680" d="M45.6,24.5a4.15,4.15,0,0,1,1.2,2,4.053,4.053,0,0,0-.5-.9C46.1,25.2,45.7,24.9,45.6,24.5Z" fill="#102f3b"/>
      <path id="Path_7681" data-name="Path 7681" d="M45,24.8a4.923,4.923,0,0,1,.6,1.7,3.7,3.7,0,0,0-.5-1.1A1.268,1.268,0,0,0,45,24.8Z" fill="#102f3b"/>
      <path id="Path_7682" data-name="Path 7682" d="M44.9,26.6a3.529,3.529,0,0,1-.3-1.4C44.7,25.7,44.8,26.1,44.9,26.6Z" fill="#102f3b"/>
      <path id="Path_7683" data-name="Path 7683" d="M44.1,25.5c.1.4.1.9.2,1.3A1.907,1.907,0,0,1,44.1,25.5Z" fill="#102f3b"/>
      <path id="Path_7684" data-name="Path 7684" d="M46.3,26.7a15.873,15.873,0,0,0,.7,2A3.722,3.722,0,0,1,46.3,26.7Z" fill="#102f3b"/>
      <path id="Path_7685" data-name="Path 7685" d="M45.4,26.8c.2.7.3,1.5.5,2.2a5.732,5.732,0,0,1-.4-1.4A1.949,1.949,0,0,1,45.4,26.8Z" fill="#102f3b"/>
      <path id="Path_7686" data-name="Path 7686" d="M44.3,29.3a3.358,3.358,0,0,1-.4-2.4A14.982,14.982,0,0,0,44.3,29.3Z" fill="#102f3b"/>
      <path id="Path_7687" data-name="Path 7687" d="M44.7,26.9c.1.4.1.7.2,1.1l.3,1.2a10.261,10.261,0,0,1-.4-1.4A.972.972,0,0,1,44.7,26.9Z" fill="#102f3b"/>
      <path id="Path_7688" data-name="Path 7688" d="M47.2,27.2a7.3,7.3,0,0,1,1.6,3,4.179,4.179,0,0,1-.4-1,16.288,16.288,0,0,0-1.1-1.7A.367.367,0,0,0,47.2,27.2Z" fill="#102f3b"/>
      <path id="Path_7689" data-name="Path 7689" d="M55.2,28.3c0-.4-.2-.7-.1-1.1a7.136,7.136,0,0,1,.2,4.1C55.2,30.3,55.4,29.3,55.2,28.3Z" fill="#2f4b54"/>
      <path id="Path_7690" data-name="Path 7690" d="M51.5,27.4a5.832,5.832,0,0,1,.8,1.8,2.354,2.354,0,0,1,.2.8c-.2-.5-.4-1.1-.6-1.6A10.374,10.374,0,0,1,51.5,27.4Z" fill="#102f3b"/>
      <path id="Path_7691" data-name="Path 7691" d="M49.1,27.5a3.825,3.825,0,0,1,1.2,1.8,11.5,11.5,0,0,1,.6,1.7c-.4-.7-.6-1.5-1-2.3A8.342,8.342,0,0,1,49.1,27.5Z" fill="#102f3b"/>
      <path id="Path_7692" data-name="Path 7692" d="M54.5,27.5a7.286,7.286,0,0,1,.1,3.6C54.5,29.9,54.5,28.7,54.5,27.5Z" fill="#304b55"/>
      <path id="Path_7693" data-name="Path 7693" d="M50.5,27.9a3.192,3.192,0,0,1,.9,1.6c0,.2.1.3.1.5a10.1,10.1,0,0,1,.3,1.7,8.78,8.78,0,0,0-.7-2.3c-.1-.2-.1-.4-.2-.6A2.471,2.471,0,0,0,50.5,27.9Z" fill="#102f3b"/>
      <path id="Path_7694" data-name="Path 7694" d="M53.4,28c.3.1.4.5.4.7a6.522,6.522,0,0,1,.2,2.4A8.149,8.149,0,0,0,53.4,28Z" fill="#102f3b"/>
      <path id="Path_7695" data-name="Path 7695" d="M52.4,28c.5.4.5,1.1.8,1.6a2.2,2.2,0,0,1,.1.8Z" fill="#102f3b"/>
      <path id="Path_7696" data-name="Path 7696" d="M48.7,28.4a4.593,4.593,0,0,1,1.1,2.2c-.3-.5-.4-.9-.7-1.4C49.1,28.9,48.9,28.7,48.7,28.4Z" fill="#102f3b"/>
      <path id="Path_7697" data-name="Path 7697" d="M46.8,28.7c.1.1.1.2.2.4s.1.4.2.6c.2.5.5.9.7,1.3a4.129,4.129,0,0,1-.7-1.1A2.45,2.45,0,0,1,46.8,28.7Z" fill="#102f3b"/>
      <path id="Path_7698" data-name="Path 7698" d="M47.4,28.8a5.559,5.559,0,0,1,.9,1.7A9.148,9.148,0,0,0,47.4,28.8Z" fill="#102f3b"/>
      <path id="Path_7699" data-name="Path 7699" d="M47.2,31.1a3.212,3.212,0,0,1-1-2.2.9.9,0,0,1,.1.5,5.854,5.854,0,0,0,1,1.7Z" fill="#102f3b"/>
      <path id="Path_7700" data-name="Path 7700" d="M55.9,29.9a1.949,1.949,0,0,1,.1-.8,2.045,2.045,0,0,1,0,1.1l-.3,1.2v-.1C55.8,30.8,55.8,30.3,55.9,29.9Z" fill="#102f3b"/>
      <path id="Path_7701" data-name="Path 7701" d="M46.4,31.2a3.333,3.333,0,0,1-.9-2.1.758.758,0,0,0,.2.4c.1.2.2.5.3.7A2.112,2.112,0,0,0,46.4,31.2Z" fill="#102f3b"/>
      <path id="Path_7702" data-name="Path 7702" d="M44.7,29.4a9.733,9.733,0,0,0,1.1,2.3A5.436,5.436,0,0,1,44.7,29.4Z" fill="#102f3b"/>
      <path id="Path_7703" data-name="Path 7703" d="M44.2,29.5a7.96,7.96,0,0,0,.7,2A3.722,3.722,0,0,1,44.2,29.5Z" fill="#102f3b"/>
      <path id="Path_7704" data-name="Path 7704" d="M52.1,29.6c.4.4.3,1,.3,1.6a5.537,5.537,0,0,1-.2,1.8,4.869,4.869,0,0,1-.1-1.2C52.6,31.1,52.2,30.3,52.1,29.6Z" fill="#4d646d"/>
      <path id="Path_7705" data-name="Path 7705" d="M52.9,30.3c.1.2.1.4.2.6a9.7,9.7,0,0,1-.1,1.7A18.485,18.485,0,0,0,52.9,30.3Z" fill="#102f3b"/>
      <path id="Path_7706" data-name="Path 7706" d="M49.1,30.5a2.092,2.092,0,0,1,.4.6c.1.1.1.3.2.4a4.193,4.193,0,0,1,.4,1.6c-.2-.6-.4-1.2-.6-1.7C49.4,31.1,49.2,30.8,49.1,30.5Z" fill="#102f3b"/>
      <path id="Path_7707" data-name="Path 7707" d="M48.2,30.6A13.574,13.574,0,0,1,49.5,33c-.2-.3-.4-.7-.6-1A9.143,9.143,0,0,1,48.2,30.6Z" fill="#102f3b"/>
      <path id="Path_7708" data-name="Path 7708" d="M50.1,30.6a3.552,3.552,0,0,1,.4.9,5.019,5.019,0,0,1,.2,1.2C50.6,32,50.2,31.3,50.1,30.6Z" fill="#102f3b"/>
      <path id="Path_7709" data-name="Path 7709" d="M53.4,30.9a.764.764,0,0,1,.2.5,4.678,4.678,0,0,1-.2,1.7A16.152,16.152,0,0,0,53.4,30.9Z" fill="#445c66"/>
      <path id="Path_7710" data-name="Path 7710" d="M51.1,31.1a4.216,4.216,0,0,1,.3,1.9,2.769,2.769,0,0,1-.1-.9A4.4,4.4,0,0,1,51.1,31.1Z" fill="#102f3b"/>
      <path id="Path_7711" data-name="Path 7711" d="M46.2,31.4a18.576,18.576,0,0,1,1.1,1.9,9.908,9.908,0,0,1-1.1-1.7Z" fill="#102f3b"/>
      <path id="Path_7712" data-name="Path 7712" d="M47,31.4a11.329,11.329,0,0,1,1.3,2,5.547,5.547,0,0,0-.6-.8C47.4,32.2,47,31.9,47,31.4Z" fill="#102f3b"/>
      <path id="Path_7713" data-name="Path 7713" d="M47.6,31.4a3.461,3.461,0,0,1,1.1,1.5C48.4,32.3,47.9,31.9,47.6,31.4Z" fill="#102f3b"/>
      <path id="Path_7714" data-name="Path 7714" d="M54.3,31.3a4.421,4.421,0,0,1-.2,2A15.03,15.03,0,0,1,54.3,31.3Z" fill="#102f3b"/>
      <path id="Path_7715" data-name="Path 7715" d="M45.7,31.7c.3.6.7,1.1,1,1.7-.3-.3-.4-.6-.7-.9-.1-.2-.2-.3-.3-.5Z" fill="#102f3b"/>
      <path id="Path_7716" data-name="Path 7716" d="M54.5,33.6c.1-.7.1-1.3.2-2A4.421,4.421,0,0,1,54.5,33.6Z" fill="#102f3b"/>
      <path id="Path_7717" data-name="Path 7717" d="M45.1,31.8c.6.7.9,1.5,1.4,2.2a6.691,6.691,0,0,1-1.4-1.9Z" fill="#102f3b"/>
      <path id="Path_7718" data-name="Path 7718" d="M55.3,31.9h.1a4.253,4.253,0,0,1-.2,1.1.756.756,0,0,1-.1.4c-.1.2-.1.4-.2.6C55,33.2,55.2,32.5,55.3,31.9Z" fill="#102f3b"/>
      <path id="Path_7719" data-name="Path 7719" d="M47.4,32.9a4.535,4.535,0,0,1,1,2.1,3.552,3.552,0,0,0-.4-.9A4.494,4.494,0,0,1,47.4,32.9Z" fill="#102f3b"/>
      <path id="Path_7720" data-name="Path 7720" d="M46.9,33.6a1,1,0,0,1,.5.4,13.272,13.272,0,0,1,.9,2.1l-.1.1A9.038,9.038,0,0,0,46.9,33.6Z" fill="#102f3b"/>
      <path id="Path_7721" data-name="Path 7721" d="M46.9,34.4a5.407,5.407,0,0,1,1.4,2.7C47.9,36.2,47.3,35.3,46.9,34.4Z" fill="#102f3b"/>
      <path id="Path_7722" data-name="Path 7722" d="M35.8,35.8a4.727,4.727,0,0,1,4-.5A2.4,2.4,0,0,1,41,36c0,.1,0,.2.1.2a23.4,23.4,0,0,0-3.8.3,14.979,14.979,0,0,1-2.2.2s.2-.5.3-.7l.3-.6A.6.6,0,0,1,35.8,35.8Z" fill="#1b4e61"/>
      <path id="Path_7723" data-name="Path 7723" d="M50.3,36.1a1.692,1.692,0,0,1,1.7-.7,2,2,0,0,1,1.2,1,3,3,0,0,1-1,3.3,1.605,1.605,0,0,1-1.6.3c-.2,0-.1-.2-.1-.4.5,0,1.1.2,1.5-.2a2.943,2.943,0,0,0,.8-3.1,1.2,1.2,0,0,0-1.4-.6c-.9.3-1,1.3-1.5,1.9C49.7,37.1,50,36.6,50.3,36.1Z" fill="#af3116"/>
      <path id="Path_7724" data-name="Path 7724" d="M35.1,36.7a1.389,1.389,0,0,1,.2-1.1c0,.1.1.3.1.4C35.3,36.2,35.2,36.5,35.1,36.7Z" fill="#7997a2"/>
      <path id="Path_7725" data-name="Path 7725" d="M25.5,36.6a3.764,3.764,0,0,1,3.4-.6.349.349,0,0,1,.2-.1c.1.1.2.3.3.4v-.4c.3.3.2.7.3,1.1H27.8a16.6,16.6,0,0,0-2.2.3A1.952,1.952,0,0,0,25.5,36.6Z" fill="#1b4e61"/>
      <path id="Path_7726" data-name="Path 7726" d="M31.5,38.6a3.114,3.114,0,0,1,.7-.9,14.409,14.409,0,0,1,.7,5c0,.2.1.5-.2.5a16.353,16.353,0,0,1-2.2.2c-.5,0-.6-.5-.6-.9A14.592,14.592,0,0,1,31.5,38.6Z" fill="#dd4f31"/>
      <path id="Path_7727" data-name="Path 7727" d="M37.7,38.9c-.2-.3,0-1,.5-.8.4.2.2.7.1,1C38.1,39,37.8,39.1,37.7,38.9Z" fill="#151c2c"/>
      <path id="Path_7728" data-name="Path 7728" d="M27.7,38.5c.3-.2.6.1.6.4.1.3-.1.8-.5.7C27.3,39.6,27.3,38.8,27.7,38.5Z" fill="#151c2c"/>
      <path id="Path_7729" data-name="Path 7729" d="M37.8,39.7a6.752,6.752,0,0,0,1.4-.2,2.389,2.389,0,0,1-1.4.5,1.237,1.237,0,0,1-1.4-.4C36.9,39.6,37.3,39.7,37.8,39.7Z" fill="#c56240"/>
      <path id="Path_7730" data-name="Path 7730" d="M37.7,40.4a9.005,9.005,0,0,0,1.6-.3,2.246,2.246,0,0,1-1.4.6,1.637,1.637,0,0,1-1.2-.2C36.9,40.4,37.3,40.5,37.7,40.4Z" fill="#c5613e"/>
      <path id="Path_7731" data-name="Path 7731" d="M26.6,40.5a22.552,22.552,0,0,0,2.6,0,4.939,4.939,0,0,1-1.6.5A1.6,1.6,0,0,1,26.6,40.5Z" fill="#c66543"/>
      <path id="Path_7732" data-name="Path 7732" d="M31,41l.3-.6a8.083,8.083,0,0,1-.7,2.2C30.7,42.1,30.9,41.5,31,41Z" fill="#e68265"/>
      <path id="Path_7733" data-name="Path 7733" d="M26.8,41.3a8.129,8.129,0,0,0,2.2-.1,2.19,2.19,0,0,1-2.2.3Z" fill="#c66441"/>
      <path id="Path_7734" data-name="Path 7734" d="M32,42.6a.446.446,0,0,1,.5,0,.368.368,0,0,1-.5.5C31.7,43.1,31.8,42.7,32,42.6Z" fill="#af3116"/>
      <path id="Path_7735" data-name="Path 7735" d="M39.6,43.1a1.209,1.209,0,0,1,1.3.7,1.311,1.311,0,0,1-.8,1.6,1.112,1.112,0,0,1-1.4-.9A1.235,1.235,0,0,1,39.6,43.1Z" fill="#dd4f31"/>
      <path id="Path_7736" data-name="Path 7736" d="M30.5,43.5a8.2,8.2,0,0,0,2.2-.2,2.85,2.85,0,0,1-1.1,1.3,1.493,1.493,0,0,1-.7.3c-.4-.3-.2-.9-.1-1.4C30.7,43.6,30.6,43.5,30.5,43.5Z" fill="#c4603d"/>
      <path id="Path_7737" data-name="Path 7737" d="M27.1,43.9c.7-.2,1.2.5,1,1.2a.976.976,0,0,1-1.5.5A1.078,1.078,0,0,1,27.1,43.9Z" fill="#dd4f31"/>
      <path id="Path_7738" data-name="Path 7738" d="M34.7,46.8a3.219,3.219,0,0,1,.1-1.7c.1.6,0,1.1.1,1.7a4.9,4.9,0,0,0,.7,1.9,8.65,8.65,0,0,1,.7,1A4.687,4.687,0,0,1,34.7,46.8Z" fill="#c4603d"/>
      <path id="Path_7739" data-name="Path 7739" d="M31.1,46.8c.1-.4.1-.9.5-1.2a3.6,3.6,0,0,1-.2,1.1h.5a4.253,4.253,0,0,1,.2-1.1h.2a1.689,1.689,0,0,1-.3,1,11.275,11.275,0,0,1,2.4.8,4.3,4.3,0,0,1-1.6,0,14.606,14.606,0,0,0-3.6.3A4.2,4.2,0,0,1,31.1,46.8Z" fill="#dd4f31"/>
      <path id="Path_7740" data-name="Path 7740" d="M29.1,45.7c.2.2.1.5.1.8a10.208,10.208,0,0,1-1.1,2.9H28A12.135,12.135,0,0,0,29.1,45.7Z" fill="#dd4f31"/>
      <path id="Path_7741" data-name="Path 7741" d="M30.4,48.3a10.869,10.869,0,0,1,1.8-.1.9.9,0,0,1,.5.1A2.346,2.346,0,0,1,30.4,48.3Z" fill="#c4603d"/>
      <path id="Path_7742" data-name="Path 7742" d="M30.2,51.1a2.055,2.055,0,0,1,1.8-.8,8.6,8.6,0,0,1,1.6.1.52.52,0,0,1,.4.2c-.8.1-1.5.1-2.3.2A7.972,7.972,0,0,1,30.2,51.1Z" fill="#c4603d"/>
      <path id="Path_7743" data-name="Path 7743" d="M35.5,59.9c.3-.2.5-.5.9-.4-.7.7-1.6,1.3-2.3,2.1A4.573,4.573,0,0,1,35.5,59.9Z" fill="#28846d"/>
      <path id="Path_7744" data-name="Path 7744" d="M52.4,60.7c.3,0,.5.4.6.6.4.7.9,1.4,1.3,2.1,0,.1.2.3.1.4-.1,0-.2-.2-.2-.3A16.655,16.655,0,0,1,52.4,60.7Z" fill="#28846d"/>
      <path id="Path_7798" data-name="Path 7798" d="M43.6,87.3c.2-1.3.5-2.6.8-3.8.3-1.3.5-2.6.8-3.8.4-1.5.6-3.1,1.1-4.6a60.25,60.25,0,0,1,2.6-7.5c.1,0,.2.1.3.1A21.687,21.687,0,0,0,55,64.1a19.422,19.422,0,0,0,3.3-3.7,13.343,13.343,0,0,0,2.4-6.9c0-.5-.1-1-.1-1.5-.1,0-.3.1-.4.1a7.778,7.778,0,0,0-2.4-2,2.252,2.252,0,0,0-.7-.1,21.734,21.734,0,0,1,3,2.3V53a2.651,2.651,0,0,1-.6-.5,11.224,11.224,0,0,0-2.2-1.6,1.333,1.333,0,0,0,.5.6c.8.5,1.6,1,2.4,1.6a2.2,2.2,0,0,1-.1.8c-1-.7-1.8-1.8-3-2.1a1.47,1.47,0,0,0,.6.5c.8.5,1.6,1.1,2.4,1.7,0,.2-.1.4-.1.7a7.464,7.464,0,0,0-2.9-2.1v.3a18.724,18.724,0,0,1,2.9,2c0,.2-.1.4-.1.6A15.813,15.813,0,0,0,57,53.3v.2a19.335,19.335,0,0,1,2.8,2.2c-.1.2-.1.5-.2.7a6.865,6.865,0,0,0-1.7-1.7,2.925,2.925,0,0,0-1.2-.7,33.29,33.29,0,0,1,2.8,2.5c-.1.2-.2.3-.3.5a9.889,9.889,0,0,0-2.9-2.5,8.064,8.064,0,0,1,1.4,1.2,19.2,19.2,0,0,0,1.5,1.4c-.1.2-.1.3-.2.5A8.935,8.935,0,0,0,56.1,55c0,.4.3.6.6.8.8.7,1.6,1.3,2.3,2,0,.2-.1.3-.1.5-1-.9-1.8-2.1-3-2.7,0,.3.3.5.5.7l2.4,2.1-.3.6a9.1,9.1,0,0,0-1.8-2.1,4.44,4.44,0,0,0-1.1-.8c.1.3.4.5.6.7.8.7,1.5,1.6,2.3,2.3a1.756,1.756,0,0,1-.4.5c-.8-1-1.5-2.3-2.7-2.9.1.4.5.6.7.9.7.7,1.3,1.4,2,2.1-.1.1-.2.3-.3.4a8.965,8.965,0,0,0-2-2.3c-.3-.2-.5-.5-.9-.5l1.2,1.2c.6.6,1.1,1.2,1.7,1.8-.1.2-.2.3-.3.5a11.293,11.293,0,0,0-2.6-3.1.349.349,0,0,1-.2.1c.9,1,1.8,2,2.7,3.1,0,.2-.2.3-.3.5-.5-.7-1-1.4-1.6-2.1a11.985,11.985,0,0,0-1.1-1.2c0,.4.3.6.5.9L57,61.4l-.4.4a14.371,14.371,0,0,0-1.8-2.5,3.044,3.044,0,0,0-.8-.8,2.286,2.286,0,0,0,.7,1c.6.8,1.3,1.5,1.9,2.3l-.3.3c-.3-.4-.6-.9-.9-1.3a7.725,7.725,0,0,0-1.7-1.9,2.092,2.092,0,0,0,.4.6c.6.7,1.2,1.6,1.7,2.3.1.1.2.3.3.4a1.38,1.38,0,0,0-.3.4,18.187,18.187,0,0,0-1.5-2.3c-.3-.3-.5-.7-.9-.9a15.94,15.94,0,0,0,1.5,2.1,8.342,8.342,0,0,1,.8,1.2c-.1.1-.2.3-.3.4a15.674,15.674,0,0,0-2-3l-.3-.3c.1.5.5.8.8,1.2.5.7,1,1.4,1.5,2.2-.1.1-.3.2-.4.3a15.916,15.916,0,0,0-1.3-2.2c-.3-.4-.5-.8-.9-1l.6.9c.6.8,1.1,1.6,1.6,2.4-.3.2-.5.5-.8.7a11.111,11.111,0,0,1-.7-1.6,6.7,6.7,0,0,0-1.1-1.8,1.421,1.421,0,0,0,.2.6,15.935,15.935,0,0,1,1.5,2.9c-.1.1-.2.2-.3.2a13.314,13.314,0,0,0-1.5-3.2h-.2c.5,1.1,1.2,2.2,1.7,3.3-.2.1-.4.3-.6.4-.2.2-.4.3-.6.5a19.931,19.931,0,0,0-.5-3.4A23.289,23.289,0,0,1,53.2,65l.2-.2L52.8,63a2.925,2.925,0,0,0-.7-1.2v.4h-.3a.749.749,0,0,0-.1.5c.1,1.2.1,2.4.2,3.5l-.6.3c.2-1,.3-2.1.4-3.1a1.486,1.486,0,0,0-.2-.9c0,.1-.1.2-.2.3-.1.6,0,1.2-.1,1.9,0,.7-.2,1.3-.2,2a9.292,9.292,0,0,1-1,.5,18.029,18.029,0,0,0,.8-2.1,6.465,6.465,0,0,0,.4-2,2.959,2.959,0,0,0-1-.2c-.2,0-.2.2-.2.4a1.38,1.38,0,0,1,.3.4c-.2,0-.5-.1-.7,0-.1.3.2.4.4.5,0,.1,0,.2-.1.2-.2,0-.3-.1-.5-.1s-.2.2-.3.3c.2.1.4.3.6.3,0,.1-.1.2-.1.3-.2-.1-.7-.4-.8,0s.6.2.5.6c-.2-.1-.8-.4-.8,0-.1.3.3.4.5.5-.1.1-.1.3-.2.4-.2-.1-.3-.2-.5-.2s-.3.2-.3.4c.1.2.4.2.5.3,0,.1-.1.2-.1.4-.2-.1-.6-.3-.6.1-.1.3.2.4.4.5,0,.1-.1.2-.1.3-.2-.1-.6-.2-.7.1s.3.5.5.6c-.2.1-.6-.1-.7.2s.2.3.4.5c0,.1,0,.2-.1.2-.2,0-.5-.1-.6.1,0,.3.3.4.4.6a1.268,1.268,0,0,0-.6.1c-.2.3.1.5.4.7-.1.3-.5.2-.7.3,0,.3.1.5.4.5,0,.1-.1.2-.1.3-.2,0-.6-.2-.6.1-.1.3.3.3.5.4-.1.3-.6.1-.7.4,0,.2.2.3.4.4v.2c-.2,0-.4-.1-.5.2s.2.3.4.4c0,.1-.1.2-.1.3-.2,0-.5-.1-.6.2s.2.3.4.4a.367.367,0,0,1-.1.3c-.2,0-.5,0-.5.2-.1.3.3.3.4.5-.2.2-.6.1-.6.4-.1.3.4.4.4.7-.2,0-.4,0-.5.2-.2.3.2.5.3.8a.749.749,0,0,0-.5.1c-.2.3.2.5.3.8-.2,0-.7,0-.7.3-.1.3.3.4.5.5a.367.367,0,0,1-.1.3c-.2,0-.6,0-.5.3,0,.3.3.3.5.4-.2.1-.7,0-.7.4,0,.2.3.3.4.4v.2c-.2,0-.4-.1-.6,0a1.421,1.421,0,0,0-.2.6c.1.2.3.2.5.3a.367.367,0,0,1-.1.3c-.2,0-.5-.1-.6.2-.2.3.2.5.5.6-.3,0-.6,0-.6.4.1.2.3.4.4.6-.2,0-.7-.1-.7.3-.1.3.2.4.4.5v.3c-.2,0-.5,0-.6.2-.1.4.3.5.5.6H43c-.1.1-.2.1-.3.2a.6.6,0,0,1-.4-.1v-.3c.1-.1.3-.1.4-.2,0-.3-.3-.4-.5-.4v-.4c.2-.1.6-.2.5-.5-.1-.2-.4-.2-.6-.3.1-.2.3-.3.5-.5.1-.3-.3-.3-.4-.4v-.3c.1-.1.3-.1.4-.2.1-.3-.3-.4-.5-.5v-.3c.2,0,.3-.1.5-.1,0-.5-.5-.4-.6-.8.2-.1.4-.1.6-.2-.1-.1,0-.3-.2-.4s-.4-.1-.5-.2l.4-.4c-.2-.2-.5-.3-.6-.6.2-.1.7-.2.5-.5-.2-.1-.6-.1-.6-.4.3-.1.6-.2.7-.6-.2,0-.5-.1-.7-.1v-.3c.2-.1.6-.1.5-.5-.1-.2-.5-.2-.7-.3.2-.2.5-.2.6-.4,0-.4-.4-.4-.7-.5.3-.1.8-.1.7-.6a1.884,1.884,0,0,1-.8-.2c.3-.1,1-.2.8-.7l-.9-.3c.2-.1.5-.1.7-.2,0-.4-.4-.4-.7-.5a.367.367,0,0,0-.1-.3c.2-.1.7-.2.6-.5s-.5-.2-.8-.3c.2-.1.5-.1.7-.3,0-.4-.4-.3-.7-.4a1.268,1.268,0,0,0-.1-.6c.2-.1.6,0,.6-.4,0-.3-.5-.4-.7-.5.1-.2.4-.3.6-.4.1-.4-.3-.5-.6-.5a.6.6,0,0,0-.1-.4c.3-.1.8-.1.6-.5-.1-.3-.5-.3-.7-.3v-.2a1.268,1.268,0,0,0,.6-.1.6.6,0,0,0-.1-.4c-.6-.3-.9-.3-1-.5.2-.1.6-.2.5-.5-.1-.2-.6-.1-.6-.5.2-.1.4-.1.6-.3,0-.4-.4-.4-.7-.6a1.205,1.205,0,0,0,.5-.5c.1-.3-.3-.5-.6-.6.2-.1.4-.2.4-.4,0-.3-.3-.3-.5-.4.3-.1.6-.4.3-.6s-.6-.2-.8-.5a4.025,4.025,0,0,0-.5,2.4c-.3-.3-.1-.7-.1-1a11.627,11.627,0,0,0,.4-1.8,3.827,3.827,0,0,0-.7,2.5c-.2-.1-.4-.3-.6-.4.2-.9.7-1.8,1-2.7a.4.4,0,0,0-.4.2,6.5,6.5,0,0,0-.9,2.3c-.2-.2-.5-.4-.7-.6.4-.9,1.1-1.7,1.5-2.6a2.151,2.151,0,0,0-.9,1.2c-.3.4-.4.9-.7,1.3-.3-.1-.4-.3-.6-.5a21.1,21.1,0,0,1,1.9-2.3.349.349,0,0,0-.1-.2,7.489,7.489,0,0,0-1.9,2.4c-.2-.2-.4-.3-.5-.5.7-.8,1.5-1.5,2.1-2.3a.247.247,0,0,0-.4.1A13.678,13.678,0,0,0,35,62.6l-.4-.4c.7-.7,1.5-1.3,2.2-2.1.2-.1-.1-.4-.2-.2a14.687,14.687,0,0,0-2.1,2.2c-.2-.2-.3-.4-.5-.6l-.5-.5c.5-.6,1.2-1.2,1.8-1.8h-.4a7.518,7.518,0,0,0-1.5,1.6c-.1-.1-.2-.3-.3-.4.5-.5,1-.9,1.5-1.4-.1,0-.3-.1-.4,0A5.022,5.022,0,0,0,33,60.3c-.1-.2-.2-.3-.3-.5a9.428,9.428,0,0,0,1-1c-.1,0-.2-.1-.3-.1a6.034,6.034,0,0,1-.8.8c-.2,0-.3-.2-.2-.4a1.794,1.794,0,0,0,.5-.7c-.4-.1-.5.3-.7.5-.1-.1-.1-.3-.2-.4.1-.1.3-.3.3-.4-.2,0-.3.1-.5.2a2.276,2.276,0,0,0-.8-.9,1.268,1.268,0,0,0,.1.6,16.924,16.924,0,0,0,1.7,2.9,20.444,20.444,0,0,0,3.6,3.6,21.284,21.284,0,0,0,2.5,1.6c.2,1.2.2,2.4.4,3.5.2,1.2.2,2.5.4,3.7.4,2.9.9,5.7,1.2,8.5.2,1.9.2,3.7.5,5.6A1.123,1.123,0,0,0,43.6,87.3Zm8-24.7a15.665,15.665,0,0,1,.5,3,1,1,0,0,0-.5.4A19.294,19.294,0,0,0,51.6,62.6Zm-1.2,1.3a8.331,8.331,0,0,1-.4,1.5,9.5,9.5,0,0,0-.6,1.8c-.2.1-.4.1-.5.2C49.4,66.2,50,65.1,50.4,63.9ZM38.6,65.4c.1-.4.1-.8.2-1.2l.3,1.5A2.186,2.186,0,0,1,38.6,65.4Z" fill="#3367db"/>
    </g>
  </g>
</svg>
