<svg id="avatar-0" xmlns="http://www.w3.org/2000/svg" xmlns:xlink="http://www.w3.org/1999/xlink" width="86" height="86" viewBox="0 0 86 86">
  <defs>
    <linearGradient id="linear-gradient" y1="0.047" x2="1" y2="1.037" gradientUnits="objectBoundingBox">
      <stop offset="0" stop-color="#058a6a"/>
      <stop offset="1" stop-color="#034535"/>
    </linearGradient>
    <clipPath id="clip-path">
      <circle id="Ellipse_387" data-name="Ellipse 387" cx="43" cy="43" r="43"/>
    </clipPath>
    <clipPath id="clip-path-2">
      <rect id="Rectangle_1431" data-name="Rectangle 1431" width="86" height="86" fill="url(#linear-gradient)"/>
    </clipPath>
  </defs>
  <g id="Group_6442" data-name="Group 6442" clip-path="url(#clip-path)">
    <g id="Mask_Group_1" data-name="Mask Group 1" clip-path="url(#clip-path-2)">
      <g id="user_2_" data-name="user (2)" transform="translate(0.002 0)">
        <path id="Path_9046" data-name="Path 9046" d="M30.2,67.424l-12.83,7a11.53,11.53,0,0,0-2.059,1.465,42.973,42.973,0,0,0,55.214.143,11.382,11.382,0,0,0-2.262-1.516L54.526,67.646a5.239,5.239,0,0,1-2.9-4.686V57.57a20.751,20.751,0,0,0,1.3-1.671A31.613,31.613,0,0,0,57.2,47.292a4.315,4.315,0,0,0,3.06-4.105V37.433a4.3,4.3,0,0,0-1.438-3.188V25.927S60.531,12.983,43,12.983,27.181,25.927,27.181,25.927v8.318a4.29,4.29,0,0,0-1.438,3.188v5.754a4.314,4.314,0,0,0,1.989,3.62,28.553,28.553,0,0,0,5.2,10.763v5.257A5.245,5.245,0,0,1,30.2,67.424Z" transform="translate(-0.314)" fill="#e7eced"/>
        <g id="Group_6496" data-name="Group 6496" transform="translate(-0.002)">
          <path id="Path_9047" data-name="Path 9047" d="M43.735.006a42.973,42.973,0,0,0-28.4,75.868,11.426,11.426,0,0,1,2.04-1.451l12.83-7a5.241,5.241,0,0,0,2.731-4.6V57.568a28.526,28.526,0,0,1-5.2-10.763,4.315,4.315,0,0,1-1.989-3.62V37.431a4.3,4.3,0,0,1,1.438-3.188V25.925S25.469,12.981,43,12.981,58.819,25.925,58.819,25.925v8.318a4.29,4.29,0,0,1,1.438,3.188v5.754A4.315,4.315,0,0,1,57.2,47.29,31.613,31.613,0,0,1,52.926,55.9a20.751,20.751,0,0,1-1.3,1.671v5.39a5.237,5.237,0,0,0,2.9,4.686l13.739,6.869a11.44,11.44,0,0,1,2.255,1.512A42.99,42.99,0,0,0,43.735.006Z" fill="url(#linear-gradient)"/>
        </g>
      </g>
    </g>
  </g>
</svg>
