<svg xmlns="http://www.w3.org/2000/svg" width="31" height="29.758" viewBox="0 0 31 29.758">
  <g id="first" transform="translate(-297.385 -75.776)">
    <g id="Group_6346" data-name="Group 6346" transform="translate(297.885 76.251)">
      <g id="Group_6344" data-name="Group 6344" transform="translate(0.55 0.55)">
        <path id="Path_6528" data-name="Path 6528" d="M330.25,93.561c0,1.48-1.662,2.679-2.1,4.015-.449,1.384.175,3.328-.664,4.48s-2.894,1.167-4.058,2.013-1.783,2.789-3.167,3.239c-1.335.434-2.987-.76-4.467-.76s-3.131,1.193-4.467.76c-1.384-.449-2.015-2.4-3.167-3.239s-3.211-.85-4.058-2.013-.214-3.1-.664-4.48c-.434-1.335-2.1-2.535-2.1-4.015s1.662-2.679,2.1-4.015c.449-1.384-.175-3.328.664-4.48S307,83.9,308.166,83.053s1.783-2.789,3.167-3.239c1.335-.434,2.987.76,4.466.76s3.131-1.193,4.467-.76c1.384.449,2.015,2.4,3.167,3.239s3.211.85,4.058,2.013.214,3.1.664,4.48C328.588,90.882,330.25,92.081,330.25,93.561Z" transform="translate(-301.349 -79.719)" fill="#fff"/>
      </g>
      <g id="Group_6345" data-name="Group 6345" transform="translate(0 0)">
        <path id="Path_6529" data-name="Path 6529" d="M316.715,105.034a6.758,6.758,0,0,1-2.048-.449,4.112,4.112,0,0,0-3.565,0,4.63,4.63,0,0,1-2.854.327,4.694,4.694,0,0,1-2.177-1.994,5.85,5.85,0,0,0-1.144-1.323,5.914,5.914,0,0,0-1.632-.692,3.523,3.523,0,0,1-3.13-4.291,6.009,6.009,0,0,0-.159-1.785,5.744,5.744,0,0,0-.889-1.468,4.793,4.793,0,0,1-1.234-2.717,4.792,4.792,0,0,1,1.234-2.716,5.749,5.749,0,0,0,.889-1.468,6.011,6.011,0,0,0,.159-1.785,3.522,3.522,0,0,1,3.13-4.29,5.921,5.921,0,0,0,1.632-.693,5.85,5.85,0,0,0,1.144-1.323,4.693,4.693,0,0,1,2.177-1.994,4.627,4.627,0,0,1,2.854.326,4.112,4.112,0,0,0,3.565,0,4.631,4.631,0,0,1,2.854-.326,4.7,4.7,0,0,1,2.177,1.994,5.846,5.846,0,0,0,1.144,1.323,5.913,5.913,0,0,0,1.631.692,3.522,3.522,0,0,1,3.13,4.29,6,6,0,0,0,.159,1.785,5.746,5.746,0,0,0,.889,1.468,4.791,4.791,0,0,1,1.233,2.716,4.792,4.792,0,0,1-1.233,2.717,5.742,5.742,0,0,0-.889,1.468,6,6,0,0,0-.159,1.785,3.523,3.523,0,0,1-3.13,4.29,5.918,5.918,0,0,0-1.631.692,5.854,5.854,0,0,0-1.144,1.323,4.7,4.7,0,0,1-2.177,1.994A2.594,2.594,0,0,1,316.715,105.034Zm-3.83-1.953a6.958,6.958,0,0,1,2.125.461,3.857,3.857,0,0,0,2.172.325,3.9,3.9,0,0,0,1.623-1.589,6.7,6.7,0,0,1,1.391-1.572,6.777,6.777,0,0,1,1.943-.85,3.9,3.9,0,0,0,1.994-1.042,3.88,3.88,0,0,0,.373-2.2,6.859,6.859,0,0,1,.213-2.127,6.581,6.581,0,0,1,1.05-1.781,3.914,3.914,0,0,0,1.019-2.065,3.914,3.914,0,0,0-1.019-2.065,6.576,6.576,0,0,1-1.05-1.781,6.859,6.859,0,0,1-.213-2.127,3.881,3.881,0,0,0-.373-2.2,3.9,3.9,0,0,0-1.994-1.042,6.779,6.779,0,0,1-1.943-.851,6.7,6.7,0,0,1-1.39-1.571,3.9,3.9,0,0,0-1.623-1.589,3.853,3.853,0,0,0-2.173.325,5.127,5.127,0,0,1-4.25,0,3.853,3.853,0,0,0-2.172-.325,3.9,3.9,0,0,0-1.624,1.589,6.694,6.694,0,0,1-1.39,1.571,6.771,6.771,0,0,1-1.943.851,3.9,3.9,0,0,0-1.994,1.042,3.882,3.882,0,0,0-.373,2.2,6.872,6.872,0,0,1-.213,2.127A6.58,6.58,0,0,1,300,88.578a3.915,3.915,0,0,0-1.019,2.065A3.913,3.913,0,0,0,300,92.707a6.584,6.584,0,0,1,1.05,1.78,6.871,6.871,0,0,1,.213,2.127,3.882,3.882,0,0,0,.373,2.2,3.9,3.9,0,0,0,1.994,1.042,6.774,6.774,0,0,1,1.943.851,6.7,6.7,0,0,1,1.39,1.571,3.9,3.9,0,0,0,1.623,1.589,3.854,3.854,0,0,0,2.173-.325A6.956,6.956,0,0,1,312.885,103.082Z" transform="translate(-297.885 -76.251)" fill="#045541" stroke="rgba(0,0,0,0)" stroke-width="1"/>
      </g>
    </g>
    <g id="Group_6347" data-name="Group 6347" transform="translate(300.654 78.926)">
      <path id="Path_6530" data-name="Path 6530" d="M339.8,104.833c0,1.253-1.407,2.268-1.774,3.4-.38,1.172.148,2.817-.562,3.792s-2.45.987-3.435,1.7-1.509,2.361-2.681,2.741c-1.13.367-2.528-.643-3.781-.643s-2.65,1.01-3.781.643c-1.171-.38-1.706-2.032-2.681-2.741s-2.718-.719-3.435-1.7-.181-2.621-.562-3.792c-.367-1.13-1.774-2.145-1.774-3.4s1.407-2.268,1.774-3.4c.38-1.172-.148-2.817.562-3.792s2.45-.987,3.434-1.7,1.509-2.361,2.681-2.741c1.13-.367,2.528.643,3.781.643s2.65-1.01,3.781-.643c1.171.38,1.706,2.032,2.681,2.741s2.718.719,3.435,1.7.181,2.621.562,3.792C338.392,102.565,339.8,103.58,339.8,104.833Z" transform="translate(-315.336 -93.117)" fill="#ffc107"/>
    </g>
    <path id="Path_6533" data-name="Path 6533" d="M.26-11.8V-14.12H5.167V1.169H2.562V-11.8Z" transform="translate(310.039 97.197)" fill="#fff"/>
  </g>
</svg>
