<svg xmlns="http://www.w3.org/2000/svg" width="25" height="23.986" viewBox="0 0 25 23.986">
  <g id="second" transform="translate(-297.885 -76.251)">
    <g id="Group_6346" data-name="Group 6346" transform="translate(297.885 76.251)">
      <g id="Group_6344" data-name="Group 6344" transform="translate(0.458 0.458)">
        <path id="Path_6528" data-name="Path 6528" d="M325.433,91.254c0,1.233-1.385,2.233-1.746,3.346-.374,1.153.146,2.773-.553,3.733s-2.412.972-3.382,1.678-1.486,2.325-2.639,2.7c-1.113.361-2.489-.633-3.722-.633s-2.609.994-3.722.633c-1.153-.375-1.679-2-2.639-2.7s-2.676-.708-3.382-1.678-.178-2.58-.553-3.733c-.361-1.113-1.746-2.112-1.746-3.346s1.385-2.233,1.746-3.346c.374-1.153-.146-2.773.553-3.733s2.412-.972,3.381-1.678,1.486-2.324,2.639-2.7c1.113-.361,2.489.633,3.722.633s2.609-.994,3.722-.633c1.153.375,1.679,2,2.639,2.7s2.676.708,3.381,1.678.179,2.58.553,3.733C324.048,89.021,325.433,90.021,325.433,91.254Z" transform="translate(-301.349 -79.719)" fill="#fff"/>
      </g>
      <g id="Group_6345" data-name="Group 6345" transform="translate(0 0)">
        <path id="Path_6529" data-name="Path 6529" d="M313.577,100.237a5.632,5.632,0,0,1-1.707-.374,3.427,3.427,0,0,0-2.971,0,3.858,3.858,0,0,1-2.378.272,3.912,3.912,0,0,1-1.814-1.662,4.875,4.875,0,0,0-.953-1.1,4.927,4.927,0,0,0-1.36-.577,2.935,2.935,0,0,1-2.608-3.576,5.009,5.009,0,0,0-.133-1.487,4.789,4.789,0,0,0-.741-1.223,3.007,3.007,0,0,1,0-4.528,4.793,4.793,0,0,0,.741-1.223,5.011,5.011,0,0,0,.133-1.488,2.935,2.935,0,0,1,2.608-3.575,4.934,4.934,0,0,0,1.36-.577,4.876,4.876,0,0,0,.953-1.1,3.911,3.911,0,0,1,1.814-1.662,3.856,3.856,0,0,1,2.378.272,3.427,3.427,0,0,0,2.971,0,3.859,3.859,0,0,1,2.378-.272,3.913,3.913,0,0,1,1.814,1.662,4.871,4.871,0,0,0,.953,1.1,4.929,4.929,0,0,0,1.36.577,2.935,2.935,0,0,1,2.608,3.575,5,5,0,0,0,.133,1.488,4.791,4.791,0,0,0,.741,1.223,3.007,3.007,0,0,1,0,4.528,4.787,4.787,0,0,0-.741,1.223,5,5,0,0,0-.133,1.488,2.935,2.935,0,0,1-2.608,3.575,4.932,4.932,0,0,0-1.36.577,4.877,4.877,0,0,0-.953,1.1,3.913,3.913,0,0,1-1.814,1.662A2.163,2.163,0,0,1,313.577,100.237Zm-3.192-1.627a5.8,5.8,0,0,1,1.771.384,3.214,3.214,0,0,0,1.81.271,3.248,3.248,0,0,0,1.353-1.324,5.579,5.579,0,0,1,1.159-1.31,5.647,5.647,0,0,1,1.619-.709,2.1,2.1,0,0,0,1.972-2.7,5.717,5.717,0,0,1,.177-1.773,5.483,5.483,0,0,1,.875-1.484,3.262,3.262,0,0,0,.849-1.721,3.262,3.262,0,0,0-.849-1.721,5.482,5.482,0,0,1-.875-1.484,5.717,5.717,0,0,1-.177-1.773,3.234,3.234,0,0,0-.311-1.833,3.247,3.247,0,0,0-1.661-.868,5.648,5.648,0,0,1-1.62-.709,5.583,5.583,0,0,1-1.159-1.31,3.248,3.248,0,0,0-1.353-1.324,3.21,3.21,0,0,0-1.811.271,4.273,4.273,0,0,1-3.541,0,3.211,3.211,0,0,0-1.81-.271,3.246,3.246,0,0,0-1.353,1.324,5.58,5.58,0,0,1-1.159,1.309,5.642,5.642,0,0,1-1.619.709,3.247,3.247,0,0,0-1.661.868,3.236,3.236,0,0,0-.311,1.833,5.728,5.728,0,0,1-.177,1.773,5.485,5.485,0,0,1-.875,1.484,3.262,3.262,0,0,0-.849,1.721,3.262,3.262,0,0,0,.849,1.721,5.486,5.486,0,0,1,.875,1.484,5.727,5.727,0,0,1,.177,1.773,2.1,2.1,0,0,0,1.972,2.7,5.645,5.645,0,0,1,1.62.709,5.583,5.583,0,0,1,1.159,1.31,3.247,3.247,0,0,0,1.353,1.324,3.212,3.212,0,0,0,1.811-.271A5.8,5.8,0,0,1,310.385,98.61Z" transform="translate(-297.885 -76.251)" fill="#045541"/>
      </g>
    </g>
    <g id="Group_6347" data-name="Group 6347" transform="translate(300.192 78.48)">
      <path id="Path_6530" data-name="Path 6530" d="M335.723,102.881c0,1.044-1.172,1.89-1.478,2.832-.317.976.123,2.348-.468,3.16s-2.042.823-2.862,1.42-1.258,1.968-2.234,2.285c-.942.306-2.107-.536-3.151-.536s-2.209.842-3.151.536c-.976-.317-1.421-1.693-2.234-2.285s-2.265-.6-2.862-1.42-.151-2.184-.468-3.16c-.306-.942-1.478-1.788-1.478-2.832s1.172-1.89,1.478-2.832c.317-.976-.123-2.348.468-3.16s2.042-.823,2.862-1.42,1.258-1.968,2.234-2.285c.942-.306,2.107.536,3.151.536s2.209-.842,3.151-.536c.976.317,1.421,1.693,2.234,2.285s2.265.6,2.862,1.42.151,2.184.468,3.16C334.551,100.991,335.723,101.837,335.723,102.881Z" transform="translate(-315.336 -93.117)" fill="#9e9e9e"/>
      <path id="Path_6531" data-name="Path 6531" d="M.8-4.98A22.5,22.5,0,0,0,4.682-8.225a4.567,4.567,0,0,0,1.459-2.947,1.946,1.946,0,0,0-.4-1.283,1.572,1.572,0,0,0-1.279-.477,1.645,1.645,0,0,0-1.376.589,2.931,2.931,0,0,0-.524,1.679H.9a3.952,3.952,0,0,1,1.115-2.76A3.6,3.6,0,0,1,4.6-14.38a3.412,3.412,0,0,1,2.416.813,2.915,2.915,0,0,1,.875,2.246A4.488,4.488,0,0,1,7.18-8.993a9.7,9.7,0,0,1-1.8,2.171A15.147,15.147,0,0,1,3.119-5.114H8.13v1.388H.8Z" transform="translate(5.743 18.746)" fill="#fff"/>
    </g>
  </g>
</svg>
