<svg xmlns="http://www.w3.org/2000/svg" width="21" height="20.172" viewBox="0 0 21 20.172">
  <g id="third" transform="translate(-297.385 -75.768)">
    <g id="Group_6346" data-name="Group 6346" transform="translate(297.885 76.251)">
      <g id="Group_6344" data-name="Group 6344" transform="translate(0.367 0.367)">
        <path id="Path_6528" data-name="Path 6528" d="M320.616,88.946c0,.987-1.108,1.786-1.4,2.676-.3.923.116,2.219-.442,2.987s-1.929.778-2.705,1.342-1.189,1.86-2.111,2.159c-.89.289-1.991-.506-2.978-.506s-2.087.8-2.978.506c-.923-.3-1.343-1.6-2.111-2.159s-2.141-.567-2.705-1.342-.143-2.064-.442-2.987c-.289-.89-1.4-1.69-1.4-2.676s1.108-1.786,1.4-2.676c.3-.923-.116-2.219.443-2.987s1.929-.778,2.7-1.342,1.189-1.859,2.111-2.159c.89-.289,1.991.506,2.977.506s2.087-.8,2.978-.506c.923.3,1.343,1.6,2.111,2.159s2.141.567,2.705,1.342.143,2.064.442,2.987C319.508,87.16,320.616,87.96,320.616,88.946Z" transform="translate(-301.349 -79.719)" fill="#fff"/>
      </g>
      <g id="Group_6345" data-name="Group 6345" transform="translate(0 0)">
        <path id="Path_6529" data-name="Path 6529" d="M310.439,95.44a4.506,4.506,0,0,1-1.365-.3,2.741,2.741,0,0,0-2.376,0,3.087,3.087,0,0,1-1.9.218,3.129,3.129,0,0,1-1.451-1.33,3.9,3.9,0,0,0-.762-.882,3.942,3.942,0,0,0-1.088-.462,2.348,2.348,0,0,1-2.087-2.86,4.007,4.007,0,0,0-.106-1.19,3.829,3.829,0,0,0-.593-.978,2.405,2.405,0,0,1,0-3.622,3.833,3.833,0,0,0,.593-.978,4.009,4.009,0,0,0,.106-1.19,2.348,2.348,0,0,1,2.087-2.86,3.948,3.948,0,0,0,1.088-.462,3.9,3.9,0,0,0,.762-.882,3.128,3.128,0,0,1,1.451-1.33,3.085,3.085,0,0,1,1.9.218,2.741,2.741,0,0,0,2.376,0,3.087,3.087,0,0,1,1.9-.218,3.13,3.13,0,0,1,1.451,1.33,3.9,3.9,0,0,0,.763.882,3.942,3.942,0,0,0,1.088.462,2.348,2.348,0,0,1,2.087,2.86,4.006,4.006,0,0,0,.106,1.19,3.833,3.833,0,0,0,.593.978,2.406,2.406,0,0,1,0,3.622,3.83,3.83,0,0,0-.593.979,4.005,4.005,0,0,0-.106,1.19,2.348,2.348,0,0,1-2.087,2.86,3.945,3.945,0,0,0-1.088.462,3.9,3.9,0,0,0-.763.882,3.13,3.13,0,0,1-1.451,1.33A1.729,1.729,0,0,1,310.439,95.44Zm-2.554-1.3a4.639,4.639,0,0,1,1.417.308,2.571,2.571,0,0,0,1.448.217,2.6,2.6,0,0,0,1.082-1.059,4.464,4.464,0,0,1,.927-1.048,4.516,4.516,0,0,1,1.3-.567,1.68,1.68,0,0,0,1.578-2.161,4.574,4.574,0,0,1,.142-1.418,4.385,4.385,0,0,1,.7-1.187,1.734,1.734,0,0,0,0-2.753,4.385,4.385,0,0,1-.7-1.187,4.574,4.574,0,0,1-.142-1.418,1.68,1.68,0,0,0-1.578-2.161,4.519,4.519,0,0,1-1.3-.567,4.466,4.466,0,0,1-.927-1.048,2.6,2.6,0,0,0-1.082-1.06,2.568,2.568,0,0,0-1.448.217,3.418,3.418,0,0,1-2.833,0,2.569,2.569,0,0,0-1.448-.217,2.6,2.6,0,0,0-1.082,1.06,4.464,4.464,0,0,1-.927,1.048,4.514,4.514,0,0,1-1.3.567,1.68,1.68,0,0,0-1.578,2.161A4.582,4.582,0,0,1,300,83.282a4.387,4.387,0,0,1-.7,1.187,1.734,1.734,0,0,0,0,2.753,4.387,4.387,0,0,1,.7,1.187,4.58,4.58,0,0,1,.142,1.418,1.68,1.68,0,0,0,1.578,2.161,4.516,4.516,0,0,1,1.3.567,4.467,4.467,0,0,1,.927,1.048,2.6,2.6,0,0,0,1.082,1.059,2.569,2.569,0,0,0,1.448-.217A4.638,4.638,0,0,1,307.885,94.138Z" transform="translate(-297.885 -76.251)" fill="#045541" stroke="rgba(0,0,0,0)" stroke-width="1"/>
      </g>
    </g>
    <g id="Group_6347" data-name="Group 6347" transform="translate(299.733 78.036)">
      <path id="Path_6530" data-name="Path 6530" d="M331.641,100.926c0,.835-.938,1.512-1.182,2.265-.254.781.1,1.878-.375,2.527s-1.633.658-2.289,1.136-1.006,1.574-1.787,1.827c-.753.245-1.685-.429-2.52-.429s-1.766.673-2.52.429c-.781-.254-1.137-1.354-1.787-1.827s-1.812-.479-2.289-1.136-.121-1.747-.374-2.527c-.245-.753-1.182-1.43-1.182-2.265s.938-1.511,1.182-2.265c.254-.781-.1-1.878.375-2.527s1.633-.658,2.289-1.136,1.006-1.574,1.787-1.827c.753-.245,1.685.429,2.52.429s1.767-.673,2.52-.429c.781.254,1.137,1.354,1.787,1.827s1.811.479,2.289,1.136.121,1.747.374,2.527C330.7,99.414,331.641,100.091,331.641,100.926Z" transform="translate(-315.336 -93.117)" fill="#ff8a65"/>
      <path id="Path_6532" data-name="Path 6532" d="M3.754-14.56a3.042,3.042,0,0,1,1.343.273,1.942,1.942,0,0,1,.845.751,2.045,2.045,0,0,1,.285,1.068,1.852,1.852,0,0,1-.42,1.241,1.786,1.786,0,0,1-1.181.6v.056a2.917,2.917,0,0,1,1.282.7,1.716,1.716,0,0,1,.465,1.274A2.1,2.1,0,0,1,5.713-7a2.667,2.667,0,0,1-1.892.618,3.09,3.09,0,0,1-2.037-.64A2.646,2.646,0,0,1,.9-8.918H2.165a1.638,1.638,0,0,0,.481,1.063,1.555,1.555,0,0,0,1.119.4,1.389,1.389,0,0,0,1.013-.345,1.191,1.191,0,0,0,.353-.89,1.134,1.134,0,0,0-.509-1,2.62,2.62,0,0,0-1.472-.345h-.3v-1.046h.3q1.825.022,1.825-1.235a1.111,1.111,0,0,0-.336-.857,1.3,1.3,0,0,0-.918-.312,1.407,1.407,0,0,0-.974.351,1.552,1.552,0,0,0-.47,1.018H1.023a2.55,2.55,0,0,1,.784-1.8A2.792,2.792,0,0,1,3.754-14.56Z" transform="translate(4.588 18.243)" fill="#fff"/>
    </g>
  </g>
</svg>
