<svg xmlns="http://www.w3.org/2000/svg" width="15.75" height="18" viewBox="0 0 15.75 18">
  <path id="attachment" d="M14.676,7.677,13.535,6.536l-5.71,5.708a2.422,2.422,0,0,0,3.426,3.425L18.1,8.819a4.037,4.037,0,0,0-5.709-5.708L5.2,10.3l-.015.015a5.63,5.63,0,0,0,7.963,7.961l.014-.015h0l4.91-4.909L16.93,12.214l-4.91,4.909L12,17.138A4.015,4.015,0,0,1,6.326,11.46l.016-.015h0l7.194-7.192A2.422,2.422,0,0,1,16.96,7.677l-6.851,6.85a.807.807,0,0,1-1.142-1.141l5.71-5.709Z" transform="translate(-3.535 -1.928)" fill="#7b8591"/>
</svg>
