<svg xmlns="http://www.w3.org/2000/svg" width="26" height="26" viewBox="0 0 26 26">
  <path id="insta" d="M13,0C9.468,0,9.027.016,7.641.078a9.586,9.586,0,0,0-3.156.6,6.366,6.366,0,0,0-2.3,1.5,6.343,6.343,0,0,0-1.5,2.3,9.558,9.558,0,0,0-.6,3.156C.013,9.027,0,9.468,0,13s.016,3.973.078,5.359a9.592,9.592,0,0,0,.6,3.156,6.375,6.375,0,0,0,1.5,2.3,6.357,6.357,0,0,0,2.3,1.5,9.6,9.6,0,0,0,3.156.6C9.027,25.987,9.468,26,13,26s3.973-.016,5.359-.078a9.62,9.62,0,0,0,3.156-.6,6.644,6.644,0,0,0,3.8-3.8,9.592,9.592,0,0,0,.6-3.156C25.987,16.973,26,16.532,26,13s-.016-3.973-.078-5.359a9.614,9.614,0,0,0-.6-3.156,6.38,6.38,0,0,0-1.5-2.3,6.334,6.334,0,0,0-2.3-1.5,9.564,9.564,0,0,0-3.156-.6C16.973.013,16.532,0,13,0Zm0,2.34c3.47,0,3.884.017,5.254.077a7.162,7.162,0,0,1,2.413.45,4.278,4.278,0,0,1,2.468,2.467,7.178,7.178,0,0,1,.447,2.413c.062,1.372.076,1.783.076,5.254s-.016,3.884-.08,5.254a7.316,7.316,0,0,1-.456,2.413,4.128,4.128,0,0,1-.974,1.5,4.056,4.056,0,0,1-1.5.971,7.23,7.23,0,0,1-2.421.447c-1.38.062-1.786.076-5.264.076s-3.885-.016-5.264-.08a7.371,7.371,0,0,1-2.422-.456,4.026,4.026,0,0,1-1.494-.974,3.947,3.947,0,0,1-.975-1.5,7.378,7.378,0,0,1-.455-2.421c-.049-1.365-.066-1.786-.066-5.248s.017-3.885.066-5.266A7.369,7.369,0,0,1,2.812,5.3a3.854,3.854,0,0,1,.975-1.5,3.845,3.845,0,0,1,1.494-.973,7.2,7.2,0,0,1,2.406-.456c1.381-.049,1.787-.065,5.264-.065L13,2.34Zm0,3.985A6.676,6.676,0,1,0,19.676,13,6.675,6.675,0,0,0,13,6.325Zm0,11.009A4.333,4.333,0,1,1,17.333,13,4.332,4.332,0,0,1,13,17.333ZM21.5,6.061A1.56,1.56,0,1,1,19.94,4.5,1.561,1.561,0,0,1,21.5,6.061Z" fill="#e7266f"/>
</svg>
