<svg xmlns="http://www.w3.org/2000/svg" xmlns:xlink="http://www.w3.org/1999/xlink" width="144.095" height="170.42" viewBox="0 0 144.095 170.42">
  <defs>
    <linearGradient id="linear-gradient" x2="1" y2="1" gradientUnits="objectBoundingBox">
      <stop offset="0" stop-color="#f39742"/>
      <stop offset="1" stop-color="#e7266f"/>
    </linearGradient>
  </defs>
  <g id="Logo" transform="translate(-116.1 -111)">
    <path id="Path_16003" data-name="Path 16003" d="M10.465,0Q5.985,0,4.043-1.96A7.719,7.719,0,0,1,2.1-7.63V-24.5H7.035V-7.63a4.146,4.146,0,0,0,.84,2.852,3.326,3.326,0,0,0,2.59.928h7.84V0Zm17.5.42a8.361,8.361,0,0,1-5.6-1.68,5.97,5.97,0,0,1-1.96-4.8V-10.4a5.97,5.97,0,0,1,1.96-4.8,8.361,8.361,0,0,1,5.6-1.68,8.361,8.361,0,0,1,5.6,1.68,5.97,5.97,0,0,1,1.96,4.8v4.34a5.97,5.97,0,0,1-1.96,4.8A8.361,8.361,0,0,1,27.965.42Zm0-3.5a3.046,3.046,0,0,0,2.222-.77,2.945,2.945,0,0,0,.788-2.205V-10.4a2.945,2.945,0,0,0-.788-2.2,3.046,3.046,0,0,0-2.222-.77,3.046,3.046,0,0,0-2.222.77,2.945,2.945,0,0,0-.788,2.2v4.34a2.945,2.945,0,0,0,.788,2.205A3.046,3.046,0,0,0,27.965-3.08ZM45.64.42a4.556,4.556,0,0,1-2.9-.858,5.524,5.524,0,0,1-1.68-2.818l-4.13-13.2h4.41l3.85,12.775a2.283,2.283,0,0,0,.193.455.289.289,0,0,0,.262.14q.245,0,.42-.6L49.84-16.45h4.41l-4.06,13.2A5.662,5.662,0,0,1,48.545-.437,4.467,4.467,0,0,1,45.64.42ZM63.245-3.01a5.574,5.574,0,0,0,2.1-.333A6.441,6.441,0,0,0,67.1-4.515l2.695,2.45Q67.76.42,63.245.42,59.22.42,57.435-1.1T55.65-6.055V-11.06a5.157,5.157,0,0,1,1.943-4.253,8.247,8.247,0,0,1,5.3-1.557,8.129,8.129,0,0,1,5.425,1.663,6,6,0,0,1,1.96,4.847,8.369,8.369,0,0,1-.262,2.38,2.032,2.032,0,0,1-1.033,1.243,4.956,4.956,0,0,1-2.24.4h-6.58v.315Q60.165-3.01,63.245-3.01ZM62.9-13.44a2.648,2.648,0,0,0-2.013.753,2.747,2.747,0,0,0-.717,1.977v1.26h3.99a2.088,2.088,0,0,0,1.26-.28,1.19,1.19,0,0,0,.35-.98,2.672,2.672,0,0,0-.735-2.03A2.98,2.98,0,0,0,62.9-13.44ZM74.305-24.5H76.86a7.541,7.541,0,0,1,3.08.525,5.1,5.1,0,0,1,2,1.663A23.472,23.472,0,0,1,83.9-18.9l2.03,4.1,2.03-4.1a23.472,23.472,0,0,1,1.96-3.413,5.1,5.1,0,0,1,2-1.663,7.541,7.541,0,0,1,3.08-.525h2.555V0h-4.48V-19.355a.838.838,0,0,0-.7.385q-.28.385-.84,1.365l-5.6,10.4-5.6-10.4q-.56-.98-.84-1.365a.941.941,0,0,0-.7-.42V0h-4.48ZM109.69-3.01a5.575,5.575,0,0,0,2.1-.333,6.441,6.441,0,0,0,1.75-1.173l2.695,2.45Q114.2.42,109.69.42q-4.025,0-5.81-1.522T102.1-6.055V-11.06a5.157,5.157,0,0,1,1.943-4.253,8.247,8.247,0,0,1,5.3-1.557,8.129,8.129,0,0,1,5.425,1.663,6,6,0,0,1,1.96,4.847,8.369,8.369,0,0,1-.262,2.38,2.032,2.032,0,0,1-1.033,1.243,4.957,4.957,0,0,1-2.24.4h-6.58v.315Q106.61-3.01,109.69-3.01Zm-.35-10.43a2.648,2.648,0,0,0-2.012.753,2.747,2.747,0,0,0-.718,1.977v1.26h3.99a2.088,2.088,0,0,0,1.26-.28,1.19,1.19,0,0,0,.35-.98,2.672,2.672,0,0,0-.735-2.03A2.98,2.98,0,0,0,109.34-13.44Zm17.6,10.43a5.574,5.574,0,0,0,2.1-.333,6.441,6.441,0,0,0,1.75-1.173l2.7,2.45Q131.46.42,126.945.42q-4.025,0-5.81-1.522T119.35-6.055V-11.06a5.157,5.157,0,0,1,1.943-4.253,8.247,8.247,0,0,1,5.3-1.557,8.129,8.129,0,0,1,5.425,1.663,6,6,0,0,1,1.96,4.847,8.369,8.369,0,0,1-.263,2.38,2.032,2.032,0,0,1-1.033,1.243,4.956,4.956,0,0,1-2.24.4h-6.58v.315Q123.865-3.01,126.945-3.01Zm-.35-10.43a2.648,2.648,0,0,0-2.012.753,2.747,2.747,0,0,0-.717,1.977v1.26h3.99a2.088,2.088,0,0,0,1.26-.28,1.19,1.19,0,0,0,.35-.98,2.672,2.672,0,0,0-.735-2.03A2.98,2.98,0,0,0,126.6-13.44Zm14.84.49v6.79A3.505,3.505,0,0,0,141.89-4.1a1.82,1.82,0,0,0,1.54.6H146.2V0H143.43a10.226,10.226,0,0,1-3.868-.6,3.808,3.808,0,0,1-2.048-1.925,8.644,8.644,0,0,1-.63-3.64V-19.005a2.894,2.894,0,0,0-.368-1.54,5.091,5.091,0,0,0-1.312-1.3l3.045-2.66a5.906,5.906,0,0,1,2.485,2.083,6.4,6.4,0,0,1,.7,3.272v2.7h4.76v3.5Z" transform="translate(114 281)" fill="#3e3e3e"/>
    <g id="Group_6212" data-name="Group 6212" transform="translate(-188.839 -48.241)">
      <path id="Path_9672" data-name="Path 9672" d="M375.077,277.045a4.3,4.3,0,0,1-3.046-1.261l-39.908-39.908c-17.4-17.4-17.753-45.736-.78-63.156a44.768,44.768,0,0,1,63.509-.532l2.907,2.9A20.858,20.858,0,0,1,423.9,177.8a36.96,36.96,0,0,1,0,52.207l-45.776,45.776A4.3,4.3,0,0,1,375.077,277.045ZM363.37,167.854h-.31a35.818,35.818,0,0,0-25.547,10.875c-13.7,14.062-13.387,36.965.7,51.055l36.862,36.862,42.73-42.731a28.335,28.335,0,0,0,0-40.026,12.247,12.247,0,0,0-14.01-2.347,36.933,36.933,0,0,1-3.278,48.466l-22.4,22.4a4.307,4.307,0,0,1-6.091,0l-28.3-28.3c-10.871-10.872-11.219-28.641-.777-39.61a28.213,28.213,0,0,1,40.194-.618,3.682,3.682,0,0,0,5.2,0l3.013-3.012-2.582-2.574A35.806,35.806,0,0,0,363.37,167.854Zm-.007,16.529c-.1,0-.208,0-.311,0a19.391,19.391,0,0,0-13.858,6.048c-7.248,7.613-6.965,19.986.629,27.581l25.255,25.255,19.351-19.35a28.349,28.349,0,0,0,2.814-36.751l-2.8,2.8a12.308,12.308,0,0,1-17.355.022A19.379,19.379,0,0,0,363.363,184.384Z" fill="url(#linear-gradient)"/>
    </g>
  </g>
</svg>
