<svg xmlns="http://www.w3.org/2000/svg" xmlns:xlink="http://www.w3.org/1999/xlink" width="258.868" height="345" viewBox="0 0 258.868 345">
  <defs>
    <clipPath id="clip-path">
      <path id="Path_9322" data-name="Path 9322" d="M185.537,262.873c-2.423-7.084-10.676-2.843-15.434-.543.3-2.633.6-5.272.9-7.906.272-2.373.819-5,.206-7.367-.724-2.762-3.694-5.194-6.485-3.473-1.344.823-2.058,2.431-2.8,3.745a90.566,90.566,0,0,1-4.8,8.331c-1.267,1.768-1.106,1.618-3.39,1.483-2.24-.131-2.153.075-2.954-1.846a23.658,23.658,0,0,1-1.142-4.8,11.743,11.743,0,0,0-2.292-5.69c-1.818-2.1-5.058-3.378-7.338-1.223-2.77,2.6-2.964,7.724-2.766,11.217.151,2.518,1.106,5.03,1.193,7.5.063,1.659-1.564,3.662-3.382,3.081a11.217,11.217,0,0,1-3.454-2.294c-2.526-2-5.858-2.928-7.883.293-2.47,3.916.515,8,3.008,10.983,4.251,5.056,8.549,10.058,12.819,15.087,0,.024-.006.036,0,.059.379,2.419,2.871,2.72,4.956,2.655a75.9,75.9,0,0,0,13.515-1.875c7.718-1.693,15.246-4.893,20.882-10.569C182.854,275.734,187.581,268.841,185.537,262.873Z" transform="translate(-122.791 -242.475)" fill="none"/>
    </clipPath>
    <clipPath id="clip-path-2">
      <path id="Path_9326" data-name="Path 9326" d="M148.327,261.931c-.789.823-1.455,1.768-2.258,2.583-1.455,1.485-2.55,2.494-3.206.006-.845-3.182.151-6.61.47-9.792.321-3.218-.065-10.23-5.224-8.154-4.83,1.933-4.031,10.109-4.249,14.148a23.939,23.939,0,0,1-.777,5.684c-1.233,3.922-5.038,1.071-6.834-.541s-3.715-3.378-6.251-3.6c-5.3-.462-6.316,5.987-3.884,9.5,1.745,2.516,4.572,4.064,7.111,5.64q4.824,3.024,9.651,6.017c3.063,3.533,6.8,6.636,11.745,6.356,5.1-.3,7.633-4.645,9.187-8.979,1.166-3.22,2.242-6.515,3.23-9.8.72-2.427,1.293-5.123.274-7.554C155.566,259.263,151.277,258.888,148.327,261.931Z" transform="translate(-114.862 -246.196)" fill="none"/>
    </clipPath>
    <clipPath id="clip-path-3">
      <path id="Path_9330" data-name="Path 9330" d="M153.144,253.1a25.424,25.424,0,0,0-3.295,5.311q-2.255,4.047-4.489,8.069c-.971,1.747-2.02,4.97-4.736,4.389-1.281-.266-2.887-1.866-3.9-2.7-1.933-1.624-3.384-3.662-5.244-5.341-2.125-1.919-5.8-3.19-7.847-.416-2.363,3.2-.224,7.9,1.949,10.549,3.144,3.842,7.7,5.979,11.79,8.662a.49.49,0,0,0,.05.283c1.392,2.667,4.409,3.424,7.23,2.791,3.822-.866,6.753-3.949,8.813-7.107a83.087,83.087,0,0,0,6.412-12.827c1.513-3.517,2.964-8.289.268-11.644C158.185,250.693,155.2,250.945,153.144,253.1Z" transform="translate(-122.596 -251.391)" fill="none"/>
    </clipPath>
    <clipPath id="clip-path-4">
      <path id="Path_9333" data-name="Path 9333" d="M155.366,277.409c-1.971-6.83-8.438-11.017-15.43-10.906-6.745.119-15.563,3.559-17.328,10.738-.083,0-.176.006-.256,0-.579,0-.617.9-.026.906q16.3-.091,32.587-.186A.453.453,0,0,0,155.366,277.409Z" transform="translate(-121.9 -266.501)" fill="none"/>
    </clipPath>
    <clipPath id="clip-path-5">
      <path id="Path_9345" data-name="Path 9345" d="M94.062,271.8s4.615,10.274,31.306,10.274,29.192,11.687,46.119,11.687,26.164-5.05,50.252-5.05,30.022,9.631,46.949,8.329,13.9-7.274,43.845-8.575,40.4-16.664,40.4-16.664Z" transform="translate(-94.062 -271.796)" fill="none"/>
    </clipPath>
    <clipPath id="clip-path-6">
      <rect id="Rectangle_2915" data-name="Rectangle 2915" width="219.974" height="219.715" rx="12" fill="none"/>
    </clipPath>
    <linearGradient id="linear-gradient" x1="1" y1="1" x2="0" gradientUnits="objectBoundingBox">
      <stop offset="0" stop-color="#ff7479"/>
      <stop offset="1" stop-color="#f566a2"/>
    </linearGradient>
  </defs>
  <g id="intro-1" transform="translate(-94.062 -113.553)">
    <g id="tree" transform="translate(136.091 374.029)">
      <g id="Group_5982" data-name="Group 5982" transform="translate(15.999)">
        <g id="Group_5981" data-name="Group 5981" clip-path="url(#clip-path)">
          <path id="Path_9319" data-name="Path 9319" d="M185.537,262.873c-2.423-7.084-10.676-2.843-15.434-.543.3-2.633.6-5.272.9-7.906.272-2.373.819-5,.206-7.367-.724-2.762-3.694-5.194-6.485-3.473-1.344.823-2.058,2.431-2.8,3.745a90.566,90.566,0,0,1-4.8,8.331c-1.267,1.768-1.106,1.618-3.39,1.483-2.24-.131-2.153.075-2.954-1.846a23.658,23.658,0,0,1-1.142-4.8,11.743,11.743,0,0,0-2.292-5.69c-1.818-2.1-5.058-3.378-7.338-1.223-2.77,2.6-2.964,7.724-2.766,11.217.151,2.518,1.106,5.03,1.193,7.5.063,1.659-1.564,3.662-3.382,3.081a11.217,11.217,0,0,1-3.454-2.294c-2.526-2-5.858-2.928-7.883.293-2.47,3.916.515,8,3.008,10.983,4.251,5.056,8.549,10.058,12.819,15.087,0,.024-.006.036,0,.059.379,2.419,2.871,2.72,4.956,2.655a75.9,75.9,0,0,0,13.515-1.875c7.718-1.693,15.246-4.893,20.882-10.569C182.854,275.734,187.581,268.841,185.537,262.873Z" transform="translate(-122.791 -242.475)" fill="#5db3c1"/>
          <path id="Path_9320" data-name="Path 9320" d="M172.637,260.987A179.514,179.514,0,0,1,139.8,287.8l-.006-.018a108.947,108.947,0,0,0,10.855-16.386,158.724,158.724,0,0,0,9.4-21.973c.236-.69-.815-1.124-1.055-.43a159.318,159.318,0,0,1-8.922,21.049,87.411,87.411,0,0,1-5.87,10.274c-1.41,2.016-2.958,3.947-4.516,5.866.137-1.883.131-3.793.192-5.63.125-3.745.161-7.49.161-11.235,0-6.957.381-14.15-.833-21.025-.129-.718-1.257-.561-1.128.161,1.2,6.772.829,13.868.831,20.718,0,3.184-.026,6.366-.111,9.55-.052,1.945,0,4.027-.1,6.081a97.781,97.781,0,0,0-4.982-10.636c-2.088-3.886-4.064-8.269-7.09-11.525-.5-.533-1.394.167-.894.706,3.18,3.42,5.28,8.121,7.447,12.23a88.982,88.982,0,0,1,5.286,11.88c-.014.1-.034.194-.048.291-.27.333-.537.668-.805,1a.477.477,0,0,0-.315.226c-.147.232-.293.466-.44.7-.264.165-.523.339-.787.5-.621.383.091,1.275.708.892.428-.262.845-.543,1.271-.809.212.4.854.527,1-.01.067-.24.107-.488.161-.732a182.22,182.22,0,0,0,34.332-27.843C174.053,261.14,173.137,260.462,172.637,260.987Z" transform="translate(-119.944 -237.031)" fill="#cbecf4"/>
          <path id="Path_9321" data-name="Path 9321" d="M123.8,259.41s6.5,11.874,20.95,9.82,39.364-11.344,39.364-11.344L159.443,282.1l-31.495-1.059Z" transform="translate(-121.765 -226.789)" opacity="0.2"/>
        </g>
      </g>
      <g id="Group_5984" data-name="Group 5984" transform="translate(0 7.509)">
        <g id="Group_5983" data-name="Group 5983" clip-path="url(#clip-path-2)">
          <path id="Path_9323" data-name="Path 9323" d="M148.327,261.931c-.789.823-1.455,1.768-2.258,2.583-1.455,1.485-2.55,2.494-3.206.006-.845-3.182.151-6.61.47-9.792.321-3.218-.065-10.23-5.224-8.154-4.83,1.933-4.031,10.109-4.249,14.148a23.939,23.939,0,0,1-.777,5.684c-1.233,3.922-5.038,1.071-6.834-.541s-3.715-3.378-6.251-3.6c-5.3-.462-6.316,5.987-3.884,9.5,1.745,2.516,4.572,4.064,7.111,5.64q4.824,3.024,9.651,6.017c3.063,3.533,6.8,6.636,11.745,6.356,5.1-.3,7.633-4.645,9.187-8.979,1.166-3.22,2.242-6.515,3.23-9.8.72-2.427,1.293-5.123.274-7.554C155.566,259.263,151.277,258.888,148.327,261.931Z" transform="translate(-114.862 -246.196)" fill="#417f7e"/>
          <path id="Path_9324" data-name="Path 9324" d="M148.035,262.816a72.292,72.292,0,0,0-5.763,12.11,64.273,64.273,0,0,0-3.525,10.7q-.627-1.141-1.289-2.264c-1.356-10.708-2.589-21.3-.934-32.124.109-.716-.985-1.037-1.1-.315-1.556,10.173-.625,20.111.607,30.149a65.561,65.561,0,0,0-5.981-7.976,41.583,41.583,0,0,0-12.062-9.136c-.644-.347-1.229.632-.583.981a40.789,40.789,0,0,1,11.832,8.957,64.195,64.195,0,0,1,7.127,9.853q.266,2.088.529,4.187a.571.571,0,0,0-.022.515l.176.4c.282.642,1.118.151,1.045-.422-.087-.7-.174-1.4-.262-2.1.05.095.109.186.159.278a.5.5,0,0,0,.551.278c-.052.383-.109.767-.141,1.156-.058.73,1.082.749,1.14.02.355-4.427,2.252-8.707,3.824-12.821a70.62,70.62,0,0,1,5.648-11.84A.57.57,0,0,0,148.035,262.816Z" transform="translate(-112.554 -241.797)" fill="#5aa8a4"/>
          <path id="Path_9325" data-name="Path 9325" d="M118.48,266.972s10.272,4.292,15.654,2.922,15.446-2.643,21.747-13.242l-2.867,24.524L122.5,287.1Z" transform="translate(-111.179 -235.555)" opacity="0.2"/>
        </g>
      </g>
      <g id="Group_5986" data-name="Group 5986" transform="translate(15.606 17.991)">
        <g id="Group_5985" data-name="Group 5985" clip-path="url(#clip-path-3)">
          <path id="Path_9327" data-name="Path 9327" d="M153.144,253.1a25.424,25.424,0,0,0-3.295,5.311q-2.255,4.047-4.489,8.069c-.971,1.747-2.02,4.97-4.736,4.389-1.281-.266-2.887-1.866-3.9-2.7-1.933-1.624-3.384-3.662-5.244-5.341-2.125-1.919-5.8-3.19-7.847-.416-2.363,3.2-.224,7.9,1.949,10.549,3.144,3.842,7.7,5.979,11.79,8.662a.49.49,0,0,0,.05.283c1.392,2.667,4.409,3.424,7.23,2.791,3.822-.866,6.753-3.949,8.813-7.107a83.087,83.087,0,0,0,6.412-12.827c1.513-3.517,2.964-8.289.268-11.644C158.185,250.693,155.2,250.945,153.144,253.1Z" transform="translate(-122.596 -251.391)" fill="#b3d3dd"/>
          <path id="Path_9328" data-name="Path 9328" d="M152.684,255.72q-1.35,2.548-2.661,5.121c-.075-.385-.129-.785-.206-1.126-.151-.67-.3-1.336-.456-2-.161-.708-1.289-.555-1.128.159q.324,1.419.646,2.837a7.472,7.472,0,0,0,.375,1.65c-.858,1.693-1.683,3.4-2.516,5.107a27.055,27.055,0,0,0-.95-2.791.57.57,0,0,0-1.045.452,25.2,25.2,0,0,1,1.2,3.7.556.556,0,0,0,.057.127c-1.582,3.265-3.136,6.546-4.633,9.851a11.807,11.807,0,0,0-3.41-7.922,25.069,25.069,0,0,0-3.329-2.7.574.574,0,0,0,.024-.147q-.054-1.668-.111-3.333c-.024-.73-1.152-.565-1.128.161q.042,1.265.085,2.534c-1.223-.837-2.446-1.667-3.567-2.6a.567.567,0,0,0,.083-.307q-.051-1.937-.034-3.872c.006-.726-1.124-.878-1.13-.145-.01,1.126.008,2.252.03,3.378a12.263,12.263,0,0,1-2.337-3.089c-.339-.644-1.386-.2-1.045.456a13.537,13.537,0,0,0,2.244,3.075c-1.1-.141-2.207-.3-3.3-.519-.72-.139-.862.993-.145,1.13q2.409.469,4.847.7a40.62,40.62,0,0,0,3.4,2.53c-.063.012-.135.03-.192.038q-1.671.236-3.339.474a.57.57,0,0,0,.161,1.128l2.409-.343,1.114-.157c.1-.014.722-.151.96-.212l0,.006.046.032a.653.653,0,0,0,.365.1,18.168,18.168,0,0,1,4.255,3.8c1.826,2.425,2.022,5.208,2,8.119-.1.236-.216.47-.321.708-.3.672.759,1.1,1.055.43l0-.006a.445.445,0,0,0,.389-.468c0-.131,0-.258,0-.389,1.85-4.149,3.791-8.253,5.775-12.339q1.752-.778,3.507-1.564c.472-.21.436-1.084-.155-1.086-.087,0-.174,0-.258,0a.579.579,0,0,0-.476.238q-.917.409-1.832.815c.767-1.562,1.515-3.134,2.3-4.689.3-.1.607-.279.851-.383.944-.4,1.887-.8,2.831-1.19a.57.57,0,0,0-.454-1.045q-.944.4-1.887.795c-.172.071-.343.143-.515.216.858-1.675,1.719-3.349,2.6-5.012C154.083,255.5,153.025,255.078,152.684,255.72Z" transform="translate(-121.345 -247.309)" fill="#cbecf4"/>
          <path id="Path_9329" data-name="Path 9329" d="M125.451,266.48s6.116,4.092,12.528,3.18,17.088-8.753,17.088-8.753l-7.946,18.452-19.1.127Z" transform="translate(-119.691 -241.706)" opacity="0.2"/>
        </g>
      </g>
      <g id="Group_5988" data-name="Group 5988" transform="translate(14.201 48.479)">
        <g id="Group_5987" data-name="Group 5987" clip-path="url(#clip-path-4)">
          <path id="Path_9331" data-name="Path 9331" d="M155.366,277.409c-1.971-6.83-8.438-11.017-15.43-10.906-6.745.119-15.563,3.559-17.328,10.738-.083,0-.176.006-.256,0-.579,0-.617.9-.026.906q16.3-.091,32.587-.186A.453.453,0,0,0,155.366,277.409Z" transform="translate(-121.9 -266.501)" fill="#d1a76b"/>
          <path id="Path_9332" data-name="Path 9332" d="M123.905,265.89s1.328,6.36,12.716,6.36,14.235-5.694,14.235-5.694Z" transform="translate(-119.859 -267.123)" opacity="0.2"/>
        </g>
      </g>
    </g>
    <g id="land" transform="translate(94.062 433.191)">
      <g id="Group_5992" data-name="Group 5992" clip-path="url(#clip-path-5)">
        <g id="Group_5991" data-name="Group 5991" transform="translate(-13.502 0.002)">
          <path id="Path_9334" data-name="Path 9334" d="M87.377,271.8H379.284s21.351,37.306-8.6,38.605-45.94-5.335-62.865-4.035-57.713-1.009-81.8-1.009-32.054-4.288-48.979-4.288-23.8-1.009-50.494-1.009S87.377,271.8,87.377,271.8Z" transform="translate(-87.377 -271.797)" fill="#edbf7c"/>
          <g id="Group_5990" data-name="Group 5990" transform="translate(74.142 3.257)">
            <path id="Path_9335" data-name="Path 9335" d="M124.737,273.84a.917.917,0,0,0-.559,1.267,1.613,1.613,0,0,0,2.644,1.7C128.284,275.317,126.5,273.293,124.737,273.84Z" transform="translate(-124.085 -273.068)" fill="#fb7a54"/>
            <path id="Path_9336" data-name="Path 9336" d="M136.409,277.649c-1.248-1.332-2.805-.089-3.462,1.128a.942.942,0,0,0,.836,1.376.834.834,0,0,0,.664.311,2.632,2.632,0,0,0,2.03-.849A1.49,1.49,0,0,0,136.409,277.649Z" transform="translate(-115.171 -269.682)" fill="#fb7a54"/>
            <path id="Path_9337" data-name="Path 9337" d="M145.185,274.479c-.079.077-.156.155-.232.234a.926.926,0,0,0,1.311,1.308l.232-.23A.928.928,0,0,0,145.185,274.479Z" transform="translate(-103.083 -272.603)" fill="#fb7a54"/>
            <path id="Path_9338" data-name="Path 9338" d="M178.053,279.006c-1.313-.458-2.9.551-2.377,2.04a.922.922,0,0,0,.485.539,1.724,1.724,0,0,0,.566,1.271,1.9,1.9,0,0,0,2.886-.68A2.462,2.462,0,0,0,178.053,279.006Z" transform="translate(-71.579 -267.83)" fill="#fb7a54"/>
            <path id="Path_9339" data-name="Path 9339" d="M162.656,275.607a.924.924,0,0,0-1.511,1.043,1.689,1.689,0,0,0,2.721.339C164.642,276.149,163.47,274.927,162.656,275.607Z" transform="translate(-86.418 -271.515)" fill="#fb7a54"/>
            <path id="Path_9340" data-name="Path 9340" d="M184.768,274.552a1.709,1.709,0,0,0-.471-.295.893.893,0,0,0-1.456-.26c-.089.093-.176.194-.259.295a1.539,1.539,0,0,0-.529.611.932.932,0,0,0-.087.482,1.977,1.977,0,0,0,.208,1.838,1.856,1.856,0,0,0,2.662.428A2.32,2.32,0,0,0,184.768,274.552Z" transform="translate(-65.195 -273.099)" fill="#fb7a54"/>
            <path id="Path_9341" data-name="Path 9341" d="M194.856,276.77a1.517,1.517,0,0,0-1.662.42.869.869,0,0,0-.093,1.124.9.9,0,0,0,.844.676,1.478,1.478,0,0,0,1.464-.86A.943.943,0,0,0,194.856,276.77Z" transform="translate(-53.872 -270.088)" fill="#fb7a54"/>
            <path id="Path_9342" data-name="Path 9342" d="M219.726,273.948c-.9-.88-2.107-.517-3.116-.048s-.277,1.828.683,1.661a1.417,1.417,0,0,0,.059.28,1.566,1.566,0,0,0,2.375.523A1.607,1.607,0,0,0,219.726,273.948Z" transform="translate(-30.22 -273.411)" fill="#fb7a54"/>
            <path id="Path_9343" data-name="Path 9343" d="M153.752,275.9a.828.828,0,0,0-.614-.27c-.024-.008-.036-.024-.059-.032a1.889,1.889,0,0,0-1.45,3.475C153.657,280.093,155.2,277.4,153.752,275.9Z" transform="translate(-97.063 -271.278)" fill="#fb7a54"/>
          </g>
        </g>
        <path id="Path_9344" data-name="Path 9344" d="M157.75,269.883s6.8,9.265,17.309,9.572,18.855-.615,23.8,3.089,21.628,3.263,28.432-.069,15.459.377,20.4,1.612,8.782-3.1,11.192-5.874S271.5,271.12,271.5,271.12Z" transform="translate(-29.115 -273.743)" opacity="0.1"/>
      </g>
    </g>
    <g id="screen" transform="translate(107.747 113.553)">
      <path id="Rectangle_2906" data-name="Rectangle 2906" d="M12,0H207.974a12,12,0,0,1,12,12V207.715a12,12,0,0,1-12,12H13.684A13.684,13.684,0,0,1,0,206.031V12A12,12,0,0,1,12,0Z" transform="translate(0 3.582)" fill="#fe727e"/>
      <g id="Group_5999" data-name="Group 5999" transform="translate(3.582)">
        <g id="Group_5998" data-name="Group 5998" clip-path="url(#clip-path-6)">
          <rect id="Rectangle_2907" data-name="Rectangle 2907" width="219.974" height="219.715" rx="12" fill="#f5f5f5"/>
          <rect id="Rectangle_2908" data-name="Rectangle 2908" width="241.493" height="44.181" transform="translate(-10.76)" fill="#f9d0d0"/>
          <g id="Group_5995" data-name="Group 5995" transform="translate(32.279 63.288)">
            <rect id="Rectangle_2909" data-name="Rectangle 2909" width="47.82" height="47.764" rx="6.667" transform="translate(0 53.735)" fill="#f9d0d0"/>
            <rect id="Rectangle_2910" data-name="Rectangle 2910" width="47.821" height="47.765" rx="6.667" transform="translate(53.798)" fill="#f9d0d0"/>
            <rect id="Rectangle_2911" data-name="Rectangle 2911" width="47.821" height="47.764" rx="6.667" transform="translate(53.798 53.735)" fill="#f9d0d0"/>
            <rect id="Rectangle_2912" data-name="Rectangle 2912" width="47.82" height="47.765" rx="6.667" transform="translate(107.596)" fill="#f9d0d0"/>
            <rect id="Rectangle_2913" data-name="Rectangle 2913" width="47.82" height="47.764" rx="6.667" transform="translate(107.596 53.735)" fill="#f9d0d0"/>
            <g id="Group_5994" data-name="Group 5994">
              <rect id="Rectangle_2914" data-name="Rectangle 2914" width="47.82" height="47.765" rx="6.667" fill="url(#linear-gradient)"/>
              <path id="Path_9346" data-name="Path 9346" d="M133.363,162.669l-5.256-6.305-3.584,2.979,5.255,6.307,2.984,3.58,3.585-2.981L148.4,156.225l-2.984-3.58Z" transform="translate(-112.553 -137.056)" fill="#f5f5f5" stroke="rgba(0,0,0,0)" stroke-miterlimit="10" stroke-width="1"/>
            </g>
          </g>
          <path id="Path_9347" data-name="Path 9347" d="M278.072,204h-159a2.687,2.687,0,0,1-2.689-2.686h0a2.69,2.69,0,0,1,2.689-2.69h159a2.69,2.69,0,0,1,2.689,2.69h0A2.687,2.687,0,0,1,278.072,204Z" transform="translate(-88.583 -26.973)" fill="#f9d0d0"/>
          <path id="Path_9348" data-name="Path 9348" d="M278.072,132.686h-159A2.688,2.688,0,0,1,116.379,130h0a2.687,2.687,0,0,1,2.689-2.686h159A2.687,2.687,0,0,1,280.761,130h0A2.688,2.688,0,0,1,278.072,132.686Z" transform="translate(-88.583 -99.549)" fill="#f5f5f5"/>
          <g id="Group_5997" data-name="Group 5997" transform="translate(41.65 184.639)">
            <path id="Path_9349" data-name="Path 9349" d="M135.79,230.137h0A12.545,12.545,0,0,1,123.237,217.6h0a12.545,12.545,0,0,1,12.553-12.538h0A12.545,12.545,0,0,1,148.343,217.6h0A12.545,12.545,0,0,1,135.79,230.137Z" transform="translate(-123.237 -205.061)" fill="url(#linear-gradient)"/>
            <g id="Group_5996" data-name="Group 5996" transform="translate(6.258 8.361)">
              <path id="Path_9350" data-name="Path 9350" d="M129.714,211.244V209.2h-3.379v.759h2.619v5.994h8.226l1.747-4.713Z" transform="translate(-126.335 -209.205)" fill="#f5f5f5"/>
              <path id="Path_9351" data-name="Path 9351" d="M129.358,213.35a.612.612,0,1,1-.612-.611A.614.614,0,0,1,129.358,213.35Z" transform="translate(-124.499 -205.608)" fill="#f5f5f5"/>
              <ellipse id="Ellipse_850" data-name="Ellipse 850" cx="0.613" cy="0.612" rx="0.613" ry="0.612" transform="translate(8.535 7.132)" fill="#f5f5f5"/>
            </g>
          </g>
          <path id="Path_9352" data-name="Path 9352" d="M210.05,130.008H143.7a6.049,6.049,0,0,1-6.05-6.045h0a6.047,6.047,0,0,1,6.05-6.045H210.05a6.049,6.049,0,0,1,6.052,6.045h0A6.05,6.05,0,0,1,210.05,130.008Z" transform="translate(-66.887 -109.111)" fill="#f5f5f5"/>
        </g>
      </g>
    </g>
    <g id="man" transform="translate(206.113 142.828)">
      <g id="Group_6001" data-name="Group 6001" transform="translate(53.005 282.963)">
        <path id="Path_9353" data-name="Path 9353" d="M191.222,269.012c.25,1.477,1.053,3.031.089,4.51a1.537,1.537,0,0,1-1.065.464c-4.649.212-9.235-.339-14.51-.739a20.764,20.764,0,0,1,1.893-1.481c1.715-.962,3.495-1.84,5.186-2.831a3.752,3.752,0,0,1,3.5-.587,12.6,12.6,0,0,0,2.768.262C189.832,268.7,191.174,268.76,191.222,269.012Z" transform="translate(-175.736 -268.128)" fill="#a5a5a5"/>
        <path id="Path_9354" data-name="Path 9354" d="M208.412,268.736c1.027.389,2.417-.19,4-.363,0,1.893,0,3.747.012,5.6,0,.963-.288,1.6-1.429,1.59-4.786-.012-9.572,0-14.584,0,.151-1.465,1.178-1.917,1.967-2.5,1.265-.928,2.631-1.7,3.86-2.669C204.075,268.924,205.819,267.76,208.412,268.736Z" transform="translate(-154.697 -267.878)" fill="#a5a5a5"/>
      </g>
      <path id="Path_9355" data-name="Path 9355" d="M186.162,154.492c-2.205-1.554-2.468-3.384-2.419-5.414.038-1.253.664-1.566,1.755-1.566,1.027,0,1.527.313,1.364,1.441C186.6,150.671,186.424,152.386,186.162,154.492Z" transform="translate(-114.587 -108.266)" fill="#a5a5a5"/>
      <path id="Path_9356" data-name="Path 9356" d="M217.668,163.9a23,23,0,0,0-2.643,1.027c-.188-.25-.462-.462-.527-.738-.513-1.9-1.828-2.193-3.6-2.155-11.089.238-20.51-4.035-28.793-11.063a17.672,17.672,0,0,1-6.4-11.465c-.714-5.7,1.879-9.209,7.542-10.173a22.669,22.669,0,0,1,13.959,2.266,46.007,46.007,0,0,1,17.316,15c1.366,1.9,2.617,2.994,5.2,3.1,6.114.236,9.623,3.807,10.7,9.849a18.758,18.758,0,0,1-.864,9.835,34.833,34.833,0,0,1-9.211,13.9c-.6-2.068-.575-3.511.914-4.962a15.777,15.777,0,0,0,3.021-4.324,9.675,9.675,0,0,0,.977-4.185C225.249,165.852,223.106,162.519,217.668,163.9Z" transform="translate(-122.878 -127.081)" fill="#a5a5a5"/>
      <g id="Group_6002" data-name="Group 6002" transform="translate(2.2 35.57)">
        <path id="Path_9357" data-name="Path 9357" d="M201.912,273.452c-.038-3.731-.125-7.466-.113-11.2,0-1.943.151-2.006,2.306-1.893,1.077-.077,1.953.137,1.893,1.642-.175,3.519-.276,7.04-.44,10.561-.024.615.026,1.477-.339,1.768a3.9,3.9,0,0,1-2.218.7C202.125,275.034,201.912,274.255,201.912,273.452Z" transform="translate(-98.407 -28.674)" fill="#ead6c1"/>
        <path id="Path_9358" data-name="Path 9358" d="M180.961,273.548c.176-4.058.25-8.117.476-12.177a2.134,2.134,0,0,1,3.321-1.705,1.7,1.7,0,0,1,.563,1.277c-.063,2.082-.224,4.161-.339,6.241h-.212c0,2.193.077,4.387-.024,6.566-.089,1.642-.613,1.967-2.157,1.893C181.187,275.578,180.91,274.765,180.961,273.548Z" transform="translate(-119.619 -29.684)" fill="#ead6c1"/>
        <path id="Path_9359" data-name="Path 9359" d="M184.473,152.579c.137-.1.313-.313.387-.276a4.3,4.3,0,0,1,.615.488c-.238.153-.452.341-.5.3A3.367,3.367,0,0,1,184.473,152.579Z" transform="translate(-116.039 -138.966)" fill="#ead6c1"/>
        <path id="Path_9360" data-name="Path 9360" d="M224.242,191.669c.276.9-.289,2.244-.815,3.184-1.554,2.817-3.182,5.625-4.974,8.281-2.33,3.446-4.861,6.753-7.292,10.135-.414.565-.765,1.19-1.14,1.78-1.491-3.807-2.556-7.129-.25-10.486,1.465-2.143,2.554-4.536,4.021-6.679.964-1.416,1.164-2.53-.05-3.86-1.828-1.979-1.229-2.179.4-3.721,2.117-1.979,4.161-4.06,6.378-6.227A23.662,23.662,0,0,1,224.242,191.669Z" transform="translate(-91.656 -106.5)" fill="#ead6c1"/>
        <path id="Path_9361" data-name="Path 9361" d="M189.84,145.847a33.886,33.886,0,0,0,10.212,1.166c1.077-.038,1.818.262,2.042,1.414a6.916,6.916,0,0,0,.327,1.2c.726,1.689,1.2,1.753,2.72.676a9.076,9.076,0,0,1,2.956-1.556c2.607-.638,4.36.553,4.56,3.222a8.324,8.324,0,0,1-.739,4.209,18.082,18.082,0,0,1-3.333,4.473,3.548,3.548,0,0,0-1.239,3.608c.977,3.41-.553,6.33-1.58,9.36-.176.525-.64,1.227-1.1,1.342-2.48.611-5,1.063-7.893,1.64a54.318,54.318,0,0,1,.8-6.251c.274-1.1.063-1.505-.89-1.844a35.7,35.7,0,0,1-3.759-1.477c-4.56-2.207-6.967-5.827-6.891-10.952a30.635,30.635,0,0,1,.363-4.661c.313-2.016.426-2.042,2.343-2.117a18.7,18.7,0,0,0,2.494,0c.525-.087,1.453-.293,1.479-.866.022-.545-.839-.851-1.33-.964-.8-.161-1.667-.012-2.492-.111-.315-.038-.6-.365-.9-.565a5.651,5.651,0,0,1,.952-1.053C189.126,145.609,189.554,145.76,189.84,145.847Z" transform="translate(-114.453 -145.691)" fill="#ead6c1"/>
        <path id="Path_9362" data-name="Path 9362" d="M157.821,167.368a25.36,25.36,0,0,1-1.729-3.933,21.685,21.685,0,0,1,6.354,5.712,4.049,4.049,0,0,1,.551,2.669c-.539,4.762,1.429,8.384,4.635,11.753,5.25,5.512,10.238,11.265,15.4,16.864,1.83,1.979,4.247,3.547,5.652,5.777,1.34,2.129,1.7,4.873,2.518,7.355.613,1.868,1.253,3.733,1.929,5.738-4.5,1.941-7.742,1.378-10.387-2.054-3.495-4.55-6.727-9.3-10.073-13.959-2.306-3.22-4.6-6.453-6.9-9.685-2.355-3.307-4.748-6.6-7.028-9.974a2.942,2.942,0,0,0-2.7-1.653c-2.355-.026-5.2-2.671-5.474-5.077a2.751,2.751,0,0,1,.94-2.078c1.741-1.481,3.62-2.795,5.462-4.148C158.711,169.412,158.761,169.274,157.821,167.368Z" transform="translate(-150.557 -127.632)" fill="#ead6c1"/>
      </g>
      <path id="Path_9363" data-name="Path 9363" d="M235.319,212.852c2.256-.012,2.405-.012,2.355,2.193-.149,5.638-.414,11.263-.676,16.891q-.545,11.559-1.19,23.115c-.512,9.274-1.1,18.533-1.59,27.8-.351,6.453-.577,12.918-.916,19.37-.25,4.95-.289,4.95-5.3,4.925-1.881-.014-3.759-.127-5.628-.063-1.439.048-2-.478-2.179-1.931-.753-6.314-1.642-12.617-2.456-18.93-2.03-15.512-3.733-31.063-7.28-46.335a16.082,16.082,0,0,1-.026-7.443c.49-2.018.954-4.058,1.417-6.088a3.315,3.315,0,0,0,.264-1.217c-.089-.626.065-1.685-.551-1.83-.553-.129-.979.753-1.166,1.241a18.944,18.944,0,0,0-.839,3.006c-1.027,4.687-1.991,9.387-3.045,14.06-4.611,20.347-9.849,40.52-16.426,60.318a9.584,9.584,0,0,0-.5,1.489c-.25,1.556-1.289,1.991-2.68,1.969-.214,0-.414.061-.628.061-6.152.115-6.152.115-6.152-6,.012-13.569,0-27.141,0-36.687-.3-13.408-.577-22.8-.726-32.189-.087-5.325,0-10.638.05-15.964.012-2.167.075-2.242,2.33-2.2,8.456.137,16.9.426,25.347.488C216.526,212.977,225.923,212.876,235.319,212.852Z" transform="translate(-119.04 -41.873)" fill="#a5a5a5"/>
      <path id="Path_9364" data-name="Path 9364" d="M260.882,199.434a323.975,323.975,0,0,0-25.335-24.606,2.985,2.985,0,0,0-.333-.234,2.753,2.753,0,0,0-.866-.541c-.028-.016-.065-.034-.093-.052l.006.02a3.758,3.758,0,0,0-2.474.026,17.351,17.351,0,0,0-4.235-6.925c-1.7-1.6-2.732-3.358-2.456-5.753.012-.123-.262-.286-.539-.549-6.277,1.34-12.73,2.355-19.058,4.623.387.726.628,1.19.89,1.628.577.979,1.515,1.9,1.679,2.956.238,1.5-1.58,1.705-2.431,2.506q-16.671,15.638-33.529,31.075c-1.729,1.578-2.193,2.958-1.429,5.1,2.833,7.958,5.563,15.948,8.345,23.92.539,1.54,1.164,3.043,1.9,4.962.789-1.067,1.39-1.753,1.842-2.532q7.948-13.665,15.861-27.352c.476-.8.89-1.653,1.441-2.405.163-.226.738-.262,1.077-.2.176.04.414.565.351.791a10.779,10.779,0,0,1-.8,2.018c-1.83,3.394-3.747,6.751-5.514,10.188a14.26,14.26,0,0,0-1.414,4.07c-.8,4.625-1.4,9.286-2.143,13.922-1.291,8.132-2.657,16.261-3.959,24.392-.377,2.268-.238,2.431,1.879,2.5,6.566.176,13.144.426,19.721.474,11.691.075,23.382.038,35.082.014,1.854-.014,3.723-.216,6-.351-.551-2.633-1.077-4.863-1.479-7.1-2.08-11.669-3.991-23.367-6.239-35a9.5,9.5,0,0,0,1.9-1.9l0,.022c1.1-1.015,2.032-1.8,2.9-2.655,4.5-4.485,9.033-8.947,13.444-13.519C262.536,201.24,262.411,201.1,260.882,199.434Z" transform="translate(-128.238 -94.601)" fill="#fe737a"/>
      <g id="Group_6003" data-name="Group 6003" transform="translate(0.806 11.782)" opacity="0.2">
        <path id="Path_9365" data-name="Path 9365" d="M221.129,197.177l-24.9,18.48-7.046-17.229,1.721,9.711a4.738,4.738,0,0,1-2.976.938c-1.566-.155-2.819-2.036-2.819-2.036s-24.433-31.323-25.686-32.106-3.759-.783-5.325-1.566-3.916-4.074-3.916-4.074l-.313,1.881,1.671,2.716,2.716,3.132h3.341l24.433,34.457,3.757,3.549h4.594l3.969-1.043,6.683,16.287,1.461-.418,10.859-16.915-5.64,41.975,1.759,3.577,53.268-.212c-.319,3.4-1.328,14.82-2.193,32.135-1.045,20.882-3.341,40.3-7.518,41.555s-6.893-4.175-6.893-4.175l3.551,22.97,6.475,1.461.208,16.081h1.461s-.418,5.638-1.253,6.265a3.049,3.049,0,0,1-1.669.625l-12.112.418-.21,1.881,17.542-.418.418-8.979-1.463-1.045.418-15.036,3.969-.21,1.253-23.386,3.487-70.165.48,0,.418-2.3-49.231-1.307Z" transform="translate(-149.866 -97.532)"/>
        <path id="Path_9366" data-name="Path 9366" d="M201.723,160.767l-7.637,6.832a2.315,2.315,0,0,0,0,2.716c1.043,1.253,11.695-1.463,11.695-1.463l-3.343-3.757-.418-4.6Z" transform="translate(-105.334 -106.762)"/>
        <path id="Path_9367" data-name="Path 9367" d="M228.23,197.146l-1.251-2.924-5.222,3.341-19.211-25.058,8.769,36.545,5.222-5.22,1.669,1.879,5.222-5.43s2.924,2.924,2.924,4.177-2.088,4.177-2.088,4.177l-10.65,15.036,1.461,6.055,16.079-24.015.21-3.132Z" transform="translate(-96.251 -94.491)"/>
        <path id="Path_9368" data-name="Path 9368" d="M188.067,291.367a12.409,12.409,0,0,1-4.385,1.671V299.1l3.967.833h2.088l-.835,18.8,1.253,3.341-14.409.835-.628,1.461,15.036,1.045h2.088l1.043-3.551v-2.922l-1.671-.835.835-17.962,1.879-.623,15.246-52.207,3.549-19.421,1.592-9.457-21.638,67.51S190.573,289.9,188.067,291.367Z" transform="translate(-124.165 -47.528)"/>
        <path id="Path_9369" data-name="Path 9369" d="M185.143,149.773l9.814,5.22,10.024,2.506,7.726.418,2.088,3.759,5.43-2.3,3.134,1.253,1.461,4.592-2.506,5.64-3.549,3.549,1.461,5.012,4.594-3.967L229,169.193l3.132-6.891-2.922-.21c-2.926-.418-3.969-2.506-6.265-4.8a11.538,11.538,0,0,0-4.594-2.924,108.675,108.675,0,0,1-20.884-4.177c-9.4-3.134-22.344-16.289-22.344-16.289l2.3,7.936Z" transform="translate(-124.165 -133.901)"/>
      </g>
      <g id="Group_6004" data-name="Group 6004" transform="translate(8.95 5.453)">
        <path id="Path_9370" data-name="Path 9370" d="M157.294,168.236a1.386,1.386,0,0,0-.952-.886,1.287,1.287,0,0,0-1.919.664c-.289.868-.837,1.893-.28,2.758a1.618,1.618,0,0,0,2.542.107A3.255,3.255,0,0,0,157.294,168.236Z" transform="translate(-153.902 -93.728)" fill="#f5f5f5"/>
        <path id="Path_9371" data-name="Path 9371" d="M167.126,181.189a16.938,16.938,0,0,0-3.688-3.015,1.11,1.11,0,0,0-1.5.25,1.343,1.343,0,0,0-.161,1.852q2.228,2.751,4.677,5.313a1.268,1.268,0,0,0,2.094-.553C169.124,183.558,168.071,182.226,167.126,181.189Z" transform="translate(-146.195 -82.705)" fill="#f5f5f5"/>
        <path id="Path_9372" data-name="Path 9372" d="M169.253,184.507a1.737,1.737,0,0,0-1.188-1.231l-.032-.008c-.026-.01-.052-.014-.081-.022a.942.942,0,0,0-.258-.03,1.231,1.231,0,0,0-.991,2.09c.151.141.3.28.456.42A1.263,1.263,0,0,0,169.253,184.507Z" transform="translate(-141.275 -77.383)" fill="#f5f5f5"/>
        <path id="Path_9373" data-name="Path 9373" d="M196.157,136.908a16.215,16.215,0,0,0-9.542-5.785c-.048-.014-.1-.028-.145-.04a6.283,6.283,0,0,0-3.031-.224,2.738,2.738,0,0,0-2.4,2.254c-.174,1.566,1.271,2.665,2.345,3.575,2.966,2.512,7.516,5.363,11.541,5.535C198.465,142.374,197.61,138.782,196.157,136.908Z" transform="translate(-126.301 -130.764)" fill="#f5f5f5"/>
        <path id="Path_9374" data-name="Path 9374" d="M194.478,138.649a1.956,1.956,0,0,0-2.379-1.489.968.968,0,0,0-.373.178,1.618,1.618,0,0,0-1.386,2.175,2.253,2.253,0,0,0,2.51,1.469A2.04,2.04,0,0,0,194.478,138.649Z" transform="translate(-116.902 -124.299)" fill="#f5f5f5"/>
        <path id="Path_9375" data-name="Path 9375" d="M187.757,173.7a1.756,1.756,0,0,0-.254-.127.993.993,0,0,0-1.094-.626,4.355,4.355,0,0,0-2.851,1.872,5.7,5.7,0,0,0-1.031,1.265,12.87,12.87,0,0,0-2.387,3.606,1.961,1.961,0,0,0,1.184,2.74c1.338.335,2.667-.92,3.575-1.737C186.153,179.563,190.051,175.287,187.757,173.7Z" transform="translate(-127.36 -87.843)" fill="#f5f5f5"/>
        <path id="Path_9376" data-name="Path 9376" d="M187.425,170.061a1.054,1.054,0,0,0-1.209.444l-.188.1a1.085,1.085,0,0,0-.545,1.368,1.251,1.251,0,0,0,2.074,1.19,3.767,3.767,0,0,0,.93-1.239A1.278,1.278,0,0,0,187.425,170.061Z" transform="translate(-121.827 -90.817)" fill="#f5f5f5"/>
        <path id="Path_9377" data-name="Path 9377" d="M208.928,173.687a2.741,2.741,0,0,0-1.435-1.749,1.114,1.114,0,0,0-1.007-.117,1.214,1.214,0,0,0-.575-.167,1.277,1.277,0,0,0-1.251,1.253c-.133,1.566,1.36,3.414,3.055,2.93A1.854,1.854,0,0,0,208.928,173.687Z" transform="translate(-102.252 -89.15)" fill="#f5f5f5"/>
      </g>
      <path id="Path_9378" data-name="Path 9378" d="M284.253,248.819a23.7,23.7,0,0,0-3.721-7.6c-2.217,2.17-4.261,4.252-6.378,6.234-1.63,1.543-2.23,1.743-.4,3.725,1.215,1.331,1.015,2.446.05,3.865-1.467,2.145-2.557,4.541-4.021,6.687-2.306,3.361-1.241,6.687.25,10.5.375-.59.726-1.216,1.14-1.782,2.431-3.386,4.962-6.7,7.292-10.147,1.792-2.658,3.42-5.47,4.974-8.291C283.964,251.066,284.529,249.722,284.253,248.819Zm-13.432,2.208c-4.988,3.424-4.988,3.424-3.8,9.058.065.3.19.576.488,1.467,1.493-2.473,2.72-4.493,3.949-6.511C272.725,252.971,272.725,252.971,270.821,251.027Zm-15.335-43.592c3.408,15.016,6.8,29.906,10.284,45.184,1.1-1.016,2.032-1.8,2.9-2.659,4.5-4.491,9.033-8.957,13.444-13.535,1.655-1.719,1.529-1.856,0-3.527a324.158,324.158,0,0,0-25.335-24.635A9.342,9.342,0,0,0,255.486,207.435Zm-.428,189.749c-.012,3.737.075,7.476.113,11.212,0,.8.214,1.584,1.09,1.584a3.9,3.9,0,0,0,2.218-.7c.365-.291.315-1.154.339-1.77.163-3.525.264-7.05.44-10.573.061-1.507-.815-1.721-1.893-1.644C255.209,395.176,255.058,395.238,255.058,397.184ZM246.15,416.2c-.789.588-1.816,1.04-1.967,2.507,5.012,0,9.8-.012,14.584,0,1.14.014,1.429-.628,1.429-1.592-.012-1.856-.012-3.713-.012-5.608-1.58.174-2.97.754-4,.364-2.593-.978-4.336.188-6.176,1.656C248.781,414.494,247.415,415.272,246.15,416.2Zm-20.2-248.908c-1.917.075-2.03.1-2.343,2.119a30.7,30.7,0,0,0-.363,4.666c-.077,5.131,2.33,8.755,6.891,10.965a35.672,35.672,0,0,0,3.759,1.479c.952.339,1.164.741.89,1.846a54.439,54.439,0,0,0-.8,6.258c2.9-.578,5.414-1.03,7.893-1.642.464-.115.928-.818,1.1-1.343,1.027-3.034,2.556-5.957,1.58-9.371a3.555,3.555,0,0,1,1.239-3.612,18.1,18.1,0,0,0,3.333-4.479,8.343,8.343,0,0,0,.739-4.214c-.2-2.673-1.953-3.864-4.56-3.226a9.072,9.072,0,0,0-2.956,1.558c-1.517,1.079-1.994,1.014-2.72-.677a6.931,6.931,0,0,1-.327-1.206c-.224-1.153-.964-1.454-2.042-1.416a33.847,33.847,0,0,1-10.212-1.168c-.287-.087-.714-.238-.9-.1a5.655,5.655,0,0,0-.952,1.055c.3.2.589.527.9.566.825.1,1.691-.051,2.492.111.49.113,1.352.42,1.33.966-.026.574-.954.78-1.479.867A18.674,18.674,0,0,1,225.952,167.293Zm-7.33,1.63c-.048,2.032.214,3.864,2.419,5.42.262-2.109.438-3.826.7-5.545.163-1.129-.337-1.442-1.364-1.442C219.286,167.356,218.66,167.669,218.622,168.923Zm1.979,8.895c.05.038.264-.149.5-.3a4.3,4.3,0,0,0-.615-.489c-.075-.036-.25.176-.387.277A3.37,3.37,0,0,0,220.6,177.818ZM210.553,385.6c0,6.123,0,6.123,6.152,6.008.214,0,.414-.061.628-.061,1.39.022,2.429-.414,2.68-1.972a9.6,9.6,0,0,1,.5-1.491c6.578-19.821,11.816-40.019,16.426-60.39,1.053-4.679,2.018-9.384,3.045-14.076a18.988,18.988,0,0,1,.839-3.01c.188-.489.613-1.372,1.166-1.242.615.145.462,1.206.551,1.832a3.323,3.323,0,0,1-.264,1.218c-.462,2.032-.926,4.075-1.417,6.095a16.119,16.119,0,0,0,.026,7.452c3.547,15.29,5.25,30.859,7.28,46.39.813,6.321,1.7,12.632,2.456,18.953.176,1.454.74,1.982,2.179,1.933,1.868-.065,3.747.048,5.628.063,5.01.024,5.048.024,5.3-4.931.339-6.46.565-12.933.916-19.393.488-9.282,1.077-18.553,1.59-27.837q.639-11.572,1.19-23.143c.262-5.634.527-11.266.676-16.91.05-2.208-.1-2.208-2.355-2.2-9.4.024-18.793.125-28.192.05-8.444-.063-16.891-.352-25.347-.489-2.256-.038-2.318.036-2.33,2.206-.05,5.333-.137,10.652-.05,15.983.149,9.4.426,18.8.726,32.227C210.553,358.432,210.565,372.019,210.553,385.6Zm2.932,9.685c-.226,4.064-.3,8.129-.476,12.191-.05,1.218.226,2.032,1.628,2.1,1.544.075,2.068-.25,2.157-1.895.1-2.182.024-4.378.024-6.574h.212c.115-2.083.276-4.164.339-6.248a1.708,1.708,0,0,0-.563-1.279A2.134,2.134,0,0,0,213.485,395.289Zm-11.013,20.85c5.274.4,9.861.951,14.51.739a1.536,1.536,0,0,0,1.065-.465c.964-1.481.161-3.036-.089-4.515-.048-.253-1.39-.313-2.143-.4a12.591,12.591,0,0,1-2.768-.263,3.749,3.749,0,0,0-3.5.588c-1.691.992-3.471,1.871-5.186,2.834A20.753,20.753,0,0,0,202.472,416.139Zm7.367-285.826c-5.664.966-8.257,4.479-7.542,10.186a17.7,17.7,0,0,0,6.4,11.478c8.283,7.036,17.7,11.315,28.793,11.076,1.768-.038,3.083.251,3.6,2.158.065.277.339.489.527.739a22.99,22.99,0,0,1,2.643-1.028c5.438-1.38,7.581,1.957,7.593,5.909a9.7,9.7,0,0,1-.977,4.19,15.8,15.8,0,0,1-3.021,4.329c-1.489,1.453-1.515,2.9-.914,4.967A34.877,34.877,0,0,0,256.15,170.4a18.8,18.8,0,0,0,.864-9.846c-1.077-6.048-4.586-9.624-10.7-9.86-2.583-.1-3.834-1.194-5.2-3.1A46.023,46.023,0,0,0,223.8,132.581,22.646,22.646,0,0,0,209.838,130.313Zm-9.584,135.819c.539,1.541,1.164,3.046,1.9,4.968.789-1.069,1.39-1.756,1.842-2.535q7.948-13.681,15.861-27.385c.476-.8.89-1.654,1.441-2.408.163-.226.738-.263,1.077-.2.176.04.414.566.351.792a10.8,10.8,0,0,1-.8,2.02c-1.83,3.4-3.747,6.759-5.514,10.2A14.288,14.288,0,0,0,215,255.656c-.8,4.63-1.4,9.3-2.143,13.939-1.291,8.141-2.657,16.28-3.959,24.421-.377,2.271-.238,2.434,1.879,2.5,6.566.176,13.144.426,19.721.475,11.691.075,23.382.038,35.082.014,1.854-.014,3.723-.216,6-.352-.551-2.636-1.077-4.868-1.479-7.113-2.1-11.818-4.033-23.672-6.315-35.451-2.906-14.965-5.938-29.906-10.123-44.584a19.184,19.184,0,0,0-4.887-8.955c-1.7-1.606-2.732-3.361-2.456-5.759.012-.123-.262-.287-.539-.549-6.277,1.341-12.73,2.357-19.058,4.628.387.727.628,1.192.89,1.63.577.98,1.515,1.907,1.679,2.959.238,1.5-1.58,1.707-2.431,2.509q-16.671,15.657-33.529,31.112c-1.729,1.58-2.193,2.962-1.429,5.1C194.742,250.151,197.472,258.15,200.254,266.132Zm-44.643-46.178c-1.8.075-2.9-1.467-3.91-2.834-3.17-4.277-3.069-5.408.952-8.806a40.367,40.367,0,0,1,3.533-2.572c.952-.64,1.217-1.269.577-2.321a30.064,30.064,0,0,1-1.8-3.65,5.166,5.166,0,0,1-.414-2.121,1.318,1.318,0,0,1,1.705-1.329,2.267,2.267,0,0,1,1.138.477c2.619,2.384,5.3,4.717,7.744,7.264a4.267,4.267,0,0,1,.866,3.2c-.714,5.006,1.691,8.543,4.9,11.943,4.221,4.479,8.23,9.157,12.391,13.711,1.755,1.907,3.658,3.689,5.625,5.67,2.595-2.434,5.012-4.717,7.456-6.975q11.595-10.763,23.218-21.514c1.6-1.479,3.269-2.909,4.873-4.414,2.456-2.285,2.443-2.309.8-5.268-1.255-2.259-1.079-2.786,1.328-3.638.5-.176,1-.315,1.491-.491,1.253-.451,3.232-.6,3.584-1.43.738-1.755.676-3.862.777-5.832.024-.4-.652-1.055-1.14-1.24a17.542,17.542,0,0,1-8.634-6.963,3.306,3.306,0,0,0-1.792-.915c-.789-.238-1.64-.277-2.456-.453-1.09-.226-1.429-1.093-.9-1.869,1.1-1.669.45-2.986-.151-4.606a14.18,14.18,0,0,1-.613-5.2c.038-1.958.726-2.535,2.682-2.772a22.693,22.693,0,0,0,2.795-.19,2.068,2.068,0,0,0,1.09-1.291c.075-.238-.464-.84-.851-1.042-3.408-1.806-6.943-3.386-10.236-5.355a26.565,26.565,0,0,1-9.512-9.357,16.688,16.688,0,0,1-2.28-10.84,8.884,8.884,0,0,1,6.59-7.915c6.128-1.844,12-.865,17.629,1.844A47.517,47.517,0,0,1,242.5,146.243a5.231,5.231,0,0,0,4.235,2.533c7.193.616,11.126,4.794,12.254,11.994.839,5.355-.6,10.135-2.956,14.777a37.413,37.413,0,0,1-7.72,10.2,9.986,9.986,0,0,0-3.194,6.485c.676-.075,1.152-.125,1.628-.188,1.09-.127,1.691.475,1.566,1.442-.613,4.616,2.821,6.961,5.5,9.533,5.878,5.644,12.066,10.963,17.968,16.573,4.223,4.038,8.232,8.3,12.292,12.519,2.08,2.17,2.056,2.408.25,4.717a13.245,13.245,0,0,1-.989,1.214,2.336,2.336,0,0,0-.389,3.1c.952,1.743,1.7,3.588,2.607,5.355a5.922,5.922,0,0,1-.276,6.248c-2.429,3.887-4.748,7.864-7.33,11.652-2.167,3.2-4.572,6.234-6.979,9.258a3.787,3.787,0,0,0-.977,3.388c1.092,5.644,2.068,11.29,3.107,16.935.1.626.289,1.228.414,1.83.414,1.919.327,2.321-1.542,2.648-1.616.275-1.9.929-1.953,2.458-.214,6.473-.6,12.933-.916,19.393-.289,5.945-.563,11.907-.864,17.852q-.9,17.366-1.854,34.734-.545,10.012-1.19,20.009c-.151,2.206-.226,2.295-2.53,2.384-1.128.051-1.479.588-1.517,1.529q-.245,5.627-.438,11.264a2.282,2.282,0,0,0,.274,1.194c1.767,2.784,1.152,5.858,1.053,8.83-.063,2.071-.6,2.521-2.72,2.634-2.278.125-4.584,0-6.878.014-2.405.012-4.8.111-7.2.087-1.241-.012-2.645,0-3.2-1.43-.589-1.529.339-2.683,1.429-3.513a88.585,88.585,0,0,1,7.393-5.268,4.38,4.38,0,0,0,2.417-4.541c-.2-2.911-.111-5.846-.125-8.767,0-1.254-.149-2.184-1.78-2.321s-2.379-1.141-2.6-2.911c-1.816-14.5-3.67-29-5.688-43.477-.878-6.3-2.155-12.545-3.283-18.82a18.092,18.092,0,0,0-.815-2.257c-1.64,6.887-3.069,13.185-4.637,19.456-3.7,14.8-7.906,29.441-12.73,43.906-.137.4-.176.917-.45,1.168-2.694,2.408-1.9,5.695-2.193,8.693-.163,1.768-.1,3.549-.188,5.331a11.434,11.434,0,0,0,.777,4.481c.7,1.968.527,4.289.5,6.458-.012,1.281-1.215,1.644-2.268,1.719a41.483,41.483,0,0,1-5.012.036c-3.331-.176-6.665-.388-9.986-.7-.977-.1-2.141-.273-2.343-1.654a2.4,2.4,0,0,1,1.443-2.533c.714-.428,1.427-.854,2.167-1.269,1.554-.852,3.069-1.78,4.685-2.521a3.7,3.7,0,0,0,2.419-3.85c-.014-3.65.274-7.3.462-10.951.077-1.267,0-2.359-1.715-2.232-.94.063-1.291-.491-1.33-1.329-.036-.741-.087-1.469-.087-2.2.012-15.151.1-30.306.012-45.449-.075-13.8-.339-27.585-.539-41.382-.038-1.717.264-3.424-1.015-5.056-.551-.689-.2-2.218-.024-3.335.825-5.569,1.729-11.141,2.617-16.711.9-5.668,1.842-11.327,2.744-17a13.587,13.587,0,0,0,.014-1.755c-.815,1.178-1.3,1.818-1.717,2.495-1.893,3.123-3.759,6.273-5.652,9.4a21.647,21.647,0,0,1-1.39,2.095c-1.128,1.428-1.992,1.39-2.807-.164a26.385,26.385,0,0,1-1.239-2.873c-1.342-3.513-2.708-7.014-3.937-10.551-.438-1.279-.914-1.616-2.254-1.216-2.908.855-5.876.79-8.4-1.055a19.339,19.339,0,0,1-4.134-4.2c-7.23-10.111-14.36-20.284-21.513-30.445C158.354,221.045,157.579,219.867,155.612,219.954Zm2.468-13.183c-1.842,1.356-3.721,2.671-5.462,4.153a2.756,2.756,0,0,0-.94,2.081c.276,2.408,3.119,5.056,5.474,5.083a2.942,2.942,0,0,1,2.7,1.654c2.28,3.374,4.673,6.674,7.028,9.986,2.306,3.236,4.6,6.472,6.9,9.7,3.345,4.667,6.578,9.42,10.073,13.975,2.645,3.436,5.89,4,10.387,2.056-.676-2.008-1.316-3.875-1.929-5.745-.815-2.485-1.178-5.232-2.518-7.363-1.4-2.232-3.822-3.8-5.652-5.784-5.161-5.606-10.149-11.365-15.4-16.884-3.206-3.374-5.173-7-4.635-11.767a4.058,4.058,0,0,0-.551-2.673,21.694,21.694,0,0,0-6.354-5.719,25.407,25.407,0,0,0,1.729,3.937C159.871,205.366,159.821,205.5,158.079,206.77Z" transform="translate(-149.466 -128.062)" fill="#3c3372"/>
    </g>
  </g>
</svg>
