<svg xmlns="http://www.w3.org/2000/svg" xmlns:xlink="http://www.w3.org/1999/xlink" width="276.977" height="345.001" viewBox="0 0 276.977 345.001">
  <defs>
    <linearGradient id="linear-gradient" x1="1" y1="1" x2="0" gradientUnits="objectBoundingBox">
      <stop offset="0" stop-color="#ff7479"/>
      <stop offset="1" stop-color="#f566a2"/>
    </linearGradient>
    <clipPath id="clip-path">
      <path id="Path_9395" data-name="Path 9395" d="M393.982,264.442c2.26-6.612,9.961-2.652,14.4-.509-.285-2.455-.555-4.917-.839-7.372-.255-2.217-.764-4.672-.195-6.874.678-2.576,3.447-4.845,6.053-3.24,1.252.768,1.919,2.269,2.614,3.5a85.33,85.33,0,0,0,4.475,7.771c1.183,1.647,1.032,1.507,3.163,1.381,2.089-.121,2.007.071,2.757-1.723a21.964,21.964,0,0,0,1.063-4.473,10.987,10.987,0,0,1,2.139-5.308c1.693-1.959,4.72-3.15,6.846-1.141,2.587,2.426,2.765,7.2,2.581,10.463-.14,2.353-1.03,4.693-1.114,7-.059,1.551,1.459,3.416,3.154,2.874a10.4,10.4,0,0,0,3.223-2.137c2.357-1.867,5.465-2.734,7.355.272,2.3,3.652-.481,7.464-2.807,10.245-3.964,4.716-7.974,9.383-11.96,14.076,0,.021.006.033,0,.052-.354,2.256-2.679,2.539-4.623,2.478a70.682,70.682,0,0,1-12.6-1.75c-7.2-1.58-14.224-4.563-19.482-9.86C396.485,276.442,392.077,270.01,393.982,264.442Z" transform="translate(-393.523 -245.413)" fill="none"/>
    </clipPath>
    <clipPath id="clip-path-2">
      <path id="Path_9399" data-name="Path 9399" d="M414.446,263.812c.735.768,1.354,1.649,2.106,2.409,1.356,1.39,2.378,2.33,2.989.006.789-2.968-.14-6.164-.435-9.134-.3-3,.059-9.544,4.873-7.606,4.506,1.8,3.761,9.431,3.964,13.2a22.381,22.381,0,0,0,.722,5.3c1.153,3.657,4.7,1,6.378-.5s3.466-3.154,5.831-3.363c4.944-.429,5.89,5.588,3.621,8.86-1.626,2.348-4.264,3.793-6.633,5.262-3,1.88-6.007,3.746-9,5.613-2.857,3.3-6.344,6.191-10.957,5.927-4.753-.278-7.12-4.333-8.569-8.374-1.088-3.006-2.091-6.078-3.014-9.14-.672-2.267-1.206-4.78-.255-7.049C407.688,261.325,411.692,260.976,414.446,263.812Z" transform="translate(-405.549 -249.134)" fill="none"/>
    </clipPath>
    <clipPath id="clip-path-3">
      <path id="Path_9403" data-name="Path 9403" d="M406.294,255.831a23.669,23.669,0,0,1,3.071,4.956q2.1,3.774,4.188,7.524c.906,1.633,1.886,4.636,4.421,4.1,1.2-.251,2.694-1.741,3.642-2.52,1.8-1.513,3.156-3.416,4.893-4.983,1.98-1.787,5.413-2.972,7.317-.385,2.206,2.987.207,7.367-1.815,9.839-2.936,3.585-7.19,5.578-11,8.083a.458.458,0,0,1-.05.262c-1.3,2.489-4.113,3.194-6.742,2.6-3.566-.806-6.3-3.684-8.223-6.629a77.858,77.858,0,0,1-5.982-11.966c-1.411-3.282-2.765-7.734-.249-10.865C401.589,253.586,404.377,253.824,406.294,255.831Z" transform="translate(-398.36 -254.238)" fill="none"/>
    </clipPath>
    <clipPath id="clip-path-4">
      <path id="Path_9406" data-name="Path 9406" d="M403.478,277.57A14.456,14.456,0,0,1,417.872,267.4c6.292.111,14.517,3.32,16.164,10.015.077,0,.165.006.241,0a.423.423,0,0,1,.023.846q-15.2-.085-30.4-.172A.424.424,0,0,1,403.478,277.57Z" transform="translate(-403.461 -267.396)" fill="none"/>
    </clipPath>
    <clipPath id="clip-path-5">
      <path id="Path_9418" data-name="Path 9418" d="M575.877,270.8s-4.78,10.658-32.442,10.658-30.248,12.123-47.79,12.123-27.113-5.239-52.075-5.239-31.111,9.99-48.653,8.64-14.4-7.545-45.435-8.9S307.622,270.8,307.622,270.8Z" transform="translate(-307.622 -270.796)" fill="none"/>
    </clipPath>
  </defs>
  <g id="intro-2" transform="translate(-307.622 -118.532)">
    <g id="Group_6035" data-name="Group 6035" transform="translate(307.622 118.532)">
      <g id="Group_6034" data-name="Group 6034">
        <g id="Group_6009" data-name="Group 6009" transform="translate(208.572)">
          <rect id="Rectangle_2916" data-name="Rectangle 2916" width="55.815" height="55.814" rx="6.667" fill="#f9d0d0"/>
          <path id="Path_9379" data-name="Path 9379" d="M424.265,138.948l-6.134-7.37-4.184,3.483,6.134,7.37,3.483,4.184,4.184-3.483,14.073-11.712-3.483-4.185Z" transform="translate(-399.977 -109.019)" fill="#f5f5f5"/>
        </g>
        <g id="Group_6010" data-name="Group 6010" transform="translate(208.572 62.791)">
          <rect id="Rectangle_2917" data-name="Rectangle 2917" width="55.815" height="55.815" rx="6.667" fill="#f9d0d0"/>
          <path id="Path_9380" data-name="Path 9380" d="M424.265,168.948l-6.134-7.369-4.184,3.481,6.134,7.371,3.483,4.184,4.184-3.483,14.073-11.712-3.483-4.184Z" transform="translate(-399.977 -139.018)" fill="#f5f5f5"/>
        </g>
        <g id="Group_6011" data-name="Group 6011" transform="translate(208.572 125.582)">
          <rect id="Rectangle_2918" data-name="Rectangle 2918" width="55.815" height="55.815" rx="6.667" fill="url(#linear-gradient)"/>
          <path id="Path_9381" data-name="Path 9381" d="M424.265,198.948l-6.134-7.369-4.184,3.481,6.134,7.371,3.483,4.184,4.184-3.483,14.073-11.712-3.483-4.184Z" transform="translate(-399.977 -169.018)" fill="#f5f5f5"/>
        </g>
        <path id="Path_9382" data-name="Path 9382" d="M516.442,216.644h-146.2a3.139,3.139,0,0,1-3.14-3.14h0a3.141,3.141,0,0,1,3.14-3.14h146.2a3.141,3.141,0,0,1,3.139,3.14h0A3.139,3.139,0,0,1,516.442,216.644Z" transform="translate(-242.604 -18.155)" fill="#f9d0d0"/>
        <g id="Group_6012" data-name="Group 6012" transform="translate(142.326 14.003)">
          <path id="Path_9383" data-name="Path 9383" d="M428.994,131.5H378.762a3.141,3.141,0,0,1-3.14-3.14h0a3.141,3.141,0,0,1,3.14-3.14h50.233a3.141,3.141,0,0,1,3.14,3.14h0A3.141,3.141,0,0,1,428.994,131.5Z" transform="translate(-375.622 -125.222)" fill="#f9d0d0"/>
          <path id="Path_9384" data-name="Path 9384" d="M428.994,137.834H378.762a3.139,3.139,0,0,1-3.14-3.14h0a3.141,3.141,0,0,1,3.14-3.14h50.233a3.141,3.141,0,0,1,3.14,3.14h0A3.139,3.139,0,0,1,428.994,137.834Z" transform="translate(-375.622 -118.3)" fill="#f9d0d0"/>
          <path id="Path_9385" data-name="Path 9385" d="M428.994,144.168H378.762a3.141,3.141,0,0,1-3.14-3.14h0a3.139,3.139,0,0,1,3.14-3.14h50.233a3.139,3.139,0,0,1,3.14,3.14h0A3.141,3.141,0,0,1,428.994,144.168Z" transform="translate(-375.622 -111.377)" fill="#f9d0d0"/>
        </g>
        <g id="Group_6013" data-name="Group 6013" transform="translate(142.326 76.794)">
          <path id="Path_9386" data-name="Path 9386" d="M428.994,161.5H378.762a3.141,3.141,0,0,1-3.14-3.14h0a3.139,3.139,0,0,1,3.14-3.14h50.233a3.139,3.139,0,0,1,3.14,3.14h0A3.141,3.141,0,0,1,428.994,161.5Z" transform="translate(-375.622 -155.222)" fill="#f9d0d0"/>
          <path id="Path_9387" data-name="Path 9387" d="M428.994,167.834H378.762a3.141,3.141,0,0,1-3.14-3.14h0a3.141,3.141,0,0,1,3.14-3.14h50.233a3.141,3.141,0,0,1,3.14,3.14h0A3.141,3.141,0,0,1,428.994,167.834Z" transform="translate(-375.622 -148.3)" fill="#f9d0d0"/>
          <path id="Path_9388" data-name="Path 9388" d="M428.994,174.167H378.762a3.139,3.139,0,0,1-3.14-3.14h0a3.141,3.141,0,0,1,3.14-3.14h50.233a3.141,3.141,0,0,1,3.14,3.14h0A3.139,3.139,0,0,1,428.994,174.167Z" transform="translate(-375.622 -141.378)" fill="#f9d0d0"/>
        </g>
        <g id="Group_6014" data-name="Group 6014" transform="translate(142.326 139.585)">
          <path id="Path_9389" data-name="Path 9389" d="M428.994,191.5H378.762a3.141,3.141,0,0,1-3.14-3.14h0a3.139,3.139,0,0,1,3.14-3.14h50.233a3.139,3.139,0,0,1,3.14,3.14h0A3.141,3.141,0,0,1,428.994,191.5Z" transform="translate(-375.622 -185.222)" stroke="rgba(0,0,0,0)" stroke-width="1" fill="url(#linear-gradient)"/>
          <path id="Path_9390" data-name="Path 9390" d="M428.994,197.834H378.762a3.141,3.141,0,0,1-3.14-3.14h0a3.141,3.141,0,0,1,3.14-3.14h50.233a3.141,3.141,0,0,1,3.14,3.14h0A3.141,3.141,0,0,1,428.994,197.834Z" transform="translate(-375.622 -178.3)" stroke="rgba(0,0,0,0)" stroke-width="1" fill="url(#linear-gradient)"/>
          <path id="Path_9391" data-name="Path 9391" d="M428.994,204.167H378.762a3.139,3.139,0,0,1-3.14-3.14h0a3.141,3.141,0,0,1,3.14-3.14h50.233a3.141,3.141,0,0,1,3.14,3.14h0A3.139,3.139,0,0,1,428.994,204.167Z" transform="translate(-375.622 -171.378)" stroke="rgba(0,0,0,0)" stroke-width="1" fill="url(#linear-gradient)"/>
        </g>
        <g id="Group_6015" data-name="Group 6015" transform="translate(177.858 200.886)">
          <text id="_" data-name="$" transform="translate(0 30)" fill="#fe737a" font-size="32" font-family="Agan65, Aganè"><tspan x="0" y="0">$</tspan></text>
          <text id="_2" data-name="$" transform="translate(20.93 30)" fill="#f9d0d0" font-size="32" font-family="Agan65, Aganè"><tspan x="0" y="0">$</tspan></text>
          <text id="_3" data-name="$" transform="translate(41.861 30)" fill="#f9d0d0" font-size="32" font-family="Agan65, Aganè"><tspan x="0" y="0">$</tspan></text>
          <text id="_4" data-name="$" transform="translate(62.791 30)" fill="#f9d0d0" font-size="32" font-family="Agan65, Aganè"><tspan x="0" y="0">$</tspan></text>
        </g>
        <g id="Group_6024" data-name="Group 6024" transform="translate(179.793 265.567)">
          <g id="Group_6017" data-name="Group 6017">
            <g id="Group_6016" data-name="Group 6016" clip-path="url(#clip-path)">
              <path id="Path_9392" data-name="Path 9392" d="M393.982,264.442c2.26-6.612,9.961-2.652,14.4-.509-.285-2.455-.555-4.917-.839-7.372-.255-2.217-.764-4.672-.195-6.874.678-2.576,3.447-4.845,6.053-3.24,1.252.768,1.919,2.269,2.614,3.5a85.33,85.33,0,0,0,4.475,7.771c1.183,1.647,1.032,1.507,3.163,1.381,2.089-.121,2.007.071,2.757-1.723a21.964,21.964,0,0,0,1.063-4.473,10.987,10.987,0,0,1,2.139-5.308c1.693-1.959,4.72-3.15,6.846-1.141,2.587,2.426,2.765,7.2,2.581,10.463-.14,2.353-1.03,4.693-1.114,7-.059,1.551,1.459,3.416,3.154,2.874a10.4,10.4,0,0,0,3.223-2.137c2.357-1.867,5.465-2.734,7.355.272,2.3,3.652-.481,7.464-2.807,10.245-3.964,4.716-7.974,9.383-11.96,14.076,0,.021.006.033,0,.052-.354,2.256-2.679,2.539-4.623,2.478a70.682,70.682,0,0,1-12.6-1.75c-7.2-1.58-14.224-4.563-19.482-9.86C396.485,276.442,392.077,270.01,393.982,264.442Z" transform="translate(-393.523 -245.413)" fill="#5db3c1"/>
              <path id="Path_9393" data-name="Path 9393" d="M398.74,262.5a167.549,167.549,0,0,0,30.632,25.012l0-.017a101.678,101.678,0,0,1-10.124-15.288,147.491,147.491,0,0,1-8.772-20.5c-.222-.645.76-1.049.984-.4a148.655,148.655,0,0,0,8.324,19.635,81.363,81.363,0,0,0,5.477,9.586c1.314,1.879,2.759,3.682,4.211,5.473-.128-1.758-.123-3.541-.18-5.254-.115-3.493-.151-6.987-.149-10.482,0-6.488-.358-13.2.776-19.612.119-.672,1.172-.525,1.053.149-1.118,6.319-.774,12.939-.777,19.329,0,2.97.027,5.94.1,8.91.046,1.815,0,3.757.092,5.674a91.213,91.213,0,0,1,4.649-9.923c1.947-3.627,3.791-7.715,6.616-10.752.46-.5,1.3.157.831.659-2.964,3.19-4.923,7.575-6.945,11.4a82.925,82.925,0,0,0-4.933,11.085c.013.092.031.18.046.272q.377.468.749.934a.446.446,0,0,1,.3.211c.136.218.274.433.408.651.247.155.488.316.737.469.578.358-.084,1.191-.661.833-.4-.249-.789-.509-1.185-.758-.2.373-.8.494-.936-.008-.063-.224-.1-.454-.153-.685a169.9,169.9,0,0,1-32.027-25.972C397.419,262.648,398.271,262.014,398.74,262.5Z" transform="translate(-388.9 -240.157)" fill="#cbecf4"/>
              <path id="Path_9394" data-name="Path 9394" d="M450.187,260.7a19.447,19.447,0,0,1-19.543,9.161c-13.477-1.915-36.724-10.585-36.724-10.585l23.013,22.584,29.382-.99Z" transform="translate(-393.089 -230.263)" opacity="0.2"/>
            </g>
          </g>
          <g id="Group_6019" data-name="Group 6019" transform="translate(25.172 7.788)">
            <g id="Group_6018" data-name="Group 6018" clip-path="url(#clip-path-2)">
              <path id="Path_9396" data-name="Path 9396" d="M414.446,263.812c.735.768,1.354,1.649,2.106,2.409,1.356,1.39,2.378,2.33,2.989.006.789-2.968-.14-6.164-.435-9.134-.3-3,.059-9.544,4.873-7.606,4.506,1.8,3.761,9.431,3.964,13.2a22.381,22.381,0,0,0,.722,5.3c1.153,3.657,4.7,1,6.378-.5s3.466-3.154,5.831-3.363c4.944-.429,5.89,5.588,3.621,8.86-1.626,2.348-4.264,3.793-6.633,5.262-3,1.88-6.007,3.746-9,5.613-2.857,3.3-6.344,6.191-10.957,5.927-4.753-.278-7.12-4.333-8.569-8.374-1.088-3.006-2.091-6.078-3.014-9.14-.672-2.267-1.206-4.78-.255-7.049C407.688,261.325,411.692,260.976,414.446,263.812Z" transform="translate(-405.549 -249.134)" fill="#417f7e"/>
              <path id="Path_9397" data-name="Path 9397" d="M409.42,264.495a67.447,67.447,0,0,1,5.377,11.3,60.024,60.024,0,0,1,3.288,9.986q.584-1.064,1.2-2.11c1.268-9.994,2.419-19.875.873-29.972-.1-.668.921-.967,1.023-.293,1.451,9.492.584,18.762-.567,28.124a60.874,60.874,0,0,1,5.58-7.437,38.772,38.772,0,0,1,11.252-8.525c.6-.322,1.147.588.542.915a38.078,38.078,0,0,0-11.039,8.355,60.039,60.039,0,0,0-6.645,9.191c-.165,1.3-.333,2.6-.494,3.908a.524.524,0,0,1,.021.479l-.163.368c-.264.6-1.042.142-.977-.391l.245-1.961c-.046.088-.1.172-.146.26a.464.464,0,0,1-.513.257c.048.36.1.72.128,1.08.056.684-1.007.7-1.059.021-.335-4.13-2.1-8.123-3.569-11.96a66.177,66.177,0,0,0-5.268-11.049A.531.531,0,0,1,409.42,264.495Z" transform="translate(-402.405 -244.886)" fill="#5aa8a4"/>
              <path id="Path_9398" data-name="Path 9398" d="M439.682,268.165s-9.584,4-14.6,2.727-14.41-2.468-20.288-12.355l2.675,22.877,28.465,5.53Z" transform="translate(-406.378 -238.857)" opacity="0.2"/>
            </g>
          </g>
          <g id="Group_6021" data-name="Group 6021" transform="translate(10.125 18.469)">
            <g id="Group_6020" data-name="Group 6020" clip-path="url(#clip-path-3)">
              <path id="Path_9400" data-name="Path 9400" d="M406.294,255.831a23.669,23.669,0,0,1,3.071,4.956q2.1,3.774,4.188,7.524c.906,1.633,1.886,4.636,4.421,4.1,1.2-.251,2.694-1.741,3.642-2.52,1.8-1.513,3.156-3.416,4.893-4.983,1.98-1.787,5.413-2.972,7.317-.385,2.206,2.987.207,7.367-1.815,9.839-2.936,3.585-7.19,5.578-11,8.083a.458.458,0,0,1-.05.262c-1.3,2.489-4.113,3.194-6.742,2.6-3.566-.806-6.3-3.684-8.223-6.629a77.858,77.858,0,0,1-5.982-11.966c-1.411-3.282-2.765-7.734-.249-10.865C401.589,253.586,404.377,253.824,406.294,255.831Z" transform="translate(-398.36 -254.238)" fill="#b3d3dd"/>
              <path id="Path_9401" data-name="Path 9401" d="M402.6,258.141q1.262,2.38,2.484,4.776c.069-.36.119-.73.193-1.051.142-.622.283-1.245.423-1.867.153-.661,1.206-.519,1.053.151q-.3,1.322-.6,2.643a6.948,6.948,0,0,1-.35,1.54c.8,1.58,1.57,3.175,2.348,4.766a24.5,24.5,0,0,1,.888-2.606.531.531,0,0,1,.973.423,23.556,23.556,0,0,0-1.122,3.458.713.713,0,0,1-.052.115c1.476,3.045,2.924,6.105,4.32,9.193a11.005,11.005,0,0,1,3.181-7.391,23.021,23.021,0,0,1,3.106-2.52.514.514,0,0,1-.023-.14q.053-1.554.1-3.106c.023-.682,1.076-.529,1.051.149q-.041,1.18-.078,2.365c1.141-.783,2.281-1.555,3.328-2.432a.511.511,0,0,1-.077-.287c.031-1.2.044-2.407.031-3.61-.006-.678,1.049-.818,1.055-.136.008,1.051-.008,2.1-.029,3.152a11.59,11.59,0,0,0,2.181-2.882c.316-.6,1.293-.184.973.423a12.569,12.569,0,0,1-2.093,2.872c1.032-.132,2.06-.287,3.081-.484.674-.132.806.923.136,1.053-1.5.291-3,.511-4.521.657a38.344,38.344,0,0,1-3.171,2.361c.059.013.126.029.178.036q1.56.22,3.114.442a.531.531,0,0,1-.151,1.051c-.747-.1-1.5-.214-2.248-.32-.345-.046-.691-.1-1.036-.144-.1-.015-.676-.142-.9-.2l-.006,0-.042.029a.6.6,0,0,1-.341.094,17.022,17.022,0,0,0-3.97,3.541c-1.7,2.265-1.886,4.86-1.861,7.577.1.222.2.437.3.659.276.626-.708,1.028-.984.4l0-.006a.416.416,0,0,1-.364-.435c0-.123,0-.241,0-.364-1.725-3.87-3.537-7.7-5.388-11.51q-1.636-.728-3.269-1.459c-.442-.2-.408-1.011.142-1.015h.243a.547.547,0,0,1,.444.222l1.708.762c-.716-1.459-1.415-2.924-2.147-4.374-.285-.094-.567-.264-.8-.36q-1.322-.553-2.642-1.111a.53.53,0,0,1,.423-.971c.586.245,1.176.492,1.762.739l.477.2c-.8-1.563-1.6-3.125-2.426-4.676C401.293,257.938,402.281,257.542,402.6,258.141Z" transform="translate(-395.404 -250.295)" fill="#cbecf4"/>
              <path id="Path_9402" data-name="Path 9402" d="M427.628,268s-5.706,3.816-11.69,2.966S400,262.8,400,262.8l7.412,17.217,17.824.117Z" transform="translate(-396.57 -244.884)" opacity="0.2"/>
            </g>
          </g>
          <g id="Group_6023" data-name="Group 6023" transform="translate(20.8 46.01)">
            <g id="Group_6022" data-name="Group 6022" clip-path="url(#clip-path-4)">
              <path id="Path_9404" data-name="Path 9404" d="M403.478,277.57A14.456,14.456,0,0,1,417.872,267.4c6.292.111,14.517,3.32,16.164,10.015.077,0,.165.006.241,0a.423.423,0,0,1,.023.846q-15.2-.085-30.4-.172A.424.424,0,0,1,403.478,277.57Z" transform="translate(-403.461 -267.396)" fill="#d1a76b"/>
              <path id="Path_9405" data-name="Path 9405" d="M429.713,266.846s-1.239,5.932-11.863,5.932-13.28-5.31-13.28-5.31Z" transform="translate(-402.249 -267.997)" opacity="0.2"/>
            </g>
          </g>
        </g>
        <g id="Group_6028" data-name="Group 6028" transform="translate(0 318.694)">
          <g id="Group_6027" data-name="Group 6027" clip-path="url(#clip-path-5)">
            <g id="Group_6026" data-name="Group 6026" transform="translate(-27.891 0.002)">
              <path id="Path_9407" data-name="Path 9407" d="M604.437,270.8h-302.5s-22.123,38.7,8.91,40.046,47.6-5.534,65.146-4.186,59.806-1.047,84.768-1.047,33.214-4.448,50.756-4.448,24.664-1.047,52.326-1.047S604.437,270.8,604.437,270.8Z" transform="translate(-294.296 -270.797)" fill="#edbf7c"/>
              <g id="Group_6025" data-name="Group 6025" transform="translate(36.36 3.379)">
                <path id="Path_9408" data-name="Path 9408" d="M406.861,272.844a.95.95,0,0,1,.582,1.314,1.672,1.672,0,0,1-2.74,1.762C403.189,274.376,405.035,272.276,406.861,272.844Z" transform="translate(-210.589 -272.042)" fill="#fb7a54"/>
                <path id="Path_9409" data-name="Path 9409" d="M395.468,276.671c1.293-1.381,2.909-.092,3.59,1.17a.977.977,0,0,1-.866,1.427.864.864,0,0,1-.689.322,2.726,2.726,0,0,1-2.1-.881A1.549,1.549,0,0,1,395.468,276.671Z" transform="translate(-220.529 -268.406)" fill="#fb7a54"/>
                <path id="Path_9410" data-name="Path 9410" d="M385.777,273.489c.082.08.161.161.241.243a.96.96,0,0,1-1.358,1.356l-.239-.239A.961.961,0,0,1,385.777,273.489Z" transform="translate(-232.457 -271.543)" fill="#fb7a54"/>
                <path id="Path_9411" data-name="Path 9411" d="M353.993,278.01c1.361-.475,3.008.571,2.463,2.116a.956.956,0,0,1-.5.559,1.78,1.78,0,0,1-.586,1.319,1.967,1.967,0,0,1-2.991-.705A2.554,2.554,0,0,1,353.993,278.01Z" transform="translate(-267.379 -266.417)" fill="#fb7a54"/>
                <path id="Path_9412" data-name="Path 9412" d="M368.813,274.619a.958.958,0,0,1,1.566,1.082,1.749,1.749,0,0,1-2.819.352C366.753,275.182,367.969,273.914,368.813,274.619Z" transform="translate(-250.867 -270.375)" fill="#fb7a54"/>
                <path id="Path_9413" data-name="Path 9413" d="M346.907,273.583a1.741,1.741,0,0,1,.488-.306.925.925,0,0,1,1.509-.27c.092.1.182.2.268.306a1.6,1.6,0,0,1,.548.634.943.943,0,0,1,.088.5,2.046,2.046,0,0,1-.213,1.907,1.922,1.922,0,0,1-2.759.444A2.409,2.409,0,0,1,346.907,273.583Z" transform="translate(-273.867 -272.076)" fill="#fb7a54"/>
                <path id="Path_9414" data-name="Path 9414" d="M336.324,275.774a1.571,1.571,0,0,1,1.723.435.9.9,0,0,1,.1,1.166.935.935,0,0,1-.877.7,1.53,1.53,0,0,1-1.515-.892A.978.978,0,0,1,336.324,275.774Z" transform="translate(-285.472 -268.842)" fill="#fb7a54"/>
                <path id="Path_9415" data-name="Path 9415" d="M312.237,272.968c.938-.913,2.183-.536,3.229-.05s.287,1.9-.707,1.723a1.64,1.64,0,0,1-.061.291,1.622,1.622,0,0,1-2.461.542A1.665,1.665,0,0,1,312.237,272.968Z" transform="translate(-311.668 -272.411)" fill="#fb7a54"/>
                <path id="Path_9416" data-name="Path 9416" d="M378.007,274.915a.862.862,0,0,1,.638-.28c.023-.008.036-.025.059-.034a1.959,1.959,0,0,1,1.5,3.6C378.105,279.264,376.5,276.472,378.007,274.915Z" transform="translate(-239.802 -270.12)" fill="#fb7a54"/>
              </g>
            </g>
            <path id="Path_9417" data-name="Path 9417" d="M433.656,268.883s-7.047,9.611-17.937,9.929-19.538-.638-24.662,3.2-22.412,3.384-29.464-.071-16.02.391-21.144,1.672-9.1-3.219-11.6-6.093-13.067-7.359-13.067-7.359Z" transform="translate(-298.7 -272.887)" opacity="0.1"/>
          </g>
        </g>
        <g id="Group_6033" data-name="Group 6033" transform="translate(17.217 21.171)">
          <g id="Group_6029" data-name="Group 6029" transform="translate(56.897 40.471)">
            <path id="Path_9419" data-name="Path 9419" d="M357.269,150.011c.195,2.637-.858,4.107-3.146,4.354-2.158.247-3.795-1.105-4.2-3.47-.247-1.534.195-2.235,1.677-2.522.624-.13,1.273-.117,1.911-.195.532-.065,1.065-.157,1.417-.195C356.8,147.971,357.139,148.283,357.269,150.011Z" transform="translate(-335.568 -147.983)" fill="#5db3c1"/>
            <path id="Path_9420" data-name="Path 9420" d="M348.913,148.287c2.093-.195,2.365.1,2.3,2.547a3.736,3.736,0,0,1-2.509,3.887c-1.352.586-2.717.988-3.952-.092a5.691,5.691,0,0,1-1.716-4.7c.015-.364.858-.91,1.392-1.013A39.893,39.893,0,0,1,348.913,148.287Z" transform="translate(-343.032 -147.703)" fill="#5db3c1"/>
          </g>
          <path id="Path_9421" data-name="Path 9421" d="M360.056,145.969c1.794-.155,2.313.195,2.52,1.976a6.874,6.874,0,0,1-.115,2.248,7.611,7.611,0,0,1-.756,1.614c-.35-.456-.923-.858-1.04-1.352-.322-1.534-1.35-1.859-2.65-1.729q-3.7.37-7.409.858a2.132,2.132,0,0,0-1.988,2.482,22.532,22.532,0,0,0,.09,2.26c.416,2.924,2.145,5.017,4.408,5.408a7.154,7.154,0,0,0,7.083-3.562c.195-.389.247-.833.442-1.22.586-1.185,1.3-1.289,2.106-.224,1.105,1.457,2.118,2.978,2.951,4.174-1.612,1.677-2.964,2.847-4.044,4.238a15.594,15.594,0,0,1-9.226,5.613c-1.352.312-2.041.519-1.612,2.3.442,1.819.1,3.834.1,6.174-2.585-.691-5.159-1.314-7.667-2.108a2.265,2.265,0,0,1-1.132-1.4c-.936-3.2-2.248-6.331-1.143-9.8a3.928,3.928,0,0,0-1.183-4.107,23.35,23.35,0,0,1-2.861-4.291,5.466,5.466,0,0,1-.622-1.831c-.534-2.522.35-5.356,2.053-6.017,2.156-.833,4,.077,5.613,1.52.247.222.4.534.636.741.833.781,1.861.651,2.055-.35.611-3.263,2.78-3.081,5.314-3A70.525,70.525,0,0,0,360.056,145.969Z" transform="translate(-293.65 -109.749)" fill="#ead6c1"/>
          <path id="Path_9422" data-name="Path 9422" d="M340.837,182.174a36.659,36.659,0,0,1-7.487-14.245,18.541,18.541,0,0,1,.364-10.865c1.729-5.341,5.239-7.993,10.8-8.148a8.256,8.256,0,0,1,1.624.025c1.587.247,2.6-.469,3.535-1.729a50.266,50.266,0,0,1,12.244-11.5,33.288,33.288,0,0,1,14.595-5.927,19.95,19.95,0,0,1,8.969.791c4.471,1.469,6.694,5.147,5.94,9.839a17.717,17.717,0,0,1-6.459,11.309c-9.268,7.472-19.744,11.5-31.831,10.593-2.34-.182-2.34-.195-4.159,2.652a27.83,27.83,0,0,0-3.575-1.457c-3.665-.973-6.367.768-7.252,4.483a8.375,8.375,0,0,0,.494,5.708,18.561,18.561,0,0,0,2.874,4.665c1.442,1.522,1.365,2.976.856,5.12A17.369,17.369,0,0,1,340.837,182.174Z" transform="translate(-297.423 -127.614)" fill="#a5a5a5"/>
          <path id="Path_9423" data-name="Path 9423" d="M416.013,193.031c-2,.312-2.055.442-2.183,2.47-.157,2.468-.352,4.94-.534,7.409-.077,1.08-.546,1.936-1.729,1.974-2.742.1-5.693.885-7.42-2.415-.287-.546-1.432-.871-2.185-.9-11.658-.417-23.329-.781-34.989-1.157-2.026-.065-4.054-.155-6.551-.26.923-2.34,1.679-4.314,2.457-6.279.521-1.3,1.08-2.6,1.651-3.87.818-1.834.846-1.861,2.911-1.327,10.384,2.69,21.081,3.47,31.6,5.316a10.807,10.807,0,0,0,9.136-2.248,7,7,0,0,1,7.252-1.25c1.664.573,3.56.507,5.551,1.911C418.949,192.654,417.468,192.811,416.013,193.031Z" transform="translate(-267.127 -63.361)" fill="#ead6c1"/>
          <path id="Path_9424" data-name="Path 9424" d="M349.535,261.229c.1,2.376.038,4.755.038,7.135h-.312c0,2.156-.012,4.326,0,6.484.013,1.3-.766,1.649-1.884,1.649-1.08.015-1.963-.205-2.016-1.532-.025-.754-.05-1.509-.04-2.26.067-3.795.157-7.579.2-11.361.013-1,.22-1.637,1.415-1.664C348.831,259.63,349.482,259.875,349.535,261.229Z" transform="translate(-283.635 14.57)" fill="#ead6c1"/>
          <path id="Path_9425" data-name="Path 9425" d="M329.055,262.488c-.262,3.458-.534,6.9-.753,10.346-.08,1.168-.534,1.884-1.756,1.819-1.2-.065-2.066-.559-2-1.976.092-2.482.155-4.979.222-7.46.038-1.08.078-2.158.078-3.238-.027-2.6.077-2.65,2.378-2.637,1.327.025,2.08.389,1.911,1.859a10.539,10.539,0,0,0-.012,1.287Z" transform="translate(-306.345 14.207)" fill="#ead6c1"/>
          <g id="Group_6030" data-name="Group 6030" transform="translate(16.164 289.758)">
            <path id="Path_9426" data-name="Path 9426" d="M355.526,270.655c1.534,1.093,3.133,2.078,4.718,3.1-.117.209-.234.419-.337.611-4.289,0-8.579.119-12.868-.038-2.859-.1-2.976-.442-2.572-3.418.065-.429.077-.858.17-1.287.155-.846.557-1.312,1.559-1.093a5.345,5.345,0,0,0,2.52.287C351.432,267.991,353.472,269.2,355.526,270.655Z" transform="translate(-300.918 -265.561)" fill="#a5a5a5"/>
            <path id="Path_9427" data-name="Path 9427" d="M331.753,268.214c2.392,1.834,4.705,3.747,7.03,5.643.1.09.04.375.08.843a130.056,130.056,0,0,1-14.025-.387,1.2,1.2,0,0,1-1.26-1.469c.13-1.781.3-3.562.481-5.758,2.158,1.078,3.989,1.415,5.925.766A2.33,2.33,0,0,1,331.753,268.214Z" transform="translate(-323.57 -267.086)" fill="#a5a5a5"/>
          </g>
          <path id="Path_9428" data-name="Path 9428" d="M381.672,214.4c2.6.2,2.637.247,2.468,2.951-.337,5.291-.584,10.58-1.013,15.871-.818,10.239-1.859,20.47-2.574,30.724-1.038,14.674-1.859,29.374-2.767,44.06-.13,2.263-.117,2.3-2.445,2.417-1.612.077-3.236-.013-4.86.013-1.547.027-2.263-.7-2.627-2.235-1.233-5.264-2.754-10.461-3.9-15.74-2.353-10.892-4.72-21.782-6.746-32.739-1.976-10.633-3.535-21.343-5.291-32.011a20.119,20.119,0,0,0-.793-3.146,1.122,1.122,0,0,0-.948-.573c-.3.054-.636.534-.728.883a3.608,3.608,0,0,0,.157,1.262c.414,2.572.754,5.147,1.26,7.694a12.7,12.7,0,0,1-.26,6.1c-4.783,16.221-7.721,32.842-10.93,49.4q-1.717,8.929-3.445,17.845c-.546,2.729-.571,2.729-3.366,2.637-2.482-.065-4.979-.115-7.462-.259-2.6-.142-2.664-.195-2.69-2.9-.04-4.548.065-9.1.065-13.634q.019-16.219.012-32.452h.507c0-12.556-.038-25.112.027-37.654.013-3.248.364-6.486.519-9.735.065-1.377.689-1.846,2.066-1.741q7.447.546,14.9.948,19.945,1.014,39.889,1.949C381.021,214.359,381.346,214.374,381.672,214.4Z" transform="translate(-308.351 -38.172)" fill="#a5a5a5"/>
          <path id="Path_9429" data-name="Path 9429" d="M331.33,205.365a6.982,6.982,0,0,1,.391,5.913,38.9,38.9,0,0,0-1.028,4.017,17.887,17.887,0,0,1-1.559-1.756,178.072,178.072,0,0,1-11.386-19.193c-1.208-2.5-1.337-4.642.234-6.955,1.026-1.507,1.859-3.146,2.859-4.875a16.108,16.108,0,0,1,1.6,1.327c1.9,2.078,3.717,4.211,5.641,6.25.831.885.908,1.614.065,2.47-.234.234-.417.507-.651.728-1.208,1.132-1.233,2.235-.389,3.717C328.653,199.711,329.913,202.583,331.33,205.365Z" transform="translate(-314.782 -69.767)" fill="#ead6c1"/>
          <path id="Path_9430" data-name="Path 9430" d="M409.553,206.821c-10.892-11.748-21.966-23.3-33.4-34.506-.689-.676-.818-1.2-.3-1.924.858-1.222,1.741-2.43,2.807-3.912-6.576-2.754-13.192-4.236-20.25-6.227.4,3.51-1.39,5.419-3.47,7.252a16.1,16.1,0,0,0-4.368,6.706,3.546,3.546,0,0,0-2.545-.021l.232-.8a20.047,20.047,0,0,0-1.714,1.1c-6.017,4.937-12.075,9.825-18,14.871-3.443,2.949-6.666,6.16-10.034,9.2-.9.806-1.053,1.532-.26,2.47.481.584.833,1.273,1.325,1.831q7.158,7.956,14.337,15.869a1.361,1.361,0,0,0,.492.306,6.57,6.57,0,0,0,2.189,2.455c-1.731,6.593-3.416,13.2-5.111,19.8-1.821,7.123-3.418,14.3-5.159,21.433-.456,1.871-.481,2.041,1.492,2.235,3.667.377,7.332.649,11,.858q20.919,1.228,41.81,2.365c2.809.157,5.628.182,8.437.207,1.859.027,1.988-.155,1.911-2.066-.015-.324-.065-.651-.092-.975-1.078-11.307-2.248-22.6-3.2-33.922-.4-4.912-1.155-9.592-3.755-13.906a62.858,62.858,0,0,1-3.121-6.773,8.1,8.1,0,0,1-.661-1.819,1.207,1.207,0,0,1,.442-1.053,1.138,1.138,0,0,1,1.093.3,17.3,17.3,0,0,1,1.2,2.3q7.312,14.64,14.647,29.309c.454.91,1.055,1.741,1.6,2.652.417-.352.649-.469.728-.638,3.782-8.849,7.46-17.753,11.374-26.538C412.737,211.867,412.151,209.642,409.553,206.821Z" transform="translate(-313.786 -94.1)" fill="#fe737a"/>
          <g id="Group_6031" data-name="Group 6031" transform="translate(1.082 7.146)" opacity="0.2">
            <path id="Path_9431" data-name="Path 9431" d="M342.3,182.262l.975-5.2-3.9-5.2s-.488-6.825,2.436-7.637a15.553,15.553,0,0,1,6.5,0l2.761-3.085,14.3-1.139,11.373-4.387,10.884-8.286,4.226-8.121-.488-7.15s-5.2,12.834-12.673,15.922-23.557,7.635-29.568,8.123a10.257,10.257,0,0,0-8.286,5.2l-2.436,6.987a3.924,3.924,0,0,1-1.951,2.6,10.213,10.213,0,0,1-3.085.975l6.984,9.423Z" transform="translate(-297.785 -132.061)"/>
            <path id="Path_9432" data-name="Path 9432" d="M338.985,160.7l-.973,1.949-3.25,4.548s11.859-.324,11.047-1.624S338.985,160.7,338.985,160.7Z" transform="translate(-296.258 -100.753)"/>
            <path id="Path_9433" data-name="Path 9433" d="M332.936,227.552s-9.747-17.546-9.911-19.658,4.061-6.984,4.061-6.984l9.262,10.559,12.834-41.917L326.276,199.61l-5.2-4.387-4.711,8.935,2.761,8.123,11.7,19.333Z" transform="translate(-316.365 -91.082)"/>
            <path id="Path_9434" data-name="Path 9434" d="M451.262,206.516c-2.275,0-1.787-1.787-5.526-2.114s-43.378-3.736-43.378-3.736l-3.412,6.662-23.069-23.881.975,59.785L323.4,240.957l.142,3.8-1.279,95.631,4.117,1.3-.651,15.6-1.084,1.3-.867,8.014,17.764.433-.218-1.731-13-2.168,1.082-21.661,7.581-.651,2.145-13.5c-.186.023-1.063-.507-4.743-4.042-5.417-5.2-4.55-13.647-4.55-13.647V245.56l55.618,1.9.161-3.087,2.114-.812-4.711-44.678,10.72,19.821,1.463-.975,5.36-11.049,43.378.975,3.412,2.763,7.148.649,1.79-2.112V204.4S453.537,206.516,451.262,206.516Z" transform="translate(-309.917 -75.895)"/>
            <path id="Path_9435" data-name="Path 9435" d="M330.349,252.116l-.023.142C330.412,252.248,330.349,252.116,330.349,252.116Z" transform="translate(-301.105 -0.837)"/>
            <path id="Path_9436" data-name="Path 9436" d="M357.757,322.09l.377-18.13,6.066.433.216-12.564s-1.949.218-5.632-2.815-5.415-10.616-5.415-10.616l-17.546-60.436,16.9,84.916,2.382,1.082-.433,18.2-1.515,1.3-.218,6.281,15.6,1.3,2.6-1.517-13.649-2.6Z" transform="translate(-295.098 -38.169)"/>
          </g>
          <g id="Group_6032" data-name="Group 6032" transform="translate(10.809 5.434)">
            <path id="Path_9437" data-name="Path 9437" d="M362.241,132.652c-3.755-3.28-8.912-.22-11.895,2.939-1.8,1.35-3.6,3.062-4.058,5.339-1.122,5.59,6.953,3.359,9.682,2.1C359,141.631,366.692,136.541,362.241,132.652Z" transform="translate(-293.502 -131.243)" fill="#f5f5f5"/>
            <path id="Path_9438" data-name="Path 9438" d="M347.009,137.98c-.988-.986-2.641-.211-3.763.1a1.229,1.229,0,0,0-.841,1.637,2.131,2.131,0,0,0,.936,2.614,2.594,2.594,0,0,0,3.284-.877C347.294,140.544,347.941,138.913,347.009,137.98Z" transform="translate(-297.753 -124.408)" fill="#f5f5f5"/>
            <path id="Path_9439" data-name="Path 9439" d="M351.975,152.28a5.105,5.105,0,0,1-1.718-2.1,1.312,1.312,0,0,0-1.779-.467,1.33,1.33,0,0,0-.467,1.779,7.666,7.666,0,0,0,2.652,3.031,1.312,1.312,0,0,0,1.779-.465A1.327,1.327,0,0,0,351.975,152.28Z" transform="translate(-291.674 -111.237)" fill="#f5f5f5"/>
            <path id="Path_9440" data-name="Path 9440" d="M345.2,148.337q-1.306,2.289-2.491,4.64a.65.65,0,0,0,1.122.657l.146-.251a.486.486,0,0,0,.019-.059c.743-1.461,1.513-2.907,2.325-4.333A.65.65,0,0,0,345.2,148.337Z" transform="translate(-297.387 -112.906)" fill="#f5f5f5"/>
            <path id="Path_9441" data-name="Path 9441" d="M348.254,148.169c-1.605,2.468-3.554,4.688-4.579,7.487-.287.787.969,1.126,1.254.347.98-2.675,2.914-4.818,4.45-7.177C349.834,148.123,348.71,147.47,348.254,148.169Z" transform="translate(-296.288 -113.069)" fill="#f5f5f5"/>
            <path id="Path_9442" data-name="Path 9442" d="M349,148.663a41.066,41.066,0,0,1-3.971,6.7c-.494.676.634,1.327,1.122.655a41,41,0,0,0,3.973-6.7C350.473,148.565,349.351,147.906,349,148.663Z" transform="translate(-294.899 -112.569)" fill="#f5f5f5"/>
            <path id="Path_9443" data-name="Path 9443" d="M351.9,147.9q-1.259,2.22-2.367,4.515c-.253.527.312,1.3.89.89.061-.042.119-.084.178-.126a.638.638,0,0,0,.274-.542c.678-1.381,1.39-2.742,2.147-4.079A.65.65,0,0,0,351.9,147.9Z" transform="translate(-289.901 -113.379)" fill="#f5f5f5"/>
            <path id="Path_9444" data-name="Path 9444" d="M354.5,147.471a31.5,31.5,0,0,0-4.351,7.181.655.655,0,0,0,.889.887l.2-.109a.572.572,0,0,0,.3-.678,30.393,30.393,0,0,1,3.887-6.363C355.936,147.743,355.024,146.818,354.5,147.471Z" transform="translate(-289.234 -113.75)" fill="#f5f5f5"/>
            <path id="Path_9445" data-name="Path 9445" d="M355.083,148.077q-1.78,3.485-3.619,6.934a.651.651,0,0,0,1.124.657l.157-.216a.581.581,0,0,0,.111-.3q1.7-3.2,3.349-6.419C356.583,147.991,355.464,147.332,355.083,148.077Z" transform="translate(-287.826 -113.201)" fill="#f5f5f5"/>
            <path id="Path_9446" data-name="Path 9446" d="M350.824,170.677a5.942,5.942,0,0,0-3.4-1.865c-2.388-.22-2.344,2.909-1.817,4.492.915,2.748,3.378,5.023,5.44,6.949,1.563,1.459,3.818,2.989,5.884,1.432C360.938,178.662,354.087,172.276,350.824,170.677Z" transform="translate(-294.447 -90.191)" fill="#f5f5f5"/>
            <path id="Path_9447" data-name="Path 9447" d="M355.4,177.314c-.015,0-.025,0-.038,0a2.131,2.131,0,0,0-2.654.82c-.946,1.595.885,3.372,2.12,4.163a2.623,2.623,0,0,0,2.206.473,1.851,1.851,0,0,0,1.162-2.028A3.927,3.927,0,0,0,355.4,177.314Z" transform="translate(-286.656 -81.082)" fill="#f5f5f5"/>
            <path id="Path_9448" data-name="Path 9448" d="M374.075,191.2c-1.674-1.517-4.437-1.67-6.572-1.978-.9-.13-2.129-.509-2.928.1a1.54,1.54,0,0,0-.356,2.018,1.069,1.069,0,0,0,1.3.613c.048.027.073.069.13.094a15.8,15.8,0,0,0,7.512,1.377A1.317,1.317,0,0,0,374.075,191.2Z" transform="translate(-274.024 -68.125)" fill="#f5f5f5"/>
            <path id="Path_9449" data-name="Path 9449" d="M375.832,190.691a1.089,1.089,0,0,0-.628-.18l-.613.04c-1.015.065-1.854,1.444-.919,2.219a2.533,2.533,0,0,0,3,.324A1.308,1.308,0,0,0,375.832,190.691Z" transform="translate(-263.897 -66.463)" fill="#f5f5f5"/>
            <path id="Path_9450" data-name="Path 9450" d="M386.778,189.47a2.333,2.333,0,0,0-2.826,2.765,1.309,1.309,0,0,0,1.909.777q.615-.364,1.233-.726a1.188,1.188,0,0,0,.571-1.377A1.148,1.148,0,0,0,386.778,189.47Z" transform="translate(-252.263 -67.672)" fill="#f5f5f5"/>
            <path id="Path_9451" data-name="Path 9451" d="M334.959,170.749c-.077-.9-.954-1.7-1.854-1.019-.3.222-.569.467-.862.691a1.1,1.1,0,0,0-.433.347,76.154,76.154,0,0,0-6.218,5.4,1.319,1.319,0,0,0,.264,2.043c1.559,1.082,3.678-.818,4.87-1.741a20.39,20.39,0,0,0,4.213-4.479A1.077,1.077,0,0,0,334.959,170.749Z" transform="translate(-316.419 -89.453)" fill="#f5f5f5"/>
            <path id="Path_9452" data-name="Path 9452" d="M324.289,175.821a1.251,1.251,0,0,0-1.065-.592,1.315,1.315,0,0,0-.592.031c-.222.061-.444.124-.664.188a1.334,1.334,0,0,0-.954,1.252,1.792,1.792,0,1,0,3.276-.879Z" transform="translate(-321.012 -83.187)" fill="#f5f5f5"/>
          </g>
          <path id="Path_9453" data-name="Path 9453" d="M338.635,404.055c.17-1.469-.584-1.834-1.911-1.859-2.3-.013-2.4.04-2.378,2.637,0,1.08-.04,2.158-.078,3.238-.067,2.48-.13,4.977-.222,7.46-.065,1.417.806,1.911,2,1.976,1.222.065,1.676-.651,1.756-1.819.22-3.445.492-6.888.754-10.346h.065A10.54,10.54,0,0,1,338.635,404.055Zm-.209,15.116c-1.936.649-3.767.312-5.925-.766-.182,2.2-.352,3.977-.481,5.758a1.2,1.2,0,0,0,1.26,1.469,130.04,130.04,0,0,0,14.025.387c-.04-.469.025-.753-.08-.843-2.325-1.9-4.638-3.809-7.03-5.643A2.33,2.33,0,0,0,338.426,419.17ZM330,254.807c1.275,2.744,2.8,5.356,4.368,8.332,2.547-7.759,2.482-5.8-2.145-10.723a2.344,2.344,0,0,0-.674-.364C330.824,252.846,329.367,253.4,330,254.807Zm-6.5-12.085a16.114,16.114,0,0,0-1.6-1.327c-1,1.729-1.834,3.368-2.859,4.875-1.572,2.313-1.442,4.458-.234,6.955A178.077,178.077,0,0,0,330.2,272.418a17.893,17.893,0,0,0,1.559,1.756,38.9,38.9,0,0,1,1.028-4.017,6.982,6.982,0,0,0-.391-5.913c-1.417-2.782-2.677-5.653-4.224-8.357-.843-1.482-.818-2.585.389-3.717.234-.222.417-.494.651-.728.843-.856.766-1.584-.065-2.47C327.224,246.933,325.4,244.8,323.507,242.722Zm-1.873-5.3q7.158,7.956,14.337,15.869a3.345,3.345,0,0,0,.9.494c4.471-15.233,8.916-30.387,13.452-45.839a20.057,20.057,0,0,0-1.714,1.1c-6.017,4.937-12.075,9.825-18,14.871-3.443,2.949-6.666,6.16-10.034,9.2-.9.808-1.053,1.534-.259,2.472C320.79,236.17,321.142,236.859,321.633,237.418ZM447.759,259.28c-10.515-1.846-21.213-2.627-31.6-5.316-2.066-.534-2.093-.507-2.911,1.327-.571,1.273-1.13,2.572-1.651,3.87-.779,1.965-1.534,3.939-2.457,6.279,2.5.1,4.525.195,6.551.26,11.66.377,23.331.741,34.989,1.157.753.027,1.9.352,2.185.9,1.727,3.3,4.678,2.52,7.42,2.415,1.183-.038,1.651-.894,1.729-1.974.182-2.47.377-4.942.534-7.409.128-2.028.182-2.158,2.183-2.47,1.455-.22,2.936-.377,4.965-.624-1.99-1.4-3.887-1.337-5.551-1.911a7,7,0,0,0-7.252,1.249A10.807,10.807,0,0,1,447.759,259.28ZM387.1,172.03c.4,2.365,2.041,3.717,4.2,3.47,2.288-.247,3.34-1.716,3.146-4.354-.13-1.729-.469-2.041-2.34-2.028-.352.038-.885.13-1.417.195-.638.077-1.287.065-1.911.195C387.3,169.794,386.854,170.5,387.1,172.03Zm-15.545-8.682c12.087.91,22.563-3.121,31.831-10.593a17.717,17.717,0,0,0,6.459-11.309c.753-4.693-1.469-8.37-5.94-9.839a19.95,19.95,0,0,0-8.969-.791,33.288,33.288,0,0,0-14.595,5.927,50.266,50.266,0,0,0-12.244,11.5c-.936,1.26-1.949,1.976-3.535,1.729a8.258,8.258,0,0,0-1.624-.025c-5.561.155-9.071,2.807-10.8,8.148a18.541,18.541,0,0,0-.364,10.865,36.659,36.659,0,0,0,7.487,14.245,17.375,17.375,0,0,0,1.532,1.312c.509-2.143.586-3.6-.856-5.12a18.559,18.559,0,0,1-2.874-4.665,8.375,8.375,0,0,1-.494-5.708c.885-3.715,3.587-5.456,7.252-4.483A27.831,27.831,0,0,1,367.4,166C369.216,163.153,369.216,163.166,371.556,163.348Zm6.863,12.788a3.736,3.736,0,0,0,2.509-3.887c.063-2.443-.209-2.742-2.3-2.547a39.893,39.893,0,0,0-4.483.626c-.534.1-1.377.649-1.392,1.013a5.691,5.691,0,0,0,1.716,4.7C375.7,177.124,377.067,176.722,378.419,176.136Zm3.366,235.445c0-2.38.065-4.76-.038-7.135-.052-1.354-.7-1.6-2.6-1.549-1.2.027-1.4.663-1.415,1.664-.04,3.782-.13,7.566-.2,11.361-.01.751.015,1.507.04,2.26.052,1.327.936,1.547,2.016,1.532,1.118,0,1.9-.35,1.884-1.649-.013-2.158,0-4.328,0-6.484ZM386.62,423.5c-2.053-1.455-4.094-2.664-6.811-1.833a5.345,5.345,0,0,1-2.52-.287c-1-.22-1.4.247-1.559,1.093-.092.429-.1.858-.169,1.287-.4,2.976-.287,3.313,2.572,3.418,4.289.157,8.579.038,12.868.038.1-.193.22-.4.337-.611C389.753,425.577,388.154,424.591,386.62,423.5Zm-3.782-22.6c2.327-.115,2.315-.155,2.445-2.417.908-14.687,1.729-29.386,2.767-44.06.716-10.254,1.756-20.484,2.574-30.724.429-5.291.676-10.58,1.013-15.871.17-2.7.13-2.754-2.468-2.951-.326-.023-.651-.038-.975-.065q-19.945-.954-39.889-1.949-7.447-.389-14.9-.948c-1.377-.1-2,.364-2.066,1.741-.155,3.248-.507,6.486-.519,9.735-.065,12.541-.027,25.1-.027,37.654h-.507q0,16.219-.012,32.452c0,4.538-.1,9.086-.065,13.634.025,2.7.092,2.757,2.69,2.9,2.482.144,4.979.195,7.462.259,2.794.092,2.819.092,3.366-2.637q1.736-8.91,3.445-17.845c3.209-16.56,6.147-33.181,10.93-49.4a12.7,12.7,0,0,0,.26-6.1c-.507-2.547-.846-5.122-1.26-7.694a3.609,3.609,0,0,1-.157-1.262c.092-.35.431-.829.728-.883a1.122,1.122,0,0,1,.948.573,20.119,20.119,0,0,1,.793,3.146c1.756,10.668,3.315,21.378,5.291,32.011,2.026,10.957,4.393,21.847,6.746,32.739,1.143,5.279,2.664,10.476,3.9,15.74.364,1.534,1.08,2.263,2.627,2.235C379.6,400.884,381.226,400.974,382.838,400.9Zm.9-158.162a17.3,17.3,0,0,1,1.2,2.3q7.312,14.64,14.647,29.309c.454.91,1.053,1.741,1.6,2.652.417-.352.649-.469.728-.638,3.782-8.849,7.46-17.753,11.374-26.538,1.52-3.405.933-5.63-1.664-8.452-10.892-11.748-21.966-23.3-33.4-34.506-.689-.676-.82-1.2-.3-1.924.858-1.222,1.741-2.43,2.807-3.912-6.576-2.754-13.192-4.236-20.25-6.227.4,3.51-1.39,5.419-3.47,7.252a16.913,16.913,0,0,0-4.8,7.968c-3.106,10.021-6.382,19.991-9.228,30.075-3.353,11.853-6.369,23.81-9.435,35.755-1.821,7.123-3.418,14.3-5.159,21.433-.456,1.871-.481,2.041,1.492,2.237,3.667.375,7.332.647,11,.856q20.919,1.228,41.81,2.365c2.809.157,5.628.182,8.437.207,1.859.027,1.988-.155,1.911-2.066-.015-.324-.065-.651-.092-.975-1.078-11.307-2.248-22.6-3.2-33.922-.4-4.912-1.155-9.592-3.755-13.906a62.651,62.651,0,0,1-3.121-6.773,8.092,8.092,0,0,1-.661-1.819,1.209,1.209,0,0,1,.442-1.053A1.138,1.138,0,0,1,383.736,242.734Zm.167-72.03a7.609,7.609,0,0,0,.756-1.614,6.872,6.872,0,0,0,.115-2.248c-.207-1.781-.726-2.131-2.52-1.976a70.524,70.524,0,0,1-8.073.611c-2.535-.077-4.7-.26-5.314,3-.195,1-1.222,1.13-2.055.35-.232-.207-.389-.519-.636-.741-1.612-1.442-3.458-2.353-5.614-1.52-1.7.661-2.587,3.5-2.053,6.017a5.467,5.467,0,0,0,.622,1.831,23.35,23.35,0,0,0,2.861,4.291,3.928,3.928,0,0,1,1.183,4.107c-1.105,3.47.207,6.6,1.143,9.8a2.265,2.265,0,0,0,1.132,1.4c2.507.793,5.082,1.417,7.667,2.108,0-2.34.339-4.356-.1-6.174-.429-1.781.26-1.988,1.612-2.3a15.594,15.594,0,0,0,9.226-5.613c1.08-1.392,2.432-2.562,4.044-4.238-.833-1.2-1.846-2.717-2.951-4.174-.806-1.065-1.52-.961-2.106.224-.195.387-.247.831-.442,1.22a7.154,7.154,0,0,1-7.083,3.562c-2.263-.391-3.991-2.484-4.408-5.408a22.523,22.523,0,0,1-.09-2.26,2.132,2.132,0,0,1,1.988-2.482q3.7-.487,7.409-.858c1.3-.13,2.327.195,2.65,1.729C382.98,169.847,383.554,170.248,383.9,170.7Zm1.3,232.167c-1.22-.144-1.417.753-1.442,1.677-.1,4.328-.155,8.657-.3,12.973a2.7,2.7,0,0,0,1.522,2.612q2.923,1.752,5.783,3.625a13.147,13.147,0,0,1,2.574,1.951c1.247,1.363.689,2.922-1.118,3.416a3.976,3.976,0,0,1-.963.172c-4.755-.055-9.527.05-14.27-.222-3.288-.2-3.68-.846-3.483-4.109.1-1.924.065-3.885,1.482-5.524a3.721,3.721,0,0,0,.571-2.118c.09-4,.1-8.006.169-12.02a3.585,3.585,0,0,0-1.145-3.186,4.032,4.032,0,0,1-.9-2.026c-4.381-16.535-8.163-33.21-11.074-50.065-.883-5.214-1.833-10.413-2.886-16.4a19.551,19.551,0,0,0-1.13,2.623c-2.56,11.4-5.2,22.772-7.6,34.211-1.976,9.423-3.665,18.911-5.431,28.373-.364,2.013-1.04,3.523-3.393,3.523-1.105,0-1.469.714-1.547,1.689q-.389,5.673-.818,11.334a2.319,2.319,0,0,0,1.13,2.156c2.248,1.7,4.483,3.418,6.641,5.226a15.952,15.952,0,0,1,2.874,3.041c.948,1.43.479,2.235-1.21,2.3-1.729.065-3.47-.025-5.2-.038-3.795-.04-7.577-.054-11.371-.1-2.263-.04-2.7-.352-2.652-2.639.077-3.091-.4-6.329,1.769-9.046a2.268,2.268,0,0,0,.285-1.235c.13-3.573.26-7.135.337-10.71.027-1.417-.22-2.6-2.156-2.4-1.626.157-1.951-1.028-1.963-2.34-.038-3.458-.1-6.928-.077-10.386q.329-32.149.676-64.308c.052-5.3-.04-10.607.013-15.909.025-1.951.272-3.887.467-5.823.1-1.026-.22-1.469-1.287-1.819-2.792-.925-2.65-.975-1.871-3.939,1.587-5.953,3-11.958,4.563-17.925a4.52,4.52,0,0,0-.9-4.171A163.711,163.711,0,0,1,317.2,254.535c-1.689-3.315-2-6.342.234-9.435.247-.35.377-.793.636-1.13,2.078-2.729,2.976-5.3,0-8.2-1.327-1.289-1.026-2.106.559-3.575,3.872-3.627,7.694-7.317,11.763-10.723,6.968-5.848,14.115-11.478,21.146-17.249a54.922,54.922,0,0,0,5.653-5.339,6.364,6.364,0,0,0,1.17-3.2c.456-2.859.391-2.859,3.587-3a9.908,9.908,0,0,0-3.014-6.8A39.323,39.323,0,0,1,351.8,175.1c-2.432-5.484-3.577-11.072-1.756-17.039,2.016-6.641,6.07-9.942,13-10.059a5.132,5.132,0,0,0,4.366-2.106,49.886,49.886,0,0,1,19.34-14.921,26.15,26.15,0,0,1,15.884-1.794c6.991,1.444,10.266,6.239,9.019,13.284-.9,5.187-3.73,9.161-7.656,12.464a51.068,51.068,0,0,1-14.724,8.1c-.417.155-.818.3-1.222.442-.883.3-1.988.285-1.572,1.831.519,1.936.7,2.21,2.507,2.158,1.729-.04,3.47-.182,5.187-.077a2.5,2.5,0,0,1,1.781,1.053,6.248,6.248,0,0,1-3.927,9.019c-.4.132-1.116.157-1.183.377-1.038,3.5-5.224,3.757-6.836,6.863-1.183,2.3-3.964,3.236-6.407,4.184-2.47.963-2.457.99-2.367,3.445.157,4.473.157,4.473,4.393,6.045,3.964,1.469,4.159,1.9,1.612,5.394-.961,1.337-.921,2.183.209,3.3,3.523,3.51,7.018,7.058,10.448,10.67,7.9,8.318,15.754,16.7,23.681,25.008a3.5,3.5,0,0,1,.936,3.548,30.608,30.608,0,0,1-1.13,3.378c-.494,1.289-.207,2.055,1.21,2.367,2.325.494,4.613,1.208,6.966,1.572,8.228,1.3,16.481,2.457,24.708,3.719a9.107,9.107,0,0,0,7.589-2,8.236,8.236,0,0,1,8.5-1.522c1.846.611,3.782.923,5.653,1.432a7.353,7.353,0,0,1,2.078.9c1.377.91,1.312,2.392-.26,2.962a24.206,24.206,0,0,1-4.743.95c-2.457.35-2.432.3-2.574,2.692-.13,2.039-.272,4.1-.571,6.133-.312,2.21-1.17,3.081-3.353,3.288a22.747,22.747,0,0,1-5.174-.065,4.186,4.186,0,0,1-2.767-1.427c-1.132-1.834-2.731-1.821-4.483-1.873q-18.5-.6-37-1.235c-3.066-.092-3.054-.065-4.328,2.757-1.155,2.56-2.26,5.147-3.523,7.654-.4.808-1.09,1.821-1.831,2.016-1.325.337-1.716-1.093-2.2-1.988-1.951-3.627-3.834-7.28-5.745-10.917a4.909,4.909,0,0,0-1.7-2.016c0,1.026-.077,2.053.013,3.054q1.074,11.155,2.185,22.3c.35,3.56.714,7.11,1,10.67.115,1.574.481,3.183-1,4.523-.429.389-.364,1.419-.4,2.17-.337,5.069-.571,10.164-.973,15.233-.586,7.225-1.365,14.44-1.924,21.667-.808,10.358-1.5,20.729-2.223,31.1-.327,4.745-.689,9.5-.938,14.26-.168,3.456-.182,6.926-.285,10.386C387.231,401.754,387.206,403.119,385.2,402.872Z" transform="translate(-315.848 -128.647)" fill="#3c3372"/>
        </g>
      </g>
    </g>
  </g>
</svg>
