<svg xmlns="http://www.w3.org/2000/svg" xmlns:xlink="http://www.w3.org/1999/xlink" width="288.841" height="346.131" viewBox="0 0 288.841 346.131">
  <defs>
    <linearGradient id="linear-gradient" x1="1" y1="1" x2="0" gradientUnits="objectBoundingBox">
      <stop offset="0" stop-color="#ff7479"/>
      <stop offset="1" stop-color="#f566a2"/>
    </linearGradient>
    <clipPath id="clip-path">
      <path id="Path_9458" data-name="Path 9458" d="M578.512,260.766c2.789-5.912,9.535-1.43,13.441,1.024-.01-2.313-.006-4.631-.016-6.942-.006-2.088-.225-4.422.535-6.413.9-2.322,3.707-4.144,5.963-2.383,1.085.846,1.549,2.311,2.068,3.521a79.131,79.131,0,0,0,3.354,7.692c.926,1.657.8,1.512,2.794,1.614,1.956.106,1.86.276,2.743-1.312a20.842,20.842,0,0,0,1.455-4.05,10.252,10.252,0,0,1,2.54-4.713c1.78-1.645,4.714-2.438,6.484-.351,2.152,2.526,1.821,6.989,1.312,10-.374,2.172-1.447,4.255-1.763,6.392-.213,1.433,1,3.327,2.636,3a9.748,9.748,0,0,0,3.217-1.651c2.387-1.49,5.364-1.974,6.811,1.016,1.76,3.638-1.224,6.891-3.676,9.235-4.177,3.971-8.391,7.894-12.582,11.843-.006.02,0,.031,0,.051-.564,2.062-2.755,2.082-4.557,1.821a65.991,65.991,0,0,1-11.54-2.935c-6.531-2.219-12.75-5.722-17.088-11.193C579.591,272.18,576.16,265.744,578.512,260.766Z" transform="translate(-577.732 -245.347)" fill="none"/>
    </clipPath>
    <clipPath id="clip-path-2">
      <path id="Path_9462" data-name="Path 9462" d="M584.393,269.488c.989.114,1.96.382,2.955.484,1.805.192,3.1.26,2.162-1.778-1.2-2.61-3.774-4.363-5.757-6.329-2-1.99-5.64-6.922-1.012-8.391,4.328-1.381,8.33,4.565,10.719,7.163a21,21,0,0,0,3.682,3.4c3.01,1.954,3.985-2.078,4.3-4.161s.625-4.337,2.207-5.9c3.312-3.255,7.578.523,7.89,4.236.223,2.663-.818,5.276-1.655,7.747-1.044,3.141-2.1,6.278-3.153,9.413-.1,4.077-.889,8.242-4.379,10.8-3.594,2.63-7.716,1.112-11.168-.94-2.575-1.522-5.131-3.141-7.618-4.8-1.837-1.232-3.719-2.73-4.384-4.933C578.036,271.716,580.715,269.079,584.393,269.488Z" transform="translate(-578.914 -252.735)" fill="none"/>
    </clipPath>
    <clipPath id="clip-path-3">
      <path id="Path_9466" data-name="Path 9466" d="M594.807,255.811a22.125,22.125,0,0,1,2.875,4.637q1.968,3.534,3.92,7.042c.848,1.527,1.762,4.336,4.134,3.828,1.118-.231,2.52-1.629,3.407-2.356,1.686-1.416,2.953-3.194,4.577-4.659,1.854-1.676,5.064-2.785,6.85-.364,2.06,2.794.194,6.895-1.7,9.206-2.745,3.354-6.725,5.219-10.289,7.563a.442.442,0,0,1-.047.245c-1.212,2.328-3.848,2.988-6.31,2.438-3.337-.756-5.894-3.448-7.692-6.2a72.712,72.712,0,0,1-5.6-11.2c-1.32-3.07-2.585-7.234-.231-10.163C590.406,253.712,593.015,253.933,594.807,255.811Z" transform="translate(-587.385 -254.321)" fill="none"/>
    </clipPath>
    <clipPath id="clip-path-4">
      <path id="Path_9469" data-name="Path 9469" d="M585.419,276.915a13.524,13.524,0,0,1,13.467-9.517c5.885.1,13.582,3.106,15.123,9.37.071,0,.153.006.223,0,.505,0,.541.789.024.791q-14.223-.079-28.442-.161A.4.4,0,0,1,585.419,276.915Z" transform="translate(-585.403 -267.396)" fill="none"/>
    </clipPath>
    <clipPath id="clip-path-5">
      <path id="Path_9482" data-name="Path 9482" d="M803.59,270.8s-13.61,9.971-39.49,9.971-28.3,11.342-44.714,11.342-25.367-4.9-48.719-4.9-29.109,9.347-45.521,8.084-13.473-7.059-42.51-8.323S514.749,270.8,514.749,270.8Z" transform="translate(-514.749 -270.796)" fill="none"/>
    </clipPath>
  </defs>
  <g id="intro-3" transform="translate(-514.749 -106.056)">
    <g id="Group_6062" data-name="Group 6062" transform="translate(514.749 107.186)">
      <g id="Group_6061" data-name="Group 6061">
        <g id="Group_6037" data-name="Group 6037" transform="translate(130.847 47.676)">
          <rect id="Rectangle_2919" data-name="Rectangle 2919" width="44.386" height="44.387" rx="6.667" fill="url(#linear-gradient)"/>
          <path id="Path_9454" data-name="Path 9454" d="M595.447,148.244l-4.878-5.86-3.327,2.769,4.878,5.861,2.769,3.327,3.328-2.77,11.193-9.314-2.771-3.327Z" transform="translate(-576.132 -124.442)" fill="#f5f5f5"/>
        </g>
        <g id="Group_6039" data-name="Group 6039" transform="translate(123.335 270.554)">
          <g id="Group_6038" data-name="Group 6038" clip-path="url(#clip-path)">
            <path id="Path_9455" data-name="Path 9455" d="M578.512,260.766c2.789-5.912,9.535-1.43,13.441,1.024-.01-2.313-.006-4.631-.016-6.942-.006-2.088-.225-4.422.535-6.413.9-2.322,3.707-4.144,5.963-2.383,1.085.846,1.549,2.311,2.068,3.521a79.131,79.131,0,0,0,3.354,7.692c.926,1.657.8,1.512,2.794,1.614,1.956.106,1.86.276,2.743-1.312a20.842,20.842,0,0,0,1.455-4.05,10.252,10.252,0,0,1,2.54-4.713c1.78-1.645,4.714-2.438,6.484-.351,2.152,2.526,1.821,6.989,1.312,10-.374,2.172-1.447,4.255-1.763,6.392-.213,1.433,1,3.327,2.636,3a9.748,9.748,0,0,0,3.217-1.651c2.387-1.49,5.364-1.974,6.811,1.016,1.76,3.638-1.224,6.891-3.676,9.235-4.177,3.971-8.391,7.894-12.582,11.843-.006.02,0,.031,0,.051-.564,2.062-2.755,2.082-4.557,1.821a65.991,65.991,0,0,1-11.54-2.935c-6.531-2.219-12.75-5.722-17.088-11.193C579.591,272.18,576.16,265.744,578.512,260.766Z" transform="translate(-577.732 -245.347)" fill="#5db3c1"/>
            <path id="Path_9456" data-name="Path 9456" d="M582.875,259.913a156.689,156.689,0,0,0,25.88,26.438l.006-.012a95.14,95.14,0,0,1-7.825-15.266,138.685,138.685,0,0,1-6.024-19.974c-.139-.623.817-.895.956-.27a139.311,139.311,0,0,0,5.7,19.124,76.476,76.476,0,0,0,4.093,9.482c1.028,1.884,2.185,3.711,3.349,5.528.065-1.649.253-3.306.38-4.9.256-3.26.587-6.515.95-9.762.678-6.035,1.042-12.311,2.763-18.155.18-.613,1.144-.368.962.249-1.7,5.757-2.064,11.947-2.73,17.889-.309,2.763-.6,5.528-.83,8.3-.143,1.692-.388,3.493-.5,5.283a85.454,85.454,0,0,1,5.356-8.742c2.185-3.168,4.326-6.779,7.267-9.311.482-.413,1.191.282.7.7-3.088,2.657-5.366,6.533-7.645,9.883a77.945,77.945,0,0,0-5.738,9.8c0,.084.01.168.014.257.2.313.4.633.6.946a.411.411,0,0,1,.253.227c.1.215.209.433.311.648.215.168.421.345.636.511.5.4-.2,1.1-.7.705-.345-.27-.68-.552-1.022-.826-.223.327-.791.376-.871-.1-.033-.215-.045-.435-.069-.65a158.927,158.927,0,0,1-27.078-27.482C581.632,259.909,582.49,259.409,582.875,259.913Z" transform="translate(-573.718 -240.435)" fill="#cbecf4"/>
            <path id="Path_9457" data-name="Path 9457" d="M629.945,265.151a18.19,18.19,0,0,1-19.122,6.488c-12.331-3.182-33.045-13.659-33.045-13.659l19.05,23.391,27.421,2.135Z" transform="translate(-577.688 -233.242)" opacity="0.2"/>
          </g>
        </g>
        <g id="Group_6041" data-name="Group 6041" transform="translate(125.651 285.02)">
          <g id="Group_6040" data-name="Group 6040" clip-path="url(#clip-path-2)">
            <path id="Path_9459" data-name="Path 9459" d="M584.393,269.488c.989.114,1.96.382,2.955.484,1.805.192,3.1.26,2.162-1.778-1.2-2.61-3.774-4.363-5.757-6.329-2-1.99-5.64-6.922-1.012-8.391,4.328-1.381,8.33,4.565,10.719,7.163a21,21,0,0,0,3.682,3.4c3.01,1.954,3.985-2.078,4.3-4.161s.625-4.337,2.207-5.9c3.312-3.255,7.578.523,7.89,4.236.223,2.663-.818,5.276-1.655,7.747-1.044,3.141-2.1,6.278-3.153,9.413-.1,4.077-.889,8.242-4.379,10.8-3.594,2.63-7.716,1.112-11.168-.94-2.575-1.522-5.131-3.141-7.618-4.8-1.837-1.232-3.719-2.73-4.384-4.933C578.036,271.716,580.715,269.079,584.393,269.488Z" transform="translate(-578.914 -252.735)" fill="#417f7e"/>
            <path id="Path_9460" data-name="Path 9460" d="M582.84,271.619a63.154,63.154,0,0,1,10.606,4.95,56.3,56.3,0,0,1,8.319,5.246c-.141-.744-.272-1.49-.39-2.238-5.037-7.964-10.091-15.781-17.219-22.146-.47-.421.086-1.245.562-.82,6.7,5.984,11.595,13.191,16.341,20.632a56.71,56.71,0,0,1-.4-8.689A36.247,36.247,0,0,1,603.7,255.7c.241-.589,1.179-.257.936.337a35.6,35.6,0,0,0-2.988,12.6,56.364,56.364,0,0,0,.674,10.592q.984,1.551,1.972,3.112a.489.489,0,0,1,.3.335c.035.119.071.243.1.362.167.589-.668.723-.938.3q-.5-.781-.991-1.559c.02.092.029.184.049.274a.436.436,0,0,1-.217.492c.249.229.5.458.736.7.447.458-.309,1.1-.754.648-2.7-2.785-6.354-4.612-9.7-6.509a61.869,61.869,0,0,0-10.381-4.833A.5.5,0,0,1,582.84,271.619Z" transform="translate(-575.781 -250.189)" fill="#5aa8a4"/>
            <path id="Path_9461" data-name="Path 9461" d="M610.281,259.258s-4.531,8.595-8.914,10.665-11.869,6.8-22,3.165L594.924,288l23.834-12.962Z" transform="translate(-578.478 -246.484)" opacity="0.2"/>
          </g>
        </g>
        <g id="Group_6043" data-name="Group 6043" transform="translate(142.239 288.127)">
          <g id="Group_6042" data-name="Group 6042" transform="translate(0 0)" clip-path="url(#clip-path-3)">
            <path id="Path_9463" data-name="Path 9463" d="M594.807,255.811a22.125,22.125,0,0,1,2.875,4.637q1.968,3.534,3.92,7.042c.848,1.527,1.762,4.336,4.134,3.828,1.118-.231,2.52-1.629,3.407-2.356,1.686-1.416,2.953-3.194,4.577-4.659,1.854-1.676,5.064-2.785,6.85-.364,2.06,2.794.194,6.895-1.7,9.206-2.745,3.354-6.725,5.219-10.289,7.563a.442.442,0,0,1-.047.245c-1.212,2.328-3.848,2.988-6.31,2.438-3.337-.756-5.894-3.448-7.692-6.2a72.712,72.712,0,0,1-5.6-11.2c-1.32-3.07-2.585-7.234-.231-10.163C590.406,253.712,593.015,253.933,594.807,255.811Z" transform="translate(-587.385 -254.321)" fill="#b3d3dd"/>
            <path id="Path_9464" data-name="Path 9464" d="M591.525,258.2q1.178,2.227,2.321,4.471c.065-.337.114-.685.182-.985.131-.582.264-1.165.4-1.747.139-.619,1.126-.486.983.141q-.282,1.237-.562,2.475a6.743,6.743,0,0,1-.327,1.441c.748,1.478,1.469,2.969,2.2,4.457a22.882,22.882,0,0,1,.83-2.438.5.5,0,0,1,.912.4,21.592,21.592,0,0,0-1.052,3.235.536.536,0,0,1-.051.108c1.381,2.851,2.738,5.714,4.044,8.6a10.3,10.3,0,0,1,2.977-6.915,21.881,21.881,0,0,1,2.906-2.36.536.536,0,0,1-.022-.129q.047-1.451.1-2.906c.02-.638,1-.493.985.139l-.074,2.213c1.065-.73,2.135-1.455,3.112-2.273a.525.525,0,0,1-.073-.27c.031-1.126.043-2.25.031-3.38-.006-.633.981-.764.987-.125.01.983-.008,1.966-.027,2.949a10.779,10.779,0,0,0,2.041-2.7c.3-.562,1.21-.172.912.4a11.724,11.724,0,0,1-1.96,2.685c.965-.123,1.927-.266,2.885-.452.629-.123.75.864.125.987q-2.1.405-4.23.613a35.284,35.284,0,0,1-2.969,2.209c.057.012.119.027.168.035q1.457.2,2.916.411a.5.5,0,0,1-.141.983c-.7-.1-1.4-.2-2.1-.3l-.971-.137c-.09-.012-.633-.133-.838-.184l0,0-.041.029a.561.561,0,0,1-.317.088,15.81,15.81,0,0,0-3.717,3.313c-1.594,2.117-1.763,4.545-1.741,7.087.092.208.188.411.28.619.26.584-.662.959-.92.374l0,0a.4.4,0,0,1-.339-.411c0-.116,0-.225,0-.341-1.616-3.619-3.309-7.2-5.04-10.768q-1.53-.682-3.059-1.363c-.413-.186-.382-.948.133-.952h.225a.507.507,0,0,1,.415.208l1.6.713c-.67-1.363-1.324-2.736-2.011-4.093-.264-.086-.529-.245-.744-.333q-1.231-.523-2.469-1.042a.5.5,0,0,1,.4-.913q.822.35,1.647.7c.149.061.3.123.448.188-.75-1.461-1.5-2.924-2.272-4.375C590.305,258.014,591.226,257.646,591.525,258.2Z" transform="translate(-584.793 -250.865)" fill="#cbecf4"/>
            <path id="Path_9465" data-name="Path 9465" d="M614.874,267.744s-5.338,3.572-10.937,2.777-14.914-7.643-14.914-7.643l6.936,16.109,16.674.112Z" transform="translate(-585.815 -246.121)" opacity="0.2"/>
          </g>
        </g>
        <g id="Group_6045" data-name="Group 6045" transform="translate(138.357 313.731)">
          <g id="Group_6044" data-name="Group 6044" clip-path="url(#clip-path-4)">
            <path id="Path_9467" data-name="Path 9467" d="M585.419,276.915a13.524,13.524,0,0,1,13.467-9.517c5.885.1,13.582,3.106,15.123,9.37.071,0,.153.006.223,0,.505,0,.541.789.024.791q-14.223-.079-28.442-.161A.4.4,0,0,1,585.419,276.915Z" transform="translate(-585.403 -267.396)" fill="#d1a76b"/>
            <path id="Path_9468" data-name="Path 9468" d="M610.035,266.846s-1.159,5.55-11.1,5.55-12.425-4.968-12.425-4.968Z" transform="translate(-584.341 -267.923)" opacity="0.2"/>
          </g>
        </g>
        <g id="Group_6049" data-name="Group 6049" transform="translate(0 320.389)">
          <g id="Group_6048" data-name="Group 6048" clip-path="url(#clip-path-5)">
            <g id="Group_6047" data-name="Group 6047" transform="translate(-17.379 0.002)">
              <path id="Path_9470" data-name="Path 9470" d="M816.05,270.8H505.874s6.458,36.206,35.493,37.467,44.542-5.178,60.95-3.916,55.957-.979,79.309-.979,31.079-4.161,47.487-4.161,23.078-.979,48.956-.979S816.05,270.8,816.05,270.8Z" transform="translate(-505.874 -270.797)" fill="#edbf7c"/>
              <g id="Group_6046" data-name="Group 6046" transform="translate(54.026 3.161)">
                <path id="Path_9471" data-name="Path 9471" d="M628.483,272.837a.889.889,0,0,1,.541,1.23,1.563,1.563,0,0,1-2.561,1.649C625.044,274.271,626.773,272.307,628.483,272.837Z" transform="translate(-444.849 -272.088)" fill="#fb7a54"/>
                <path id="Path_9472" data-name="Path 9472" d="M617.237,276.632c1.212-1.292,2.72-.086,3.358,1.095a.915.915,0,0,1-.811,1.336.811.811,0,0,1-.644.3,2.551,2.551,0,0,1-1.97-.824A1.451,1.451,0,0,1,617.237,276.632Z" transform="translate(-453.563 -268.9)" fill="#fb7a54"/>
                <path id="Path_9473" data-name="Path 9473" d="M607.468,273.471l.225.227a.9.9,0,0,1-1.273,1.269l-.223-.223A.9.9,0,0,1,607.468,273.471Z" transform="translate(-464.021 -271.65)" fill="#fb7a54"/>
                <path id="Path_9474" data-name="Path 9474" d="M575.671,278c1.273-.445,2.814.535,2.3,1.98a.894.894,0,0,1-.47.523,1.676,1.676,0,0,1-.55,1.234,1.839,1.839,0,0,1-2.8-.66A2.39,2.39,0,0,1,575.671,278Z" transform="translate(-494.636 -267.157)" fill="#fb7a54"/>
                <path id="Path_9475" data-name="Path 9475" d="M590.51,274.6a.9.9,0,0,1,1.463,1.012,1.636,1.636,0,0,1-2.638.329C588.583,275.124,589.721,273.937,590.51,274.6Z" transform="translate(-480.16 -270.626)" fill="#fb7a54"/>
                <path id="Path_9476" data-name="Path 9476" d="M568.659,273.527a1.62,1.62,0,0,1,.454-.286.865.865,0,0,1,1.412-.253c.088.09.171.188.251.286a1.512,1.512,0,0,1,.515.593.9.9,0,0,1,.082.468,1.915,1.915,0,0,1-.2,1.784,1.8,1.8,0,0,1-2.579.415A2.254,2.254,0,0,1,568.659,273.527Z" transform="translate(-500.323 -272.117)" fill="#fb7a54"/>
                <path id="Path_9477" data-name="Path 9477" d="M558.073,275.768a1.473,1.473,0,0,1,1.614.407.846.846,0,0,1,.088,1.091.87.87,0,0,1-.819.656,1.436,1.436,0,0,1-1.42-.834A.917.917,0,0,1,558.073,275.768Z" transform="translate(-510.497 -269.282)" fill="#fb7a54"/>
                <path id="Path_9478" data-name="Path 9478" d="M533.994,272.932c.879-.854,2.044-.5,3.023-.047s.268,1.774-.664,1.612a1.373,1.373,0,0,1-.055.272,1.518,1.518,0,0,1-2.3.507A1.559,1.559,0,0,1,533.994,272.932Z" transform="translate(-533.463 -272.411)" fill="#fb7a54"/>
                <path id="Path_9479" data-name="Path 9479" d="M599.764,274.889a.8.8,0,0,1,.6-.262c.022-.008.033-.023.057-.031a1.833,1.833,0,0,1,1.4,3.372C599.856,278.958,598.356,276.346,599.764,274.889Z" transform="translate(-470.46 -270.403)" fill="#fb7a54"/>
              </g>
            </g>
            <path id="Path_9480" data-name="Path 9480" d="M621.995,271.57s-3.027,5.33-13.218,5.63-13.479-.211-18.274,3.384-20.969,3.167-27.566-.067-10.067-3.537-14.865-2.338-11.614,0-13.953-2.693-14.039-5.99-14.039-5.99Z" transform="translate(-509.641 -272.042)" opacity="0.1"/>
            <path id="Path_9481" data-name="Path 9481" d="M706.87,271.57s-3.027,5.33-13.218,5.63-21.578.589-27.415,1.958c-6.445,1.514-13.718,3.478-20.317.245s-8.176-2.422-12.973-1.224-11.614,0-13.953-2.693-14.039-5.99-14.039-5.99Z" transform="translate(-428.31 -272.042)" opacity="0.1"/>
          </g>
        </g>
        <g id="Group_6059" data-name="Group 6059" transform="translate(23.729 41.576)">
          <g id="Group_6050" data-name="Group 6050" transform="translate(180.382 273.208)">
            <path id="Path_9483" data-name="Path 9483" d="M633.006,268.15c1.318,1.065.717,2.589.869,3.924.127,1.046-.636,1.377-1.549,1.383-2.213,0-4.426.047-6.627-.053s-4.394-.343-6.6-.527c-.037-.219-.088-.437-.123-.666,2.412-1.365,4.825-2.773,7.275-4.075a3.8,3.8,0,0,1,1.751-.19c1.471.029,2.955.117,4.428.184C632.628,268.13,632.884,268.056,633.006,268.15Z" transform="translate(-618.981 -267.934)" fill="#4f9ba3"/>
            <path id="Path_9484" data-name="Path 9484" d="M640.227,273.415c2.338-1.751,4.712-3.452,7.136-5.07a3.636,3.636,0,0,1,1.909-.276c1.664.027,3.319.141,5.644.251.006,1.592.016,3.38.024,5.168,0,.815-.284,1.377-1.183,1.4-4.33.145-8.646.3-12.973.405a4.425,4.425,0,0,1-1.365-.443C639.682,274.367,639.825,273.709,640.227,273.415Z" transform="translate(-599.397 -267.81)" fill="#4f9ba3"/>
          </g>
          <path id="Path_9485" data-name="Path 9485" d="M624.443,210.171c2.626-.149,5.25-.307,7.876-.417,11.928-.535,23.842-1.042,35.769-1.588,2.115-.1,4.23-.36,6.343-.529a3.1,3.1,0,0,1,1.5-.033,2.422,2.422,0,0,1,1.063,1.236c.061.206-.507.83-.885.94a8.6,8.6,0,0,1-2.1.231q-14.552.743-29.092,1.469c-4.038.215-8.072.417-13.361.685-1.5.008-4.22.022-6.956.023-.729,0-1.447-.043-1.416-1.087C623.215,210.249,623.833,210.21,624.443,210.171Z" transform="translate(-434.574 -52.622)" fill="#d1a76b"/>
          <path id="Path_9486" data-name="Path 9486" d="M622.349,290.036c.376-9.815.779-19.616,1.13-29.432.149-4.245.178-8.5.292-12.758q.464-16.382.956-32.777c.022-.511.055-1.01.088-1.52.055-1.132.685-1.584,1.78-1.59,1.52-.031,3.027-.088,4.547-.157q21.83-1.022,43.669-2.052c4.052-.19,4.11-.19,3.9,3.979-.476,9.2-1.052,18.38-1.5,27.566-.333,6.774-.48,13.559-.775,20.332q-.82,18.649-1.735,37.306c-.088,1.909-.347,3.819-.423,5.742-.055,1.314-.66,1.766-1.913,1.725-2.929-.07-5.861-.094-8.8-.09a1.445,1.445,0,0,1-1.635-1.392q-.455-3.3-.946-6.6c-2.342-16.126-4.647-32.239-7.05-48.351-.478-3.2-1.271-6.354-1.992-9.511a12.306,12.306,0,0,1-.018-6c.668-2.642,1.247-5.309,1.759-7.986.082-.427-.419-.958-.652-1.443-.352.306-.909.552-1.016.928-.609,2.131-1.195,4.287-1.633,6.466-4.214,21.045-9.484,41.818-15.656,62.362-.838,2.812-1.872,5.567-2.732,8.368a1.921,1.921,0,0,1-2.144,1.641c-1.921-.123-3.832-.272-5.742-.409-1.022-.069-1.33-.627-1.333-1.6.016-4.257-.031-8.5-.051-12.758C622.592,290.036,622.472,290.036,622.349,290.036Z" transform="translate(-435.371 -50.539)" fill="#a5a5a5"/>
          <path id="Path_9487" data-name="Path 9487" d="M656.844,150.62c.065.887-.321,1.339-1.185,1.369-2.115.047-4.232.069-6.358.08q-3.322.032-6.666.045v-.17c-3.94.02-7.88.086-11.82.047-2.4-.025-2.579-.292-2.105-2.714.237-1.181.621-2.35.848-3.531,1.054-5.5,4.663-8.366,9.9-9.255C647.9,135.05,656.025,140.277,656.844,150.62Z" transform="translate(-429.477 -120.905)" fill="#d1a76b"/>
          <path id="Path_9488" data-name="Path 9488" d="M641.529,146.447a11.935,11.935,0,0,0-2.32.681c-1.772.629-1.772.64-2.088-1.825,3.548-.02,7.075-.061,10.6-.018a1.877,1.877,0,0,1,1.463.783c1.157,3.108,2.851,6.078,2.7,9.533a3.3,3.3,0,0,1-.817,2.144c-2.738,2.336-5.585,4.539-8.54,6.913-.4-1.774.376-2.738,1.259-3.787a33.773,33.773,0,0,0,3.116-4.443,8.1,8.1,0,0,0,.725-5.6C647.055,147.612,644.772,145.98,641.529,146.447Z" transform="translate(-421.216 -112.271)" fill="#4f9ba3"/>
          <path id="Path_9489" data-name="Path 9489" d="M658.177,164.833c6.558-1.541,12.644-2.98,18.584-4.384.331.3.6.433.588.556-.208,2.518.909,4.363,2.693,6.067a15.9,15.9,0,0,1,4.308,7.9c2.232,8.926,4.635,17.816,6.662,26.781,2.375,10.567,4.531,21.172,6.591,31.8a120.363,120.363,0,0,1,1.659,13.236c.259,3.28-.407,3.832-3.75,4.1q-21.5,1.821-43.06,2.148c-2.117.024-4.244.264-6.358.311-2.14.047-2.6-.376-3.272-2.393a11.329,11.329,0,0,1,.162-6.578,75.446,75.446,0,0,1,2.334-7.21c2.221-5.875,4.563-11.7,6.772-17.558a9.93,9.93,0,0,1,2.5-3.709c3.556-3.46,6.993-7.04,10.453-10.582a7.369,7.369,0,0,0,1.112-1.418.853.853,0,0,0-.137-.789c-.161-.18-.636-.311-.781-.2a19.227,19.227,0,0,0-2.07,1.725c-3.74,3.705-7.32,7.588-11.231,11.1a51.9,51.9,0,0,1-28.171,13.191,42.3,42.3,0,0,1-15.668-.958c-4.173-1-7.077-5.048-7.257-9.462a11.362,11.362,0,0,1,9.11-11.973,78.22,78.22,0,0,1,10.2-1.449,8.954,8.954,0,0,0,5.9-2.534c10.794-10.257,21.7-20.391,32.558-30.564.787-.734,2.133-1.394,2.213-2.2.094-.889-.969-1.9-1.508-2.863C659.011,166.412,658.743,165.889,658.177,164.833Z" transform="translate(-455.992 -97.722)" fill="#6bb5d1"/>
          <path id="Path_9490" data-name="Path 9490" d="M596.832,179.416c.078,1.167-.441,1.68-1.561,1.71-.5,0-1.006.067-1.506.069-2.14-.014-2.458-.231-2.567-2.383-.216-4.328-.356-8.655-.464-12.995-.045-1.813.088-1.958,1.827-1.968,4.741,0,4.177-.822,4.13,4.077-.018,1.606-.155,3.223-.233,4.661C596.58,174.979,596.676,177.2,596.832,179.416Z" transform="translate(-465.672 -94.514)" fill="#f5f5f5"/>
          <g id="Group_6051" data-name="Group 6051" transform="translate(96.629 69.135)">
            <path id="Path_9491" data-name="Path 9491" d="M625.646,210.45a236.711,236.711,0,0,1-34.256-.241c-3.419-.323-6.815-.828-10.234-1.251a2.2,2.2,0,0,1-2.223-2.056c-.294-2.612-.574-5.227-.868-7.839a2.323,2.323,0,0,1,1.471-2.648c5.654-2.7,11.283-5.477,16.947-8.156a2.478,2.478,0,0,1,1.948-.072c2.058,1.146,3.94.54,5.785-.38,2.062-1.032,4.089-2.172,6.221-3.313.192,1.931.272,3.427.5,4.909.176,1.13-.174,1.727-1.328,1.88-.9.125-1.8.313-2.685.5-2.818.625-4.355,2.113-4.439,4.937a29.406,29.406,0,0,0,.691,6.9,5.01,5.01,0,0,0,4.947,4.146c4.379.356,8.695.227,12.834-1.461.848-.345,1.721-.6,2.559-.95a3.48,3.48,0,0,1,3.127.129,38.616,38.616,0,0,0,5.409,1.835c.656.215,1.606.272,1.294,1.257a2.223,2.223,0,0,1-1.357,1.3C629.89,210.176,627.775,210.333,625.646,210.45Z" transform="translate(-574.458 -143.817)" stroke="rgba(0,0,0,0)" stroke-width="1" fill="url(#linear-gradient)"/>
            <path id="Path_9492" data-name="Path 9492" d="M589.505,200.377c-3.486.977-6.883,2.283-10.708,3.591-.266-2.1-.615-3.95-.732-5.81-.636-10.394-1.2-20.787-1.847-31.181-.067-1.144.307-1.778,1.4-1.915,2.6-.343,5.2-.817,7.815-.916,5.046-.182,10.116-.17,15.174-.208,2-.01,2.042.012,2.127,2.007.167,4.244.272,8.487.452,12.731.153,3.756,1.018,4.529,4.849,4.463.511-.016,1.022-.018,1.521-.082,2.71-.353,3.12-.95,3.057-3.783-.084-4.549-.057-9.1-.092-13.643-.006-1.181.317-1.937,1.7-1.907,7.189.161,14.375.172,21.541.464,3.429.143,3.724.727,3.946,4.044.513,7.5-.2,14.959-.68,22.426-.167,2.726-.386,5.45-.482,8.176-.041,1.191-.341,1.909-1.666,2-.9.067-1.786.362-2.673.513a13.328,13.328,0,0,0-10.253,7.224,7.644,7.644,0,0,1-.772,1c-3.2-2.123-4.992-6.1-9.964-5.761,1.369-1.054,2.217-1.739,3.088-2.387a2.922,2.922,0,0,0,1.063-3.764c-.871-2.025-1.48-4.187-3.178-5.808a6.163,6.163,0,0,1-1.422-2.291,2.463,2.463,0,0,0-3.1-1.723c-.593.1-1.189.211-1.786.325a6.44,6.44,0,0,1-2.638.378c-.462-.131-.468-1.457-.958-1.978a4.465,4.465,0,0,0-2.17-1.337,2.056,2.056,0,0,0-2.4,1.42c-.229.56-.372,1.157-.552,1.731-.286.973-.585,1.935-.848,2.91C597.046,195.926,594.278,199.039,589.505,200.377Z" transform="translate(-576.211 -163.722)" stroke="rgba(0,0,0,0)" stroke-width="1" fill="url(#linear-gradient)"/>
          </g>
          <g id="Group_6052" data-name="Group 6052" transform="translate(6.406 272.024)">
            <path id="Path_9493" data-name="Path 9493" d="M565.768,273.046c-.059.219-.131.439-.192.644-1.459.057-2.918.137-4.377.133-2.626.014-5.254.014-7.868-.082-2.467-.1-2.712-.474-2.313-2.992a8.531,8.531,0,0,0,.178-.891c.08-1.263.562-1.837,1.939-1.443a4.04,4.04,0,0,0,2.36.145c2.015-.738,3.5.131,5.052,1.169C562.255,270.874,564.023,271.947,565.768,273.046Z" transform="translate(-510.277 -266.414)" fill="#a5a5a5"/>
            <path id="Path_9494" data-name="Path 9494" d="M538,267.814c2.256,1.678,4.441,3.466,6.775,5.326-.39.258-.619.529-.838.529-3.952-.018-7.892-.021-11.845-.135-1.884-.053-2.066-.329-1.919-2.2.1-1.4.3-2.786.443-3.967,2.129-.012,3.8-.068,5.471,0A3.558,3.558,0,0,1,538,267.814Z" transform="translate(-530.138 -267.329)" fill="#a5a5a5"/>
          </g>
          <path id="Path_9495" data-name="Path 9495" d="M584.713,213.947c1.118-.006,1.717.429,1.614,1.633-.057.7-.031,1.41-.074,2.117-.707,9.889-1.435,19.778-2.1,29.667q-1.257,18.485-2.4,36.979c-.36,5.657-.636,11.324-.973,16.982-.135,2.262-.159,2.262-2.444,2.493-.3.037-.607.051-.911.067-5.119.194-5.266.135-6.556-4.8-4.2-16.067-7.894-32.235-10.577-48.637q-1.883-11.535-3.823-23.06a23.262,23.262,0,0,0-.723-3.255c-.161-.486-.734-1.238-1.063-1.2-1.009.09-.7,1-.648,1.668a12.4,12.4,0,0,0,.251,1.494c.313,1.8.613,3.584.938,5.383a16.935,16.935,0,0,1-.484,7.8c-4.22,14.5-6.727,29.389-9.509,44.213-1.126,5.965-2.252,11.928-3.427,17.881-.4,2.117-.462,2.142-2.507,2.068-2.528-.072-5.058-.217-7.588-.352-2.2-.11-2.287-.121-2.336-2.516-.078-3.746-.026-7.49-.043-11.223q-.079-15.962-.159-31.91c.157,0,.315,0,.486,0-.057-11.734-.141-23.47-.163-35.217,0-2.93.153-5.873.347-8.793.133-2.1.329-2.215,2.385-2.091,9.707.574,19.414,1.193,29.119,1.692,7.177.366,14.366.56,21.541.842C583.5,213.89,584.1,213.963,584.713,213.947Z" transform="translate(-524.656 -48.992)" fill="#a5a5a5"/>
          <path id="Path_9496" data-name="Path 9496" d="M545.2,172.745a9.26,9.26,0,0,0,1.384,2,4.234,4.234,0,0,1,1.13,5.1,13.73,13.73,0,0,1-1.488-1.316,33.927,33.927,0,0,1-6.9-13.04,18.087,18.087,0,0,1-.035-9.29c1.445-5.673,5.041-8.72,10.864-8.64a5.584,5.584,0,0,0,5.023-2.493,44.09,44.09,0,0,1,17.808-13.792,21.5,21.5,0,0,1,14.244-1.226c4.849,1.312,6.918,4.574,6.19,9.588A16.5,16.5,0,0,1,587.1,150.37c-8.187,6.509-17.436,10.142-28.042,9.77a2.531,2.531,0,0,1-.3-.012c-2.191-.427-4.014-.076-4.706,2.418a30.82,30.82,0,0,0-3.862-1.33c-3.58-.7-6.074,1.21-6.542,4.872A10.105,10.105,0,0,0,545.2,172.745Z" transform="translate(-515.528 -127.529)" fill="#a5a5a5"/>
          <g id="Group_6053" data-name="Group 6053" transform="translate(43.301 37.903)">
            <path id="Path_9497" data-name="Path 9497" d="M562.851,150.041a3.374,3.374,0,0,1-3.4,3.762,4.007,4.007,0,0,1-3.619-4.044,1.622,1.622,0,0,1,1.451-1.649,21.636,21.636,0,0,1,3.292-.333C562.391,147.72,562.806,148.169,562.851,150.041Z" transform="translate(-542.413 -147.773)" fill="#5db3c1"/>
            <path id="Path_9498" data-name="Path 9498" d="M555.911,148.139a1.267,1.267,0,0,1,.807.727c.961,2.839-1.892,6.212-4.786,5.7-1.631-.284-3.46-3.484-2.824-5.082a1.763,1.763,0,0,1,1.128-.772c1.275-.286,2.575-.462,3.378-.589A15.129,15.129,0,0,1,555.911,148.139Z" transform="translate(-548.979 -147.471)" fill="#5db3c1"/>
          </g>
          <g id="Group_6054" data-name="Group 6054" transform="translate(126.479 32.928)">
            <path id="Path_9499" data-name="Path 9499" d="M646.727,260.035c1.024.02,2.082-.12,2.017,1.461-.155,3.625-.172,7.249-.386,10.874-.09,1.569-.756,2.023-2.07,1.894-.8-.069-1.3-.407-1.3-1.318.016-1.921-.006-3.83-.016-5.751h-.268c-.01-1.907-.006-3.817-.041-5.74C644.636,259.9,645.7,260.015,646.727,260.035Z" transform="translate(-540.464 -35.232)" fill="#ead6c1"/>
            <path id="Path_9500" data-name="Path 9500" d="M624.353,260.5c.041-1.837,1.5-1.163,2.475-1.277,1.118-.127,1.29.517,1.247,1.49-.2,4.124-.263,8.246-.523,12.358-.1,1.69-.864,2.107-2.362,1.76a1.492,1.492,0,0,1-1.347-1.67c.039-2.007-.006-4.012-.016-6.02l.546,0C624.363,264.929,624.316,262.719,624.353,260.5Z" transform="translate(-560.433 -36.026)" fill="#ead6c1"/>
            <path id="Path_9501" data-name="Path 9501" d="M653.729,148.6c1.841.963,1.986,2.9,1.825,4.794a9.09,9.09,0,0,1-3.255,6c-1.633,1.431-2,3.135-2.236,5.07-.327,2.714-.787,5.4-1.126,8.105a1.732,1.732,0,0,1-1.549,1.6c-2.248.462-4.5.9-7.157,1.435a31.394,31.394,0,0,1,.736-5.9c.47-1.486-.055-1.666-1.175-2.072a38.588,38.588,0,0,1-4.96-2.227,7.126,7.126,0,0,1-2.066-1.753c-.818-.958-1.3-2.317-2.275-2.98-.914-.617-2.289-.56-3.4-.8-.051-.39-.161-.633-.076-.754a15.241,15.241,0,0,0,2.456-10.058c-.286-3.791-.031-3.83,3.813-3.824,2.929,0,5.861.141,8.791.053a2.425,2.425,0,0,1,2.843,2.005,11.727,11.727,0,0,0,.286,1.177c.864,2.5,1.363,2.646,3.458,1.114C650.189,148.455,651.938,147.668,653.729,148.6Z" transform="translate(-557.406 -145.232)" fill="#ead6c1"/>
            <path id="Path_9502" data-name="Path 9502" d="M600.779,185.275a9.7,9.7,0,0,1,2.1,1.169c.5.349.867.846,1.332,1.243,1.22,1.054,2.928,1.86,3.568,3.18.625,1.288-.059,3.164.276,4.668.536,2.334,1.459,4.578,2.324,7.153a25.722,25.722,0,0,1-14.544,2.6c-2.348-.329-3.3-.907-3.8-3.2a24.931,24.931,0,0,1-.574-5.7c.063-2.115.981-2.947,3.12-3.433,1.191-.274,2.4-.413,3.572-.734,1.905-.535,2.207-1.069,1.905-3.074-.151-1-.386-1.992-.464-3A.8.8,0,0,1,600.779,185.275Z" transform="translate(-591.454 -106.947)" fill="#ead6c1"/>
          </g>
          <g id="Group_6055" data-name="Group 6055" transform="translate(8.361 33.786)">
            <path id="Path_9503" data-name="Path 9503" d="M612.326,175.732a3.456,3.456,0,0,1,.625.932c.3.911.231,2.348.817,2.673.67.372,1.884-.192,2.855-.38.6-.123,1.167-.37,1.749-.5,1.931-.421,2.614-.231,3.437,1.443.92,1.868,2.389,3.478,3.382,5.322,1.228,2.291,1.132,2.767-1.157,4.175-3.092,1.913-6.343,3.558-9.5,5.35a2.9,2.9,0,0,1-3.417-.008c-1.292-.991-2.385-.439-3.611.19q-20.3,10.26-40.635,20.46a11.842,11.842,0,0,1-1.324.407c2.164-5.24,4.159-9.979,6.069-14.744a2.515,2.515,0,0,1,2.023-1.592c9.523-2.127,18.306-6.437,27.607-9.219,4.625-1.373,7.31-4.439,8.687-8.9.515-1.645.993-3.29,1.555-4.909C611.6,176.137,612.037,175.965,612.326,175.732Z" transform="translate(-498.16 -116.864)" fill="#ead6c1"/>
            <path id="Path_9504" data-name="Path 9504" d="M551.9,272.9c-.016-3.221.115-6.447.184-9.668.008-.7.065-1.412.014-2.105-.092-1.153.354-1.643,1.549-1.625,1.774.053,2.091.2,2.146,1.694.082,1.919.045,3.83.055,5.738h-.221c.012,2.021.068,4.038.02,6.045-.029,1.7-.441,2.154-1.751,2.223C552.455,275.284,551.918,274.786,551.9,272.9Z" transform="translate(-511.244 -36.59)" fill="#ead6c1"/>
            <path id="Path_9505" data-name="Path 9505" d="M531.181,272.089c-.07-2.019-.033-4.024-.043-6.043.061,0,.135,0,.2,0-.01-1.715.02-3.429-.039-5.144-.055-1.347.54-1.717,1.817-1.649,2.262.11,2.383.133,2.225,2.469-.251,3.417-.574,6.825-.824,10.255-.068.924-.345,1.559-1.4,1.551C532.111,273.52,531.222,273.256,531.181,272.089Z" transform="translate(-531.136 -36.84)" fill="#ead6c1"/>
            <path id="Path_9506" data-name="Path 9506" d="M555.2,149.41a2.41,2.41,0,0,0-1.4,1.649,7.308,7.308,0,0,0,.088,3c.56,2.706,2.307,4.486,4.486,4.755a7.036,7.036,0,0,0,6.257-3.509c.131-.266.192-.584.335-.852.652-1.292,1.283-1.4,2.127-.313.993,1.271,1.909,2.593,3.026,4.144-2.368.887-3.576,2.826-5,4.572-1.874,2.283-4.482,3.39-7.24,4.181-.668.2-1.555.288-1.905.764-.278.38.127,1.253.129,1.909.047,1.69.031,3.392.041,5.387-2.546-.656-4.882-1.216-7.173-1.911a2.01,2.01,0,0,1-1.161-1.21c-.744-2.9-2.144-5.742-1.21-8.857.562-1.864-.018-3.223-1.349-4.616a12.884,12.884,0,0,1-2.536-4.085,8.433,8.433,0,0,1-.494-3.828c.264-2.7,2.121-3.864,4.7-3.088a7.372,7.372,0,0,1,2.354,1.279c2.076,1.666,2.111,1.741,3.168-.856a2.276,2.276,0,0,1,2.462-1.653c3.221-.053,6.443-.264,9.652-.584a1.759,1.759,0,0,1,2.184,1.447c.519,1.567-.071,2.859-.576,4.187-.231-.023-.462-.033-.691-.045-.151-.474-.323-.934-.446-1.408a1.741,1.741,0,0,0-2.025-1.414C560.407,148.727,557.781,148.948,555.2,149.41Z" transform="translate(-520.548 -145.67)" fill="#ead6c1"/>
          </g>
          <path id="Path_9507" data-name="Path 9507" d="M576.633,166.021c-.774,1.063-1.582,2.2-2.391,3.319-.47.672-.445,1.146.227,1.8,10.727,10.306,21.02,21.041,31.24,31.876,2.716,2.879,3.235,5.15,1.649,8.659-3.609,8.033-6.875,16.208-10.3,24.312-.073.17-.266.282-.64.65a20.761,20.761,0,0,1-1.433-2.183q-6.947-13.665-13.866-27.353a25.622,25.622,0,0,0-1.251-2.415,1.052,1.052,0,0,0-.975-.323,1.148,1.148,0,0,0-.433.975,6.308,6.308,0,0,0,.605,1.7c1.4,3.033,2.728,6.1,4.263,9.063a16.265,16.265,0,0,1,1.817,6.033c1.142,11.791,2.332,23.579,3.5,35.37.067.7.08,1.41.147,2.117.1,1.057-.419,1.473-1.418,1.428-.609-.02-1.216-.018-1.825-.051q-26.836-1.307-53.687-2.663c-1.277-.069-2.556-.378-3.942-.589,3.552-14.293,6.946-28.332,10.537-42.322,2.661-10.385,5.528-20.712,8.407-31.038,1.042-3.7,2.348-7.318,3.644-10.95a17.873,17.873,0,0,1,4.96-7.516c1.4-1.247,2.638-2.5,2.36-4.631-.125-.96.589-1.206,1.406-.967q8.421,2.491,16.841,5.046C576.228,165.414,576.328,165.657,576.633,166.021Z" transform="translate(-525.863 -97.927)" fill="#fe737a"/>
          <g id="Group_6056" data-name="Group 6056" transform="translate(4.088 6.885)" opacity="0.2">
            <path id="Path_9508" data-name="Path 9508" d="M547.024,177.916l.891-4.261-3.979-5.757s.156-4.956,2.552-6.092,6.231-.335,6.231-.335l1.661-2.593,13.065-.826,11.532-4.161,9.842-7.5,4.369-8.23L593,131.933s-8.906,12.357-15.427,15.431-23.374,6.956-25.5,7.269-5.6,4.437-5.6,4.437L544.2,160.3l-1.187,5.935a4.253,4.253,0,0,1-1.508,2.287l-1.363,1.224,5.667,8.33Z" transform="translate(-518.232 -131.933)"/>
            <path id="Path_9509" data-name="Path 9509" d="M544.377,160.93l-.6,1.522-2.72,3.664s12.157-.668,11.391-1.88S544.377,160.93,544.377,160.93Z" transform="translate(-517.355 -104.147)"/>
            <path id="Path_9510" data-name="Path 9510" d="M659.671,179.452s-7.723,5.812-10.757,7.2-3.5.323-6.529,1.553-40.647,17.986-40.647,17.986l-1.046,3.652-22.8-23.891-4.251,56.1-44.39-.993-.3,92.57,3.5.439-.225,15.962-2.123.922.8,8.052,16.718-.386-13.24-3.127.5-21.131,6.687-.184,1.958-3.507,1.318-10.038s-3.19.319-5.945-3.619-3.591-18.983-3.591-18.983l-.566-53.045L587.5,247.3l-.168-3.5,1.059-.916L585.3,201.862l9.971,18.19,3.615-6.1,24.566-12.131.627,3.646,20.471-9.83a6.469,6.469,0,0,0,3.8-.02c2.278-.619,14.7-7.978,14.7-7.978s0-1.063-.008-1.67S659.671,179.452,659.671,179.452Z" transform="translate(-528.954 -86.398)"/>
            <path id="Path_9511" data-name="Path 9511" d="M562.777,298.518l5.873-.842.758-10.743s-4.259-.587-5.888-2.2-2.45-3.433-3.476-6.063-17.732-60.917-17.732-60.917l7.106,43.336,9.092,35.017,1.631,2.019-.12,17.025-1.815,1.631.029,5.877,16.014.73,1.208-1.625L563.086,320.2Z" transform="translate(-516.155 -49.698)"/>
          </g>
          <g id="Group_6057" data-name="Group 6057" transform="translate(99.826 32.311)" opacity="0.2">
            <path id="Path_9512" data-name="Path 9512" d="M673.118,197.108l-5.1,13.706s7.138-1.708,10.61-6.133,8.857-22.236,8.857-22.236-25.612,15.176-37.3,19.034-26.748,1.2-26.748,1.2a43.544,43.544,0,0,1-10.784,1.574c-7.144.337-8.824-1.477-8.824-1.477l2.15,4.549s-.756.458-8.356.5-19.782-4.007-19.782-4.007l.95,7.14,15.821,2.657,22.5.192,17.17-1.606.137-3.039,12.613-.366,14.873-4.786Z" transform="translate(-577.844 -108.956)"/>
            <path id="Path_9513" data-name="Path 9513" d="M680.554,219.29l-1.208-4.089.276-.012-.773-2.426,1.5-3.807-1.257-8.356s-13.635,9.341-26.554,9.405-31.015-1.063-31.015-1.063l1.547,5.162.776,3.341,12.165-.492c-.1.278-.4.654-1.218,1.044-1.655.791-8.046,1.711-8.046,1.711s24.47-.274,33.455,2.875c5.148,1.8,10.733,3.65,14.575,4.9-1.089,12.9-4.582,54.067-5.232,60.21-.774,7.3-2.595,8.117-4,10.557s-5.048,3.472-5.048,3.472l1.894,13.77,6.891-.033-.7,21.486-12.75,3.307,17.023-.086.572-7.1-2.035-1.61.938-15,3.437-1.841,4.432-87.375-.435-.307Z" transform="translate(-535.987 -91.558)"/>
            <path id="Path_9514" data-name="Path 9514" d="M631.855,288.422a10.848,10.848,0,0,1-6.272,2.262l.235,6.28,5.475.987-.912,20.07-11.945,2.693,1.22.8,15,.736.582-5.475-1.429-2.019.527-16.42,2.019-1.429,9.167-31.459,11.315-47.632-22.011,66.991S634.477,286.18,631.855,288.422Z" transform="translate(-538.948 -75.058)"/>
            <path id="Path_9515" data-name="Path 9515" d="M642.388,160.99s-5.908,3.678-4.684,5.191,9.276,1.018,9.276,1.018l-3.823-4.541Z" transform="translate(-520.644 -129.515)"/>
            <path id="Path_9516" data-name="Path 9516" d="M627.757,147.175l18.092.366.313,1.974,5.309-2.154,3.357,2.264.779,3.948-.895,3.654-3.93,4.273-.284,4.106,3.494-.775,7.717-6.729-.178-5.168a44.113,44.113,0,0,1-7.639-8.017l-26.142.129Z" transform="translate(-530.023 -144.917)"/>
          </g>
          <g id="Group_6058" data-name="Group 6058" transform="translate(42.009 6.187)">
            <path id="Path_9517" data-name="Path 9517" d="M560.336,131.693a10.827,10.827,0,0,0-4.177,2.36c-2.262,1.741-3.946,4.042-1.79,5.281,1.894,1.089,4.712.008,6.349-1.063,1.406-.92,4.016-2.577,3.779-4.531S561.938,131.325,560.336,131.693Z" transform="translate(-543.477 -131.576)" fill="#f5f5f5"/>
            <path id="Path_9518" data-name="Path 9518" d="M553.508,137.007c-.306-1.079-1.369-1.008-2.283-.862a1.124,1.124,0,0,0-1.1.307,2.738,2.738,0,0,0-.607,2.914c.6,1.159,1.968.916,2.814.206A2.811,2.811,0,0,0,553.508,137.007Z" transform="translate(-547.38 -127.277)" fill="#f5f5f5"/>
            <path id="Path_9519" data-name="Path 9519" d="M550.906,148.175a33.893,33.893,0,0,0-1.827,3.548c-.022.006-.043,0-.067.01a.639.639,0,0,0-.443.589.769.769,0,0,0,.546.777.619.619,0,0,0,.672-.211.579.579,0,0,0,.2-.3c.014-.025.029-.047.043-.07.625-1.263,1.2-2.526,1.925-3.74A.607.607,0,0,0,550.906,148.175Z" transform="translate(-548.078 -115.952)" fill="#f5f5f5"/>
            <path id="Path_9520" data-name="Path 9520" d="M553.316,147.816q-1.991,3.4-3.7,6.946c-.339.7.713,1.314,1.053.609q1.713-3.548,3.7-6.946A.609.609,0,0,0,553.316,147.816Z" transform="translate(-547.142 -116.296)" fill="#f5f5f5"/>
            <path id="Path_9521" data-name="Path 9521" d="M554.651,148q-2.053,3.634-3.781,7.43c-.321.707.73,1.322,1.053.607q1.73-3.8,3.779-7.428A.608.608,0,0,0,554.651,148Z" transform="translate(-545.933 -116.125)" fill="#f5f5f5"/>
            <path id="Path_9522" data-name="Path 9522" d="M557.992,147.834c-.527,1.651-1.653,3.008-2.434,4.539-.356.693.7,1.306,1.054.607.832-1.631,1.992-3.067,2.556-4.829C559.406,147.4,558.229,147.09,557.992,147.834Z" transform="translate(-541.452 -116.405)" fill="#f5f5f5"/>
            <path id="Path_9523" data-name="Path 9523" d="M559.9,147.582a61.07,61.07,0,0,0-3.586,6.648c-.327.709.723,1.32,1.052.611a61.55,61.55,0,0,1,3.586-6.65C561.365,147.525,560.309,146.92,559.9,147.582Z" transform="translate(-540.719 -116.513)" fill="#f5f5f5"/>
            <path id="Path_9524" data-name="Path 9524" d="M561.128,148.38c-.95,1.88-2.514,3.345-3.456,5.227-.351.7.7,1.308,1.053.607.942-1.88,2.508-3.347,3.456-5.223C562.532,148.292,561.48,147.683,561.128,148.38Z" transform="translate(-539.425 -115.77)" fill="#f5f5f5"/>
            <path id="Path_9525" data-name="Path 9525" d="M559.4,175.062a17.508,17.508,0,0,0-2.209-2.585c-.789-1.492-2.06-3.012-3.752-3.223-1.937-.243-2.229,1.52-1.714,2.9a2.5,2.5,0,0,0,.063.343,4.1,4.1,0,0,0,1.048,1.467c.382.507.781,1,1.142,1.518.66.944,1.189,1.968,1.89,2.883.9,1.177,2.783,2.863,4.281,1.531C561.675,178.536,560.306,176.323,559.4,175.062Z" transform="translate(-545.272 -95.494)" fill="#f5f5f5"/>
            <path id="Path_9526" data-name="Path 9526" d="M562.046,177.377a2.629,2.629,0,0,0-1.8-1.33,1.154,1.154,0,0,0-.5-.255c-1.729-.4-2.011,1.586-1.651,2.8a4.179,4.179,0,0,0,2.177,2.581,1.24,1.24,0,0,0,1.782-.734A3.65,3.65,0,0,0,562.046,177.377Z" transform="translate(-539.082 -89.257)" fill="#f5f5f5"/>
            <path id="Path_9527" data-name="Path 9527" d="M576.959,187.688a5.274,5.274,0,0,0-3.313.245,5.132,5.132,0,0,0-2.749,1.249,1.412,1.412,0,0,0,.711,2.246c.936.3,2.27-.194,3.18-.419,1.032-.255,2.416-.456,2.908-1.539A1.233,1.233,0,0,0,576.959,187.688Z" transform="translate(-526.99 -77.959)" fill="#f5f5f5"/>
            <path id="Path_9528" data-name="Path 9528" d="M594.62,178.394a2.7,2.7,0,0,0-2.107-.076,2.608,2.608,0,0,0-1.234.607,1.794,1.794,0,0,0-.413,2.172,1.941,1.941,0,0,0,2.3.533,3.326,3.326,0,0,0,1.9-1.573A1.225,1.225,0,0,0,594.62,178.394Z" transform="translate(-507.749 -86.959)" fill="#f5f5f5"/>
            <path id="Path_9529" data-name="Path 9529" d="M578.94,186.185a1.344,1.344,0,0,0-.155-.088c-.039-.016-.078-.025-.117-.037a1.433,1.433,0,0,0-.736-.063,3.375,3.375,0,0,0-1.275.533,1.223,1.223,0,0,0,.948,2.219,4.171,4.171,0,0,0,1.406-.493A1.171,1.171,0,0,0,578.94,186.185Z" transform="translate(-521.724 -79.45)" fill="#f5f5f5"/>
            <path id="Path_9530" data-name="Path 9530" d="M591.317,166.285a1.252,1.252,0,0,0-1.136-1.122c-.331-.031-.662-.057-.995-.086a10.4,10.4,0,0,0-4.76-.051c-.349.031-.7.055-1.05.114-1.355.221-3.727.674-4.381,2.117-1.639,3.619,6.564,3.546,8.311,3.433,1.5-.1,3.39-.233,4.244-1.688A2.32,2.32,0,0,0,591.317,166.285Z" transform="translate(-519.13 -99.764)" fill="#f5f5f5"/>
            <path id="Path_9531" data-name="Path 9531" d="M587.791,165.676l-.421.09a1.187,1.187,0,0,0-.862,1.2,1.112,1.112,0,0,0,1.136,1.428,1.659,1.659,0,0,0,1.529-.942A1.235,1.235,0,0,0,587.791,165.676Z" transform="translate(-511.75 -98.932)" fill="#f5f5f5"/>
            <path id="Path_9532" data-name="Path 9532" d="M552.531,163.442a3.213,3.213,0,0,0-3.01-1.032l-.025,0v0a3.123,3.123,0,0,0-.323.045,1.221,1.221,0,0,0,.335,2.385c.1-.006.206-.008.307-.012a2.346,2.346,0,0,0,1.866.687A1.233,1.233,0,0,0,552.531,163.442Z" transform="translate(-548.319 -102.076)" fill="#f5f5f5"/>
            <path id="Path_9533" data-name="Path 9533" d="M597.711,191.458a2.009,2.009,0,0,0-.123-.333c-.87-1.6-2.779-1.216-4.095-.529a1.052,1.052,0,0,0-.505.558,1.37,1.37,0,0,0-.541.732c-.529,1.815,1.661,2.536,3.061,2.418a2.687,2.687,0,0,0,2.025-1.224A1.256,1.256,0,0,0,597.711,191.458Z" transform="translate(-506.11 -75.589)" fill="#f5f5f5"/>
            <path id="Path_9534" data-name="Path 9534" d="M598.647,187.284l-.006,0a1.13,1.13,0,0,0-.9-.117,1.226,1.226,0,0,0-.842,1.5,2.127,2.127,0,0,0,1.085,1.269,1.238,1.238,0,0,0,1.662-.443,1.738,1.738,0,0,0,.223-1A1.257,1.257,0,0,0,598.647,187.284Z" transform="translate(-501.828 -78.348)" fill="#f5f5f5"/>
            <path id="Path_9535" data-name="Path 9535" d="M615.954,185.714a1.081,1.081,0,0,0-1.138-1.365c-2.622.188-5.534-.464-7.986.766-1.621.815-3.012,3.161-.965,4.4,1.073.648,2.877.656,4.1.693a9.03,9.03,0,0,0,3.834-.619C615.26,188.973,617.324,187.252,615.954,185.714Z" transform="translate(-494.157 -81.016)" fill="#f5f5f5"/>
            <path id="Path_9536" data-name="Path 9536" d="M624.625,177.546a5.947,5.947,0,0,0-4.484,2.04,12.369,12.369,0,0,0-1.394,1.533c-.977,1.247-2.918,3.7-1.6,5.27,1.31,1.551,3.787.533,5.121-.4a13.87,13.87,0,0,0,4.625-5C627.742,179.149,626.593,177.618,624.625,177.546Z" transform="translate(-482.79 -87.53)" fill="#f5f5f5"/>
            <path id="Path_9537" data-name="Path 9537" d="M628.224,173.738a2.332,2.332,0,0,0-2.906.362,1.121,1.121,0,0,0-.155.094c-1.108.954-1.98,2.377-1.114,3.8.936,1.535,2.747,1.009,3.758-.114C628.737,176.846,629.759,174.721,628.224,173.738Z" transform="translate(-476.088 -91.518)" fill="#f5f5f5"/>
            <path id="Path_9538" data-name="Path 9538" d="M632.091,169.382a1.154,1.154,0,0,0-.274-.423,1.223,1.223,0,0,0-1.719.008c-.756.967-2.624,2.865-.881,3.9,1.294.772,2.988-.631,3.564-1.723A1.242,1.242,0,0,0,632.091,169.382Z" transform="translate(-471.491 -96.09)" fill="#f5f5f5"/>
            <path id="Path_9539" data-name="Path 9539" d="M640.787,137.092a4.194,4.194,0,0,0-3.629-.1,8.925,8.925,0,0,0-5.344,2.464c-.8.783-1.7,1.925-1.05,3.067.617,1.077,1.872.9,2.861.482,1.369-.574,2.334-1.96,3.8-2.313,1.286-.311,2.982.307,3.948-.9A1.831,1.831,0,0,0,640.787,137.092Z" transform="translate(-469.531 -126.732)" fill="#f5f5f5"/>
            <path id="Path_9540" data-name="Path 9540" d="M639.581,138.794a1.1,1.1,0,0,0-.783-.781,1.08,1.08,0,0,0-1.126.027,1.382,1.382,0,0,0-.014,2.381A1.368,1.368,0,0,0,639.581,138.794Z" transform="translate(-463.357 -125.547)" fill="#f5f5f5"/>
            <path id="Path_9541" data-name="Path 9541" d="M642.2,147.505a4.268,4.268,0,0,0-3.374.443,1.217,1.217,0,0,0,1.24,2.093,1.8,1.8,0,0,1,1.5-.188A1.217,1.217,0,0,0,642.2,147.505Z" transform="translate(-462.145 -116.472)" fill="#f5f5f5"/>
            <path id="Path_9542" data-name="Path 9542" d="M603.52,166.8a1.093,1.093,0,0,0-.354-.775,2.008,2.008,0,0,0-2.833.047,1.925,1.925,0,0,0,.589,2.982,1.879,1.879,0,0,0,2.728-1.614A1.618,1.618,0,0,0,603.52,166.8Z" transform="translate(-498.936 -99.108)" fill="#f5f5f5"/>
            <path id="Path_9543" data-name="Path 9543" d="M582.152,175.127a8.039,8.039,0,0,0-1.292,1.962c-.327.7.724,1.32,1.054.607a7.01,7.01,0,0,1,1.1-1.715C583.53,175.4,582.669,174.538,582.152,175.127Z" transform="translate(-517.197 -90.034)" fill="#f5f5f5"/>
            <path id="Path_9544" data-name="Path 9544" d="M583.286,176.9c-.2.2-.4.407-.607.609a.61.61,0,0,0,.865.858l.6-.613A.607.607,0,0,0,583.286,176.9Z" transform="translate(-515.563 -88.314)" fill="#f5f5f5"/>
            <path id="Path_9545" data-name="Path 9545" d="M586.823,172.876c-.251.354-.5.711-.754,1.067-.452.64.6,1.242,1.053.607.251-.356.5-.711.754-1.067C588.329,172.843,587.271,172.24,586.823,172.876Z" transform="translate(-512.251 -92.26)" fill="#f5f5f5"/>
            <path id="Path_9546" data-name="Path 9546" d="M602.325,179.658a2.889,2.889,0,0,0-1.151,1.621.608.608,0,0,0,1.173.317,1.577,1.577,0,0,1,.6-.893C603.57,180.249,602.959,179.2,602.325,179.658Z" transform="translate(-497.696 -85.612)" fill="#f5f5f5"/>
            <path id="Path_9547" data-name="Path 9547" d="M605.975,178.031q-.587.7-1.179,1.4c-.5.6.36,1.457.865.856q.588-.7,1.177-1.4C607.34,178.291,606.48,177.43,605.975,178.031Z" transform="translate(-494.345 -87.257)" fill="#f5f5f5"/>
            <path id="Path_9548" data-name="Path 9548" d="M604.012,176.044a4.956,4.956,0,0,1-1.876,1.5c-.7.337-.084,1.381.619,1.046a6.115,6.115,0,0,0,2.309-1.939C605.529,176.023,604.472,175.422,604.012,176.044Z" transform="translate(-497.047 -89.217)" fill="#f5f5f5"/>
            <path id="Path_9549" data-name="Path 9549" d="M587.279,190.791c-.264.429-.533.856-.8,1.287-.413.668.64,1.273,1.053.609l.8-1.287C588.746,190.732,587.69,190.127,587.279,190.791Z" transform="translate(-511.842 -75.11)" fill="#f5f5f5"/>
            <path id="Path_9550" data-name="Path 9550" d="M587.878,192.976a.531.531,0,0,1-.259.454c-.646.435-.033,1.486.619,1.05a1.82,1.82,0,0,0,.854-1.51C589.131,192.189,587.915,192.2,587.878,192.976Z" transform="translate(-510.923 -73.304)" fill="#f5f5f5"/>
            <path id="Path_9551" data-name="Path 9551" d="M599.093,171.876c-.306.352-.613.7-.918,1.059-.511.589.35,1.447.865.854.306-.351.611-.7.917-1.057C600.468,172.144,599.608,171.282,599.093,171.876Z" transform="translate(-500.695 -93.151)" fill="#f5f5f5"/>
          </g>
          <path id="Path_9552" data-name="Path 9552" d="M757.548,387.567c.035,1.923.031,3.832.041,5.74h.268c.01,1.921.031,3.83.016,5.751-.006.911.491,1.249,1.3,1.318,1.314.129,1.98-.325,2.07-1.894.214-3.625.231-7.249.386-10.874.064-1.58-.993-1.441-2.017-1.461S757.517,386.012,757.548,387.567Zm-4.173-226.136c-3.529-.043-7.056,0-10.6.018.315,2.465.315,2.454,2.088,1.825a11.935,11.935,0,0,1,2.32-.681c3.243-.466,5.526,1.165,6.1,4.385a8.1,8.1,0,0,1-.725,5.6,33.773,33.773,0,0,1-3.116,4.443c-.883,1.05-1.657,2.013-1.259,3.787,2.955-2.373,5.8-4.576,8.54-6.913a3.3,3.3,0,0,0,.817-2.144c.153-3.454-1.541-6.425-2.7-9.533A1.877,1.877,0,0,0,753.375,161.431Zm-6.106,247.238a4.425,4.425,0,0,0,1.365.443c4.328-.106,8.644-.26,12.973-.405.9-.027,1.187-.589,1.183-1.4-.008-1.788-.018-3.576-.024-5.168-2.324-.11-3.979-.223-5.644-.251a3.636,3.636,0,0,0-1.909.276c-2.424,1.617-4.8,3.319-7.136,5.07C747.677,407.523,747.534,408.181,747.269,408.669Zm6.964-250.537c-.818-10.343-8.941-15.57-17.387-14.129-5.236.889-8.845,3.752-9.9,9.255-.227,1.181-.611,2.35-.848,3.531-.474,2.422-.292,2.689,2.105,2.714,3.94.039,7.88-.027,11.82-.047v.17q3.34-.018,6.666-.045c2.127-.012,4.243-.033,6.358-.08C753.912,159.471,754.3,159.019,754.233,158.131Zm-28.821,7.038a15.241,15.241,0,0,1-2.456,10.058c-.084.121.025.364.076.754,1.108.237,2.483.18,3.4.8.975.664,1.457,2.023,2.275,2.98a7.126,7.126,0,0,0,2.066,1.753,38.588,38.588,0,0,0,4.96,2.227c1.12.405,1.645.586,1.175,2.072a31.394,31.394,0,0,0-.736,5.9c2.661-.537,4.909-.973,7.157-1.435a1.732,1.732,0,0,0,1.549-1.6c.339-2.7.8-5.391,1.126-8.105.233-1.935.6-3.638,2.236-5.07a9.09,9.09,0,0,0,3.255-6c.161-1.9.016-3.83-1.825-4.794-1.792-.928-3.54-.141-5.066.985-2.1,1.531-2.595,1.388-3.458-1.114a11.727,11.727,0,0,1-.286-1.177,2.425,2.425,0,0,0-2.843-2.005c-2.93.088-5.861-.057-8.791-.053C725.38,161.339,725.126,161.378,725.412,165.169Zm-.8,120.379c-2.626.11-5.25.268-7.876.417-.609.039-1.228.078-1.261.93-.031,1.044.687,1.091,1.416,1.087,2.736,0,5.46-.016,6.956-.023,5.289-.268,9.323-.47,13.361-.685q14.552-.728,29.092-1.469a8.6,8.6,0,0,0,2.1-.231c.378-.11.946-.734.885-.94a2.422,2.422,0,0,0-1.063-1.236,3.1,3.1,0,0,0-1.5.033c-2.113.168-4.228.433-6.343.529C748.452,284.507,736.538,285.014,724.611,285.548ZM718.1,400.154c1.5.347,2.262-.07,2.362-1.76.26-4.112.325-8.234.523-12.358.043-.973-.129-1.617-1.247-1.49-.971.114-2.434-.56-2.475,1.277-.037,2.215.01,4.426.021,6.638l-.546,0c.01,2.007.055,4.012.016,6.02A1.492,1.492,0,0,0,718.1,400.154ZM574.8,166.975c-.8.127-2.1.3-3.378.589a1.763,1.763,0,0,0-1.128.772c-.636,1.6,1.193,4.8,2.824,5.082,2.894.509,5.747-2.863,4.786-5.7a1.267,1.267,0,0,0-.807-.727A15.129,15.129,0,0,0,574.8,166.975Zm1.077,231.541c.021,1.884.558,2.381,2,2.3,1.31-.069,1.721-.521,1.751-2.223.049-2.007-.008-4.024-.02-6.045h.221c-.01-1.907.027-3.819-.055-5.738-.055-1.5-.372-1.641-2.146-1.694-1.195-.018-1.641.472-1.549,1.625.051.693-.006,1.41-.014,2.105C576,392.069,575.865,395.294,575.88,398.515Zm-36.654,1.956c-1.676-.065-3.343-.008-5.471,0-.141,1.181-.341,2.567-.443,3.967-.147,1.874.035,2.15,1.919,2.2,3.954.114,7.894.118,11.845.135.219,0,.448-.27.838-.529-2.334-1.86-4.52-3.648-6.775-5.326A3.558,3.558,0,0,0,539.226,400.472Zm-3.954-3.02c.041,1.167.93,1.431,1.927,1.437,1.059.008,1.336-.627,1.4-1.551.251-3.431.574-6.838.824-10.255.159-2.336.037-2.36-2.225-2.469-1.277-.069-1.872.3-1.817,1.649.059,1.715.029,3.429.039,5.144-.061,0-.135,0-.2,0C535.239,393.428,535.2,395.433,535.272,397.452ZM584.8,174.82c-1.116-1.551-2.033-2.873-3.026-4.144-.844-1.091-1.475-.979-2.127.313-.143.268-.2.586-.335.852a7.036,7.036,0,0,1-6.257,3.509c-2.18-.268-3.926-2.048-4.486-4.755a7.308,7.308,0,0,1-.088-3,2.41,2.41,0,0,1,1.4-1.649c2.577-.462,5.2-.683,7.8-.952a1.741,1.741,0,0,1,2.025,1.414c.123.474.3.934.446,1.408.229.012.46.022.691.045.505-1.328,1.095-2.62.576-4.187a1.759,1.759,0,0,0-2.184-1.447c-3.209.319-6.431.531-9.652.584a2.276,2.276,0,0,0-2.462,1.653c-1.057,2.6-1.093,2.522-3.168.856a7.372,7.372,0,0,0-2.354-1.279c-2.581-.775-4.437.388-4.7,3.088a8.433,8.433,0,0,0,.494,3.828,12.884,12.884,0,0,0,2.536,4.085c1.332,1.392,1.911,2.751,1.349,4.616-.934,3.116.466,5.957,1.21,8.857a2.01,2.01,0,0,0,1.161,1.21c2.291.7,4.627,1.255,7.173,1.911-.01-2,.006-3.7-.041-5.387,0-.656-.407-1.529-.129-1.909.351-.476,1.238-.566,1.905-.764,2.757-.791,5.366-1.9,7.24-4.181C581.226,177.645,582.435,175.707,584.8,174.82Zm3.961,232.253c-1.745-1.1-3.513-2.172-5.221-3.317-1.549-1.038-3.037-1.907-5.052-1.169a4.04,4.04,0,0,1-2.36-.145c-1.377-.394-1.858.18-1.939,1.443a8.531,8.531,0,0,1-.178.891c-.4,2.518-.155,2.894,2.313,2.992,2.614.1,5.242.1,7.868.082,1.459,0,2.918-.076,4.377-.133C588.632,407.512,588.7,407.292,588.763,407.073Zm9.8-276.136a21.5,21.5,0,0,0-14.244,1.226,44.09,44.09,0,0,0-17.808,13.792,5.584,5.584,0,0,1-5.023,2.493c-5.824-.08-9.419,2.967-10.864,8.64a18.087,18.087,0,0,0,.035,9.29,33.927,33.927,0,0,0,6.9,13.04,13.73,13.73,0,0,0,1.488,1.316,4.234,4.234,0,0,0-1.13-5.1,9.26,9.26,0,0,1-1.384-2,10.105,10.105,0,0,1-1.553-6.656c.468-3.662,2.963-5.571,6.542-4.872a30.82,30.82,0,0,1,3.862,1.33c.691-2.495,2.514-2.845,4.706-2.418a2.531,2.531,0,0,0,.3.012c10.606.372,19.855-3.26,28.042-9.77a16.5,16.5,0,0,0,6.319-10.733C605.485,135.512,603.415,132.249,598.567,130.937Zm-8.924,157.057c-1.163-11.791-2.354-23.579-3.5-35.37a16.265,16.265,0,0,0-1.817-6.033c-1.535-2.961-2.863-6.029-4.263-9.063a6.308,6.308,0,0,1-.605-1.7,1.148,1.148,0,0,1,.433-.975,1.052,1.052,0,0,1,.975.323,25.622,25.622,0,0,1,1.251,2.415q6.926,13.682,13.866,27.353a20.761,20.761,0,0,0,1.433,2.183c.374-.368.568-.48.64-.65,3.425-8.1,6.691-16.279,10.3-24.312,1.586-3.509,1.067-5.781-1.649-8.659-10.22-10.835-20.512-21.57-31.24-31.876-.672-.654-.7-1.128-.227-1.8.809-1.122,1.618-2.256,2.391-3.319-.306-.364-.405-.607-.564-.654q-8.418-2.547-16.841-5.046c-.817-.239-1.531.008-1.406.967.278,2.127-.956,3.384-2.36,4.631a17.873,17.873,0,0,0-4.96,7.516c-1.3,3.633-2.6,7.247-3.644,10.95-2.879,10.326-5.745,20.654-8.407,31.038-3.591,13.99-6.985,28.028-10.537,42.322,1.386.211,2.665.521,3.942.589q26.839,1.36,53.687,2.663c.609.033,1.216.031,1.825.051,1,.045,1.518-.37,1.418-1.428C589.723,289.4,589.709,288.7,589.643,287.994ZM588.536,295c.1-1.2-.5-1.639-1.614-1.633-.609.016-1.216-.057-1.825-.076-7.175-.282-14.364-.476-21.541-.842-9.705-.5-19.412-1.118-29.119-1.692-2.056-.123-2.252-.012-2.385,2.091-.194,2.92-.349,5.863-.347,8.793.022,11.747.106,23.483.163,35.217-.17,0-.329,0-.486,0q.079,15.959.159,31.91c.018,3.732-.035,7.477.043,11.223.049,2.395.133,2.407,2.336,2.516,2.53.135,5.06.28,7.588.352,2.044.074,2.105.049,2.507-2.068,1.175-5.953,2.3-11.916,3.427-17.881,2.783-14.824,5.289-29.708,9.509-44.213a16.935,16.935,0,0,0,.484-7.8c-.325-1.8-.625-3.586-.938-5.383a12.4,12.4,0,0,1-.251-1.494c-.053-.67-.36-1.578.648-1.668.329-.039.9.713,1.063,1.2a23.262,23.262,0,0,1,.723,3.255q1.936,11.538,3.823,23.06c2.683,16.4,6.376,32.569,10.577,48.637,1.29,4.933,1.437,4.992,6.556,4.8.3-.016.607-.029.911-.067,2.285-.231,2.309-.231,2.444-2.493.337-5.657.613-11.324.973-16.982q1.166-18.482,2.4-36.979c.668-9.889,1.4-19.778,2.1-29.667C588.505,296.415,588.48,295.71,588.536,295Zm-4.947-126.7a4.007,4.007,0,0,0,3.619,4.044,3.374,3.374,0,0,0,3.4-3.762c-.045-1.872-.46-2.321-2.274-2.264a21.636,21.636,0,0,0-3.292.333A1.622,1.622,0,0,0,583.59,168.306Zm132.685,233.33a3.8,3.8,0,0,0-1.751.19c-2.45,1.3-4.862,2.71-7.275,4.075.035.229.086.446.123.666,2.2.184,4.394.441,6.6.527s4.414.051,6.627.053c.913-.006,1.676-.337,1.549-1.383-.153-1.336.448-2.859-.869-3.924-.121-.094-.378-.02-.572-.02C719.229,401.754,717.745,401.666,716.274,401.637Zm-.68-19.369c1.909.137,3.82.286,5.742.409a1.921,1.921,0,0,0,2.144-1.641c.86-2.8,1.894-5.556,2.732-8.368,6.172-20.544,11.442-41.317,15.656-62.362.439-2.18,1.024-4.336,1.633-6.466.108-.376.664-.623,1.016-.928.233.486.734,1.016.652,1.443-.511,2.677-1.091,5.344-1.759,7.986a12.306,12.306,0,0,0,.018,6c.721,3.157,1.514,6.315,1.992,9.511,2.4,16.112,4.708,32.225,7.05,48.351q.491,3.3.946,6.6a1.445,1.445,0,0,0,1.635,1.392c2.943,0,5.875.02,8.8.09,1.253.041,1.858-.411,1.913-1.725.076-1.923.335-3.832.423-5.742q.89-18.664,1.735-37.306c.3-6.774.443-13.559.775-20.332.451-9.186,1.026-18.368,1.5-27.566.211-4.169.153-4.169-3.9-3.979q-21.827,1.04-43.669,2.052c-1.52.069-3.027.125-4.547.157-1.095.006-1.725.458-1.78,1.59-.033.509-.067,1.008-.088,1.52q-.484,16.4-.956,32.777c-.114,4.257-.143,8.512-.292,12.758-.351,9.817-.754,19.618-1.13,29.432.123,0,.243,0,.366,0,.02,4.257.067,8.5.051,12.758C714.265,381.641,714.573,382.2,715.595,382.268Zm13.882-179.592c-10.856,10.173-21.764,20.307-32.558,30.564a8.954,8.954,0,0,1-5.9,2.534,78.22,78.22,0,0,0-10.2,1.449,11.362,11.362,0,0,0-9.11,11.973c.18,4.414,3.084,8.462,7.257,9.462a42.3,42.3,0,0,0,15.668.958,51.9,51.9,0,0,0,28.171-13.191c3.911-3.509,7.49-7.392,11.231-11.1a19.227,19.227,0,0,1,2.07-1.725c.145-.108.621.024.781.2a.853.853,0,0,1,.137.789,7.369,7.369,0,0,1-1.112,1.418c-3.46,3.542-6.9,7.122-10.453,10.582a9.93,9.93,0,0,0-2.5,3.709c-2.209,5.861-4.551,11.683-6.772,17.558a75.446,75.446,0,0,0-2.334,7.21,11.329,11.329,0,0,0-.162,6.578c.668,2.017,1.132,2.44,3.272,2.393,2.115-.047,4.242-.288,6.358-.311q21.578-.305,43.06-2.148c3.343-.27,4.009-.822,3.75-4.1a120.363,120.363,0,0,0-1.659-13.236c-2.06-10.629-4.216-21.235-6.591-31.8-2.027-8.965-4.43-17.855-6.662-26.781a15.9,15.9,0,0,0-4.308-7.9c-1.784-1.7-2.9-3.548-2.693-6.067.012-.123-.257-.255-.588-.556-5.939,1.4-12.026,2.843-18.584,4.384.566,1.056.834,1.578,1.13,2.086.538.96,1.6,1.974,1.508,2.863C731.609,201.281,730.264,201.941,729.477,202.676Zm-77.084,10.038c.109,2.152.427,2.369,2.567,2.383.5,0,1.007-.065,1.506-.069,1.12-.029,1.639-.542,1.561-1.71-.156-2.213-.252-4.437-.374-6.83.078-1.437.215-3.055.233-4.661.047-4.9.611-4.075-4.13-4.077-1.739.01-1.872.155-1.827,1.968C652.036,204.058,652.177,208.386,652.393,212.714Zm1.531,43.771c.5,2.3,1.451,2.875,3.8,3.2a25.722,25.722,0,0,0,14.544-2.6c-.866-2.575-1.788-4.819-2.324-7.153-.335-1.5.349-3.38-.276-4.668-.64-1.32-2.348-2.127-3.568-3.18-.464-.4-.832-.895-1.332-1.243a9.7,9.7,0,0,0-2.1-1.169.8.8,0,0,0-1.187.867c.078,1.01.313,2.005.464,3,.3,2.005,0,2.54-1.905,3.074-1.167.321-2.381.46-3.572.734-2.138.486-3.057,1.318-3.12,3.433A24.931,24.931,0,0,0,653.924,256.484Zm-6.915-36.01a2.056,2.056,0,0,1,2.4-1.42,4.465,4.465,0,0,1,2.17,1.337c.49.521.5,1.847.958,1.978a6.44,6.44,0,0,0,2.638-.378c.6-.114,1.193-.225,1.786-.325a2.463,2.463,0,0,1,3.1,1.723,6.163,6.163,0,0,0,1.422,2.291c1.7,1.621,2.307,3.783,3.178,5.808a2.922,2.922,0,0,1-1.063,3.764c-.871.648-1.719,1.334-3.088,2.387,4.972-.343,6.768,3.638,9.964,5.761a7.644,7.644,0,0,0,.772-1,13.328,13.328,0,0,1,10.253-7.224c.887-.151,1.772-.446,2.673-.513,1.326-.092,1.625-.811,1.666-2,.1-2.726.315-5.45.482-8.176.476-7.467,1.193-14.926.68-22.426-.221-3.317-.517-3.9-3.946-4.044-7.165-.292-14.352-.3-21.541-.464-1.386-.029-1.71.727-1.7,1.907.035,4.547.008,9.094.092,13.643.063,2.834-.347,3.431-3.057,3.783-.5.065-1.01.067-1.521.082-3.83.067-4.7-.707-4.849-4.463-.18-4.244-.286-8.487-.452-12.731-.084-2-.131-2.017-2.127-2.007-5.058.037-10.128.025-15.174.208-2.614.1-5.215.574-7.815.916-1.093.137-1.467.772-1.4,1.915.646,10.394,1.21,20.787,1.847,31.181.117,1.86.466,3.707.732,5.81,3.824-1.308,7.222-2.614,10.708-3.591,4.772-1.337,7.541-4.451,8.82-9.092.262-.975.562-1.937.848-2.91C646.637,221.631,646.78,221.034,647.009,220.474Zm-13.535-24.411c15.286-.184,30.582-.186,45.882-.227a40.859,40.859,0,0,1,4.853.341c3.078.362,4.459,1.573,4.547,4.635.147,5.154.1,10.324-.08,15.482-.17,5.056-.668,10.095-.9,15.155-.121,2.638-.012,2.591,2.724,2.479a8,8,0,0,0,5.4-2.336c10.081-9.523,20.25-18.973,30.394-28.447.591-.552,1.124-1.175,1.753-1.676,1.151-.918,1.463-1.856.4-3.043a5.78,5.78,0,0,1-.65-1.03c-1.24-2.219-.975-2.865,1.514-3.705.194-.072.4-.1.6-.161,4.747-1.48,4.9-1.7,4.9-6.613a1.725,1.725,0,0,0-1.189-1.868,17.789,17.789,0,0,1-7.97-5.845c-.648-.813-2.109-1.036-3.241-1.383-2.364-.756-2.559-1.242-1.257-3.423.519-.877,1.038-1.745,1.52-2.622a6.727,6.727,0,0,0,.9-4.371,27.154,27.154,0,0,1-.022-4.243c.041-1.776.051-1.811-1.784-1.839-1.935-.027-3.856.018-5.777.016a6.4,6.4,0,0,1-1.813-.088c-.388-.119-.658-.605-.989-.918.364-.282.713-.77,1.091-.8,1.715-.106,3.443-.1,5.168-.11,1.009-.006,2.019.014,3.028.045.973.031,1.41-.36,1.549-1.383.247-1.7.75-3.358,1.048-5.05,1.582-9.335,10.784-12.08,17.248-10.909,7.071,1.265,12.629,6.163,13.621,15a44.532,44.532,0,0,0,2.4,9.047c.135.388.319.752.454,1.128,1.553,4.261.871,6.744-2.579,9.523-2.119,1.712-4.251,3.437-6.358,5.176-1.6,1.334-2.892,2.822-2.577,5.144a8,8,0,0,1-.268,1.958,9.451,9.451,0,0,0,1.506.078c1.181-.092,1.67.478,1.7,1.6,0,.609.057,1.216.023,1.811a3.111,3.111,0,0,0,1.02,2.72c3.6,3.117,5.34,7.2,6.37,11.763,2.812,12.439,5.816,24.827,8.7,37.24.995,4.228,2,8.465,2.763,12.744,1.063,5.965,1.956,11.967,2.789,17.971a12.261,12.261,0,0,1-.527,6.593,5.336,5.336,0,0,0,.114,2.955c1.13,4.917.486,9.9.425,14.832-.041,3.844-.631,7.665-.818,11.5-.464,9.415-.819,18.815-1.271,28.23-.45,9.609-.987,19.206-1.474,28.816-.255,4.853-.474,9.705-.729,14.571-.033.7-.1,1.41-.2,2.1-.129,1.048-.638,1.525-1.792,1.578-2.093.121-2.115.229-2.215,2.25-.131,3.039-.237,6.08-.3,9.108a3.8,3.8,0,0,0,.35,2.042c1.715,2.7,1.195,5.685,1.124,8.579-.051,1.8-.607,2.2-2.393,2.53a15.732,15.732,0,0,1-2.71.292c-3.541.043-7.077.084-10.618,0-1.459-.027-3.282.174-3.852-1.682-.482-1.58.705-2.679,1.833-3.537,2.422-1.825,4.894-3.611,7.439-5.266a3.271,3.271,0,0,0,1.723-3.219c-.186-3.233-.253-6.468-.329-9.715-.027-.911-.286-1.555-1.345-1.621-2.2-.147-2.708-1.688-2.935-3.55-.862-6.719-1.768-13.439-2.679-20.158-1.792-13.234-3.378-26.507-6.264-39.564-.086-.388-.212-.764-.323-1.142-.206.014-.411.014-.607.016-.87,3.505-1.825,6.991-2.585,10.506-3.58,16.545-8.3,32.765-13.463,48.868-.419,1.3-.633,2.714-1.941,3.681a3.27,3.27,0,0,0-.7,2.193c-.212,3.842-.339,7.686-.452,11.53a2.763,2.763,0,0,0,.384,1.737c1.494,1.852,1.2,4.02,1.173,6.123-.014,2.031-.507,2.738-2.43,2.712-5.06-.063-10.118-.268-15.155-.654-1.933-.149-2.381-1.984-.94-3.306a14.1,14.1,0,0,1,2.532-1.641c1.856-1.055,3.711-2.1,5.591-3.092a2.242,2.242,0,0,0,1.4-2.1c.114-4.048.325-8.088.462-12.137.045-.913.088-1.9-1.285-1.915s-1.647-.977-1.688-2.06c-.1-2.528-.256-5.068-.235-7.6.086-7.187.2-14.373.382-21.562.221-9.012.529-18.024.8-27.024.323-10.935.67-21.868.944-32.8a19.321,19.321,0,0,0-.552-3.5,9.592,9.592,0,0,1-.278-2.08,6.941,6.941,0,0,0-.944-3.754c-1.508-2.849-1.245-5.914-.519-8.9a68.447,68.447,0,0,1,2.383-7.514c1.6-4.263,3.327-8.481,4.984-12.731.349-.914.6-1.866,1.138-3.533-1.408.834-2.242,1.275-3.008,1.8a45.987,45.987,0,0,1-31.269,8.669c-1.179-.057-1.919.164-2.035,1.529-.161,1.872-1.386,2.4-3.149,2.546a247.285,247.285,0,0,1-41.575.157c-3.223-.3-6.437-.734-9.637-1.206-2.593-.376-3.313-1.075-3.715-3.64-.441-2.8-.709-5.614-1.065-8.53a4.174,4.174,0,0,0-1.1.249c-6.758,3.46-13.488,6.973-20.244,10.435a7.777,7.777,0,0,0-4.04,4.228c-.4,1.059-1.228,2.548-2.066,2.7-1.531.262-1.87-1.572-2.469-2.665-1.817-3.272-3.511-6.621-5.268-9.932a3.57,3.57,0,0,0-1.539-1.572c.245,2.965.468,5.92.762,8.873.869,8.665,1.788,17.33,2.683,26a3.52,3.52,0,0,1-.811,3.057,5.267,5.267,0,0,0-.642,2.849c-.394,6.47-.654,12.954-1.132,19.412-.742,10-1.665,19.988-2.428,29.987-.392,5.048-.621,10.108-.911,15.159-.3,5.156-.63,10.314-.9,15.47-.11,2.227-.1,4.451-.151,6.666-.016,1.167-.366,1.972-1.778,1.807-1.081-.127-1.394.566-1.4,1.5-.027,4.159-.057,8.3-.108,12.464a2.105,2.105,0,0,0,1.14,1.978c1.721,1.048,3.441,2.134,5.148,3.208.682.435,1.39.858,2.039,1.328.938.664,1.805,1.437,1.41,2.753-.358,1.218-1.465,1.294-2.485,1.3-4.453.024-8.914.106-13.351-.029-2.943-.1-3.57-.907-3.341-3.8.151-1.788.129-3.648,1.4-5.187a3.5,3.5,0,0,0,.552-1.984c.1-3.648.145-7.285.188-10.933.006-1.2.049-2.336-1.11-3.278a4.844,4.844,0,0,1-1.059-2.452c-4.249-15.958-8.027-32.013-10.782-48.3-.627-3.691-1.326-7.386-2.013-11.068-.112-.57-.358-1.116-.779-2.414-.811,3.02-1.541,5.309-2.015,7.659q-4.224,20.667-8.332,41.374c-.842,4.175-1.684,8.336-2.32,12.537-.27,1.813-1.057,2.814-2.806,2.957-1.106.1-1.592.531-1.67,1.661-.239,3.529-.609,7.057-.762,10.6a2.954,2.954,0,0,0,1.116,1.939c2.1,1.753,4.359,3.323,6.421,5.1a15.184,15.184,0,0,1,2.691,3.21c.468.7.118,1.373-.83,1.477a12.6,12.6,0,0,1-1.52.067c-4.864-.023-9.717-.037-14.581-.084-1.958-.027-2.507-.366-2.467-2.2.059-2.883-.249-5.885,1.525-8.509a3.3,3.3,0,0,0,.48-1.706c.092-3.343.112-6.687.167-10.032.02-1.191-.349-2-1.733-1.851-1.692.166-2.048-.819-2.042-2.228-.006-5.873-.059-11.747-.053-17.62.014-12.149-.01-24.308.065-36.468q.112-17.915.417-35.828c.016-1.312-.386-1.725-1.545-2.072-1.96-.6-2.044-.913-1.58-2.837,2.4-10.032,4.741-20.088,7.218-30.1,2.146-8.644,4.61-17.205,6.646-25.872,2.107-9,5.092-17.695,7.978-26.44,1.247-3.813,3.029-7.275,6.216-9.844a4.775,4.775,0,0,0,1.817-3.938c.059-2.675.178-2.675,3.294-2.546a9.314,9.314,0,0,0-2.83-6.405,37.331,37.331,0,0,1-6.86-10.328c-2.164-4.841-3.114-9.8-1.8-15.08,1.6-6.417,5.63-9.952,12.245-10.167a5.142,5.142,0,0,0,4.306-2.136,47.017,47.017,0,0,1,17.54-13.731,24.965,24.965,0,0,1,13.645-2.086,19.9,19.9,0,0,1,3.836.893,8.758,8.758,0,0,1,6.317,8.395,16.192,16.192,0,0,1-2.967,10.314,25.793,25.793,0,0,1-9.527,8.3c-3.566,1.89-7.281,3.478-11.185,5.321.061.341.2.887.284,1.445.227,1.289.981,1.516,2.185,1.377,1.6-.166,3.247-.114,4.864-.133a1.621,1.621,0,0,1,1.756,1.328c1.216,4.627-.243,7.639-4.02,8.3-.3.061-.815.1-.85.233-.762,3.166-4.5,3.306-5.928,6.012-1.3,2.44-4.032,3.634-6.691,4.449-1.529.47-1.988,1.3-1.943,2.879.131,4.463.059,4.463,4.1,5.939.39.131.779.251,1.144.407,2.438,1.008,2.587,1.52,1.1,3.8a9.952,9.952,0,0,1-.893,1.232c-.776.879-.541,1.608.206,2.371,1.551,1.6,3.08,3.217,4.621,4.829q13.823,14.323,27.66,28.633a3.183,3.183,0,0,1,.942,3.544c-.444,1.33-.826,2.669-1.292,4.165a6.306,6.306,0,0,0,1.615-.029c3.39-1.054,6.776-2.078,10.115-3.262,2.222-.789,2.148-.9,1.966-3.341-.613-8.583-1.23-17.164-1.794-25.747-.209-3.233-.288-6.48-.487-9.715-.12-2.029.217-2.943,2.2-3.317A56.076,56.076,0,0,1,633.474,196.063Zm14.714,44.021a2.9,2.9,0,0,0,3.417.008c3.153-1.792,6.4-3.437,9.5-5.35,2.289-1.408,2.385-1.884,1.157-4.175-.993-1.845-2.461-3.454-3.382-5.322-.822-1.674-1.506-1.864-3.437-1.443-.582.125-1.153.372-1.749.5-.971.188-2.185.752-2.855.38-.585-.325-.519-1.762-.817-2.673a3.456,3.456,0,0,0-.625-.932c-.29.233-.727.405-.836.709-.562,1.62-1.04,3.264-1.555,4.909-1.377,4.457-4.061,7.524-8.687,8.9-9.3,2.783-18.084,7.093-27.607,9.219a2.515,2.515,0,0,0-2.023,1.592c-1.909,4.764-3.9,9.5-6.069,14.744a11.842,11.842,0,0,0,1.324-.407q20.327-10.207,40.635-20.46C645.8,239.645,646.9,239.093,648.188,240.084Zm5.066,1.459c-1.845.92-3.727,1.525-5.785.38a2.478,2.478,0,0,0-1.948.072c-5.663,2.679-11.293,5.456-16.947,8.156A2.323,2.323,0,0,0,627.1,252.8c.294,2.612.574,5.227.868,7.839a2.2,2.2,0,0,0,2.223,2.056c3.419.423,6.815.928,10.234,1.251a236.711,236.711,0,0,0,34.256.241c2.129-.117,4.243-.274,6.345-.576a2.223,2.223,0,0,0,1.357-1.3c.311-.985-.638-1.042-1.294-1.257a38.616,38.616,0,0,1-5.409-1.835,3.48,3.48,0,0,0-3.127-.129c-.838.347-1.711.605-2.559.95-4.14,1.688-8.456,1.817-12.834,1.461a5.01,5.01,0,0,1-4.947-4.146,29.406,29.406,0,0,1-.691-6.9c.084-2.824,1.621-4.312,4.439-4.937.887-.184,1.786-.372,2.685-.5,1.153-.153,1.5-.75,1.328-1.88-.227-1.482-.307-2.979-.5-4.909C657.343,239.371,655.316,240.511,653.254,241.543Z" transform="translate(-526.867 -128.417)" fill="#3c3372"/>
        </g>
        <g id="Group_6060" data-name="Group 6060" transform="translate(89.348)">
          <path id="Path_9553" data-name="Path 9553" d="M573.892,113.633l7.144.99-5.133,5.069,1.266,7.1-6.406-3.315-6.362,3.4,1.172-7.118-5.2-5,7.131-1.084,3.15-6.489Z" transform="translate(-560.375 -107.186)" fill="#ffbd5c" stroke="rgba(0,0,0,0)" stroke-miterlimit="10" stroke-width="1"/>
          <path id="Path_9554" data-name="Path 9554" d="M586.892,113.633l7.144.99-5.133,5.069,1.266,7.1-6.406-3.315-6.362,3.4,1.172-7.118-5.2-5,7.131-1.084,3.15-6.489Z" transform="translate(-547.918 -107.186)" fill="#ffbd5c" stroke="rgba(0,0,0,0)" stroke-miterlimit="10" stroke-width="1"/>
          <path id="Path_9555" data-name="Path 9555" d="M599.892,113.633l7.144.99-5.133,5.069,1.266,7.1-6.406-3.315-6.362,3.4,1.172-7.118-5.2-5,7.131-1.084,3.15-6.489Z" transform="translate(-535.461 -107.186)" fill="#ffbd5c" stroke="rgba(0,0,0,0)" stroke-miterlimit="10" stroke-width="1"/>
          <path id="Path_9556" data-name="Path 9556" d="M612.892,113.633l7.144.99-5.133,5.069,1.266,7.1-6.406-3.315-6.362,3.4,1.172-7.118-5.2-5,7.131-1.084,3.15-6.489Z" transform="translate(-523.004 -107.186)" fill="#ffbd5c" stroke="rgba(0,0,0,0)" stroke-miterlimit="10" stroke-width="1"/>
          <path id="Path_9557" data-name="Path 9557" d="M625.892,113.633l7.144.99-5.133,5.069,1.266,7.1-6.406-3.315-6.362,3.4,1.172-7.118-5.2-5,7.131-1.084,3.15-6.489Z" transform="translate(-510.547 -107.186)" fill="#ffbd5c" stroke="rgba(0,0,0,0)" stroke-miterlimit="10" stroke-width="1"/>
        </g>
      </g>
    </g>
  </g>
</svg>
