<svg xmlns="http://www.w3.org/2000/svg" width="85" height="85" viewBox="0 0 85 85">
  <g id="pro_favourite" transform="translate(-110 -1323)">
    <g id="favorite" transform="translate(121.612 1334.608)">
      <path id="Path_5909" data-name="Path 5909"
        d="M28.218,43.788a1.978,1.978,0,0,1-1.184-.392C25.392,42.175,11,31.205,11,21.9a9.945,9.945,0,0,1,17.218-6.739A9.945,9.945,0,0,1,45.437,21.9c0,9.3-14.392,20.273-16.034,21.494A1.978,1.978,0,0,1,28.218,43.788Z"
        transform="translate(17.861 19.51)" fill="#fc6a57" />
      <path id="Path_5910" data-name="Path 5910"
        d="M23.929,0,11.055.053A4.614,4.614,0,0,0,7.028,2.437L.3,14.622l22.331-.053Z" transform="translate(0.521 0.053)"
        fill="#fc6a57" />
      <path id="Path_5911" data-name="Path 5911"
        d="M34.455,14.549,27.647,2.364A4.656,4.656,0,0,0,23.594-.02L10.72.033,12.071,14.6Z"
        transform="translate(17.487 0.02)" fill="#fc6a57" />
      <path id="Path_5912" data-name="Path 5912"
        d="M53,15.023a15.21,15.21,0,0,0-6.622,1.828A15.42,15.42,0,0,0,39.089,15,15.228,15.228,0,0,0,23.857,30.2c0,3.868,1.616,7.735,3.947,11.285l-23.523.079H4.255A4.189,4.189,0,0,1,.1,37.38L-.01,7.1l24.5-.053h3.973l24.5-.079Z"
        transform="translate(0.01 11.335)" fill="#fc6a57" />
    </g>
  </g>
</svg>