<svg xmlns="http://www.w3.org/2000/svg" width="85" height="85" viewBox="0 0 85 85">
  <g id="pro_trackorder" transform="translate(-110 -1902)">
    <!-- <rect id="Rectangle_2666" data-name="Rectangle 2666" width="85" height="85" rx="16" transform="translate(110 1902)"
      fill="#ecf0f8" /> -->
    <g id="Group_5212" data-name="Group 5212" transform="translate(125.076 1913.75)">
      <g id="Group_5211" data-name="Group 5211" transform="translate(0 0)">
        <path id="Path_5918" data-name="Path 5918"
          d="M432.777,251.355l-24.5,14.7a.835.835,0,0,0-.4.715v27.379a.832.832,0,0,0,1.249.721l24.5-14.143a.838.838,0,0,0,.416-.721V252.068A.833.833,0,0,0,432.777,251.355Zm-53.974,0a.833.833,0,0,0-1.263.713V280a.838.838,0,0,0,.416.721l24.5,14.143a.833.833,0,0,0,1.249-.721V266.767a.83.83,0,0,0-.4-.713Zm14.954,25.364-1.239-.665v4.184c0,.561-.456.771-1.016.471l-3.168-1.7a2.006,2.006,0,0,1-1.018-1.561v-4.185l-1.239-.665c-.871-.466-1.339-1.74-.768-2.094l3.841-2.367c.4-.25,1.129.138,1.534.823l3.841,6.485C395.1,276.412,394.628,277.185,393.757,276.719Z"
          transform="translate(-377.54 -231.683)" fill="#fc6a57" />
        <path id="Path_5919" data-name="Path 5919"
          d="M414.329,244.905l-9.169-5.295a.835.835,0,0,0-.833,0l-24.8,14.321a.834.834,0,0,0-.013,1.436l9.466,5.68a.831.831,0,0,0,.856,0l24.5-14.706A.833.833,0,0,0,414.329,244.905Zm16.545,9.057-4.176-9.1a.833.833,0,0,0-1.186-.367l-24.8,14.884a.831.831,0,0,0-.335,1.045l3.989,9.215a.831.831,0,0,0,1.193.383l24.988-15A.832.832,0,0,0,430.874,253.962Z"
          transform="translate(-376.494 -239.499)" fill="#fc6a57" />
      </g>
    </g>
  </g>
</svg>