<svg xmlns="http://www.w3.org/2000/svg" width="85" height="85" viewBox="0 0 85 85">
  <g id="pro_tc" transform="translate(-110 -1516)">
    <g id="accept" transform="translate(123.881 1528.629)">
      <path id="Path_6335" data-name="Path 6335"
        d="M42.7,27.267c.1,0,.2,0,.3,0h.026q.836.015,1.658.106V7.049A7.057,7.057,0,0,0,37.634,0H7.05A7.057,7.057,0,0,0,0,7.049V47.594a7.057,7.057,0,0,0,7.049,7.049h20.42A17.934,17.934,0,0,1,42.7,27.267ZM25.28,11.51H35.726a1.75,1.75,0,1,1,0,3.5H25.28a1.75,1.75,0,0,1,0-3.5Zm0,7H35.726a1.75,1.75,0,1,1,0,3.5H25.28a1.75,1.75,0,0,1,0-3.5ZM19.4,43.133H8.957a1.75,1.75,0,1,1,0-3.5H19.4a1.75,1.75,0,1,1,0,3.5Zm0-7.119H8.957a1.75,1.75,0,0,1,0-3.5H19.4a1.75,1.75,0,0,1,0,3.5Zm0-7H8.957a1.75,1.75,0,0,1,0-3.5H19.4a1.75,1.75,0,1,1,0,3.5Zm0-7H8.957a1.75,1.75,0,1,1,0-3.5H19.4a1.75,1.75,0,1,1,0,3.5Zm0-7H8.957a1.75,1.75,0,1,1,0-3.5H19.4a1.75,1.75,0,1,1,0,3.5ZM23.53,27.263a1.75,1.75,0,0,1,1.75-1.75h5.031a1.75,1.75,0,1,1,0,3.5H25.28a1.75,1.75,0,0,1-1.75-1.75Zm0,0"
        fill="#fc6a57" />
      <path id="Path_6336" data-name="Path 6336"
        d="M266.287,267.027a14.442,14.442,0,0,0-10.1-4.345h-.025l-.237,0a14.542,14.542,0,1,0,10.364,4.348Zm-4.154,7.833-5.551,6.919a1.75,1.75,0,0,1-2.392.322l-4.14-3a1.75,1.75,0,0,1,2.054-2.835l2.791,2.022,4.508-5.62a1.75,1.75,0,1,1,2.73,2.191Zm0,0"
        transform="translate(-213.221 -232.029)" fill="#fc6a57" />
    </g>
  </g>
</svg>