<svg xmlns="http://www.w3.org/2000/svg" width="85" height="85" viewBox="0 0 85 85">
  <g id="pro_myorder" transform="translate(-97.095 -934.096)">
    <g id="Group_5427" data-name="Group 5427" transform="translate(97.361 934.361)">
      <g id="Group_5199" data-name="Group 5199" transform="translate(18.003 12.118)">
        <path id="Path_5904" data-name="Path 5904"
          d="M338.254,123.7a14.629,14.629,0,1,0,14.629,14.629A14.63,14.63,0,0,0,338.254,123.7Zm-.717,12.038,3.3,1.7a4.987,4.987,0,0,1,2.666,5.309,4.854,4.854,0,0,1-2.859,3.731v.441a2.032,2.032,0,0,1-4.064,0v-.307a6.008,6.008,0,0,1-3.622-3.308,2.032,2.032,0,0,1,3.727-1.619,1.961,1.961,0,0,0,1.964,1.167.861.861,0,0,0,.84-.748.972.972,0,0,0-.512-1.052l-3.3-1.7a5.01,5.01,0,0,1-2.64-5.416,4.871,4.871,0,0,1,3.547-3.891v-.3a2.032,2.032,0,1,1,4.064,0v.751a5.954,5.954,0,0,1,2.9,2.986,2.033,2.033,0,1,1-3.727,1.622,1.957,1.957,0,0,0-1.964-1.169.87.87,0,0,0-.823.749A.937.937,0,0,0,337.538,135.741Z"
          transform="translate(-304.176 -91.121)" fill="#fc6a57" />
        <path id="Path_5905" data-name="Path 5905"
          d="M349.608,104.37l-3.6,1.943a1.645,1.645,0,0,1-1.556,0l-5.226-2.82a1.639,1.639,0,0,0-1.557,0l-5.215,2.819a1.64,1.64,0,0,1-1.557,0l-5.213-2.817a1.631,1.631,0,0,0-1.557,0l-5.211,2.817a1.638,1.638,0,0,1-1.559,0l-3.576-1.935a1.626,1.626,0,0,0-2.406,1.411V157.34a1.625,1.625,0,0,0,2.4,1.412l3.6-1.942a1.636,1.636,0,0,1,1.556,0l5.226,2.819a1.64,1.64,0,0,0,1.557,0l3.063-1.655a18.214,18.214,0,0,1-1.557-7.37,18.67,18.67,0,0,1,24.789-17.469V105.783A1.626,1.626,0,0,0,349.608,104.37Zm-27.667,39.07H319.5a2.011,2.011,0,1,1,0-4.022h2.438a2.011,2.011,0,1,1,0,4.022ZM326.7,135.4h-7.2a2.011,2.011,0,1,1,0-4.022h7.2a2.011,2.011,0,1,1,0,4.022Zm16.786-8.044H319.5a2.011,2.011,0,1,1,0-4.022h23.984a2.011,2.011,0,1,1,0,4.022Zm0-8.044H319.5a2.011,2.011,0,1,1,0-4.022h23.984a2.011,2.011,0,1,1,0,4.022Z"
          transform="translate(-311.375 -103.297)" fill="#fc6a57" />
      </g>
    </g>
  </g>
</svg>