<svg xmlns="http://www.w3.org/2000/svg" width="85" height="85" viewBox="0 0 85 85">
  <g id="pro_notification" transform="translate(-110 -1130)">
    <g id="notification" transform="translate(122.898 1140.622)">
      <path id="Path_5906" data-name="Path 5906"
        d="M144.669,455.924a9.921,9.921,0,0,0,9.7-7.924H134.965A9.921,9.921,0,0,0,144.669,455.924Zm0,0"
        transform="translate(-118.292 -392.626)" fill="#fc6a57" />
      <path id="Path_5907" data-name="Path 5907"
        d="M44.861,69.078l-.032,0A18.45,18.45,0,0,1,28.135,42.757c-.58-.055-1.169-.089-1.764-.089A18.474,18.474,0,0,0,7.912,61.157v7.364a17.722,17.722,0,0,1-6.3,13.558,4.626,4.626,0,0,0-1.45,4.744,4.838,4.838,0,0,0,4.742,3.389H47.823a4.835,4.835,0,0,0,4.82-3.664,4.634,4.634,0,0,0-1.574-4.522,17.587,17.587,0,0,1-6.208-12.948Zm0,0"
        transform="translate(0.001 -37.385)" fill="#fc6a57" />
      <path id="Path_5908" data-name="Path 5908"
        d="M282.425,13.207A13.207,13.207,0,1,1,269.218,0,13.206,13.206,0,0,1,282.425,13.207Zm0,0"
        transform="translate(-224.401)" fill="#fc6a57" />
    </g>
  </g>
</svg>