<svg xmlns="http://www.w3.org/2000/svg" width="72" height="72" viewBox="0 0 72 72">
  <g id="profile" transform="translate(-1306 -216)">
    <path id="user"
      d="M65,32.5A32.5,32.5,0,1,0,10.549,56.441l-.031.027,1.054.889c.069.058.143.105.212.162.56.464,1.14.905,1.731,1.332.191.138.383.277.578.411q.947.652,1.941,1.239c.144.085.29.168.435.251.724.412,1.464.8,2.222,1.158l.168.076a32.207,32.207,0,0,0,7.86,2.488l.217.039c.856.148,1.721.266,2.6.345.106.009.213.015.32.025.872.072,1.754.118,2.647.118s1.759-.046,2.626-.116c.11-.009.22-.015.33-.025q1.3-.119,2.574-.339l.221-.04A32.205,32.205,0,0,0,46,62.051c.09-.041.181-.08.271-.123q1.094-.514,2.14-1.106.261-.147.519-.3c.636-.375,1.261-.766,1.868-1.182.219-.149.433-.306.649-.462.519-.373,1.028-.759,1.523-1.162.11-.089.228-.165.336-.256l1.081-.9-.032-.027A32.416,32.416,0,0,0,65,32.5Zm-62.636,0A30.136,30.136,0,1,1,52.486,55.029a8.857,8.857,0,0,0-1.055-.635l-10.006-5a2.62,2.62,0,0,1-1.456-2.355V43.542c.232-.286.476-.61.729-.966a24.083,24.083,0,0,0,3.092-6.054,4.289,4.289,0,0,0,2.464-3.887v-4.19a4.3,4.3,0,0,0-1.048-2.8V20.13a9.531,9.531,0,0,0-2.225-6.93C40.8,10.713,37.276,9.455,32.5,9.455S24.2,10.713,22.021,13.2a9.533,9.533,0,0,0-2.225,6.93v5.516a4.306,4.306,0,0,0-1.048,2.8v4.19a4.3,4.3,0,0,0,1.584,3.334,22.207,22.207,0,0,0,3.655,7.551v3.42a2.636,2.636,0,0,1-1.373,2.314l-9.345,5.1a8.542,8.542,0,0,0-.889.563A30.064,30.064,0,0,1,2.364,32.5Z"
      transform="translate(1310 220)" fill="#fc6a57" />
  </g>
</svg>