<svg xmlns="http://www.w3.org/2000/svg" xmlns:xlink="http://www.w3.org/1999/xlink" width="304.299" height="298.351" viewBox="0 0 304.299 298.351">
  <defs>
    <linearGradient id="linear-gradient" x2="1.01" y2="1" gradientUnits="objectBoundingBox">
      <stop offset="0" stop-color="#fb2a59"/>
      <stop offset="1" stop-color="#7e152d"/>
    </linearGradient>
    <linearGradient id="linear-gradient-11" y1="0.5" x2="1" y2="0.5" gradientUnits="objectBoundingBox">
      <stop offset="0" stop-color="#7b62f5"/>
      <stop offset="1" stop-color="#664fda"/>
    </linearGradient>
  </defs>
  <g id="intro1" transform="translate(-30.462 -42.391)">
    <g id="Background_Simple" data-name="Background Simple" transform="translate(30.462 42.391)">
      <g id="Group_457" data-name="Group 457">
        <path id="Path_1615" data-name="Path 1615" d="M325.761,157.932c-33.782-57.851-125.407-37.247-144.123-65.388-9.582-14.408-20.3-31.11-35.853-39.8a85.411,85.411,0,0,0-47-10.137C45.281,46.528,22.592,94.4,32.875,146.977c13.717,70.131,75.886,141.769,149.742,142.27,38.628.262,75.506-13.546,104.435-33.065l.647-.439C316.6,236.071,351.552,202.1,325.761,157.932Z" transform="translate(-30.462 -42.391)" fill="url(#linear-gradient)"/>
        <path id="Path_1616" data-name="Path 1616" d="M325.761,157.932c-33.782-57.851-125.407-37.247-144.123-65.388-9.582-14.408-20.3-31.11-35.853-39.8a85.411,85.411,0,0,0-47-10.137C45.281,46.528,22.592,94.4,32.875,146.977c13.717,70.131,75.886,141.769,149.742,142.27,38.628.262,75.506-13.546,104.435-33.065l.647-.439C316.6,236.071,351.552,202.1,325.761,157.932Z" transform="translate(-30.462 -42.391)" fill="#f4d3ed" opacity="0.7"/>
      </g>
    </g>
    <g id="Lines" transform="translate(44.583 57.662)">
      <g id="Group_458" data-name="Group 458">
        <path id="Path_1617" data-name="Path 1617" d="M69.793,215.179H66.038a15.2,15.2,0,0,0-15.2,15.2v83.4a15.2,15.2,0,0,0,15.2,15.2h51.535a15.2,15.2,0,0,0,15.2-15.2h0" transform="translate(-50.838 -110.7)" fill="none" stroke="#263238" stroke-linecap="round" stroke-linejoin="round" stroke-width="1.103" stroke-dasharray="4.412"/>
        <path id="Path_1618" data-name="Path 1618" d="M162.964,90.209V73.735a9.309,9.309,0,0,1,9.309-9.309h67.019a9.309,9.309,0,0,1,9.309,9.309h0" transform="translate(-85.256 -64.426)" fill="none" stroke="#263238" stroke-linecap="round" stroke-linejoin="round" stroke-width="1.103" stroke-dasharray="4.412"/>
      </g>
    </g>
    <g id="Shadow" transform="translate(49.878 303.145)">
      <g id="Group_459" data-name="Group 459">
        <ellipse id="Ellipse_12" data-name="Ellipse 12" cx="132.733" cy="18.549" rx="132.733" ry="18.549" fill="url(#linear-gradient)"/>
        <ellipse id="Ellipse_13" data-name="Ellipse 13" cx="132.733" cy="18.549" rx="132.733" ry="18.549" fill="#fff" stroke="rgba(0,0,0,0)" stroke-miterlimit="10" stroke-width="1" opacity="0.5"/>
      </g>
    </g>
    <g id="Window" transform="translate(57.489 90.161)">
      <g id="Group_460" data-name="Group 460" transform="translate(0 0)">
        <path id="Path_1619" data-name="Path 1619" d="M319.7,126.708V251.5a15.384,15.384,0,0,1-15.382,15.382H84.842A15.384,15.384,0,0,1,69.46,251.5V126.708c0-.367.015-.726.046-1.085a15.38,15.38,0,0,1,15.336-14.3h219.48a15.38,15.38,0,0,1,15.336,14.3C319.689,125.982,319.7,126.341,319.7,126.708Z" transform="translate(-69.46 -111.319)" fill="#fff" stroke="#263238" stroke-linecap="round" stroke-linejoin="round" stroke-width="1.103"/>
        <path id="Rectangle_243" data-name="Rectangle 243" d="M0,0H236.059a0,0,0,0,1,0,0V115.89a13.8,13.8,0,0,1-13.8,13.8H13.8A13.8,13.8,0,0,1,0,115.89V0A0,0,0,0,1,0,0Z" transform="translate(7.485 20.069)" fill="#132735"/>
        <path id="Path_1620" data-name="Path 1620" d="M316.323,140.275v115.28a14.337,14.337,0,0,1-14.255,14.41H94.515a14.337,14.337,0,0,1-14.255-14.41V140.275Z" transform="translate(-72.775 -120.207)" fill="#fff" opacity="0.2"/>
        <path id="Path_1621" data-name="Path 1621" d="M319.679,125.623H69.526a15.38,15.38,0,0,1,15.336-14.3h219.48A15.38,15.38,0,0,1,319.679,125.623Z" transform="translate(-69.48 -111.319)" stroke="#263238" stroke-miterlimit="10" stroke-width="1" fill="url(#linear-gradient)"/>
        <path id="Path_1622" data-name="Path 1622" d="M111.468,120.431a2.724,2.724,0,1,1-2.724-2.724A2.725,2.725,0,0,1,111.468,120.431Z" transform="translate(-80.682 -113.28)" fill="#263238"/>
        <path id="Path_1623" data-name="Path 1623" d="M128.09,120.431a2.725,2.725,0,1,1-2.725-2.724A2.725,2.725,0,0,1,128.09,120.431Z" transform="translate(-85.784 -113.28)" fill="#263238"/>
        <circle id="Ellipse_14" data-name="Ellipse 14" cx="2.725" cy="2.725" r="2.725" transform="translate(48.377 4.427)" fill="#263238"/>
        <path id="Path_1624" data-name="Path 1624" d="M316.32,140.282V255.553A14.42,14.42,0,0,1,301.9,269.972H94.676A14.415,14.415,0,0,1,80.54,258.351l-.008-.008v-.031a14.294,14.294,0,0,1-.268-2.76V140.282Z" transform="translate(-72.777 -120.209)" fill="none" stroke="#263238" stroke-miterlimit="10" stroke-width="1.103"/>
        <path id="Path_1625" data-name="Path 1625" d="M408.44,162.859a14.653,14.653,0,0,0-3.2-1.322l-1.292-5.788h-5.5l-1.284,5.788a14.213,14.213,0,0,0-3.211,1.322l-4.969-3.18-3.892,3.891,3.127,4.969a14.152,14.152,0,0,0-1.322,3.211l-5.788,1.284v5.5l5.788,1.292a14.028,14.028,0,0,0,1.322,3.234l-3.18,5,3.891,3.891,5-3.18a14.208,14.208,0,0,0,3.211,1.331l1.284,5.779h5.5l1.292-5.779a14.646,14.646,0,0,0,3.2-1.331l.252.161V162.713Zm-7.232,20.068a7.11,7.11,0,1,1,7.11-7.11A7.106,7.106,0,0,1,401.208,182.927Z" transform="translate(-165.12 -124.957)" fill="#263238"/>
        <path id="Path_1626" data-name="Path 1626" d="M239.951,163.684V152.079l-12.2-2.706a31.529,31.529,0,0,0-2.79-6.773l1.475-2.324h-57.59l1.422,2.263a30.041,30.041,0,0,0-2.783,6.766l-12.2,2.714v11.605l12.2,2.722a30.446,30.446,0,0,0,2.783,6.82l-6.705,10.543,8.211,8.2,10.535-6.7a30.993,30.993,0,0,0,6.773,2.805l2.706,12.186h11.605l2.729-12.186a31.21,31.21,0,0,0,6.751-2.805l10.543,6.7,8.2-8.2-6.659-10.543a31.806,31.806,0,0,0,2.79-6.759Zm-42.277,9.19a14.992,14.992,0,1,1,14.992-14.992A14.992,14.992,0,0,1,197.673,172.874Z" transform="translate(-95.804 -120.207)" fill="#263238"/>
        <path id="Path_1627" data-name="Path 1627" d="M139.95,271.218l.489-9.205-9.54-2.691a25.855,25.855,0,0,0-1.957-5.474l5.764-8.1-6.177-6.858-8.639,4.885a25.577,25.577,0,0,0-5.26-2.515l-1.652-9.786-9.2-.489-2.661,9.572a24.069,24.069,0,0,0-5.474,1.942l-8.088-5.765-6.865,6.178,4.893,8.646a23.889,23.889,0,0,0-2.523,5.252l-2.79.459v12.469l2.026.573a24.115,24.115,0,0,0,1.957,5.489l-3.983,5.573.268,4.778v.031l.008.008,4.106,4.557,8.654-4.885a23.973,23.973,0,0,0,5.275,2.546l1.575,9.4v.008l.076.389,9.205.489.245-.879v-.008l2.415-8.685a24.633,24.633,0,0,0,5.5-1.942l8.073,5.757,6.865-6.169-4.877-8.654a23.924,23.924,0,0,0,2.492-5.245ZM115.5,256.838a11.92,11.92,0,1,0-.886,16.827A11.921,11.921,0,0,0,115.5,256.838Z" transform="translate(-72.777 -148.053)" fill="#263238"/>
        <path id="Path_1628" data-name="Path 1628" d="M253.3,255.927a18.747,18.747,0,0,0,.559-4.359l6.617-3.479-1.828-6.714-7.47.349a18.573,18.573,0,0,0-2.683-3.468l2.213-7.145-6.032-3.456-5.046,5.506a19.539,19.539,0,0,0-4.345-.553l-3.494-6.623-6.7,1.825.353,7.479a18.98,18.98,0,0,0-3.475,2.681l-7.148-2.206-3.46,6.022,5.535,5.033a18.158,18.158,0,0,0-.546,4.347l-6.63,3.491,1.828,6.714,7.479-.354a17.8,17.8,0,0,0,2.674,3.472l-2.224,7.109,6.032,3.455,5.02-5.459a18.286,18.286,0,0,0,4.355.549l3.484,6.628,6.7-1.824-.295-6.388-.05-1.1a18.433,18.433,0,0,0,3.509-2.685L255.376,267l2.952-5.159.5-.873Zm-15.852,4.079a8.98,8.98,0,1,1,6.3-11.025A8.98,8.98,0,0,1,237.446,260.006Z" transform="translate(-112.512 -146.516)" fill="#263238"/>
        <path id="Path_1629" data-name="Path 1629" d="M353.543,266.5l1.529-9.212-9.327-3.754a24.776,24.776,0,0,0-1.338-5.75l6.712-7.477-5.436-7.6-9.258,3.93a24.627,24.627,0,0,0-5-3.1l-.543-10.045-9.22-1.522-3.776,9.289a25.81,25.81,0,0,0-5.726,1.345l-7.5-6.712-7.592,5.436,3.937,9.251a25.163,25.163,0,0,0-2.805,4.358c-.107.213-.214.428-.313.642l-10.038.559-1.529,9.2,1.514.611,7.813,3.15a24.223,24.223,0,0,0,1.338,5.726l-6.712,7.5,5.436,7.592,9.258-3.945a24.007,24.007,0,0,0,4.993,3.126l.52,10,9.212,1.521,3.769-9.22a24.227,24.227,0,0,0,5.741-1.346l7.484,6.72,7.6-5.443-3.937-9.258a24.12,24.12,0,0,0,3.158-5.023Zm-25.848-.413a12.065,12.065,0,1,1,2.783-16.834A12.067,12.067,0,0,1,327.695,266.09Z" transform="translate(-136.026 -145.284)" fill="#263238"/>
      </g>
    </g>
    <g id="Graphics" transform="translate(68.529 71.68)">
      <g id="Group_468" data-name="Group 468" transform="translate(0 0)">
        <g id="Group_465" data-name="Group 465" transform="translate(0 71.466)">
          <rect id="Rectangle_244" data-name="Rectangle 244" width="90.648" height="118.52" rx="13.11" stroke="#263238" stroke-miterlimit="10" stroke-width="1" fill="url(#linear-gradient)"/>
          <g id="Group_464" data-name="Group 464" transform="translate(8.439 8.955)">
            <path id="Path_1630" data-name="Path 1630" d="M188.213,209.774V310.122a9.087,9.087,0,0,1-9.09,9.09H106.648a9.085,9.085,0,0,1-9.082-9.09V209.774a9.083,9.083,0,0,1,9.082-9.082h72.475A9.085,9.085,0,0,1,188.213,209.774Z" transform="translate(-97.566 -200.692)" fill="#fff" stroke="#263238" stroke-width="1"/>
            <path id="Path_1631" data-name="Path 1631" d="M188.213,209.774v5.374H97.566v-5.374a9.083,9.083,0,0,1,9.082-9.082h72.475A9.085,9.085,0,0,1,188.213,209.774Z" transform="translate(-97.566 -200.692)" stroke="#263238" stroke-miterlimit="10" stroke-width="1" fill="url(#linear-gradient)"/>
            <rect id="Rectangle_246" data-name="Rectangle 246" width="22.301" height="3.74" transform="translate(8.525 20.682)" fill="url(#linear-gradient)"/>
            <rect id="Rectangle_247" data-name="Rectangle 247" width="22.301" height="3.741" transform="translate(8.525 54.217)" fill="url(#linear-gradient)"/>
            <rect id="Rectangle_248" data-name="Rectangle 248" width="22.301" height="3.741" transform="translate(8.525 84.628)" fill="url(#linear-gradient)"/>
            <g id="Group_461" data-name="Group 461" transform="translate(8.525 29.942)">
              <rect id="Rectangle_249" data-name="Rectangle 249" width="63.339" height="2.743" fill="#263238" stroke="rgba(0,0,0,0)" stroke-width="1"/>
              <rect id="Rectangle_250" data-name="Rectangle 250" width="51.918" height="2.673" transform="translate(0 5.251)" fill="#263238" stroke="rgba(0,0,0,0)" stroke-width="1"/>
              <rect id="Rectangle_251" data-name="Rectangle 251" width="58.716" height="2.673" transform="translate(0 10.413)" fill="#263238" stroke="rgba(0,0,0,0)" stroke-width="1"/>
              <rect id="Rectangle_252" data-name="Rectangle 252" width="58.716" height="2.673" transform="translate(0 15.571)" fill="#263238" stroke="rgba(0,0,0,0)" stroke-width="1"/>
            </g>
            <g id="Group_462" data-name="Group 462" transform="translate(8.525 60.353)">
              <rect id="Rectangle_253" data-name="Rectangle 253" width="63.339" height="2.743" fill="#263238" stroke="rgba(0,0,0,0)" stroke-width="1"/>
              <rect id="Rectangle_254" data-name="Rectangle 254" width="51.918" height="2.673" transform="translate(0 5.251)" fill="#263238" stroke="rgba(0,0,0,0)" stroke-width="1"/>
              <rect id="Rectangle_255" data-name="Rectangle 255" width="58.716" height="2.673" transform="translate(0 10.413)" fill="#263238" stroke="rgba(0,0,0,0)" stroke-width="1"/>
            </g>
            <g id="Group_463" data-name="Group 463" transform="translate(8.525 93.748)">
              <rect id="Rectangle_256" data-name="Rectangle 256" width="63.339" height="2.743" fill="#263238" stroke="rgba(0,0,0,0)" stroke-width="1"/>
              <rect id="Rectangle_257" data-name="Rectangle 257" width="51.918" height="2.673" transform="translate(0 5.251)" fill="#263238" stroke="rgba(0,0,0,0)" stroke-width="1"/>
              <rect id="Rectangle_258" data-name="Rectangle 258" width="58.716" height="2.674" transform="translate(0 10.413)" fill="#263238" stroke="rgba(0,0,0,0)" stroke-width="1"/>
            </g>
          </g>
        </g>
        <g id="Group_467" data-name="Group 467" transform="translate(86.163)">
          <path id="Path_1632" data-name="Path 1632" d="M324.8,95.493V136.05a10.829,10.829,0,0,1-10.833,10.833H220.548a10.834,10.834,0,0,1-10.833-10.833V95.493a10.84,10.84,0,0,1,10.833-10.841h93.414A10.836,10.836,0,0,1,324.8,95.493Z" transform="translate(-209.715 -84.652)" fill="#fff" stroke="#222221" stroke-miterlimit="10" stroke-width="1.103"/>
          <path id="Path_1633" data-name="Path 1633" d="M324.8,95.493v.925H209.715v-.925a10.84,10.84,0,0,1,10.833-10.841h93.414A10.836,10.836,0,0,1,324.8,95.493Z" transform="translate(-209.715 -84.652)" stroke="#263238" stroke-miterlimit="10" stroke-width="1" fill="url(#linear-gradient)"/>
          <path id="Path_1634" data-name="Path 1634" d="M232.854,94.682a1.659,1.659,0,1,1,0-2.346A1.658,1.658,0,0,1,232.854,94.682Z" transform="translate(-215.948 -86.861)" fill="#263238" stroke="rgba(0,0,0,0)" stroke-miterlimit="10" stroke-width="1"/>
          <path id="Path_1635" data-name="Path 1635" d="M243.974,94.682a1.659,1.659,0,1,1,0-2.346A1.658,1.658,0,0,1,243.974,94.682Z" transform="translate(-219.362 -86.861)" fill="#263238" stroke="rgba(0,0,0,0)" stroke-miterlimit="10" stroke-width="1"/>
          <path id="Path_1636" data-name="Path 1636" d="M255.094,94.682a1.659,1.659,0,1,1,0-2.346A1.658,1.658,0,0,1,255.094,94.682Z" transform="translate(-222.775 -86.861)" fill="#263238" stroke="rgba(0,0,0,0)" stroke-miterlimit="10" stroke-width="1"/>
          <rect id="Rectangle_259" data-name="Rectangle 259" width="37.617" height="32.516" transform="translate(7.338 19.224)" fill="none" stroke="#263238" stroke-linecap="round" stroke-linejoin="round" stroke-width="1.103" stroke-dasharray="4.412"/>
          <g id="Group_466" data-name="Group 466" transform="translate(50.759 19.224)">
            <rect id="Rectangle_260" data-name="Rectangle 260" width="43.293" height="2.284" fill="#263238" stroke="rgba(0,0,0,0)" stroke-miterlimit="10" stroke-width="1"/>
            <rect id="Rectangle_261" data-name="Rectangle 261" width="33.208" height="2.284" transform="translate(0 4.736)" fill="#263238" stroke="rgba(0,0,0,0)" stroke-miterlimit="10" stroke-width="1"/>
            <rect id="Rectangle_262" data-name="Rectangle 262" width="49.451" height="2.311" transform="translate(0 9.444)" fill="#263238" stroke="rgba(0,0,0,0)" stroke-miterlimit="10" stroke-width="1"/>
            <rect id="Rectangle_263" data-name="Rectangle 263" width="42.108" height="2.311" transform="translate(0 14.045)" fill="#263238" stroke="rgba(0,0,0,0)" stroke-miterlimit="10" stroke-width="1"/>
          </g>
        </g>
      </g>
    </g>
    <g id="Character" transform="translate(167.615 157.09)">
      <g id="Group_470" data-name="Group 470">
        <path id="Path_1637" data-name="Path 1637" d="M275.836,437s-20.1,5.765-22.9,6.759c-2.553.9-9.472,3.325-14.663,2.576a11.193,11.193,0,0,1-1.483-.321c-5.26-1.567-7.622-3.027-8.31-6.338s1.927-5.741,4.449-7.3,16.208-3.187,16.208-3.187l3.3.971h.008Z" transform="translate(-228.362 -275.821)" fill="url(#linear-gradient)"/>
        <path id="Path_1638" data-name="Path 1638" d="M238.269,446.339a11.193,11.193,0,0,1-1.483-.321c-5.26-1.567-7.622-3.027-8.31-6.338s1.927-5.741,4.449-7.3,16.208-3.187,16.208-3.187l3.3.971c-2.989,1.376-14.135,2.14-16.567,3.539s-3.609,4.036-2.171,7.6C234.461,443.2,236.51,445.032,238.269,446.339Z" transform="translate(-228.362 -275.821)" fill="#fff"/>
        <path id="Path_1639" data-name="Path 1639" d="M272.862,438.189s-15.095,3.911-21.08,6.414-17.405,3.6-21.473-1.564-.469-9.6,3.6-10.59,12.293-2.551,16.784-1.925" transform="translate(-228.411 -276.185)" fill="none" stroke="#263238" stroke-linecap="round" stroke-linejoin="round" stroke-width="1.103"/>
        <path id="Path_1640" data-name="Path 1640" d="M240.592,446.493s-7.68-4.211-5.13-10.114c1.882-4.356,12.128-3.411,17.2-5.792" transform="translate(-230.382 -276.249)" fill="none" stroke="#263238" stroke-linecap="round" stroke-linejoin="round" stroke-width="1.103"/>
        <path id="Path_1641" data-name="Path 1641" d="M366.634,447.1a6.371,6.371,0,0,1-3.012,5.252,11.782,11.782,0,0,1-6.177,1.277c-7.049-.092-20.3-5.13-20.3-5.13l-12.408-6.858,6.452-10.214,1.766-2.8,4.564,1.024s3.776,2.141,7.576,3.846,13.019,2.064,16.269,4.694S366.985,443.674,366.634,447.1Z" transform="translate(-257.945 -275.648)" stroke="#707070" stroke-width="1" fill="url(#linear-gradient-11)"/>
        <path id="Path_1642" data-name="Path 1642" d="M369.491,447.1a6.371,6.371,0,0,1-3.012,5.252,9.292,9.292,0,0,0-.352-6.192c-1.376-3.112-5.894-5.856-11.827-6.314s-10.473-3.234-12.851-4.473c-1.857-.963-5.772-3.065-7.4-3.945l1.766-2.8,4.564,1.024s3.776,2.141,7.576,3.846,13.019,2.064,16.269,4.694S369.843,443.674,369.491,447.1Z" transform="translate(-260.803 -275.648)" fill="#fff"/>
        <path id="Path_1643" data-name="Path 1643" d="M328.137,445.391a78.324,78.324,0,0,0,29.041,9.921c2.257.272,4.883.309,6.4-1.387a4.728,4.728,0,0,0,1.042-3.545c-.274-3.185-2.951-5.711-5.889-6.973s-6.181-1.564-9.3-2.263a36.769,36.769,0,0,1-8.944-3.272c-2.242-1.171-4.413-2.591-6.887-3.115s-5.423.112-6.743,2.27" transform="translate(-258.594 -277.475)" fill="url(#linear-gradient)"/>
        <path id="Path_1644" data-name="Path 1644" d="M365.573,453.415a8.263,8.263,0,0,0,4.539-5.863c.45-3-1.26-6.02-3.669-7.867a20.387,20.387,0,0,0-8.392-3.332,54.508,54.508,0,0,1-8.84-2.137c-4.347-1.7-8.635-5.054-13.147-3.858" transform="translate(-261.421 -276.101)" fill="none" stroke="#263238" stroke-linecap="round" stroke-linejoin="round" stroke-width="1.103"/>
        <path id="Path_1645" data-name="Path 1645" d="M315.637,287.76l-20.994-7.989-.26-.1s.077-.559.138-1.369c.13-1.674.2-4.4-.588-5.329-1.17-1.368-4.488-.221-7.722-1.7s-9.22,1.17-9.22,1.17-4.32-.795-6.224,2.324a16.925,16.925,0,0,0-.634,6.261s-.138.053-.4.146c-2.5.933-16.108,6.054-18.99,8.111-3.18,2.255-6.7,25.381-7.829,32.17s-3.142,12.913-2.117,15.252,15.641,13.593,24.051,16.5,38.248,2.057,38.248,2.057.489-.13,1.353-.405c5.046-1.621,22.951-8.3,32.446-24.036C336.9,330.817,327.7,300.65,315.637,287.76Zm-56.719,38.9c-1.544,1.094-.719,5.336-.719,5.336l-2.629-2.316,6.6-16.223,2.813,12.453S260.463,325.572,258.918,326.658ZM311.7,336.963c-.726.375,2.087-7.423.749-9.189s-5.344-1.6-5.344-1.6l.344-2.133c.046-.237,2.378-12.194,2.378-12.194l.787-.94s8.165,14,9.625,18.928C320.239,329.838,311.34,336.963,311.7,336.963Z" transform="translate(-232.093 -227.207)" fill="url(#linear-gradient)"/>
        <path id="Path_1646" data-name="Path 1646" d="M286.456,222.254l-10.834,11.5s-1.495,1.32-.9,4.657,1.977,6.2,3.022,6.427a14.849,14.849,0,0,0,2.509.225,44.756,44.756,0,0,0,3.966,7.009s.573,7.766.268,9.923c0,0,3.893,3.4,7.559,3.833s9.332-5.185,9.332-5.185l1.4-6.877s3.323-5.045,3.55-6.389,1.746-1,2.493-1.661a12.648,12.648,0,0,0,2.76-6.427c.286-2.8.306-6.016-2.947-5.072-2.819-.758-1.054-6.716-1.054-6.716l-4.953-4.37Z" transform="translate(-242.549 -212.3)" fill="#fff"/>
        <path id="Path_1647" data-name="Path 1647" d="M307.584,279.771a10.941,10.941,0,0,1-.558,1.254c-1.789,3.372-9.579,9.793-9.579,9.793l-2.354-7.24-1.293,7.24c-2.6-1.132-10.527-8-10.527-8s-.267-.642-.6-1.643c.26-.092.4-.146.4-.146a16.925,16.925,0,0,1,.634-6.261c1.9-3.119,6.224-2.324,6.224-2.324s5.986-2.653,9.22-1.17,6.552.337,7.722,1.7.45,6.7.45,6.7Z" transform="translate(-245.034 -227.207)" fill="#fff" opacity="0.5"/>
        <path id="Path_1648" data-name="Path 1648" d="M337.988,291.075l-20.994-7.989-.26-.1s.077-.559.138-1.369l-.436,2.722-3.1,4.22a85.062,85.062,0,0,1,9.687,4.27,8.508,8.508,0,0,1,4.45,8.486l-3.87,33.091L322.018,353.2l4.785,4.969c5.046-1.621,22.951-8.3,32.446-24.036C359.249,334.131,350.052,303.965,337.988,291.075Zm-3.937,49.2c-.726.375,2.087-7.423.749-9.189s-5.344-1.6-5.344-1.6l.344-2.133c.046-.237,2.378-12.194,2.378-12.194l.787-.94s8.165,14,9.625,18.928C342.59,333.153,333.691,340.278,334.051,340.278Z" transform="translate(-254.444 -230.522)" fill="url(#linear-gradient)"/>
        <path id="Path_1649" data-name="Path 1649" d="M268.406,337.146l-3.265-10.909s-5.853-19.963-9.866-24.886l1.055,14.039s-3.443,16.772-6.631,21.756-3.876,6.223,0,6.223,13.3,7.515,13.3,7.515l-.726-6.269Zm-8.2,4.22-2.629-2.316,6.6-16.223,2.813,12.453s-4.518-.336-6.063.749S260.2,341.366,260.2,341.366Z" transform="translate(-234.096 -236.579)" fill="url(#linear-gradient)"/>
        <path id="Path_1650" data-name="Path 1650" d="M288.485,265.284s.6,5.882,0,8.57" transform="translate(-246.817 -225.508)" fill="none" stroke="#263238" stroke-linecap="round" stroke-linejoin="round" stroke-width="1.103"/>
        <path id="Path_1651" data-name="Path 1651" d="M314.108,274.024a25.226,25.226,0,0,1,.655-5.621" transform="translate(-254.682 -226.466)" fill="none" stroke="#263238" stroke-linecap="round" stroke-linejoin="round" stroke-width="1.103"/>
        <path id="Path_1652" data-name="Path 1652" d="M305.8,228.582s3.559,4.472,3.376,7.848-.456,7.392-.365,11.316-6.3,12.137-9.582,12.867-6.114.913-8.213-1.186a79.4,79.4,0,0,1-6.936-8.761c-2.738-3.742-2.1-11.955-2.1-11.955" transform="translate(-244.802 -214.242)" fill="none" stroke="#263238" stroke-linecap="round" stroke-linejoin="round" stroke-width="1.103"/>
        <path id="Path_1653" data-name="Path 1653" d="M303.871,247.714a18.478,18.478,0,0,0-.277,3.72,4.231,4.231,0,0,0,.913,2.914c.393.4.965.722,1.04,1.279a1.351,1.351,0,0,1-.731,1.211,10.326,10.326,0,0,0-1.283.762" transform="translate(-251.436 -220.115)" fill="none" stroke="#263238" stroke-linecap="round" stroke-linejoin="round" stroke-width="1.103"/>
        <path id="Path_1654" data-name="Path 1654" d="M295.866,262.6s.412,2.652,3.969,3.207" transform="translate(-249.083 -224.686)" fill="none" stroke="#263238" stroke-linecap="round" stroke-linejoin="round" stroke-width="1.103"/>
        <path id="Path_1655" data-name="Path 1655" d="M295.744,250.017c0,.767-.331,1.388-.74,1.388s-.74-.622-.74-1.388.331-1.387.74-1.387S295.744,249.251,295.744,250.017Z" transform="translate(-248.591 -220.396)" fill="#263238"/>
        <path id="Path_1656" data-name="Path 1656" d="M311.053,250.5c0,.766-.331,1.388-.74,1.388s-.74-.622-.74-1.388.331-1.387.74-1.387S311.053,249.732,311.053,250.5Z" transform="translate(-253.29 -220.544)" fill="#263238"/>
        <path id="Path_1657" data-name="Path 1657" d="M308.621,245.635s3.45-3.45,6.369.4" transform="translate(-252.998 -219.04)" fill="none" stroke="#263238" stroke-linecap="round" stroke-linejoin="round" stroke-width="2.206"/>
        <path id="Path_1658" data-name="Path 1658" d="M295.593,245.877s-2.189-2.454-5.639,0" transform="translate(-247.268 -219.216)" fill="none" stroke="#263238" stroke-linecap="round" stroke-linejoin="round" stroke-width="2.206"/>
        <path id="Path_1659" data-name="Path 1659" d="M288.753,268.516s2.113,5.824,6.832,7.477,10.985-6.921,10.985-6.921l-.327-1.114s-4.106,5.334-8.673,4.424-9.084-7.1-9.084-7.1Z" transform="translate(-246.817 -225.508)" fill="#263238"/>
        <path id="Path_1660" data-name="Path 1660" d="M280.313,249.724s-2.813.993-3.561-1.2-3.313-7.962-1.069-9.885,4.047,2.539,4.047,2.539" transform="translate(-242.611 -217.182)" fill="none" stroke="#263238" stroke-linecap="round" stroke-linejoin="round" stroke-width="1.103"/>
        <path id="Path_1661" data-name="Path 1661" d="M320.72,251.241s2.615.526,3.363-1.666,3.312-7.962,1.069-9.885-4.047,2.539-4.047,2.539" transform="translate(-256.712 -217.504)" fill="none" stroke="#263238" stroke-linecap="round" stroke-linejoin="round" stroke-width="1.103"/>
        <path id="Path_1662" data-name="Path 1662" d="M278.372,237.512a3.9,3.9,0,0,0,2.469-1.458,6.146,6.146,0,0,0,.717-2.212,26.716,26.716,0,0,0,.392-4.459,6,6,0,0,1,.157-1.738,4.451,4.451,0,0,1,.94-1.546c.982-1.151,2.164-2.123,3.1-3.313a5.528,5.528,0,0,0,1.367-4.188,19.028,19.028,0,0,0,15.575,4.028c4.95-.971,9.7-5.316,9.124-10.775a4.418,4.418,0,0,0-3.488-3.8c-2.448-.608-4.647.7-6.864,1.532-4.042,1.524-8-1.094-12.081-1.533-3.493-.376-7.78.058-9.6,3.53,0,0-6.274.737-9.022,5.889s2.476,12.286,2.476,12.286,2.1-2.545,4.8,2.607Z" transform="translate(-241.253 -207.891)" fill="#263238"/>
        <path id="Path_1663" data-name="Path 1663" d="M316.817,225.713s-1.622,8.454,2.611,12.548c0,0,.927-2.541,1.866-3.161a9.8,9.8,0,0,0-.742-9.387C317.455,220.793,316.817,225.713,316.817,225.713Z" transform="translate(-255.42 -212.69)" fill="#263238"/>
        <path id="Path_1664" data-name="Path 1664" d="M313.638,212.8a7.987,7.987,0,0,1-4.831,5.043c-5.877,2.394-11.585-.261-17.469-.781-4.809-.426-10.111,3.907-10.446,8.844" transform="translate(-244.486 -209.398)" fill="none" stroke="#fff" stroke-linecap="round" stroke-linejoin="round" stroke-width="1.103" opacity="0.2"/>
        <path id="Path_1665" data-name="Path 1665" d="M275.626,225.815a10.274,10.274,0,0,1,6.26-9.066" transform="translate(-242.87 -210.61)" fill="none" stroke="#fff" stroke-linecap="round" stroke-linejoin="round" stroke-width="1.103" opacity="0.2"/>
        <path id="Path_1666" data-name="Path 1666" d="M286.53,276.21a26.8,26.8,0,0,0,9.152,6.261s7.035-2.04,10.616-6.946" transform="translate(-246.217 -228.652)" fill="none" stroke="#263238" stroke-linecap="round" stroke-linejoin="round" stroke-width="1.103"/>
        <circle id="Ellipse_15" data-name="Ellipse 15" cx="6.226" cy="6.226" r="6.226" transform="translate(36.645 26.558) rotate(-24.636)" fill="none" stroke="#263238" stroke-linecap="round" stroke-linejoin="round" stroke-width="1.103"/>
        <circle id="Ellipse_16" data-name="Ellipse 16" cx="6.225" cy="6.225" r="6.225" transform="translate(51.87 24.201) rotate(-7.003)" fill="none" stroke="#263238" stroke-linecap="round" stroke-linejoin="round" stroke-width="1.103"/>
        <path id="Path_1667" data-name="Path 1667" d="M286.877,273.162a4.88,4.88,0,0,0-2.995,2.322c-1.1,1.938-.437,8.046-.437,8.046s5.689,5.63,10.532,8l1.429-8.035,2.218,8.035s7.5-5.3,9.578-9.789c0,0,.677-5.228,0-6.946a2.4,2.4,0,0,0-2.239-1.638" transform="translate(-245.209 -227.926)" fill="none" stroke="#263238" stroke-linecap="round" stroke-linejoin="round" stroke-width="1.103"/>
        <path id="Path_1668" data-name="Path 1668" d="M273.332,341.408s-2.221-14.9-5.18-20.976" transform="translate(-240.576 -242.436)" fill="none" stroke="#263238" stroke-linecap="round" stroke-linejoin="round" stroke-width="1.103"/>
        <path id="Path_1669" data-name="Path 1669" d="M258.921,301.351a60.365,60.365,0,0,1,4.6,7.7" transform="translate(-237.742 -236.579)" fill="none" stroke="#263238" stroke-linecap="round" stroke-linejoin="round" stroke-width="1.103"/>
        <path id="Path_1670" data-name="Path 1670" d="M343.228,314.178a43.022,43.022,0,0,1,2.445-7.272" transform="translate(-263.621 -238.284)" fill="none" stroke="#263238" stroke-linecap="round" stroke-linejoin="round" stroke-width="1.103"/>
        <path id="Path_1671" data-name="Path 1671" d="M336.6,342.447s1.6-10.213,3.513-18.63" transform="translate(-261.585 -243.475)" fill="none" stroke="#263238" stroke-linecap="round" stroke-linejoin="round" stroke-width="1.103"/>
        <path id="Path_1672" data-name="Path 1672" d="M340.521,328.141a11.748,11.748,0,0,1,6.2-4.238" transform="translate(-262.79 -243.502)" fill="none" stroke="#263238" stroke-linecap="round" stroke-linejoin="round" stroke-width="1.103"/>
        <path id="Path_1673" data-name="Path 1673" d="M318.245,283.592s12.918,5.16,21.254,8.09c0,0,10.257,9.646,21.254,43.056,0,0-10.08,16.953-29.246,22.387" transform="translate(-255.952 -231.128)" fill="none" stroke="#263238" stroke-linecap="round" stroke-linejoin="round" stroke-width="1.103"/>
        <path id="Path_1674" data-name="Path 1674" d="M342.184,362.795l9.26-7.732s4.9-3.724,9.994-1.176" transform="translate(-263.3 -252.432)" fill="none" stroke="#263238" stroke-linecap="round" stroke-linejoin="round" stroke-width="1.103"/>
        <path id="Path_1675" data-name="Path 1675" d="M341.665,328.669s7.661,11.283,9.62,18.926" transform="translate(-263.141 -244.964)" fill="none" stroke="#263238" stroke-linecap="round" stroke-linejoin="round" stroke-width="1.103"/>
        <path id="Path_1676" data-name="Path 1676" d="M261.152,358.531l-2.711-2.584a12.707,12.707,0,0,0-8.579,2.351" transform="translate(-234.962 -253.316)" fill="none" stroke="#263238" stroke-linecap="round" stroke-linejoin="round" stroke-width="1.103"/>
        <path id="Path_1677" data-name="Path 1677" d="M262.241,348.552s3.366-11.058,6.687-16.765" transform="translate(-238.761 -245.922)" fill="none" stroke="#263238" stroke-linecap="round" stroke-linejoin="round" stroke-width="1.103"/>
        <path id="Path_1678" data-name="Path 1678" d="M270.255,285.547s-18.581,6.972-20.4,9-8.746,41.027-8.928,45.489c-.163,3.989,14.311,12.952,21.46,16.73" transform="translate(-232.217 -231.728)" fill="none" stroke="#263238" stroke-linecap="round" stroke-linejoin="round" stroke-width="1.103"/>
        <rect id="Rectangle_264" data-name="Rectangle 264" width="30.227" height="21.475" rx="6.532" transform="translate(79.607 26.083)" fill="#fff" stroke="#263238" stroke-linecap="round" stroke-linejoin="round" stroke-width="1.103"/>
        <path id="Path_1679" data-name="Path 1679" d="M354.725,254.846l-5.812,3.649,5.394,4.784" transform="translate(-265.366 -222.304)" fill="none" stroke="#263238" stroke-linecap="round" stroke-linejoin="round" stroke-width="1.103"/>
        <path id="Path_1680" data-name="Path 1680" d="M372.225,263.793l5.223-4.452-6.029-3.953" transform="translate(-272.274 -222.47)" fill="none" stroke="#263238" stroke-linecap="round" stroke-linejoin="round" stroke-width="1.103"/>
        <line id="Line_3" data-name="Line 3" y1="13.454" x2="4.291" transform="translate(92.185 30.607)" fill="none" stroke="#263238" stroke-linecap="round" stroke-linejoin="round" stroke-width="1.103"/>
        <path id="Path_1681" data-name="Path 1681" d="M302.213,304.015a1.222,1.222,0,1,1-1.222-1.222A1.222,1.222,0,0,1,302.213,304.015Z" transform="translate(-250.281 -237.022)" fill="#263238"/>
        <g id="Group_469" data-name="Group 469" transform="translate(25.57 98.972)">
          <path id="Path_1682" data-name="Path 1682" d="M315.151,397.9H272.863a.991.991,0,0,1-.991-.992h0a.991.991,0,0,1,.991-.991h42.288a.991.991,0,0,1,.991.991h0A.991.991,0,0,1,315.151,397.9Z" transform="translate(-267.288 -364.578)" fill="#263238"/>
          <path id="Path_1683" data-name="Path 1683" d="M314.6,380.732l5.667-26.612a2.832,2.832,0,0,0-2.77-3.422H268.09a2.832,2.832,0,0,0-2.778,3.381l5.081,25.727a2.831,2.831,0,0,0,2.713,2.282l38.66.886A2.832,2.832,0,0,0,314.6,380.732Z" transform="translate(-265.257 -350.698)" fill="#fff" stroke="#263238" stroke-linecap="round" stroke-linejoin="round" stroke-width="1.103"/>
          <path id="Path_1684" data-name="Path 1684" d="M306.945,371.079A3.944,3.944,0,1,1,303,367.135,3.944,3.944,0,0,1,306.945,371.079Z" transform="translate(-275.632 -355.743)" fill="#263238"/>
          <line id="Line_4" data-name="Line 4" x2="5.87" transform="translate(39.066 2.525)" fill="none" stroke="#263238" stroke-linecap="round" stroke-linejoin="round" stroke-width="1.103"/>
          <line id="Line_5" data-name="Line 5" x2="22.283" transform="translate(11.033 2.525)" fill="none" stroke="#263238" stroke-linecap="round" stroke-linejoin="round" stroke-width="1.103"/>
        </g>
        <path id="Path_1685" data-name="Path 1685" d="M304.761,418.948l-4.505,11.822s-11.484-2.9-26.2-5.911c-15.388-3.153-31.461-7.236-39.8-21.862a8.284,8.284,0,0,1-1.217-5.887c1.2-5.052,7.775-6.424,12.107-6.929a80.591,80.591,0,0,1,8.2-.462c1.4-.019,6-.75,7.11.069a32.6,32.6,0,0,0,5.348,3.169c2.46,1.044,38.372-.938,38.372-.938a12.818,12.818,0,0,0,1.13-4.312c5.645-2.869,18.717-5.3,24.24-4.225,8.686,1.689,13.752,6.756,12.787,12.063S322.2,415.088,304.761,418.948Z" transform="translate(-229.75 -261.71)" fill="#263238"/>
        <path id="Path_1686" data-name="Path 1686" d="M315.253,425.6a74.812,74.812,0,0,1-19.851-8.927c-8.926-6.032-15.9-13.029-28.337-11.581" transform="translate(-240.242 -268.365)" fill="none" stroke="#fff" stroke-linecap="round" stroke-linejoin="round" stroke-width="1.103"/>
        <path id="Path_1687" data-name="Path 1687" d="M304.99,411.5c5.639-1.622,9.777-5.269,14.3-8.773A96.847,96.847,0,0,1,334.6,392.662" transform="translate(-251.883 -264.608)" fill="none" stroke="#fff" stroke-linecap="round" stroke-linejoin="round" stroke-width="1.103"/>
        <line id="Line_6" data-name="Line 6" x2="1.654" transform="translate(51.125 30.607)" fill="none" stroke="#263238" stroke-linecap="round" stroke-linejoin="round" stroke-width="1.103"/>
      </g>
    </g>
  </g>
</svg>
