<svg xmlns="http://www.w3.org/2000/svg" xmlns:xlink="http://www.w3.org/1999/xlink" width="304.592" height="283.592" viewBox="0 0 304.592 283.592">
  <defs>
    <linearGradient id="linear-gradient" x2="1.01" y2="1" gradientUnits="objectBoundingBox">
      <stop offset="0" stop-color="#fb2a59"/>
      <stop offset="1" stop-color="#7e152d"/>
    </linearGradient>
    <clipPath id="clip-path">
      <path id="Path_1723" data-name="Path 1723" d="M362.458,408.518c-4.913,8.005-29.843,11.764-43.45,11.409s-52.762-18.891-55.418-22.817c-2.46-3.636-8.506-15.654.813-22.919a18.056,18.056,0,0,1,2.511-1.626C273.293,369.11,315.72,380,315.72,380s2.627-1.662,3.592-1.539c2.961.377,5.058,2.772,11.06,4.478,4.188,1.2,15.618-3.4,22.919.552a10.071,10.071,0,0,1,2.221,1.611C362.335,391.622,367.364,400.513,362.458,408.518Z" transform="translate(-259.382 -371.887)" fill="#92e3a9" stroke="#263238" stroke-linecap="round" stroke-linejoin="round" stroke-width="1"/>
    </clipPath>
    <clipPath id="clip-path-2">
      <path id="Path_1728" data-name="Path 1728" d="M332.162,429.046l12.712,9.978A145.48,145.48,0,0,0,363.1,436.3v-.006c6.024-1.395,11.284-3.4,11.573-6.135.441-4.167-4.013-5.308-9.306-5.146-.99.022-2,.1-3.027.205-8.472.908-19.239-3.772-19.239-3.772Z" transform="translate(-332.162 -421.446)" fill="#263238" stroke="#263238" stroke-linecap="round" stroke-linejoin="round" stroke-width="1"/>
    </clipPath>
    <clipPath id="clip-path-3">
      <path id="Path_1732" data-name="Path 1732" d="M348.156,437.323c-2.292.374.226,5.061,3.333,3.637S350.448,436.949,348.156,437.323Z" transform="translate(-347.268 -437.287)" fill="#fff" stroke="#263238" stroke-linecap="round" stroke-linejoin="round" stroke-width="1"/>
    </clipPath>
    <clipPath id="clip-path-4">
      <path id="Path_1736" data-name="Path 1736" d="M374.423,437.635c6.024-1.395,11.284-3.4,11.573-6.135.441-4.167-4.013-5.308-9.306-5.146C376.458,426.576,371.328,431.538,374.423,437.635Z" transform="translate(-373.433 -426.34)" fill="#fff" stroke="#263238" stroke-linecap="round" stroke-linejoin="round" stroke-width="1"/>
    </clipPath>
    <clipPath id="clip-path-5">
      <path id="Path_1746" data-name="Path 1746" d="M305.369,429.158l-13.69,8.588a145.482,145.482,0,0,1-17.842-4.624v-.007c-5.845-2.019-10.865-4.561-10.865-7.317,0-4.19,4.548-4.857,9.8-4.14.981.126,1.982.308,2.989.523,8.329,1.793,19.528-1.73,19.528-1.73Z" transform="translate(-262.972 -420.45)" fill="#263238" stroke="#263238" stroke-linecap="round" stroke-linejoin="round" stroke-width="1"/>
    </clipPath>
  </defs>
  <g id="intro2" transform="translate(-41.492 -57.514)">
    <g id="Background_Simple" data-name="Background Simple" transform="translate(55.065 59.921)">
      <g id="Group_472" data-name="Group 472">
        <path id="Path_1688" data-name="Path 1688" d="M66.512,329.908H219.8q.932-1.484,1.883-2.94c16.49-25.1,42.889-43,71.724-51.389,12.918-3.761,26.912-6,37.292-14.558,10.68-8.808,15.585-22.858,17.71-36.537,2.572-16.564,1.181-35.13-10.062-47.562-13.2-14.6-35.321-16.236-52.523-25.807-29.6-16.472-41.08-53.988-68.011-74.54C200.807,63.6,177.83,58.567,157.283,61.412,128.115,65.45,100.67,85,92.432,113.638a72.418,72.418,0,0,0-2.5,25.7c1.318,17.091,4.995,34.4,1.526,51.189-3.822,18.5-15.86,34.122-23.053,51.592-8.954,21.749-10.187,46.161-6.358,69.368A119.383,119.383,0,0,0,66.512,329.908Z" transform="translate(-60.005 -60.642)" fill="url(#linear-gradient)"/>
        <path id="Path_1689" data-name="Path 1689" d="M66.512,329.908H219.8q.932-1.484,1.883-2.94c16.49-25.1,42.889-43,71.724-51.389,12.918-3.761,26.912-6,37.292-14.558,10.68-8.808,15.585-22.858,17.71-36.537,2.572-16.564,1.181-35.13-10.062-47.562-13.2-14.6-35.321-16.236-52.523-25.807-29.6-16.472-41.08-53.988-68.011-74.54C200.807,63.6,177.83,58.567,157.283,61.412,128.115,65.45,100.67,85,92.432,113.638a72.418,72.418,0,0,0-2.5,25.7c1.318,17.091,4.995,34.4,1.526,51.189-3.822,18.5-15.86,34.122-23.053,51.592-8.954,21.749-10.187,46.161-6.358,69.368A119.383,119.383,0,0,0,66.512,329.908Z" transform="translate(-60.005 -60.642)" fill="#f4d3ed" opacity="0.7"/>
      </g>
    </g>
    <g id="Floor" transform="translate(41.992 329.188)">
      <line id="Line_7" data-name="Line 7" x2="303.592" fill="none" stroke="#263238" stroke-linecap="round" stroke-linejoin="round" stroke-width="1"/>
    </g>
    <g id="Graphics" transform="translate(100.579 61.22)">
      <g id="Group_477" data-name="Group 477">
        <path id="Path_1690" data-name="Path 1690" d="M255.319,99.414V88.02l-8.534-.735a23.49,23.49,0,0,0-2.11-5.114l5.509-6.548-8.056-8.056-6.548,5.509a23.526,23.526,0,0,0-5.114-2.11l-.735-8.534H218.336l-.735,8.534a23.526,23.526,0,0,0-5.114,2.11l-6.548-5.509-8.056,8.056,5.509,6.548a23.525,23.525,0,0,0-2.11,5.114l-8.534.735V99.414l8.534.735a23.525,23.525,0,0,0,2.11,5.114l-5.509,6.548,8.056,8.056,6.548-5.509a23.49,23.49,0,0,0,5.114,2.11l.735,8.534H229.73l.735-8.534a23.491,23.491,0,0,0,5.114-2.11l6.548,5.509,8.056-8.056-5.509-6.548a23.49,23.49,0,0,0,2.11-5.114Zm-31.285,7.543a13.239,13.239,0,1,1,13.239-13.24A13.239,13.239,0,0,1,224.033,106.956Z" transform="translate(-141.924 -62.431)" fill="none" stroke="#263238" stroke-linecap="round" stroke-linejoin="round" stroke-width="1"/>
        <path id="Path_1691" data-name="Path 1691" d="M436.349,260.143v-5.464l-4.092-.353a11.254,11.254,0,0,0-1.012-2.452l2.642-3.14-3.864-3.864-3.14,2.642a11.233,11.233,0,0,0-2.452-1.012l-.353-4.093h-5.464l-.353,4.093a11.247,11.247,0,0,0-2.452,1.012l-3.14-2.642-3.864,3.864,2.642,3.14a11.274,11.274,0,0,0-1.012,2.452l-4.092.353v5.464l4.092.353a11.273,11.273,0,0,0,1.012,2.452l-2.642,3.14,3.864,3.864,3.14-2.642a11.252,11.252,0,0,0,2.452,1.012l.353,4.092h5.464l.353-4.092a11.239,11.239,0,0,0,2.452-1.012l3.14,2.642,3.864-3.864-2.642-3.14a11.238,11.238,0,0,0,1.012-2.452Zm-15,3.617a6.349,6.349,0,1,1,6.349-6.349A6.349,6.349,0,0,1,421.346,263.76Z" transform="translate(-200.504 -111.79)" fill="none" stroke="#263238" stroke-linecap="round" stroke-linejoin="round" stroke-width="1"/>
        <g id="Group_474" data-name="Group 474" transform="translate(166.482 23.879)">
          <path id="Path_1692" data-name="Path 1692" d="M417.369,120.347a14.9,14.9,0,0,0-18.406-17.737,14.294,14.294,0,0,0-26.718,6.122,11.645,11.645,0,0,0-13.767,10.158,6.5,6.5,0,0,0,.142,13.005h54.639a6.5,6.5,0,0,0,4.11-11.548Z" transform="translate(-352.113 -95.333)" fill="none" stroke="#263238" stroke-linecap="round" stroke-linejoin="round" stroke-width="1"/>
          <g id="Group_473" data-name="Group 473" transform="translate(32.369 16.908)">
            <line id="Line_8" data-name="Line 8" y2="15.057" transform="translate(2.844 14.662)" fill="none" stroke="#263238" stroke-linecap="round" stroke-linejoin="round" stroke-width="1"/>
            <line id="Line_9" data-name="Line 9" y2="6.023" transform="translate(2.844 5.628)" fill="none" stroke="#263238" stroke-linecap="round" stroke-linejoin="round" stroke-width="1"/>
            <line id="Line_10" data-name="Line 10" y2="3.222" transform="translate(2.844)" fill="none" stroke="#263238" stroke-linecap="round" stroke-linejoin="round" stroke-width="1"/>
            <path id="Path_1693" data-name="Path 1693" d="M396.713,157.156l2.844,3.52,2.844-3.52" transform="translate(-396.713 -129.196)" fill="none" stroke="#263238" stroke-linecap="round" stroke-linejoin="round" stroke-width="1"/>
          </g>
        </g>
        <g id="Group_476" data-name="Group 476" transform="translate(0 200.49)">
          <path id="Path_1694" data-name="Path 1694" d="M187.975,363.7a14.9,14.9,0,0,0-18.406-17.737,14.294,14.294,0,0,0-26.718,6.122,11.65,11.65,0,0,0-13.768,10.158,6.5,6.5,0,0,0,.142,13.005h54.639a6.505,6.505,0,0,0,4.111-11.548Z" transform="translate(-122.719 -338.685)" fill="none" stroke="#263238" stroke-linecap="round" stroke-linejoin="round" stroke-width="1"/>
          <g id="Group_475" data-name="Group 475" transform="translate(32.369 16.907)">
            <line id="Line_11" data-name="Line 11" y1="15.057" transform="translate(2.844 1.76)" fill="none" stroke="#263238" stroke-linecap="round" stroke-linejoin="round" stroke-width="1"/>
            <line id="Line_12" data-name="Line 12" y1="6.023" transform="translate(2.844 19.828)" fill="none" stroke="#263238" stroke-linecap="round" stroke-linejoin="round" stroke-width="1"/>
            <line id="Line_13" data-name="Line 13" y1="3.222" transform="translate(2.844 28.258)" fill="none" stroke="#263238" stroke-linecap="round" stroke-linejoin="round" stroke-width="1"/>
            <path id="Path_1695" data-name="Path 1695" d="M173.007,365.5l-2.844-3.52-2.844,3.52" transform="translate(-167.32 -361.982)" fill="none" stroke="#263238" stroke-linecap="round" stroke-linejoin="round" stroke-width="1"/>
          </g>
        </g>
      </g>
    </g>
    <g id="Interface" transform="translate(48.758 58.014)">
      <g id="Group_494" data-name="Group 494" transform="translate(0)">
        <path id="Path_1787" data-name="Path 1787" d="M3.454,0H187.208a3.436,3.436,0,0,1,3.454,3.417v8.26H0V3.417A3.436,3.436,0,0,1,3.454,0Z" transform="translate(6.751 37.656)" stroke="#263238" stroke-miterlimit="10" stroke-width="1" fill="url(#linear-gradient)"/>
        <path id="Path_1788" data-name="Path 1788" d="M0,0H190.663V134.167H0Z" transform="translate(6.75 51.495)" fill="#fff" stroke="#263238" stroke-width="1"/>
        <path id="Path_1696" data-name="Path 1696" d="M325.144,116.841a2.919,2.919,0,1,1-2.919-2.919A2.919,2.919,0,0,1,325.144,116.841Z" transform="translate(-132.716 -73.347)" fill="#fff" stroke="#263238" stroke-linecap="round" stroke-linejoin="round" stroke-width="1"/>
        <path id="Path_1697" data-name="Path 1697" d="M310.984,116.841a2.919,2.919,0,1,1-2.919-2.919A2.919,2.919,0,0,1,310.984,116.841Z" transform="translate(-128.832 -73.347)" fill="#fff" stroke="#263238" stroke-linecap="round" stroke-linejoin="round" stroke-width="1"/>
        <path id="Path_1698" data-name="Path 1698" d="M296.824,116.841a2.919,2.919,0,1,1-2.92-2.919A2.92,2.92,0,0,1,296.824,116.841Z" transform="translate(-124.949 -73.347)" fill="#fff" stroke="#263238" stroke-linecap="round" stroke-linejoin="round" stroke-width="1"/>
        <g id="Group_478" data-name="Group 478" transform="translate(184.086 57.249)">
          <line id="Line_14" data-name="Line 14" x1="7.551" fill="none" stroke="#263238" stroke-linecap="round" stroke-linejoin="round" stroke-width="2"/>
          <line id="Line_15" data-name="Line 15" x1="7.551" transform="translate(0 3.062)" fill="none" stroke="#263238" stroke-linecap="round" stroke-linejoin="round" stroke-width="2"/>
          <line id="Line_16" data-name="Line 16" x1="7.551" transform="translate(0 6.125)" fill="none" stroke="#263238" stroke-linecap="round" stroke-linejoin="round" stroke-width="2"/>
        </g>
        <g id="Group_479" data-name="Group 479" transform="translate(19.957 136.413)">
          <line id="Line_17" data-name="Line 17" x2="57.135" fill="none" stroke="#263238" stroke-linecap="round" stroke-linejoin="round" stroke-width="2"/>
          <line id="Line_18" data-name="Line 18" x2="57.135" transform="translate(0 4.507)" fill="none" stroke="#263238" stroke-linecap="round" stroke-linejoin="round" stroke-width="2"/>
          <line id="Line_19" data-name="Line 19" x2="45.049" transform="translate(0 9.099)" fill="none" stroke="#263238" stroke-linecap="round" stroke-linejoin="round" stroke-width="2"/>
        </g>
        <g id="Group_480" data-name="Group 480" transform="translate(9.047 53.008)">
          <line id="Line_20" data-name="Line 20" y2="130.433" transform="translate(132.07)" fill="none" stroke="#263238" stroke-linecap="round" stroke-linejoin="round" stroke-width="1" stroke-dasharray="1 3"/>
          <line id="Line_21" data-name="Line 21" x2="185.447" transform="translate(0 102.566)" fill="none" stroke="#263238" stroke-linecap="round" stroke-linejoin="round" stroke-width="1" stroke-dasharray="1 3"/>
          <rect id="Rectangle_267" data-name="Rectangle 267" width="2.501" height="2.501" transform="translate(130.819 101.315)" fill="#fff" stroke="#263238" stroke-linecap="round" stroke-linejoin="round" stroke-width="1"/>
        </g>
        <g id="Group_482" data-name="Group 482" transform="translate(46.578)">
          <path id="Path_1699" data-name="Path 1699" d="M152.855,58.014H117.072a1.579,1.579,0,0,0-1.578,1.579V76.245a1.579,1.579,0,0,0,1.578,1.579H133.13l1.833,6.564,1.833-6.564h16.058a1.579,1.579,0,0,0,1.579-1.579V59.593A1.579,1.579,0,0,0,152.855,58.014Z" transform="translate(-115.494 -58.014)" stroke="#263238" stroke-miterlimit="10" stroke-width="1" fill="url(#linear-gradient)"/>
          <g id="Group_481" data-name="Group 481" transform="translate(5.953 4.768)">
            <line id="Line_22" data-name="Line 22" x2="27.034" fill="none" stroke="#263238" stroke-linecap="round" stroke-linejoin="round" stroke-width="2"/>
            <line id="Line_23" data-name="Line 23" x2="27.034" transform="translate(0 3.425)" fill="none" stroke="#263238" stroke-linecap="round" stroke-linejoin="round" stroke-width="2"/>
            <line id="Line_24" data-name="Line 24" x2="27.034" transform="translate(0 6.85)" fill="none" stroke="#263238" stroke-linecap="round" stroke-linejoin="round" stroke-width="2"/>
            <line id="Line_25" data-name="Line 25" x2="20.374" transform="translate(0 10.275)" fill="none" stroke="#263238" stroke-linecap="round" stroke-linejoin="round" stroke-width="2"/>
          </g>
        </g>
        <g id="Group_484" data-name="Group 484" transform="translate(30.399 176.777)">
          <rect id="Rectangle_268" data-name="Rectangle 268" width="38.94" height="24.406" fill="#263238" stroke="#263238" stroke-linecap="round" stroke-linejoin="round" stroke-width="1"/>
          <rect id="Rectangle_269" data-name="Rectangle 269" width="38.94" height="3.711" stroke="#263238" stroke-miterlimit="10" stroke-width="1" fill="url(#linear-gradient)"/>
          <g id="Group_483" data-name="Group 483" transform="translate(3.974 6.838)">
            <line id="Line_26" data-name="Line 26" x2="9.953" fill="none" stroke="#fff" stroke-linecap="round" stroke-linejoin="round" stroke-width="1"/>
            <line id="Line_27" data-name="Line 27" x2="17.227" transform="translate(4.977 2.775)" fill="none" stroke="#fff" stroke-linecap="round" stroke-linejoin="round" stroke-width="1"/>
            <line id="Line_28" data-name="Line 28" x2="5.072" transform="translate(2.775 5.365)" fill="none" stroke="#fff" stroke-linecap="round" stroke-linejoin="round" stroke-width="1"/>
            <line id="Line_29" data-name="Line 29" x2="11.603" transform="translate(4.977 8.422)" fill="none" stroke="#fff" stroke-linecap="round" stroke-linejoin="round" stroke-width="1"/>
            <line id="Line_30" data-name="Line 30" x2="9.953" transform="translate(0 11.197)" fill="none" stroke="#fff" stroke-linecap="round" stroke-linejoin="round" stroke-width="1"/>
          </g>
        </g>
        <g id="Group_486" data-name="Group 486" transform="translate(95.588 130.16)">
          <line id="Line_31" data-name="Line 31" x1="33.432" transform="translate(2.105 1.361)" fill="none" stroke="#263238" stroke-linecap="round" stroke-linejoin="round" stroke-width="1"/>
          <path id="Path_1700" data-name="Path 1700" d="M219.758,254.666s0-15.534-17.359-15.534-17.359,15.534-17.359,15.534" transform="translate(-183.578 -237.846)" fill="none" stroke="#263238" stroke-linecap="round" stroke-linejoin="round" stroke-width="1"/>
          <circle id="Ellipse_17" data-name="Ellipse 17" cx="1.463" cy="1.463" r="1.463" transform="translate(34.718 15.357)" stroke="#263238" stroke-miterlimit="10" stroke-width="1" fill="url(#linear-gradient)"/>
          <path id="Path_1701" data-name="Path 1701" d="M183.025,259.983a1.462,1.462,0,1,1,1.462,1.462A1.462,1.462,0,0,1,183.025,259.983Z" transform="translate(-183.025 -243.164)" stroke="#263238" stroke-miterlimit="10" stroke-width="1" fill="url(#linear-gradient)"/>
          <g id="Group_485" data-name="Group 485" transform="translate(0.177 0)">
            <rect id="Rectangle_270" data-name="Rectangle 270" width="2.572" height="2.572" transform="translate(37.29 2.572) rotate(180)" stroke="#263238" stroke-miterlimit="10" stroke-width="1" fill="url(#linear-gradient)"/>
            <rect id="Rectangle_271" data-name="Rectangle 271" width="2.572" height="2.572" transform="translate(19.931 2.572) rotate(180)" stroke="#263238" stroke-miterlimit="10" stroke-width="1" fill="url(#linear-gradient)"/>
            <rect id="Rectangle_272" data-name="Rectangle 272" width="2.572" height="2.572" transform="translate(2.572 2.572) rotate(180)" stroke="#263238" stroke-miterlimit="10" stroke-width="1" fill="url(#linear-gradient)"/>
          </g>
        </g>
        <path id="Path_1702" data-name="Path 1702" d="M96.782,168.569v-5.132l-3.845-.331a10.552,10.552,0,0,0-.951-2.3l2.482-2.949-3.629-3.629-2.95,2.482a10.552,10.552,0,0,0-2.3-.951l-.331-3.845H80.121l-.332,3.845a10.546,10.546,0,0,0-2.3.951l-2.95-2.482-3.629,3.629,2.482,2.949a10.624,10.624,0,0,0-.951,2.3l-3.845.331v5.132l3.845.332a10.624,10.624,0,0,0,.951,2.3l-2.482,2.949,3.629,3.629,2.95-2.482a10.531,10.531,0,0,0,2.3.951l.332,3.845h5.132l.331-3.845a10.537,10.537,0,0,0,2.3-.951l2.95,2.482,3.629-3.629-2.482-2.949a10.552,10.552,0,0,0,.951-2.3Zm-14.094,3.4A5.964,5.964,0,1,1,88.652,166,5.964,5.964,0,0,1,82.688,171.967Z" transform="translate(-56.053 -83.765)" stroke="#263238" stroke-miterlimit="10" stroke-width="1" fill="url(#linear-gradient)"/>
        <path id="Path_1703" data-name="Path 1703" d="M124.177,186.418v-3.513l-2.632-.226a7.239,7.239,0,0,0-.651-1.577l1.7-2.02L120.11,176.6l-2.019,1.7a7.254,7.254,0,0,0-1.577-.651l-.227-2.632h-3.513l-.226,2.632a7.239,7.239,0,0,0-1.577.651l-2.02-1.7-2.484,2.484,1.7,2.02a7.239,7.239,0,0,0-.651,1.577l-2.632.226v3.513l2.632.227a7.253,7.253,0,0,0,.651,1.577l-1.7,2.019,2.484,2.484,2.02-1.7a7.239,7.239,0,0,0,1.577.651l.226,2.632h3.513l.227-2.632a7.24,7.24,0,0,0,1.577-.651l2.019,1.7,2.484-2.484-1.7-2.019a7.253,7.253,0,0,0,.651-1.577Zm-9.647,2.326a4.083,4.083,0,1,1,4.082-4.082A4.083,4.083,0,0,1,114.53,188.744Z" transform="translate(-66.006 -90.102)" stroke="#263238" stroke-miterlimit="10" stroke-width="1" fill="url(#linear-gradient)"/>
        <g id="Group_487" data-name="Group 487" transform="translate(148.292 164.108)">
          <line id="Line_32" data-name="Line 32" x2="28.105" transform="translate(0)" fill="none" stroke="#263238" stroke-linecap="round" stroke-linejoin="round" stroke-width="2"/>
          <line id="Line_33" data-name="Line 33" x2="28.105" transform="translate(0 4.507)" fill="none" stroke="#263238" stroke-linecap="round" stroke-linejoin="round" stroke-width="2"/>
          <line id="Line_34" data-name="Line 34" x2="16.019" transform="translate(0 9.099)" fill="none" stroke="#263238" stroke-linecap="round" stroke-linejoin="round" stroke-width="2"/>
        </g>
        <path id="Path_1704" data-name="Path 1704" d="M197.644,296.5h-14.8a3.641,3.641,0,0,1-3.641-3.641h0a3.642,3.642,0,0,1,3.641-3.642h14.8a3.642,3.642,0,0,1,3.642,3.642h0A3.642,3.642,0,0,1,197.644,296.5Z" transform="translate(-86.389 -121.421)" stroke="#263238" stroke-miterlimit="10" stroke-width="1" fill="url(#linear-gradient)"/>
        <path id="Path_1705" data-name="Path 1705" d="M235.638,296.5h-14.8a3.642,3.642,0,0,1-3.642-3.641h0a3.642,3.642,0,0,1,3.642-3.642h14.8a3.642,3.642,0,0,1,3.641,3.642h0A3.641,3.641,0,0,1,235.638,296.5Z" transform="translate(-96.809 -121.421)" stroke="#263238" stroke-miterlimit="10" stroke-width="1" fill="url(#linear-gradient)"/>
        <g id="Group_488" data-name="Group 488" transform="translate(150.345 97.215)">
          <rect id="Rectangle_273" data-name="Rectangle 273" width="31.382" height="31.382" fill="#fff" stroke="#263238" stroke-linecap="round" stroke-linejoin="round" stroke-width="1"/>
          <line id="Line_35" data-name="Line 35" x2="31.382" y2="31.382" fill="#fff" stroke="#263238" stroke-linecap="round" stroke-linejoin="round" stroke-width="1"/>
          <line id="Line_36" data-name="Line 36" x1="31.382" y2="31.382" fill="#fff" stroke="#263238" stroke-linecap="round" stroke-linejoin="round" stroke-width="1"/>
        </g>
        <g id="Group_490" data-name="Group 490" transform="translate(176.859 78.574)">
          <rect id="Rectangle_274" data-name="Rectangle 274" width="38.94" height="24.406" fill="#263238" stroke="#263238" stroke-linecap="round" stroke-linejoin="round" stroke-width="1"/>
          <rect id="Rectangle_275" data-name="Rectangle 275" width="38.94" height="3.711" stroke="#263238" stroke-miterlimit="10" stroke-width="1" fill="url(#linear-gradient)"/>
          <g id="Group_489" data-name="Group 489" transform="translate(3.974 6.838)">
            <line id="Line_37" data-name="Line 37" x2="9.953" fill="none" stroke="#fff" stroke-linecap="round" stroke-linejoin="round" stroke-width="1"/>
            <line id="Line_38" data-name="Line 38" x2="17.226" transform="translate(4.977 2.775)" fill="none" stroke="#fff" stroke-linecap="round" stroke-linejoin="round" stroke-width="1"/>
            <line id="Line_39" data-name="Line 39" x2="5.072" transform="translate(2.775 5.365)" fill="none" stroke="#fff" stroke-linecap="round" stroke-linejoin="round" stroke-width="1"/>
            <line id="Line_40" data-name="Line 40" x2="11.603" transform="translate(4.977 8.422)" fill="none" stroke="#fff" stroke-linecap="round" stroke-linejoin="round" stroke-width="1"/>
            <line id="Line_41" data-name="Line 41" x2="9.953" transform="translate(0 11.197)" fill="none" stroke="#fff" stroke-linecap="round" stroke-linejoin="round" stroke-width="1"/>
          </g>
        </g>
        <g id="Group_491" data-name="Group 491" transform="translate(152.098 61.591)">
          <path id="Path_1706" data-name="Path 1706" d="M271.442,142.88V150.2l-3.23,3.23H260.89V142.88Z" transform="translate(-260.89 -142.88)" fill="#fff" stroke="#263238" stroke-linecap="round" stroke-linejoin="round" stroke-width="1"/>
          <path id="Path_1707" data-name="Path 1707" d="M274.21,152.97l-3.23,3.23v-3.23Z" transform="translate(-263.657 -145.647)" fill="#fff" stroke="#263238" stroke-linecap="round" stroke-linejoin="round" stroke-width="1"/>
        </g>
        <g id="Group_492" data-name="Group 492" transform="translate(39.875 118.225)">
          <path id="Path_1708" data-name="Path 1708" d="M116.811,220.915v7.323l-3.23,3.23h-7.323V220.915Z" transform="translate(-106.258 -220.915)" fill="#fff" stroke="#263238" stroke-linecap="round" stroke-linejoin="round" stroke-width="1"/>
          <path id="Path_1709" data-name="Path 1709" d="M119.578,231.005l-3.23,3.23v-3.23Z" transform="translate(-109.026 -223.682)" fill="#fff" stroke="#263238" stroke-linecap="round" stroke-linejoin="round" stroke-width="1"/>
        </g>
        <g id="Group_493" data-name="Group 493" transform="translate(0 163.339)">
          <path id="Path_1710" data-name="Path 1710" d="M61.867,283.077V290.4l-3.23,3.23H51.315V283.077Z" transform="translate(-51.315 -283.077)" fill="#fff" stroke="#263238" stroke-linecap="round" stroke-linejoin="round" stroke-width="1"/>
          <path id="Path_1711" data-name="Path 1711" d="M64.634,293.167,61.4,296.4v-3.23Z" transform="translate(-54.082 -285.844)" fill="#fff" stroke="#263238" stroke-linecap="round" stroke-linejoin="round" stroke-width="1"/>
        </g>
      </g>
    </g>
    <g id="Character" transform="translate(112.513 117.276)">
      <g id="Group_522" data-name="Group 522" transform="translate(0)">
        <path id="Path_1712" data-name="Path 1712" d="M242.738,214.69c-3.836.328-8.718-4.259-8.718-4.259a.858.858,0,0,1-1.37-.174c-.623-.9-3.33-2.978-3.483-4.779s3.044-4.72,3.044-4.72c-2.466.673-2.726-.772-2.726-.772s4.145-3.423,5.594-3.514c.568-.036,3.039,1.384,5.426,3.3,2.5,2.008,7.181,9.086,7.181,9.086s15.86,11.517,19.869,14.466a98.625,98.625,0,0,1,11.557,10.79s21.061,9.491,26.836,14.707l-7.847,18.6s-19.141-12.825-21.055-16.078-3.828-1.3-5.742-3.423-3.749-4.557-3.749-4.557a32.4,32.4,0,0,1-9.109-6.622c-4.476-4.594-8.417-11.62-10.891-15.831A26.2,26.2,0,0,0,242.738,214.69Z" transform="translate(-163.845 -155.248)" fill="#fff" stroke="#263238" stroke-linecap="round" stroke-linejoin="round" stroke-width="1"/>
        <path id="Path_1713" data-name="Path 1713" d="M244.78,213.738s-5.708-1.383-6.205-5.151a6.97,6.97,0,0,0-1.225-2.634s-5.331-.263-4.992-2.433l7.108-.628a12.384,12.384,0,0,1,6.2,5.208" transform="translate(-164.717 -157.009)" fill="#fff" stroke="#263238" stroke-linecap="round" stroke-linejoin="round" stroke-width="1"/>
        <path id="Path_1714" data-name="Path 1714" d="M235.856,213.349a2.311,2.311,0,0,0,.24-1.539s1.568-.284,1.393-1.673c0,0,2.325-.286.824-3.027" transform="translate(-165.681 -158.166)" fill="none" stroke="#263238" stroke-linecap="round" stroke-linejoin="round" stroke-width="1"/>
        <path id="Path_1715" data-name="Path 1715" d="M236.792,210.006s-3.122-2.319-3.476-3.374" transform="translate(-164.984 -158.035)" fill="none" stroke="#263238" stroke-linecap="round" stroke-linejoin="round" stroke-width="1"/>
        <path id="Path_1716" data-name="Path 1716" d="M234.907,212.371s-3.329-2.026-3.388-3.216" transform="translate(-164.491 -158.727)" fill="none" stroke="#263238" stroke-linecap="round" stroke-linejoin="round" stroke-width="1"/>
        <path id="Path_1717" data-name="Path 1717" d="M236.173,199.206a5.061,5.061,0,0,1-2.809,2.3" transform="translate(-164.997 -155.998)" fill="none" stroke="#263238" stroke-linecap="round" stroke-linejoin="round" stroke-width="1"/>
        <path id="Path_1718" data-name="Path 1718" d="M236.511,200.234a9.149,9.149,0,0,1,1.567,1.036" transform="translate(-165.86 -156.28)" fill="none" stroke="#263238" stroke-linecap="round" stroke-linejoin="round" stroke-width="1"/>
        <path id="Path_1719" data-name="Path 1719" d="M379.563,283.469a170.9,170.9,0,0,0-25.329-8.462c-12.749-2.986-33.356-5.647-33.356-5.647s5.673,57.914,4.18,61.4-10.467,15.183-10.467,15.183,48.547,18.928,57.009,20.539,4.048-27.757,4.048-27.757S384.539,301.389,379.563,283.469Z" transform="translate(-187.274 -175.238)" fill="#263238"/>
        <path id="Path_1720" data-name="Path 1720" d="M372.447,274.189s1.154,2.2-1.88,3.317c-7.86,2.9-16.235.341-15.342-2.736.341-1.176,2.286,0,2.163-4.391a5.347,5.347,0,0,0-.53-1.93,19.935,19.935,0,0,0-2-3.346,41.563,41.563,0,0,0-2.693-3.36s12.476-7.961,21.729,0C373.9,261.743,370.459,263.485,372.447,274.189Z" transform="translate(-197.58 -172.179)" fill="#fff" stroke="#263238" stroke-linecap="round" stroke-linejoin="round" stroke-width="1"/>
        <g id="Group_496" data-name="Group 496" transform="translate(87.249 168.531)">
          <path id="Path_1721" data-name="Path 1721" d="M362.458,408.518c-4.913,8.005-29.843,11.764-43.45,11.409s-52.762-18.891-55.418-22.817c-2.46-3.636-8.506-15.654.813-22.919a18.056,18.056,0,0,1,2.511-1.626C273.293,369.11,315.72,380,315.72,380s2.627-1.662,3.592-1.539c2.961.377,5.058,2.772,11.06,4.478,4.188,1.2,15.618-3.4,22.919.552a10.071,10.071,0,0,1,2.221,1.611C362.335,391.622,367.364,400.513,362.458,408.518Z" transform="translate(-259.382 -371.887)" fill="url(#linear-gradient)"/>
          <g id="Group_495" data-name="Group 495" clip-path="url(#clip-path)">
            <path id="Path_1722" data-name="Path 1722" d="M355.189,383.494c-7.482-.5-14.152,1.067-18.811,3.817-5.523,3.266-31.606,15.829-31.606,15.829a14.49,14.49,0,0,1,1.51-4.071c-2.453-2.184-8.869-3.883-8.869-3.883-4.971-4.246-24.7-16.91-31.113-21a18.056,18.056,0,0,1,2.511-1.626C275.19,369.11,317.618,380,317.618,380s2.627-1.662,3.592-1.539c2.961.377,5.058,2.772,11.06,4.478C336.458,384.14,347.888,379.539,355.189,383.494Z" transform="translate(-261.279 -371.887)" fill="rgba(0,0,0,0.7)" opacity="0.3"/>
          </g>
          <path id="Path_1724" data-name="Path 1724" d="M362.458,408.518c-4.913,8.005-29.843,11.764-43.45,11.409s-52.762-18.891-55.418-22.817c-2.46-3.636-8.506-15.654.813-22.919a18.056,18.056,0,0,1,2.511-1.626C273.293,369.11,315.72,380,315.72,380s2.627-1.662,3.592-1.539c2.961.377,5.058,2.772,11.06,4.478,4.188,1.2,15.618-3.4,22.919.552a10.071,10.071,0,0,1,2.221,1.611C362.335,391.622,367.364,400.513,362.458,408.518Z" transform="translate(-259.382 -371.887)" fill="none" stroke="#263238" stroke-linecap="round" stroke-linejoin="round" stroke-width="1"/>
        </g>
        <g id="Group_508" data-name="Group 508" transform="translate(140.069 204.498)">
          <path id="Path_1725" data-name="Path 1725" d="M379.57,432.316l.627,2.735s-1.669,4.738-9.008,5.51-11.682,2.4-15.209,2.611a30.18,30.18,0,0,1-5.58-.089l-.721-1.077Z" transform="translate(-336.966 -424.427)" fill="#fff" stroke="#263238" stroke-linecap="round" stroke-linejoin="round" stroke-width="1"/>
          <g id="Group_498" data-name="Group 498">
            <path id="Path_1726" data-name="Path 1726" d="M332.162,429.046l12.712,9.978A145.48,145.48,0,0,0,363.1,436.3v-.006c6.024-1.395,11.284-3.4,11.573-6.135.441-4.167-4.013-5.308-9.306-5.146-.99.022-2,.1-3.027.205-8.472.908-19.239-3.772-19.239-3.772Z" transform="translate(-332.162 -421.446)" fill="#263238"/>
            <g id="Group_497" data-name="Group 497" clip-path="url(#clip-path-2)">
              <path id="Path_1727" data-name="Path 1727" d="M374.681,430.066a39.11,39.11,0,0,0-7.071,3.479s-11.809,6.077-29.954-.182l-5.5-4.316,10.946-7.6s10.765,4.68,19.24,3.768c1.025-.107,2.038-.182,3.026-.2C370.623,424.851,375.046,425.971,374.681,430.066Z" transform="translate(-332.161 -421.446)" fill="rgba(0,0,0,0.7)" opacity="0.3"/>
            </g>
            <path id="Path_1729" data-name="Path 1729" d="M332.162,429.046l12.712,9.978A145.48,145.48,0,0,0,363.1,436.3v-.006c6.024-1.395,11.284-3.4,11.573-6.135.441-4.167-4.013-5.308-9.306-5.146-.99.022-2,.1-3.027.205-8.472.908-19.239-3.772-19.239-3.772Z" transform="translate(-332.162 -421.446)" fill="none" stroke="#263238" stroke-linecap="round" stroke-linejoin="round" stroke-width="1"/>
          </g>
          <g id="Group_500" data-name="Group 500" transform="translate(10.963 11.496)">
            <path id="Path_1730" data-name="Path 1730" d="M348.156,437.323c-2.292.374.226,5.061,3.333,3.637S350.448,436.949,348.156,437.323Z" transform="translate(-347.268 -437.287)" fill="#fff"/>
            <g id="Group_499" data-name="Group 499" clip-path="url(#clip-path-3)">
              <path id="Path_1731" data-name="Path 1731" d="M352.458,440.2a48.789,48.789,0,0,1-4.939-.862c-.441-.918-.34-1.862.636-2.019C350.08,437.008,353.314,438.783,352.458,440.2Z" transform="translate(-347.269 -437.287)" fill="rgba(0,0,0,0.7)" opacity="0.2"/>
            </g>
            <path id="Path_1733" data-name="Path 1733" d="M348.156,437.323c-2.292.374.226,5.061,3.333,3.637S350.448,436.949,348.156,437.323Z" transform="translate(-347.268 -437.287)" fill="none" stroke="#263238" stroke-linecap="round" stroke-linejoin="round" stroke-width="1"/>
          </g>
          <g id="Group_502" data-name="Group 502" transform="translate(29.952 3.552)">
            <path id="Path_1734" data-name="Path 1734" d="M374.423,437.635c6.024-1.395,11.284-3.4,11.573-6.135.441-4.167-4.013-5.308-9.306-5.146C376.458,426.576,371.328,431.538,374.423,437.635Z" transform="translate(-373.433 -426.34)" fill="#fff"/>
            <g id="Group_501" data-name="Group 501" clip-path="url(#clip-path-4)">
              <path id="Path_1735" data-name="Path 1735" d="M386,431.408a39.112,39.112,0,0,0-7.071,3.479,23.834,23.834,0,0,1-4.971,1.661c-2.032-5.587,2.51-9.985,2.731-10.192C381.945,426.193,386.367,427.313,386,431.408Z" transform="translate(-373.435 -426.34)" fill="rgba(0,0,0,0.7)" opacity="0.3"/>
            </g>
            <path id="Path_1737" data-name="Path 1737" d="M374.423,437.635c6.024-1.395,11.284-3.4,11.573-6.135.441-4.167-4.013-5.308-9.306-5.146C376.458,426.576,371.328,431.538,374.423,437.635Z" transform="translate(-373.433 -426.34)" fill="none" stroke="#263238" stroke-linecap="round" stroke-linejoin="round" stroke-width="1"/>
          </g>
          <g id="Group_503" data-name="Group 503" transform="translate(26.083 3.229)">
            <path id="Path_1738" data-name="Path 1738" d="M368.664,432.338l.036,0a.628.628,0,0,0,.658-.6,8.521,8.521,0,0,1,2.167-4.784.629.629,0,0,0-.906-.872,9.666,9.666,0,0,0-2.517,5.6A.629.629,0,0,0,368.664,432.338Z" transform="translate(-368.102 -425.895)" fill="#fff" stroke="#263238" stroke-linecap="round" stroke-linejoin="round" stroke-width="1"/>
          </g>
          <g id="Group_504" data-name="Group 504" transform="translate(23.565 3.208)">
            <path id="Path_1739" data-name="Path 1739" d="M365.194,432.481a.452.452,0,0,0,.054,0,.629.629,0,0,0,.642-.616,9.319,9.319,0,0,1,1.925-4.975.629.629,0,0,0-.973-.8,10.435,10.435,0,0,0-2.211,5.747A.628.628,0,0,0,365.194,432.481Z" transform="translate(-364.632 -425.866)" fill="#fff" stroke="#263238" stroke-linecap="round" stroke-linejoin="round" stroke-width="1"/>
          </g>
          <g id="Group_505" data-name="Group 505" transform="translate(20.552 2.903)">
            <path id="Path_1740" data-name="Path 1740" d="M361.044,432.048h.011a.63.63,0,0,0,.681-.572,13.811,13.811,0,0,1,2.088-5.052.629.629,0,0,0-1.044-.7,14.811,14.811,0,0,0-2.3,5.643A.63.63,0,0,0,361.044,432.048Z" transform="translate(-360.481 -425.445)" fill="#fff" stroke="#263238" stroke-linecap="round" stroke-linejoin="round" stroke-width="1"/>
          </g>
          <g id="Group_506" data-name="Group 506" transform="translate(17.643 2.396)">
            <path id="Path_1741" data-name="Path 1741" d="M357.1,431.556a.642.642,0,0,0,.171-.005.63.63,0,0,0,.517-.724c-.447-2.672,2.036-4.961,2.06-4.984a.629.629,0,0,0-.843-.935c-.123.112-3.021,2.767-2.458,6.126A.63.63,0,0,0,357.1,431.556Z" transform="translate(-356.472 -424.747)" fill="#fff" stroke="#263238" stroke-linecap="round" stroke-linejoin="round" stroke-width="1"/>
          </g>
          <g id="Group_507" data-name="Group 507" transform="translate(14.518 1.547)">
            <path id="Path_1742" data-name="Path 1742" d="M352.826,430.492a.628.628,0,0,0,.679-.766c-.547-2.382,1.8-5.074,1.825-5.1a.63.63,0,0,0-.942-.835c-.115.129-2.8,3.2-2.109,6.217A.628.628,0,0,0,352.826,430.492Z" transform="translate(-352.166 -423.578)" fill="#fff" stroke="#263238" stroke-linecap="round" stroke-linejoin="round" stroke-width="1"/>
          </g>
        </g>
        <g id="Group_516" data-name="Group 516" transform="translate(88.942 203.775)">
          <path id="Path_1743" data-name="Path 1743" d="M262.627,426.677l-.912,2.656s1.162,4.886,8.379,6.425,11.366,3.613,14.85,4.194a30.2,30.2,0,0,0,5.559.5l.83-1Z" transform="translate(-261.715 -422.158)" fill="#fff" stroke="#263238" stroke-linecap="round" stroke-linejoin="round" stroke-width="1"/>
          <g id="Group_510" data-name="Group 510" transform="translate(0.912)">
            <path id="Path_1744" data-name="Path 1744" d="M305.369,429.158l-13.69,8.588a145.482,145.482,0,0,1-17.842-4.624v-.007c-5.845-2.019-10.865-4.561-10.865-7.317,0-4.19,4.548-4.857,9.8-4.14.981.126,1.982.308,2.989.523,8.329,1.793,19.528-1.73,19.528-1.73Z" transform="translate(-262.972 -420.45)" fill="#263238"/>
            <g id="Group_509" data-name="Group 509" clip-path="url(#clip-path-5)">
              <path id="Path_1745" data-name="Path 1745" d="M312.169,429.158l-8.053,5.052a32.457,32.457,0,0,1-16.351-11.52,54.363,54.363,0,0,0,14.319-2.24Z" transform="translate(-269.772 -420.45)" fill="rgba(0,0,0,0.7)" opacity="0.3"/>
            </g>
            <path id="Path_1747" data-name="Path 1747" d="M305.369,429.158l-13.69,8.588a145.482,145.482,0,0,1-17.842-4.624v-.007c-5.845-2.019-10.865-4.561-10.865-7.317,0-4.19,4.548-4.857,9.8-4.14.981.126,1.982.308,2.989.523,8.329,1.793,19.528-1.73,19.528-1.73Z" transform="translate(-262.972 -420.45)" fill="none" stroke="#263238" stroke-linecap="round" stroke-linejoin="round" stroke-width="1"/>
          </g>
          <path id="Path_1748" data-name="Path 1748" d="M273.837,433.476c-5.845-2.019-10.865-4.561-10.865-7.317,0-4.19,4.548-4.857,9.8-4.14C272.975,422.265,277.555,427.739,273.837,433.476Z" transform="translate(-262.06 -420.812)" fill="#fff" stroke="#263238" stroke-linecap="round" stroke-linejoin="round" stroke-width="1"/>
          <g id="Group_511" data-name="Group 511" transform="translate(14.181 1.305)">
            <path id="Path_1749" data-name="Path 1749" d="M283.667,428.913h-.036a.628.628,0,0,1-.592-.663,8.514,8.514,0,0,0-1.653-4.985.629.629,0,0,1,.994-.772,9.668,9.668,0,0,1,1.915,5.828A.629.629,0,0,1,283.667,428.913Z" transform="translate(-281.254 -422.248)" fill="#fff" stroke="#263238" stroke-linecap="round" stroke-linejoin="round" stroke-width="1"/>
          </g>
          <g id="Group_512" data-name="Group 512" transform="translate(16.96 1.578)">
            <path id="Path_1750" data-name="Path 1750" d="M287.207,429.43a.451.451,0,0,1-.054,0,.629.629,0,0,1-.573-.68,9.311,9.311,0,0,0-1.393-5.149.629.629,0,0,1,1.052-.692,10.445,10.445,0,0,1,1.594,5.948A.628.628,0,0,1,287.207,429.43Z" transform="translate(-285.084 -422.624)" fill="#fff" stroke="#263238" stroke-linecap="round" stroke-linejoin="round" stroke-width="1"/>
          </g>
          <g id="Group_513" data-name="Group 513" transform="translate(19.864 1.578)">
            <path id="Path_1751" data-name="Path 1751" d="M291.332,429.43h-.011a.629.629,0,0,1-.618-.64,13.8,13.8,0,0,0-1.546-5.243.629.629,0,0,1,1.113-.589,14.817,14.817,0,0,1,1.691,5.854A.629.629,0,0,1,291.332,429.43Z" transform="translate(-289.085 -422.624)" fill="#fff" stroke="#263238" stroke-linecap="round" stroke-linejoin="round" stroke-width="1"/>
          </g>
          <g id="Group_514" data-name="Group 514" transform="translate(22.68 1.366)">
            <path id="Path_1752" data-name="Path 1752" d="M295.259,429.35a.649.649,0,0,1-.169-.022.63.63,0,0,1-.438-.774c.726-2.611-1.5-5.148-1.526-5.173a.629.629,0,0,1,.937-.84c.111.124,2.714,3.069,1.8,6.35A.629.629,0,0,1,295.259,429.35Z" transform="translate(-292.966 -422.332)" fill="#fff" stroke="#263238" stroke-linecap="round" stroke-linejoin="round" stroke-width="1"/>
          </g>
          <g id="Group_515" data-name="Group 515" transform="translate(26.134 0.877)">
            <path id="Path_1753" data-name="Path 1753" d="M299.716,428.751a.629.629,0,0,1-.6-.834c.795-2.312-1.258-5.235-1.279-5.264a.629.629,0,0,1,1.024-.732c.1.14,2.452,3.476,1.444,6.4A.63.63,0,0,1,299.716,428.751Z" transform="translate(-297.725 -421.659)" fill="#fff" stroke="#263238" stroke-linecap="round" stroke-linejoin="round" stroke-width="1"/>
          </g>
          <path id="Path_1754" data-name="Path 1754" d="M302.815,436.082c2.24.613-.756,5.009-3.7,3.267S300.576,435.469,302.815,436.082Z" transform="translate(-271.704 -424.708)" fill="#fff" stroke="#263238" stroke-linecap="round" stroke-linejoin="round" stroke-width="1"/>
        </g>
        <path id="Path_1755" data-name="Path 1755" d="M268.917,403.986c3.365,4.712,13.327,9.914,23.254,14.207a46.863,46.863,0,0,0,6.225,8.135c6.112,6.286,8.6,2.764,8.6,2.764s3.859-.433,9.56-1.213a2.7,2.7,0,0,0,2.882,1.62c.741-.118,2.169-1.177,3.778-2.577,14.389-2.166,33.922-5.778,39.2-10.028" transform="translate(-174.748 -212.16)" fill="url(#linear-gradient)"/>
        <g id="Group_517" data-name="Group 517" transform="translate(116.946 180.224)">
          <path id="Path_1756" data-name="Path 1756" d="M365.382,390.641c-2.489-2.737-4.978-2.862-10.2-2.489,0,0-13.636,4.324-23.146,10.08a240.917,240.917,0,0,1-23.4,11.8s-4.231-1.225-7.175,0c0,0-2.068.16-.682,3.772" transform="translate(-300.301 -387.999)" fill="none" stroke="#263238" stroke-linecap="round" stroke-linejoin="round" stroke-width="1"/>
          <path id="Path_1757" data-name="Path 1757" d="M396.489,414.167s.07,4.217-5.908,7.137" transform="translate(-325.06 -395.176)" fill="none" stroke="#263238" stroke-linecap="round" stroke-linejoin="round" stroke-width="1"/>
          <path id="Path_1758" data-name="Path 1758" d="M307.841,389.925s9.443,6.825,11.325,11.325a39.029,39.029,0,0,1,5.362,2.764" transform="translate(-302.369 -388.527)" fill="none" stroke="#263238" stroke-linecap="round" stroke-linejoin="round" stroke-width="1"/>
          <path id="Path_1759" data-name="Path 1759" d="M324.389,397.742a10.808,10.808,0,0,1,.332,6.1" transform="translate(-306.907 -390.671)" fill="none" stroke="#263238" stroke-linecap="round" stroke-linejoin="round" stroke-width="1"/>
          <path id="Path_1760" data-name="Path 1760" d="M321.391,391.64a16.726,16.726,0,0,1,1.351,2.36" transform="translate(-306.085 -388.998)" fill="none" stroke="#263238" stroke-linecap="round" stroke-linejoin="round" stroke-width="1"/>
          <path id="Path_1761" data-name="Path 1761" d="M339.906,390.783s3.158,4.219,3.944,7.647" transform="translate(-311.162 -388.763)" fill="none" stroke="#263238" stroke-linecap="round" stroke-linejoin="round" stroke-width="1"/>
          <path id="Path_1762" data-name="Path 1762" d="M364.136,425.776a27.162,27.162,0,0,0,3.5-.432" transform="translate(-317.808 -398.241)" fill="none" stroke="#263238" stroke-linecap="round" stroke-linejoin="round" stroke-width="1"/>
          <path id="Path_1763" data-name="Path 1763" d="M323.328,421.77a168.453,168.453,0,0,0,27.14,3.116" transform="translate(-306.616 -397.261)" fill="none" stroke="#263238" stroke-linecap="round" stroke-linejoin="round" stroke-width="1"/>
        </g>
        <path id="Path_1764" data-name="Path 1764" d="M392.315,331.466s-1.7,29.719-3.714,31.461-5.183,2.24-11.187,2.738-32.548,2.129-32.548,2.129l-2.839-8.53s14.115-1.433,20.38-3.738a105.455,105.455,0,0,1,14.42-3.816,103.725,103.725,0,0,1-1.186-10.7V325.851" transform="translate(-194.798 -190.731)" fill="#fff" stroke="#263238" stroke-linecap="round" stroke-linejoin="round" stroke-width="1"/>
        <path id="Path_1765" data-name="Path 1765" d="M398.689,288.8c6.473,3.982,8.381,13.191,6.141,32.854,0,0,1.911,2.323-.912,3.484,0,0-10.57-3.953-15.49-1.23s-3.643-3.765-3.643-3.765-2.023-18.086,2.457-21.354" transform="translate(-206.4 -180.57)" fill="#263238"/>
        <path id="Path_1766" data-name="Path 1766" d="M386.408,298.747s-6.223,6.471-.747,22.815a26.716,26.716,0,0,0-.754,4.065c.007,1.092,1.5,1.66,1.5,1.66" transform="translate(-206.147 -183.298)" fill="none" stroke="#fff" stroke-linecap="round" stroke-linejoin="round" stroke-width="1"/>
        <path id="Path_1767" data-name="Path 1767" d="M377.518,313.836s.454,7.964,5.4,11.449" transform="translate(-204.532 -187.436)" fill="none" stroke="#fff" stroke-linecap="round" stroke-linejoin="round" stroke-width="1"/>
        <path id="Path_1768" data-name="Path 1768" d="M372.021,285.757s-9.644,3.7-17.318-.4c-4.549-2.425-2.675-6.324-2.675-6.324" transform="translate(-197.436 -177.892)" fill="none" stroke="#fff" stroke-linecap="round" stroke-linejoin="round" stroke-width="1"/>
        <g id="Group_518" data-name="Group 518" transform="translate(88.099 138.914)">
          <path id="Path_1769" data-name="Path 1769" d="M283.078,389.963h52.5a13.866,13.866,0,0,0,3.514-.453l10.355-2.716a.671.671,0,0,0,.5-.649h0a.67.67,0,0,0-.671-.67H280.91a.67.67,0,0,0-.671.67v.979A2.839,2.839,0,0,0,283.078,389.963Z" transform="translate(-265.952 -345.997)" fill="#757575" stroke="#263238" stroke-linecap="round" stroke-linejoin="round" stroke-width="1"/>
          <path id="Path_1770" data-name="Path 1770" d="M272.475,372.436h52.646a1.258,1.258,0,0,0,1.229-1.69l-9.767-37.978a2.314,2.314,0,0,0-2.1-1.69H261.838a1.257,1.257,0,0,0-1.229,1.69l9.767,37.978A2.315,2.315,0,0,0,272.475,372.436Z" transform="translate(-260.553 -331.079)" fill="#999" stroke="#263238" stroke-linecap="round" stroke-linejoin="round" stroke-width="1"/>
          <line id="Line_42" data-name="Line 42" x1="0.996" transform="translate(2.146 1.35)" fill="none" stroke="#263238" stroke-linecap="round" stroke-linejoin="round" stroke-width="1"/>
          <line id="Line_43" data-name="Line 43" x1="5.144" transform="translate(5.714 1.35)" fill="none" stroke="#263238" stroke-linecap="round" stroke-linejoin="round" stroke-width="1"/>
          <path id="Path_1771" data-name="Path 1771" d="M328.4,368.145l-8.62-33.515a2.314,2.314,0,0,0-2.1-1.69H277.114" transform="translate(-265.095 -331.589)" fill="none" stroke="#263238" stroke-linecap="round" stroke-linejoin="round" stroke-width="1"/>
          <line id="Line_44" data-name="Line 44" x1="0.215" y1="0.837" transform="translate(63.838 38.64)" fill="none" stroke="#263238" stroke-linecap="round" stroke-linejoin="round" stroke-width="1"/>
          <path id="Path_1772" data-name="Path 1772" d="M298.812,359.222a5.255,5.255,0,0,0,.184.91c.672,2.286,2.814,3.675,4.781,3.1s3.02-2.906,2.348-5.192-2.82-3.675-4.787-3.1a3.268,3.268,0,0,0-.666.282A4.05,4.05,0,0,1,298.812,359.222Z" transform="translate(-271.046 -337.587)" fill="#fff" stroke="#263238" stroke-linecap="round" stroke-linejoin="round" stroke-width="1"/>
        </g>
        <path id="Path_1773" data-name="Path 1773" d="M323.715,259.295c-4.557-.5-7.046-4.826-9.783-5.5a30.588,30.588,0,0,1-4.489-1.444s-.945-3.3-2.356-2.147-3.276,25.76-1.452,24.987,1.825,2.131,1.825,2.131l16.92,14.913,14.181-25.112S328.272,259.793,323.715,259.295Z" transform="translate(-184.61 -169.916)" fill="#263238"/>
        <g id="Group_519" data-name="Group 519">
          <rect id="Rectangle_276" data-name="Rectangle 276" width="65.317" height="43.545" transform="translate(1.251 1.251)" fill="none" stroke="#263238" stroke-linecap="round" stroke-linejoin="round" stroke-width="1" stroke-dasharray="1 3"/>
          <circle id="Ellipse_18" data-name="Ellipse 18" cx="1.077" cy="1.077" r="1.077" transform="translate(32.833 0.174)" stroke="#263238" stroke-miterlimit="10" stroke-width="0.7" fill="url(#linear-gradient)"/>
          <circle id="Ellipse_19" data-name="Ellipse 19" cx="1.077" cy="1.077" r="1.077" transform="translate(0.174 21.946)" stroke="#263238" stroke-miterlimit="10" stroke-width="0.7" fill="url(#linear-gradient)"/>
          <circle id="Ellipse_20" data-name="Ellipse 20" cx="1.077" cy="1.077" r="1.077" transform="translate(32.833 43.719)" stroke="#263238" stroke-miterlimit="10" stroke-width="0.7" fill="url(#linear-gradient)"/>
          <circle id="Ellipse_21" data-name="Ellipse 21" cx="1.077" cy="1.077" r="1.077" transform="translate(65.491 21.946)" stroke="#263238" stroke-miterlimit="10" stroke-width="0.7" fill="url(#linear-gradient)"/>
          <rect id="Rectangle_277" data-name="Rectangle 277" width="2.501" height="2.501" rx="0.5" transform="translate(65.317 43.545)" stroke="#263238" stroke-miterlimit="10" stroke-width="0.7" fill="url(#linear-gradient)"/>
          <rect id="Rectangle_278" data-name="Rectangle 278" width="2.501" height="2.501" rx="0.5" transform="translate(65.317)" stroke="#263238" stroke-miterlimit="10" stroke-width="0.7" fill="url(#linear-gradient)"/>
          <rect id="Rectangle_279" data-name="Rectangle 279" width="2.501" height="2.501" rx="0.5" transform="translate(0 43.545)" stroke="#263238" stroke-miterlimit="10" stroke-width="0.7" fill="url(#linear-gradient)"/>
          <rect id="Rectangle_280" data-name="Rectangle 280" width="2.501" height="2.501" rx="0.5" stroke="#263238" stroke-miterlimit="10" stroke-width="0.7" fill="url(#linear-gradient)"/>
        </g>
        <g id="Group_520" data-name="Group 520" transform="translate(5.585 5.101)">
          <rect id="Rectangle_281" data-name="Rectangle 281" width="56.847" height="36.121" fill="#fff" stroke="#263238" stroke-linecap="round" stroke-linejoin="round" stroke-width="1"/>
          <path id="Path_1774" data-name="Path 1774" d="M203.7,176.08l-6.32,6.32-17.1-17.1L173.1,172.5l-11.471-11.471-14.767,14.767v10.956H203.7Z" transform="translate(-146.857 -150.629)" stroke="#263238" stroke-miterlimit="10" stroke-width="1" fill="url(#linear-gradient)"/>
          <path id="Path_1786" data-name="Path 1786" d="M4.014,0A4.014,4.014,0,1,1,0,4.014,4.014,4.014,0,0,1,4.014,0Z" transform="translate(41.057 6.239)" stroke="#263238" stroke-miterlimit="10" stroke-width="1" fill="url(#linear-gradient)"/>
        </g>
        <path id="Path_1775" data-name="Path 1775" d="M333.129,271.992s-4.316,8.106-4.865,20.511" transform="translate(-191.024 -175.96)" fill="none" stroke="#fff" stroke-linecap="round" stroke-linejoin="round" stroke-width="1"/>
        <path id="Path_1776" data-name="Path 1776" d="M317.363,279.732s1.3,6.893,5.1,11.89" transform="translate(-188.034 -178.083)" fill="none" stroke="#fff" stroke-linecap="round" stroke-linejoin="round" stroke-width="1"/>
        <path id="Path_1777" data-name="Path 1777" d="M342.026,318.928s6.519,21.452,20.724,27.771" transform="translate(-194.798 -188.832)" fill="none" stroke="#fff" stroke-linecap="round" stroke-linejoin="round" stroke-width="1"/>
        <path id="Path_1778" data-name="Path 1778" d="M362.992,265.42s-.617,4.681-5.117,5.008a19.934,19.934,0,0,0-2-3.346A62.839,62.839,0,0,1,362.992,265.42Z" transform="translate(-198.598 -174.158)" fill="#263238"/>
        <g id="Group_521" data-name="Group 521" transform="translate(149.315 55.169)">
          <path id="Path_1779" data-name="Path 1779" d="M369.57,254s7.526.919,10.676-9.182.675-17.715-11.782-21.382c-6.907-2.032-13.814-.4-16.3,4.83-2.134,4.482-1.126,8.205-1.618,9.708-.55,1.68-5.642,3.111-5.642,4.265,0,.955,2.821,2.579,2.821,2.579l-.829,2.509.782.415s-1.446,5.655-.782,7.646c.486,1.455,13.233,2.06,14.228-1.549" transform="translate(-344.902 -217.581)" fill="#fff" stroke="#263238" stroke-linecap="round" stroke-linejoin="round" stroke-width="1"/>
          <path id="Path_1780" data-name="Path 1780" d="M354.991,235.474s2.489.622,3.173,1.929" transform="translate(-347.669 -221.114)" fill="none" stroke="#263238" stroke-linecap="round" stroke-linejoin="round" stroke-width="1"/>
          <path id="Path_1781" data-name="Path 1781" d="M355.587,242.905c-.107.731.061,1.361.376,1.407s.656-.509.763-1.24-.061-1.361-.376-1.407S355.694,242.174,355.587,242.905Z" transform="translate(-347.824 -222.811)" fill="#263238"/>
          <path id="Path_1782" data-name="Path 1782" d="M348.723,257.251s4.051,1.555,5.56.615" transform="translate(-345.95 -227.086)" fill="none" stroke="#263238" stroke-linecap="round" stroke-linejoin="round" stroke-width="1"/>
          <path id="Path_1783" data-name="Path 1783" d="M350.645,241.563c-.3,1.621.062,3.049.811,3.188s1.6-1.063,1.9-2.685-.062-3.05-.811-3.189S350.946,239.941,350.645,241.563Z" transform="translate(-346.448 -222.044)" fill="none" stroke="#263238" stroke-linecap="round" stroke-linejoin="round" stroke-width="1"/>
          <path id="Path_1784" data-name="Path 1784" d="M382.476,226.936a11.98,11.98,0,0,0-4.729-7.3,22.142,22.142,0,0,0-9.126-3.733,9.146,9.146,0,0,1,3.319,2.433s-6.223-4.673-13.606-1.6-6.471,11.048-6.471,11.048l1.078-2.088s-.125,2.489,1.182,3.4a16.375,16.375,0,0,1,1.586-3.484s1.96,5.89,7.353,7.882a4.27,4.27,0,0,1-.083-2.9s2.984,6.471,2.114,9.623l.955,1.66s3.432-3.479,6.223-.581c1.6,1.665-3.07,7.965-3.733,7.965l2.82,4.148s7.052,1.005,11.118-6.633,3.069-10.9,3.069-10.9a10.08,10.08,0,0,1,1.494,2.935S388.2,230.587,382.476,226.936Z" transform="translate(-346.801 -215.687)" fill="#263238"/>
          <path id="Path_1785" data-name="Path 1785" d="M371.2,250.793s2.164-7.32,6.806-4.738,1.324,6.481-.335,7.975-2.9,4.231-3.982,4.231-1.327-1.327-1.327-1.327" transform="translate(-352.113 -223.864)" fill="#fff" stroke="#263238" stroke-linecap="round" stroke-linejoin="round" stroke-width="1"/>
          <line id="Line_45" data-name="Line 45" x2="12.919" y2="2.682" transform="translate(6.909 20.022)" fill="none" stroke="#263238" stroke-linecap="round" stroke-linejoin="round" stroke-width="1"/>
        </g>
      </g>
    </g>
  </g>
</svg>
