<svg xmlns="http://www.w3.org/2000/svg" width="496" height="496" viewBox="0 0 496 496">
  <g id="download" transform="translate(-8 -8)">
    <path id="Path_31" data-name="Path 31" d="M256,8C119,8,8,119,8,256S119,504,256,504,504,393,504,256,393,8,256,8Zm0,467.7C134.7,475.7,36.3,377.4,36.3,256S134.7,36.3,256,36.3,475.7,134.7,475.7,256,377.3,475.7,256,475.7Z"/>
    <path id="Path_32" data-name="Path 32" d="M395.5,310v52.5A30.493,30.493,0,0,1,365,393H147a30.493,30.493,0,0,1-30.5-30.5V310a10.968,10.968,0,0,0-11-11h0a10.968,10.968,0,0,0-11,11v50.2A55.822,55.822,0,0,0,150.3,416H361.7a55.822,55.822,0,0,0,55.8-55.8V310a10.968,10.968,0,0,0-11-11h0A10.968,10.968,0,0,0,395.5,310Z"/>
    <path id="Path_33" data-name="Path 33" d="M345.1,212.1a11.694,11.694,0,0,0-16.2.4L267,274.4h-.1v-170c0-7-5.4-13.1-12.4-13.4a12.992,12.992,0,0,0-13.6,13V274.9h-.1l-62.7-62.7c-4.4-4.4-11.7-4.8-16.2-.4a11.288,11.288,0,0,0-.1,16.1l89.5,89.5.3-.3,2.2,2.2h0L345,228.1A10.919,10.919,0,0,0,345.1,212.1Z"/>
  </g>
</svg>
