<svg id="intro_image_three" xmlns="http://www.w3.org/2000/svg" width="1250" height="1250" viewBox="0 0 1250 1250">
  <g id="Group_257">
    <g id="Group_243">
      <path id="Path_95"
        d="M419,195.7A78.63,78.63,0,0,1,384.1,261H110.5a73.439,73.439,0,0,1,21.4-143.7c.7,0,1.5.1,2.2.1a113.489,113.489,0,0,1,107.1-76c49.7,0,91.7,32,107.2,76.3A78.352,78.352,0,0,1,419,195.7Z"
        fill="#f9dc93" />
    </g>
    <g id="Group_256">
      <g id="Group_249">
        <g id="Group_245">
          <g id="Group_244">
            <path id="Path_96"
              d="M219.9,223.1A64.979,64.979,0,0,1,199.6,109c.7-.5,1.3-1,2-1.5l5,7.2a56.218,56.218,0,0,0,15.7,100Z"
              fill="#fff" />
          </g>
        </g>
        <g id="Group_248">
          <g id="Group_247">
            <g id="Group_246">
              <path id="Path_97" d="M207,125l14.2-22L195,101.7Z" fill="#fff" />
            </g>
          </g>
        </g>
      </g>
      <g id="Group_255">
        <g id="Group_251">
          <g id="Group_250">
            <path id="Path_98"
              d="M275.7,214.3l-5-7.2a56.218,56.218,0,0,0-15.7-100l2.5-8.4a64.964,64.964,0,0,1,20.4,114C277.2,213.3,276.4,213.8,275.7,214.3Z"
              fill="#fff" />
          </g>
        </g>
        <g id="Group_254">
          <g id="Group_253">
            <g id="Group_252">
              <path id="Path_99" d="M270.4,196.9l-14.2,22,26.2,1.3Z" fill="#fff" />
            </g>
          </g>
        </g>
      </g>
    </g>
  </g>
  <g id="Group_446">
    <g id="Group_260">
      <g id="Group_259">
        <g id="Group_258">
          <path id="Path_100"
            d="M1209.8,1104.8a7.106,7.106,0,0,1-2.1,5.1,7.336,7.336,0,0,1-5.2,2.1H47.5a7.256,7.256,0,0,1-7.3-7.2,7.106,7.106,0,0,1,2.1-5.1,7.336,7.336,0,0,1,5.2-2.1h1155A7.256,7.256,0,0,1,1209.8,1104.8Z"
            fill="#f7882f" />
        </g>
      </g>
    </g>
    <g id="Group_270">
      <g id="Group_263">
        <g id="Group_262">
          <g id="Group_261">
            <path id="Path_101"
              d="M849,260.1H416.2a45.324,45.324,0,0,0-45.3,45.3v746.8a45.324,45.324,0,0,0,45.3,45.3H849a45.324,45.324,0,0,0,45.3-45.3V305.4A45.324,45.324,0,0,0,849,260.1Zm22.6,792.1a22.747,22.747,0,0,1-22.7,22.7H416.2a22.747,22.747,0,0,1-22.7-22.7V305.4a22.747,22.747,0,0,1,22.7-22.7H849a22.747,22.747,0,0,1,22.7,22.7v746.8Z"
              fill="#050f64" />
          </g>
        </g>
      </g>
      <g id="Group_266">
        <g id="Group_265">
          <g id="Group_264">
            <path id="Path_102"
              d="M416.2,1074.9a22.747,22.747,0,0,1-22.7-22.7V305.4a22.747,22.747,0,0,1,22.7-22.7H849a22.747,22.747,0,0,1,22.7,22.7v746.8a22.747,22.747,0,0,1-22.7,22.7Z"
              fill="#fff" />
          </g>
        </g>
      </g>
      <g id="Group_269">
        <g id="Group_268">
          <g id="Group_267">
            <path id="Path_103"
              d="M849,260.1H416.2a45.324,45.324,0,0,0-45.3,45.3v746.8a45.324,45.324,0,0,0,45.3,45.3H849a45.324,45.324,0,0,0,45.3-45.3V305.4A45.324,45.324,0,0,0,849,260.1Zm22.6,792.1a22.683,22.683,0,0,1-22.7,22.7H416.2a22.683,22.683,0,0,1-22.7-22.7h0V305.4a22.683,22.683,0,0,1,22.7-22.7H595.8a15.229,15.229,0,0,1,10.3,4.1l18.7,17.5a11.3,11.3,0,0,0,15.5,0L659,286.8a15.229,15.229,0,0,1,10.3-4.1H849a22.683,22.683,0,0,1,22.7,22.7h0v746.8Z"
              fill="#f7882f" />
          </g>
        </g>
      </g>
    </g>
    <g id="Group_311">
      <g id="Group_273">
        <g id="Group_272">
          <g id="Group_271">
            <path id="Path_104"
              d="M1018,419.9c1.7,395.3-227.9,450.6-227.9,450.6s-19.3-4.6-46.7-20.9A284.074,284.074,0,0,1,702,819.5c-28.3-24.7-58.8-60.6-84.1-112.4a470.651,470.651,0,0,1-25-62.7c-3.1-9.7-6-19.8-8.8-30.3-3.6-14-6.9-28.7-9.7-44.3-7.9-43.6-12.4-93.2-12.2-150,0,0,71.7-19,68.2-79.4,0,0,27.1-11,69.2-19.4,10.7-2.1,22.3-4.1,34.8-5.6q12.15-1.5,25.2-2.4c9.8-.7,20-1.1,30.5-1.1,9,0,17.7.3,26.2.8,62.5,3.7,111.6,19.7,127.8,25.6,3.7,1.3,5.7,2.1,5.7,2.1-1.4,24.2,9.3,41.8,22.6,54.1C992.3,413.1,1018,419.9,1018,419.9Z"
              fill="#e5e6eb" />
          </g>
        </g>
      </g>
      <g id="Group_276">
        <g id="Group_275">
          <g id="Group_274">
            <path id="Path_105"
              d="M790.1,835c-16.3-6.2-54.8-24.4-92.7-67.7-63.6-72.6-98.5-184.5-101.3-324.5,27.2-13.4,57.9-38.6,66.1-77.6,25.1-7.7,72.7-19.5,128-19.5s102.8,11.8,128,19.5c8.1,39,38.8,64.2,66.1,77.6-2.8,140-37.7,251.9-101.3,324.5C845,810.6,806.5,828.8,790.1,835Z"
              fill="#f7c331" />
          </g>
        </g>
      </g>
      <g id="Group_279">
        <g id="Group_278">
          <g id="Group_277">
            <path id="Path_106"
              d="M790.1,835a214.04,214.04,0,0,1-51-27.3c-7.8-5.7-15.4-11.8-22.6-18.2-7.2-6.5-14-13.4-20.6-20.5A367.41,367.41,0,0,1,661,722.4a415.353,415.353,0,0,1-26.7-51.8,528.736,528.736,0,0,1-32.5-111.8c-7-38.2-10.5-77-11.5-115.8l-.1-3.6,3.3-1.7c15.1-7.6,29-17.7,40.1-30.2A95.02,95.02,0,0,0,656,364l.8-3.6,3.5-1.1a468.561,468.561,0,0,1,64.1-14.7,407.966,407.966,0,0,1,131.4,0,468.55,468.55,0,0,1,64.1,14.7l3.5,1.1.8,3.6a95.02,95.02,0,0,0,22.4,43.5c11.1,12.5,25,22.6,40.1,30.2l3.3,1.7-.1,3.6c-1,38.8-4.5,77.6-11.5,115.8A523.478,523.478,0,0,1,946,670.5c-7.8,17.8-16.4,35.3-26.7,51.8a345.083,345.083,0,0,1-34.9,46.6c-6.6,7.1-13.4,14.1-20.6,20.5a246.422,246.422,0,0,1-22.6,18.2A211.508,211.508,0,0,1,790.1,835Zm0,0c17.8-7.4,34.3-17.6,49.5-29.3,7.6-5.9,14.8-12.2,21.8-18.8,6.9-6.6,13.4-13.7,19.7-20.9a346.845,346.845,0,0,0,32.8-47,408.328,408.328,0,0,0,24.9-51.6,541.78,541.78,0,0,0,29.7-110.5,795.378,795.378,0,0,0,9.8-114.3l3.2,5.3c-16.3-8-31.6-18.8-44-32.5a112.119,112.119,0,0,1-16-22.7,102.42,102.42,0,0,1-9.6-26.3l4.3,4.7A457.886,457.886,0,0,0,853.8,357a412.213,412.213,0,0,0-63.7-4.9,425,425,0,0,0-63.7,4.9A443.425,443.425,0,0,0,664,371.1l4.3-4.7a102.422,102.422,0,0,1-9.6,26.3,112.12,112.12,0,0,1-16,22.7c-12.5,13.7-27.7,24.4-44,32.5l3.2-5.3a809.95,809.95,0,0,0,9.8,114.3,529.445,529.445,0,0,0,29.8,110.5A445.351,445.351,0,0,0,666.4,719a346.845,346.845,0,0,0,32.8,47c6.3,7.2,12.7,14.3,19.7,20.9a279.982,279.982,0,0,0,21.8,18.8C755.9,817.4,772.3,827.6,790.1,835Z"
              fill="#f7882f" />
          </g>
        </g>
      </g>
      <g id="Group_310">
        <g id="Group_282">
          <g id="Group_281">
            <g id="Group_280">
              <circle id="Ellipse_5" cx="27" cy="27" r="27" transform="translate(668.7 439.3)" fill="#fff" />
            </g>
          </g>
        </g>
        <g id="Group_285">
          <g id="Group_284">
            <g id="Group_283">
              <circle id="Ellipse_6" cx="27" cy="27" r="27" transform="translate(764.3 439.3)" fill="#fff" />
            </g>
          </g>
        </g>
        <g id="Group_288">
          <g id="Group_287">
            <g id="Group_286">
              <circle id="Ellipse_7" cx="27" cy="27" r="27" transform="translate(859.9 439.3)" fill="#fff" />
            </g>
          </g>
        </g>
        <g id="Group_291">
          <g id="Group_290">
            <g id="Group_289">
              <circle id="Ellipse_8" cx="27" cy="27" r="27" transform="translate(668.7 519.8)" fill="#fff" />
            </g>
          </g>
        </g>
        <g id="Group_294">
          <g id="Group_293">
            <g id="Group_292">
              <circle id="Ellipse_9" cx="27" cy="27" r="27" transform="translate(764.3 519.8)" fill="#fff" />
            </g>
          </g>
        </g>
        <g id="Group_297">
          <g id="Group_296">
            <g id="Group_295">
              <circle id="Ellipse_10" cx="27" cy="27" r="27" transform="translate(859.9 519.8)" fill="#fff" />
            </g>
          </g>
        </g>
        <g id="Group_300">
          <g id="Group_299">
            <g id="Group_298">
              <circle id="Ellipse_11" cx="27" cy="27" r="27" transform="translate(668.7 600.4)" fill="#fff" />
            </g>
          </g>
        </g>
        <g id="Group_303">
          <g id="Group_302">
            <g id="Group_301">
              <circle id="Ellipse_12" cx="27" cy="27" r="27" transform="translate(764.3 600.4)" fill="#fff" />
            </g>
          </g>
        </g>
        <g id="Group_306">
          <g id="Group_305">
            <g id="Group_304">
              <circle id="Ellipse_13" cx="27" cy="27" r="27" transform="translate(859.9 600.4)" fill="#fff" />
            </g>
          </g>
        </g>
        <g id="Group_309">
          <g id="Group_308">
            <g id="Group_307">
              <circle id="Ellipse_14" cx="27" cy="27" r="27" transform="translate(764.3 681)" fill="#fff" />
            </g>
          </g>
        </g>
      </g>
    </g>
    <g id="Group_371">
      <g id="Group_314">
        <g id="Group_313">
          <g id="Group_312">
            <path id="Path_107"
              d="M1067,426.7a25.945,25.945,0,0,1,39.2-24.6,25.781,25.781,0,0,1,36.4,2,31.5,31.5,0,0,1,4.5,6.9,25.854,25.854,0,0,1,20.7,20,26.557,26.557,0,0,1-1.6,16,25.879,25.879,0,0,1,13.6,34,26.256,26.256,0,0,1-14,13.8,10.544,10.544,0,0,1,.6,2.4,25.867,25.867,0,0,1-19.8,30.8,25.6,25.6,0,0,1-20.9-4.5,3.554,3.554,0,0,1-1,.2,26.455,26.455,0,0,1-12.5-.4,25.883,25.883,0,0,1-42-14.3,25.258,25.258,0,0,1,.1-11.6,26.113,26.113,0,0,1-1.8-29.4,25.559,25.559,0,0,1-1.5-41.3Z"
              fill="#303030" />
          </g>
        </g>
      </g>
      <g id="Group_322">
        <g id="Group_318">
          <g id="Group_317">
            <g id="Group_316">
              <g id="Group_315">
                <path id="Path_108"
                  d="M881.8,453.4c3.6-.2,6.8,1.9,7.5,5.1,4.4,18.9,12.8,36.9,24.8,50.7a84.514,84.514,0,0,0,20.5,17.2,85.47,85.47,0,0,0,11.8,5.7,78.3,78.3,0,0,0,12.5,3.8,115.017,115.017,0,0,0,13.1,2l1.7.2,1.7.1c1.1,0,2.2.1,3.3.2,2.3,0,4.5.1,6.7,0a145.6,145.6,0,0,0,27.2-3.4c18.2-3.8,36.2-10.2,53.8-18.1a21.671,21.671,0,0,1,8.7-1.6,33.206,33.206,0,0,1,4.4.6,23,23,0,0,1,4.2,1.4,25.581,25.581,0,0,1,13,13.3,23.391,23.391,0,0,1,0,18.7,23.772,23.772,0,0,1-2.3,4.1,17.769,17.769,0,0,1-3.2,3.5,23.769,23.769,0,0,1-8.6,4.9c-10.4,3-21,5.7-31.9,7.7a281.21,281.21,0,0,1-33,4.4,193.137,193.137,0,0,1-34-.6c-2.8-.3-5.7-.8-8.5-1.2-1.4-.2-2.8-.5-4.3-.8l-2.1-.4-2.1-.5a124.472,124.472,0,0,1-16.8-5,112.558,112.558,0,0,1-30.6-17.2,108.405,108.405,0,0,1-23.1-25.6A129.479,129.479,0,0,1,882,492.5a143.532,143.532,0,0,1-6.4-31.8,6.79,6.79,0,0,1,6.1-7.3Z"
                  fill="#ea8096" />
              </g>
            </g>
          </g>
        </g>
        <g id="Group_321">
          <g id="Group_320">
            <g id="Group_319">
              <path id="Path_109"
                d="M1007.3,526.1l52.1-15.7c15.8-4.7,32.5,3,37.2,18.7h0c4.7,15.8-4.3,33.6-20.1,38.4l-52.1,15.7Z"
                fill="#f7882f" />
            </g>
          </g>
        </g>
      </g>
      <g id="Group_325">
        <g id="Group_324">
          <g id="Group_323">
            <path id="Path_110"
              d="M1111.2,1090a7.67,7.67,0,0,1,5-2.6,56.344,56.344,0,0,1,5.8-.3,30.545,30.545,0,0,0,13.5-3.9,40.719,40.719,0,0,1,6.5-3.5l13.5.4a15.7,15.7,0,0,1,3.6,7.3,26.123,26.123,0,0,1,.4,7.4v2.8h-49.6v-2.8h0A8.1,8.1,0,0,1,1111.2,1090Z"
              fill="#050f64" />
          </g>
        </g>
      </g>
      <g id="Group_328">
        <g id="Group_327">
          <g id="Group_326">
            <path id="Path_111" d="M1157.1,1065.2l-1.6,14.8-13.6-.4-1.1-14.1Z" fill="#f5bdc8" />
          </g>
        </g>
      </g>
      <g id="Group_331">
        <g id="Group_330">
          <g id="Group_329">
            <path id="Path_112"
              d="M1099.8,774.2c-13.4,33.9-30.7,64.4-49.6,86.8l-20.8,207.8-66.8-3.8,31.2-203.4a178.011,178.011,0,0,1,6.3-26.9s47.9-149,47.9-149.1c5.1-19.5,110.3-5.4,110.3-5.4,29.1,40.4,10.8,168.8,10.8,168.8l15.6,215.8-71.1,1.2.3-214.1Z"
              fill="#f7c331" />
          </g>
        </g>
      </g>
      <g id="Group_334">
        <g id="Group_333">
          <g id="Group_332">
            <path id="Path_113" d="M1003.6,1067.3l-4.1,12.7-13.6-.4,2-13.2Z" fill="#f5bdc8" />
          </g>
        </g>
      </g>
      <g id="Group_337">
        <g id="Group_336">
          <g id="Group_335">
            <path id="Path_114"
              d="M955.3,1090.1a8.824,8.824,0,0,1,5-2.7,56.344,56.344,0,0,1,5.8-.3,30.545,30.545,0,0,0,13.5-3.9c2.1-1.2,4.1-2.7,6.5-3.5l13.5.3a15.7,15.7,0,0,1,3.6,7.3,26.123,26.123,0,0,1,.4,7.4v2.8l-49.6.1v-2.8h0A6.511,6.511,0,0,1,955.3,1090.1Z"
              fill="#050f64" />
          </g>
        </g>
      </g>
      <g id="Group_340">
        <g id="Group_339">
          <g id="Group_338">
            <path id="Path_115"
              d="M1116.6,502.3h0a67.458,67.458,0,0,0-71.5,73.7l2.8,109.5c45.1,18.9,80,9.7,110.3-5.4L1168.7,566a56.1,56.1,0,0,0-47.7-63.3C1119.6,502.5,1118.1,502.4,1116.6,502.3Z"
              fill="#f7882f" />
          </g>
        </g>
      </g>
      <g id="Group_343">
        <g id="Group_342">
          <g id="Group_341">
            <path id="Path_116"
              d="M1133.2,504.6l.1,1.3a56.575,56.575,0,0,1,32.3,32.2c.4,0,.8-.1,1.2-.1A56.845,56.845,0,0,0,1133.2,504.6ZM1056.1,690a123.533,123.533,0,0,0,41.3,7.4,110.411,110.411,0,0,0,26.2-3.1l-.1-1.2c-19.8,4.6-41.9,4.6-67.2-4.3Zm-12.2-113.9.2,9.5,1.2-.1-.2-9.4a67.9,67.9,0,0,1,42.6-69.1l-.2-1.2a68.964,68.964,0,0,0-43.6,70.3Zm2.7,58.8h-1.2l.9,35.5h1.2ZM1147,685.3v1.3c3.9-1.6,7.8-3.4,11.8-5.4l.6-.3,2.4-26.4-1.2-.6-2.4,26.3C1154.6,682,1150.8,683.7,1147,685.3Z"
              fill="#155bcd" />
          </g>
        </g>
      </g>
      <g id="Group_359">
        <g id="Group_346">
          <g id="Group_345">
            <g id="Group_344">
              <path id="Path_117" d="M1096,479.2l.1,41.5c9,5.8,18.1,5.8,27.1-.1l-.1-41.5Z" fill="#f5bdc8" />
            </g>
          </g>
        </g>
        <g id="Group_349">
          <g id="Group_348">
            <g id="Group_347">
              <path id="Path_118" d="M1096.1,482.9v10.3a29.186,29.186,0,0,0,13.8,4.1h.8a18.14,18.14,0,0,0,12.5-5v-9.5Z"
                fill="#ea8096" />
            </g>
          </g>
        </g>
        <g id="Group_352">
          <g id="Group_351">
            <g id="Group_350">
              <path id="Path_119"
                d="M1084.7,440.1l.7,24.2.2,5.4a25.789,25.789,0,0,0,24.6,24.8,13.608,13.608,0,0,0,4-.4,8.8,8.8,0,0,0,1.5-.5c.1,0,.2-.1.3-.1a13.818,13.818,0,0,0,5.2-3.4,43.875,43.875,0,0,0,7.2-10.9,74.722,74.722,0,0,0,4.3-10.1,33.8,33.8,0,0,0,1.8-12.6l-.8-21.2-41-5.1Z"
                fill="#f5bdc8" />
            </g>
          </g>
        </g>
        <g id="Group_355">
          <g id="Group_354">
            <g id="Group_353">
              <path id="Path_120"
                d="M1076.3,446.6c.1-2.6,2.5-8.8,2.5-8.8a16.213,16.213,0,0,1,5-4.4,6.646,6.646,0,0,1,3.4-.6,14.362,14.362,0,0,1,4.9-3.9c9.6-5,22.8-5.7,29.6-2.7,4.9,2.1,14.3,3.1,12.5,5.1,3.3-.1,1.2,4.2,3.4,12.8,2,7.7,1.6,20.6-2.3,23.1s-9.6,1.5-6.1-7.9a3.4,3.4,0,0,0,.1-1,7.217,7.217,0,0,1-4-2.6,15.168,15.168,0,0,1-2.5-6.8,45.385,45.385,0,0,0-1.3-7.2,15.927,15.927,0,0,0-5.4-7.6,3.582,3.582,0,0,0-1.1-.4,17.1,17.1,0,0,0-2.3,1.3c-2.8,2.2-4.4,5.5-6.5,8.3a32.266,32.266,0,0,1-16.7,11.6,11.914,11.914,0,0,1-4.6.6,4.87,4.87,0,0,0,.1,1.2s-5.4-.3-7.1-2.9A12.143,12.143,0,0,1,1076.3,446.6Z"
                fill="#303030" />
            </g>
          </g>
        </g>
        <g id="Group_358">
          <g id="Group_357">
            <g id="Group_356">
              <circle id="Ellipse_15" cx="9.9" cy="9.9" r="9.9" transform="translate(1125.1 451.3)" fill="#f5bdc8" />
            </g>
          </g>
        </g>
      </g>
      <g id="Group_370">
        <g id="Group_363">
          <g id="Group_362">
            <g id="Group_361">
              <g id="Group_360">
                <path id="Path_121"
                  d="M1150.2,788.9c-3.2-1.7-4.9-5.1-3.9-8.1,1.4-4.5,2.7-9.1,3.7-13.8.5-2.3,1-4.7,1.4-7,.4-2.4.8-4.7,1.2-7.1a273.742,273.742,0,0,0,2.6-28.6,304.366,304.366,0,0,0-3.6-57.2l-.5-3.5-.6-3.5-1.3-7-1.5-7c-.5-2.3-1-4.7-1.5-7-1.1-4.6-2.2-9.3-3.5-13.9l-1.9-6.9c-.7-2.3-1.4-4.6-2.1-6.8a465.2,465.2,0,0,0-20.3-53.4,20.978,20.978,0,0,1,.6-17,25.6,25.6,0,0,1,13.6-12.7h0a24,24,0,0,1,18.6,0,21.517,21.517,0,0,1,12.2,13.5,525.279,525.279,0,0,1,13.6,60.9c.4,2.6.8,5.1,1.2,7.7l1,7.7c.7,5.1,1.1,10.3,1.7,15.5.3,2.6.4,5.2.6,7.8l.5,7.8.3,7.8.1,3.9v3.9a337.874,337.874,0,0,1-4.9,61.9,281.771,281.771,0,0,1-7.1,30.2c-.7,2.5-1.6,4.9-2.4,7.4-.9,2.4-1.7,4.9-2.6,7.3-1.8,4.9-3.9,9.6-6.2,14.4A6.739,6.739,0,0,1,1150.2,788.9Z"
                  fill="#f5bdc8" />
              </g>
            </g>
          </g>
        </g>
        <g id="Group_366">
          <g id="Group_365">
            <g id="Group_364">
              <path id="Path_122"
                d="M1187.4,598.9l-17.1-51.7c-5.2-15.6-21.1-24.9-36.7-19.7h0c-15.6,5.2-25,22.8-19.9,38.5l17.1,51.7Z"
                fill="#f7882f" />
            </g>
          </g>
        </g>
        <g id="Group_369">
          <g id="Group_368">
            <g id="Group_367">
              <path id="Path_123"
                d="M1120.9,591.6l9.2,27.7,9.8-3.2-.2-1.2-8.8,2.9-8.8-26.5Zm-9.4-29.7h1.2c-2.5-14.5,6.6-29.7,20.9-34.4a39.009,39.009,0,0,1,5.7-1.3l.1-1.2a31.548,31.548,0,0,0-6.1,1.3,32.411,32.411,0,0,0-18.4,15.9,30.628,30.628,0,0,0-3.4,19.7Zm51-29-.6,1.1a31.7,31.7,0,0,1,8.5,13.3l5.9,17.9,1.2-.2-6-18a34.484,34.484,0,0,0-9-14.1Zm24.9,66-32.5,10.8.5,1.1,33.5-11.1L1184,585l-1.1.4Z"
                fill="#155bcd" />
            </g>
          </g>
        </g>
      </g>
    </g>
    <g id="Group_435">
      <g id="Group_374">
        <g id="Group_373">
          <g id="Group_372">
            <path id="Path_124"
              d="M272.6,1097.6H339a9.9,9.9,0,0,0-1.9-6.2,10.263,10.263,0,0,0-6.7-3.5,66.19,66.19,0,0,0-7.7-.4,40.73,40.73,0,0,1-18-5.2c-2.9-1.6-5.6-3.6-8.7-4.7l-18.1.5a20.534,20.534,0,0,0-4.8,9.8A35.154,35.154,0,0,0,272.6,1097.6Z"
              fill="#050f64" />
          </g>
        </g>
      </g>
      <g id="Group_377">
        <g id="Group_376">
          <g id="Group_375">
            <path id="Path_125"
              d="M143.2,1097.6h66.5a9.9,9.9,0,0,0-1.9-6.2,10.263,10.263,0,0,0-6.7-3.5,66.19,66.19,0,0,0-7.7-.4,40.73,40.73,0,0,1-18-5.2c-2.9-1.6-5.6-3.6-8.7-4.7l-18.1.5a20.534,20.534,0,0,0-4.8,9.8A31.729,31.729,0,0,0,143.2,1097.6Z"
              fill="#050f64" />
          </g>
        </g>
      </g>
      <g id="Group_380">
        <g id="Group_379">
          <g id="Group_378">
            <path id="Path_126"
              d="M299.6,1077.5l-7.2-204.8s-.2-3.7-.3-4.2L274.4,726.4c-1.2-17.8-142.9,10.5-142.9,10.5l15.9,341.3,23.4-.7,33.1-278.7,39.7,78.6,32.1,200.8Z"
              fill="#f7882f" />
          </g>
        </g>
      </g>
      <g id="Group_388">
        <g id="Group_384">
          <g id="Group_383">
            <g id="Group_382">
              <g id="Group_381">
                <path id="Path_127"
                  d="M345.6,537c-3.6,1.4-5.8,4.6-5,7.3A137.336,137.336,0,0,1,345,568a54.284,54.284,0,0,1,.2,5.7v1.2l-.1,1.1c-.1.7-.1,1.3-.2,1.9a17.344,17.344,0,0,1-2.3,6.6,8.685,8.685,0,0,1-5.1,3.9,10.9,10.9,0,0,1-6.2-.3c-.9-.3-1.8-.7-2.7-1.1l-1.2-.6-.6-.3-1.1-.5a76.441,76.441,0,0,1-9.2-5.4c-3.1-2-6.1-4.3-9.2-6.7-3-2.4-6-4.9-8.9-7.5-5.9-5.3-11.5-10.9-17-16.7a443.467,443.467,0,0,1-31.1-37.4c-3.2-4.1-8.4-5.8-14.2-5.4a31.148,31.148,0,0,0-17.7,7.6h0a29.453,29.453,0,0,0-10.1,16.5c-1.1,5.8.3,11.5,4.3,15.5a454.321,454.321,0,0,0,41.2,34.6c7.3,5.4,14.8,10.6,22.6,15.4a198.2,198.2,0,0,0,25,13.1,118.1,118.1,0,0,0,14.1,5l1.9.5,2.4.6c1.6.4,3.3.7,4.9,1a10.679,10.679,0,0,0,2.5.3l2.4.3a40.077,40.077,0,0,0,4.9.1,37.252,37.252,0,0,0,4.7-.4c1.6-.3,3.1-.5,4.6-.9a31.986,31.986,0,0,0,8.5-3.6,28.081,28.081,0,0,0,11.4-13.8,43.221,43.221,0,0,0,2.8-17.8l-.3-4.5-.3-2.1c-.1-.7-.2-1.4-.3-2-.4-2.4-1-4.7-1.6-7a155.436,155.436,0,0,0-9.5-25.4c-1.5-2.9-5.4-3.9-8.9-2.5Z"
                  fill="#ea8096" />
              </g>
            </g>
          </g>
        </g>
        <g id="Group_387">
          <g id="Group_386">
            <g id="Group_385">
              <path id="Path_128"
                d="M257,606.5l-41.1-45.8c-12.4-13.9-12.6-34.7,1.3-47.1h0c13.9-12.4,36.5-11.8,48.9,2.1l41.1,45.8Z"
                fill="#f7c331" />
            </g>
          </g>
        </g>
      </g>
      <g id="Group_391">
        <g id="Group_390">
          <g id="Group_389">
            <path id="Path_129"
              d="M190.3,495h0a62.125,62.125,0,0,1,70.8,52.1,47.76,47.76,0,0,1,.6,5.3l12.6,174c-56.1,31.7-90.9,24-142.9,10.5l-5.9-163.6A76.606,76.606,0,0,1,190.3,495Z"
              fill="#f7c331" />
          </g>
        </g>
      </g>
      <g id="Group_394">
        <g id="Group_393">
          <g id="Group_392">
            <path id="Path_130"
              d="M126.1,589.7h-1.9l2.8,79.5h1.9Zm146.2,80.9-1.9.1,4,55.6c-53.1,30-87.2,24.7-134.9,12.5l.1,2c22.4,5.7,40.7,9.6,59.7,9.6,25.1,0,48.5-6.9,76-22.5l1.1-.6ZM199.8,494.3a62.133,62.133,0,0,1,62,58.1l3.9,53.3h1.9l-3.9-53.4A64.382,64.382,0,0,0,190,493.1c-.2,0-.5.1-.7.1l-.1,2c.4-.1.7-.1,1.1-.2A74.537,74.537,0,0,1,199.8,494.3Z"
              fill="#da5544" />
          </g>
        </g>
      </g>
      <g id="Group_407">
        <g id="Group_397">
          <g id="Group_396">
            <g id="Group_395">
              <path id="Path_131"
                d="M101.8,690a113.573,113.573,0,1,0,160.5-6.1h0A113.609,113.609,0,0,0,101.8,690Zm71.3,120.7a20.874,20.874,0,1,1-1.1-29.5A20.955,20.955,0,0,1,173.1,810.7Z"
                fill="#f7882f" />
            </g>
          </g>
        </g>
        <g id="Group_400">
          <g id="Group_399">
            <g id="Group_398">
              <path id="Path_132"
                d="M116.7,703.8a93.264,93.264,0,1,0,131.8-5h0a93.254,93.254,0,0,0-131.8,5Zm56.4,106.9a20.874,20.874,0,1,1-1.1-29.5A20.955,20.955,0,0,1,173.1,810.7Z"
                fill="#f7c331" />
            </g>
          </g>
        </g>
        <g id="Group_403">
          <g id="Group_402">
            <g id="Group_401">
              <path id="Path_133"
                d="M492.3,385.6,511.5,459c2.1,8.1.8,15.5-3.7,20.4L481,508.2l-23-21.3-8.1,8.7,19.4,18L453.2,531l-12.1-11.2-29.8,32.1L427,566.4l-32.5,35.1-26.1-24.2-17.7,19.1,26.1,24.2-16.9,18.3L340,620.5l-32.8,35.3-.1,40-24.8,26.8-60.2-55.8L485.8,382.4C487.5,380.6,491.5,382.6,492.3,385.6Z"
                fill="#f7882f" />
            </g>
          </g>
        </g>
        <g id="Group_406">
          <g id="Group_405">
            <g id="Group_404">
              <rect id="Rectangle_9" width="299.8" height="9.1" transform="translate(256.032 649.512) rotate(-47.172)"
                fill="#f7c331" />
            </g>
          </g>
        </g>
      </g>
      <g id="Group_417">
        <g id="Group_410">
          <g id="Group_409">
            <g id="Group_408">
              <path id="Path_134"
                d="M161.2,777.7c-4.2-9.5-8.2-19.1-12-28.6-3.8-9.6-7.4-19.1-10.5-28.7A174.837,174.837,0,0,1,132,692a103.225,103.225,0,0,1-.3-27.2,120.179,120.179,0,0,1,6.9-26.5,259.2,259.2,0,0,1,11.8-26.4c1.2-2.2,2.2-4.4,3.4-6.6l3.6-6.6c2.5-4.4,4.9-8.8,7.5-13.2,5.1-8.8,10.4-17.6,15.8-26.3,6.6-11.3,1.5-26.4-11.3-33.2h0c-12.8-6.8-28.2-2.4-33.8,9.8-4.2,9.7-8.3,19.5-12.3,29.5-2,4.9-3.9,10-5.9,15l-2.8,7.7c-.9,2.5-1.8,5.2-2.7,7.8a277.9,277.9,0,0,0-9.1,32.4,164.471,164.471,0,0,0-3.7,35,136.5,136.5,0,0,0,5.4,34.8,202.723,202.723,0,0,0,12.2,31.1c4.7,9.8,9.9,19.1,15.2,28.3s10.8,18.1,16.3,27c1.8,3,6,4,9.4,2.2h0A6.973,6.973,0,0,0,161.2,777.7Z"
                fill="#f5bdc8" />
            </g>
          </g>
        </g>
        <g id="Group_413">
          <g id="Group_412">
            <g id="Group_411">
              <path id="Path_135"
                d="M97.9,596.5l27.2-55.2c8.2-16.7,27.5-24.6,44.2-16.4h0c16.7,8.2,24.5,29.5,16.3,46.2l-27.2,55.2Z"
                fill="#f7c331" />
            </g>
          </g>
        </g>
        <g id="Group_416">
          <g id="Group_415">
            <g id="Group_414">
              <path id="Path_136"
                d="M187.3,572c7.8-15.9,2.1-36.3-13.1-46.5a22.951,22.951,0,0,0-4-2.3,32.8,32.8,0,0,0-24.4-2l2.1,1.4a31.064,31.064,0,0,1,21.4,2.4c16.7,8.2,24.5,29.5,16.3,46.2l-.7,1.4,1.6,1.1Zm-12,24.4-1.6-1.1-15.3,31.1-24.4-12-1.1,1.6,26.4,13Zm-53.6-48.1-1.6-1.1L95.3,597.4l10.5,5.2,1.1-1.6L98,596.6Z"
                fill="#da5544" />
            </g>
          </g>
        </g>
      </g>
      <g id="Group_434">
        <g id="Group_427">
          <g id="Group_420">
            <g id="Group_419">
              <g id="Group_418">
                <path id="Path_137" d="M214.4,476.9l-5.6,43.9c-10.3,5-19.9,3.8-28.6-3.6l5.6-43.9Z" fill="#f5bdc8" />
              </g>
            </g>
          </g>
          <g id="Group_423">
            <g id="Group_422">
              <g id="Group_421">
                <path id="Path_138"
                  d="M214.4,476.9l-2.5,19.9a29.624,29.624,0,0,1-6.6.7,16.351,16.351,0,0,1-2.2-.2,25.912,25.912,0,0,1-18.8-12.2l1.5-11.8Z"
                  fill="#ea8096" />
              </g>
            </g>
          </g>
          <g id="Group_426">
            <g id="Group_425">
              <g id="Group_424">
                <path id="Path_139"
                  d="M230.8,451.7l-3,18.3-1.2,7.4a20.6,20.6,0,0,1-21.2,17.2,22.853,22.853,0,0,1-11.6-3.8c-.4-.3-.8-.5-1.2-.8a22.911,22.911,0,0,1-8-10.9c-1.3-4-2.5-8.1-3.4-12.2-.6-2.5-1.1-5-1.7-7.6a31.233,31.233,0,0,1,10.6-30.7c7.7-6.2,16.5-7.4,26.5-3A24.122,24.122,0,0,1,230.8,451.7Z"
                  fill="#f5bdc8" />
              </g>
            </g>
          </g>
        </g>
        <g id="Group_430">
          <g id="Group_429">
            <g id="Group_428">
              <path id="Path_140"
                d="M236.5,457.2c2.1-1.7,2.6-5.1,2.5-8s-.4-6,.9-8.6c1.6-3.3,5.5-4.9,6.4-8.5,1-3.6-1.4-6.7-3.5-9.1-5.7-6.2-11.5-12.5-17.2-18.7-2.4-2.6-4.8-5.2-7.8-6.6a8.827,8.827,0,0,0-9.6.9c-1.5,1.2-2.6,3-4.2,4.2-3.5,2.6-7.7,1.2-11.4.1-4.6-1.3-9.7-2-14.3.3s-8.5,8.3-7.6,13.9c.4,2.7,1.8,4.8,2.8,7.2s1.7,5.2.8,7.8c-1.3,3.5-4.8,4.8-7.6,6.8a19.354,19.354,0,0,0-7.3,13c-.6,5.2,1,10.5,4.2,13.7,2.8,2.8,7.5,3.8,10.2.3,3.1-3.9,2-11.4,6-13.8,4.8-2.8,9.5,6.3,14.3,3.4,2.5-1.6,3.2-5.7,5.5-7.9,3-2.9,6.9-1.2,9.8-.1a53.129,53.129,0,0,0,9.7,2.5,15.853,15.853,0,0,1,7.9,4.1C229.6,456.2,233,459.8,236.5,457.2Z"
                fill="#303030" />
            </g>
          </g>
        </g>
        <g id="Group_433">
          <g id="Group_432">
            <g id="Group_431">
              <path id="Path_141"
                d="M193.7,460.5c-.7,5.3-6,8.9-11.9,8.2-5.9-.8-10.2-5.6-9.5-10.9s6-8.9,11.9-8.2C190.1,450.4,194.4,455.3,193.7,460.5Z"
                fill="#f5bdc8" />
            </g>
          </g>
        </g>
      </g>
    </g>
    <g id="Group_445">
      <g id="Group_438">
        <g id="Group_437">
          <g id="Group_436">
            <rect id="Rectangle_10" width="67.3" height="160.1" transform="translate(426.2 914.8)" fill="#f7c331" />
          </g>
        </g>
      </g>
      <g id="Group_441">
        <g id="Group_440">
          <g id="Group_439">
            <rect id="Rectangle_11" width="67.3" height="190.4" transform="translate(518.2 884.5)" fill="#f7c331" />
          </g>
        </g>
      </g>
      <g id="Group_444">
        <g id="Group_443">
          <g id="Group_442">
            <rect id="Rectangle_12" width="67.3" height="261.7" transform="translate(610.3 813.1)" fill="#f7c331" />
          </g>
        </g>
      </g>
    </g>
  </g>
</svg>