<svg id="intro_image_two" xmlns="http://www.w3.org/2000/svg" xmlns:xlink="http://www.w3.org/1999/xlink" width="1250"
  height="1250" viewBox="0 0 1250 1250">
  <defs>
    <clipPath id="clip-path">
      <rect id="Rectangle_1" data-name="Rectangle 1" width="930.7" height="595.4" transform="translate(240.9 204)" />
    </clipPath>
    <clipPath id="clip-path-2">
      <circle id="Ellipse_21" data-name="Ellipse 21" cx="319.1" cy="319.1" r="319.1"
        transform="translate(522.7 218.7)" />
    </clipPath>
  </defs>
  <g id="Group_449">
    <g id="Group_448">
      <g id="Group_447">
        <path id="Path_142"
          d="M1212,1104.8a7.037,7.037,0,0,1-2.2,5.1,7.336,7.336,0,0,1-5.2,2.1H45.4a7.17,7.17,0,0,1-7.3-7.1v-.1a7.037,7.037,0,0,1,2.2-5.1,7.336,7.336,0,0,1,5.2-2.1H1204.8A7.17,7.17,0,0,1,1212,1104.8Z"
          fill="#f7882f" />
      </g>
    </g>
  </g>
  <g id="Group_505">
    <g id="Group_504">
      <g id="Group_491">
        <g id="Group_452">
          <g id="Group_451">
            <g id="Group_450">
              <path id="Path_143"
                d="M1146.9,301.4V838.6H86.5V301.4a41.312,41.312,0,0,1,41.3-41.3h977.9A41.291,41.291,0,0,1,1146.9,301.4Z"
                fill="#f7882f" />
            </g>
          </g>
        </g>
        <g id="Group_455">
          <g id="Group_454">
            <g id="Group_453">
              <rect id="Rectangle_14" width="924.4" height="510.5" transform="translate(154.5 328.1)" fill="#fff" />
            </g>
          </g>
        </g>
        <g id="Group_458">
          <g id="Group_457">
            <g id="Group_456">
              <path id="Path_144" d="M123.6,297.2V801.4h986.2V297.2Z" fill="#fff" />
            </g>
          </g>
        </g>
        <g id="Group_468">
          <g id="Group_461">
            <g id="Group_460">
              <g id="Group_459">
                <rect id="Rectangle_15" width="667.7" height="226.9" transform="translate(138.1 419.5)"
                  fill="#e5e6eb" />
              </g>
            </g>
          </g>
          <g id="Group_464">
            <g id="Group_463">
              <g id="Group_462">
                <rect id="Rectangle_16" width="274.7" height="107.8" transform="translate(820.5 419.5)"
                  fill="#e5e6eb" />
              </g>
            </g>
          </g>
          <g id="Group_467">
            <g id="Group_466">
              <g id="Group_465">
                <rect id="Rectangle_17" width="274.7" height="104.4" transform="translate(820.5 542)" fill="#e5e6eb" />
              </g>
            </g>
          </g>
        </g>
        <g id="Group_484">
          <g id="Group_471">
            <g id="Group_470">
              <g id="Group_469">
                <rect id="Rectangle_18" width="179.8" height="140.3" transform="translate(138.1 661)" fill="#e5e6eb" />
              </g>
            </g>
          </g>
          <g id="Group_474">
            <g id="Group_473">
              <g id="Group_472">
                <rect id="Rectangle_19" width="179.7" height="140.3" transform="translate(332.5 661)" fill="#e5e6eb" />
              </g>
            </g>
          </g>
          <g id="Group_477">
            <g id="Group_476">
              <g id="Group_475">
                <rect id="Rectangle_20" width="179.8" height="140.3" transform="translate(526.8 661)" fill="#e5e6eb" />
              </g>
            </g>
          </g>
          <g id="Group_480">
            <g id="Group_479">
              <g id="Group_478">
                <rect id="Rectangle_21" width="179.7" height="140.3" transform="translate(721.2 661)" fill="#e5e6eb" />
              </g>
            </g>
          </g>
          <g id="Group_483">
            <g id="Group_482">
              <g id="Group_481">
                <rect id="Rectangle_22" width="179.8" height="140.3" transform="translate(915.4 661)" fill="#e5e6eb" />
              </g>
            </g>
          </g>
        </g>
        <g id="Group_487">
          <g id="Group_486">
            <g id="Group_485">
              <path id="Path_145" d="M854.2,1097.6l-54.4-63.1h0V980.8H433.6v53.7l-54.4,63.1Z" fill="#e5e6eb" />
            </g>
          </g>
        </g>
        <g id="Group_490" opacity="0.1">
          <g id="Group_489">
            <g id="Group_488">
              <path id="Path_146" d="M854.2,1097.6l-54.4-63.1h0V980.8H433.6v53.7l-54.4,63.1Z" fill="#050f64" />
            </g>
          </g>
        </g>
      </g>
      <g id="Group_494">
        <g id="Group_493">
          <g id="Group_492">
            <path id="Path_147"
              d="M1146.9,838.6v101a41.312,41.312,0,0,1-41.3,41.3H127.8a41.312,41.312,0,0,1-41.3-41.3v-101Z"
              fill="#e5e6eb" />
          </g>
        </g>
      </g>
      <g id="Group_497">
        <g id="Group_496">
          <g id="Group_495">
            <rect id="Rectangle_23" width="1060.4" height="37.1" transform="translate(86.5 801.4)" fill="#f7882f" />
          </g>
        </g>
      </g>
      <g id="Group_500">
        <g id="Group_499">
          <g id="Group_498">
            <circle id="Ellipse_16" cx="30.4" cy="30.4" r="30.4" transform="translate(586.3 879.3)" fill="#f7882f" />
          </g>
        </g>
      </g>
      <g id="Group_503">
        <g id="Group_502">
          <g id="Group_501">
            <rect id="Rectangle_24" width="986.2" height="107.7" transform="translate(123.6 297.2)" fill="#e5e6eb" />
          </g>
        </g>
      </g>
    </g>
  </g>
  <g id="Group_545">
    <g id="Group_508">
      <g id="Group_507">
        <g id="Group_506">
          <rect id="Rectangle_25" width="202.5" height="168.6" transform="translate(901.9 901.4)" fill="#f7c331" />
        </g>
      </g>
    </g>
    <g id="Group_511">
      <g id="Group_510">
        <g id="Group_509">
          <rect id="Rectangle_26" width="42.9" height="144.9" transform="translate(901.9 908.6)" fill="#f7882f" />
        </g>
      </g>
    </g>
    <g id="Group_522">
      <g id="Group_514">
        <g id="Group_513">
          <g id="Group_512">
            <path id="Path_148"
              d="M1118.7,851.5H887.6a12.718,12.718,0,0,0-12.7,12.7v44.5a12.718,12.718,0,0,0,12.7,12.7h231.2a12.718,12.718,0,0,0,12.7-12.7V864.2a12.739,12.739,0,0,0-12.8-12.7Z"
              fill="#f7882f" />
          </g>
        </g>
      </g>
      <g id="Group_518">
        <g id="Group_517">
          <g id="Group_516">
            <g id="Group_515">
              <path id="Path_149" d="M1121.9,893.9h-6.3V867.4h-99.7v-6.3h106Z" fill="#fff" />
            </g>
          </g>
        </g>
      </g>
      <g id="Group_521">
        <g id="Group_520">
          <g id="Group_519">
            <rect id="Rectangle_27" width="41.4" height="44.1" transform="translate(887.6 864.4)" fill="#f7c331" />
          </g>
        </g>
      </g>
    </g>
    <g id="Group_533">
      <g id="Group_525">
        <g id="Group_524">
          <g id="Group_523">
            <path id="Path_150"
              d="M1118.7,939.5H887.6a12.718,12.718,0,0,0-12.7,12.7v44.5a12.718,12.718,0,0,0,12.7,12.7h231.2a12.718,12.718,0,0,0,12.7-12.7V952.2a12.739,12.739,0,0,0-12.8-12.7Z"
              fill="#f7882f" />
          </g>
        </g>
      </g>
      <g id="Group_529">
        <g id="Group_528">
          <g id="Group_527">
            <g id="Group_526">
              <path id="Path_151" d="M1121.9,981.9h-6.3V955.4h-99.7v-6.3h106Z" fill="#fff" />
            </g>
          </g>
        </g>
      </g>
      <g id="Group_532">
        <g id="Group_531">
          <g id="Group_530">
            <rect id="Rectangle_28" width="41.4" height="44.1" transform="translate(887.6 952.5)" fill="#f7c331" />
          </g>
        </g>
      </g>
    </g>
    <g id="Group_544">
      <g id="Group_536">
        <g id="Group_535">
          <g id="Group_534">
            <path id="Path_152"
              d="M1118.7,1027.6H887.6a12.718,12.718,0,0,0-12.7,12.7v44.5a12.718,12.718,0,0,0,12.7,12.7h231.2a12.718,12.718,0,0,0,12.7-12.7v-44.5a12.739,12.739,0,0,0-12.8-12.7Z"
              fill="#f7882f" />
          </g>
        </g>
      </g>
      <g id="Group_540">
        <g id="Group_539">
          <g id="Group_538">
            <g id="Group_537">
              <path id="Path_153" d="M1121.9,1070h-6.3v-26.5h-99.7v-6.4h106Z" fill="#fff" />
            </g>
          </g>
        </g>
      </g>
      <g id="Group_543">
        <g id="Group_542">
          <g id="Group_541">
            <rect id="Rectangle_29" width="41.4" height="44.1" transform="translate(887.6 1040.5)" fill="#f7c331" />
          </g>
        </g>
      </g>
    </g>
  </g>
  <g id="Group_561">
    <g id="Group_723" data-name="Group 723">
      <g id="Group_560" clip-path="url(#clip-path)">
        <g id="Group_559">
          <circle id="Ellipse_17" cx="319.1" cy="319.1" r="319.1" transform="translate(522.7 218.7)" fill="#f7882f" />
          <g id="Group_722" data-name="Group 722">
            <g id="Group_558" clip-path="url(#clip-path-2)">
              <g id="Group_548">
                <g id="Group_547">
                  <g id="Group_546">
                    <path id="Path_154"
                      d="M957.3,665.1a17.722,17.722,0,0,1,.1-4.6c.7-2.6,3.2-4.9,3.3-7.6a6.056,6.056,0,0,0,0-1.9,4.129,4.129,0,0,0-.7-1.1c-1-1.5-2.5-2.8-3.6-4.3-2.2-2.8-4.3-5.7-5.3-9.1-.7-2.3-.4-3.5,1.2-5,1.7-1.6-1.1-4.2.1-6.2,1.5-2.7,4.6-4.1,6-7a14.556,14.556,0,0,0,1.3-7.4c0-2.9.1-5.9.3-8.8.4-3.5,1.6-4.7,4.4-6.8,1.4-1.1,1.6-1.2,1.6-2.8a16.444,16.444,0,0,1,.4-5.4,12.82,12.82,0,0,1,3.3-6.3c2-1.9,2.5-5.4,3-8a6.1,6.1,0,0,1,1.5-3.6,7.168,7.168,0,0,0,1.9-3.4c2-5.6,3-11.4,4.3-17.2a46.547,46.547,0,0,1,2.1-6.3c.4-1,1.5-5.1,2.8-5.7.6-.3,1.3,0,2-.3,2.1-1,3.1-4.6,5.5-5.1.9-.2,1.7.5,2.5.8,1.4.4,1.8.1,3-.8a32.4,32.4,0,0,0,5.9-5.8c1.6-2.1,3.9-3.4,5.8-5.2,1.5-1.5,3-2.9,4.5-4.4.5-.5,3.1-3.3,4.4-3.9,1.2-.6,1.1.1,2,.6,3.2,1.9,5.4-5.1,7.4-6.5.3-.2.7-.1,1-.3.9-.6,1.4-2.3,1.8-3.2.7-1.6.8-4.1,2.5-2.2a15.584,15.584,0,0,1,2.2,4.7c.3.8.9,4,1.6,4.5.6.4,1.2.2,2,.3,3.1.4,4.7,3.1,7.6,3.8,3,.7,6.1-1.3,8.4-2.9,1.2-.8,2.5-2.2,4.1-2,1.9.3,3.9,2.2,5.5,3.2,1.9-.8,2.6-2.9,3.9-4.4a13.979,13.979,0,0,0,2.4-4.3c1.7-4.2,1.6-9.4,4.8-12.8a8.788,8.788,0,0,1,3.6-2.4c2.5-1.2,4.9-2.8,7.5-4,2.9-1.3,7.2-2.1,9.6-4.3,1.4-1.3,1-4.2,1-5.9,0-4-.3-8.2,0-12.1.1-1,.5-1.9.6-2.9.2-2.8-.8-6-1.3-8.8-.4-2.2-.4-5.1-2-6.9-1.4-1.6-2.8-.3-4.4.7-2.2,1.3-4.6,2.5-6.7,4-1.1.8-2.3,2.6-3.6,3.2-1.1.4-2.8,0-3.9.1a15.7,15.7,0,0,1-4.8-.5c-3.9-1.3-7.5-6-7.4-10.1a7.389,7.389,0,0,1,0-2.1c0-1.8.8-3.2,1-4.9a28.128,28.128,0,0,0-.1-7.1,48.469,48.469,0,0,0-1.9-7.5c-.5-1.4-1.2-2.7-1-4.3.4-3.4,3.9-2.8,6.2-2.2,1.5.4,5.9,1.9,6.9-.1a13.481,13.481,0,0,0,.6-4.9c0-2.7,0-5.3-1.1-7.8-1.6-.2-2.1,2-3.6,2.4-2.1.5-5.4,0-7.5,0s-4.3.1-6.4.1a5.622,5.622,0,0,1-3.4-.6c-1.3-1-2.2-3.1-3-4.6-.3-.6-1-2.5-1.7-2.7-.6,2.7-.1,6-.1,8.8a32.918,32.918,0,0,1-.5,4.4c-.1.9-.2,1.8-.3,2.8a7.085,7.085,0,0,0,0,2.9,20.864,20.864,0,0,1,.4,4.3c0,1.4-.3,3.4.4,4.6a2.852,2.852,0,0,0,1.9,1.5,6.06,6.06,0,0,1,1.9,2,11.868,11.868,0,0,1,1.6,2.3c.6,1.6.2,3.6.8,5.2a15.1,15.1,0,0,0,1.8,2.6c.9,1.4.4,3.7.4,5.3v8a16.656,16.656,0,0,0,.4,5,6.71,6.71,0,0,1,.6,2.8,8.175,8.175,0,0,0,.1,2.7c.6,1.4,2.4,2.6,3.6,3.4,1,.7,4.1,2.9,3,4.4-.8,1-5.5.4-6.1.4-3.2-.2-4.6-.6-6.9-2.9-2.6-2.6-4.5-5.7-6.9-8.5a19.327,19.327,0,0,0-3.5-3.5,10.6,10.6,0,0,0-1.2-1c-.9-.2-1.2.6-1.8.9a6.729,6.729,0,0,1-2,.1c-3.7,0-7.4-.3-11,.7a27.605,27.605,0,0,0-7.1,3.5,17.773,17.773,0,0,0,11.3,6c3.7.3,7.8,1,11.1,3a9.122,9.122,0,0,1,3.6,4.6c.7,2,.3,3.7.6,5.7.3,2.5,2,4.8,2.1,7.3a32.972,32.972,0,0,1-9-5c-2.8-2.3-5-6.1-7.3-8.8-.5-.6-2.2-3.1-3.5-3-1,.1-1.8,1.6-2.3,2.2-2.4,2.5-4.3,3-7.4,1.4a43.913,43.913,0,0,1-4.7-2.7c-.9-.6-2.3-1.1-2.4-2.3-2.9,3-4.6,7.6-6.2,11.4-.8,2-1.8,4-2.6,6a3.359,3.359,0,0,0-.2,2.2,12.661,12.661,0,0,0,1.3,3.2,11.913,11.913,0,0,1,.6,4.6c-.2,2.3-1.4,3.1-2.5,4.9a5.384,5.384,0,0,0-.5,3.3c.1,2.8,0,5.6,0,8.4,0,2.6.4,5.5.1,8.1-.4,3-4.5,4.6-6.8,5.9-1.4.8-3.3.7-4.9.9-3.5.5-6.1,2.6-9,4.3-.9.5-1.5,1.7-2.5,2-3.7,1-7.8-3.5-9.7-5.9a37.727,37.727,0,0,1-5.9-10.3,14.322,14.322,0,0,1-.5-5.8v-6.9c0-1.7-.7-3.6,1.3-4,2.6-.6,5.9-.2,8.1-1.9a42.682,42.682,0,0,1,7.3-4.6l4.5-2.1a3.413,3.413,0,0,0,3.2-1.7,31.672,31.672,0,0,1-4.1-2.1c-1.8-1.1-2.6-2.8-3.8-4.5-2-2.7-2.6-6.7-3.2-10a27.9,27.9,0,0,1-.2-5,8.017,8.017,0,0,0-1.1-4,24.6,24.6,0,0,1-2.3-9.6,93.7,93.7,0,0,1,0-10.6,12.035,12.035,0,0,1,1.5-5.3c1-1.7,2.5-2.9,3.8-4.4.3-.4.5-.9.8-1.3a4.806,4.806,0,0,1,2.3-1.7c1.7-.8,3.7-1.2,4.9-2.7l.9-1.2c.8-.9,2.2-1.4,2.9-2.2a2.874,2.874,0,0,0,.3-2.2c-.5-1.8-2.5-2.5-2.5-4.5a5.234,5.234,0,0,1,1-2.7c.8-1.3,1.5-2.6,2.3-4a6.425,6.425,0,0,1,2.6-2.8,10.766,10.766,0,0,0,2.4-1.8c-.8-.6,1.7-4.7,1.5-5.3a32.275,32.275,0,0,0-2.5-7.4,19.449,19.449,0,0,0-5-7.3c-2.8-2.6-6.6-4-9.6-6.4-1.5-1.2-2.8-2.2-3-4.2a21.384,21.384,0,0,1,.2-6.2c.3-1.3.8-1.9.8-3.2a29.3,29.3,0,0,0-.5-2.9c-.2-1.1-.1-2-1.3-2.5-1.3-.6-2.4.2-3.6.6-3.1,1.1-5.7,2-9.1,1.6-2.9-.3-5-2.1-7.1-3.9-.8-.7-1.8-2-2.9-2a3.153,3.153,0,0,0-.5,2.3c-.1,4.1,1.9,7.8,4,11.2,2.2,3.7,5.9,6.7,7.7,10.6a10.447,10.447,0,0,1,.6,4.3c0,3.1.2,5,2.6,7.4a18.5,18.5,0,0,0,4,3.4,6.112,6.112,0,0,1,2.4,2.1c.3.7.1,1,.2,1.7a5.066,5.066,0,0,0,.7,1.5,4.883,4.883,0,0,1-.8,5.3c-1.5,1.4-4.5,1.4-6.4,1.2a40.343,40.343,0,0,1-12.3-3.5,16.9,16.9,0,0,1-7.7-6,15.029,15.029,0,0,1-2.4-6.8c-.3-2.4-1.3-4.8-1.4-7.3a9.64,9.64,0,0,0,0-2.4c-.4-2.4-3.1-6-4-7.7-2.2-3.8-4.7-7.7-6.7-11.6-2.3-4.5-1.9-8.9-1.9-13.8,0-2.4-.5-5.4.2-7.8.8-2.5,3-4.4,4.2-6.7.3-.6.2-1.4.5-1.9.5-.9,2.2-.4,3-.4a12.947,12.947,0,0,0,4.8-.6,8.652,8.652,0,0,1,1.7-.7,3.654,3.654,0,0,1,2.9,0,58.242,58.242,0,0,1,4.5,4c1.3,1,2.7,1.9,4,2.9,1.6,1,3.4,2.4,5.2,1.5,1.3-.6,1.9-1.9,3.1-2.6,4.1-2.7,7.5,4.6,9.1,7.3-.5-4.1-1.3-8.2-2.1-12.2-.8-4.1-1.4-8.7-3.1-12.4a13.844,13.844,0,0,0-2.2-3.5c-1.8-1.8-4.5-2.9-6.5-4.5a22.183,22.183,0,0,1-3.7-3.8,22.16,22.16,0,0,0-4.4-3.7c-4-2.8-9.2-4.6-13.7-6.6-1.8-.8-6.1-2.3-8-3.9-2.1-1.7-2.8-4.5-4.8-6.2-1.2-1.1-2.7-.4-4.3-.6-2-.1-3.7-1.3-5.3-2.4-2.4-1.7-4.7-3.2-7.3-4.7-2.2-1.2-4.3-2.5-6.5-3.7-1-.6-2.1-.2-3.4-.7-.5-.2-.9-.5-1.3-.7a13.969,13.969,0,0,0-2.9-.9c-1.5-.5-2.9-1.3-4.4-1.9a56.866,56.866,0,0,0-5.9-1.6c-4.3-1-8.8-1.4-13.1-2.6a22.113,22.113,0,0,1-3.4-1.8,5.3,5.3,0,0,1-2.8-2.9c-.6-1.1-1.3-2.1-1.9-3.2-1.1-2.1-1.7-4.7-4.2-5.2-4.3-.8-8.7-2.2-13-2.4-2.7-.1-6.6.9-8.8-1-1.9-1.7-3.2-6.2-6.4-5.8-2,.3-3.8,2.1-5.6,2.9a24.476,24.476,0,0,1-5.4,1.8,67.726,67.726,0,0,0-7.7,2.2c-2.4.8-5.6,3-8.3,3-3.6-.1-6.4-2-9.6-3.2-2.6-1-5.8.1-8.3,1.1-1.3.5-3,1.7-4.4,2-.4.1-.7-.1-1.1,0-1.7.2-3.6,1.3-5.3,1.7-4.9,1.3-9.3,4.5-14.2,5.5a16.116,16.116,0,0,1-3.8.1h-7.2c-2,0-3.9.2-5.4-1.4-1.1-1.2-.9-2.5-.9-3.9a78.5,78.5,0,0,0-.1-9.7c5.1-2.2,11.2-1.8,16.3-4.2,3.1-1.5,6.5-2.5,9.6-4a78.966,78.966,0,0,0,8-4.6c1-.7,4.2-2.7,4.2-4.2-.2-3.6,6.9-5.1,9.7-6.7,8.8-4.8,18.5-9.3,28.4-11.2,4.2-.8,10.1-1.5,14.3.4,2.4,1.1,4.4,2.6,6.9,3.5,6.8,2.7,13.8,4.6,21.1,4.2,4.9-.2,10-.4,14.7-1.9,2-.7,4.1-1.5,6.1-2.2a117.232,117.232,0,0,1,14.2-3.4c4.7-.9,9.1-.8,13.8-.8,4.6,0,9.3-.3,13.9.1,6.2.6,12.2,2.6,18.4,3.3,7.9.9,15.8.4,23.7,1.5,6,.8,11.8,2.4,17.7,3.6,2.3.5,4.7.8,7,1.4,2,.5,4.4.6,6.2,1.7a62.553,62.553,0,0,1,6,4c.1,1.2,3.5,1.6,4.3,2.5a77.637,77.637,0,0,0,9.5,8.6c9.8,7.7,20.7,14,30.4,21.8,11.9,9.4,22.6,20.3,32.7,31.6,17.7,19.8,35.7,40.7,48.9,63.8,10.8,18.8,16.7,39.9,26.2,59.4a242.283,242.283,0,0,0,14,25.5c4.8,7.5,10.1,14.6,14.8,22.2a144.738,144.738,0,0,1,16,37.8c4.4,17,9.9,33.7,13.5,50.8,2.4,11.3,6.2,22.5,6.1,34.1-.2,12.2-2.4,24.7-5.2,36.5-1.7,7.1-3.7,14.1-5.3,21.2-1.9,8.3-3.6,16.5-6.5,24.6-2.9,8-6.5,15.8-9.9,23.6-2.1,4.8-3.9,9.9-6.6,14.4-1.8,3-4.2,5.6-6.3,8.4-3.1,4-5.9,8.4-9.2,12.3-12.6,15.1-28.9,27.1-43.6,40.1-5.8,5.1-11.8,10-17.4,15.4-2.7,2.6-5.7,5-8.6,7.4-1.2,1-3.3,3.2-5,3.4-.8-.1-2-.5-2.2-.9a45.661,45.661,0,0,0-6.9-11.9,5.75,5.75,0,0,0-2.8-2.3c-2-.8-4.4-.4-6.5-.4-1.3,0-3.7-.4-5,.1-.6-.9-.4-3-.3-4a13.973,13.973,0,0,1,.5-4.1,24.369,24.369,0,0,1,2.5-6.3c.3-.5.8-1,1.1-1.5.3-.6.6-1.2.9-1.9.1-.2.3-.3.3-.5.2-1,.1-1.7.4-2.8a27.04,27.04,0,0,0,.9-7.5,14.083,14.083,0,0,0-.1-2.9c-.2-1.1-.8-1.9-.9-3a9.042,9.042,0,0,1,1.3-6c2-3.1,4.6-5.8,6.5-9a8.865,8.865,0,0,0,.8-1.7c.5-1.4,1.3-2.5,1.9-3.8a26.376,26.376,0,0,0,1.7-6.1,16.329,16.329,0,0,0-.5-5.8,44.515,44.515,0,0,1-.7-11.5c.1-1.8.3-3.5.3-5.3,0-.5.1-1.2.1-1.6a3.38,3.38,0,0,0-1.3-1.8,8.377,8.377,0,0,1-2.5-3.1,41.4,41.4,0,0,1-1.9-4.9c-.7-1.9-1.5-3.9-2.3-5.8-.5-1.1-.9-2.2-1.3-3.3-.6-2.4.4-5.1-.1-7.5s-2.3-2.4-4.3-2.3c-3.9.2-7.7,1.3-11.6,1.9-4.2.6-8.1,3-11.9,4.6-3.5,1.5-7.1,2.8-10.6,4.3.4-.2-4.9,2-5.1,2.8-.3,1.1.3,2.4-.1,3.6a14.52,14.52,0,0,1-6.2,7.4c-1.4.9-2.9,1.7-4.3,2.7a23.915,23.915,0,0,1-2.1,1.3c-1.9.9-3.8,1.9-6,1.9a13.607,13.607,0,0,1-4-.4c-.7-.2-1.3-.5-1.9-.6-.2,0-.5-.1-.7-.1a5.032,5.032,0,0,0-2.9,1.2,52.785,52.785,0,0,1-5.3,2.7c-1.6.6-2.6.3-3.9-1-1.1-1.1-1.7-2.5-2.7-3.6s-2.2-2.1-3.3-3.1c-1.1-.9-2.6-2.4-4.1-2.4-2,0-4.4.4-6.3-.3a17.233,17.233,0,0,1-2.1-.7c-2.5-.9-3.9-2.8-5.8-4.5-1.4-1.2-3.2-1.9-4.2-3.5-.6-.9-1.4-1-2.2-1.7a7.886,7.886,0,0,0-1.5-1.2,4.129,4.129,0,0,1-1.1-.7,8.581,8.581,0,0,1-1.8-3.4c-.3-1.2-.6-3.5-1.9-4a8.106,8.106,0,0,0-2.2,0h-.9A4.532,4.532,0,0,1,957.3,665.1Z"
                      fill="#f9e6b9" />
                  </g>
                </g>
              </g>
              <g id="Group_551">
                <g id="Group_550">
                  <g id="Group_549">
                    <path id="Path_155"
                      d="M628.7,700.1c-.8,4.7-3.4,9.1-4.5,13.8-.6,2.6-1.6,6.5,0,9,2.1,3.4,7.8,6.5,10.8,8,3.9,2,7.8,3.4,11.8,5.1,2.7,1.1,2.2.4,2.5,2.3.3,1.8-.3,4,.1,5.9a26.8,26.8,0,0,0,6.5,12.2c1.7,2,4,3.5,5.7,5.6,2.5,2.9,3.9,6.9,6.1,10.1s5.3,6.4,6.8,10.1c1.4,3.4,1.2,7.1,2.7,10.5,2.4,5.5,7,9.5,9.7,14.9,1.2,2.5,3,5.5,3.2,8.3.1,2.2-.4,2.9,1,4.9,2.7,3.8,7.9,6.2,11.8,8.7,4,2.7,6.4,7,10.7,9.3,10.4,5.7,22.5,4.7,33.8,5.2,3.5.1,6.2,2,9.7,2.2a41.187,41.187,0,0,0,14.8-1.7,22.317,22.317,0,0,0,10.2-6.6,66.3,66.3,0,0,0,5.2-5.4c1.6-1.1,2.1-1,4-1,3-.1,5.2-1.3,8.1-2.2a38.544,38.544,0,0,1,7.5-1.6,14.643,14.643,0,0,0,5.1-1.2c4.3-1.5,9.2-2.5,13.2-4.8,4-2.4,7.6-7.2,12-8.6,1.4-.4,3.3.6,4.6-.2,2.5-1.4,1-8.2,1.1-10.6.1-1.6-.3-2.6.9-3.8.7-.6,2.1-1,2.9-1.6,1.8-1.4,3.2-3.2,4.9-4.7,1.4-1.2,3.7-2.4,4.9-3.7,1.6-1.8.7-3.9,1.2-6.2a36.313,36.313,0,0,0,1-4.5c.3-4.4-2.4-6.7-5.5-9.3-8.9-7.4-18.4-13.5-30.1-13.9-1.4,0-3.1.3-4.5-.1-.8-.2-3.4-2.5-3.6-2.6-3.8-2.4-8.4-2.4-12.7-3.5-6.4-1.7-7.5-8.4-10.5-13.6-4.4-7.6-10.2-15.1-17.9-19.5a38.683,38.683,0,0,0-9.3-3.5c-5.7-1.7-10.9-4.5-16.1-7.3-3.1-1.7-6.2-3.8-9.6-4.7-1.9-.5-3.7-.3-5.5-.8s-3.3-2.4-4.8-3.6c-3.8-3-7.6-5.9-11.3-8.9-1.8-1.5-3.7-3.3-6.1-3.8-1.2-.3-1.8,0-2.9-.5-1.4-.7-1.8-1.4-3.5-1.9-5.3-1.7-10.5-2.9-15.3-5.9-3.8-2.4-7.6-4.9-11.4-7.1-2.9-1.7-6.4-4.5-9.8-5-3.3-.5-3.2,2.1-5.8,2.9-1.8.6-4.1-.3-5.9,0-1.1,2.4,0,5.1-1,7.5a8.181,8.181,0,0,1-2,2.5c-2,2.2-3.9,4.9-6,6.9-1.7,1.6-4.3,2.3-6.4,3.5C639.3,686.4,631.8,689.7,628.7,700.1Z"
                      fill="#f9e6b9" />
                  </g>
                </g>
              </g>
              <g id="Group_554">
                <g id="Group_553">
                  <g id="Group_552">
                    <path id="Path_156"
                      d="M624.8,587.3c6.9-.5,12.9,3.8,18.1,7.8,2.1,1.6,5.4,3.8,6.7,6.4.6,1.2.2,2.2.7,3.4.4,1.2,2,2.7,2.7,3.8a5.937,5.937,0,0,1,1.8,2.9l.3,4.8c.8,4,4.4,7.6,7.4,10,1.4,1.1,3.4,2.2,4.6,3.3,1,.9,1.3,2.4,2.3,3.3,1.6,1.5,3,1,4.9,1.3,4.5.7,8.9,1.5,13.4,1.8a5.614,5.614,0,0,1,3.1.9c2.9,1.5,6.4,2,9,3.9,1.9,1.4,3.5,2.8,5.5,4.1,1.7,1.1,2.7,2.8,4.8,3.3-.4-.7-1.3-1.1-1.6-1.9-.5-1-.1-2.4-.3-3.5a12.856,12.856,0,0,0-2.5-4.6c-1.4-1.5-3.6-2.1-5.4-3.2a32.064,32.064,0,0,1-4.8-3.4c-2-1.6-4.5-2.4-6.5-4.1a21.937,21.937,0,0,0-5.9-4,32.908,32.908,0,0,1-4.2-2.1c-1.9-1.1-5.5-2.2-7-3.6-1.3-1.3-1.5-4.6-2.2-6.4a34.091,34.091,0,0,0-2.9-6.1c-2.9-4.2-5.3-7.4-9.7-9.8-5.3-2.9-10.7-6.2-15.8-9.5-2.4-1.6-2.9-3.6-4.5-5.9-1.7-2.6-4-4.1-7.3-3.3C629,578.6,629.7,581.5,624.8,587.3Z"
                      fill="#f9e6b9" />
                  </g>
                </g>
              </g>
              <g id="Group_557">
                <g id="Group_556">
                  <g id="Group_555">
                    <path id="Path_157"
                      d="M632.6,656.4c-1.3-4.4-4.1-8-6.3-11.8-1.7-2.9-4.5-6.5-4.6-9.9-.1-4.6,4.2-7,5-10.9.8-3.6,2.8-10.2-.8-12.9-3.2-2.5-8.5-3.1-12.4-4.2-2.8-.8-3-1.3-5.2-2.8-3-1.9-4.5-3.4-5-7-.4-3.1.1-6.4,0-9.5,0-3.9-.6-6.2-4.4-7.9-2.9-1.3-5.8-1.6-7.3-4.8-1.3-2.8-1.5-7.5-1.7-10.5-.3-4-.2-8-.2-11.9v-9.8c0-1-.4-3.6.1-4.8.7-1.7,3-2.3,4.5-2.9a43.449,43.449,0,0,1,7.1-1.8,47.01,47.01,0,0,1,6.5-.1c1.1-.2,1.8-.8,2.9-1.1,2.8-.6,7,.1,9.8,0,4.1-.1,8.7,2.7,12,5.1,2.4,1.8,3.1,3.8,3.6,6.7.9,5.4.3,11.4.2,16.9,0,2.1-.1,3.7.9,5.6,1.5,2.7,4.5,5.1,7.8,3.4,1-5.9.1-12.5.1-18.5,0-1.5-.8-4.5.4-5.5,1.5-1.3,8-.1,10.1-.1,3.2,0,11.5,1.7,13.4-1.7.7-1.2.4-3,.7-4.3.6-2.4,1.4-4.7,2-7.1.6-2.3,1.1-6.8,3-8.4,1.4-1.2,2-.9,3.8-.9,2.8,0,5.1-1.3,7.7-2.4,8.1-3.5,15.6-8.2,24-11,2.7-.9,5.3-.9,7.6-2.6,1.9-1.4,2.9-2.4,5.4-2.5,2.7-.1,5.4,0,8.1.1a23.676,23.676,0,0,0,10.1-2.3c1.5-.6,3.6-2.8,5.4-2.6.7-2.3.3-5.4,0-7.7-.3-1.8-1.8-5.8-.6-7.6,1.5-2.4,6.1-1.1,8.6-1.1a76.443,76.443,0,0,1,12.6,1c1.8.2,6.5,0,8,1.1,1.6,1.1.9,4.4.8,6,0,3.3-.7,7.2.2,10.4,5.3,1.6,7.8-7.6,7.8-11.6,0-3.1-1.5-3.6-3.1-5.8a6.424,6.424,0,0,1-1.9-3.4,42.532,42.532,0,0,1-1.9-12.2c0-2.3.1-4-1-6.1-1.8-3.4-5.8-5.3-7.7-8.7a6.848,6.848,0,0,1-1-4.4c-.1-6.4-.2-12.5,1.7-18.7a20.6,20.6,0,0,0,1.2-7c0-2.8-1-4.3-2.3-6.8-.8-1.6-1.3-3.2-2.7-4.5-1.8-1.8-3.3-.4-5.2-1.3-2.4-1.1-4.5-5.4-5.6-7.9-3.4.9-6.5,7.2-8.5,9.7-1.1,1.4-1.5,3.2-2.6,4.5-1.6,1.9-4.6,2.3-6.9,3.4-2.8,1.3-2.4,1.8-2.3,4.7.1,4.8-.4,13.1-5.8,14.8-1.5.4-3.8-.1-5.3-.1-3.3.1-4.5-.5-5.8-4.1-.3-1-.2-2.7-.6-3.5-.5-1.1-.8-.8-1.4-1.7-1.5-2.3-2-4.8-3.7-7.1a26.5,26.5,0,0,1-3.8-6.2c-1.1-2.9-2.7-5.9-3.7-8.8-1-3.1-.5-8.7.8-11.7a15.021,15.021,0,0,1,6.1-7.7c1.9-1.1,3.5-3.1,5.5-3.7,2.1-.6,5.7.1,7.9.1h22c1.3,0,3.4.4,4.6,0,3.2-.9,4.6-6,6-8.7,1.5-3-.1-1.4,2.1-1.9,1.5-.3,5.7,1.6,7.2,2.4,3.6,1.8,4.1,5,4.9,8.7.7,3.3,1.8,6.1,1.7,9.5-.1,2.7-.7,6.2.5,8.6.5.9,1.1,2.4,2.5,1.9,1.5-.6.7-3.4,1.1-4.4,1-3,3.3-1.8,5.7-2.9,2.2-1.1,3.5-3.8,3.9-6.2.4-2.7.4-7-.5-9.5-1.2-3.6-1.8-7.2-2.7-10.9-1.6-6.2-.6-13.3-.7-19.7-.1-4.4-.4-5.1,4.1-7.4,2.4-1.2,4.8-3.7,7.3-4.6,5.1-2,14-.3,17.8,3.3s7.6,9.7,8.6,15c1.7,8.5-1.7,17.4-4.5,25.2-.8,2.3-1,4.6-1.6,6.9-1,3.8-3.1,7.2-4.1,11-.9,3.4-.3,7-.3,10.5,0,3-.6,6.3.3,9.2,1.4,4.6,5.2,8.4,7,12.9.8,2,1,3.3,2.6,4.8a13.2,13.2,0,0,0,8.3,3c2.9-5.6,1.3-15.3,1.3-21.2v-9.2c0-3.1.4-6.5,3-8.6,3.4-2.7,9.5-4.4,13.6-4.9,2.8-.3,2.8-.6,6.3-1.8l6.9-1.8a19.316,19.316,0,0,0,7.1-2c.8-1.1-.2-5.3,0-6.3.9-3.7,4.2-7.2,5.9-10.6.8-1.7,3.8-6.2,2.7-8.5-.7-1.5-2.8-1.1-3.8-1.9-1.6-1.2-3.8-6-4.6-7.4-2.7-4.6-4-9.8-6.5-14.5-2.1-4.1-2.6-8.7-4.7-12.7-1.1-2.1-2.7-3.9-3.8-6-1.2-2.4-1.1-4.7-4.3-5.1-6.9-.8-14.7,0-21.8,0a49.493,49.493,0,0,1-7.7-.1c-4.1-.7-7.9-2.5-11.7-4.1-6.4-2.7-14.7-4.4-21-1.1a42.9,42.9,0,0,0-8.4,6.3c-1.2,1-1.4,1.8-3.2,2-2.2.2-4.2-1.2-6.1-2.1-2.8-1.2-5.7-1.9-8.1-3.9-2.9.8-5.4,4.9-7.1,7.2-1.4,1.8-1.7,2.1-4.1.9-2.2-1.2-4.6-6.5-7.4-6.4-2.5.1-3.4,3.6-5.4,4.1-.7.2-3.5-.6-4.1-.8a8.831,8.831,0,0,1-4-4.9c-.3-1.1.1-2.7-.1-3.9a40.1,40.1,0,0,1-.8-5c-.1-2.1-.4-3.7.9-5.4,3.6-4.8,8.9-8.4,12.3-13.6,1.7-2.5,1.5-4.8,1.5-7.6,0-1.7.3-5.6-.9-7-2.8-3.1-11.5,2.9-13.8,4.3-2.7,1.6-3.9,1.6-6.9.1-2.2-1.1-3.9-3-6-4-2.2-1.1-4.6-.7-7.2-.7-6.7.1-12.5,2.9-19.3,1.6-1.9,2.7-2.5,5.8-3.4,9-1.5,5.5-2.8,11.1-4.6,16.5-1.3,3.8-3.5,4.9-6,8.2-1.9,2.4-23.8,28.5-24.6,30.2-2.5,5.2-7.8,6.7-11.1,10.8.1-.4,0-.7-.4-.7-2,3.1-3.6,6.2-6.2,8.9a71.879,71.879,0,0,1-8,6.6,97.406,97.406,0,0,0-15.4,14c-5.3,6.1-8.8,14-11.9,21.3-1.8,4.4-4.5,8.4-6.6,12.5-4.9,9.7-11.3,18.6-15.8,28.5-2.2,4.8-3.3,10-5.3,14.6-2.8,6.3-8.5,10.2-8.5,17.5,0,5.6,2.8,10,3.9,15.2.9,4.3.2,9.6.2,14,0,7.2.9,14.2.9,21.4,0,5.8,1.7,9.8,2.8,15.2a9.827,9.827,0,0,0,.7,3.4c.5.8,1.3,1.2,1.8,2,2.6,4,1.1,8.6,5.4,12.1,1.9,1.5,3.9,2,5.2,4.1,1.5,2.5,2.4,5.6,3.6,8.2,2.9,6.4,5.9,11.4,5.9,18.5,0,4.6,1.6,6.8,3.9,10.8,2.1,3.7,3.1,6.2,2.9,10.4-.1,3.2.2,5.9,2.1,8.7,2.2,3.2,5.3,4.4,6.8,8.2a57.67,57.67,0,0,1,2,8.2c.7,3.4,2.6,5.6,4.1,8.7,1.6,3.3,1.7,7.2,3.5,10.5C617.1,657.1,631,669.2,632.6,656.4Z"
                      fill="#f9e6b9" />
                  </g>
                </g>
              </g>
            </g>
          </g>
        </g>
      </g>
    </g>
  </g>
  <g id="Group_575">
    <g id="Group_564">
      <g id="Group_563">
        <g id="Group_562">
          <path id="Path_159"
            d="M362.3,418.6v16.9h87V418.6Zm43.5-67.9a68.029,68.029,0,0,0-67.9,67.9v41.2h53.4a24.6,24.6,0,0,1,29.2,0h53.4V418.6a68.265,68.265,0,0,0-68.1-67.9Zm-43.5,67.9a43.5,43.5,0,0,1,87,0Z"
            fill="#fff" />
        </g>
      </g>
    </g>
    <g id="Group_566">
      <g id="Group_565">
        <path id="Path_160"
          d="M473.7,419.9a31.439,31.439,0,0,0-8.6-1.3H346.5a28.218,28.218,0,0,0-8.7,1.3,29.911,29.911,0,0,0-21.3,28.7v88.1a30,30,0,0,0,29.9,30H465a30,30,0,0,0,30-29.9V448.6A29.911,29.911,0,0,0,473.7,419.9Z"
          fill="#ffbd00" />
      </g>
    </g>
    <g id="Group_568">
      <g id="Group_567">
        <path id="Path_161"
          d="M465,554.2H346.5a17.626,17.626,0,0,1-17.6-17.6V448.5a17.581,17.581,0,0,1,12.5-16.8h.1a16.787,16.787,0,0,1,5-.7H465a22.362,22.362,0,0,1,5.1.7,17.8,17.8,0,0,1,12.5,16.8v88.1A17.626,17.626,0,0,1,465,554.2ZM346.5,434.6a13.364,13.364,0,0,0-4,.6h-.1a13.951,13.951,0,0,0-9.9,13.4v88.1a14.041,14.041,0,0,0,14,14H465a14.041,14.041,0,0,0,14-14V448.6a14.041,14.041,0,0,0-10-13.4,13.364,13.364,0,0,0-4-.6Z"
          fill="#dca000" />
      </g>
    </g>
    <g id="Group_570">
      <g id="Group_569">
        <path id="Path_162"
          d="M435,466.6a77.924,77.924,0,0,0-9.4-2.8h-.1c-8.4-3.4-15-8.2-19.7-14.2-4.7,6-11.2,10.8-19.7,14.2h0a75.091,75.091,0,0,1-11.4,3.5v28.2c0,6.5,4.5,14.7,13.3,24.2,4.2,4.5,8.6,8.4,11.5,11,2.7,2.3,4.5,3.7,4.5,3.7l1.7,1.3,1.7-1.3a136.289,136.289,0,0,0,14.4-13c9.9-10.2,14.9-18.9,14.9-25.8V467.4h0Z"
          fill="#dca000" />
      </g>
    </g>
    <g id="Group_572">
      <g id="Group_571">
        <path id="Path_163"
          d="M381.8,493.3h24v33.3c-.5-.4-1.1-.9-1.7-1.4a118.726,118.726,0,0,1-10.9-10.4c-9.9-10.7-11.4-16.7-11.4-19.3Z"
          fill="#fff" />
      </g>
    </g>
    <g id="Group_574">
      <g id="Group_573">
        <path id="Path_164"
          d="M429.8,472.4v20.9h-24V460a54.066,54.066,0,0,0,17,10.4l1.3.5h.5C426.3,471.3,428,471.8,429.8,472.4Z"
          fill="#fff" />
      </g>
    </g>
  </g>
  <g id="Group_649">
    <g id="Group_585">
      <g id="Group_578">
        <g id="Group_577">
          <g id="Group_576">
            <path id="Path_165"
              d="M416.4,660c-10.2-2.5-20.4-5.1-30.4-7.9s-19.9-5.8-29.4-9.2a175.527,175.527,0,0,1-26.9-12.1,107.257,107.257,0,0,1-22-16.5,119.442,119.442,0,0,1-17-21.8,254.865,254.865,0,0,1-13.9-25.7c-1.1-2.3-2.2-4.5-3.2-6.8l-3.1-6.9c-2-4.7-4-9.3-6-14.1-3.9-9.5-7.7-19.2-11.4-28.9-5-12.2-20.3-17.4-33.6-11.3h0c-13.3,6.1-19.3,21.2-12.9,33.2,5.2,9.3,10.5,18.7,16.1,28,2.7,4.7,5.6,9.3,8.5,14l4.4,7c1.5,2.3,3.1,4.6,4.6,6.9a302.722,302.722,0,0,0,20.4,27.3,161.717,161.717,0,0,0,25.8,24.5,128.308,128.308,0,0,0,31.3,17,201.3,201.3,0,0,0,32.5,9.3c10.8,2.2,21.4,3.8,32,5.1,10.6,1.4,21.2,2.5,31.7,3.5,3.6.4,6.8-2.3,7.5-6.2h0A7.281,7.281,0,0,0,416.4,660Z"
              fill="#ea8096" />
          </g>
        </g>
      </g>
      <g id="Group_581">
        <g id="Group_580">
          <g id="Group_579">
            <path id="Path_166"
              d="M232.1,599.6l-27.6-55.8c-8.3-16.9-2.8-37.2,14-45.6h0c16.9-8.3,38.7-1.5,47.1,15.3l27.6,55.8Z"
              fill="#f7882f" />
          </g>
        </g>
      </g>
      <g id="Group_584">
        <g id="Group_583">
          <g id="Group_582">
            <path id="Path_167"
              d="M267.3,512.7c-7.9-16.1-27.9-24-45.3-18a33.827,33.827,0,0,0-21.1,20.2l2.4-.8a31.811,31.811,0,0,1,15.1-15.8c16.9-8.4,38.7-1.5,47.1,15.3l.7,1.5,1.9-.6Zm12.2,24.7-1.9.6,15.5,31.4-24.7,12.2.6,1.9,26.6-13.2Zm-71.6,13.5-1.9.6,25.1,50.7,10.6-5.2-.6-1.9-9,4.5Z"
              fill="#da5544" />
          </g>
        </g>
      </g>
    </g>
    <g id="Group_588">
      <g id="Group_587">
        <g id="Group_586">
          <path id="Path_168"
            d="M278,1097.6h67.2a10.867,10.867,0,0,0-1.9-6.3c-1.6-2.1-4.2-3.1-6.7-3.6-2.6-.4-5.2-.3-7.8-.5a40.383,40.383,0,0,1-18.2-5.3c-2.9-1.6-5.6-3.6-8.8-4.8l-18.3.5a20.588,20.588,0,0,0-4.9,9.9A34.17,34.17,0,0,0,278,1097.6Z"
            fill="#010102" />
        </g>
      </g>
    </g>
    <g id="Group_591">
      <g id="Group_590">
        <g id="Group_589">
          <path id="Path_169"
            d="M147.2,1097.6h67.2a10.867,10.867,0,0,0-1.9-6.3c-1.6-2.1-4.2-3.1-6.7-3.6-2.6-.4-5.2-.3-7.8-.5a40.383,40.383,0,0,1-18.2-5.3c-2.9-1.6-5.6-3.6-8.8-4.8l-18.3.5a20.588,20.588,0,0,0-4.9,9.9A34.171,34.171,0,0,0,147.2,1097.6Z"
            fill="#010102" />
        </g>
      </g>
    </g>
    <g id="Group_594">
      <g id="Group_593">
        <g id="Group_592">
          <path id="Path_170"
            d="M305.3,1077.3l-7.3-207s-.2-3.7-.3-4.3L279.8,722.3c-1.2-18-144.5,10.6-144.5,10.6l16,345,23.7-.8,34.2-275.7,39.4,73.5,32.5,203Z"
            fill="#f7c331" />
        </g>
      </g>
    </g>
    <g id="Group_597">
      <g id="Group_596">
        <g id="Group_595">
          <path id="Path_171"
            d="M194.8,488.5h0a62.826,62.826,0,0,1,71.6,52.7,50.607,50.607,0,0,1,.6,5.3l12.7,175.9c-56.7,32-91.9,24.3-144.5,10.6l-5.9-165.4A77.222,77.222,0,0,1,194.8,488.5Z"
            fill="#f7882f" />
        </g>
      </g>
    </g>
    <g id="Group_600">
      <g id="Group_599">
        <g id="Group_598">
          <path id="Path_172"
            d="M130,584.1h-2l2.9,80.3h2ZM277.7,666l-2,.1,4.1,56.2c-53.7,30.3-88.2,25-136.4,12.7l.1,2c22.7,5.8,41.1,9.7,60.4,9.7,25.4,0,49.1-7,76.9-22.7l1.1-.6ZM204.4,487.7a62.943,62.943,0,0,1,62.7,58.7l3.9,53.8h2l-3.9-54a64.892,64.892,0,0,0-64.6-60.5,65.923,65.923,0,0,0-9.9.7c-.2,0-.5.1-.7.1l-.1,2c.4-.1.8-.1,1.1-.2C198.1,488,201.3,487.7,204.4,487.7Z"
            fill="#da5544" />
        </g>
      </g>
    </g>
    <g id="Group_627">
      <g id="Group_610">
        <g id="Group_603">
          <g id="Group_602">
            <g id="Group_601">
              <path id="Path_173"
                d="M399.6,679.2c-4.8,0-9.6-.2-14.2-.3l-3.4-.1-5.7-.3c-1-.1-2.1-.1-3.1-.2l-4.4-.2-4.4-.3c-1-.1-2.1-.2-3.1-.2-1.8-.1-3.7-.3-5.6-.5l-8.6-.9-8.6-1.2c-1.8-.2-3.7-.6-5.4-.9-1-.2-2-.4-3-.5a191.32,191.32,0,0,1-32.4-8.7A122.877,122.877,0,0,1,269.2,650c-15.6-11-29.2-26.3-42.9-48.1-5.4-8.5-10.8-18.2-16.8-29.6-4.7-9.1-9.6-19.1-15.4-31.2a25.848,25.848,0,0,0-14.9-13.2,21.59,21.59,0,0,0-16.9,1.2,20.8,20.8,0,0,0-10.5,13.2,26.48,26.48,0,0,0,2.8,20.2c7.4,12,13.6,21.8,19.6,30.8,7.9,11.8,14.8,21.4,21.9,30.2A257.141,257.141,0,0,0,222,651.8,160.994,160.994,0,0,0,253.8,675a147.017,147.017,0,0,0,36.3,14.1,203.775,203.775,0,0,0,37.3,5.7c1.1.1,2.1.1,3.2.2,2,.1,4,.3,6,.3l9.2.2,9.1-.1h.1c1.9,0,3.9-.1,5.8-.1,1.1,0,2.1-.1,3.2-.1l4.5-.2,4.5-.3c1.1-.1,2.1-.1,3.2-.2,2-.1,3.9-.2,5.9-.4l3.3-.3c4.8-.4,9.8-.8,14.6-1.3,3.9-.4,6.8-3.5,6.6-7C406.6,682,403.5,679.2,399.6,679.2Z"
                fill="#f4bcc7" />
            </g>
          </g>
        </g>
        <g id="Group_606">
          <g id="Group_605">
            <g id="Group_604">
              <path id="Path_174"
                d="M182.1,624.8l-30.6-51.4c-9.3-15.6-5.5-35.5,10.1-44.8l1.3-.2a32.863,32.863,0,0,1,45,11.3v.1l30.6,51.4Z"
                fill="#f7882f" />
            </g>
          </g>
        </g>
        <g id="Group_609">
          <g id="Group_608">
            <g id="Group_607">
              <path id="Path_175"
                d="M209.4,538.9A34.741,34.741,0,0,0,179.6,522a36.391,36.391,0,0,0-8.7,1.1l.8,1.7a32.818,32.818,0,0,1,36.1,15l8,13.5,1.7-.9Zm24.3,40.7-1.7.9,6.4,10.8-34.2,20.4.9,1.6L241,591.9Zm-75.3-48.9-.9-1.7a32.441,32.441,0,0,0-12.2,19.2,35.629,35.629,0,0,0,4.5,26.1l24.1,40.5,1.8-.6-24.3-40.8C142.8,558.9,145.5,540.6,158.4,530.7Z"
                fill="#da5544" />
            </g>
          </g>
        </g>
      </g>
      <g id="Group_623">
        <g id="Group_614">
          <g id="Group_613">
            <g id="Group_612">
              <g id="Group_611">
                <rect id="Rectangle_30" width="6" height="177.8" transform="translate(238.767 658.398) rotate(-80.741)"
                  fill="#f7c331" />
              </g>
            </g>
          </g>
        </g>
        <g id="Group_618">
          <g id="Group_617">
            <g id="Group_616">
              <g id="Group_615">
                <path id="Path_176" d="M415.2,681.1,306.1,663.4l48.3-83.8,109,17.8Z" fill="#f7882f" />
              </g>
            </g>
          </g>
        </g>
        <g id="Group_622">
          <g id="Group_621">
            <g id="Group_620">
              <g id="Group_619">
                <path id="Path_177"
                  d="M389.6,639.1c-3.7,8.8-9.4,14.8-12.6,13.4s-2.9-9.6.8-18.4,9.4-14.8,12.6-13.4S393.3,630.4,389.6,639.1Z"
                  fill="#fff" />
              </g>
            </g>
          </g>
        </g>
      </g>
      <g id="Group_626">
        <g id="Group_625">
          <g id="Group_624">
            <path id="Path_178"
              d="M216,645.8c2,2.1,4.1,4,6.1,5.9a160.994,160.994,0,0,0,31.8,23.2A147.017,147.017,0,0,0,290.2,689a222.426,222.426,0,0,0,36.4,5.7l7-20.5c-.2,0-.3-.1-.4-.1-1-.2-2-.4-3-.5a191.32,191.32,0,0,1-32.4-8.7A122.877,122.877,0,0,1,269.3,650a136.077,136.077,0,0,1-27.4-26.2c-1.3,1.8-2.6,3.5-3.9,5.2a69.109,69.109,0,0,1-6.1,7.1,35.3,35.3,0,0,1-6.1,5.5c-1.4.8-2.8,1.6-4.3,2.4A17.769,17.769,0,0,1,216,645.8Z"
              fill="#f4bcc7" />
          </g>
        </g>
      </g>
    </g>
    <g id="Group_648">
      <g id="Group_637">
        <g id="Group_630">
          <g id="Group_629">
            <g id="Group_628">
              <path id="Path_179" d="M227.8,467l-9.9,44.5c-11.1,4.1-20.7,2-29-6.5l9.9-44.5Z" fill="#f5bdc8" />
            </g>
          </g>
        </g>
        <g id="Group_633">
          <g id="Group_632">
            <g id="Group_631">
              <path id="Path_180"
                d="M227.8,467l-4.5,20.1a19.417,19.417,0,0,1-6.8,0,16.962,16.962,0,0,1-2.2-.4,26.24,26.24,0,0,1-18.1-14.3l2.7-11.9Z"
                fill="#ea8096" />
            </g>
          </g>
        </g>
        <g id="Group_636">
          <g id="Group_635">
            <g id="Group_634">
              <path id="Path_181"
                d="M247,442.7l-6.8,25.9a21.212,21.212,0,0,1-23.3,15.6h0a23.715,23.715,0,0,1-19.8-17.8,183.627,183.627,0,0,1-3.3-20.8c-1.3-11.9,3.8-23.8,13.8-30.4,8.5-5.7,17.6-6,27.5-.5A24.759,24.759,0,0,1,247,442.7Z"
                fill="#f5bdc8" />
            </g>
          </g>
        </g>
      </g>
      <g id="Group_644">
        <g id="Group_640">
          <g id="Group_639">
            <g id="Group_638">
              <path id="Path_182" d="M244.4,427.6s3.4,9.7-.2,25.7c0,0,6.4-15.6,5.7-28.9Z" fill="#494949" />
            </g>
          </g>
        </g>
        <g id="Group_643">
          <g id="Group_642">
            <g id="Group_641">
              <path id="Path_183"
                d="M184.4,443.7s-10.6-23.6,7.1-37.5c19-14.9,29.2-11.3,40-6.3,13.7,6.3,20.6,12.6,26.3,12.4,3-.1,6.1-2.2,6.2-.4.2,1.8-.7,11.8-10.2,17.7-9.5,6-20.1,3.1-29.8-4.2s-14.8-7.4-20.3-1.6c-5.9,6.2-1.6,19.9-1.6,19.9l-3.5.6S187.5,435,184.4,443.7Z"
                fill="#494949" />
            </g>
          </g>
        </g>
      </g>
      <g id="Group_647">
        <g id="Group_646">
          <g id="Group_645">
            <path id="Path_184"
              d="M205.4,445.7c-1.2,5.3-7,8.6-13,7.2-6-1.3-9.9-6.7-8.7-12.1,1.2-5.3,7-8.6,13-7.2C202.7,434.9,206.6,440.3,205.4,445.7Z"
              fill="#f5bdc8" />
          </g>
        </g>
      </g>
    </g>
  </g>
  <g id="Group_657">
    <g id="Group_650">
      <path id="Path_185"
        d="M1166.8,386.9H735.7a12.5,12.5,0,0,1-12.5-12.5V296.1a12.5,12.5,0,0,1,12.5-12.5h431.1a12.5,12.5,0,0,1,12.5,12.5v78.3A12.5,12.5,0,0,1,1166.8,386.9Z"
        fill="#ffbd00" />
    </g>
    <g id="Group_656">
      <g id="Group_651">
        <path id="Path_186"
          d="M817.6,312.5l-15.3,20.2v.3l24.4-3.2v11l-24.4-2.9v.3l15.5,19.4-10.2,5.8-9.7-22.6h-.3l-10.5,22.7-9.2-5.8L793.2,338v-.3l-23.9,3.1v-11l23.7,3.1v-.3l-15-19.8,9.8-5.6,10,22.4h.3L808,307Z"
          fill="#fff" />
      </g>
      <g id="Group_652">
        <path id="Path_187"
          d="M894.2,312.5l-15.3,20.2v.3l24.4-3.2v11l-24.4-2.9v.3l15.5,19.4-10.2,5.8-9.7-22.6h-.3l-10.5,22.7-9.2-5.8L869.8,338v-.3l-23.9,3.1v-11l23.7,3.1v-.3l-15.2-19.7,9.8-5.6,10,22.4h.3l9.8-22.6Z"
          fill="#fff" />
      </g>
      <g id="Group_653">
        <path id="Path_188"
          d="M970.9,312.5l-15.3,20.2v.3l24.4-3.2v11l-24.4-2.9v.3l15.5,19.4-10.2,5.8-9.7-22.6h-.3l-10.5,22.7-9.2-5.8L946.5,338v-.3l-23.9,3.1v-11l23.7,3.1v-.3l-15.2-19.7,9.8-5.6,10,22.4h.3l9.8-22.6Z"
          fill="#fff" />
      </g>
      <g id="Group_654">
        <path id="Path_189"
          d="M1047.5,312.5l-15.3,20.2v.3l24.4-3.2v11l-24.4-2.9v.3l15.5,19.4-10.2,5.8-9.7-22.6h-.3L1017,363.5l-9.2-5.8,15.3-19.7v-.3l-23.9,3.1v-11l23.7,3.1v-.3l-15.2-19.7,9.8-5.6,10,22.4h.3l9.8-22.6Z"
          fill="#fff" />
      </g>
      <g id="Group_655">
        <path id="Path_190"
          d="M1124.1,312.5l-15.3,20.2v.3l24.4-3.2v11l-24.4-2.9v.3l15.5,19.4-10.2,5.8-9.7-22.6h-.3l-10.5,22.7-9.2-5.8,15.3-19.7v-.3l-23.9,3.1v-11l23.7,3.1v-.3l-15.2-19.7,9.8-5.6,10,22.4h.3l9.8-22.6Z"
          fill="#fff" />
      </g>
    </g>
  </g>
  <g id="Group_687">
    <g id="Group_658">
      <path id="Path_191"
        d="M813.5,1188.5l-49.8,25.2a9.2,9.2,0,0,1-1-5.4,8.884,8.884,0,0,1,3.7-5.2,63.189,63.189,0,0,1,5.6-3.3,33.685,33.685,0,0,0,11.5-10.7c1.5-2.3,2.8-4.8,4.7-6.8l13.8-6.5a16.513,16.513,0,0,1,7.3,5.5A28.881,28.881,0,0,1,813.5,1188.5Z"
        fill="#010102" />
    </g>
    <g id="Group_659">
      <path id="Path_192"
        d="M862.4,1213.7H806.6a8.039,8.039,0,0,1,1.6-5.2,9.115,9.115,0,0,1,5.6-3,47.26,47.26,0,0,1,6.5-.4,34.751,34.751,0,0,0,15.1-4.4,51.763,51.763,0,0,1,7.3-4l15.2.4a17.242,17.242,0,0,1,4.1,8.2A33.845,33.845,0,0,1,862.4,1213.7Z"
        fill="#010102" />
    </g>
    <g id="Group_667">
      <g id="Group_660">
        <path id="Path_193" d="M838.6,1022.1" fill="#050f64" />
      </g>
      <g id="Group_661" opacity="0">
        <path id="Path_194" d="M831.1,905.3" fill="#050f64" />
      </g>
      <g id="Group_666">
        <g id="Group_662">
          <path id="Path_195" d="M838.6,1022.1" fill="#050f64" />
        </g>
        <g id="Group_663">
          <path id="Path_196" d="M838.6,1022.1" fill="#050f64" />
        </g>
        <g id="Group_664">
          <path id="Path_197"
            d="M713.8,1027.7l72.3,155.5,18.2-7.4-46.1-145L795.5,972,839,1198l19.7.2L858,909.3c.4-2.8-119.2-9.9-119.2-9.9l-26.1,117.4h0A21.3,21.3,0,0,0,713.8,1027.7Z"
            fill="#f7882f" />
        </g>
        <g id="Group_665" opacity="0">
          <path id="Path_198" d="M838.6,1022.1" fill="#050f64" />
        </g>
      </g>
    </g>
    <g id="Group_670">
      <g id="Group_668">
        <path id="Path_199"
          d="M678.6,897.7c4.8-6.6,9.7-12.7,14.4-18.9,1.2-1.5,2.3-3.1,3.4-4.7s2.3-3.1,3.4-4.7l3.3-4.7,1.6-2.4,1.5-2.4a292.163,292.163,0,0,0,21.6-40.1c2.9-7,5.9-13.9,8.3-21.1l1.9-5.3c.3-.9.7-1.8.9-2.7l.8-2.7,3.3-10.9a27.592,27.592,0,0,0,.8-2.7l.7-2.8,1.4-5.5,1.4-5.5.7-2.7.4-1.4.3-1.4,2.4-11.1c.8-3.7,1.6-7.4,2.2-11.2a15.509,15.509,0,0,1,8.3-10.8,21.414,21.414,0,0,1,15.1-2,19.484,19.484,0,0,1,12.4,8.5,17.32,17.32,0,0,1,2,14.2c-1.2,3.9-2.7,7.7-4.1,11.5l-4.3,11.5-.5,1.4-.6,1.4-1.2,2.8L778,777l-2.4,5.6-1.2,2.8c-.4.9-.9,1.9-1.3,2.8l-5.3,11.1-1.3,2.8c-.4.9-1,1.8-1.4,2.7l-2.9,5.4c-3.7,7.3-8.1,14.3-12.3,21.3a330.372,330.372,0,0,1-29.3,39.2l-2,2.3-2.1,2.2-4.1,4.4c-1.4,1.5-2.8,2.9-4.2,4.3s-2.8,2.9-4.2,4.3c-5.7,5.6-11.5,11-16.8,16.4-1.7,1.8-5,1.9-7.3,0h0a4.854,4.854,0,0,1-1.4-6.7C678.5,897.8,678.6,897.8,678.6,897.7Z"
          fill="#ea8096" />
      </g>
      <g id="Group_669">
        <path id="Path_200" d="M783.7,804.2l13-50.1c3.9-15.1-4-30.8-19.2-34.7h0c-15.1-3.9-31.8,5.3-35.7,20.5l-13,50.1Z"
          fill="#fff" />
      </g>
    </g>
    <g id="Group_671">
      <path id="Path_201"
        d="M811.2,705.7h0a52.355,52.355,0,0,0-60,43.3c-.2,1.4-.4,2.8-.5,4.3L738.8,899.4c46.9,27,76.2,20.9,120,9.9L865,771.9A64.146,64.146,0,0,0,811.2,705.7Z"
        fill="#fff" />
    </g>
    <g id="Group_672">
      <path id="Path_202"
        d="M855.3,735a62.494,62.494,0,0,1,7.9,18.6l1.5-.5a68.494,68.494,0,0,0-8-18.9ZM848,912l.4,1.6c3.5-.8,7.1-1.7,10.9-2.7l1.2-.3,1.6-35.9-1.6-.2-1.6,34.9C855.1,910.2,851.5,911.1,848,912ZM737.1,900.3l.9.5A162.263,162.263,0,0,0,763.6,913l.3-1.7a164.077,164.077,0,0,1-25-12l7-85.8-1.6-.1Zm78.8,17.6c-4.2.4-8.4.7-12.6.7v1.6a118.659,118.659,0,0,0,13.3-.8Zm46.5-89.4H864l1.5-33-1.6.2ZM747,779.1l1.6.4,2.1-26.1a52.162,52.162,0,0,1,52-48.3c1.3,0,2.7.1,4,.1v-1.6c-1.2-.1-2.4-.1-3.5-.1A54.051,54.051,0,0,0,749,753.3Z"
        fill="#f7882f" />
    </g>
    <g id="Group_675">
      <g id="Group_673">
        <path id="Path_203" d="M711.4,773.4l10.4,47.3,4.7.3-10.4-47.3Z" fill="#f7882f" />
      </g>
      <g id="Group_674">
        <path id="Path_204" d="M685,771.8l10.4,47.3,26.4,1.6-10.4-47.3Z" fill="#f7c331" />
      </g>
    </g>
    <g id="Group_679">
      <g id="Group_676">
        <path id="Path_205"
          d="M698.1,790.3a5.658,5.658,0,0,1,7.4,1.8,228.588,228.588,0,0,0,14.6,20.4c2.6,3.2,5.3,6.3,8,9.2a108.546,108.546,0,0,0,8.6,8,55.059,55.059,0,0,0,9.1,6,15.952,15.952,0,0,0,2.3,1l1.1.4.6.2.6.2a29.787,29.787,0,0,0,4.3.9,17.235,17.235,0,0,0,7.8-1.1c1.2-.5,2.5-1.1,3.8-1.8,1.3-.8,2.6-1.7,3.8-2.6a55.225,55.225,0,0,0,7.3-7.2c2.4-2.9,4.6-5.9,6.7-9A161.874,161.874,0,0,0,795.8,796c3.6-7.3,7-14.8,10.1-22.4,3.2-7.6,6.2-15.4,9.1-23.3a18.521,18.521,0,0,1,10.5-10.4,19.979,19.979,0,0,1,26,11.2h0a18.984,18.984,0,0,1-.8,15.3c-4.1,7.8-8.4,15.5-12.9,23.2s-9.2,15.3-14.3,22.8a225.21,225.21,0,0,1-16.9,22,141.5,141.5,0,0,1-10.2,10.3,79.655,79.655,0,0,1-12.4,9.2,63.842,63.842,0,0,1-7.4,3.7,49.439,49.439,0,0,1-8.3,2.5,37.825,37.825,0,0,1-8.9.8,43.356,43.356,0,0,1-8.8-1.2,47.967,47.967,0,0,1-8-2.9l-.9-.4-.9-.5-1.8-1c-1.1-.7-2.3-1.4-3.3-2.1a74.931,74.931,0,0,1-11.2-9.8,101.162,101.162,0,0,1-8.8-10.8c-2.7-3.7-5.1-7.5-7.4-11.3-4.6-7.6-8.6-15.5-12.4-23.3a5.424,5.424,0,0,1,2.2-7.3Z"
          fill="#f5bdc8" />
      </g>
      <g id="Group_677">
        <path id="Path_206" d="M832.7,824.1l21.6-47c6.5-14.2,1.5-31-12.7-37.5h0c-14.2-6.5-32.2-.3-38.7,13.9l-21.6,47Z"
          fill="#fff" />
      </g>
      <g id="Group_678">
        <path id="Path_207"
          d="M799.3,757.5c.4.2.9.4,1.4.6l2.1-4.7a42.548,42.548,0,0,1,2.7-4.6l-1.1-.9a30.088,30.088,0,0,0-2.9,4.9Zm21.3,62.7,12.9,5.9,6.6-14.3-1.2-.9-6.1,13.2-11.6-5.3Zm30-35.1-7.9,17.2,1.4.5,8.1-17.7Zm-33.3-47.2,1.3,1.1a29.62,29.62,0,0,1,23,.6,26.129,26.129,0,0,1,13.1,13.1l1.2-.9a28.3,28.3,0,0,0-13.7-13.6,30.822,30.822,0,0,0-12.7-2.7A31.964,31.964,0,0,0,817.3,737.9Zm-32.1,50.3,1.2,1,5.5-11.9-1.3-.7Zm10.3,20.4,11.8,5.4.4-1.4-11.5-5.3Z"
          fill="#f7882f" />
      </g>
    </g>
    <g id="Group_686">
      <g id="Group_684">
        <g id="Group_680">
          <path id="Path_208" d="M789,691.5l4.4,37.2c8.7,4.3,16.8,3.3,24.2-2.9l-4.4-37.2Z" fill="#f5bdc8" />
        </g>
        <g id="Group_681">
          <path id="Path_209"
            d="M789,691.5l2,16.8a17.524,17.524,0,0,0,5.6.6c.6,0,1.2-.1,1.8-.1a21.785,21.785,0,0,0,16-10.2l-1.2-10Z"
            fill="#ea8096" />
        </g>
        <g id="Group_682">
          <path id="Path_210"
            d="M775.3,670l2.4,15.5,1,6.3a17.431,17.431,0,0,0,17.8,14.7,19.164,19.164,0,0,0,8.2-2.1,9.495,9.495,0,0,0,1.7-1,3.592,3.592,0,0,0,1-.7,18.927,18.927,0,0,0,6.8-9.2c1.1-3.2,2.1-6.7,3-10.3.5-2.1,1-4.2,1.5-6.4a26.446,26.446,0,0,0-8.7-26c-6.5-5.3-13.9-6.4-22.4-2.7A20.123,20.123,0,0,0,775.3,670Z"
            fill="#f5bdc8" />
        </g>
        <g id="Group_683">
          <path id="Path_211"
            d="M806.7,676.2l-2.8-1.3s4.7-11.3,2.8-15c-2.8-5.2-16.4-5.8-23.1-3.9-2.1.6-3.7,1.4-4.5,3.5a48.728,48.728,0,0,0-2,22.1s-10-26.1-1.9-40.3c5.3-9.3,10.2-15.8,22.4-10.5,19.4,8.4,30.1,23.8,27.1,46.7l-12.8-4.7Z"
            fill="#494949" />
        </g>
      </g>
      <g id="Group_685">
        <ellipse id="Ellipse_19" cx="9.1" cy="8.1" rx="9.1" ry="8.1"
          transform="translate(805.584 669.708) rotate(-6.719)" fill="#f5bdc8" />
      </g>
    </g>
  </g>
</svg>