<svg id="intro_image_one" xmlns="http://www.w3.org/2000/svg" width="1250" height="1250" viewBox="0 0 1250 1250">
  <g id="Group_43">
    <g id="Group_42">
      <g id="Group_32">
        <g id="Group_19">
          <g id="Group_18">
            <g id="Group_17">
              <path id="Path_34"
                d="M1153.1,301.4V838.6H92.7V301.4A41.312,41.312,0,0,1,134,260.1h977.9A41.291,41.291,0,0,1,1153.1,301.4Z"
                fill="#f7882f" />
            </g>
          </g>
        </g>
        <g id="Group_22">
          <g id="Group_21">
            <g id="Group_20">
              <rect id="Rectangle_2" width="924.4" height="510.5" transform="translate(160.7 328.1)" fill="#fff" />
            </g>
          </g>
        </g>
        <g id="Group_25">
          <g id="Group_24">
            <g id="Group_23">
              <path id="Path_35" d="M129.8,297.2V801.4H1116V297.2Z" fill="#fff" />
            </g>
          </g>
        </g>
        <g id="Group_28">
          <g id="Group_27">
            <g id="Group_26">
              <path id="Path_36" d="M860.4,1097.6,806,1034.5h0V980.8H439.8v53.7l-54.4,63.1Z" fill="#e5e6eb" />
            </g>
          </g>
        </g>
        <g id="Group_31" opacity="0.1">
          <g id="Group_30">
            <g id="Group_29">
              <path id="Path_37" d="M860.4,1097.6,806,1034.5h0V980.8H439.8v53.7l-54.4,63.1Z" fill="#050f64" />
            </g>
          </g>
        </g>
      </g>
      <g id="Group_35">
        <g id="Group_34">
          <g id="Group_33">
            <path id="Path_38"
              d="M1153.1,838.6v101a41.312,41.312,0,0,1-41.3,41.3H134a41.312,41.312,0,0,1-41.3-41.3v-101Z"
              fill="#e5e6eb" />
          </g>
        </g>
      </g>
      <g id="Group_38">
        <g id="Group_37">
          <g id="Group_36">
            <rect id="Rectangle_3" width="1060.4" height="37.1" transform="translate(92.7 801.5)" fill="#f7882f" />
          </g>
        </g>
      </g>
      <g id="Group_41">
        <g id="Group_40">
          <g id="Group_39">
            <circle id="Ellipse_1" cx="30.4" cy="30.4" r="30.4" transform="translate(592.5 879.3)" fill="#f7882f" />
          </g>
        </g>
      </g>
    </g>
  </g>
  <g id="Group_144">
    <g id="Group_46">
      <g id="Group_45">
        <g id="Group_44">
          <path id="Path_39"
            d="M235.6,1095.2C152.8,1060.2,90,981.4,74.2,892.9c-7.4-41.7-4.4-86.7,16.8-123.4s62.9-63,105-58.2c43.7,5,77.6,40.3,102.4,76.6s45.6,77,80.6,103.8c24.3,18.5,53.6,28.9,82.1,39.8s57.5,23,79.6,44c60.8,57.6,23.3,128.7-51.2,124.5C400.8,1095.1,324.3,1132.7,235.6,1095.2Z"
            fill="#f7c331" />
        </g>
      </g>
    </g>
    <g id="Group_143">
      <g id="Group_142">
        <g id="Group_54">
          <g id="Group_50">
            <g id="Group_49">
              <g id="Group_48">
                <g id="Group_47">
                  <path id="Path_40"
                    d="M562.9,867a7.154,7.154,0,0,0-6.5-7.4c-11.1-1.2-22.2-2.4-33.2-3.9s-21.9-3.2-32.4-5.4a178,178,0,0,1-30.3-8.8,112.985,112.985,0,0,1-25.9-14.3c-15.5-11.7-28.2-28-40-45.8-1.5-2.3-2.9-4.4-4.4-6.7l-4.3-6.8c-2.8-4.7-5.6-9.3-8.4-14-5.5-9.4-10.9-19.1-16.3-28.8a25.075,25.075,0,1,0-43.3,25.3l1.2,1.8c6.8,9.1,13.6,18.2,20.7,27.3,3.5,4.5,7.2,9.1,10.8,13.6l5.6,6.7c1.8,2.2,3.8,4.5,5.7,6.7A305.682,305.682,0,0,0,387,832.3a164.461,164.461,0,0,0,30.3,22.1A141.309,141.309,0,0,0,452.2,868a210.577,210.577,0,0,0,35.3,5.4c11.6.9,23,1.1,34.4,1.1s22.6-.2,33.9-.5A7.387,7.387,0,0,0,562.9,867Z"
                    fill="#ea8096" />
                </g>
              </g>
            </g>
          </g>
          <g id="Group_53">
            <g id="Group_52">
              <g id="Group_51">
                <path id="Path_41"
                  d="M349.6,806.3l-31.8-47.4c-9.6-14.3-7.1-33.5,7.2-43.1h0c14.3-9.6,35-6.1,44.7,8.2l31.8,47.4Z"
                  fill="#ff654f" />
              </g>
            </g>
          </g>
        </g>
        <g id="Group_78">
          <g id="Group_64">
            <g id="Group_57">
              <g id="Group_56">
                <g id="Group_55">
                  <path id="Path_42"
                    d="M470.9,902.9l.2.1a29.144,29.144,0,0,1-23.4,53.1l-1.7-.6a35.4,35.4,0,0,1-3.4-1.6,29.152,29.152,0,0,1,25.8-52.2h0C469.2,902.1,470,902.5,470.9,902.9Z"
                    fill="#ea8096" />
                </g>
              </g>
            </g>
            <g id="Group_60" opacity="0">
              <g id="Group_59">
                <g id="Group_58">
                  <path id="Path_43" d="M456.8,928.5" fill="#84a9ff" />
                </g>
              </g>
            </g>
            <g id="Group_63">
              <g id="Group_62">
                <g id="Group_61">
                  <path id="Path_44" d="M471,903l-23.4,53.1,229.2,71.1,4.1-13.6Z" fill="#ea8096" />
                </g>
              </g>
            </g>
          </g>
          <g id="Group_74">
            <g id="Group_67">
              <g id="Group_66">
                <g id="Group_65">
                  <path id="Path_45" d="M469.2,897.8l-19.1,62.5c-46.9,2.5-142.6-14.4-178.4-46.3l39.8-63.7Z"
                    fill="#050f64" />
                </g>
              </g>
            </g>
            <g id="Group_70">
              <g id="Group_69">
                <g id="Group_68">
                  <circle id="Ellipse_2" cx="38.2" cy="38.2" r="38.2" transform="translate(259.6 847.8)"
                    fill="#050f64" />
                </g>
              </g>
            </g>
            <g id="Group_73" opacity="0">
              <g id="Group_72">
                <g id="Group_71">
                  <path id="Path_46" d="M297.8,886" fill="#155bcd" />
                </g>
              </g>
            </g>
          </g>
          <g id="Group_77">
            <g id="Group_76">
              <g id="Group_75">
                <path id="Path_47"
                  d="M701.4,986.6a8.587,8.587,0,0,0-4.3,4.1,38.272,38.272,0,0,0-2.2,5.6,31.847,31.847,0,0,1-8.4,12.1,56.806,56.806,0,0,0-5.7,5.3l-4.1,13.6a16.706,16.706,0,0,0,6.1,6,31.933,31.933,0,0,0,7.2,2.9l2.8.9,16.5-49.4-2.8-.9h0A7.443,7.443,0,0,0,701.4,986.6Z"
                  fill="#f7882f" />
              </g>
            </g>
          </g>
        </g>
        <g id="Group_81">
          <g id="Group_80">
            <g id="Group_79">
              <path id="Path_48"
                d="M309.6,704.6h0a71.047,71.047,0,0,1,72.3,69.8,61.662,61.662,0,0,1-.6,10.5l-11.4,93.6c-30.9,12.2-78.6,36-114.7,26.6l-3-136.1a58.662,58.662,0,0,1,52.6-64.1A38.683,38.683,0,0,1,309.6,704.6Z"
                fill="#ff654f" />
            </g>
          </g>
        </g>
        <g id="Group_84">
          <g id="Group_83">
            <g id="Group_82">
              <path id="Path_49"
                d="M253.5,832.6l-1.9.1,1.5,65.9H255Zm122.6,10.8-1.9-.4-4.3,35.5c-29.6,11.7-74.7,34.1-110.2,27.6l-.1,1.9c30.9,5.5,69-10.4,97.1-22,4.9-2,9.6-4,13.9-5.7l1.1-.4Zm5.2-58.5-2.5,20.4,1.9-.1,2.5-20.1a72.9,72.9,0,0,0-16.3-56.4l-2,.7a71.194,71.194,0,0,1,16.4,55.5Zm-53.4-78.3a69.082,69.082,0,0,1,20,8.4l.9-1.8a74.672,74.672,0,0,0-20.4-8.5,71.622,71.622,0,0,0-16-2.1l-.2,1.9a83.452,83.452,0,0,1,15.7,2.1Zm-50.7,6.1a60.3,60.3,0,0,0-27,56.4l.7,31.1h1.9l-.7-31.2a58.661,58.661,0,0,1,26.3-54.8Z"
                fill="#da5544" />
            </g>
          </g>
        </g>
        <g id="Group_100">
          <g id="Group_87">
            <g id="Group_86">
              <g id="Group_85">
                <path id="Path_50" d="M337.2,688.2l-8.3,34c-10.7,3.5-19.9,1.1-27.5-7.3l8.3-34Z" fill="#f5bdc8" />
              </g>
            </g>
          </g>
          <g id="Group_90">
            <g id="Group_89">
              <g id="Group_88">
                <path id="Path_51"
                  d="M334.7,698.6l-.9,3.9a32.1,32.1,0,0,1-15.4.5c-.3-.1-.6-.1-.9-.2a18.1,18.1,0,0,1-11.1-8l2.3-10Z"
                  fill="#ea8096" />
              </g>
            </g>
          </g>
          <g id="Group_93">
            <g id="Group_92">
              <g id="Group_91">
                <path id="Path_52"
                  d="M359.1,651.6,352,676l-1.6,5.4A26.894,26.894,0,0,1,318.9,700a14.925,14.925,0,0,1-4-1.5,4.194,4.194,0,0,1-1.4-.9c-.1-.1-.2-.1-.3-.2a12.759,12.759,0,0,1-4.3-4.9,46.433,46.433,0,0,1-4.4-13,74.733,74.733,0,0,1-1.7-11.4,33.369,33.369,0,0,1,1.6-13.3l3.9-16.9,45.5,1.2Z"
                  fill="#f5bdc8" />
              </g>
            </g>
          </g>
          <g id="Group_96">
            <g id="Group_95">
              <g id="Group_94">
                <path id="Path_53"
                  d="M350.8,690.3s2.6-14.7,3.5-22h0c.8-6.9.4-13.7-4.6-13.8-10.3-.2-12.4-9-12.4-9,0-.1,0-.1.1-.2a55.34,55.34,0,0,0-9.1-.2c-15.6,1-16.9-3.2-18.3-5.9-6,10.7-7.2,25.6-7.3,26.9v.1h0a14.767,14.767,0,0,0,.1,2.1,89.633,89.633,0,0,0,1.7,11.4,52.258,52.258,0,0,0,3.2,10.4l-.6,2.3c-9.8-3.9-21-17.6-22.2-27.3-4.5-36.1,17.8-52.9,45-53.2C353.5,611.7,362,635,363,655,363.5,667,353.8,687.9,350.8,690.3Z"
                  fill="#272728" />
              </g>
            </g>
          </g>
          <g id="Group_99">
            <g id="Group_98">
              <g id="Group_97">
                <path id="Path_54" d="M312.4,662.2a10.3,10.3,0,1,1-7.3-12.6h0a10.279,10.279,0,0,1,7.3,12.6Z"
                  fill="#f5bdc8" />
              </g>
            </g>
          </g>
        </g>
        <g id="Group_117">
          <g id="Group_110">
            <g id="Group_103">
              <g id="Group_102">
                <g id="Group_101">
                  <path id="Path_55"
                    d="M473.8,912.6l.2.2A29.194,29.194,0,0,1,440.1,960l-1.5-.9c-1-.7-2-1.5-3-2.3A29.2,29.2,0,0,1,471.7,911h0C472.4,911.5,473.1,912,473.8,912.6Z"
                    fill="#f5bdc8" />
                </g>
              </g>
            </g>
            <g id="Group_106" opacity="0">
              <g id="Group_105">
                <g id="Group_104">
                  <path id="Path_56" d="M454.8,934.7" fill="#84a9ff" />
                </g>
              </g>
            </g>
            <g id="Group_109">
              <g id="Group_108">
                <g id="Group_107">
                  <path id="Path_57" d="M474,912.8l-33.9,47.1,209.4,117,6.9-12.5Z" fill="#f5bdc8" />
                </g>
              </g>
            </g>
          </g>
          <g id="Group_113">
            <g id="Group_112">
              <g id="Group_111">
                <path id="Path_58"
                  d="M299.3,880.5h0a38.214,38.214,0,0,0-29.4,69.1h0c.1,0,.1.1.2.1.9.6,1.9,1.2,2.8,1.7,42,24.2,123,27.2,167.8,17.6l21.6-66.4Z"
                  fill="#f7882f" />
              </g>
            </g>
          </g>
          <g id="Group_116">
            <g id="Group_115">
              <g id="Group_114">
                <path id="Path_59"
                  d="M682.1,1042.2a8.274,8.274,0,0,0-5,3.1,55.032,55.032,0,0,0-3.4,5,32.331,32.331,0,0,1-10.7,10.1c-2.2,1.3-4.6,2.3-6.6,4l-6.9,12.4a16.127,16.127,0,0,0,4.7,7.1,28.217,28.217,0,0,0,6.5,4.3l2.6,1.5,26.3-44.9-2.6-1.5h0A9.292,9.292,0,0,0,682.1,1042.2Z"
                  fill="#f7882f" />
              </g>
            </g>
          </g>
        </g>
        <g id="Group_130">
          <g id="Group_121">
            <g id="Group_120">
              <g id="Group_119">
                <g id="Group_118">
                  <rect id="Rectangle_4" width="5.7" height="169"
                    transform="matrix(0.221, -0.975, 0.975, 0.221, 368.595, 882.6)" fill="#155bcd" />
                </g>
              </g>
            </g>
          </g>
          <g id="Group_125">
            <g id="Group_124">
              <g id="Group_123">
                <g id="Group_122">
                  <path id="Path_60" d="M534.6,914.3,432.2,891.2l50.6-76.6,102.3,23.1Z" fill="#f7c331" />
                </g>
              </g>
            </g>
          </g>
          <g id="Group_129">
            <g id="Group_128">
              <g id="Group_127">
                <g id="Group_126">
                  <path id="Path_61"
                    d="M512.8,873.1c-4,8.1-9.7,13.5-12.7,12s-2.2-9.3,1.8-17.4,9.7-13.5,12.7-12C517.6,857.1,516.8,864.9,512.8,873.1Z"
                    fill="#fff" />
                </g>
              </g>
            </g>
          </g>
        </g>
        <g id="Group_141">
          <g id="Group_134">
            <g id="Group_133">
              <g id="Group_132">
                <g id="Group_131">
                  <path id="Path_62"
                    d="M492.3,917.5a7.25,7.25,0,0,0-5.2-8.3c-10.8-2.9-21.6-5.9-32.2-9.1s-21.1-6.6-31.2-10.4a195.039,195.039,0,0,1-28.5-13.4,111.456,111.456,0,0,1-23.4-18.2c-13.5-14-23.4-32.1-32.3-51.5-1.1-2.5-2.2-4.8-3.3-7.3l-3.2-7.4c-2-5-4.1-10-6.1-15.2-4-10.2-7.8-20.6-11.6-31a25.042,25.042,0,1,0-46.7,18.1c.3.7.6,1.3.9,2,5.3,10.1,10.6,20.1,16.1,30.2,2.7,5,5.6,10.1,8.5,15.1l4.5,7.5c1.5,2.5,3.1,5,4.6,7.5a300.527,300.527,0,0,0,20.7,29.5,174.74,174.74,0,0,0,26.4,26.6,140.148,140.148,0,0,0,32.4,18.9,213.649,213.649,0,0,0,34,10.9c11.3,2.7,22.6,4.7,33.8,6.5s22.4,3.3,33.6,4.8A7.313,7.313,0,0,0,492.3,917.5Z"
                    fill="#f5bdc8" />
                </g>
              </g>
            </g>
          </g>
          <g id="Group_137">
            <g id="Group_136">
              <g id="Group_135">
                <path id="Path_63"
                  d="M291.1,824.1l-24-51.8c-7.3-15.7-1.7-34.2,13.9-41.5h0c15.7-7.3,35.6-.5,42.8,15.2l24,51.8Z"
                  fill="#ff654f" />
              </g>
            </g>
          </g>
          <g id="Group_140">
            <g id="Group_139">
              <g id="Group_138">
                <path id="Path_64"
                  d="M280.3,729.1a30.647,30.647,0,0,0-14.1,13l1.6,1A29.115,29.115,0,0,1,281,730.8a33.934,33.934,0,0,1,15.1-2.9l.5-1.9A32.8,32.8,0,0,0,280.3,729.1Zm60.4,48.7-1.5,1.3,8.7,18.7-14.8,6.9.8,1.7,16.5-7.7Zm-26.2-45.7-1.5,1.3a30.416,30.416,0,0,1,10.8,12.5l6.8,14.7,1.4-1.5-6.5-13.9a31.807,31.807,0,0,0-11-13.1Zm-23.4,92-5.4-11.7-1.9.4,6.4,13.8,32.6-15.1-1.7-1.3Zm-27-63.7-2-.6a36.171,36.171,0,0,0,3.3,13.3l11.5,24.8,1.9-.4-11.7-25.2a30.749,30.749,0,0,1-3-11.9Z"
                  fill="#da5544" />
              </g>
            </g>
          </g>
        </g>
      </g>
    </g>
  </g>
  <g id="Group_147">
    <g id="Group_146">
      <g id="Group_145">
        <path id="Path_65"
          d="M1202.9,1104.8a7.149,7.149,0,0,1-7.1,7.2H54.3a7.2,7.2,0,1,1,0-14.4H1195.7a7.17,7.17,0,0,1,7.2,7.2Z"
          fill="#f7882f" />
      </g>
    </g>
  </g>
  <g id="Group_157">
    <g id="Group_150">
      <g id="Group_149">
        <g id="Group_148">
          <path id="Path_66"
            d="M557.2,699.2a128.276,128.276,0,0,0-146.5-36,9.362,9.362,0,0,0-5.1,12.4,9.548,9.548,0,0,0,12.3,5.2,108.166,108.166,0,0,1,67.4-4.9,109.761,109.761,0,0,1,57.5,35.6,9.694,9.694,0,0,0,5,3.1,9.435,9.435,0,0,0,8.4-2A9.591,9.591,0,0,0,557.2,699.2Z"
            fill="#fcdc95" />
        </g>
      </g>
    </g>
    <g id="Group_153">
      <g id="Group_152">
        <g id="Group_151">
          <path id="Path_67"
            d="M527,724.8a88.709,88.709,0,0,0-101.3-24.9,9.362,9.362,0,0,0-5.1,12.4,9.548,9.548,0,0,0,12.3,5.2,69.708,69.708,0,0,1,79.6,19.6,9.694,9.694,0,0,0,5,3.1,9.435,9.435,0,0,0,8.4-2A9.7,9.7,0,0,0,527,724.8Z"
            fill="#fcdc95" />
        </g>
      </g>
    </g>
    <g id="Group_156">
      <g id="Group_155">
        <g id="Group_154">
          <path id="Path_68"
            d="M481.6,740.9a20.42,20.42,0,0,0-35.4,8.3,19.813,19.813,0,0,0-.5,6.4,20.41,20.41,0,0,0,37.7,9.2,20.195,20.195,0,0,0-1.8-23.9Z"
            fill="#fcdc95" />
        </g>
      </g>
    </g>
  </g>
  <g id="Group_160" opacity="0.3">
    <g id="Group_159">
      <g id="Group_158">
        <path id="Path_69" d="M841.8,774.7s248.5-31.5,274.2-477.5H841.8Z" fill="#050f64" />
      </g>
    </g>
  </g>
  <g id="Group_163">
    <g id="Group_162">
      <g id="Group_161">
        <path id="Path_70"
          d="M1069.7,324.2c1.7,395.3-227.9,450.6-227.9,450.6s-19.3-4.6-46.7-20.9a284.074,284.074,0,0,1-41.4-30.1c-28.3-24.7-58.8-60.6-84.1-112.4a470.651,470.651,0,0,1-25-62.7c-3.1-9.7-6-19.8-8.8-30.3-3.6-14-6.9-28.7-9.7-44.3-7.9-43.6-12.4-93.2-12.2-150,0,0,71.7-19,68.2-79.4,0,0,27.1-11,69.2-19.4,10.7-2.1,22.3-4.1,34.8-5.6q12.15-1.5,25.2-2.4c9.8-.7,20-1.1,30.5-1.1,9,0,17.7.3,26.2.8,62.5,3.7,111.6,19.7,127.8,25.6,3.7,1.3,5.7,2.1,5.7,2.1-1.4,24.2,9.3,41.8,22.6,54.1C1044,317.4,1069.7,324.2,1069.7,324.2Z"
          fill="#e5e6eb" />
      </g>
    </g>
  </g>
  <g id="Group_166">
    <g id="Group_165">
      <g id="Group_164">
        <path id="Path_71"
          d="M841.8,739.3c-16.3-6.2-54.8-24.4-92.7-67.7C685.5,599,650.6,487.1,647.8,347.1c27.2-13.4,57.9-38.6,66.1-77.6,25.1-7.7,72.7-19.5,128-19.5s102.8,11.8,128,19.5c8.1,39,38.8,64.2,66.1,77.6-2.8,140-37.7,251.9-101.3,324.5C896.7,714.9,858.2,733.1,841.8,739.3Z"
          fill="#f7882f" />
      </g>
    </g>
  </g>
  <g id="Group_169">
    <g id="Group_168">
      <g id="Group_167">
        <path id="Path_72"
          d="M841.8,739.3a214.04,214.04,0,0,1-51-27.3c-7.8-5.7-15.4-11.8-22.6-18.2-7.2-6.5-14-13.4-20.6-20.5a367.41,367.41,0,0,1-34.9-46.6A415.353,415.353,0,0,1,686,574.9a528.735,528.735,0,0,1-32.5-111.8c-7-38.2-10.5-77-11.5-115.8l-.1-3.6,3.3-1.7c15.1-7.6,29-17.7,40.1-30.2a95.02,95.02,0,0,0,22.4-43.5l.8-3.6,3.5-1.1a468.556,468.556,0,0,1,64.1-14.7,407.967,407.967,0,0,1,131.4,0,468.554,468.554,0,0,1,64.1,14.7l3.5,1.1.8,3.6a95.02,95.02,0,0,0,22.4,43.5c11.1,12.5,25,22.6,40.1,30.2l3.3,1.7-.1,3.6c-1,38.8-4.5,77.6-11.5,115.8a528.734,528.734,0,0,1-32.5,111.8c-7.8,17.8-16.4,35.3-26.7,51.8A345.083,345.083,0,0,1,936,673.3c-6.6,7.1-13.4,14.1-20.6,20.5A246.422,246.422,0,0,1,892.8,712,210.53,210.53,0,0,1,841.8,739.3Zm0,0c17.8-7.4,34.3-17.6,49.5-29.3,7.6-5.9,14.8-12.2,21.8-18.8,6.9-6.6,13.4-13.7,19.7-20.9a346.845,346.845,0,0,0,32.8-47,408.328,408.328,0,0,0,24.9-51.6,541.78,541.78,0,0,0,29.7-110.5,795.387,795.387,0,0,0,9.8-114.3l3.2,5.3c-16.3-8-31.6-18.8-44-32.5a112.119,112.119,0,0,1-16-22.7,102.42,102.42,0,0,1-9.6-26.3l4.3,4.7a457.886,457.886,0,0,0-62.4-14.1,412.213,412.213,0,0,0-63.7-4.9,425,425,0,0,0-63.7,4.9,443.425,443.425,0,0,0-62.4,14.1l4.3-4.7a102.422,102.422,0,0,1-9.6,26.3,112.12,112.12,0,0,1-16,22.7c-12.5,13.7-27.7,24.4-44,32.5l3.2-5.3a809.95,809.95,0,0,0,9.8,114.3,529.445,529.445,0,0,0,29.8,110.5,445.351,445.351,0,0,0,24.9,51.6,346.845,346.845,0,0,0,32.8,47c6.3,7.2,12.7,14.3,19.7,20.9A279.982,279.982,0,0,0,792.4,710,216.117,216.117,0,0,0,841.8,739.3Z"
          fill="#f7c331" />
      </g>
    </g>
  </g>
  <g id="Group_202">
    <g id="Group_188">
      <g id="Group_172">
        <g id="Group_171">
          <g id="Group_170">
            <path id="Path_73"
              d="M990,977.8c-4.4-35.5-10.2-70.8-19.5-105.3-7.5-27.9-17.3-55.1-27-82.3,1.2,3.4-.3,10.1-.4,13.8-.1,4.9,0,9.9.1,14.8.2,9.5.7,19.1,1.5,28.6a477.723,477.723,0,0,0,19.5,101.2c4.4,14.2,9.4,28.1,15.1,41.8a84.664,84.664,0,0,0,3.7,10.7c1.6,3.7,7.3,12.1,8.5,3.8C992.6,996.1,991,986.5,990,977.8Zm-15.5-1.7a53.657,53.657,0,0,1,2.1,5.6Z"
              fill="#f7882f" />
          </g>
        </g>
      </g>
      <g id="Group_175">
        <g id="Group_174">
          <g id="Group_173">
            <path id="Path_74"
              d="M888,913.8c21.6-.4,44.9-.2,62.4,12.4,7.5,5.4,39.5,51.4,23.7,54.6-8.6,1.7-17.6-13.9-22.2-18.8A229.908,229.908,0,0,0,888,913.8Z"
              fill="#fcdc95" />
          </g>
        </g>
      </g>
      <g id="Group_178">
        <g id="Group_177">
          <g id="Group_176">
            <path id="Path_75"
              d="M1079,842.1q-16.05,50.4-32.1,100.7c-2.4,7.6-9,20.1-18.7,13.7-8.4-5.6-4.5-19.2-2.6-27.1,4.7-18.9,16.8-37.8,27.3-53.8,3.9-6,8.1-11.8,12.5-17.5C1069,853.7,1077.4,847.1,1079,842.1Z"
              fill="#f7c331" />
          </g>
        </g>
      </g>
      <g id="Group_181">
        <g id="Group_180">
          <g id="Group_179">
            <path id="Path_76"
              d="M1024.3,849.9c2.6-25.4,9.6-50,16.6-74.5-19.9,30.3-32.3,65.1-38.9,100.7s-7.6,72.1-5.9,108.3c.3,5.6.8,11.7,4.8,15.7,5.6,5.5,15.6,3.6,21.2-2,6.6-6.6,8.6-16.3,10.9-24.9,2.1-7.6,4.3-15.3,3.4-23.3-1.1-9.1-4.7-17.9-6.9-26.8a217.227,217.227,0,0,1-5.6-34A223.064,223.064,0,0,1,1024.3,849.9Z"
              fill="#fcdc95" />
          </g>
        </g>
      </g>
      <g id="Group_184">
        <g id="Group_183">
          <g id="Group_182">
            <path id="Path_77"
              d="M988.8,1006.8c8.1-.2,14.8-7.1,17.3-14.7,2.6-7.7,1.9-16,1-24.1a1114.374,1114.374,0,0,0-29-163.1q6.3,102.6,5.8,205.5C985,1008.1,987.7,1009.2,988.8,1006.8Z"
              fill="#f7c331" />
          </g>
        </g>
      </g>
      <g id="Group_187">
        <g id="Group_186">
          <g id="Group_185">
            <path id="Path_78"
              d="M1045.4,911.7c14.4-24.1,32.6-45.8,50.6-67.4q-21.9,57.9-43.7,115.9c-3.2,8.5-21.2,54.1-35.7,38.9-5.1-5.4.3-13.1,2.2-18.9,3.6-10.6,5.1-21.8,9-32.4A240.866,240.866,0,0,1,1045.4,911.7Z"
              fill="#f7882f" />
          </g>
        </g>
      </g>
    </g>
    <g id="Group_201">
      <g id="Group_192">
        <g id="Group_191">
          <g id="Group_190">
            <g id="Group_189">
              <path id="Path_79" d="M949.2,993.5l.6,5.1,13.2,99h76.3l13.2-99,.7-5.1Z" fill="#ff654f" />
            </g>
          </g>
        </g>
      </g>
      <g id="Group_196">
        <g id="Group_195">
          <g id="Group_194">
            <g id="Group_193">
              <rect id="Rectangle_5" width="121.4" height="21.2" transform="translate(940.5 972.3)" fill="#ff654f" />
            </g>
          </g>
        </g>
      </g>
      <g id="Group_200">
        <g id="Group_199">
          <g id="Group_198">
            <g id="Group_197">
              <path id="Path_80" d="M949.2,993.5l.6,5.1h102.7l.7-5.1Z" fill="#da5544" />
            </g>
          </g>
        </g>
      </g>
    </g>
  </g>
  <g id="Group_225">
    <g id="Group_205">
      <g id="Group_204">
        <g id="Group_203">
          <rect id="Rectangle_6" width="379.3" height="150.2" transform="translate(129.3 297.2)" fill="#f7c331" />
        </g>
      </g>
    </g>
    <g id="Group_224">
      <g id="Group_215">
        <g id="Group_208">
          <g id="Group_207">
            <g id="Group_206">
              <path id="Path_81" d="M299.7,412.5H285l-24.8-80.4h15.3l18.4,61.6,18.9-61.6h12.1Z" fill="#fff" />
            </g>
          </g>
        </g>
        <g id="Group_211">
          <g id="Group_210">
            <g id="Group_209">
              <path id="Path_82"
                d="M348.4,412.5H333.9V332.1h32.9c9.4,0,16.4,2.4,20.9,7.1a23.5,23.5,0,0,1,6.8,16.8c0,7.3-2.5,13.3-7.4,17.9s-11.1,6.8-18.7,6.8H348.3v31.8Zm0-44.3h17.1c4.5,0,7.9-1.1,10.3-3.3s3.5-5.1,3.5-8.8a12.106,12.106,0,0,0-3.3-8.5c-2.2-2.4-6.1-3.5-11.8-3.5H348.3v24.1Z"
                fill="#fff" />
            </g>
          </g>
        </g>
        <g id="Group_214">
          <g id="Group_213">
            <g id="Group_212">
              <path id="Path_83"
                d="M467,412.5H452.9l-30.5-51.4c-.5-.8-1.2-2.1-2.3-3.8-.5-.8-1.2-2-2.2-3.7v58.9H406.2V332.1h16l28.2,47.4q.3.6,5.1,8.7v-56H467Z"
                fill="#fff" />
            </g>
          </g>
        </g>
      </g>
      <g id="Group_223">
        <g id="Group_219">
          <g id="Group_218">
            <g id="Group_217">
              <g id="Group_216">
                <path id="Path_84"
                  d="M187.9,357.6v6.2h32.3v-6.2Zm16.2-25.1a25.223,25.223,0,0,0-25.2,25.2V373h19.8a9,9,0,0,1,10.8,0h19.8V357.7a25.223,25.223,0,0,0-25.2-25.2Zm-16.2,25.1a16.1,16.1,0,0,1,32.2,0Z"
                  fill="#fff" />
              </g>
            </g>
          </g>
        </g>
        <g id="Group_222">
          <g id="Group_221">
            <g id="Group_220">
              <path id="Path_85"
                d="M229.2,358.1a11.27,11.27,0,0,0-3.2-.5H182.1a11.27,11.27,0,0,0-3.2.5,11.04,11.04,0,0,0-7.9,10.6v32.6a11.139,11.139,0,0,0,11.1,11.1H226a11.139,11.139,0,0,0,11.1-11.1V368.7A11.04,11.04,0,0,0,229.2,358.1Zm-21.1,30.3V399H200V388.4a9.034,9.034,0,1,1,13-8.1,8.725,8.725,0,0,1-4.9,8.1Z"
                fill="#fff" />
            </g>
          </g>
        </g>
      </g>
    </g>
  </g>
  <g id="Group_231">
    <g id="Group_226">
      <circle id="Ellipse_3" cx="122.4" cy="122.4" r="122.4" transform="translate(450.4 75.6)" fill="#ffbd00" />
    </g>
    <g id="Group_227">
      <circle id="Ellipse_4" cx="101.6" cy="101.6" r="101.6" transform="translate(471.2 96.4)" fill="#dca000" />
    </g>
    <g id="Group_230">
      <g id="Group_228">
        <path id="Path_86" d="M572.8,202.6A44.427,44.427,0,0,0,528.4,247v14.8h88.8V247A44.427,44.427,0,0,0,572.8,202.6Z"
          fill="#fff" />
      </g>
      <g id="Group_229">
        <path id="Path_87" d="M572.8,193.7a30.9,30.9,0,1,0-30.9-30.9,30.856,30.856,0,0,0,30.9,30.9Z" fill="#fff" />
      </g>
    </g>
  </g>
  <g id="Group_237">
    <path id="Path_88"
      d="M910.3,445.7v-1.1a59.493,59.493,0,0,0-59.6-59.3c-32.8,0-59.6,26.6-59.6,59.3v1.1a26.161,26.161,0,0,0-18.7,25.1v76.9a26.247,26.247,0,0,0,26.3,26.2H902.6a26.247,26.247,0,0,0,26.3-26.2h0V470.8A25.951,25.951,0,0,0,910.3,445.7Zm-59.5-39.2a38.219,38.219,0,0,1,38.2,38H812.7a37.983,37.983,0,0,1,38-38Z"
      fill="#09090a" />
    <g id="Group_236">
      <g id="Group_233">
        <g id="Group_232">
          <path id="Path_89"
            d="M837.8,386.4c-32.8,0-59.6,26.6-59.6,59.3v36H825a21.789,21.789,0,0,1,12.8-4.2,21.12,21.12,0,0,1,12.8,4.2h46.8v-36A59.622,59.622,0,0,0,837.8,386.4Zm-38.2,59.4a38.2,38.2,0,1,1,76.4,0H799.6Zm0,0v14.7h76.3V445.8Z"
            fill="#505151" />
        </g>
      </g>
      <g id="Group_234">
        <path id="Path_90"
          d="M897.3,446.9a27.931,27.931,0,0,0-7.6-1.1H785.8a27.931,27.931,0,0,0-7.6,1.1A26.161,26.161,0,0,0,759.5,472v76.9a26.247,26.247,0,0,0,26.3,26.2H889.7A26.247,26.247,0,0,0,916,548.9h0V472A26.161,26.161,0,0,0,897.3,446.9Zm-50,71.4v25H828.2v-25a21.377,21.377,0,0,1-9.8-28.6,21.062,21.062,0,0,1,6.6-7.9,21.789,21.789,0,0,1,12.8-4.2,21.12,21.12,0,0,1,12.8,4.2,21.338,21.338,0,0,1-3.3,36.5Z"
          fill="#505151" />
      </g>
      <g id="Group_235">
        <path id="Path_91"
          d="M859.3,499.1a21.422,21.422,0,0,1-12,19.2v25H828.2v-25a21.377,21.377,0,0,1-9.8-28.6,21.062,21.062,0,0,1,6.6-7.9,21.789,21.789,0,0,1,12.8-4.2,21.12,21.12,0,0,1,12.8,4.2A21.41,21.41,0,0,1,859.3,499.1Z"
          fill="#050607" />
      </g>
    </g>
  </g>
  <g id="Group_242">
    <g id="Group_238">
      <path id="Path_92"
        d="M569.3,472.8A56.7,56.7,0,1,0,626,529.5,56.719,56.719,0,0,0,569.3,472.8Zm-19.9,67a10.4,10.4,0,1,1,10.4-10.4,10.457,10.457,0,0,1-10.4,10.4Z"
        fill="#ffbd00" />
    </g>
    <g id="Group_239">
      <path id="Path_93"
        d="M569.3,482.9a46.5,46.5,0,1,0,46.5,46.5,46.476,46.476,0,0,0-46.5-46.5Zm-19.9,56.9a10.4,10.4,0,1,1,10.4-10.4,10.457,10.457,0,0,1-10.4,10.4Z"
        fill="#dca000" />
    </g>
    <g id="Group_240">
      <path id="Path_94"
        d="M813.2,512.4l-20.4,31.9c-2.3,3.5-5.4,5.5-8.7,5.5H764.5V534.2h-5.9v13.2H746.8v-8.2H724.9v10.7H701V532.1H688v17.8H675.6V536.4h-24l-14.7,13.5H618.7V509H812.2C813.4,508.9,814,511.1,813.2,512.4Z"
        fill="#ffbd00" />
    </g>
    <g id="Group_241">
      <rect id="Rectangle_7" width="149.6" height="4.5" transform="translate(636.4 515.5)" fill="#dca000" />
    </g>
  </g>
</svg>