<svg xmlns="http://www.w3.org/2000/svg" width="496" height="496" viewBox="0 0 496 496">
  <g id="invite" transform="translate(-7.5 -7.5)">
    <g id="Group_688" data-name="Group 688">
      <path id="Path_212" data-name="Path 212" d="M465.5,224.5l-70.9-92.1a8.263,8.263,0,0,0-11-1.9l-45.8,29.1H278.1a9.256,9.256,0,0,0-2.3.4l-46.3,13.3-48-13.1-46.7-29.7a8.219,8.219,0,0,0-10.9,1.8L45.5,229.4a8.3,8.3,0,0,0,1,11.5l41.1,35.4L124.5,326a29.35,29.35,0,0,0,.6,40.8,28.811,28.811,0,0,0,17.8,8.4,34.013,34.013,0,0,0-.3,4.5A29.362,29.362,0,0,0,172,409h.3v.6a29.619,29.619,0,0,0,8.6,20.8,29.27,29.27,0,0,0,20.8,8.6,23.835,23.835,0,0,0,4.6-.4,29.61,29.61,0,0,0,8.4,17.9,29.236,29.236,0,0,0,20.7,8.6,29.637,29.637,0,0,0,20.8-8.6l4.5-4.5,1.9,1.5a29.357,29.357,0,0,0,49.7-21.6,28.977,28.977,0,0,0,21.2-8.6,29.377,29.377,0,0,0,8.6-21.2,28.972,28.972,0,0,0,21.2-8.6,29.377,29.377,0,0,0,8.6-21.2,28.977,28.977,0,0,0,21.2-8.6A29.432,29.432,0,0,0,397,327l26.9-56.4,40.5-34.8A8.246,8.246,0,0,0,465.5,224.5Zm-333.2-76,33.5,21.3-73,88.9L63.6,233.5ZM137,337l10.1-10.1a9.017,9.017,0,0,1,1-.9,12.722,12.722,0,0,1,6.9-2.8h1.3a12.571,12.571,0,0,1,9.1,4,13.093,13.093,0,0,1-.6,18.1L155,355a12.728,12.728,0,0,1-18-18Zm26,51.6a12.8,12.8,0,0,1,0-18L182.6,351a12.834,12.834,0,0,1,14.5-2.5,12.686,12.686,0,0,1,7,13.2,13.435,13.435,0,0,1-3.8,7.7L181,388.7a12.627,12.627,0,0,1-9,3.7A13.084,13.084,0,0,1,163,388.6Zm29.7,30a12.8,12.8,0,0,1,0-18L212.3,381a12.857,12.857,0,0,1,15.4-2,12.681,12.681,0,0,1,6.1,12.9,13.508,13.508,0,0,1-3.8,7.5l-19.3,19.3a12.675,12.675,0,0,1-18-.1Zm33.8,26.1a12.675,12.675,0,0,1,0-18l10.1-10.1a9.017,9.017,0,0,1,1-.9h0a13.088,13.088,0,0,1,5.6-2.6h.1a4.1,4.1,0,0,1,1.1-.1h1.3a12.571,12.571,0,0,1,9.1,4,3.915,3.915,0,0,1,.8,1,13.14,13.14,0,0,1-1.4,17.1l-9.8,9.8A12.927,12.927,0,0,1,226.5,444.7ZM381.4,352a12.675,12.675,0,0,1-18,0c-.2-.2-.4-.3-.6-.5l-53.4-54a8.273,8.273,0,0,0-11.8,11.6l54,54.5h0a12.728,12.728,0,0,1-18,18l-36.1-36.5a8.273,8.273,0,0,0-11.8,11.6l35.6,35.9.6.6a12.728,12.728,0,0,1-18,18l-19.7-19.9a8.273,8.273,0,0,0-11.8,11.6l19.2,19.4a4.349,4.349,0,0,1,.6.7,12.728,12.728,0,0,1-18,18,13.934,13.934,0,0,0-1.9-1.5c-.5-.4-.7-.7-.4-1.4s.7-1.3,1-1.9c.3-.7.5-1.5.8-2.3a30.727,30.727,0,0,0,1.1-12.8,29.059,29.059,0,0,0-24.8-25,29.6,29.6,0,0,0-7.1-26.7,29.093,29.093,0,0,0-20.9-9.2h-.9a29.181,29.181,0,0,0-28.8-30,28.129,28.129,0,0,0-7.1.8,29.261,29.261,0,0,0-48.5-17.4l-32.1-43.2,76.8-93.5,24.5,6.7-32,56.4A29.432,29.432,0,0,0,185,280c.4.2.9.5,1.3.7h.1a21.694,21.694,0,0,0,3.5,1.5A29.45,29.45,0,0,0,225,268.9l20.8-36.7,37.1,2.6,98.8,98.8A13.657,13.657,0,0,1,381.4,352Zm3.4-38.1-92.6-92.6c-.2-.2-.4-.3-.5-.5a8.156,8.156,0,0,0-4.7-1.9l-45.4-3.2a8.52,8.52,0,0,0-7.8,4.2l-23.4,41.2a12.527,12.527,0,0,1-7.7,6,12.658,12.658,0,0,1-9.7-1.2,12.527,12.527,0,0,1-6-7.7,12.658,12.658,0,0,1,1.2-9.7l31.2-55,12.6-3.6a.349.349,0,0,0,.2-.1l47.1-13.6h57l71.1,90.4Zm33.5-60.4-65.8-83.6,33.6-21.3,61.5,79.8Z"/>
      <path id="Path_213" data-name="Path 213" d="M300.3,144a8.407,8.407,0,0,0,5.9-2.4l56.7-56.7a8.273,8.273,0,0,0-11.7-11.7l-56.7,56.7a8.33,8.33,0,0,0,0,11.7A8.177,8.177,0,0,0,300.3,144Z"/>
      <path id="Path_214" data-name="Path 214" d="M204.8,141.5a8.237,8.237,0,0,0,5.9,2.4,8.583,8.583,0,0,0,5.9-2.4,8.33,8.33,0,0,0,0-11.7L159.9,73.1a8.273,8.273,0,1,0-11.7,11.7Z"/>
      <path id="Path_215" data-name="Path 215" d="M255.5,144a8.28,8.28,0,0,0,8.3-8.3v-47a8.3,8.3,0,0,0-16.6,0v46.9A8.3,8.3,0,0,0,255.5,144Z"/>
      <path id="Path_216" data-name="Path 216" d="M247.8,58.6a8.3,8.3,0,0,0,8.1,5.1,8.487,8.487,0,0,0,7.5-5.8,8.33,8.33,0,0,0-2.8-9.1,8.356,8.356,0,0,0-12.8,9.8Z"/>
    </g>
    <path id="Path_217" data-name="Path 217" d="M255.5,7.5c-137,0-248,111-248,248s111,248,248,248,248-111,248-248S392.5,7.5,255.5,7.5Zm0,467.7c-121.3,0-219.7-98.3-219.7-219.7S134.2,35.8,255.5,35.8s219.7,98.4,219.7,219.7S376.8,475.2,255.5,475.2Z"/>
  </g>
</svg>
