<svg xmlns="http://www.w3.org/2000/svg" width="496" height="496" viewBox="0 0 496 496">
  <g id="location" transform="translate(-8 -8)">
    <g id="Group_689" data-name="Group 689">
      <path id="Path_218" data-name="Path 218" d="M419.9,194.6a7.036,7.036,0,0,0-5.8-1.4L309.2,215.6l-11.8-2.5,31.1-62.2a.367.367,0,0,0,.1-.3,73.729,73.729,0,0,0,6.3-30,74.7,74.7,0,0,0-149.4,0,73.729,73.729,0,0,0,6.3,30c0,.1.1.2.1.3l22.2,44.4-9.9-2.1h-.3a.6.6,0,0,1-.4-.1h-1.6a.6.6,0,0,0-.4.1h-.3L95.1,216a6.84,6.84,0,0,0-5.4,6.7v56.7a6.9,6.9,0,0,0,13.8,0V228.3l92.6-19.8V362.8l-92.6,19.8V334.4a6.9,6.9,0,0,0-13.8,0v56.7a6.536,6.536,0,0,0,2.6,5.3,6.823,6.823,0,0,0,4.3,1.5,5.9,5.9,0,0,0,1.4-.2l104.9-22.4,104.9,22.4h.1c.2,0,.3.1.5.1h1.8a.9.9,0,0,0,.5-.1h.1l106.4-22.8a6.84,6.84,0,0,0,5.4-6.7V311.5a6.9,6.9,0,1,0-13.8,0v51.1l-92.6,19.8V228.3l92.6-19.8v48.2a6.9,6.9,0,0,0,13.8,0V200A7.128,7.128,0,0,0,419.9,194.6ZM199.4,120.7a60.9,60.9,0,1,1,121.8,0,59.506,59.506,0,0,1-5.1,24.3L260.2,256.9,204.5,145A59.851,59.851,0,0,1,199.4,120.7Zm10.4,87.8,12.3,2.6,32.1,64.2a6.9,6.9,0,0,0,6.1,3.8,7.051,7.051,0,0,0,6.2-3.8l24.7-49.4,11.2,2.4V382.6l-92.6-19.8V208.5Z" fill-rule="evenodd"/>
      <path id="Path_219" data-name="Path 219" d="M304.5,120.7a44.2,44.2,0,1,0-44.2,44.2A44.214,44.214,0,0,0,304.5,120.7Zm-74.7,0a30.5,30.5,0,1,1,30.5,30.5A30.557,30.557,0,0,1,229.8,120.7Z" fill-rule="evenodd"/>
      <path id="Path_220" data-name="Path 220" d="M96.5,313.8a6.9,6.9,0,1,0-6.9-6.9A6.914,6.914,0,0,0,96.5,313.8Z" fill-rule="evenodd"/>
      <path id="Path_221" data-name="Path 221" d="M415.6,277.3a6.9,6.9,0,1,0,6.9,6.9A6.914,6.914,0,0,0,415.6,277.3Z" fill-rule="evenodd"/>
    </g>
    <path id="Path_222" data-name="Path 222" d="M256,8C119,8,8,119,8,256S119,504,256,504,504,393,504,256,393,8,256,8Zm0,467.7C134.7,475.7,36.3,377.4,36.3,256S134.7,36.3,256,36.3,475.7,134.7,475.7,256,377.3,475.7,256,475.7Z"/>
  </g>
</svg>
