<svg xmlns="http://www.w3.org/2000/svg" width="511.975" height="509.11" viewBox="0 0 511.975 509.11">
  <g id="premium" transform="translate(0 -2.81)">
    <path id="Path_233" data-name="Path 233" d="M414.5,327.4l-55.1,36.5A40.456,40.456,0,0,0,324.7,344H276c-10.5,0-15.4-7.6-20.3-11.1-37.6-32.6-94.4-32.6-132,0l-10.6,9.2H10a10.029,10.029,0,0,0-10,10v120a10.029,10.029,0,0,0,10,10H113.8L293,511.8a10.006,10.006,0,0,0,7.5-1.8L507.9,358.9a10.023,10.023,0,0,0,2.2-13.9A70.388,70.388,0,0,0,414.5,327.4Zm-122.4,164L116.2,462.1a8.6,8.6,0,0,0-1.6-.1H20V362h96.8c6.1,0,7.8-4.3,20-14a81.267,81.267,0,0,1,105.8,0c4.2,2.8,14,16,33.4,16h48.7c10.9,0,20,8.6,20,19.4a19.848,19.848,0,0,1-20,19.6h-120a10,10,0,1,0,0,20h120c21.7,0,39.5-17.3,40-38.6l60.8-40.2a50.5,50.5,0,0,1,61.8,5.1Z" fill="#020202"/>
    <g id="Group_697" data-name="Group 697">
      <path id="Path_234" data-name="Path 234" d="M319.3,246.1a9.7,9.7,0,1,1-9.7-9.7A9.709,9.709,0,0,1,319.3,246.1Z" fill="#020202"/>
      <g id="Group_696" data-name="Group 696">
        <path id="Path_235" data-name="Path 235" d="M193,294.4H424.7a9.709,9.709,0,0,0,9.7-9.7V247L463.6,97.4a9.87,9.87,0,0,0-4.1-9.9,9.5,9.5,0,0,0-10.7,0l-78.9,52.6L317.3,61.2a9.592,9.592,0,0,0-16,0L248.7,140,169.9,87.4a9.5,9.5,0,0,0-10.7,0,9.7,9.7,0,0,0-4.2,9.8L183.3,247v37.7A9.774,9.774,0,0,0,193,294.4Zm53-132.9a9.594,9.594,0,0,0,13.4-2.7L309.3,84l49.9,74.8a9.755,9.755,0,0,0,13.4,2.7l67.6-45.1-23.4,120H353.3a9.7,9.7,0,1,0,0,19.4H415v19.3H202.7V255.8h63.7a9.7,9.7,0,1,0,0-19.4H201L178.3,116.3Z" fill="#020202"/>
        <path id="Path_236" data-name="Path 236" d="M150.1,95.9a17.7,17.7,0,0,1-2.3-.1,28.85,28.85,0,0,1-19.6-10,28.657,28.657,0,0,1,24.1-47.2,28.85,28.85,0,0,1,19.6,10,28.66,28.66,0,0,1-21.8,47.3Zm0-43A14.336,14.336,0,0,0,135.9,66a14.188,14.188,0,1,0,15.3-13.1Z"/>
        <path id="Path_237" data-name="Path 237" d="M469.2,97.3a17.7,17.7,0,0,1-2.3-.1,28.85,28.85,0,0,1-19.6-10A28.657,28.657,0,0,1,471.4,40,28.85,28.85,0,0,1,491,50a28.66,28.66,0,0,1-21.8,47.3Zm0-42.9A14.336,14.336,0,0,0,455,67.5a14.188,14.188,0,1,0,15.3-13.1Z"/>
        <path id="Path_238" data-name="Path 238" d="M308,60.3a17.7,17.7,0,0,1-2.3-.1A28.733,28.733,0,0,1,289.4,9.7a28.657,28.657,0,0,1,47.2,24.1h0a28.85,28.85,0,0,1-10,19.6A28.175,28.175,0,0,1,308,60.3Zm0-42.9a14.163,14.163,0,1,0,14.3,15.3h0a14.229,14.229,0,0,0-13.1-15.3Z"/>
      </g>
    </g>
  </g>
</svg>
