<svg xmlns="http://www.w3.org/2000/svg" width="496" height="496" viewBox="0 0 496 496">
  <g id="privacy_policy" transform="translate(-8 -8)">
    <g id="Group_699" data-name="Group 699">
      <g id="Group_698" data-name="Group 698">
        <path id="Path_239" data-name="Path 239" d="M189.8,237.2h26.3a4.6,4.6,0,1,0,0-9.2H189.8a4.6,4.6,0,0,0,0,9.2Z"/>
        <path id="Path_240" data-name="Path 240" d="M189.8,259.5h107a4.6,4.6,0,0,0,0-9.2h-107a4.6,4.6,0,1,0,0,9.2Z"/>
        <path id="Path_241" data-name="Path 241" d="M296.8,272.6H268.3a4.6,4.6,0,0,0,0,9.2h28.5a4.653,4.653,0,0,0,4.6-4.6A4.588,4.588,0,0,0,296.8,272.6Z"/>
        <path id="Path_242" data-name="Path 242" d="M400,122.9,340.5,93.1a10.8,10.8,0,0,0-9.6,0l-59.5,29.8h0a10.532,10.532,0,0,0-5.9,9.6v8.6H200.9a4.6,4.6,0,0,0,0,9.2h64.6v14a118.6,118.6,0,0,0,1.5,19.2H189.8a4.6,4.6,0,0,0,0,9.2h79.1a84.708,84.708,0,0,0,4.6,13.1H189.8a4.6,4.6,0,1,0,0,9.2h88.4c1.6,2.7,3.4,5.4,5.3,8,1.3,1.7,2.6,3.4,4,5.1h-53a4.6,4.6,0,0,0,0,9.2h61.8c8.7,8.2,19.6,16.2,33.8,24.9a10.6,10.6,0,0,0,11.2,0c.5-.3.9-.6,1.4-.9V373H222.4v-8.6a4.6,4.6,0,0,0-9.2,0v31a1.538,1.538,0,0,1-1.5,1.5H116.8a1.538,1.538,0,0,1-1.5-1.5V329a1.538,1.538,0,0,1,1.5-1.5h94.9a1.538,1.538,0,0,1,1.5,1.5v13.8a4.6,4.6,0,1,0,9.2,0V329a8.423,8.423,0,0,0-.4-2.7h74.8a4.6,4.6,0,0,0,0-9.2H207.6V304h89.2a4.6,4.6,0,0,0,0-9.2H207.4a44.25,44.25,0,0,0-3.3-13.1h47.6a4.6,4.6,0,1,0,0-9.2h-53a43.192,43.192,0,0,0-34.5-17.1,42.167,42.167,0,0,0-20.3,5.1V150.2h35.5a4.6,4.6,0,0,0,0-9.2h-37a7.7,7.7,0,0,0-7.7,7.7V267.1a43.313,43.313,0,0,0-13.9,31.8v19.4h-4A10.712,10.712,0,0,0,106.1,329v66.3A10.712,10.712,0,0,0,116.8,406h94.9a10.712,10.712,0,0,0,10.7-10.7V382.1H344.3a7.7,7.7,0,0,0,7.7-7.7V255.3c16.4-11,27.7-21.2,36-32.4,12.2-16.4,18.1-35.6,18.1-58.7V132.5a10.9,10.9,0,0,0-6.1-9.6ZM180,318.3H148.4V298.9a15.8,15.8,0,0,1,31.6,0v19.4Zm-50-19.4a34.2,34.2,0,1,1,68.4,0v19.4h-9.2V298.9a25,25,0,0,0-50,0v19.4H130ZM396.8,164.2c0,44.2-23.1,67.2-60.3,90a1.535,1.535,0,0,1-1.6,0c-37.2-22.8-60.3-45.8-60.3-90V132.5a1.6,1.6,0,0,1,.8-1.4l59.5-29.8a1.7,1.7,0,0,1,1.4,0l59.5,29.8a1.6,1.6,0,0,1,.8,1.4l.2,31.7Z"/>
        <path id="Path_243" data-name="Path 243" d="M335.4,124a46.5,46.5,0,1,0,43.8,62.1,4.618,4.618,0,1,0-8.7-3.1,37.276,37.276,0,1,1,1.6-19,4.571,4.571,0,0,0,9-1.6A46.189,46.189,0,0,0,335.4,124Z"/>
        <path id="Path_244" data-name="Path 244" d="M351.4,157.9,333.3,176l-10.5-10.5a4.6,4.6,0,0,0-6.5,6.5l13.8,13.8a4.446,4.446,0,0,0,3.3,1.3,4.872,4.872,0,0,0,3.3-1.3l21.4-21.4a4.587,4.587,0,0,0,0-6.5,4.83,4.83,0,0,0-6.7,0Z"/>
      </g>
    </g>
    <path id="Path_245" data-name="Path 245" d="M256,8C119,8,8,119,8,256S119,504,256,504,504,393,504,256,393,8,256,8Zm0,467.7C134.7,475.7,36.3,377.4,36.3,256S134.7,36.3,256,36.3,475.7,134.7,475.7,256,377.3,475.7,256,475.7Z"/>
  </g>
</svg>
