<svg xmlns="http://www.w3.org/2000/svg" width="511.938" height="512.1" viewBox="0 0 511.938 512.1">
  <path id="sel_home" d="M498.2,222.7h0L289.3,13.8a47.077,47.077,0,0,0-66.6,0L13.9,222.6l-.2.2a47.168,47.168,0,0,0,.1,66.6,46.655,46.655,0,0,0,31.3,13.7c.5,0,1,.1,1.5.1h8.3V456.9a55.246,55.246,0,0,0,55.2,55.2h81.7a14.98,14.98,0,0,0,15-15V376.5A25.223,25.223,0,0,1,232,351.3h48.2a25.223,25.223,0,0,1,25.2,25.2V497a14.98,14.98,0,0,0,15,15H402a55.246,55.246,0,0,0,55.2-55.2V303.1h7.7a46.743,46.743,0,0,0,33.3-13.8A47.259,47.259,0,0,0,498.2,222.7Z" transform="translate(0.013)" fill="#fff"/>
</svg>
