<svg xmlns="http://www.w3.org/2000/svg" width="511.975" height="509.11" viewBox="0 0 511.975 509.11">
  <g id="sel_premium" transform="translate(0 -1.41)">
    <path id="Path_246" data-name="Path 246" d="M414.5,325.9l-55.1,36.5a40.456,40.456,0,0,0-34.7-19.9H276c-10.5,0-15.4-7.6-20.3-11.1-37.6-32.6-94.4-32.6-132,0l-10.6,9.2H10a10.029,10.029,0,0,0-10,10v120a10.029,10.029,0,0,0,10,10H113.8L293,510.4a10.006,10.006,0,0,0,7.5-1.8L507.9,357.5a10.023,10.023,0,0,0,2.2-13.9C488.2,313.1,446.2,305.4,414.5,325.9Z" fill="#fff"/>
    <path id="Path_247" data-name="Path 247" d="M459.5,86.1a9.5,9.5,0,0,0-10.7,0l-78.9,52.6L317.3,59.8a9.592,9.592,0,0,0-16,0l-52.6,78.8L169.9,86a9.5,9.5,0,0,0-10.7,0,9.7,9.7,0,0,0-4.2,9.8l28.3,149.6v37.7a9.709,9.709,0,0,0,9.7,9.7H424.7a9.709,9.709,0,0,0,9.7-9.7V245.4L463.6,96A9.87,9.87,0,0,0,459.5,86.1ZM309.6,254.3a9.7,9.7,0,1,1,9.7-9.7A9.709,9.709,0,0,1,309.6,254.3Z" fill="#fff"/>
    <path id="Path_248" data-name="Path 248" d="M150.1,94.5a17.7,17.7,0,0,1-2.3-.1,28.85,28.85,0,0,1-19.6-10,28.657,28.657,0,0,1,24.1-47.2,28.85,28.85,0,0,1,19.6,10,28.66,28.66,0,0,1-21.8,47.3Z" fill="#fff"/>
    <path id="Path_249" data-name="Path 249" d="M469.2,95.9a17.7,17.7,0,0,1-2.3-.1,28.85,28.85,0,0,1-19.6-10,28.657,28.657,0,0,1,24.1-47.2,28.85,28.85,0,0,1,19.6,10,28.66,28.66,0,0,1-21.8,47.3Z" fill="#fff"/>
    <path id="Path_250" data-name="Path 250" d="M308,58.9a17.7,17.7,0,0,1-2.3-.1A28.733,28.733,0,0,1,289.4,8.3a28.657,28.657,0,0,1,47.2,24.1h0a28.85,28.85,0,0,1-10,19.6A28.175,28.175,0,0,1,308,58.9Zm-1.1-14.5" fill="#fff"/>
  </g>
</svg>
