<svg xmlns="http://www.w3.org/2000/svg" width="398" height="420.9" viewBox="0 0 398 420.9">
  <g id="selected_location" transform="translate(-57 -45.5)">
    <path id="Path_253" data-name="Path 253" d="M446.8,305.8a8.237,8.237,0,0,0,8.2-8.2V229.8a8.717,8.717,0,0,0-3.2-6.5,8.121,8.121,0,0,0-6.9-1.7L319.5,248.4l-14.1-3,37.2-74.3c.1-.1.1-.2.1-.4a89.3,89.3,0,1,0-163.6,0c0,.1.1.2.1.4l26.5,53.1-11.8-2.5h-.4c-.1,0-.4,0-.5-.1h-2c-.1,0-.4,0-.5.1h-.4L63.6,248.9a8.224,8.224,0,0,0-6.5,8v67.8a8.2,8.2,0,1,0,16.4,0V263.6L184.3,240V424.4L73.6,448.1V390.5a8.2,8.2,0,1,0-16.4,0v67.8a7.769,7.769,0,0,0,3.1,6.3,7.946,7.946,0,0,0,5.1,1.8,8.806,8.806,0,0,0,1.7-.2l125.4-26.8,125.4,26.8h.1c.2,0,.4.1.6.1h2a1.268,1.268,0,0,0,.6-.1h.1l127.2-27.3a8.224,8.224,0,0,0,6.5-8V363.1a8.2,8.2,0,0,0-16.4,0v61.1L327.9,447.9V263.6L438.5,240v57.6A8.259,8.259,0,0,0,446.8,305.8ZM194.3,164.1a70.868,70.868,0,0,1-6.1-29,72.8,72.8,0,1,1,145.6,0,70.191,70.191,0,0,1-6.1,29L260.9,297.8Z" fill="#fff"/>
    <path id="Path_254" data-name="Path 254" d="M200.7,240l14.7,3.1,38.4,76.7a8.281,8.281,0,0,0,7.3,4.5,8.436,8.436,0,0,0,7.4-4.5l29.5-59,13.4,2.9V448.1L200.7,424.4V240Z" fill="#fff"/>
    <circle id="Ellipse_20" data-name="Ellipse 20" cx="52.8" cy="52.8" r="52.8" transform="translate(208.2 82.2)" fill="#fff"/>
    <path id="Path_255" data-name="Path 255" d="M65.2,365.8a8.2,8.2,0,1,0-8.2-8.2A8.237,8.237,0,0,0,65.2,365.8Z" fill="#fff"/>
    <path id="Path_256" data-name="Path 256" d="M446.6,322.2a8.2,8.2,0,1,0,8.2,8.2A8.11,8.11,0,0,0,446.6,322.2Z" fill="#fff"/>
  </g>
</svg>
