<svg xmlns="http://www.w3.org/2000/svg" width="496" height="496" viewBox="0 0 496 496">
  <g id="share" transform="translate(-8 -8)">
    <path id="Path_257" data-name="Path 257" d="M256,8C119,8,8,119,8,256S119,504,256,504,504,393,504,256,393,8,256,8Zm0,467.7C134.7,475.7,36.3,377.4,36.3,256S134.7,36.3,256,36.3,475.7,134.7,475.7,256,377.3,475.7,256,475.7Z"/>
    <path id="Path_258" data-name="Path 258" d="M321,294a61.579,61.579,0,0,0-40.1,14.7l-66.5-41.8A63.682,63.682,0,0,0,216,253a60.558,60.558,0,0,0-1.2-12.1L285,198.5a61.882,61.882,0,1,0-24.2-35.6l-67,42.6a62.045,62.045,0,1,0,.6,94.6l66.2,42.2A61.963,61.963,0,1,0,321,294Z"/>
  </g>
</svg>
