<svg xmlns="http://www.w3.org/2000/svg" width="453" height="459.5" viewBox="0 0 453 459.5">
  <g id="termscondi" transform="translate(-29.5 -26.5)">
    <path id="Path_259" data-name="Path 259" d="M355,97.5H157A35.508,35.508,0,0,1,121.5,62h0A35.508,35.508,0,0,1,157,26.5H355A35.508,35.508,0,0,1,390.5,62h0A35.508,35.508,0,0,1,355,97.5Z"/>
    <path id="Path_260" data-name="Path 260" d="M447,227H65a35.508,35.508,0,0,1-35.5-35.5h0A35.508,35.508,0,0,1,65,156H447a35.508,35.508,0,0,1,35.5,35.5h0A35.508,35.508,0,0,1,447,227Z"/>
    <path id="Path_261" data-name="Path 261" d="M352,356.5H160A35.508,35.508,0,0,1,124.5,321h0A35.508,35.508,0,0,1,160,285.5H352A35.508,35.508,0,0,1,387.5,321h0A35.508,35.508,0,0,1,352,356.5Z"/>
    <path id="Path_262" data-name="Path 262" d="M446,486H66a35.508,35.508,0,0,1-35.5-35.5h0A35.508,35.508,0,0,1,66,415H446a35.508,35.508,0,0,1,35.5,35.5h0A35.508,35.508,0,0,1,446,486Z"/>
  </g>
</svg>
