<svg xmlns="http://www.w3.org/2000/svg" width="454.1" height="479.9" viewBox="0 0 454.1 479.9">
  <g id="unsel_location" transform="translate(-29 -16)">
    <path id="Path_263" data-name="Path 263" d="M479.4,218.8a9.28,9.28,0,0,0-7.9-1.9l-143,30.5L312.4,244l42.4-84.8a.6.6,0,0,0,.1-.4,101.9,101.9,0,1,0-186.6,0c0,.1.1.3.1.4l30.3,60.5-13.5-2.9h-.4c-.1,0-.4,0-.5-.1h-2c-.1,0-.4,0-.5.1h-.4L36.5,248a9.373,9.373,0,0,0-7.4,9.1v77.3a9.4,9.4,0,0,0,18.8,0V264.7l126.3-27V448.1l-126.3,27V409.4a9.4,9.4,0,0,0-18.8,0v77.3a8.724,8.724,0,0,0,3.5,7.2,8.982,8.982,0,0,0,5.9,2,5.413,5.413,0,0,0,1.9-.3l143-30.5,143,30.5h.1c.3,0,.4.1.7.1h2.6a1.7,1.7,0,0,0,.7-.1h.1l145.1-31.1a9.373,9.373,0,0,0,7.4-9.1V378.1a9.4,9.4,0,0,0-18.8,0v69.7L338,474.8V264.7l126.3-27v65.7a9.4,9.4,0,0,0,18.8,0V226.1A9.863,9.863,0,0,0,479.4,218.8ZM178.7,118a83,83,0,0,1,166,0,79.965,79.965,0,0,1-7,33.1L261.5,303.7l-76-152.6A83.442,83.442,0,0,1,178.7,118Zm14.2,119.7,16.8,3.5,43.8,87.5a9.477,9.477,0,0,0,8.3,5.2,9.708,9.708,0,0,0,8.5-5.2L304,261.3l15.3,3.3V475L193,448l-.1-210.3Z" fill="#fff"/>
    <path id="Path_264" data-name="Path 264" d="M322,118a60.3,60.3,0,1,0-60.3,60.3A60.3,60.3,0,0,0,322,118Zm-101.9,0a41.6,41.6,0,1,1,41.6,41.6A41.7,41.7,0,0,1,220.1,118Z" fill="#fff"/>
    <path id="Path_265" data-name="Path 265" d="M38.4,381.3a9.4,9.4,0,1,0-9.4-9.4A9.389,9.389,0,0,0,38.4,381.3Z" fill="#fff"/>
    <path id="Path_266" data-name="Path 266" d="M473.5,331.5a9.4,9.4,0,1,0,9.4,9.4A9.389,9.389,0,0,0,473.5,331.5Z" fill="#fff"/>
  </g>
</svg>
