<svg xmlns="http://www.w3.org/2000/svg" width="511.975" height="509.11" viewBox="0 0 511.975 509.11">
  <g id="unsel_premium" transform="translate(0 -1.41)">
    <path id="Path_267" data-name="Path 267" d="M414.5,325.9l-55.1,36.5a40.456,40.456,0,0,0-34.7-19.9H276c-10.5,0-15.4-7.6-20.3-11.1-37.6-32.6-94.4-32.6-132,0l-10.6,9.2H10a10.029,10.029,0,0,0-10,10v120a10.029,10.029,0,0,0,10,10H113.8L293,510.4a10.006,10.006,0,0,0,7.5-1.8L507.9,357.5a10.023,10.023,0,0,0,2.2-13.9C488.2,313.1,446.2,305.4,414.5,325.9ZM292.1,490,116.2,460.7a8.6,8.6,0,0,0-1.6-.1H20v-100h96.8c6.1,0,7.8-4.3,20-14a81.267,81.267,0,0,1,105.8,0c4.2,2.8,14,16,33.4,16h48.7c10.9,0,20,8.6,20,19.4a19.848,19.848,0,0,1-20,19.6h-120a10,10,0,1,0,0,20h120c21.7,0,39.5-17.3,40-38.6l60.8-40.2a50.5,50.5,0,0,1,61.8,5.1Z" fill="#fff"/>
    <g id="Group_705" data-name="Group 705">
      <path id="Path_268" data-name="Path 268" d="M319.3,244.7a9.7,9.7,0,1,1-9.7-9.7A9.709,9.709,0,0,1,319.3,244.7Z" fill="#fff"/>
      <g id="Group_704" data-name="Group 704">
        <path id="Path_269" data-name="Path 269" d="M193,292.9H424.7a9.709,9.709,0,0,0,9.7-9.7V245.5L463.6,96a9.87,9.87,0,0,0-4.1-9.9,9.5,9.5,0,0,0-10.7,0l-78.9,52.6L317.3,59.8a9.592,9.592,0,0,0-16,0l-52.6,78.8L169.9,86a9.5,9.5,0,0,0-10.7,0,9.7,9.7,0,0,0-4.2,9.8l28.3,149.6v37.7A9.731,9.731,0,0,0,193,292.9Zm53-132.8a9.594,9.594,0,0,0,13.4-2.7l49.9-74.8,49.9,74.8a9.755,9.755,0,0,0,13.4,2.7L440.2,115,416.8,235H353.3a9.7,9.7,0,1,0,0,19.4H415v19.3H202.7V254.4h63.7a9.7,9.7,0,1,0,0-19.4H201L178.3,114.9Z" fill="#fff"/>
        <path id="Path_270" data-name="Path 270" d="M150.1,94.5a17.7,17.7,0,0,1-2.3-.1,28.85,28.85,0,0,1-19.6-10,28.657,28.657,0,0,1,24.1-47.2,28.85,28.85,0,0,1,19.6,10,28.66,28.66,0,0,1-21.8,47.3Zm0-43a14.336,14.336,0,0,0-14.2,13.1,14.188,14.188,0,1,0,15.3-13.1Z" fill="#fff"/>
        <path id="Path_271" data-name="Path 271" d="M469.2,95.9a17.7,17.7,0,0,1-2.3-.1,28.85,28.85,0,0,1-19.6-10,28.657,28.657,0,0,1,24.1-47.2,28.85,28.85,0,0,1,19.6,10,28.66,28.66,0,0,1-21.8,47.3Zm0-42.9A14.336,14.336,0,0,0,455,66.1,14.188,14.188,0,1,0,470.3,53Z" fill="#fff"/>
        <path id="Path_272" data-name="Path 272" d="M308,58.9a17.7,17.7,0,0,1-2.3-.1A28.733,28.733,0,0,1,289.4,8.3a28.657,28.657,0,0,1,47.2,24.1h0a28.85,28.85,0,0,1-10,19.6A28.175,28.175,0,0,1,308,58.9ZM308,16a14.163,14.163,0,1,0,14.3,15.3h0A14.229,14.229,0,0,0,309.2,16Z" fill="#fff"/>
      </g>
    </g>
  </g>
</svg>
