<svg xmlns="http://www.w3.org/2000/svg" width="506.888" height="507" viewBox="0 0 506.888 507">
  <path id="unsel_home" d="M396.3,509.5H317.8a21.894,21.894,0,0,1-21.9-21.9V371.8a16.73,16.73,0,0,0-16.7-16.7H232.9a16.73,16.73,0,0,0-16.7,16.7V487.6a21.894,21.894,0,0,1-21.9,21.9H115.8A60.517,60.517,0,0,1,55.3,449V308.8h-.5a12.1,12.1,0,0,1-1.9-.1,52.755,52.755,0,0,1-35-89.9l.2-.2L218.7,18a52.63,52.63,0,0,1,74.6,0L494.1,218.8a52.85,52.85,0,0,1-37.4,90.1V449A60.432,60.432,0,0,1,396.3,509.5ZM232.8,340.1h46.3a31.71,31.71,0,0,1,31.7,31.7V487.6a6.914,6.914,0,0,0,6.9,6.9h78.5A45.537,45.537,0,0,0,441.7,449V293.8h14.9a37.193,37.193,0,0,0,26.7-11.1,37.843,37.843,0,0,0,0-53.4l-.1-.1L282.7,28.6A37.6,37.6,0,0,0,256,17.5a37.193,37.193,0,0,0-26.7,11.1L28.5,229.4a37.783,37.783,0,0,0,25.2,64.4H70.3V449a45.537,45.537,0,0,0,45.5,45.5h78.5a6.914,6.914,0,0,0,6.9-6.9V371.8A31.688,31.688,0,0,1,232.8,340.1Z" transform="translate(-2.575 -2.5)" fill="#fff"/>
</svg>
