<svg xmlns="http://www.w3.org/2000/svg" width="496" height="496" viewBox="0 0 496 496">
  <g id="unsel_user" transform="translate(-8 -8)">
    <g id="Group_710" data-name="Group 710">
      <g id="Group_707" data-name="Group 707">
        <g id="Group_706" data-name="Group 706">
          <path id="Path_273" data-name="Path 273" d="M256,62.4a89.5,89.5,0,1,0,89.5,89.5A89.6,89.6,0,0,0,256,62.4Zm0,159.1a69.6,69.6,0,1,1,69.6-69.6A69.65,69.65,0,0,1,256,221.5Z" fill="#fff"/>
        </g>
      </g>
      <g id="Group_709" data-name="Group 709">
        <g id="Group_708" data-name="Group 708">
          <path id="Path_274" data-name="Path 274" d="M283.7,262H228.2c-45.9,0-91.2,21.2-121.5,66.6v73.3H405.1V328.6C375,283.2,329.7,262,283.7,262ZM385.3,382H126.7V334.7a123.877,123.877,0,0,1,101.6-52.8h55.5a124.013,124.013,0,0,1,101.6,52.8l-.1,47.3Z" fill="#fff"/>
        </g>
      </g>
    </g>
    <path id="Path_275" data-name="Path 275" d="M256,8C119,8,8,119,8,256S119,504,256,504,504,393,504,256,393,8,256,8Zm0,467.7C134.7,475.7,36.3,377.4,36.3,256S134.7,36.3,256,36.3,475.7,134.7,475.7,256,377.3,475.7,256,475.7Z" fill="#fff"/>
  </g>
</svg>
