<svg xmlns="http://www.w3.org/2000/svg" width="496" height="496" viewBox="0 0 496 496">
  <g id="upload" transform="translate(-8 -8)">
    <path id="Path_276" data-name="Path 276" d="M256,504c137,0,248-111,248-248S393,8,256,8,8,119,8,256,119,504,256,504Zm0-467.7c121.3,0,219.7,98.3,219.7,219.7S377.3,475.7,256,475.7,36.3,377.3,36.3,256,134.7,36.3,256,36.3Z"/>
    <path id="Path_277" data-name="Path 277" d="M116.5,202V149.5A30.493,30.493,0,0,1,147,119H365a30.493,30.493,0,0,1,30.5,30.5V202a10.968,10.968,0,0,0,11,11h0a10.968,10.968,0,0,0,11-11V151.8A55.822,55.822,0,0,0,361.7,96H150.3a55.822,55.822,0,0,0-55.8,55.8V202a10.968,10.968,0,0,0,11,11h0A10.968,10.968,0,0,0,116.5,202Z"/>
    <path id="Path_278" data-name="Path 278" d="M166.9,299.9a11.694,11.694,0,0,0,16.2-.4L245,237.6h.1v170c0,7,5.4,13.1,12.4,13.4a12.992,12.992,0,0,0,13.6-13V237.1h.1l62.7,62.7c4.4,4.4,11.7,4.8,16.2.4a11.288,11.288,0,0,0,.1-16.1l-89.5-89.5-.3.3-2.2-2.2h0L167,283.9A10.919,10.919,0,0,0,166.9,299.9Z"/>
  </g>
</svg>
