<svg xmlns="http://www.w3.org/2000/svg" width="496" height="496" viewBox="0 0 496 496">
  <g id="user" transform="translate(-8 -8)">
    <g id="Group_715" data-name="Group 715">
      <g id="Group_712" data-name="Group 712">
        <g id="Group_711" data-name="Group 711">
          <path id="Path_279" data-name="Path 279" d="M256,62.4a89.5,89.5,0,1,0,89.5,89.5A89.6,89.6,0,0,0,256,62.4Zm0,159.1a69.6,69.6,0,1,1,69.6-69.6A69.65,69.65,0,0,1,256,221.5Z"/>
        </g>
      </g>
      <g id="Group_714" data-name="Group 714">
        <g id="Group_713" data-name="Group 713">
          <path id="Path_280" data-name="Path 280" d="M283.7,262H228.2c-45.9,0-91.2,21.2-121.5,66.6v73.3H405.1V328.6C375,283.2,329.7,262,283.7,262ZM385.3,382H126.7V334.7a123.877,123.877,0,0,1,101.6-52.8h55.5a124.013,124.013,0,0,1,101.6,52.8l-.1,47.3Z"/>
        </g>
      </g>
    </g>
    <path id="Path_281" data-name="Path 281" d="M256,8C119,8,8,119,8,256S119,504,256,504,504,393,504,256,393,8,256,8Zm0,467.7C134.7,475.7,36.3,377.4,36.3,256S134.7,36.3,256,36.3,475.7,134.7,475.7,256,377.3,475.7,256,475.7Z"/>
  </g>
</svg>
