<svg xmlns="http://www.w3.org/2000/svg" width="146" height="95" viewBox="0 0 146 95">
  <g id="paypal" transform="translate(-0.252)">
    <rect id="Rectangle_72" data-name="Rectangle 72" width="146" height="95" rx="12" transform="translate(0.252)" fill="none"/>
    <g id="PayPal_2_" data-name="PayPal (2)" transform="translate(38.77 7.411)">
      <path id="Path_47" data-name="Path 47" d="M17.765,76.795l1.344-8.869H1.1L11.314,1.806Q11.717,1,12.12,1H37.387c8.333,0,14.246,1.881,17.2,5.375a10.5,10.5,0,0,1,2.688,5.107,15.231,15.231,0,0,1,0,6.989v2.15l1.344.806a6.07,6.07,0,0,1,2.957,2.147C62.922,24.919,63.459,26.8,64,28.681a24.306,24.306,0,0,1-.269,7.526,22.028,22.028,0,0,1-3.225,8.6,18.732,18.732,0,0,1-4.837,5.375,17.077,17.077,0,0,1-6.72,2.957,36.94,36.94,0,0,1-8.333,1.077H38.731a6.423,6.423,0,0,0-3.763,1.344,4.594,4.594,0,0,0-1.881,3.494l-.269.806L30.4,75.72v.537c0,.269,0,.269-.269.269h-.269C29.861,76.795,17.765,76.795,17.765,76.795Z" transform="translate(1.9 1.682)" fill="#253b80"/>
      <path id="Path_48" data-name="Path 48" d="M51.29,7.7V9.041C48.072,26.206,36.539,31.836,22.056,31.836H14.55a3.489,3.489,0,0,0-3.487,2.95L7.305,58.658l-1.072,6.7c-.268,1.073.537,1.877,1.612,2.145H21.258a3.186,3.186,0,0,0,3.218-2.682V64.29L26.89,48.734l.268-.806a3.186,3.186,0,0,1,3.218-2.682h1.877c12.606,0,22.529-5.1,25.479-20.115,1.341-6.168.537-11.533-2.682-15.019A13.164,13.164,0,0,0,51.29,7.7Z" transform="translate(10.585 13.114)" fill="#179bd7"/>
      <path id="Path_49" data-name="Path 49" d="M45.013,8.041a7.141,7.141,0,0,0-3.218-.806A52.082,52.082,0,0,0,35.357,6.7H15.51a3.186,3.186,0,0,0-3.218,2.682L8,35.934v.806a3.453,3.453,0,0,1,3.487-2.95h7.507c14.483,0,25.747-5.9,29.234-22.794V9.383a11.209,11.209,0,0,0-2.68-1.071A.83.83,0,0,0,45.013,8.041Z" transform="translate(13.645 11.328)" fill="#222d65"/>
      <path id="Path_50" data-name="Path 50" d="M25.837,20.7a3.193,3.193,0,0,1,3.225-2.688H48.956a44.6,44.6,0,0,1,6.45.538,22.393,22.393,0,0,1,4.031,1.075A27.886,27.886,0,0,1,62.124,20.7c1.075-6.182,0-10.481-3.495-14.512C54.868,1.881,48.149,0,39.281,0H14.011a3.72,3.72,0,0,0-3.495,2.957L.033,69.621A1.979,1.979,0,0,0,1.914,72.04H17.774l3.763-24.73Z" transform="translate(0.017)" fill="#253b80"/>
    </g>
  </g>
</svg>
