<svg xmlns="http://www.w3.org/2000/svg" width="147" height="95" viewBox="0 0 147 95">
  <g id="paytm" transform="translate(0.413)">
    <rect id="Rectangle_72" data-name="Rectangle 72" width="147" height="95" rx="12" transform="translate(-0.413)" fill="none"/>
    <g id="layer1" transform="translate(3.216 25.536)">
      <g id="g52" transform="translate(102.142 6.712)">
        <path id="path54" d="M33.017,5.5A9.338,9.338,0,0,0,24.209-.748h-.085a9.3,9.3,0,0,0-6.73,2.87A9.309,9.309,0,0,0,10.661-.75h-.085A9.281,9.281,0,0,0,4.491,1.512V.791A1.375,1.375,0,0,0,3.12-.48H-3.126A1.38,1.38,0,0,0-4.1-.075a1.38,1.38,0,0,0-.4.978V34.819a1.38,1.38,0,0,0,.4.979,1.38,1.38,0,0,0,.978.406H3.12A1.376,1.376,0,0,0,4.481,35.01V10.663a2.188,2.188,0,0,1,.012-.24A2.275,2.275,0,0,1,6.646,8.331H7.8a2.43,2.43,0,0,1,1.319.511,2.3,2.3,0,0,1,.842,1.818l.023,24.227a1.384,1.384,0,0,0,1.38,1.387h6.246a1.381,1.381,0,0,0,1.372-1.319V10.629A2.292,2.292,0,0,1,20,8.678a2.539,2.539,0,0,1,1.148-.385H22.3a2.283,2.283,0,0,1,2.162,2.336l.027,24.2a1.381,1.381,0,0,0,1.38,1.384h6.246a1.381,1.381,0,0,0,1.38-1.384V8.8a8.693,8.693,0,0,0-.473-3.3" transform="translate(4.506 0.75)" fill="#54c1f0"/>
      </g>
      <g id="g56" transform="translate(79.832 0.005)">
        <path id="path58" d="M15.445,6.217H11.873V.429h0V.411a1.243,1.243,0,0,0-1.5-1.233C6.414.265,7.208,5.75-.02,6.217h-.7a1.446,1.446,0,0,0-.3.035h0A1.379,1.379,0,0,0-2.108,7.6v6.246a1.384,1.384,0,0,0,1.384,1.38H3.045L3.039,41.709A1.365,1.365,0,0,0,4.405,43.07H10.58A1.361,1.361,0,0,0,11.941,41.7V15.221h3.5a1.383,1.383,0,0,0,1.385-1.377V7.6a1.383,1.383,0,0,0-1.38-1.38" transform="translate(2.108 0.848)" fill="#54c1f0"/>
      </g>
      <g id="g60" transform="translate(52.709 7.071)">
        <path id="path62" d="M19.53,0H13.284a1.38,1.38,0,0,0-1.378,1.38V14.294a1.462,1.462,0,0,1-1.463,1.441H7.829a1.462,1.462,0,0,1-1.466-1.463L6.34,1.381A1.383,1.383,0,0,0,4.959,0H-1.286A1.381,1.381,0,0,0-2.668,1.38V15.534a8.864,8.864,0,0,0,9.213,9.208s4.036,0,4.164.023a1.453,1.453,0,0,1,.021,2.887c-.035.006-.067.014-.106.021L1.486,27.7A1.381,1.381,0,0,0,.108,29.089v6.246a1.379,1.379,0,0,0,1.38,1.38H11.7a8.861,8.861,0,0,0,9.212-9.208V1.38A1.381,1.381,0,0,0,19.53,0" transform="translate(2.675)" fill="#233266"/>
      </g>
      <g id="g64" transform="translate(0.005 7.069)">
        <path id="path66" d="M12.72,10.071v3.854a1.465,1.465,0,0,1-1.463,1.466H7.294V7.671h3.963A1.461,1.461,0,0,1,12.72,9.134Zm.546-11.445H-.382A1.355,1.355,0,0,0-1.736-.02V33.917A1.346,1.346,0,0,0-.473,35.3H5.89a1.381,1.381,0,0,0,1.381-1.383l.023-9.492h5.972a8.108,8.108,0,0,0,8.488-8.488V7.13a8.116,8.116,0,0,0-8.488-8.5" transform="translate(1.737 1.374)" fill="#233266"/>
      </g>
      <g id="g68" transform="translate(25.693 7.103)">
        <path id="path70" d="M12.919,22.941v.975a1.4,1.4,0,0,1-1.472,1.375h-2.6a1.428,1.428,0,0,1-1.473-1.375V18.57A1.422,1.422,0,0,1,8.844,17.2h2.6a1.424,1.424,0,0,1,1.472,1.375ZM11.926-3.131H3.26a1.344,1.344,0,0,0-1.386,1.3V4.02A1.424,1.424,0,0,0,3.342,5.394h8.252a1.436,1.436,0,0,1,1.243,1.322v.8A1.382,1.382,0,0,1,11.63,8.8H7.544c-5.434,0-9.307,3.61-9.307,8.681v7.262c0,5.045,3.329,8.628,8.728,8.628H18.286a3.565,3.565,0,0,0,3.683-3.434V6.243c0-5.746-2.963-9.374-10.041-9.374" transform="translate(1.763 3.132)" fill="#233266"/>
      </g>
    </g>
  </g>
</svg>
