<svg xmlns="http://www.w3.org/2000/svg" width="24.271" height="15" viewBox="0 0 24.271 15">
  <g id="axis" transform="translate(-1551.785 -1849.105)">
    <g id="g13" transform="translate(1551.785 1849.105)">
      <g id="XMLID_328_" transform="translate(0 0)">
        <rect id="rect19" width="6.562" height="11.792" transform="translate(8.854 1.604)" fill="#ff5f00"/>
        <path id="XMLID_330_" d="M2908.006,2247a7.519,7.519,0,0,1,2.854-5.9,7.5,7.5,0,1,0,0,11.792A7.489,7.489,0,0,1,2908.006,2247Z" transform="translate(-2898.734 -2239.502)" fill="#eb001b"/>
        <path id="path22" d="M3411.292,2247a7.492,7.492,0,0,1-12.125,5.9,7.517,7.517,0,0,0,0-11.792,7.492,7.492,0,0,1,12.125,5.9Z" transform="translate(-3387.021 -2239.502)" fill="#f79e1b"/>
      </g>
    </g>
  </g>
</svg>
