<svg xmlns="http://www.w3.org/2000/svg" width="31" height="31" viewBox="0 0 31 31">
  <g id="continue" transform="translate(-304 -617.799)">
    <rect id="Rectangle_2675" data-name="Rectangle 2675" width="31" height="31" rx="15.5" transform="translate(304 617.799)" fill="#7a72c5"/>
    <path id="Union_2" data-name="Union 2" d="M4.862,9.879.226,5.558A.685.685,0,0,1,.2,4.564L4.859.212a.816.816,0,0,1,1.094,0,.684.684,0,0,1,0,1.018L2.673,4.293H13.246a.753.753,0,0,1,0,1.507H2.672L5.957,8.861a.685.685,0,0,1,0,1.019.8.8,0,0,1-.546.21A.81.81,0,0,1,4.862,9.879Z" transform="translate(326.5 638.389) rotate(180)" fill="#fff"/>
  </g>
</svg>
