<svg xmlns="http://www.w3.org/2000/svg" width="115.361" height="35.896" viewBox="0 0 115.361 35.896">
  <g id="homelogo" transform="translate(-99.019 -295.053)">
    <g id="estudy" transform="translate(99.019 295.053)">
      <path id="Path_1832" data-name="Path 1832" d="M832.322,1837.438a14.233,14.233,0,0,0-5.787,7.72c-1.781,5.938.445,12.519,6.38,15.093,8.062,3.464,19.487-2.821,17.9-12.718-.2-1.287-.742-1.089-.742-.594,0,8.115-10.931,14.2-17.509,8.561,9.1-5.146,13.5-8.115,14.492-8.759,6.826-4.652-2.869-17.023-14.739-9.3Zm-1.682,15.192c-3.907-11.184,12.81-17.716,13.552-10.342a3.689,3.689,0,0,1-1.583,3.315l-11.969,7.027Z" transform="translate(-817.93 -1825.315)" fill="#fff" fill-rule="evenodd"/>
      <path id="Path_1833" data-name="Path 1833" d="M625.741,1583.691l14.838-1.484-4.254,5,1.138,2.227.643,1.237c-4.4.05-10.98,3.167-13.354,7.72-.2-.4-.742-1.336-.989-1.781l-1.138-2.177-2.127.2h0a18.024,18.024,0,0,1,.3,3.117.881.881,0,0,1,.247,1.336l.989,2.672-2.473.4.247-2.87a.935.935,0,0,1,.1-1.633,13.109,13.109,0,0,0-.2-2.92h-.049l-3.561.346Z" transform="translate(-616.096 -1582.207)" fill="#fff" fill-rule="evenodd"/>
    </g>
    <text id="eStudy-2" data-name="eStudy" transform="translate(138.38 319.79)" fill="#fff" font-size="25" font-family="MyriadPro-Semibold, Myriad Pro" font-weight="600"><tspan x="0" y="0">eStudy</tspan></text>
  </g>
</svg>
