<svg xmlns="http://www.w3.org/2000/svg" xmlns:xlink="http://www.w3.org/1999/xlink" width="375" height="578.187" viewBox="0 0 375 578.187">
  <defs>
    <linearGradient id="linear-gradient" x1="246.05" y1="0.5" x2="247.05" y2="0.5" gradientUnits="objectBoundingBox">
      <stop offset="0" stop-color="#ae2bb6"/>
      <stop offset="1" stop-color="#db006f"/>
    </linearGradient>
    <clipPath id="clip-path">
      <rect id="Rectangle_2790" data-name="Rectangle 2790" width="76.998" height="74.069" fill="none"/>
    </clipPath>
  </defs>
  <g id="intro_b" transform="translate(-299.878 -271.817)">
    <g id="Group_5713" data-name="Group 5713" transform="translate(299.953 271.817)">
      <path id="Path_5698" data-name="Path 5698" d="M299.918,294.238V639.2H674.75s-.019-4-.036-11.172c-.076-22.733-.263-77.3-.45-136.943-.205-57.663-.411-120.056-.56-163.057-.093-31.436-.168-52.491-.187-53.724,0,0-10.627,21.185-23.35,45.019-11.806,22.117-25.4,46.513-33.941,58.358-7.472,10.347-19.967-1.067-31.662-15.842C571.655,345.59,559.7,325.266,556.45,325.38c-6.723.241-19.649,18.136-33.738,40.272-22.993,36.22-49.035,83.854-55.926,84.246-15.446.9-62.146-133.319-93.177-209.682V240.2c-12.1-29.813-21.835-50.809-26.374-51.5-7.79-1.2-19.016,23.144-28.6,48.736C308.305,265.1,299.918,294.238,299.918,294.238Z" transform="translate(-299.918 -188.654)" fill="#e7edfd"/>
      <path id="Path_5699" data-name="Path 5699" d="M487.418,279.526l14.159,22.08,9.377-13.375c-.093-31.436-.168-52.491-.187-53.724C510.768,234.507,500.141,255.692,487.418,279.526Z" transform="translate(-137.169 -148.854)" fill="#dbe6fd"/>
      <path id="Path_5700" data-name="Path 5700" d="M419.187,302.12l3.383,10.311,8.406-17.746L441.717,321.3l18.68-25.218,10.741,13.543,9.9-11.32c-12.908-16.252-24.863-36.575-28.113-36.461C446.2,262.089,433.275,279.985,419.187,302.12Z" transform="translate(-196.393 -125.123)" fill="#dbe6fd"/>
      <path id="Path_5701" data-name="Path 5701" d="M309.937,237.433l4.784,17.111,5.137-8.406,11.208,51.837L347.411,242.4l8.873,20.081,8.628-22.267V240.2c-12.1-29.813-21.835-50.809-26.374-51.5C330.748,187.5,319.522,211.841,309.937,237.433Z" transform="translate(-291.222 -188.654)" fill="#dbe6fd"/>
    </g>
    <g id="Group_5715" data-name="Group 5715" transform="translate(299.878 704.3)">
      <path id="Path_5704" data-name="Path 5704" d="M674.878,420.177v97.509a48.192,48.192,0,0,1-48.194,48.194H348.089a48.206,48.206,0,0,1-48.211-48.194V420.177Z" transform="translate(-299.878 -420.177)" fill="#fff"/>
      <path id="Path_5705" data-name="Path 5705" d="M674.878,479.785v73.474h-375v-62.97c2.354-3.624,20.991-18.73,46.3-20.466,27.086-1.868,47.324,14.944,62.268,14.944s22.5-28.915,43.588-31.134c23.66-2.49,44.851,39.03,57.284,39.85,28.33,1.868,48.878-54.794,75.964-58.53s40.162,38.294,52.3,44.832C644.854,483.689,660.55,483.988,674.878,479.785Z" transform="translate(-299.878 -407.555)" fill="#e7edfd"/>
      <circle id="Ellipse_599" data-name="Ellipse 599" cx="12.609" cy="12.609" r="12.609" transform="translate(76.035 28.486)" fill="#e7edfd"/>
    </g>
    <g id="Group_5721" data-name="Group 5721" transform="translate(455.127 505.988)">
      <g id="Group_5716" data-name="Group 5716" transform="translate(0 15.255)">
        <path id="Path_5706" data-name="Path 5706" d="M444.723,473.7c-.161.011-.321.011-.482.011H416.52c-18.512,0-33.532-20.06-33.532-44.813V380.348c0-24.755,15.021-44.817,33.532-44.817,0,0,24.766-10.365,20.264-4.478-8.578,11.217-35.778,23.122-35.623,49.818v48.553C401.162,453.964,426.43,473.376,444.723,473.7Z" transform="translate(-382.988 -316.048)" fill="#4054d5"/>
        <path id="Path_5707" data-name="Path 5707" d="M462.161,330.6c9.784,7.054,14.253,24.605,14.253,39.446v64.989c0,14.841-3.374,31.969-13.149,39.015-3.984,2.892-43.87.962-48.4,1.238-16-1.162-28.506-18.8-28.506-40.253V386.48c0-21.452,13.009-36.116,28.5-40.253C426.891,343.014,460.624,324.145,462.161,330.6Zm-51.6,9.463c-16.58,6.411-27.57,22.42-27.57,46.42v48.553c0,24,14.12,43.588,31.857,44.759,5.212-.282,45.691,1.356,50.017-1.78,10.491-7.562,14.92-25.922,14.92-42.979V370.044c0-17.057-7.042-39.822-17.531-47.382C457.924,319.524,430.222,332.459,410.558,340.06Z" transform="translate(-382.988 -322.18)" fill="#6a85fa"/>
      </g>
      <path id="Path_5708" data-name="Path 5708" d="M531.695,345.105S508.072,315.49,480.57,314.08s-66.988,20.1-69.1,41.957-4.937,76.861-5.993,88.5-5.288,47.6,20.8,56.765,28.207,12.693,43.722,12.34,70.515-10.577,74.393-14.1S531.695,345.105,531.695,345.105Z" transform="translate(-364.257 -314.014)" fill="#506aed"/>
      <path id="Path_5709" data-name="Path 5709" d="M432.006,496.361c-25.319-24.9-6.637-114.551,5.7-142.758s68.365-30.355,81.093-20.449c9.88,7.691,18.247,155.365,18.247,155.365S449.928,513.986,432.006,496.361Z" transform="translate(-351.365 -302.063)" fill="#9fb8fc"/>
      <path id="Path_5710" data-name="Path 5710" d="M431.52,465.687V400.04a33.74,33.74,0,0,1,28.5-33.333l40.274-5.356c31.36-4.646,44.223,18.133,44.223,34.614l-3.557,52.721c0,3.689-6.781,9.813-1.352,7.515,9.882-4.182-40.956,19.414-97.377,19.382C436.442,475.581,431.52,471.477,431.52,465.687Z" transform="translate(-340.862 -273.456)" fill="#6a85fa"/>
      <path id="Path_5711" data-name="Path 5711" d="M445.125,433.828V398.609c0-9.63-1.274-14.808-8.5-18L414,376.722c-6.181-1.481-11.767,5.813-11.767,15.364l-.149,31.153a6.606,6.606,0,0,0,2.014,5.092c3.605,2.9,18.46,8.976,36.955,11.234C443.249,439.832,445.125,437.187,445.125,433.828Z" transform="translate(-366.409 -259.75)" fill="#6a85fa"/>
      <path id="Path_5712" data-name="Path 5712" d="M439.324,432.167V400.986c0-9.628-4.59-17.824-10.818-19.319l-14.572-3.5c-6.181-1.483-11.767,5.811-11.767,15.364v28.7a6.615,6.615,0,0,0,2.014,5.092c3.605,2.9,12.577,8.32,31.074,10.578C437.449,438.17,439.324,435.525,439.324,432.167Z" transform="translate(-366.34 -258.493)" fill="#9fb8fc"/>
      <path id="Path_5713" data-name="Path 5713" d="M439.6,459.99v-53.8a33.741,33.741,0,0,1,28.506-33.334l38.395-6.032a26.832,26.832,0,0,1,31,26.507v49.517a9.929,9.929,0,0,1-5.3,8.787c-9.5,5-33.142,14.354-81.878,18.25A9.929,9.929,0,0,1,439.6,459.99Z" transform="translate(-333.845 -268.459)" fill="#9fb8fc"/>
      <path id="Path_5714" data-name="Path 5714" d="M438.739,351.181l-2.262-6.493q1.025-.359,2.04-.7l2.184,6.517Q439.728,350.836,438.739,351.181Zm4.42-1.47-2.07-6.559c.691-.217,1.382-.43,2.064-.635l1.982,6.583C444.481,349.3,443.82,349.5,443.159,349.711Zm4.455-1.334-1.864-6.617c.7-.2,1.4-.388,2.088-.573l1.773,6.643C448.949,348.007,448.286,348.188,447.614,348.377Zm4.5-1.192-1.651-6.674q1.062-.263,2.105-.5l1.556,6.695Q453.123,346.934,452.11,347.185Zm4.53-1.044-1.436-6.725q1.073-.23,2.124-.435l1.334,6.743Q457.661,345.923,456.64,346.141Zm4.558-.895-1.211-6.768c.721-.127,1.433-.25,2.137-.364l1.106,6.785Q462.227,345.064,461.2,345.246Zm38.524-.473c-.008,0-.646-.159-1.836-.37l1.2-6.772c1.444.256,2.234.454,2.318.476l-1.689,6.663.844-3.333Zm-33.945-.265-.969-6.805q1.087-.157,2.148-.289l.867,6.82Q466.81,344.363,465.776,344.508Zm29.634-.488c-.611-.084-1.281-.164-2.008-.245l.738-6.835q1.191.129,2.193.265Zm-25.033-.086-.727-6.837c.732-.078,1.451-.148,2.161-.215l.618,6.848C471.756,343.795,471.07,343.862,470.377,343.935Zm20.494-.392c-.648-.05-1.328-.1-2.04-.136l.39-6.865c.76.043,1.489.093,2.182.146Zm-15.878-.015-.474-6.859c.736-.05,1.459-.1,2.171-.131l.357,6.867C476.375,343.438,475.69,343.481,474.993,343.528Zm4.62-.23-.206-6.874q1.112-.031,2.176-.045l.082,6.876C481,343.262,480.313,343.276,479.613,343.3Zm6.669,0c-.663-.021-1.347-.035-2.051-.041l.078-6.876c.749.009,1.476.026,2.18.045Z" transform="translate(-336.56 -294.603)" fill="#fff"/>
      <path id="Path_5715" data-name="Path 5715" d="M449.09,391.176l-.353-6.867q1.048-.053,2.088-.112l.394,6.865C450.512,391.1,449.8,391.141,449.09,391.176Zm4.8-.282-.461-6.859q1.048-.07,2.085-.148l.512,6.857Q454.968,390.823,453.895,390.894Zm4.8-.361-.57-6.85c.7-.06,1.4-.12,2.085-.181l.616,6.848Q459.77,390.443,458.7,390.534Zm4.8-.435-.676-6.842c.7-.067,1.394-.14,2.085-.211l.717,6.837C464.912,389.956,464.206,390.027,463.492,390.1Zm4.784-.508-.779-6.831q1.048-.12,2.083-.243l.82,6.826C469.7,389.426,468.99,389.508,468.276,389.59Zm4.778-.579-.88-6.818,2.081-.275.917,6.813C474.472,388.824,473.766,388.92,473.055,389.011Zm4.767-.65-.975-6.8q1.045-.151,2.073-.3l1.014,6.8C479.236,388.157,478.532,388.262,477.822,388.361Zm4.758-.714-1.072-6.79q1.048-.168,2.072-.334l1.108,6.786Q483.644,387.478,482.579,387.648Zm4.747-.781-1.167-6.775c.7-.121,1.388-.241,2.066-.362l1.2,6.77Q488.391,386.684,487.326,386.867Zm4.732-.846-1.255-6.76c.7-.129,1.382-.258,2.057-.389l1.3,6.753C493.472,385.757,492.769,385.89,492.058,386.021Zm4.72-.912-1.345-6.742c.7-.138,1.382-.28,2.051-.418l1.392,6.734Q497.853,384.9,496.778,385.109Zm4.715-.977-1.446-6.723q1.054-.224,2.047-.446l1.489,6.714Q502.569,383.9,501.493,384.132Zm4.694-1.048-1.535-6.7q1.062-.244,2.032-.478l1.593,6.689Q507.283,382.833,506.187,383.084Zm4.7-1.121-1.659-6.674c.732-.181,1.41-.353,2.027-.512l1.713,6.658Q512.012,381.681,510.883,381.963Zm4.685-1.216-1.8-6.635c1.266-.342,1.948-.545,1.969-.551l1.95,6.6S516.95,380.374,515.568,380.747Z" transform="translate(-325.918 -262.327)" fill="#fff"/>
      <path id="Path_5716" data-name="Path 5716" d="M508.429,326.63s-67.524,5.965-78.758,35.679c-11.189,29.583-16.162,45.979-16.162,45.979h0s-6.757-40.829,0-59.266c2.709-7.39,31.588-36.26,75.368-33.36C497.787,318.756,508.429,326.63,508.429,326.63Z" transform="translate(-359.103 -312.761)" fill="#4054d5"/>
      <path id="Path_5717" data-name="Path 5717" d="M411.854,403.946c-.245-.319-.245-.319.177-1.905l1.534.405c-.2.743-.3,1.151-.31,1.2l-.77-.183Zm2.411-4.039-1.526-.431q.26-.922.59-2.042l1.522.448C414.635,398.626,414.438,399.3,414.266,399.907Zm1.347-4.55-1.517-.465c.2-.643.407-1.321.63-2.027l1.515.476Q415.907,394.4,415.612,395.357Zm1.431-4.528-1.507-.491q.314-.978.663-2.016l1.5.5Q417.358,389.857,417.043,390.829Zm1.5-4.506-1.5-.514q.336-.981.693-2l1.5.521Q418.881,385.346,418.545,386.323Zm1.569-4.485-1.492-.534q.35-.981.721-1.993l1.491.544C420.589,380.527,420.348,381.19,420.114,381.838Zm1.633-4.461-1.487-.555q.367-.978.749-1.986l1.485.566Q422.11,376.4,421.747,377.377Zm1.693-4.436-1.479-.577q.378-.975.775-1.974l1.476.583Q423.819,371.967,423.439,372.941Zm1.75-4.42-1.47-.592q.392-.975.8-1.965l1.466.6C425.714,367.223,425.449,367.876,425.19,368.521ZM427,364.127l-1.463-.611q.4-.972.824-1.956l1.459.622Q427.4,363.161,427,364.127Zm1.862-4.369-1.455-.633q.417-.964.85-1.943l1.451.641Q429.276,358.8,428.858,359.758Zm1.918-4.347-1.446-.65q.429-.961.874-1.932l1.442.658Q431.207,354.454,430.777,355.411Zm1.974-4.321-1.44-.671.176-.37a16.623,16.623,0,0,1,.835-1.577l1.362.813a15.515,15.515,0,0,0-.758,1.431Zm2.376-3.878-1.24-.988c.439-.549.921-1.1,1.438-1.642l1.145,1.1C435.988,346.185,435.536,346.7,435.127,347.213Zm3.2-3.3-1.039-1.2c.521-.454,1.087-.915,1.674-1.367l.968,1.259C439.371,343.038,438.832,343.477,438.331,343.91Zm3.71-2.815-.882-1.317c.575-.387,1.186-.775,1.81-1.16l.828,1.354C443.188,340.344,442.6,340.72,442.041,341.1Zm4.016-2.428-.764-1.39q.93-.51,1.9-1l.719,1.414Q446.961,338.171,446.057,338.667Zm4.207-2.116-.671-1.44q.964-.446,1.952-.876l.631,1.455C451.532,335.969,450.893,336.259,450.264,336.55Zm4.336-1.874-.59-1.472q.981-.4,1.988-.777l.562,1.483Q455.567,334.286,454.6,334.677ZM459.026,333l-.531-1.5q1-.353,2.014-.7l.508,1.5Q460.015,332.655,459.026,333Zm4.494-1.506-.478-1.513c.676-.215,1.352-.422,2.036-.628l.456,1.519Q464.526,331.182,463.521,331.5Zm4.549-1.364-.433-1.524q1.023-.291,2.045-.572l.417,1.532C469.424,329.754,468.744,329.943,468.069,330.136Zm4.578-1.239-.394-1.537c.689-.177,1.379-.349,2.062-.517l.379,1.541C474.017,328.55,473.332,328.721,472.648,328.9Zm4.616-1.128-.361-1.545c.693-.164,1.386-.321,2.072-.474l.347,1.549Q478.3,327.525,477.264,327.769Zm4.636-1.033-.327-1.552c.7-.148,1.393-.293,2.079-.432l.318,1.554Q482.947,326.513,481.9,326.736Zm4.662-.943-.3-1.556q1.062-.2,2.09-.4l.288,1.56C487.958,325.529,487.263,325.658,486.563,325.792Zm4.676-.859-.273-1.564c.714-.125,1.414-.243,2.1-.359l.262,1.565C492.645,324.688,491.948,324.81,491.238,324.933Zm4.694-.783-.248-1.567c.727-.114,1.431-.222,2.1-.321l.235,1.567C497.354,323.93,496.655,324.038,495.932,324.151Zm4.711-.7-.224-1.569c.76-.106,1.466-.2,2.113-.29l.209,1.575Q501.772,323.29,500.643,323.448Zm4.724-.616-.191-1.575c1.381-.164,2.146-.241,2.146-.241l.159,1.577C507.477,322.593,506.722,322.669,505.368,322.832Z" transform="translate(-358.076 -307.936)" fill="#fff"/>
      <path id="Path_5718" data-name="Path 5718" d="M412.919,408.033c-.114-.7-.222-1.4-.327-2.1l1.569-.237c.1.687.213,1.382.323,2.083Zm-.712-4.722c-.1-.706-.194-1.41-.286-2.1l1.573-.207q.137,1.031.286,2.088Zm-.62-4.732q-.132-1.068-.245-2.109l1.577-.177q.115,1.034.245,2.094Zm-.525-4.748q-.109-1.07-.206-2.115l1.58-.142q.1,1.034.2,2.1Zm-.428-4.76c-.056-.714-.108-1.422-.155-2.116l1.584-.107q.067,1.034.151,2.1Zm-.314-4.767q-.059-1.079-.1-2.122l1.584-.065c.03.689.062,1.39.1,2.1Zm-.192-4.776q-.031-1.084-.045-2.126l1.588-.022c.009.689.022,1.39.041,2.105Zm1.528-4.778-1.588-.006q0-1.087.022-2.124l1.588.026C411.663,373.331,411.658,374.033,411.656,374.749Zm.092-4.732-1.586-.058c.028-.729.058-1.438.1-2.126l1.586.084C411.805,368.6,411.772,369.3,411.747,370.017Zm.262-4.72-1.582-.12q.084-1.1.181-2.122l1.58.15C412.123,363.875,412.065,364.572,412.009,365.3Zm.461-4.7L410.9,360.4q.137-1.118.284-2.115l1.569.23C412.655,359.173,412.56,359.866,412.47,360.6Zm.708-4.659-1.558-.288c.131-.723.273-1.429.422-2.1l1.549.34C413.447,354.546,413.309,355.236,413.178,355.94Zm1.042-4.564-1.524-.437c.265-.932.445-1.4.452-1.418l.245-.626.058.011.056-.1.34.185.2.043-.013.064.861.471c-.166.3-.25.489-.275.544C414.592,350.194,414.439,350.612,414.221,351.376Zm2.055-3.953-1.289-.927c.4-.557.842-1.134,1.321-1.715l1.225,1C417.08,346.342,416.656,346.893,416.275,347.424Zm2.966-3.588-1.166-1.08c.471-.508.975-1.025,1.492-1.545l1.121,1.128C420.185,342.838,419.7,343.342,419.242,343.835Zm3.34-3.291-1.068-1.175c.508-.46,1.04-.93,1.606-1.412l1.027,1.209C423.6,339.634,423.075,340.1,422.582,340.544Zm3.587-3.039-.984-1.244q.81-.644,1.69-1.3l.955,1.267Q426.966,336.876,426.168,337.5Zm3.777-2.821-.913-1.3q.849-.6,1.752-1.21l.889,1.313C431.077,333.892,430.5,334.29,429.945,334.684Zm3.921-2.63-.852-1.337c.585-.372,1.184-.749,1.8-1.126l.829,1.352C435.039,331.316,434.443,331.688,433.866,332.054ZM437.9,329.6l-.8-1.371q.9-.524,1.847-1.054l.775,1.384C439.106,328.9,438.5,329.254,437.9,329.6Zm4.134-2.3-.751-1.4q.922-.5,1.881-.99l.73,1.41Q442.945,326.8,442.037,327.3Zm4.211-2.167-.71-1.42.215-.106q.857-.42,1.706-.82l.676,1.435q-.832.4-1.683.811Zm4.274-2-.641-1.453q.989-.434,1.959-.841l.609,1.463Q451.5,322.7,450.521,323.129Zm4.362-1.808-.57-1.48q1.011-.392,2-.747l.536,1.493C456.2,320.82,455.546,321.065,454.883,321.32Zm4.442-1.586-.491-1.507c.689-.228,1.367-.439,2.036-.639l.456,1.519C460.67,319.3,460.005,319.512,459.325,319.735Zm4.519-1.341-.405-1.532c.7-.189,1.4-.361,2.073-.519l.362,1.543C465.211,318.042,464.537,318.212,463.844,318.393Zm4.588-1.063-.306-1.556q1.076-.213,2.1-.383l.262,1.565C469.821,317.067,469.132,317.192,468.432,317.33ZM489,317.2a16.463,16.463,0,0,0-1.95-.465l.293-1.56a17.238,17.238,0,0,1,2.167.523Zm-15.928-.622-.2-1.575c.717-.09,1.435-.166,2.13-.23l.142,1.582C474.471,316.417,473.774,316.494,473.074,316.579Zm11.425-.215c-.669-.069-1.362-.125-2.066-.163l.086-1.584c.73.039,1.453.1,2.15.172Zm-6.749-.181-.067-1.586c.719-.03,1.442-.047,2.148-.049l0,1.586C479.15,316.137,478.448,316.154,477.749,316.184Z" transform="translate(-359.483 -313.549)" fill="#fff"/>
      <g id="Group_5717" data-name="Group 5717" transform="translate(42.087 115.913)">
        <path id="Path_5719" data-name="Path 5719" d="M414.379,380.227a69.555,69.555,0,0,1-8.087,20.12,1.058,1.058,0,0,0,1.825,1.067,71.36,71.36,0,0,0,8.3-20.623C416.725,379.465,414.686,378.9,414.379,380.227Z" transform="translate(-404.983 -373.112)" fill="#4054d5"/>
        <path id="Path_5720" data-name="Path 5720" d="M421.719,410.024a67.926,67.926,0,0,1-6-28.958,1.058,1.058,0,0,0-2.115,0,70.369,70.369,0,0,0,6.289,30.024C420.455,412.329,422.276,411.255,421.719,410.024Z" transform="translate(-398.507 -372.612)" fill="#4054d5"/>
        <path id="Path_5721" data-name="Path 5721" d="M423.707,377.566c-1.246-1.2-3.783-1.207-5.428-1.369a31.716,31.716,0,0,0-7.915.29.88.88,0,0,0-.689,1.266,32.6,32.6,0,0,0-.869,6.988c-.013,1.412-.1,2.583,1.431,3.026,2.412.7,5.492.523,7.988.755,1.491.14,3.577.8,4.543-.719.992-1.552,1.108-4.28,1.373-6.065C424.346,380.34,424.841,378.655,423.707,377.566Z" transform="translate(-402.669 -376.066)" fill="#000038"/>
        <path id="Path_5722" data-name="Path 5722" d="M407.3,390.082a1.086,1.086,0,0,0-1.45.381,3.165,3.165,0,0,0-.028,1.933,7.925,7.925,0,0,0,1.616,1.175,1.572,1.572,0,0,0,2.152-.364C410.507,391.685,408.355,390.641,407.3,390.082Z" transform="translate(-405.519 -364.015)" fill="#000038"/>
        <path id="Path_5723" data-name="Path 5723" d="M420.268,396.055c-.921-1.111-2.273.2-3.11.962a1.033,1.033,0,0,0-.319.29,1.078,1.078,0,0,0,.034,1.459,1.055,1.055,0,0,0,1.36.1,4.541,4.541,0,0,0,2.036-1.313A1.09,1.09,0,0,0,420.268,396.055Z" transform="translate(-395.926 -359.089)" fill="#000038"/>
      </g>
      <g id="Group_5718" data-name="Group 5718" transform="translate(49.159 92.21)">
        <path id="Rectangle_2774" data-name="Rectangle 2774" d="M1.354,0H7.086A1.355,1.355,0,0,1,8.441,1.355V8.679a1.355,1.355,0,0,1-1.355,1.355H1.355A1.355,1.355,0,0,1,0,8.679V1.354A1.354,1.354,0,0,1,1.354,0Z" transform="translate(1.027)" fill="#4054d5"/>
        <rect id="Rectangle_2775" data-name="Rectangle 2775" width="4.393" height="6.474" rx="0.785" transform="translate(3.05 1.78)" fill="#6a85fa"/>
        <path id="Path_5724" data-name="Path 5724" d="M414.551,380.8h0a5.245,5.245,0,0,0,5.1-6.482l-1.909-7.872h-6.377l-1.907,7.872A5.245,5.245,0,0,0,414.551,380.8Z" transform="translate(-409.305 -360.716)" fill="#9fb8fc"/>
        <path id="Path_5725" data-name="Path 5725" d="M413.763,374.927h0a3.552,3.552,0,0,0,3.452-4.39h-6.9A3.553,3.553,0,0,0,413.763,374.927Z" transform="translate(-408.517 -357.162)" fill="#506aed"/>
      </g>
      <g id="Group_5719" data-name="Group 5719" transform="translate(92.639 48.541)">
        <rect id="Rectangle_2776" data-name="Rectangle 2776" width="12.443" height="14.792" rx="1.996" transform="translate(0 2.741) rotate(-12.725)" fill="#4054d5"/>
        <path id="Rectangle_2777" data-name="Rectangle 2777" d="M1.157,0h4.16A1.158,1.158,0,0,1,6.474,1.158v7.23A1.155,1.155,0,0,1,5.319,9.543H1.156A1.156,1.156,0,0,1,0,8.387V1.157A1.157,1.157,0,0,1,1.157,0Z" transform="matrix(0.976, -0.219, 0.219, 0.976, 3.492, 4.639)" fill="#6a85fa"/>
        <path id="Path_5726" data-name="Path 5726" d="M443.7,366.262h0a7.731,7.731,0,0,0,5.229-10.974l-5.3-10.7-9.174,2.07-.189,11.94A7.732,7.732,0,0,0,443.7,366.262Z" transform="translate(-431.117 -336.016)" fill="#fff"/>
        <path id="Path_5727" data-name="Path 5727" d="M441.885,357.861h0a5.237,5.237,0,0,0,3.542-7.431l-9.93,2.24A5.236,5.236,0,0,0,441.885,357.861Z" transform="translate(-430.051 -330.945)" fill="#506aed"/>
      </g>
      <g id="Group_5720" data-name="Group 5720" transform="translate(115.904 120.944)">
        <path id="Rectangle_2778" data-name="Rectangle 2778" d="M2,0h8.448a2,2,0,0,1,2,2V12.8a2,2,0,0,1-2,2H2a2,2,0,0,1-2-2V2A2,2,0,0,1,2,0Z" transform="matrix(0.999, 0.048, -0.048, 0.999, 2.569, 0)" fill="#4054d5"/>
        <path id="Rectangle_2779" data-name="Rectangle 2779" d="M1.155,0H5.318A1.156,1.156,0,0,1,6.474,1.156V8.387A1.156,1.156,0,0,1,5.318,9.543H1.157A1.157,1.157,0,0,1,0,8.386V1.155A1.155,1.155,0,0,1,1.155,0Z" transform="matrix(0.999, 0.048, -0.048, 0.999, 5.425, 2.763)" fill="#6a85fa"/>
        <path id="Path_5728" data-name="Path 5728" d="M452.4,404.673h0a7.731,7.731,0,0,0,7.961-9.185l-2.257-11.725-9.392-.448-3.364,11.456A7.734,7.734,0,0,0,452.4,404.673Z" transform="translate(-445.035 -374.806)" fill="#fff"/>
        <path id="Path_5729" data-name="Path 5729" d="M451.385,396.038h0a5.236,5.236,0,0,0,5.393-6.22l-10.166-.486A5.235,5.235,0,0,0,451.385,396.038Z" transform="translate(-443.853 -369.582)" fill="#506aed"/>
      </g>
    </g>
    <g id="Group_5726" data-name="Group 5726" transform="translate(328.866 575.031)">
      <g id="Group_5723" data-name="Group 5723" transform="translate(28.929 6.623)">
        <path id="Path_5730" data-name="Path 5730" d="M363.51,425.443h-26.7a13.246,13.246,0,0,1,13.246-13.248h.207a13.246,13.246,0,0,1,13.246,13.248Z" transform="translate(-325.737 -304.459)" fill="#93b1fb"/>
        <path id="Path_5731" data-name="Path 5731" d="M400.412,425.443h-26.7a13.249,13.249,0,0,1,13.248-13.248h.207a13.248,13.248,0,0,1,13.248,13.248Z" transform="translate(-293.71 -304.459)" fill="#93b1fb"/>
        <g id="Group_5722" data-name="Group 5722">
          <rect id="Rectangle_2780" data-name="Rectangle 2780" width="71.85" height="6.884" transform="translate(7.554 26.26)" fill="#93b1fb"/>
          <rect id="Rectangle_2781" data-name="Rectangle 2781" width="71.852" height="6.886" transform="translate(12.758 56.271)" fill="#93b1fb"/>
          <rect id="Rectangle_2782" data-name="Rectangle 2782" width="71.85" height="6.886" transform="translate(19.103 86.285)" fill="#93b1fb"/>
          <path id="Path_5732" data-name="Path 5732" d="M358.72,468.88h-8.278l-19.559-114.36h8.278Z" transform="translate(-330.883 -354.521)" fill="#93b1fb"/>
          <path id="Path_5733" data-name="Path 5733" d="M395.6,468.88h-8.28l-19.561-114.36h8.28Z" transform="translate(-298.877 -354.521)" fill="#93b1fb"/>
        </g>
      </g>
      <g id="Group_5725" data-name="Group 5725" transform="translate(0 6.623)">
        <path id="Path_5734" data-name="Path 5734" d="M352.3,425.443H379a13.247,13.247,0,0,0-13.248-13.248h-.207A13.247,13.247,0,0,0,352.3,425.443Z" transform="translate(-283.367 -304.459)" fill="#3d51c6"/>
        <path id="Path_5735" data-name="Path 5735" d="M315.4,425.443h26.7a13.247,13.247,0,0,0-13.246-13.248h-.209A13.248,13.248,0,0,0,315.4,425.443Z" transform="translate(-315.396 -304.459)" fill="#3d51c6"/>
        <g id="Group_5724" data-name="Group 5724" transform="translate(9.983)">
          <rect id="Rectangle_2783" data-name="Rectangle 2783" width="71.85" height="6.884" transform="translate(89.166 33.144) rotate(180)" fill="#3d51c6"/>
          <rect id="Rectangle_2784" data-name="Rectangle 2784" width="71.852" height="6.886" transform="translate(83.961 63.158) rotate(180)" fill="#3d51c6"/>
          <rect id="Rectangle_2785" data-name="Rectangle 2785" width="71.852" height="6.886" transform="translate(77.617 93.172) rotate(180)" fill="#3d51c6"/>
          <path id="Path_5736" data-name="Path 5736" d="M357.614,468.88h8.28l19.559-114.36h-8.278Z" transform="translate(-288.734 -354.521)" fill="#3d51c6"/>
          <path id="Path_5737" data-name="Path 5737" d="M320.74,468.88h8.28l19.561-114.36H340.3Z" transform="translate(-320.74 -354.521)" fill="#3d51c6"/>
        </g>
      </g>
      <path id="Path_5738" data-name="Path 5738" d="M334.068,364.221h83.625a6.623,6.623,0,0,0,6.624-6.622h0a6.623,6.623,0,0,0-6.624-6.624H334.068a6.623,6.623,0,0,0-6.624,6.624h0A6.623,6.623,0,0,0,334.068,364.221Z" transform="translate(-304.938 -350.975)" fill="#506aed"/>
    </g>
    <g id="Group_5733" data-name="Group 5733" transform="translate(326.542 426.27)">
      <g id="Group_5730" data-name="Group 5730" transform="translate(130.489)">
        <path id="Path_5739" data-name="Path 5739" d="M451.41,271.531l-51.3,22.573a2.264,2.264,0,0,0-1.164,2.985L434.637,378.2a2.263,2.263,0,0,0,2.985,1.162l51.3-22.573a2.264,2.264,0,0,0,1.16-2.987L454.4,272.692A2.265,2.265,0,0,0,451.41,271.531Z" transform="translate(-371.207 -271.338)" fill="#9fb8fc"/>
        <path id="Path_5740" data-name="Path 5740" d="M436.3,272.606h0a37.284,37.284,0,0,1-20.615,9.071h0l36.043,81.915h0a37.285,37.285,0,0,1,20.615-9.067h0Z" transform="translate(-356.508 -270.237)" fill="#fff"/>
        <path id="Path_5741" data-name="Path 5741" d="M439.576,276.356l-54.135,23.819a2.4,2.4,0,0,0-1.231,3.164l37.943,86.232a2.4,2.4,0,0,0,3.162,1.229l54.136-23.817a2.4,2.4,0,0,0,1.229-3.164l-37.941-86.232A2.4,2.4,0,0,0,439.576,276.356Z" transform="translate(-384.007 -267.159)" fill="#bed3fc"/>
        <g id="Group_5727" data-name="Group 5727" transform="translate(64.848 5.668)">
          <rect id="Rectangle_2786" data-name="Rectangle 2786" width="1.525" height="81.62" transform="translate(0 6.337) rotate(-23.774)" fill="#d1e1fd"/>
          <rect id="Rectangle_2787" data-name="Rectangle 2787" width="1.525" height="78.57" transform="matrix(0.916, -0.402, 0.402, 0.916, 4.99, 5.807)" fill="#d1e1fd"/>
          <rect id="Rectangle_2788" data-name="Rectangle 2788" width="1.525" height="78.57" transform="matrix(0.916, -0.402, 0.402, 0.916, 9.326, 3.899)" fill="#d1e1fd"/>
          <rect id="Rectangle_2789" data-name="Rectangle 2789" width="1.525" height="81.619" transform="translate(13.007 0.615) rotate(-23.774)" fill="#d1e1fd"/>
        </g>
        <g id="Group_5728" data-name="Group 5728" transform="translate(14.631 27.65)">
          <path id="Path_5742" data-name="Path 5742" d="M394.929,302.71l-3.09-7.024,1.429-.63,2.565,5.83,3.555-1.565.525,1.2Z" transform="translate(-391.839 -278.4)" fill="#516ad6"/>
          <path id="Path_5743" data-name="Path 5743" d="M396.521,298.283a4.9,4.9,0,0,1-.476-1.959,3.593,3.593,0,0,1,.232-1.259,3.009,3.009,0,0,1,.635-1.042,4.215,4.215,0,0,1,1.4-.951,3.633,3.633,0,0,1,2.929-.135,4.743,4.743,0,0,1,2.38,5.384,4.073,4.073,0,0,1-5,2.208A3.994,3.994,0,0,1,396.521,298.283Zm1.451-.7a2.9,2.9,0,0,0,1.358,1.577,2.085,2.085,0,0,0,2.817-1.231,2.954,2.954,0,0,0-.265-2.087,2.9,2.9,0,0,0-1.334-1.584,2.16,2.16,0,0,0-2.839,1.257A2.925,2.925,0,0,0,397.973,297.586Z" transform="translate(-388.188 -280.455)" fill="#516ad6"/>
          <path id="Path_5744" data-name="Path 5744" d="M403.533,299.529l-3.116-7.083,3.009-1.324a5.657,5.657,0,0,1,1.734-.534,1.779,1.779,0,0,1,1.125.318,2.223,2.223,0,0,1,.8.977,2.065,2.065,0,0,1,.112,1.526,2.451,2.451,0,0,1-1.115,1.268,3.659,3.659,0,0,1,1.029.26,8.577,8.577,0,0,1,1.319.79l1.474,1-1.709.753-1.713-1.087a11.26,11.26,0,0,0-1.212-.71,1.213,1.213,0,0,0-.559-.1,2.492,2.492,0,0,0-.755.235l-.291.127,1.3,2.957Zm-.368-4.717,1.057-.465a5.9,5.9,0,0,0,1.248-.652.865.865,0,0,0,.271-.474,1.024,1.024,0,0,0-.092-.6.924.924,0,0,0-.445-.493.941.941,0,0,0-.661-.039c-.12.035-.474.177-1.054.433l-1.115.491Z" transform="translate(-384.393 -282.282)" fill="#516ad6"/>
          <path id="Path_5745" data-name="Path 5745" d="M408.041,297.757l-3.118-7.083,5.253-2.313.529,1.2-3.822,1.681.689,1.571,3.557-1.565.525,1.194-3.557,1.565.846,1.926,3.958-1.741.527,1.194Z" transform="translate(-380.482 -284.212)" fill="#516ad6"/>
          <path id="Path_5746" data-name="Path 5746" d="M412.241,296.233l-3.118-7.083,2.141-.943,3.411,4.268-.856-5.391,2.145-.943,3.118,7.083-1.328.583-2.453-5.574,1.044,6.192-1.375.605-3.855-4.958,2.454,5.576Z" transform="translate(-376.837 -286.14)" fill="#516ad6"/>
          <path id="Path_5747" data-name="Path 5747" d="M398.871,308.6l-3.118-7.082,1.431-.631,3.116,7.085Z" transform="translate(-388.442 -273.343)" fill="#516ad6"/>
          <path id="Path_5748" data-name="Path 5748" d="M401.068,308.115l-3.118-7.082,2.3-1.011a9.119,9.119,0,0,1,1.747-.643,2.037,2.037,0,0,1,1.324.245,2.407,2.407,0,0,1,1.018,1.2,2.485,2.485,0,0,1,.245,1.2,2.114,2.114,0,0,1-.292.962,2.278,2.278,0,0,1-.6.661,8.844,8.844,0,0,1-1.436.757l-.934.409,1.177,2.673Zm-1.158-6.512.884,2.008.783-.346a4.1,4.1,0,0,0,1.082-.607,1.015,1.015,0,0,0,.215-1.168,1,1,0,0,0-.51-.536,1.055,1.055,0,0,0-.712-.06,6.793,6.793,0,0,0-1.052.4Z" transform="translate(-386.535 -274.669)" fill="#516ad6"/>
          <path id="Path_5749" data-name="Path 5749" d="M403.585,304.112l1.332-.747a1.87,1.87,0,0,0,.962.805,1.692,1.692,0,0,0,1.182-.129,1.731,1.731,0,0,0,.912-.749.963.963,0,0,0,.052-.839.734.734,0,0,0-.336-.362,1.335,1.335,0,0,0-.65-.08c-.194.015-.62.08-1.283.194a4.224,4.224,0,0,1-1.92.011,2.037,2.037,0,0,1-1.42-2.286,2.093,2.093,0,0,1,.57-1.108,3.91,3.91,0,0,1,1.285-.859,3.278,3.278,0,0,1,2.264-.3,2.255,2.255,0,0,1,1.394,1.25l-1.4.691a1.328,1.328,0,0,0-.74-.611,1.574,1.574,0,0,0-1.011.161,1.791,1.791,0,0,0-.863.684.562.562,0,0,0-.034.54.6.6,0,0,0,.4.338,4.151,4.151,0,0,0,1.524-.107,7.6,7.6,0,0,1,1.767-.168,2.185,2.185,0,0,1,1.1.374,2.323,2.323,0,0,1,.777,1,2.281,2.281,0,0,1,.164,1.289,2.232,2.232,0,0,1-.609,1.212,4.378,4.378,0,0,1-1.429.936,3.358,3.358,0,0,1-2.337.288A2.957,2.957,0,0,1,403.585,304.112Z" transform="translate(-382.683 -276.219)" fill="#516ad6"/>
          <path id="Path_5750" data-name="Path 5750" d="M406.257,297.755l1.431-.631,1.687,3.837a9.392,9.392,0,0,0,.57,1.16,1.263,1.263,0,0,0,.749.506,1.652,1.652,0,0,0,1.057-.151,1.573,1.573,0,0,0,.811-.656,1.078,1.078,0,0,0,.1-.775,9.2,9.2,0,0,0-.467-1.229l-1.722-3.919,1.429-.628,1.636,3.719a10.522,10.522,0,0,1,.678,1.853,2.2,2.2,0,0,1-.037,1.078,2.374,2.374,0,0,1-.581.943,3.964,3.964,0,0,1-1.266.816,4.262,4.262,0,0,1-1.642.441,2.4,2.4,0,0,1-1.1-.245,2.107,2.107,0,0,1-.745-.607,9.459,9.459,0,0,1-.932-1.737Z" transform="translate(-379.324 -278.216)" fill="#516ad6"/>
          <path id="Path_5751" data-name="Path 5751" d="M413.859,303.107l-3.116-7.083,2.141-.941,3.409,4.267-.854-5.391,2.146-.943L420.7,300.1l-1.328.585-2.453-5.578,1.046,6.194-1.377.605-3.854-4.958,2.453,5.578Z" transform="translate(-375.43 -280.173)" fill="#516ad6"/>
        </g>
        <g id="Group_5729" data-name="Group 5729" transform="translate(38.735 82.441)">
          <path id="Path_5752" data-name="Path 5752" d="M407.836,332.041l-3.093-7.024,1.431-.63,2.565,5.832,3.557-1.565.525,1.194Z" transform="translate(-404.743 -307.731)" fill="#516ad6"/>
          <path id="Path_5753" data-name="Path 5753" d="M409.426,327.614a4.928,4.928,0,0,1-.476-1.958,3.642,3.642,0,0,1,.234-1.261,3.025,3.025,0,0,1,.635-1.042,4.216,4.216,0,0,1,1.4-.951,3.629,3.629,0,0,1,2.931-.133,4.742,4.742,0,0,1,2.378,5.382,3.609,3.609,0,0,1-2.068,2.066,3.647,3.647,0,0,1-2.936.142A4.006,4.006,0,0,1,409.426,327.614Zm1.451-.695a2.876,2.876,0,0,0,1.36,1.575,2.085,2.085,0,0,0,2.815-1.231,2.959,2.959,0,0,0-.265-2.088,2.909,2.909,0,0,0-1.332-1.582,2.161,2.161,0,0,0-2.841,1.259A2.926,2.926,0,0,0,410.878,326.919Z" transform="translate(-401.091 -309.786)" fill="#516ad6"/>
          <path id="Path_5754" data-name="Path 5754" d="M416.44,328.86l-3.118-7.083,3.011-1.324a5.588,5.588,0,0,1,1.734-.532,1.772,1.772,0,0,1,1.123.316,2.261,2.261,0,0,1,.8.979,2.068,2.068,0,0,1,.108,1.524,2.459,2.459,0,0,1-1.113,1.27,3.792,3.792,0,0,1,1.031.256,9.245,9.245,0,0,1,1.315.792l1.474,1-1.709.751-1.713-1.087a11.158,11.158,0,0,0-1.21-.708,1.2,1.2,0,0,0-.56-.1,2.539,2.539,0,0,0-.755.237l-.29.125,1.3,2.957Zm-.368-4.717,1.057-.465a5.933,5.933,0,0,0,1.248-.652.857.857,0,0,0,.269-.476,1,1,0,0,0-.09-.594.931.931,0,0,0-.445-.493.962.962,0,0,0-.661-.043c-.123.035-.474.179-1.054.435l-1.117.491Z" transform="translate(-397.296 -311.613)" fill="#516ad6"/>
          <path id="Path_5755" data-name="Path 5755" d="M420.945,327.088,417.829,320l5.253-2.313.527,1.2-3.824,1.681.691,1.571,3.555-1.565.527,1.194L421,323.337l.848,1.928,3.96-1.741.525,1.194Z" transform="translate(-393.384 -313.543)" fill="#516ad6"/>
          <path id="Path_5756" data-name="Path 5756" d="M425.146,325.564l-3.118-7.083,2.143-.943,3.411,4.266-.857-5.389,2.144-.943,3.118,7.083-1.326.583-2.455-5.574,1.048,6.192-1.377.605-3.856-4.958,2.453,5.576Z" transform="translate(-389.74 -315.471)" fill="#516ad6"/>
        </g>
      </g>
      <path id="Path_5757" data-name="Path 5757" d="M328.631,403.632l-3.887,11.66-.835,8.15s-2.468-3.934-6.247-11.765l3.12-10.8Z" transform="translate(-311.105 -158.902)" fill="#f4d8d5"/>
      <path id="Path_5758" data-name="Path 5758" d="M354.056,389.775,351.226,399l6.146,5.518s-8.77.383-15.347-5.3l3.086-10.846Z" transform="translate(-289.959 -169.754)" fill="#f4d8d5"/>
      <path id="Path_5759" data-name="Path 5759" d="M363.5,343.111s31.676,26.862,30.794,33.645-27.247,50.9-27.247,50.9l-15.306-.605s4.4-26.477,17.115-47.025c.544-.878-12.473-7.239-24.323-14.785-3.312-1.022-9.181-.85-10.562-2.806-3.484-4.924.084-11.992.084-11.992S352.907,345.089,363.5,343.111Z" transform="translate(-298.277 -209.039)" fill="#fff"/>
      <path id="Path_5760" data-name="Path 5760" d="M354.491,344.143s-7.922,54.895-9.885,65.238c-1.278,6.719-13.945,55.018-13.945,55.018L317.4,460.173s2.561-40.636,4.065-53.595c.2-1.711,2.264-64.661,7.468-69.433C333.818,332.67,343.8,342.811,354.491,344.143Z" transform="translate(-311.331 -215.2)" fill="#fff"/>
      <path id="Path_5761" data-name="Path 5761" d="M337.071,406.472s-1.677,5.425-2.014,5.585-18.646-5.47-19.28-5.6,1.911-6.224,1.911-6.224S336.516,404.008,337.071,406.472Z" transform="translate(-312.828 -159.461)" fill="#93b1fb"/>
      <path id="Path_5762" data-name="Path 5762" d="M387.7,317.8l8.811-2.111,2.382,7.182-8.939,2.588Z" transform="translate(-250.311 -232.838)" fill="#f4d8d5"/>
      <path id="Path_5763" data-name="Path 5763" d="M347.459,304.682,348,314.826s-.6,6.217-4.3,6.217c-5.184,0-11.6-4.973-13.027-7.126l-.818-17.04Z" transform="translate(-300.52 -249.171)" fill="#f4d8d5"/>
      <path id="Path_5764" data-name="Path 5764" d="M365.066,337.834s1.941,5.341,45.669-11.512c0,0,.093-6.966-1.833-10.22,0,0-35.785,3.7-39.878,7.466S365.066,337.834,365.066,337.834Z" transform="translate(-269.959 -232.483)" fill="#9d0089"/>
      <path id="Path_5765" data-name="Path 5765" d="M344.395,319.047l.547-.022A13.568,13.568,0,0,0,357.934,304.9l-.25-6.009-.553-13.289a1.7,1.7,0,0,0-1.773-1.629L331.1,284.986a1.7,1.7,0,0,0-1.631,1.771l.805,19.3A13.568,13.568,0,0,0,344.395,319.047Z" transform="translate(-300.861 -260.37)" fill="#f4d8d5"/>
      <path id="Path_5766" data-name="Path 5766" d="M349.469,287.114l-.1,4.556s-5.406-.878-7.294.581-3.286,2.615-3.286,2.615l1.05-6.058,7.005-2.686Z" transform="translate(-292.768 -258.505)" fill="#dbb5bf"/>
      <path id="Path_5767" data-name="Path 5767" d="M326.79,292.521a15.426,15.426,0,0,0-1.7-.224c-1.2-.067-1.2-1.937,0-1.868a18.431,18.431,0,0,1,2.475.31,10.066,10.066,0,0,1-.327-2.651.935.935,0,0,1,1.868,0,8.649,8.649,0,0,0,.088,1.45c1.8-4.468,7.117-14.031,18.7-10.909,9.788,2.636,17.49,1.035,19.437-1.091,0,0,4.69,9.54-1.732,15.891-2.41,2.382-6.966,3.76-9.768,4.4s-5.912,6.665-5.066,11.09a30.679,30.679,0,0,1,.368,8.41,8.787,8.787,0,0,1-6.891,5.824,17.779,17.779,0,0,1-11.2-2.176C327.309,316.981,319.478,297.333,326.79,292.521Z" transform="translate(-305.752 -265.956)" fill="#000038"/>
      <path id="Path_5768" data-name="Path 5768" d="M342.229,292.5s-2.006-3.215-4.539-1.067c-3.6,3.056.674,9.781,5.565,6.921C345.072,297.294,343.978,293.421,342.229,292.5Z" transform="translate(-294.883 -254.537)" fill="#f4d8d5"/>
      <path id="Path_5769" data-name="Path 5769" d="M340.95,292.667a1.814,1.814,0,0,0-2.587-1.192,3.006,3.006,0,0,0-.9,3.921c.672,1.283,1.952,2.4,2.522,1.887s-1.115-1.479-1.274-2.352.364-1.892,1.018-1.62S341.107,293.3,340.95,292.667Z" transform="translate(-294.235 -254.072)" fill="#dbb5bf"/>
      <path id="Path_5770" data-name="Path 5770" d="M396.067,313.609a9.373,9.373,0,0,0-4.73,5.486.967.967,0,0,0-.05.4,1.066,1.066,0,0,0,.234,1.052,8.8,8.8,0,0,0,1.45,4.085,7.563,7.563,0,0,0,6.03,3.852c.093.017.187.052.284.067,2.675.385,9.153-.351,9.446-4.511a6.681,6.681,0,0,0,2.217-3.174,2.519,2.519,0,0,0-.605-2.367,6.1,6.1,0,0,0,1-4c-.159-1.055-.917-1.691-1.756-1.489a1.754,1.754,0,0,0-.911.641,2.718,2.718,0,0,0-.516-1.629.608.608,0,0,0-.669-.192c-.389.144-.486.338-.794.615-1.294,1.166-2.184,2.882-3.6,3.981a13.267,13.267,0,0,1-6.732,2.725c.22-.258.435-.529.658-.814,1.08-1.4,2.694-1.093,3.783-2.234a1.973,1.973,0,0,0,.422-2.036C400.406,312.032,397.218,313.084,396.067,313.609Z" transform="translate(-247.242 -236.217)" fill="#f4d8d5"/>
      <path id="Path_5771" data-name="Path 5771" d="M341.072,302.489a15.531,15.531,0,0,1-3.691,0l3.794,3.05Z" transform="translate(-293.989 -244.299)" fill="#dbb5bf"/>
      <path id="Path_5772" data-name="Path 5772" d="M339.9,305.211c-2.776-.786-13.739,1.726-16.577,10.825-3.708,11.88-7.345,43.472-4.317,47.884s14.7,3.572,15.2-.745S350.526,308.218,339.9,305.211Z" transform="translate(-310.911 -242.054)" fill="#9d0089"/>
      <path id="Path_5773" data-name="Path 5773" d="M321.856,347.122l-.842,6.024s34.244,6.383,51.865-3.013Z" transform="translate(-308.196 -205.557)" fill="#93b1fb"/>
      <path id="Path_5774" data-name="Path 5774" d="M350.124,303.871l-1.063,2.787-18.587.93-1.33-3.321S340.7,303.67,350.124,303.871Z" transform="translate(-301.138 -243.135)" fill="#d3e1fd"/>
      <path id="Path_5775" data-name="Path 5775" d="M382.678,384.173s-26.611,8.985-54.452,3.925c-2.578-.467-5.156-1.052-7.732-1.771l6.727-73.928a7.23,7.23,0,0,1,6.448-6.536l.067-.007c6.6-.667,21.319-1.584,34.564.551C368.3,306.406,380.331,374.887,382.678,384.173Z" transform="translate(-308.647 -242.054)" fill="url(#linear-gradient)"/>
      <path id="Path_5776" data-name="Path 5776" d="M341.131,310.335s2.393,12.531,5.165,19.38,7.134,18.056,6.977,22.726,1.7,14.789,4.117,18.837,3.5,12.116,3.5,12.116l3.87-1.132-13.889-74.985Z" transform="translate(-290.734 -240.143)" fill="#9d0089"/>
      <path id="Path_5777" data-name="Path 5777" d="M342.666,306.745c-1.76,2.285-3.5,13.4,3.893,19.412,9.654,7.857,37.631,22.973,42.854,21.8s8.778-12.323,4.952-14.382S349.408,298,342.666,306.745Z" transform="translate(-290.734 -241.865)" fill="#9d0089"/>
      <path id="Path_5778" data-name="Path 5778" d="M347.111,298.229c.441.577-3.1.665-3.1.665v-7.257Z" transform="translate(-288.232 -253.718)" fill="#f4d8d5"/>
      <g id="Group_5731" data-name="Group 5731" transform="translate(0 252.756)">
        <path id="Path_5779" data-name="Path 5779" d="M314.25,412.332s5.486-5.311,6.374-5.666,1.946,4.218,7.082,3.615l3.717,10.575s8.675,2.1,9.738,6.172c0,0-11.509.871-14.165-.715S317.614,411.979,314.25,412.332Z" transform="translate(-314.067 -406.647)" fill="#000038"/>
        <path id="Path_5780" data-name="Path 5780" d="M341.246,424.753v2.987s-17.882.861-19.651,0-8.645-16.132-7.259-17.682c4.126-4.618,9.248,12.426,12.745,13.98C330.848,425.711,341.246,424.753,341.246,424.753Z" transform="translate(-314.152 -404.372)" fill="#393958"/>
      </g>
      <g id="Group_5732" data-name="Group 5732" transform="translate(50.302 229.246)">
        <path id="Path_5781" data-name="Path 5781" d="M341.083,406.388s-.161-9.241,1.76-12.112c.532-.792,5.425,3.316,9.2-.215l8.064,4.928s15.192,5.9,15.192,9.409c0,0-10.762,0-15.652-.77C356.6,407.146,344.181,407.008,341.083,406.388Z" transform="translate(-341.08 -394.061)" fill="#000038"/>
        <path id="Path_5782" data-name="Path 5782" d="M341.08,400.66v4.252s33.869,1.616,34.222,1.349,0-3.59,0-3.59S345.24,401.015,341.08,400.66Z" transform="translate(-341.08 -388.333)" fill="#393958"/>
      </g>
      <path id="Path_5783" data-name="Path 5783" d="M334.048,354.528l9.086,1.283L367.457,370.6s-15.5,23.972-16.048,44.21l2.875.934s8.161-33.54,15.568-42.964c1.711-2.18,7-1.091,6.848-1.868s-14.12-9.03-16.556-10.119S346.19,351.847,334.048,354.528Z" transform="translate(-296.882 -199.611)" fill="#93b1fb"/>
      <path id="Path_5784" data-name="Path 5784" d="M322.419,359.452l-1.4,26.781s-3.458,30.473-3.078,38.662c0,0,4.294-34.061,5.761-35.5s3.955-2.847,1.932-5.025S322.419,359.452,322.419,359.452Z" transform="translate(-310.886 -194.855)" fill="#93b1fb"/>
      <path id="Path_5785" data-name="Path 5785" d="M362.467,390.771s-1.463,5.484-1.8,5.658-18.842-4.739-19.481-4.849,1.666-6.3,1.666-6.3S361.819,388.33,362.467,390.771Z" transform="translate(-290.779 -172.432)" fill="#93b1fb"/>
    </g>
    <g id="Group_5736" data-name="Group 5736" transform="translate(596.707 630.231)">
      <g id="Group_5735" data-name="Group 5735" clip-path="url(#clip-path)">
        <g id="Group_5734" data-name="Group 5734" transform="translate(2.955 9.776)">
          <path id="Path_5786" data-name="Path 5786" d="M532.728,424.174c-.934-8.223-10.479-5.372-14.219-.611-5.91,7.532-10.683,16.388-14.815,25.44,7.453-65.473,17.823-58.218,17.089-59.426-1.743-2.871-6.041-4.889-9.1-3.206-5.264,2.893-5.574,11.9-6.674,16.922-2.6,11.88-4.874,23.817-6.289,35.86-1.677-8.328-4.491-16.332-10.689-21.1-7.791-6-18.824-4.846-26,1.311-.374.071-2.421,2.361-1.371,2.94.482.721,34.365-10.932,34.492,42.824a1.306,1.306,0,0,0,1.186,1.416l0,0c-.714,1.81,2.21,2.6,2.918.8.572-1.457,1.179-2.9,1.78-4.347a1.476,1.476,0,0,0,1.294-1.38c.047-.637.125-1.268.183-1.9C524.277,415.462,532.89,424.507,532.728,424.174Z" transform="translate(-460.362 -385.759)" fill="#6a85fa"/>
          <path id="Path_5787" data-name="Path 5787" d="M527.846,440.976c-9.757-7.84-18.332-3.605-25,3.805,6.258-21.075.588-47.484-23.025-52.276-1.547-.314,14.169,8.229,16.171,31.338a87.468,87.468,0,0,1-1.522,22.974c-1.524-8.279-4.36-16.633-10.917-20.925-8.073-5.286-19.24,1.629-22.2,9.594a1.467,1.467,0,0,0-.09.572c-.327,1.4,17.989-16.177,26.105,2.781a85.817,85.817,0,0,1,4.877,13.515c.075.512.129,1.025.192,1.537a19.113,19.113,0,0,0-4.793-4.78c-5.058-3.387-10.831-2.838-16.565-1.961-1.259.192,16.739,1.451,21.172,15.951a1.437,1.437,0,0,0,2.6.433,1.415,1.415,0,0,0,1.6-1.532c3.237,1,6.116-2.748,7.231-5.563C512.162,435.03,528.324,441.358,527.846,440.976Z" transform="translate(-459.583 -379.911)" fill="#506aed"/>
        </g>
      </g>
    </g>
  </g>
</svg>
