<svg xmlns="http://www.w3.org/2000/svg" xmlns:xlink="http://www.w3.org/1999/xlink" width="375" height="577.163" viewBox="0 0 375 577.163">
  <defs>
    <linearGradient id="linear-gradient" x1="187.097" y1="0.5" x2="188.097" y2="0.5" gradientUnits="objectBoundingBox">
      <stop offset="0" stop-color="#db006f"/>
      <stop offset="1" stop-color="#ae2bb6"/>
    </linearGradient>
    <linearGradient id="linear-gradient-2" x1="187.097" y1="0.5" x2="188.097" y2="0.5" xlink:href="#linear-gradient"/>
    <linearGradient id="linear-gradient-3" x1="156.204" y1="0.5" x2="157.204" y2="0.5" xlink:href="#linear-gradient"/>
    <clipPath id="clip-path">
      <rect id="Rectangle_2799" data-name="Rectangle 2799" width="46.14" height="94.611" fill="none"/>
    </clipPath>
    <linearGradient id="linear-gradient-4" y1="0.5" x2="1" y2="0.5" gradientUnits="objectBoundingBox">
      <stop offset="0" stop-color="#ae2bb6"/>
      <stop offset="1" stop-color="#db006f"/>
    </linearGradient>
    <linearGradient id="linear-gradient-5" x1="-34.301" y1="0.5" x2="-33.316" y2="0.5" xlink:href="#linear-gradient-4"/>
    <linearGradient id="linear-gradient-6" x1="448.706" y1="0.5" x2="449.706" y2="0.5" xlink:href="#linear-gradient"/>
    <linearGradient id="linear-gradient-7" x1="442.91" y1="32.672" x2="443.908" y2="32.672" xlink:href="#linear-gradient"/>
    <linearGradient id="linear-gradient-8" x1="-206.096" y1="0.5" x2="-205.096" y2="0.5" xlink:href="#linear-gradient-4"/>
  </defs>
  <g id="intro_c" transform="translate(-548.855 -230.321)">
    <g id="Group_5738" data-name="Group 5738" transform="translate(548.855 230.321)">
      <path id="Path_5788" data-name="Path 5788" d="M923.025,335.719V680.07H548.855s.019-3.99.037-11.153c.076-22.693.263-77.159.448-136.7.207-57.563.412-119.845.561-162.769.091-31.383.168-52.4.186-53.628,0,0,10.608,21.146,23.309,44.937,11.785,22.078,25.358,46.433,33.881,58.255,7.459,10.33,19.932-1.065,31.6-15.814,12.885-16.221,24.819-36.511,28.065-36.4,6.711.242,19.615,18.106,33.676,40.2,22.953,36.156,48.948,83.706,55.829,84.1,15.419.9,62.036-133.083,93.009-209.311v-.019c12.083-29.762,21.8-50.72,26.331-51.409,7.774-1.2,18.981,23.1,28.548,48.65C914.651,306.629,923.025,335.719,923.025,335.719Z" transform="translate(-548.855 -230.321)" fill="#e7edfd"/>
      <path id="Path_5789" data-name="Path 5789" d="M572.911,321.111l-14.134,22.042L549.416,329.8c.091-31.383.168-52.4.186-53.628C549.6,276.174,560.211,297.32,572.911,321.111Z" transform="translate(-548.37 -190.673)" fill="#dbe6fd"/>
      <path id="Path_5790" data-name="Path 5790" d="M658.877,343.717,655.5,354.01,647.11,336.3l-10.722,26.572-18.647-25.173L607.02,351.213l-9.885-11.3c12.885-16.221,24.819-36.511,28.065-36.4C631.911,303.757,644.815,321.62,658.877,343.717Z" transform="translate(-507.108 -167.033)" fill="#dbe6fd"/>
      <path id="Path_5791" data-name="Path 5791" d="M764.945,279.013l-4.774,17.081-5.128-8.391-11.188,51.745-16.316-55.475-8.857,20.045-8.617-22.227v-.019c12.083-29.762,21.8-50.72,26.331-51.409C744.17,229.168,755.377,253.467,764.945,279.013Z" transform="translate(-409.459 -230.321)" fill="#dbe6fd"/>
    </g>
    <g id="Group_5740" data-name="Group 5740" transform="translate(756.587 334.3)">
      <path id="Rectangle_2791" data-name="Rectangle 2791" d="M.32,0H19.3a.32.32,0,0,1,.32.32v9.92a4.284,4.284,0,0,1-4.284,4.284H4.284A4.284,4.284,0,0,1,0,10.24V.32A.32.32,0,0,1,.32,0Z" transform="translate(32.074 99.196)" fill="#506aed"/>
      <rect id="Rectangle_2792" data-name="Rectangle 2792" width="1.2" height="24.655" transform="translate(26.989 75.963) rotate(-16.066)" fill="#506aed"/>
      <path id="Path_5792" data-name="Path 5792" d="M680.3,350.966,677.066,326.9l1.191-.175,3.236,24.068Z" transform="translate(-645.724 -250.941)" fill="#506aed"/>
      <rect id="Rectangle_2793" data-name="Rectangle 2793" width="24.655" height="1.201" transform="translate(48.767 99.319) rotate(-73.877)" fill="#506aed"/>
      <path id="Path_5793" data-name="Path 5793" d="M687.286,350.966l-1.187-.173,3.028-24.068,1.187.175Z" transform="translate(-637.914 -250.941)" fill="#506aed"/>
      <g id="Group_5739" data-name="Group 5739">
        <path id="Path_5794" data-name="Path 5794" d="M743.882,321.674c0,16.465-12.594,35.026-26.4,41.172H686.654c-13.8-6.146-26.4-24.707-26.4-41.172,0-22.108,20.34-35.591,41.8-35.591C723.54,286.083,743.882,299.567,743.882,321.674Z" transform="translate(-660.258 -286.083)" fill="#93b1fb"/>
        <path id="Path_5795" data-name="Path 5795" d="M732.479,321.674c0,16.465-10.86,35.045-21.806,41.172H686.221c-10.944-6.146-21.785-24.707-21.785-41.172,0-22.108,16.993-35.591,34.012-35.591C715.484,286.083,732.479,299.567,732.479,321.674Z" transform="translate(-656.645 -286.083)" fill="#fff"/>
        <path id="Path_5796" data-name="Path 5796" d="M720.329,321.674c0,16.465-8.212,35.045-16.484,41.172H685.357c-8.274-6.146-16.469-24.707-16.469-41.172,0-22.108,12.844-35.591,25.712-35.591S720.329,299.567,720.329,321.674Z" transform="translate(-652.796 -286.083)" fill="#93b1fb"/>
        <path id="Path_5797" data-name="Path 5797" d="M708.718,321.674c0,16.465-7.121,35.026-12.162,41.172H685.3c-5.04-6.146-12.158-24.707-12.158-41.172,0-22.108,9.948-35.591,17.776-35.591C698.768,286.083,708.718,299.567,708.718,321.674Z" transform="translate(-649.117 -286.083)" fill="#fff"/>
        <path id="Path_5798" data-name="Path 5798" d="M692.879,321.674c0,16.465-2.788,35.026-4.763,41.172h-4.41c-1.975-6.146-4.762-24.707-4.762-41.172,0-22.108,3.9-35.591,6.963-35.591S692.879,299.567,692.879,321.674Z" transform="translate(-644.1 -286.083)" fill="#93b1fb"/>
      </g>
      <path id="Rectangle_2794" data-name="Rectangle 2794" d="M.32,0H19.3a.32.32,0,0,1,.32.32v9.92a4.284,4.284,0,0,1-4.284,4.284H4.284A4.284,4.284,0,0,1,0,10.24V.32A.32.32,0,0,1,.32,0Z" transform="translate(32.074 98.275)" fill="#93b1fb"/>
      <path id="Path_5799" data-name="Path 5799" d="M697.375,341.069H677.82a.741.741,0,0,1-.74-.738h0a.739.739,0,0,1,.74-.737h19.555a.736.736,0,0,1,.737.737h0A.737.737,0,0,1,697.375,341.069Z" transform="translate(-645.712 -239.813)" fill="#506aed"/>
    </g>
    <g id="Group_5741" data-name="Group 5741" transform="translate(827.213 582.047)">
      <path id="Path_5800" data-name="Path 5800" d="M700.594,490c-.852-7.688,8.3-8,7.408-15.009-1.212-9.517-7.89-17.59-9.812-27.016-.53-2.6,2.8-3.727,4.518-2.109q1.723,1.619,3.45,3.241c3.666-8.428-2.251-18.555-2.633-27.2a2.646,2.646,0,0,1,4.031-2.534c8.876,5.363,11,15.732,17.545,22.887a31.789,31.789,0,0,1,2.909-5.456,2.645,2.645,0,0,1,4.455.308c4.043,9.038,2.57,18.406-.147,27.689-1.626,5.559-3.672,11.073-4.375,16.827a35.5,35.5,0,0,0-.3,4.171,13.84,13.84,0,0,0,2.157-3.983c1.447-2.909,2.667-5.95,3.992-8.911.955-2.135,4.65-2.245,4.971.373a45,45,0,0,1-10.39,34.89,2.629,2.629,0,0,1-1.641.934C718.607,516.428,701.435,497.586,700.594,490Z" transform="translate(-698.134 -418.946)" fill="#d3e1fd"/>
      <path id="Path_5801" data-name="Path 5801" d="M707.665,476.122a26.152,26.152,0,0,0,9.7,4.975,165.061,165.061,0,0,0-2.083-18.39.654.654,0,0,1-.181-1.074c-.449-2.629-.951-5.257-1.486-7.876a.627.627,0,0,1-.252.006,15.4,15.4,0,0,1-10.489-6.994c-.431-.684.742-1.229,1.165-.552a14.013,14.013,0,0,0,9.3,6.265c-1.553-7.423-3.371-14.8-5.208-22.123-.2-.781,1.076-1.013,1.27-.233,2.538,10.11,5.059,20.314,6.86,30.607,1.695-1.661,2.256-4.421,2.853-6.556a72.252,72.252,0,0,0,1.777-8.417c.123-.794,1.41-.7,1.287.1a72.346,72.346,0,0,1-2.476,10.838c-.677,2.141-1.395,4.141-3.2,5.48a165.638,165.638,0,0,1,2.165,19.335.568.568,0,0,1,.041.832c.112,2.592.153,5.186.1,7.789a9.382,9.382,0,0,0,5.559-5.794.643.643,0,0,1,1.214.42,10.625,10.625,0,0,1-6.312,6.539.655.655,0,0,1-.5,0c-.077,2.573-.22,5.148-.481,7.731-.08.8-1.369.7-1.287-.1a115.277,115.277,0,0,0,.414-16.486,26.979,26.979,0,0,1-10.487-5.286C706.3,476.644,707.035,475.6,707.665,476.122Z" transform="translate(-694.118 -409.695)" fill="#93b1fb"/>
    </g>
    <g id="Group_5754" data-name="Group 5754" transform="translate(562.326 546.687)">
      <g id="Group_5744" data-name="Group 5744" transform="translate(6.775 90.286)">
        <path id="Path_5802" data-name="Path 5802" d="M590.118,460.763a20.287,20.287,0,0,0,4.184,12.361H704.945a20.952,20.952,0,0,1-2.489-4.238,17.026,17.026,0,0,1-.688-1.872,17.877,17.877,0,0,1-.707-2.859,18.216,18.216,0,0,1-.211-1.891,14.181,14.181,0,0,1-.073-1.5c0-.334.019-.688.035-1.026a13.509,13.509,0,0,1,.194-1.887,16.742,16.742,0,0,1,.39-2.083,4.275,4.275,0,0,1,.123-.444,18.9,18.9,0,0,1,.617-1.887,20.071,20.071,0,0,1,2.808-5.035H594.3A20.291,20.291,0,0,0,590.118,460.763Z" transform="translate(-533.421 -448.402)" fill="#e7edfd"/>
        <g id="Group_5742" data-name="Group 5742" transform="translate(90.778 5.035)">
          <path id="Path_5803" data-name="Path 5803" d="M608.395,455.836v1.891h76.862a18.184,18.184,0,0,1-.211-1.891Z" transform="translate(-608.395 -447.009)" fill="#97adf5"/>
          <path id="Path_5804" data-name="Path 5804" d="M608.395,453.469v1.887h76.615a13.49,13.49,0,0,1,.194-1.887Z" transform="translate(-608.395 -449.055)" fill="#97adf5"/>
          <path id="Path_5805" data-name="Path 5805" d="M608.395,451.1v1.887h77.321a18.913,18.913,0,0,1,.617-1.887Z" transform="translate(-608.395 -451.102)" fill="#97adf5"/>
          <path id="Path_5806" data-name="Path 5806" d="M608.395,458.383v1.872h78.257a17,17,0,0,1-.688-1.872Z" transform="translate(-608.395 -444.806)" fill="#97adf5"/>
        </g>
        <path id="Path_5807" data-name="Path 5807" d="M609.275,448.4l-.88,10.392h76.68c.291-3.651,2.2-8.585,4.067-10.392Z" transform="translate(-517.617 -448.402)" fill="#252866" opacity="0.19"/>
        <path id="Path_5808" data-name="Path 5808" d="M688.817,451.052H609.928V448.4h78.889a1.325,1.325,0,0,1,1.324,1.324h0A1.325,1.325,0,0,1,688.817,451.052Z" transform="translate(-516.292 -448.402)" fill="url(#linear-gradient)"/>
        <path id="Path_5809" data-name="Path 5809" d="M688.817,462.889H609.928v-2.65h78.889a1.324,1.324,0,0,1,1.324,1.324h0A1.325,1.325,0,0,1,688.817,462.889Z" transform="translate(-516.292 -438.167)" fill="url(#linear-gradient-2)"/>
        <path id="Path_5810" data-name="Path 5810" d="M563.883,473.124h93a20.4,20.4,0,0,1,0-24.722h-93a20.4,20.4,0,0,0,0,24.722Z" transform="translate(-559.713 -448.402)" fill="url(#linear-gradient-3)"/>
        <path id="Path_5811" data-name="Path 5811" d="M566.227,469.246h83.255a14.3,14.3,0,0,1,0-19.423H566.227a14.3,14.3,0,0,0,0,19.423Z" transform="translate(-557.369 -447.173)" fill="#9f008b"/>
        <g id="Group_5743" data-name="Group 5743" transform="translate(13.852 9.612)">
          <path id="Path_5812" data-name="Path 5812" d="M567.141,459.625v-5.986h1.218v4.969h3.03v1.016Z" transform="translate(-567.141 -453.486)" fill="#fff"/>
          <path id="Path_5813" data-name="Path 5813" d="M570.24,456.714a3.822,3.822,0,0,1,.278-1.548,2.815,2.815,0,0,1,.56-.828,2.368,2.368,0,0,1,.781-.543,3.328,3.328,0,0,1,1.3-.239,2.835,2.835,0,0,1,2.135.826,3.7,3.7,0,0,1,.006,4.589,3.17,3.17,0,0,1-4.265,0A3.113,3.113,0,0,1,570.24,456.714Zm1.257-.041a2.25,2.25,0,0,0,.474,1.553,1.626,1.626,0,0,0,2.4,0,2.3,2.3,0,0,0,.466-1.574,2.276,2.276,0,0,0-.453-1.548,1.684,1.684,0,0,0-2.424.007A2.271,2.271,0,0,0,571.5,456.673Z" transform="translate(-564.461 -453.557)" fill="#fff"/>
          <path id="Path_5814" data-name="Path 5814" d="M574.477,459.649v-6.038h2.566a4.383,4.383,0,0,1,1.4.164,1.369,1.369,0,0,1,.7.578,1.731,1.731,0,0,1,.265.953,1.608,1.608,0,0,1-.4,1.121,1.912,1.912,0,0,1-1.193.558,2.907,2.907,0,0,1,.651.505,6.731,6.731,0,0,1,.694.981l.738,1.178h-1.458l-.88-1.313a8.323,8.323,0,0,0-.643-.888.911.911,0,0,0-.366-.252,2.018,2.018,0,0,0-.613-.069h-.248v2.521Zm1.218-3.485h.9a4.62,4.62,0,0,0,1.095-.073.669.669,0,0,0,.343-.255.789.789,0,0,0,.121-.453.716.716,0,0,0-.162-.492.737.737,0,0,0-.459-.237c-.1-.013-.393-.021-.888-.021h-.953Z" transform="translate(-560.798 -453.51)" fill="#fff"/>
          <path id="Path_5815" data-name="Path 5815" d="M578.323,459.649v-6.038H582.8v1.022h-3.258v1.339h3.03v1.016h-3.03v1.645h3.371v1.016Z" transform="translate(-557.472 -453.51)" fill="#fff"/>
          <path id="Path_5816" data-name="Path 5816" d="M581.909,459.649v-6.038h1.824l1.1,4.117,1.083-4.117h1.825v6.038h-1.13V454.9l-1.2,4.751h-1.175l-1.191-4.751v4.751Z" transform="translate(-554.371 -453.51)" fill="#fff"/>
          <path id="Path_5817" data-name="Path 5817" d="M587.826,459.649v-6.038h1.218v6.038Z" transform="translate(-549.255 -453.51)" fill="#fff"/>
          <path id="Path_5818" data-name="Path 5818" d="M589.7,459.649v-6.038h1.956a7.111,7.111,0,0,1,1.449.091,1.574,1.574,0,0,1,.869.593,1.867,1.867,0,0,1,.351,1.173,1.936,1.936,0,0,1-.2.934,1.664,1.664,0,0,1-.511.6,1.765,1.765,0,0,1-.632.285,6.938,6.938,0,0,1-1.264.088h-.8v2.277Zm1.218-5.016v1.714h.668a3.11,3.11,0,0,0,.962-.1.817.817,0,0,0,.384-.3.829.829,0,0,0,.136-.47.772.772,0,0,0-.194-.543.821.821,0,0,0-.489-.267,5.739,5.739,0,0,0-.878-.043Z" transform="translate(-547.633 -453.51)" fill="#fff"/>
          <path id="Path_5819" data-name="Path 5819" d="M593.076,457.732l1.186-.117a1.454,1.454,0,0,0,.434.878,1.32,1.32,0,0,0,.884.282,1.358,1.358,0,0,0,.888-.25.742.742,0,0,0,.3-.584.546.546,0,0,0-.127-.364,1,1,0,0,0-.438-.263c-.142-.049-.468-.136-.975-.263a3.32,3.32,0,0,1-1.376-.6,1.573,1.573,0,0,1-.556-1.214,1.549,1.549,0,0,1,.263-.863,1.641,1.641,0,0,1,.751-.612,3.037,3.037,0,0,1,1.19-.209,2.556,2.556,0,0,1,1.71.5,1.762,1.762,0,0,1,.6,1.331l-1.218.052a1.02,1.02,0,0,0-.336-.668,1.227,1.227,0,0,0-.772-.2,1.4,1.4,0,0,0-.832.218.438.438,0,0,0-.194.373.467.467,0,0,0,.181.367,3.23,3.23,0,0,0,1.121.4,5.955,5.955,0,0,1,1.316.434,1.7,1.7,0,0,1,.666.615,1.9,1.9,0,0,1-.047,1.932,1.727,1.727,0,0,1-.817.673,3.434,3.434,0,0,1-1.313.22,2.608,2.608,0,0,1-1.757-.53A2.3,2.3,0,0,1,593.076,457.732Z" transform="translate(-544.715 -453.557)" fill="#fff"/>
          <path id="Path_5820" data-name="Path 5820" d="M596.792,453.611h1.221v3.271a6.945,6.945,0,0,0,.043,1.009.972.972,0,0,0,.373.595,1.3,1.3,0,0,0,.806.224,1.212,1.212,0,0,0,.781-.213.833.833,0,0,0,.317-.52,6.773,6.773,0,0,0,.054-1.026v-3.34H601.6v3.17a8.246,8.246,0,0,1-.1,1.538,1.692,1.692,0,0,1-.364.757,1.86,1.86,0,0,1-.71.492,3.107,3.107,0,0,1-1.162.183,3.356,3.356,0,0,1-1.311-.2,1.879,1.879,0,0,1-.705-.518,1.688,1.688,0,0,1-.343-.669,7.3,7.3,0,0,1-.119-1.533Z" transform="translate(-541.502 -453.51)" fill="#fff"/>
          <path id="Path_5821" data-name="Path 5821" d="M600.622,459.649v-6.038h1.824l1.095,4.117,1.085-4.117h1.826v6.038h-1.13V454.9l-1.2,4.751h-1.175l-1.193-4.751v4.751Z" transform="translate(-538.19 -453.51)" fill="#fff"/>
        </g>
      </g>
      <g id="Group_5746" data-name="Group 5746" transform="translate(13.575 30.049)">
        <path id="Path_5822" data-name="Path 5822" d="M584.3,428.459a20.285,20.285,0,0,0,4.184,12.359H692.059a21.127,21.127,0,0,1-2.489-4.239,16.867,16.867,0,0,1-.688-1.872,17.667,17.667,0,0,1-.707-2.86,17.125,17.125,0,0,1-.211-1.889,14.108,14.108,0,0,1-.071-1.5c0-.336.017-.69.035-1.026a13.245,13.245,0,0,1,.194-1.889,16.176,16.176,0,0,1,.39-2.085,3.534,3.534,0,0,1,.123-.44,18.029,18.029,0,0,1,.615-1.889,19.952,19.952,0,0,1,2.808-5.033H588.481A20.282,20.282,0,0,0,584.3,428.459Z" transform="translate(-545.255 -416.098)" fill="#e7edfd"/>
        <g id="Group_5745" data-name="Group 5745" transform="translate(73.12 5.033)">
          <path id="Path_5823" data-name="Path 5823" d="M602.572,423.531v1.889h69.8a17.125,17.125,0,0,1-.211-1.889Z" transform="translate(-602.572 -414.704)" fill="#97adf5"/>
          <path id="Path_5824" data-name="Path 5824" d="M602.572,421.164v1.889h69.555a13.236,13.236,0,0,1,.194-1.889Z" transform="translate(-602.572 -416.75)" fill="#97adf5"/>
          <path id="Path_5825" data-name="Path 5825" d="M602.572,418.8v1.889h70.261a18.009,18.009,0,0,1,.615-1.889Z" transform="translate(-602.572 -418.797)" fill="#97adf5"/>
          <path id="Path_5826" data-name="Path 5826" d="M602.572,426.078v1.872h71.2a16.872,16.872,0,0,1-.688-1.872Z" transform="translate(-602.572 -412.501)" fill="#97adf5"/>
        </g>
        <path id="Path_5827" data-name="Path 5827" d="M603.454,416.1l-.882,10.39h69.616c.291-3.651,2.2-8.585,4.069-10.39Z" transform="translate(-529.452 -416.098)" fill="#252866" opacity="0.19"/>
        <path id="Path_5828" data-name="Path 5828" d="M675.932,418.746H604.106V416.1h71.826a1.325,1.325,0,0,1,1.326,1.324h0A1.325,1.325,0,0,1,675.932,418.746Z" transform="translate(-528.126 -416.098)" fill="#5e80fa"/>
        <path id="Path_5829" data-name="Path 5829" d="M675.932,430.583H604.106v-2.648h71.826a1.323,1.323,0,0,1,1.326,1.324h0A1.325,1.325,0,0,1,675.932,430.583Z" transform="translate(-528.126 -405.863)" fill="#5e80fa"/>
        <path id="Path_5830" data-name="Path 5830" d="M567.534,440.818h75.337a20.4,20.4,0,0,1,0-24.72H567.534a20.385,20.385,0,0,0,0,24.72Z" transform="translate(-563.359 -416.098)" fill="#93b1fb"/>
        <path id="Path_5831" data-name="Path 5831" d="M569.875,436.942h65.6a14.3,14.3,0,0,1,0-19.424h-65.6a14.3,14.3,0,0,0,0,19.424Z" transform="translate(-561.014 -414.87)" fill="#5e80fa"/>
      </g>
      <g id="Group_5748" data-name="Group 5748" transform="translate(0 54.624)">
        <path id="Path_5832" data-name="Path 5832" d="M578.619,447.109a36.2,36.2,0,0,0,4.507,17.83H694.642a33.8,33.8,0,0,1-2.682-6.112c-.283-.867-.531-1.783-.742-2.7a32.676,32.676,0,0,1-.759-4.127c-.116-.917-.192-1.833-.228-2.726-.06-.738-.076-1.451-.076-2.165,0-.485.017-.994.037-1.477a26.287,26.287,0,0,1,.209-2.726c.1-1.02.227-2.012.42-3.006.037-.205.076-.433.13-.636.192-.917.4-1.837.667-2.726a32.488,32.488,0,0,1,3.023-7.261H583.126A36.207,36.207,0,0,0,578.619,447.109Z" transform="translate(-536.589 -429.277)" fill="#e7edfd"/>
        <g id="Group_5747" data-name="Group 5747" transform="translate(78.722 7.261)">
          <path id="Path_5833" data-name="Path 5833" d="M598.3,440v2.726h75.149c-.116-.917-.192-1.833-.228-2.726Z" transform="translate(-598.296 -427.265)" fill="#97adf5"/>
          <path id="Path_5834" data-name="Path 5834" d="M598.3,436.586v2.726h74.882a26.287,26.287,0,0,1,.209-2.726Z" transform="translate(-598.296 -430.218)" fill="#97adf5"/>
          <path id="Path_5835" data-name="Path 5835" d="M598.3,433.171V435.9h75.641c.192-.917.4-1.837.668-2.726Z" transform="translate(-598.296 -433.171)" fill="#97adf5"/>
          <path id="Path_5836" data-name="Path 5836" d="M598.3,443.676v2.7h76.65c-.283-.867-.531-1.783-.742-2.7Z" transform="translate(-598.296 -424.087)" fill="#97adf5"/>
        </g>
        <path id="Path_5837" data-name="Path 5837" d="M599.247,429.277l-.951,14.99h74.949c.313-5.266,2.374-12.385,4.382-14.99Z" transform="translate(-519.574 -429.277)" fill="#252866" opacity="0.19"/>
        <path id="Rectangle_2795" data-name="Rectangle 2795" d="M.886,0h77.87a0,0,0,0,1,0,0V3.822a0,0,0,0,1,0,0H.886A.886.886,0,0,1,0,2.937V.886A.886.886,0,0,1,.886,0Z" transform="translate(160.557 3.823) rotate(-180)" fill="#506aed"/>
        <path id="Rectangle_2796" data-name="Rectangle 2796" d="M.885,0H78.756a0,0,0,0,1,0,0V3.82a0,0,0,0,1,0,0H.886A.886.886,0,0,1,0,2.935V.885A.885.885,0,0,1,.885,0Z" transform="translate(160.557 35.663) rotate(180)" fill="#506aed"/>
        <path id="Path_5838" data-name="Path 5838" d="M560.571,464.939h81.11c-5.987-10.532-5.987-25.129,0-35.662h-81.11c-5.989,10.534-5.989,25.13,0,35.662Z" transform="translate(-556.079 -429.277)" fill="#5e80fa"/>
        <path id="Path_5839" data-name="Path 5839" d="M563.095,459.348h70.621a26.008,26.008,0,0,1,0-28.021H563.095a26.007,26.007,0,0,0,0,28.021Z" transform="translate(-553.555 -427.504)" fill="#506aed"/>
      </g>
      <g id="Group_5749" data-name="Group 5749" transform="translate(14.505 68.52)">
        <path id="Path_5840" data-name="Path 5840" d="M563.858,445.455v-8.609h1.755v7.147h4.358v1.462Z" transform="translate(-563.858 -436.628)" fill="#fff"/>
        <path id="Path_5841" data-name="Path 5841" d="M568.3,441.27a5.514,5.514,0,0,1,.4-2.227,4.116,4.116,0,0,1,.809-1.19,3.386,3.386,0,0,1,1.121-.781,4.765,4.765,0,0,1,1.872-.343,4.073,4.073,0,0,1,3.069,1.19,5.318,5.318,0,0,1,.008,6.6,4.037,4.037,0,0,1-3.054,1.188,4.088,4.088,0,0,1-3.079-1.18A4.49,4.49,0,0,1,568.3,441.27Zm1.807-.06a3.258,3.258,0,0,0,.681,2.236,2.339,2.339,0,0,0,3.448.006,3.313,3.313,0,0,0,.673-2.266,3.257,3.257,0,0,0-.655-2.224,2.423,2.423,0,0,0-3.485.009A3.276,3.276,0,0,0,570.107,441.21Z" transform="translate(-560.017 -436.729)" fill="#fff"/>
        <path id="Path_5842" data-name="Path 5842" d="M574.377,445.488v-8.68h3.686a6.281,6.281,0,0,1,2.023.235,1.978,1.978,0,0,1,1.009.832,2.493,2.493,0,0,1,.38,1.367,2.326,2.326,0,0,1-.574,1.615,2.752,2.752,0,0,1-1.717.8,4.1,4.1,0,0,1,.938.729,9.544,9.544,0,0,1,1,1.41l1.061,1.693h-2.1l-1.266-1.889a12.064,12.064,0,0,0-.923-1.276,1.348,1.348,0,0,0-.528-.362,2.883,2.883,0,0,0-.882-.1h-.356v3.623Zm1.751-5.01h1.3a6.738,6.738,0,0,0,1.574-.1.93.93,0,0,0,.492-.369,1.115,1.115,0,0,0,.179-.649,1.042,1.042,0,0,0-.235-.709,1.072,1.072,0,0,0-.66-.341q-.213-.028-1.279-.028h-1.369Z" transform="translate(-554.762 -436.661)" fill="#fff"/>
        <path id="Path_5843" data-name="Path 5843" d="M579.9,445.488v-8.68h6.437v1.469h-4.684V440.2h4.358v1.464h-4.358v2.362h4.85v1.462Z" transform="translate(-549.991 -436.661)" fill="#fff"/>
        <path id="Path_5844" data-name="Path 5844" d="M585.036,445.488v-8.68h2.624l1.576,5.92,1.557-5.92h2.629v8.68h-1.63v-6.832l-1.723,6.832h-1.686l-1.717-6.832v6.832Z" transform="translate(-545.546 -436.661)" fill="#fff"/>
      </g>
      <g id="Group_5751" data-name="Group 5751" transform="translate(20.194)">
        <path id="Path_5845" data-name="Path 5845" d="M585.9,415.009a30.488,30.488,0,0,0,3.8,15.024h93.962a28.765,28.765,0,0,1-2.258-5.152c-.241-.731-.449-1.5-.625-2.275a28.651,28.651,0,0,1-.641-3.478c-.093-.772-.159-1.544-.192-2.294-.047-.623-.062-1.225-.062-1.826,0-.408.015-.837.03-1.246a21.61,21.61,0,0,1,.177-2.3c.08-.86.194-1.7.354-2.534.032-.172.062-.364.11-.537.16-.772.337-1.546.561-2.3a27.489,27.489,0,0,1,2.545-6.118H589.7A30.494,30.494,0,0,0,585.9,415.009Z" transform="translate(-550.486 -399.983)" fill="#e7edfd"/>
        <g id="Group_5750" data-name="Group 5750" transform="translate(66.33 6.118)">
          <path id="Path_5846" data-name="Path 5846" d="M602.48,409.02v2.294H665.8c-.093-.772-.159-1.544-.192-2.294Z" transform="translate(-602.48 -398.287)" fill="#97adf5"/>
          <path id="Path_5847" data-name="Path 5847" d="M602.48,406.142v2.3h63.1a21.609,21.609,0,0,1,.177-2.3Z" transform="translate(-602.48 -400.775)" fill="#97adf5"/>
          <path id="Path_5848" data-name="Path 5848" d="M602.48,403.264v2.3h63.737c.16-.772.337-1.546.561-2.3Z" transform="translate(-602.48 -403.264)" fill="#97adf5"/>
          <path id="Path_5849" data-name="Path 5849" d="M602.48,412.115v2.275h64.585c-.241-.731-.45-1.5-.625-2.275Z" transform="translate(-602.48 -395.611)" fill="#97adf5"/>
        </g>
        <path id="Path_5850" data-name="Path 5850" d="M603.282,399.983l-.8,12.631h63.153c.265-4.438,2-10.437,3.69-12.631Z" transform="translate(-536.15 -399.983)" fill="#252866" opacity="0.19"/>
        <path id="Rectangle_2797" data-name="Rectangle 2797" d="M.746,0H66.357a0,0,0,0,1,0,0V3.219a0,0,0,0,1,0,0H.746A.746.746,0,0,1,0,2.473V.746A.746.746,0,0,1,.746,0Z" transform="translate(135.284 3.22) rotate(180)" fill="#5e80fa"/>
        <path id="Rectangle_2798" data-name="Rectangle 2798" d="M.746,0H66.357a0,0,0,0,1,0,0V3.219a0,0,0,0,1,0,0H.746A.746.746,0,0,1,0,2.473V.746A.746.746,0,0,1,.746,0Z" transform="translate(135.284 30.049) rotate(180)" fill="#5e80fa"/>
        <path id="Path_5851" data-name="Path 5851" d="M570.695,430.032h68.343a31.717,31.717,0,0,1,0-30.049H570.693a31.717,31.717,0,0,0,0,30.049Z" transform="translate(-566.908 -399.983)" fill="#93b1fb"/>
        <path id="Path_5852" data-name="Path 5852" d="M572.819,425.319h59.506a21.912,21.912,0,0,1,0-23.609H572.819a21.919,21.919,0,0,0,0,23.609Z" transform="translate(-564.781 -398.49)" fill="#e7edfd"/>
      </g>
      <g id="Group_5752" data-name="Group 5752" transform="translate(32.416 11.708)">
        <path id="Path_5853" data-name="Path 5853" d="M573.463,413.615v-7.254h1.477v6.021h3.672v1.233Z" transform="translate(-573.463 -406.176)" fill="#506aed"/>
        <path id="Path_5854" data-name="Path 5854" d="M577.22,410.086a4.629,4.629,0,0,1,.334-1.874,3.378,3.378,0,0,1,.681-1,2.817,2.817,0,0,1,.945-.66,4,4,0,0,1,1.576-.289,3.437,3.437,0,0,1,2.588,1,4.482,4.482,0,0,1,.007,5.559,3.849,3.849,0,0,1-5.169.006A3.778,3.778,0,0,1,577.22,410.086Zm1.52-.049a2.741,2.741,0,0,0,.574,1.883,1.872,1.872,0,0,0,1.456.641,1.852,1.852,0,0,0,1.449-.636,2.794,2.794,0,0,0,.567-1.909,2.756,2.756,0,0,0-.55-1.874,2.04,2.04,0,0,0-2.937.006A2.774,2.774,0,0,0,578.74,410.038Z" transform="translate(-570.214 -406.262)" fill="#506aed"/>
        <path id="Path_5855" data-name="Path 5855" d="M582.352,413.642v-7.313h3.108a5.289,5.289,0,0,1,1.7.2,1.667,1.667,0,0,1,.85.7,2.1,2.1,0,0,1,.321,1.152,1.947,1.947,0,0,1-.485,1.358,2.315,2.315,0,0,1-1.447.677,3.47,3.47,0,0,1,.791.614,8.366,8.366,0,0,1,.841,1.186l.893,1.428h-1.766l-1.069-1.593a10.218,10.218,0,0,0-.779-1.074,1.117,1.117,0,0,0-.444-.3,2.376,2.376,0,0,0-.742-.084h-.3v3.054Zm1.477-4.222h1.091a10.424,10.424,0,0,0,1.328-.09,1.463,1.463,0,0,0,.414-.31.938.938,0,0,0,.149-.546.886.886,0,0,0-.2-.6.9.9,0,0,0-.556-.285c-.121-.017-.481-.026-1.078-.026h-1.152Z" transform="translate(-565.777 -406.204)" fill="#506aed"/>
        <path id="Path_5856" data-name="Path 5856" d="M587.014,413.642v-7.313h5.423v1.236h-3.946v1.62h3.672v1.233h-3.672v1.991h4.086v1.233Z" transform="translate(-561.746 -406.204)" fill="#506aed"/>
        <path id="Path_5857" data-name="Path 5857" d="M591.358,413.642v-7.313h2.212l1.328,4.988,1.311-4.988h2.217v7.313h-1.374v-5.758l-1.451,5.758h-1.423l-1.445-5.758v5.758Z" transform="translate(-557.989 -406.204)" fill="#506aed"/>
      </g>
      <g id="Group_5753" data-name="Group 5753" transform="translate(30.553 38.819)">
        <path id="Path_5858" data-name="Path 5858" d="M572.464,428.316V420.9h1.509v6.154h3.752v1.26Z" transform="translate(-572.464 -420.714)" fill="#fff"/>
        <path id="Path_5859" data-name="Path 5859" d="M576.3,424.711a4.758,4.758,0,0,1,.341-1.917,3.526,3.526,0,0,1,.7-1.026,2.889,2.889,0,0,1,.968-.671,4.116,4.116,0,0,1,1.609-.3,3.5,3.5,0,0,1,2.644,1.026,4.578,4.578,0,0,1,.007,5.682,3.475,3.475,0,0,1-2.629,1.022,3.51,3.51,0,0,1-2.651-1.018A3.855,3.855,0,0,1,576.3,424.711Zm1.555-.05a2.8,2.8,0,0,0,.585,1.924,1.909,1.909,0,0,0,1.49.656,1.889,1.889,0,0,0,1.481-.651,2.856,2.856,0,0,0,.58-1.951,2.8,2.8,0,0,0-.565-1.917,2.088,2.088,0,0,0-3,.008A2.824,2.824,0,0,0,577.857,424.661Z" transform="translate(-569.145 -420.801)" fill="#fff"/>
        <path id="Path_5860" data-name="Path 5860" d="M581.548,428.345v-7.476h3.176a5.368,5.368,0,0,1,1.742.2,1.726,1.726,0,0,1,.869.714,2.155,2.155,0,0,1,.326,1.179,2,2,0,0,1-.494,1.389,2.354,2.354,0,0,1-1.479.69,3.532,3.532,0,0,1,.807.628,8.433,8.433,0,0,1,.86,1.214l.912,1.458h-1.8l-1.091-1.626a10.663,10.663,0,0,0-.8-1.1,1.122,1.122,0,0,0-.453-.31,2.493,2.493,0,0,0-.761-.086h-.306v3.122Zm1.509-4.315h1.117a5.917,5.917,0,0,0,1.358-.09.831.831,0,0,0,.421-.317.966.966,0,0,0,.153-.561.892.892,0,0,0-.2-.608.922.922,0,0,0-.569-.295q-.182-.025-1.1-.024h-1.179Z" transform="translate(-564.609 -420.742)" fill="#fff"/>
        <path id="Path_5861" data-name="Path 5861" d="M586.312,428.345v-7.476h5.542v1.266H587.82v1.656h3.754v1.259H587.82v2.034H592v1.261Z" transform="translate(-560.49 -420.742)" fill="#fff"/>
        <path id="Path_5862" data-name="Path 5862" d="M590.752,428.345v-7.476h2.258l1.356,5.1,1.341-5.1h2.266v7.476h-1.4v-5.883l-1.484,5.883h-1.453l-1.479-5.883v5.883Z" transform="translate(-556.651 -420.742)" fill="#fff"/>
      </g>
    </g>
    <g id="Group_5757" data-name="Group 5757" transform="translate(549.519 577.062)">
      <g id="Group_5756" data-name="Group 5756" clip-path="url(#clip-path)">
        <g id="Group_5755" data-name="Group 5755" transform="translate(-22.087 23.74)">
          <path id="Path_5863" data-name="Path 5863" d="M539.867,479.4c8.315-7.4,16.118-4.024,22.371,2.258-6.5-18.432-2.652-42.14,18.1-47.453,1.359-.347-12.212,7.944-12.956,28.554a77.658,77.658,0,0,0,2.385,20.331c.983-7.42,3.123-14.964,8.755-19.068,6.931-5.057,17.159.584,20.142,7.524a1.3,1.3,0,0,1,.1.505c.354,1.221-16.7-13.56-23.055,3.636a75.831,75.831,0,0,0-3.726,12.221c-.045.459-.071.916-.1,1.372a16.953,16.953,0,0,1,4.043-4.458c4.339-3.235,9.488-3.006,14.619-2.482,1.13.114-14.8,2.038-18.084,15.111a1.28,1.28,0,0,1-2.288.5,1.257,1.257,0,0,1-1.484-1.29c-2.832,1.031-5.553-2.167-6.672-4.617C553.528,473.413,539.461,479.757,539.867,479.4Z" transform="translate(-535.211 -424.517)" fill="#fff"/>
          <path id="Path_5864" data-name="Path 5864" d="M565.789,494.164c.08.561.179,1.117.248,1.682a1.315,1.315,0,0,0,1.212,1.167c.6,1.255,1.2,2.51,1.777,3.78.709,1.559,3.269.731,2.553-.845l0,0a1.159,1.159,0,0,0,.99-1.309c-2.294-47.742,28.313-38.91,28.711-39.572.906-.563-1.012-2.5-1.348-2.551-6.646-5.147-16.495-5.674-23.145,0-5.288,4.514-7.431,11.748-8.546,19.217-1.8-10.631-4.35-21.129-7.192-31.56-1.2-4.414-1.878-12.4-6.685-14.729-2.793-1.356-6.521.627-7.94,3.254-.6,1.106,8.287-5.8,17.838,52-4.074-7.854-8.708-15.5-14.3-21.925-3.53-4.063-12.137-6.165-12.6,1.179C537.234,464.258,544.478,455.841,565.789,494.164Z" transform="translate(-537.366 -429.004)" fill="#9fb8fc"/>
        </g>
      </g>
    </g>
    <g id="Group_5758" data-name="Group 5758" transform="translate(549.519 662.039)">
      <path id="Path_5865" data-name="Path 5865" d="M923.547,461.844v97.337A48.105,48.105,0,0,1,875.44,607.29h-278.1a48.122,48.122,0,0,1-48.128-48.109V461.844Z" transform="translate(-549.211 -461.844)" fill="#fff"/>
      <path id="Path_5866" data-name="Path 5866" d="M923.547,527.237V585.1H549.211V522.241c2.351-3.619,24.681,15.488,49.949,13.756,27.038-1.865,43.511-39.781,58.428-39.781s34.806,50.037,45.994,47.24,46.015-56.761,58.428-55.941c28.28,1.865,45.062,34.806,72.1,31.077s36.518,6.838,48.638,13.364C890,535.854,909.245,531.432,923.547,527.237Z" transform="translate(-549.211 -439.654)" fill="#e7edfd"/>
      <circle id="Ellipse_600" data-name="Ellipse 600" cx="12.587" cy="12.587" r="12.587" transform="translate(298.419 24.086)" fill="#e7edfd"/>
    </g>
    <g id="Group_5768" data-name="Group 5768" transform="translate(665.816 541.664)">
      <path id="Path_5867" data-name="Path 5867" d="M808.494,510.373H655.366a7,7,0,0,1-7.088-8.249l13.575-96.587a9.812,9.812,0,0,1,9.406-8.247H824.387a7,7,0,0,1,7.088,8.247L817.9,502.124A9.811,9.811,0,0,1,808.494,510.373Z" transform="translate(-579.917 -397.289)" fill="#506aed"/>
      <path id="Path_5868" data-name="Path 5868" d="M803.2,510.373H650.071a7,7,0,0,1-7.088-8.249l13.577-96.587a9.81,9.81,0,0,1,9.406-8.247H819.094a7,7,0,0,1,7.088,8.247l-13.573,96.587A9.815,9.815,0,0,1,803.2,510.373Z" transform="translate(-584.495 -397.289)" fill="#93b1fb"/>
      <path id="Path_5869" data-name="Path 5869" d="M791.115,501.372H654.64a6.242,6.242,0,0,1-6.32-7.352l12.1-86.081a8.749,8.749,0,0,1,8.384-7.351H805.279a6.241,6.241,0,0,1,6.318,7.351l-12.1,86.081A8.744,8.744,0,0,1,791.115,501.372Z" transform="translate(-579.872 -394.437)" fill="#506aed"/>
      <path id="Rectangle_2800" data-name="Rectangle 2800" d="M0,0H228.557a0,0,0,0,1,0,0V12.151a5.5,5.5,0,0,1-5.5,5.5H5.5a5.5,5.5,0,0,1-5.5-5.5V0A0,0,0,0,1,0,0Z" transform="translate(10.121 103.21)" fill="#394fc0"/>
      <path id="Rectangle_2801" data-name="Rectangle 2801" d="M0,0H228.555a0,0,0,0,1,0,0V12.151a5.5,5.5,0,0,1-5.5,5.5H5.5a5.5,5.5,0,0,1-5.5-5.5V0A0,0,0,0,1,0,0Z" transform="translate(0.249 103.21)" fill="#506aed"/>
      <g id="Group_5759" data-name="Group 5759" transform="translate(11.616 99.302)">
        <rect id="Rectangle_2802" data-name="Rectangle 2802" width="17.35" height="3.89" fill="#e7edfd"/>
        <rect id="Rectangle_2803" data-name="Rectangle 2803" width="17.352" height="3.89" transform="translate(20.417)" fill="#e7edfd"/>
        <rect id="Rectangle_2804" data-name="Rectangle 2804" width="17.352" height="3.89" transform="translate(40.836)" fill="#e7edfd"/>
        <rect id="Rectangle_2805" data-name="Rectangle 2805" width="57.516" height="3.89" transform="translate(61.254)" fill="#e7edfd"/>
        <rect id="Rectangle_2806" data-name="Rectangle 2806" width="17.352" height="3.89" transform="translate(122.505)" fill="#e7edfd"/>
        <rect id="Rectangle_2807" data-name="Rectangle 2807" width="17.354" height="3.89" transform="translate(142.922)" fill="#e7edfd"/>
        <rect id="Rectangle_2808" data-name="Rectangle 2808" width="17.352" height="3.89" transform="translate(163.34)" fill="#e7edfd"/>
        <rect id="Rectangle_2809" data-name="Rectangle 2809" width="17.35" height="3.89" transform="translate(183.759)" fill="#e7edfd"/>
      </g>
      <rect id="Rectangle_2810" data-name="Rectangle 2810" width="228.736" height="6.508" transform="translate(0 103.202)" fill="#fff"/>
      <g id="Group_5760" data-name="Group 5760" transform="translate(188.761 15.537)">
        <path id="Path_5870" data-name="Path 5870" d="M746.47,408.746l-2.338,16.646a3.72,3.72,0,0,1-3.567,3.125h-24.95a2.656,2.656,0,0,1-2.687-3.125l2.34-16.646a3.718,3.718,0,0,1,3.567-3.125h24.948A2.652,2.652,0,0,1,746.47,408.746Z" transform="translate(-712.731 -405.621)" fill="#c7d7f7"/>
        <path id="Path_5871" data-name="Path 5871" d="M745.209,415.4l-1.179,8.382a2.208,2.208,0,0,1-2.118,1.857H714.424a1.579,1.579,0,0,1-1.6-1.857l.1-.714,7.914-7.617a.852.852,0,0,1,1.249-.022l4.378,5.3a.856.856,0,0,0,1.242-.017l12.156-11.49a.841.841,0,0,1,1.287.043Z" transform="translate(-712.808 -402.743)" fill="#fff"/>
        <path id="Path_5872" data-name="Path 5872" d="M722.327,410.152a2.652,2.652,0,0,0-2.683-3.123,3.721,3.721,0,0,0-3.565,3.123,2.655,2.655,0,0,0,2.687,3.123A3.715,3.715,0,0,0,722.327,410.152Z" transform="translate(-710.007 -404.404)" fill="#fff"/>
      </g>
      <g id="Group_5763" data-name="Group 5763" transform="translate(86.768 15.533)">
        <path id="Path_5873" data-name="Path 5873" d="M742.065,447.049h-81.23a2.661,2.661,0,0,1-2.693-3.135l4.94-35.161a3.731,3.731,0,0,1,3.577-3.135h81.228a2.661,2.661,0,0,1,2.694,3.135l-4.941,35.161A3.731,3.731,0,0,1,742.065,447.049Z" transform="translate(-658.111 -405.619)" fill="#c7d7f7"/>
        <g id="Group_5762" data-name="Group 5762" transform="translate(18.906 4.467)">
          <path id="Path_5874" data-name="Path 5874" d="M675.365,415.356c-.062.835,5.993,1.119,13.526.634s13.694-1.555,13.756-2.392-5.991-1.119-13.526-.632S675.429,414.52,675.365,415.356Z" transform="translate(-662.098 -403.94)" fill="#71aeee"/>
          <path id="Path_5875" data-name="Path 5875" d="M688.68,429.4a77.168,77.168,0,0,1-14.278-1.1l1.952-14.149,27.172-.634-1.645,14.062A57.259,57.259,0,0,1,688.68,429.4Z" transform="translate(-662.93 -403.261)" fill="#779ffb"/>
          <g id="Group_5761" data-name="Group 5761" transform="translate(1.473 9.884)">
            <path id="Path_5876" data-name="Path 5876" d="M669.115,423.188l2.385-2.394,0,0,.007-.007.007-.006.007-.006.006-.006.006,0,.005-.006.013-.007.006,0,0,0,0,0,0,0,.011,0,.007,0,.011,0,0,0,.006,0,.009,0h.005l.017,0h.006l.011,0,.008,0h.022l.007,0h.007l.011,0h.007l.013,0,.006,0,.007,0,.006,0,0,0,.011,0,0,0,.009,0,.005,0,0,0,.006,0,.007.007.006.008.005,0,0,0,.006.006.005.008.006.007,0,0,1.661,2.432a.239.239,0,0,1-.073.31.25.25,0,0,1-.149.048.184.184,0,0,1-.157-.078l-.339-.5.237.563a.241.241,0,0,1-.125.3.233.233,0,0,1-.114.028.185.185,0,0,1-.173-.112l-.239-.563.131.612a.253.253,0,0,1-.173.278.237.237,0,0,1-.076.013.183.183,0,0,1-.185-.145l-.129-.61.017.636a.261.261,0,0,1-.216.254l-.039,0a.184.184,0,0,1-.188-.181l-.015-.638-.1.645a.263.263,0,0,1-.252.218.189.189,0,0,1-.187-.224l.1-.645-.207.636a.268.268,0,0,1-.244.179l-.037,0a.191.191,0,0,1-.14-.255l.211-.636-.313.6a.238.238,0,0,1-.3.129.194.194,0,0,1-.088-.282l.313-.6-.406.558a.264.264,0,0,1-.209.1.2.2,0,0,1-.1-.028.205.205,0,0,1-.037-.3l.408-.556-.49.489a.241.241,0,0,1-.179.076.176.176,0,0,1-.132-.052A.216.216,0,0,1,669.115,423.188Z" transform="translate(-669.04 -406.915)" fill="#779ffb"/>
            <path id="Path_5877" data-name="Path 5877" d="M672.214,413.675a.714.714,0,0,1,0,.125l-2.023,13.459.875.007,2.021-13.457C673.212,412.977,672.2,413.384,672.214,413.675Z" transform="translate(-668.046 -413.315)" fill="#779ffb"/>
            <path id="Path_5878" data-name="Path 5878" d="M669.98,421.194a1.04,1.04,0,0,1,1.005-.869.744.744,0,0,1,.744.886,1.044,1.044,0,0,1-1.007.869A.744.744,0,0,1,669.98,421.194Z" transform="translate(-668.236 -407.254)" fill="#6092f8"/>
          </g>
          <path id="Path_5879" data-name="Path 5879" d="M694.485,426.454l-26.235-7.861.129-1.043,2.407-.044.315-.133.925-.4,23.52-8.4,23.942,8.406,1.628-.382-.127,1.042Z" transform="translate(-668.25 -407.532)" fill="#6092f8"/>
          <path id="Path_5880" data-name="Path 5880" d="M695.613,408.015,668.32,418.032l26.233,7.863,26.5-8.817Z" transform="translate(-668.189 -408.015)" fill="#779ffb"/>
        </g>
        <path id="Path_5881" data-name="Path 5881" d="M701.569,420.527a10.622,10.622,0,0,0-10.754-12.512,14.889,14.889,0,0,0-14.272,12.512c-.97,6.912,3.845,12.514,10.756,12.514A14.884,14.884,0,0,0,701.569,420.527Z" transform="translate(-642.281 -403.547)" fill="#fff"/>
        <path id="Path_5882" data-name="Path 5882" d="M692.92,417.332l-9.708-6.1a.531.531,0,0,0-.807.377l-1.715,12.2a.533.533,0,0,0,.778.543l11.421-6.1A.53.53,0,0,0,692.92,417.332Z" transform="translate(-638.592 -400.837)" fill="url(#linear-gradient-4)"/>
        <path id="Path_5883" data-name="Path 5883" d="M739.752,425.53a1.986,1.986,0,0,1-1.911,1.676H662a1.42,1.42,0,0,1-1.441-1.676,2,2,0,0,1,1.915-1.678h75.837A1.423,1.423,0,0,1,739.752,425.53Z" transform="translate(-656.009 -389.853)" fill="#fff"/>
        <path id="Path_5884" data-name="Path 5884" d="M677.328,423.852l-.472,3.355H662a1.42,1.42,0,0,1-1.441-1.676,2,2,0,0,1,1.915-1.678Z" transform="translate(-656.009 -389.853)" fill="url(#linear-gradient-5)"/>
      </g>
      <g id="Group_5764" data-name="Group 5764" transform="translate(83.743 62.185)">
        <path id="Path_5885" data-name="Path 5885" d="M663.276,432.669h-4.643c-.4,0-.669-.455-.591-1.016s.472-1.014.875-1.014h4.643c.4,0,.669.453.591,1.014S663.68,432.669,663.276,432.669Z" transform="translate(-655.158 -430.638)" fill="#fff"/>
        <path id="Path_5886" data-name="Path 5886" d="M690.213,432.669H663.576c-.4,0-.667-.455-.587-1.016s.47-1.014.875-1.014H690.5c.4,0,.667.453.589,1.014S690.618,432.669,690.213,432.669Z" transform="translate(-650.881 -430.638)" fill="#fff"/>
        <path id="Path_5887" data-name="Path 5887" d="M662.12,440.882h-4.643c-.4,0-.668-.455-.589-1.014s.47-1.016.875-1.016h4.643c.4,0,.669.455.589,1.016S662.524,440.882,662.12,440.882Z" transform="translate(-656.156 -423.536)" fill="#fff"/>
        <path id="Path_5888" data-name="Path 5888" d="M689.059,440.882H662.422c-.4,0-.668-.455-.587-1.014s.47-1.016.875-1.016h26.637c.4,0,.666.455.586,1.016S689.464,440.882,689.059,440.882Z" transform="translate(-651.879 -423.536)" fill="#fff"/>
        <path id="Path_5889" data-name="Path 5889" d="M684.819,435.408H658.247c-.4,0-.667-.455-.591-1.016s.472-1.016.875-1.016H685.1c.4,0,.669.455.589,1.016S685.224,435.408,684.819,435.408Z" transform="translate(-655.491 -428.271)" fill="#fff"/>
        <path id="Path_5890" data-name="Path 5890" d="M679.778,435.408h-4.964c-.4,0-.667-.455-.589-1.016s.47-1.016.873-1.016h4.969c.4,0,.666.455.586,1.016S680.183,435.408,679.778,435.408Z" transform="translate(-641.164 -428.271)" fill="#fff"/>
        <path id="Path_5891" data-name="Path 5891" d="M683.663,443.62H657.091c-.4,0-.666-.455-.589-1.016s.472-1.014.875-1.014H683.95c.4,0,.668.453.587,1.014S684.068,443.62,683.663,443.62Z" transform="translate(-656.489 -421.169)" fill="#fff"/>
        <path id="Path_5892" data-name="Path 5892" d="M678.625,443.62h-4.966c-.4,0-.666-.455-.589-1.016s.47-1.014.875-1.014h4.967c.4,0,.667.453.589,1.014S679.03,443.62,678.625,443.62Z" transform="translate(-642.163 -421.169)" fill="#fff"/>
        <path id="Path_5893" data-name="Path 5893" d="M668.566,438.144H657.861c-.4,0-.666-.453-.587-1.014s.468-1.016.871-1.016h10.709c.4,0,.666.455.587,1.016S668.971,438.144,668.566,438.144Z" transform="translate(-655.822 -425.904)" fill="#fff"/>
        <path id="Path_5894" data-name="Path 5894" d="M686.033,438.144H666.751c-.4,0-.667-.453-.589-1.014s.472-1.016.875-1.016h19.286c.4,0,.666.455.586,1.016S686.438,438.144,686.033,438.144Z" transform="translate(-648.137 -425.904)" fill="#fff"/>
      </g>
      <g id="Group_5765" data-name="Group 5765" transform="translate(130.819 62.185)">
        <path id="Path_5895" data-name="Path 5895" d="M688.521,432.669h-4.643c-.4,0-.668-.455-.589-1.016s.472-1.014.873-1.014h4.645c.4,0,.667.453.589,1.014S688.925,432.669,688.521,432.669Z" transform="translate(-680.404 -430.638)" fill="#fff"/>
        <path id="Path_5896" data-name="Path 5896" d="M715.46,432.669H688.821c-.4,0-.666-.455-.586-1.016s.468-1.014.873-1.014h26.637c.4,0,.668.453.587,1.014S715.863,432.669,715.46,432.669Z" transform="translate(-676.126 -430.638)" fill="#fff"/>
        <path id="Path_5897" data-name="Path 5897" d="M687.367,440.882h-4.645c-.4,0-.666-.455-.587-1.014s.47-1.016.873-1.016h4.645c.4,0,.666.455.588,1.016S687.77,440.882,687.367,440.882Z" transform="translate(-681.401 -423.536)" fill="#fff"/>
        <path id="Path_5898" data-name="Path 5898" d="M714.307,440.882H687.668c-.4,0-.667-.455-.587-1.014s.47-1.016.875-1.016h26.637c.4,0,.667.455.589,1.016S714.71,440.882,714.307,440.882Z" transform="translate(-677.125 -423.536)" fill="#fff"/>
        <path id="Path_5899" data-name="Path 5899" d="M710.064,435.408H683.492c-.4,0-.668-.455-.587-1.016s.468-1.016.871-1.016h26.574c.4,0,.669.455.589,1.016S710.468,435.408,710.064,435.408Z" transform="translate(-680.736 -428.271)" fill="#fff"/>
        <path id="Path_5900" data-name="Path 5900" d="M705.024,435.408h-4.964c-.4,0-.668-.455-.589-1.016s.47-1.016.875-1.016h4.967c.4,0,.666.455.586,1.016S705.429,435.408,705.024,435.408Z" transform="translate(-666.41 -428.271)" fill="#fff"/>
        <path id="Path_5901" data-name="Path 5901" d="M708.911,443.62H682.339c-.4,0-.668-.455-.591-1.016s.472-1.014.875-1.014H709.2c.4,0,.668.453.587,1.014S709.314,443.62,708.911,443.62Z" transform="translate(-681.735 -421.169)" fill="#fff"/>
        <path id="Path_5902" data-name="Path 5902" d="M703.871,443.62h-4.964c-.4,0-.668-.455-.589-1.016s.468-1.014.873-1.014h4.968c.4,0,.668.453.587,1.014S704.275,443.62,703.871,443.62Z" transform="translate(-667.408 -421.169)" fill="#fff"/>
        <path id="Path_5903" data-name="Path 5903" d="M693.814,438.144H683.107c-.4,0-.666-.453-.587-1.014s.47-1.016.871-1.016H694.1c.4,0,.666.455.587,1.016S694.219,438.144,693.814,438.144Z" transform="translate(-681.069 -425.904)" fill="#fff"/>
        <path id="Path_5904" data-name="Path 5904" d="M711.283,438.144H692c-.406,0-.669-.453-.589-1.014s.47-1.016.875-1.016h19.285c.4,0,.666.455.585,1.016S711.684,438.144,711.283,438.144Z" transform="translate(-673.383 -425.904)" fill="#fff"/>
      </g>
      <g id="Group_5766" data-name="Group 5766" transform="translate(184.452 44.71)">
        <path id="Path_5905" data-name="Path 5905" d="M716.531,423.071H712.4c-.36,0-.593-.4-.524-.9s.42-.9.776-.9h4.13c.36,0,.593.4.524.9S716.891,423.071,716.531,423.071Z" transform="translate(-709.314 -421.266)" fill="#fff"/>
        <path id="Path_5906" data-name="Path 5906" d="M740.49,423.071H716.8c-.362,0-.595-.4-.526-.9s.42-.9.778-.9h23.691c.358,0,.593.4.524.9S740.849,423.071,740.49,423.071Z" transform="translate(-705.511 -421.266)" fill="#fff"/>
        <path id="Path_5907" data-name="Path 5907" d="M715.505,430.376h-4.13c-.358,0-.593-.4-.522-.9s.416-.9.778-.9h4.13c.356,0,.593.4.522.9S715.863,430.376,715.505,430.376Z" transform="translate(-710.201 -414.951)" fill="#fff"/>
        <path id="Path_5908" data-name="Path 5908" d="M739.463,430.376H715.772c-.356,0-.593-.4-.52-.9s.418-.9.776-.9h23.689c.36,0,.595.4.522.9S739.821,430.376,739.463,430.376Z" transform="translate(-706.398 -414.951)" fill="#fff"/>
        <path id="Path_5909" data-name="Path 5909" d="M735.69,425.507H712.061c-.36,0-.593-.4-.524-.9s.418-.9.776-.9h23.633c.358,0,.593.4.522.9S736.052,425.507,735.69,425.507Z" transform="translate(-709.609 -419.161)" fill="#fff"/>
        <path id="Path_5910" data-name="Path 5910" d="M731.21,425.507h-4.418c-.356,0-.591-.4-.52-.9s.418-.9.776-.9h4.418c.356,0,.593.4.522.9S731.569,425.507,731.21,425.507Z" transform="translate(-696.868 -419.161)" fill="#fff"/>
        <path id="Path_5911" data-name="Path 5911" d="M734.665,432.811H711.034c-.36,0-.593-.4-.524-.9s.419-.9.778-.9h23.631c.36,0,.593.4.524.9S735.023,432.811,734.665,432.811Z" transform="translate(-710.497 -412.846)" fill="#fff"/>
        <path id="Path_5912" data-name="Path 5912" d="M730.185,432.811h-4.416c-.362,0-.595-.4-.526-.9s.42-.9.778-.9h4.417c.36,0,.593.4.524.9S730.543,432.811,730.185,432.811Z" transform="translate(-697.757 -412.846)" fill="#fff"/>
        <path id="Path_5913" data-name="Path 5913" d="M721.239,427.942h-9.521c-.358,0-.595-.4-.524-.9s.42-.9.778-.9h9.521c.36,0,.593.4.524.9S721.6,427.942,721.239,427.942Z" transform="translate(-709.906 -417.056)" fill="#fff"/>
        <path id="Path_5914" data-name="Path 5914" d="M736.773,427.942H719.624c-.36,0-.593-.4-.524-.9s.418-.9.778-.9h17.151c.356,0,.591.4.52.9S737.133,427.942,736.773,427.942Z" transform="translate(-703.07 -417.056)" fill="#fff"/>
      </g>
      <g id="Group_5767" data-name="Group 5767" transform="translate(180.726 68.813)">
        <path id="Path_5915" data-name="Path 5915" d="M714.441,438.434h-4.128c-.358,0-.593-.4-.522-.9s.418-.9.776-.9h4.13c.36,0,.593.4.524.9S714.8,438.434,714.441,438.434Z" transform="translate(-707.393 -432.086)" fill="#fff"/>
        <path id="Path_5916" data-name="Path 5916" d="M738.4,438.434H714.712c-.36,0-.593-.4-.522-.9s.418-.9.776-.9h23.691c.356,0,.593.4.522.9S738.759,438.434,738.4,438.434Z" transform="translate(-703.59 -432.086)" fill="#fff"/>
        <path id="Path_5917" data-name="Path 5917" d="M733.6,440.868H709.972c-.36,0-.595-.4-.524-.9s.418-.9.778-.9h23.633c.358,0,.593.4.52.9S733.963,440.868,733.6,440.868Z" transform="translate(-707.69 -429.98)" fill="#fff"/>
        <path id="Path_5918" data-name="Path 5918" d="M729.122,440.868H724.7c-.358,0-.593-.4-.522-.9s.416-.9.778-.9h4.415c.358,0,.593.4.522.9S729.482,440.868,729.122,440.868Z" transform="translate(-694.949 -429.98)" fill="#fff"/>
        <path id="Path_5919" data-name="Path 5919" d="M713.506,442.934h-4.13c-.358,0-.593-.4-.522-.9s.418-.9.778-.9h4.128c.36,0,.593.4.524.9S713.864,442.934,713.506,442.934Z" transform="translate(-708.203 -428.195)" fill="#fff"/>
        <path id="Path_5920" data-name="Path 5920" d="M737.463,442.934H713.776c-.36,0-.593-.4-.524-.9s.42-.9.778-.9h23.689c.36,0,.595.4.524.9S737.824,442.934,737.463,442.934Z" transform="translate(-704.4 -428.195)" fill="#fff"/>
        <path id="Path_5921" data-name="Path 5921" d="M732.665,445.368H709.034c-.358,0-.593-.4-.522-.9s.416-.9.776-.9h23.633c.356,0,.593.4.522.9S733.025,445.368,732.665,445.368Z" transform="translate(-708.499 -426.091)" fill="#fff"/>
        <path id="Path_5922" data-name="Path 5922" d="M728.186,445.368h-4.417c-.36,0-.595-.4-.524-.9s.418-.9.777-.9h4.418c.358,0,.593.4.522.9S728.546,445.368,728.186,445.368Z" transform="translate(-695.76 -426.091)" fill="#fff"/>
        <path id="Path_5923" data-name="Path 5923" d="M720.178,436h-9.523c-.358,0-.591-.406-.522-.9s.42-.9.776-.9h9.523c.358,0,.593.4.522.9S720.536,436,720.178,436Z" transform="translate(-707.097 -434.192)" fill="#fff"/>
        <path id="Path_5924" data-name="Path 5924" d="M735.711,436H718.56c-.358,0-.593-.406-.522-.9s.418-.9.778-.9h17.15c.36,0,.595.4.524.9S736.071,436,735.711,436Z" transform="translate(-700.262 -434.192)" fill="#fff"/>
      </g>
    </g>
    <g id="Group_5772" data-name="Group 5772" transform="translate(584.334 407.752)">
      <path id="Path_5925" data-name="Path 5925" d="M646.929,421.756l4.155,10.161,6.9,1.346s-7.229,6.571-14.912,2.864l-3.854-11.7Z" transform="translate(-506.201 -242.22)" fill="#f4d8d5"/>
      <path id="Path_5926" data-name="Path 5926" d="M638.942,388.564c6.185,5.924,26.13,65.622,26.13,65.622l-11.988,6.088s-22.354-46.945-29.665-58.846C622.452,399.859,633.652,383.5,638.942,388.564Z" transform="translate(-519.911 -271.759)" fill="#fff"/>
      <path id="Path_5927" data-name="Path 5927" d="M589.025,388.047s1.8,18.114,15.139,18.149,62.178,8.031,64.1,6.536,6.655-14.164-1.66-18.556c-6.8-3.591-52.933-14.211-52.933-14.211Z" transform="translate(-549.6 -278.356)" fill="#fff"/>
      <path id="Path_5928" data-name="Path 5928" d="M632.562,426.851l.136,10.977,5.92,3.785s-9.137,3.459-14.923-2.81l.71-12.3Z" transform="translate(-519.621 -238.113)" fill="#f4d8d5"/>
      <path id="Path_5929" data-name="Path 5929" d="M630.39,391.307c5.165,6.832,15.342,68.943,15.342,68.943l-13.153,4.214s-15.233-49.673-20.556-62.588C611.321,400.173,625.974,385.463,630.39,391.307Z" transform="translate(-529.735 -269.729)" fill="#fff"/>
      <path id="Path_5930" data-name="Path 5930" d="M670.909,458.412s-23.7-51.577-30.717-56.183-38.739-14.992-38.739-14.992,19.3-.789,28.308.835,13.87,2.853,16.469,7.282,28.2,59.141,28.2,59.141Z" transform="translate(-538.853 -272.234)" fill="#c1d5fc"/>
      <path id="Path_5931" data-name="Path 5931" d="M640.241,426.156s1.468,5.374,1.272,5.685-18.315,5.288-18.912,5.51-1.695-6.161-1.695-6.161S638.486,424.409,640.241,426.156Z" transform="translate(-522.032 -238.664)" fill="#5b85f7"/>
      <path id="Path_5932" data-name="Path 5932" d="M578.965,393.619s3.063,20.894,16.3,19.273,69.644,1.052,68.975-1.29c-2.439-8.523-5.676-18.024-13.3-19.016s-49.483-6.9-49.483-6.9Z" transform="translate(-558.298 -273.408)" fill="#fff"/>
      <g id="Group_5769" data-name="Group 5769" transform="translate(103.017 199.715)">
        <path id="Path_5933" data-name="Path 5933" d="M623.4,443.843c.94,1.352,11,1.277,14.889,2.611s16.221,1.126,17.328.356a1.649,1.649,0,0,0,.524-.77,4.4,4.4,0,0,0,.321-1.2c.261-1.52.054-3.433-.845-4.091a47.609,47.609,0,0,0-5.766-2.348c-6.532-2.439-16.258-5.82-16.258-5.82s-1.727,2.178-9.366,1.014a63.951,63.951,0,0,0-1.07,7.772A4.839,4.839,0,0,0,623.4,443.843Z" transform="translate(-623.128 -432.578)" fill="url(#linear-gradient-6)"/>
        <path id="Path_5934" data-name="Path 5934" d="M636.5,443.34h8.223a4.4,4.4,0,0,0,.321-1.2c.261-1.52.054-3.433-.845-4.091a47.619,47.619,0,0,0-5.766-2.348A9.031,9.031,0,0,0,636.5,443.34Z" transform="translate(-611.706 -429.879)" fill="#9f008b"/>
        <path id="Path_5935" data-name="Path 5935" d="M623.4,439.768c.94,1.352,11,1.277,14.889,2.611s16.221,1.126,17.328.356a3.033,3.033,0,0,0,.845-1.973c-2.48.188-10.157.658-13.556-.056-4.054-.863-8.522-2.5-10.907-2.571-1.708-.075-6.327-.563-8.842-.845A4.839,4.839,0,0,0,623.4,439.768Z" transform="translate(-623.128 -428.504)" fill="#fff"/>
        <path id="Path_5936" data-name="Path 5936" d="M629.406,438.2a.936.936,0,0,0,.835-.7,4.831,4.831,0,0,1,2.752-2.913.939.939,0,0,0,.548-1.206.927.927,0,0,0-1.2-.55,6.645,6.645,0,0,0-3.916,4.2.94.94,0,0,0,.673,1.143A.981.981,0,0,0,629.406,438.2Z" transform="translate(-618.575 -432.409)" fill="#fff"/>
        <path id="Path_5937" data-name="Path 5937" d="M632.047,438.788a.939.939,0,0,0,.932-.832c.142-1.223,1.777-2.206,2.342-2.456a.938.938,0,1,0-.761-1.715c-.127.056-3.153,1.419-3.448,3.955a.94.94,0,0,0,.826,1.042A1.055,1.055,0,0,0,632.047,438.788Z" transform="translate(-616.23 -431.604)" fill="#fff"/>
      </g>
      <path id="Path_5938" data-name="Path 5938" d="M654.306,420.385s2.538,4.956,2.409,5.3-16.842,8.932-17.379,9.273-2.924-5.682-2.924-5.682S652.227,419.035,654.306,420.385Z" transform="translate(-508.625 -243.512)" fill="#5b85f7"/>
      <g id="Group_5770" data-name="Group 5770" transform="translate(136.924 188.405)">
        <path id="Path_5939" data-name="Path 5939" d="M644.307,441.626c1.37.912,10.7-2.853,14.806-3.041s15.5-4.91,16.249-6.03a1.649,1.649,0,0,0,.207-.912,4.331,4.331,0,0,0-.145-1.234c-.313-1.51-1.208-3.215-2.29-3.5a47.934,47.934,0,0,0-6.221-.065c-6.974.131-17.26.557-17.26.557s-.806,2.661-8.341,4.386a64.029,64.029,0,0,0,1.859,7.623A4.823,4.823,0,0,0,644.307,441.626Z" transform="translate(-641.312 -426.266)" fill="url(#linear-gradient-7)"/>
        <path id="Path_5940" data-name="Path 5940" d="M656.267,434.665l7.649-3.023a4.335,4.335,0,0,0-.145-1.234c-.313-1.51-1.208-3.215-2.29-3.5a47.933,47.933,0,0,0-6.221-.065A9.03,9.03,0,0,0,656.267,434.665Z" transform="translate(-629.66 -426.266)" fill="#9f008b"/>
        <path id="Path_5941" data-name="Path 5941" d="M643.445,439.952c1.37.912,10.7-2.853,14.806-3.041s15.5-4.91,16.249-6.03a3.022,3.022,0,0,0,.061-2.146c-2.236,1.085-9.206,4.343-12.628,4.928-4.087.684-8.844.807-11.089,1.613-1.617.557-6.092,1.8-8.535,2.463A4.825,4.825,0,0,0,643.445,439.952Z" transform="translate(-640.45 -424.592)" fill="#fff"/>
        <path id="Path_5942" data-name="Path 5942" d="M647.749,432.871a.938.938,0,0,0,.52-.958,4.828,4.828,0,0,1,1.492-3.718.943.943,0,0,0,.065-1.326.93.93,0,0,0-1.32-.071,6.653,6.653,0,0,0-2.1,5.346.938.938,0,0,0,1.046.815A.911.911,0,0,0,647.749,432.871Z" transform="translate(-636.943 -426.474)" fill="#fff"/>
        <path id="Path_5943" data-name="Path 5943" d="M650.5,432.369a.938.938,0,0,0,.563-1.113c-.321-1.192.841-2.706,1.276-3.146a.939.939,0,0,0-1.337-1.318c-.1.1-2.415,2.48-1.757,4.947a.941.941,0,0,0,1.151.666A.862.862,0,0,0,650.5,432.369Z" transform="translate(-634.55 -426.512)" fill="#fff"/>
      </g>
      <path id="Path_5944" data-name="Path 5944" d="M609.11,386.581c6.773-2.534,21.03-7.5,37.531-13.847a20.539,20.539,0,0,0-2.851-5.971s-32.91,5.657-38.284,7.078c-3.647.96-8.007,6.222-5.38,10.038A7.718,7.718,0,0,0,609.11,386.581Z" transform="translate(-540.694 -289.772)" fill="#f4d8d5"/>
      <path id="Path_5945" data-name="Path 5945" d="M617.688,331.369s4.632,29.285,17.206,42.174c-8.255,10.918-54.5,9.18-62.167,7.211,0,0,3.991-39.83,12.633-48.452S617.688,331.369,617.688,331.369Z" transform="translate(-563.692 -323.108)" fill="#000038"/>
      <path id="Path_5946" data-name="Path 5946" d="M599.495,351.656c4.464-1.965,8.73.755,10.118,5.566s7.175,34.75,6.774,36.507-2.144,9.383-10.977,4.785c-6.1-9.89-10.092-35.739-10.161-38.4S596.924,352.79,599.495,351.656Z" transform="translate(-544.22 -303.392)" fill="#f4d8d5"/>
      <path id="Path_5947" data-name="Path 5947" d="M606.63,357.518s4.311,5.672,1.632,12.346a24.836,24.836,0,0,0-.375,15.878c.724,1.865,6.157,7.806,6.157,7.806s-4.9,2.56-9.6,1.98-7.608-17.012-7.608-17.012,6.526-12.9,6.759-13.03S606.63,357.518,606.63,357.518Z" transform="translate(-542.842 -297.766)" fill="#dbb5bf"/>
      <path id="Path_5948" data-name="Path 5948" d="M579.785,423.782c29.2,7.287,49.224-19.736,49.224-19.736-2.924-2.708-8.27-10.509-8.326-13.172-.3-12.749,7.364-14.78,6.681-21.955-.729-7.694-7.653-17.724-7.653-17.724s-34.888-2.12-44.294,3.433c0,0,10.282,26.954,9.564,39a12.733,12.733,0,0,1-.332,2.346C584.053,398.342,579.785,423.782,579.785,423.782Z" transform="translate(-561.365 -303.577)" fill="url(#linear-gradient-8)"/>
      <path id="Path_5949" data-name="Path 5949" d="M601.123,349.121l.533,10.45s-.947,6.066-4.822,6.066c-3.09,0-10.77-4.505-12.264-6.765l-.822-17.683Z" transform="translate(-554.163 -311.886)" fill="#f4d8d5"/>
      <path id="Path_5950" data-name="Path 5950" d="M599.436,354.607s-5.747,1.292-9.959-2.929-3.23-7.4-3.23-7.4l12.982,5.23Z" transform="translate(-552.088 -309.217)" fill="#dbb5bf"/>
      <path id="Path_5951" data-name="Path 5951" d="M599.433,365.956l.535-.076c7.317-1.054,10.11-7.785,9.353-15.607-.492-5.094-1.024-20.439-1.024-20.439a1.732,1.732,0,0,0-1.915-1.527l-23.708,3.416a1.736,1.736,0,0,0-1.408,2.006l2.888,20.049C585.276,361.559,592.116,367.011,599.433,365.956Z" transform="translate(-556.325 -323.04)" fill="#f4d8d5"/>
      <path id="Path_5952" data-name="Path 5952" d="M607.62,334.655l.017,6.443s-15.68,1.443-21.769-1.924-1.367-6.338-1.367-6.338l7.686-.8S606.856,331.971,607.62,334.655Z" transform="translate(-555.021 -319.804)" fill="#dbb5bf"/>
      <path id="Path_5953" data-name="Path 5953" d="M617.049,343.89c.552-3.256-1.717-11.129-4.69-13.568-5.575-4.572-23.717-8.781-27.142,1.605,0,0-4.854.849-5.887,4.5s-1.792,21.045,7.175,20.985c-.492-2.1,2.3-7.164,3.138-9.782s-.822-7.587-.822-7.587S600.1,347,617.049,343.89Z" transform="translate(-558.503 -325.474)" fill="#000038"/>
      <path id="Path_5954" data-name="Path 5954" d="M587.609,340s-.943-3.86-4.171-2.553c-4.591,1.861-2.542,9.963,3.269,8.721C588.865,345.708,589.043,341.492,587.609,340Z" transform="translate(-556.606 -315.355)" fill="#f4d8d5"/>
      <path id="Path_5955" data-name="Path 5955" d="M585.349,351.228c-1.6-.145-7.589,1.606-7.589,1.606l.615,13.532s4.815,24.133,4.582,26.9c.034,3.125-5.2,30.15-5.2,30.15,1.365.763,8.074,1.247,8.074,1.247s-.118-14.131,1.048-19.725a91.491,91.491,0,0,0,1.535-10.366s1.018-6.129,0-9.195.291-14.011,1.165-16.053S586.955,351.373,585.349,351.228Z" transform="translate(-559.34 -303.212)" fill="#af008f"/>
      <path id="Path_5956" data-name="Path 5956" d="M586.109,339.886c.056-.737-.608-2.391-2.187-2.038a3.155,3.155,0,0,0-2.189,3.608c.248,1.5,1.154,3.034,1.893,2.708s-.625-1.839-.5-2.76.986-1.764,1.546-1.281S586.055,340.564,586.109,339.886Z" transform="translate(-555.942 -314.817)" fill="#dbb5bf"/>
      <path id="Path_5957" data-name="Path 5957" d="M588.045,351.917c4.874.843,6.81,4.787,5.391,9.616s-12.685,33.285-13.978,34.538-11.7,9.327-11.574-.308c.147-11.744,10.345-37.555,11.723-39.835S585.236,351.432,588.045,351.917Z" transform="translate(-567.881 -302.667)" fill="#f4d8d5"/>
      <path id="Path_5958" data-name="Path 5958" d="M591.523,342.027c.291,5.855-4.874,20.329,6.232,24.948,0,0-13.6,7.654-25.028,1.96,0,0,4.1-23.741,4.541-25.71S591.523,342.027,591.523,342.027Z" transform="translate(-563.692 -311.29)" fill="#000038"/>
      <path id="Path_5959" data-name="Path 5959" d="M595.189,342.318s-2.267.947-3.006.71.429,1.406,1.274.994A6.078,6.078,0,0,0,595.189,342.318Z" transform="translate(-547.071 -310.909)" fill="#dbb5bf"/>
      <path id="Path_5960" data-name="Path 5960" d="M576.581,385.514c7.127-1.206,22.067-3.381,39.468-6.5a20.479,20.479,0,0,0-1.669-6.4s-33.385-.671-38.933-.293c-3.761.254-9.038,4.595-7.181,8.84A7.722,7.722,0,0,0,576.581,385.514Z" transform="translate(-567.882 -285.064)" fill="#f4d8d5"/>
      <path id="Path_5961" data-name="Path 5961" d="M636.56,363.185s-33.26-9.361-35.748-11.462c0,0-1.05,5.976-.27,23.068s33.935,12.732,33.935,12.732Z" transform="translate(-539.89 -302.777)" fill="#fff"/>
      <path id="Path_5962" data-name="Path 5962" d="M621.049,364.423s11.3-12,13.053-13.519l1.048,12.471Z" transform="translate(-521.909 -303.485)" fill="#fff"/>
      <path id="Path_5963" data-name="Path 5963" d="M619.549,365.822l3.915-4.4,9.371-10.522,1.748,6.76Z" transform="translate(-523.206 -303.485)" fill="#fff"/>
      <path id="Path_5964" data-name="Path 5964" d="M636.757,362.936s-25.9-9.439-31.265-12.469a15.4,15.4,0,0,0-3.614,6.235c-1.165,3.9,25.173,11.945,25.173,11.945Z" transform="translate(-538.518 -303.863)" fill="#fff"/>
      <path id="Path_5965" data-name="Path 5965" d="M597.992,356.212l4.69,49.867a1.489,1.489,0,0,0,1.288,1.337l31.692,4.138,2.859-52.823-38.888-4.14A1.491,1.491,0,0,0,597.992,356.212Z" transform="translate(-541.852 -300.303)" fill="#93b1fb"/>
      <path id="Path_5966" data-name="Path 5966" d="M621.049,356.808l-2.857,52.823h4.429l2.564-52.823Z" transform="translate(-524.38 -298.38)" fill="#506aed"/>
      <path id="Path_5967" data-name="Path 5967" d="M623.13,361.206l14.252-9.366a.708.708,0,0,1,1.1.61L637.165,403.4a3.3,3.3,0,0,1-1.76,2.831l-14.839,7.8Z" transform="translate(-522.327 -302.778)" fill="#93b1fb"/>
      <path id="Path_5968" data-name="Path 5968" d="M597.992,357.276l4.69,49.867a1.489,1.489,0,0,0,1.288,1.337l31.692,4.136,2.859-52.823-38.888-4.14A1.493,1.493,0,0,0,597.992,357.276Z" transform="translate(-541.852 -299.385)" fill="#c1d5fc"/>
      <path id="Path_5969" data-name="Path 5969" d="M621.049,357.87l-2.857,52.823h4.429l2.564-52.823Z" transform="translate(-524.38 -297.462)" fill="#5b85f7"/>
      <path id="Path_5970" data-name="Path 5970" d="M623.13,362.267l14.252-9.364a.708.708,0,0,1,1.1.61l-1.313,50.949a3.3,3.3,0,0,1-1.76,2.832l-14.839,7.8Z" transform="translate(-522.327 -301.859)" fill="#c1d5fc"/>
      <g id="Group_5771" data-name="Group 5771" transform="translate(62.438 63.401)">
        <path id="Path_5971" data-name="Path 5971" d="M601.366,365v-5.521l1.126.117v4.583l2.793.293v.938Z" transform="translate(-601.366 -359.475)" fill="#5b85f7"/>
        <path id="Path_5972" data-name="Path 5972" d="M603.85,362.451a3.365,3.365,0,0,1,.252-1.4,2.259,2.259,0,0,1,.52-.71,1.88,1.88,0,0,1,.718-.427,3.237,3.237,0,0,1,3.17.876,3.225,3.225,0,0,1,.738,2.2,2.655,2.655,0,0,1-.733,2.031,2.369,2.369,0,0,1-1.96.554,2.9,2.9,0,0,1-1.975-.964A3.147,3.147,0,0,1,603.85,362.451Zm1.156.086a2.28,2.28,0,0,0,.436,1.479,1.613,1.613,0,0,0,1.11.6,1.281,1.281,0,0,0,1.1-.367,1.949,1.949,0,0,0,.431-1.408,2.274,2.274,0,0,0-.42-1.473,1.6,1.6,0,0,0-1.113-.587,1.3,1.3,0,0,0-1.121.358A1.936,1.936,0,0,0,605.006,362.537Z" transform="translate(-599.218 -359.193)" fill="#5b85f7"/>
        <path id="Path_5973" data-name="Path 5973" d="M607.38,365.648v-5.566l2.366.25a4.279,4.279,0,0,1,1.3.285,1.488,1.488,0,0,1,.647.6,1.751,1.751,0,0,1,.244.9,1.354,1.354,0,0,1-.369,1,1.6,1.6,0,0,1-1.1.4,3.071,3.071,0,0,1,.6.53,7.3,7.3,0,0,1,.64.973l.681,1.156-1.344-.144-.813-1.3a9.691,9.691,0,0,0-.591-.88,1.006,1.006,0,0,0-.339-.267,1.97,1.97,0,0,0-.565-.123l-.228-.022v2.323Zm1.124-3.094.832.088a4.332,4.332,0,0,0,1.011.039.524.524,0,0,0,.315-.2.668.668,0,0,0,.114-.406.732.732,0,0,0-.151-.47.792.792,0,0,0-.423-.261c-.089-.022-.364-.056-.82-.1l-.877-.093Z" transform="translate(-596.166 -358.95)" fill="#5b85f7"/>
        <path id="Path_5974" data-name="Path 5974" d="M610.552,365.98v-5.564l4.128.433v.943l-3-.317v1.234l2.792.295v.938l-2.792-.3v1.516l3.107.328v.938Z" transform="translate(-593.423 -358.661)" fill="#5b85f7"/>
        <path id="Path_5975" data-name="Path 5975" d="M613.484,366.29v-5.566l1.682.175,1.009,3.9,1-3.69,1.686.175v5.568l-1.044-.11v-4.38l-1.1,4.264-1.083-.114-1.1-4.5V366.4Z" transform="translate(-590.888 -358.395)" fill="#5b85f7"/>
      </g>
      <path id="Path_5976" data-name="Path 5976" d="M614.086,380.01c1.7-.209,2.5-1.438,1.5-2.24,1.13-.779.567-1.792-.375-2.432a1.679,1.679,0,0,0-1.455-2.135,11.218,11.218,0,0,0-4.96.224,22.752,22.752,0,0,1-7.321.852c-1.8-1.691,3.66-2,3.929-2.987.351-1.283-1.262-1.7-2.484-1.818-4.032-.375-7.938,2.059-10.228,4.6s.069,6.068,1.218,6.551c2.074,2.489,12.135,3.761,17.28,2.333C613.927,382.2,616.107,381.276,614.086,380.01Z" transform="translate(-547.257 -287.46)" fill="#f4d8d5"/>
      <path id="Path_5977" data-name="Path 5977" d="M635.184,372.576a1.412,1.412,0,0,0-.31-.313,1.972,1.972,0,0,0,.455-.722,2.4,2.4,0,0,0-.274-1.742,2.548,2.548,0,0,0,.134-2.76,1.94,1.94,0,0,0-2.016-2.325,1.174,1.174,0,0,0-1.1.931c-1.553.5-4,1.026-4.748,2.909-.269.666.114,1.673.8,1.671.155,0,.315,0,.475-.006a3.808,3.808,0,0,0-1.374,1.85c-.276.813.257,1.9,1.089,1.665a16.345,16.345,0,0,0,2.372-.875c-.328.242-.641.475-.919.7-1.033.86-.082,2.54,1.016,2.075.1-.039.408-.144.772-.27-.453,1,.612,2.329,1.568,1.486C634.125,375.979,636.213,374.235,635.184,372.576Z" transform="translate(-516.625 -291.544)" fill="#f4d8d5"/>
    </g>
    <g id="Group_5776" data-name="Group 5776" transform="translate(588.248 386.228)">
      <g id="Group_5773" data-name="Group 5773">
        <path id="Path_5978" data-name="Path 5978" d="M581,340.625s4.867,2.407,15.184.054c11.449-2.6,13.761-5.993,13.761-5.993l-2.027-9.075-1.7-7.556-28.666,5.764,1.609,7.837Z" transform="translate(-563.433 -310.366)" fill="#506aed"/>
        <path id="Path_5979" data-name="Path 5979" d="M601.138,334.325,570.5,331.248l-.521-2.152,2.522-.107,23.277-13.9L623.9,318.19l1.588-.738.524,2.152Z" transform="translate(-569.981 -312.936)" fill="#000038"/>
        <path id="Path_5980" data-name="Path 5980" d="M579.745,334.484l15.843,1.6,12.92-7.639-2.289-10.385-28.666,5.765Z" transform="translate(-563.433 -310.367)" fill="#000038" opacity="0.2"/>
        <path id="Path_5981" data-name="Path 5981" d="M595.258,313.932l-25.277,16.159,30.633,3.081L625.49,318.45Z" transform="translate(-569.981 -313.932)" fill="#7a97fa"/>
      </g>
      <g id="Group_5775" data-name="Group 5775" transform="translate(1.752 18.379)">
        <rect id="Rectangle_2811" data-name="Rectangle 2811" width="13.959" height="1.398" transform="translate(2.896 13.807) rotate(-81.538)" fill="#000038"/>
        <g id="Group_5774" data-name="Group 5774" transform="translate(0 13.799)">
          <path id="Path_5982" data-name="Path 5982" d="M572.746,335.93a.7.7,0,0,0,.737-.554l.414-2,1.523,1.691a.7.7,0,0,0,1.04-.938l-2.447-2.713a.7.7,0,0,0-1.2.323l-.7,3.347a.7.7,0,0,0,.543.828A.527.527,0,0,0,572.746,335.93Z" transform="translate(-569.903 -331.188)" fill="#000038"/>
          <path id="Path_5983" data-name="Path 5983" d="M571.571,334.766a.682.682,0,0,0,.47-.138l2.892-2.184a.7.7,0,1,0-.843-1.115l-2.89,2.184a.7.7,0,0,0-.138.979A.685.685,0,0,0,571.571,334.766Z" transform="translate(-570.92 -331.188)" fill="#000038"/>
        </g>
        <path id="Path_5984" data-name="Path 5984" d="M572.036,331.84a1.514,1.514,0,1,1,1.4,1.622A1.513,1.513,0,0,1,572.036,331.84Z" transform="translate(-569.959 -318.04)" fill="#506aed"/>
      </g>
    </g>
  </g>
</svg>
