<svg xmlns="http://www.w3.org/2000/svg" xmlns:xlink="http://www.w3.org/1999/xlink" width="19" height="19" viewBox="0 0 19 19">
  <defs>
    <linearGradient id="linear-gradient" x1="1" y1="0.854" x2="0" y2="0.23" gradientUnits="objectBoundingBox">
      <stop offset="0" stop-color="#838aea"/>
      <stop offset="1" stop-color="#796fc1"/>
    </linearGradient>
  </defs>
  <g id="profile_h" transform="translate(-110 -1130)">
    <rect id="Rectangle_2666" data-name="Rectangle 2666" width="19" height="19" rx="4" transform="translate(110 1130)" fill="#ecf0f8"/>
    <path id="Icon_material-perm-contact-calendar" data-name="Icon material-perm-contact-calendar" d="M14.486,2.748h-.624V1.5H12.614V2.748H7.621V1.5H6.372V2.748H5.748A1.248,1.248,0,0,0,4.5,4v8.738a1.248,1.248,0,0,0,1.248,1.248h8.738a1.252,1.252,0,0,0,1.248-1.248V4A1.252,1.252,0,0,0,14.486,2.748ZM10.117,4.621A1.872,1.872,0,1,1,8.245,6.493,1.87,1.87,0,0,1,10.117,4.621Zm3.745,7.489H6.372v-.624c0-1.248,2.5-1.935,3.745-1.935s3.745.687,3.745,1.935Z" transform="translate(109.383 1131.759)" fill="url(#linear-gradient)"/>
  </g>
</svg>
