<svg xmlns="http://www.w3.org/2000/svg" xmlns:xlink="http://www.w3.org/1999/xlink" width="19" height="19" viewBox="0 0 19 19">
  <defs>
    <linearGradient id="linear-gradient" x1="1" y1="0.854" x2="0" y2="0.23" gradientUnits="objectBoundingBox">
      <stop offset="0" stop-color="#838aea"/>
      <stop offset="1" stop-color="#796fc1"/>
    </linearGradient>
  </defs>
  <g id="profile_d" transform="translate(-110 -1130)">
    <rect id="Rectangle_2666" data-name="Rectangle 2666" width="19" height="19" rx="4" transform="translate(110 1130)" fill="#ecf0f8"/>
    <path id="Icon_awesome-th-list" data-name="Icon awesome-th-list" d="M3.48,6.538V8.4a.559.559,0,0,1-.559.559H.559A.559.559,0,0,1,0,8.4V6.538a.559.559,0,0,1,.559-.559H2.921a.559.559,0,0,1,.559.559ZM0,11.266v1.864a.559.559,0,0,0,.559.559H2.921a.559.559,0,0,0,.559-.559V11.266a.559.559,0,0,0-.559-.559H.559A.559.559,0,0,0,0,11.266ZM2.921,1.25H.559A.559.559,0,0,0,0,1.809V3.674a.559.559,0,0,0,.559.559H2.921a.559.559,0,0,0,.559-.559V1.809a.559.559,0,0,0-.559-.559ZM4.785,13.69h6.587a.559.559,0,0,0,.559-.559V11.266a.559.559,0,0,0-.559-.559H4.785a.559.559,0,0,0-.559.559v1.864A.559.559,0,0,0,4.785,13.69ZM4.226,1.809V3.674a.559.559,0,0,0,.559.559h6.587a.559.559,0,0,0,.559-.559V1.809a.559.559,0,0,0-.559-.559H4.785A.559.559,0,0,0,4.226,1.809Zm.559,7.152h6.587a.559.559,0,0,0,.559-.559V6.538a.559.559,0,0,0-.559-.559H4.785a.559.559,0,0,0-.559.559V8.4A.559.559,0,0,0,4.785,8.961Z" transform="translate(113.534 1132.031)" fill="url(#linear-gradient)"/>
  </g>
</svg>
