<svg xmlns="http://www.w3.org/2000/svg" xmlns:xlink="http://www.w3.org/1999/xlink" width="19" height="19" viewBox="0 0 19 19">
  <defs>
    <linearGradient id="linear-gradient" x1="1" y1="0.854" x2="0" y2="0.23" gradientUnits="objectBoundingBox">
      <stop offset="0" stop-color="#838aea"/>
      <stop offset="1" stop-color="#796fc1"/>
    </linearGradient>
  </defs>
  <g id="profile_a" transform="translate(-110 -1130)">
    <rect id="Rectangle_2666" data-name="Rectangle 2666" width="19" height="19" rx="4" transform="translate(110 1130)" fill="#ecf0f8"/>
    <path id="user" d="M14.38,7.19a7.19,7.19,0,1,0-12.046,5.3l-.007.006.233.2c.015.013.032.023.047.036.124.1.252.2.383.295l.128.091q.209.144.429.274l.1.055c.16.091.324.177.492.256l.037.017a7.125,7.125,0,0,0,1.739.55l.048.009c.189.033.381.059.574.076l.071.005c.193.016.388.026.586.026s.389-.01.581-.026l.073-.005q.288-.026.569-.075l.049-.009a7.125,7.125,0,0,0,1.714-.537l.06-.027q.242-.114.473-.245l.115-.066c.141-.083.279-.169.413-.261.048-.033.1-.068.144-.1.115-.083.227-.168.337-.257.024-.02.05-.037.074-.057l.239-.2-.007-.006A7.171,7.171,0,0,0,14.38,7.19ZM.523,7.19a6.667,6.667,0,1,1,11.088,4.984,1.959,1.959,0,0,0-.233-.14L9.164,10.927a.58.58,0,0,1-.322-.521V9.633c.051-.063.105-.135.161-.214A5.328,5.328,0,0,0,9.687,8.08a.949.949,0,0,0,.545-.86V6.293A.951.951,0,0,0,10,5.674V4.453A2.109,2.109,0,0,0,9.508,2.92,2.943,2.943,0,0,0,7.19,2.092a2.944,2.944,0,0,0-2.318.828,2.109,2.109,0,0,0-.492,1.533v1.22a.953.953,0,0,0-.232.619v.927a.951.951,0,0,0,.35.738,4.913,4.913,0,0,0,.809,1.67v.757A.583.583,0,0,1,5,10.9L2.935,12.024a1.89,1.89,0,0,0-.2.124A6.651,6.651,0,0,1,.523,7.19Z" transform="translate(112.31 1132.312)" fill="url(#linear-gradient)"/>
  </g>
</svg>
