<svg xmlns="http://www.w3.org/2000/svg" xmlns:xlink="http://www.w3.org/1999/xlink" width="19" height="19" viewBox="0 0 19 19">
  <defs>
    <linearGradient id="linear-gradient" x1="1" y1="0.854" x2="0" y2="0.23" gradientUnits="objectBoundingBox">
      <stop offset="0" stop-color="#838aea"/>
      <stop offset="1" stop-color="#796fc1"/>
    </linearGradient>
  </defs>
  <g id="profile_b" transform="translate(-98 -935)">
    <rect id="Rectangle_2666" data-name="Rectangle 2666" width="19" height="19" rx="4" transform="translate(98 935)" fill="#ecf0f8"/>
    <g id="Group_5199" data-name="Group 5199" transform="translate(101.927 937.426)">
      <path id="Subtraction_1" data-name="Subtraction 1" d="M-8268.609,19739.084a3.352,3.352,0,0,1-3.349-3.348,3.35,3.35,0,0,1,3.349-3.344,3.351,3.351,0,0,1,3.35,3.344A3.353,3.353,0,0,1-8268.609,19739.084Zm0-3.76a.251.251,0,0,0-.247.254v1.5a.245.245,0,0,0,.247.248.251.251,0,0,0,.253-.248v-1.5A.253.253,0,0,0-8268.609,19735.324Zm0-1a.25.25,0,0,0-.247.252.245.245,0,0,0,.247.248.251.251,0,0,0,.253-.248A.253.253,0,0,0-8268.609,19734.324Z" transform="translate(8276.406 -19724.936)" fill="url(#linear-gradient)"/>
      <path id="Path_5905" data-name="Path 5905" d="M320.123,103.542l-.824.445a.377.377,0,0,1-.356,0l-1.2-.645a.375.375,0,0,0-.356,0l-1.193.645a.375.375,0,0,1-.356,0l-1.193-.645a.373.373,0,0,0-.356,0l-1.192.645a.375.375,0,0,1-.357,0l-.818-.443a.372.372,0,0,0-.55.323v11.8a.372.372,0,0,0,.55.323l.824-.444a.374.374,0,0,1,.356,0l1.2.645a.375.375,0,0,0,.356,0l.7-.379A4.168,4.168,0,0,1,315,114.12a4.272,4.272,0,0,1,5.672-4v-6.258A.372.372,0,0,0,320.123,103.542Zm-6.33,8.939h-.558a.46.46,0,1,1,0-.92h.558a.46.46,0,1,1,0,.92Zm1.089-1.84h-1.647a.46.46,0,1,1,0-.92h1.647a.46.46,0,1,1,0,.92Zm3.841-1.84h-5.487a.46.46,0,1,1,0-.92h5.487a.46.46,0,1,1,0,.92Zm0-1.84h-5.487a.46.46,0,1,1,0-.92h5.487a.46.46,0,1,1,0,.92Z" transform="translate(-311.375 -103.297)" fill="url(#linear-gradient)"/>
    </g>
  </g>
</svg>
