<svg xmlns="http://www.w3.org/2000/svg" xmlns:xlink="http://www.w3.org/1999/xlink" width="19" height="19" viewBox="0 0 19 19">
  <defs>
    <linearGradient id="linear-gradient" x1="1" y1="0.854" x2="0" y2="0.23" gradientUnits="objectBoundingBox">
      <stop offset="0" stop-color="#838aea"/>
      <stop offset="1" stop-color="#796fc1"/>
    </linearGradient>
  </defs>
  <g id="profile_e" transform="translate(-110 -1130)">
    <rect id="Rectangle_2666" data-name="Rectangle 2666" width="19" height="19" rx="4" transform="translate(110 1130)" fill="#ecf0f8"/>
    <path id="Icon_material-chat" data-name="Icon material-chat" d="M14.2,3H4.244A1.242,1.242,0,0,0,3.006,4.244L3,15.439l2.488-2.488H14.2a1.248,1.248,0,0,0,1.244-1.244V4.244A1.248,1.248,0,0,0,14.2,3ZM5.488,7.354h7.464V8.6H5.488Zm4.976,3.11H5.488V9.22h4.976Zm2.488-3.732H5.488V5.488h7.464Z" transform="translate(110.28 1130.28)" fill="url(#linear-gradient)"/>
  </g>
</svg>
