<svg xmlns="http://www.w3.org/2000/svg" xmlns:xlink="http://www.w3.org/1999/xlink" width="19" height="19" viewBox="0 0 19 19">
  <defs>
    <linearGradient id="linear-gradient" x1="1" y1="0.854" x2="0" y2="0.23" gradientUnits="objectBoundingBox">
      <stop offset="0" stop-color="#838aea"/>
      <stop offset="1" stop-color="#796fc1"/>
    </linearGradient>
  </defs>
  <g id="profile_f" transform="translate(-110 -1130)">
    <rect id="Rectangle_2666" data-name="Rectangle 2666" width="19" height="19" rx="4" transform="translate(110 1130)" fill="#ecf0f8"/>
    <path id="Icon_ionic-ios-settings" data-name="Icon ionic-ios-settings" d="M15.593,10.545a1.556,1.556,0,0,1,1-1.452,6.167,6.167,0,0,0-.746-1.8,1.577,1.577,0,0,1-.633.135,1.552,1.552,0,0,1-1.42-2.185A6.148,6.148,0,0,0,12,4.5a1.555,1.555,0,0,1-2.9,0,6.167,6.167,0,0,0-1.8.746,1.552,1.552,0,0,1-1.42,2.185A1.525,1.525,0,0,1,5.243,7.3,6.3,6.3,0,0,0,4.5,9.1a1.555,1.555,0,0,1,0,2.9,6.167,6.167,0,0,0,.746,1.8,1.553,1.553,0,0,1,2.05,2.05,6.2,6.2,0,0,0,1.8.746,1.552,1.552,0,0,1,2.9,0,6.167,6.167,0,0,0,1.8-.746,1.555,1.555,0,0,1,2.05-2.05,6.2,6.2,0,0,0,.746-1.8A1.563,1.563,0,0,1,15.593,10.545Zm-5.019,2.516a2.519,2.519,0,1,1,2.519-2.519A2.518,2.518,0,0,1,10.574,13.061Z" transform="translate(108.954 1128.952)" fill="url(#linear-gradient)"/>
  </g>
</svg>
