<svg xmlns="http://www.w3.org/2000/svg" xmlns:xlink="http://www.w3.org/1999/xlink" width="19" height="19" viewBox="0 0 19 19">
  <defs>
    <linearGradient id="linear-gradient" x1="1" y1="0.854" x2="0" y2="0.23" gradientUnits="objectBoundingBox">
      <stop offset="0" stop-color="#838aea"/>
      <stop offset="1" stop-color="#796fc1"/>
    </linearGradient>
  </defs>
  <g id="profile_g" transform="translate(-110 -1130)">
    <rect id="Rectangle_2666" data-name="Rectangle 2666" width="19" height="19" rx="4" transform="translate(110 1130)" fill="#ecf0f8"/>
    <path id="Icon_material-help" data-name="Icon material-help" d="M9.773,3a6.773,6.773,0,1,0,6.773,6.773A6.776,6.776,0,0,0,9.773,3Zm.677,11.515H9.1V13.16h1.355Zm1.4-5.249-.61.623a2.306,2.306,0,0,0-.792,1.917H9.1v-.339A2.726,2.726,0,0,1,9.889,9.55l.84-.853a1.324,1.324,0,0,0,.4-.955,1.355,1.355,0,1,0-2.709,0H7.064a2.709,2.709,0,0,1,5.419,0A2.155,2.155,0,0,1,11.853,9.265Z" transform="translate(109.727 1129.727)" fill="url(#linear-gradient)"/>
  </g>
</svg>
