<svg xmlns="http://www.w3.org/2000/svg" xmlns:xlink="http://www.w3.org/1999/xlink" width="19" height="19" viewBox="0 0 19 19">
  <defs>
    <linearGradient id="linear-gradient" x1="1" y1="0.854" x2="0" y2="0.23" gradientUnits="objectBoundingBox">
      <stop offset="0" stop-color="#838aea"/>
      <stop offset="1" stop-color="#796fc1"/>
    </linearGradient>
  </defs>
  <g id="profile_c" transform="translate(-110 -1130)">
    <rect id="Rectangle_2666" data-name="Rectangle 2666" width="19" height="19" rx="4" transform="translate(110 1130)" fill="#ecf0f8"/>
    <g id="notification" transform="translate(113.015 1132.425)">
      <path id="Path_5906" data-name="Path 5906" d="M137.134,449.771A2.218,2.218,0,0,0,139.3,448h-4.338A2.218,2.218,0,0,0,137.134,449.771Zm0,0" transform="translate(-131.238 -435.622)" fill="url(#linear-gradient)"/>
      <path id="Path_5907" data-name="Path 5907" d="M10.027,48.571H10.02a4.124,4.124,0,0,1-3.732-5.884c-.13-.012-.261-.02-.394-.02A4.129,4.129,0,0,0,1.768,46.8v1.646A3.961,3.961,0,0,1,.36,51.477a1.034,1.034,0,0,0-.324,1.06A1.081,1.081,0,0,0,1.1,53.3h9.593a1.081,1.081,0,0,0,1.077-.819,1.036,1.036,0,0,0-.352-1.011,3.931,3.931,0,0,1-1.388-2.894Zm0,0" transform="translate(0.001 -41.487)" fill="url(#linear-gradient)"/>
      <path id="Path_5908" data-name="Path 5908" d="M261.916,2.952A2.952,2.952,0,1,1,258.964,0,2.952,2.952,0,0,1,261.916,2.952Zm0,0" transform="translate(-248.946)" fill="url(#linear-gradient)"/>
    </g>
  </g>
</svg>
