<svg xmlns="http://www.w3.org/2000/svg" width="195" height="212.688" viewBox="0 0 195 212.688">
  <g id="splashlogo" transform="translate(-90.5 -299.656)">
    <g id="estudy" transform="translate(128.5 299.656)">
      <path id="Path_1832" data-name="Path 1832" d="M848.646,1843.771a50.633,50.633,0,0,0-20.584,27.459c-6.334,21.122,1.583,44.532,22.695,53.685,28.677,12.321,69.317-10.033,63.687-45.237-.7-4.577-2.639-3.872-2.639-2.112,0,28.867-38.881,50.518-62.28,30.451,32.372-18.305,48.03-28.866,51.548-31.155,24.279-16.546-10.2-60.55-52.427-33.092Zm-5.982,54.038c-13.9-39.78,45.567-63.014,48.206-36.788a13.126,13.126,0,0,1-5.63,11.793c-29.381,17.25-42.576,24.995-42.576,24.995Z" transform="translate(-797.45 -1800.648)" fill="#fff" fill-rule="evenodd"/>
      <path id="Path_1833" data-name="Path 1833" d="M650.4,1587.488l52.779-5.281-15.13,17.778,4.046,7.921,2.287,4.4c-15.658.176-39.057,11.265-47.5,27.459-.7-1.408-2.639-4.753-3.519-6.337l-4.047-7.744-7.565.7h0c0,3.168,1.583,6.689,1.056,11.089a3.133,3.133,0,0,1,.88,4.753l3.519,9.5-8.8,1.408.88-10.209c-1.935-.7-2.287-4.577.352-5.808.528-4.048-.528-7.393-.7-10.385h-.176l-12.667,1.232Z" transform="translate(-616.096 -1582.207)" fill="#fff" fill-rule="evenodd"/>
    </g>
    <text id="eStudy-2" data-name="eStudy" transform="translate(90.5 496.344)" fill="#fff" font-size="64" font-family="MyriadPro-Semibold, Myriad Pro" font-weight="600"><tspan x="0" y="0">eStudy</tspan></text>
  </g>
</svg>
