<svg xmlns="http://www.w3.org/2000/svg" width="28.957" height="9.372" viewBox="0 0 28.957 9.372">
  <g id="visa" transform="translate(-81.166 -105.048)">
    <path id="polygon9" d="M435.853,119.8h-2.346l1.467-9.072h2.346Z" transform="translate(-342.139 -5.515)" fill="#00579f"/>
    <path id="path11" d="M572.215,105.434a5.78,5.78,0,0,0-2.1-.386c-2.316,0-3.948,1.235-3.958,3-.019,1.3,1.168,2.027,2.056,2.461.908.444,1.216.734,1.216,1.129-.009.608-.733.888-1.409.888a4.669,4.669,0,0,1-2.2-.483l-.309-.145-.328,2.036a7.14,7.14,0,0,0,2.616.483c2.461,0,4.064-1.216,4.083-3.1.009-1.033-.617-1.824-1.969-2.471-.82-.415-1.323-.695-1.323-1.12.01-.386.425-.782,1.351-.782a3.985,3.985,0,0,1,1.747.347l.212.1.319-1.959Z" transform="translate(-469.998)" fill="#00579f"/>
    <path id="path13" d="M794.151,116.585c.193-.521.937-2.538.937-2.538-.01.019.193-.531.309-.869l.164.782s.444,2.172.541,2.625Zm2.9-5.858h-1.815a1.158,1.158,0,0,0-1.226.753l-3.484,8.319h2.461l.492-1.361h3.012c.067.319.28,1.361.28,1.361h2.172l-1.892-9.072Z" transform="translate(-688.816 -5.515)" fill="#00579f"/>
    <path id="path15" d="M171.627,110.727l-2.3,6.186-.251-1.255a6.944,6.944,0,0,0-3.243-3.8l2.1,7.934h2.481l3.687-9.062Z" transform="translate(-82.218 -5.515)" fill="#00579f"/>
    <path id="path17" d="M84.978,110.727H81.2l-.039.183a7.849,7.849,0,0,1,5.695,4.749l-.82-4.169a.971.971,0,0,0-1.062-.763Z" transform="translate(0 -5.515)" fill="#faa61a"/>
  </g>
</svg>
