<svg id="active-favorite" xmlns="http://www.w3.org/2000/svg" width="23.1" height="21" viewBox="0 0 23.1 21">
  <path id="Path_411" data-name="Path 411" d="M826.245,1219.476l.055-.107a.156.156,0,0,1,.278,0l.054.1a3.755,3.755,0,0,0,2.686,1.969l.541.095a.156.156,0,0,1,.077.271l-.248.221a3.284,3.284,0,0,0-1.049,3.042l.032.175a.156.156,0,0,1-.219.17l-.139-.063a4.462,4.462,0,0,0-3.739.021l-.09.042a.156.156,0,0,1-.221-.165l.026-.167a3.4,3.4,0,0,0-1.1-3.058l-.244-.217a.156.156,0,0,1,.077-.271l.564-.1A3.7,3.7,0,0,0,826.245,1219.476Z" transform="translate(-808.929 -1208.101)" fill="#00b65f"/>
  <path id="Path_412" data-name="Path 412" d="M716.419,1133.975a3.33,3.33,0,0,1-1.7-1.576l-.718-1.422a.414.414,0,0,0-.744,0l-.71,1.426a3.254,3.254,0,0,1-2.319,1.757l-2.1.375a.434.434,0,0,0-.207.745l1.384,1.264a3.047,3.047,0,0,1,.951,2.707l-.185,1.238L707.637,1143l-8.964-9.213c-7.175-7.427,1.592-16.436,8.768-9.011C714.711,1117.305,723.669,1126.5,716.419,1133.975Z" transform="translate(-696.001 -1122)" fill="#00b65f"/>
</svg>
