<svg id="active-profile" xmlns="http://www.w3.org/2000/svg" width="19.319" height="20.999" viewBox="0 0 19.319 20.999">
  <path id="Path_408" data-name="Path 408" d="M980.342,1232.158a14.2,14.2,0,0,1-9.889,3.646,14.455,14.455,0,0,1-9.43-3.223c.308-1.424,1.216-5,2.609-5.514,2.2-.806,2.816,1.179,7.1,1.328,4.281-.149,4.9-2.133,7.1-1.328C979.1,1227.533,979.964,1230.551,980.342,1232.158Z" transform="translate(-961.023 -1214.805)" fill="#00b65f"/>
  <path id="Path_409" data-name="Path 409" d="M1009.456,1127.108a5.214,5.214,0,1,1-.321-1.819A5.287,5.287,0,0,1,1009.456,1127.108Z" transform="translate(-994.747 -1121.876)" fill="#00b65f"/>
</svg>
