<svg xmlns="http://www.w3.org/2000/svg" width="21" height="21" viewBox="0 0 21 21">
  <path id="active-home" d="M180.6,1132.622h0a.522.522,0,0,0-.525.52v9.017a.522.522,0,0,1-.525.52h-5.314a.522.522,0,0,1-.525-.52v-6.594a.522.522,0,0,0-.525-.52h-3.968a.522.522,0,0,0-.525.52v6.594a.523.523,0,0,1-.525.52h-5.314a.523.523,0,0,1-.525-.52v-9.017a.522.522,0,0,0-.525-.52h0a1.088,1.088,0,0,1-.778-1.86l8.467-8.383a2.433,2.433,0,0,1,3.417,0l8.467,8.383A1.088,1.088,0,0,1,180.6,1132.622Z" transform="translate(-160.699 -1121.678)" fill="#00b65f"/>
</svg>
