<svg xmlns="http://www.w3.org/2000/svg" width="17.645" height="20.998" viewBox="0 0 17.645 20.998">
  <path id="apple" d="M15.034,13.346a4.376,4.376,0,0,1,2.344-3.975A5.037,5.037,0,0,0,13.407,7.28c-1.664-.131-3.483.97-4.149.97-.7,0-2.316-.924-3.582-.924-2.616.042-5.4,2.086-5.4,6.244a11.684,11.684,0,0,0,.675,3.807c.6,1.72,2.766,5.94,5.025,5.869,1.181-.028,2.016-.839,3.553-.839,1.491,0,2.264.839,3.582.839,2.278-.033,4.238-3.868,4.81-5.593a4.647,4.647,0,0,1-2.892-4.308Zm-2.653-7.7a4.415,4.415,0,0,0,1.125-3.4,4.971,4.971,0,0,0-3.183,1.636,4.485,4.485,0,0,0-1.2,3.371A3.937,3.937,0,0,0,12.381,5.649Z" transform="translate(-0.281 -2.25)" fill="#fff"/>
</svg>
