<svg xmlns="http://www.w3.org/2000/svg" width="18.917" height="17.948" viewBox="0 0 18.917 17.948">
  <g id="cart" transform="translate(-0.5 -0.5)">
    <path id="Path_9" data-name="Path 9" d="M13.527,30.763A.763.763,0,1,1,12.763,30,.763.763,0,0,1,13.527,30.763Z" transform="translate(-5.187 -14.079)" fill="none" stroke="#333" stroke-linecap="round" stroke-width="2"/>
    <path id="Path_10" data-name="Path 10" d="M30.027,30.763A.763.763,0,1,1,29.263,30,.763.763,0,0,1,30.027,30.763Z" transform="translate(-13.346 -14.079)" fill="none" stroke="#333" stroke-linecap="round" stroke-width="2"/>
    <path id="Path_11" data-name="Path 11" d="M1.5,1.5H4.538L6.573,11.648a1.518,1.518,0,0,0,1.519,1.22h7.382a1.518,1.518,0,0,0,1.519-1.22l1.215-6.359H5.3" transform="translate(0 0)" fill="none" stroke="#333" stroke-linecap="round" stroke-width="2"/>
  </g>
</svg>
