<svg id="category" xmlns="http://www.w3.org/2000/svg" width="23.1" height="21" viewBox="0 0 23.1 21">
  <g id="Group_5109" data-name="Group 5109" transform="translate(0)">
    <path id="Path_400" data-name="Path 400" d="M1537.339,1142.971h-7.17a1.147,1.147,0,0,1-1.143-1.148v-18.676a1.147,1.147,0,0,1,1.143-1.148h7.17a1.147,1.147,0,0,1,1.143,1.148v18.676A1.147,1.147,0,0,1,1537.339,1142.971Zm-7.17-19.824v18.676h7.17v-18.676Z" transform="translate(-1529.026 -1122)" fill="#98a1af"/>
  </g>
  <g id="Group_5110" data-name="Group 5110" transform="translate(10.659)">
    <path id="Path_401" data-name="Path 401" d="M1633.519,1133.671h-10.155a1.144,1.144,0,0,1-1.143-1.143v-9.385a1.144,1.144,0,0,1,1.143-1.143h10.155a1.144,1.144,0,0,1,1.143,1.143v9.385A1.144,1.144,0,0,1,1633.519,1133.671Zm-10.155-10.528v9.385h10.156v-9.385Z" transform="translate(-1622.221 -1122)" fill="#98a1af"/>
  </g>
  <g id="Group_5111" data-name="Group 5111" transform="translate(17.592 12.667)">
    <path id="Path_402" data-name="Path 402" d="M1687.248,1240.423h-3.222a1.144,1.144,0,0,1-1.143-1.143v-6.047a1.144,1.144,0,0,1,1.143-1.143h3.222a1.144,1.144,0,0,1,1.143,1.143v6.047A1.144,1.144,0,0,1,1687.248,1240.423Zm-3.222-7.19v6.047h3.222v-6.047Z" transform="translate(-1682.883 -1232.091)" fill="#98a1af"/>
  </g>
  <g id="Group_5112" data-name="Group 5112" transform="translate(10.656 12.667)">
    <path id="Path_403" data-name="Path 403" d="M1626.586,1240.423h-3.222a1.144,1.144,0,0,1-1.143-1.143v-6.047a1.144,1.144,0,0,1,1.143-1.143h3.222a1.144,1.144,0,0,1,1.143,1.143v6.047A1.144,1.144,0,0,1,1626.586,1240.423Zm-3.222-7.19v6.047h3.222v-6.047Z" transform="translate(-1622.221 -1232.091)" fill="#98a1af"/>
  </g>
</svg>
