<svg xmlns="http://www.w3.org/2000/svg" xmlns:xlink="http://www.w3.org/1999/xlink" width="34" height="24" viewBox="0 0 34 24">
  <defs>
    <clipPath id="clip-path">
      <rect id="Asset_5" data-name="Asset 5" width="28" height="18" rx="2" transform="translate(23 427)" fill="#e4e4e4"/>
    </clipPath>
  </defs>
  <g id="cod" transform="translate(-20 -424)">
    <g id="Rectangle_10" data-name="Rectangle 10" transform="translate(20 424)" fill="none" stroke="#d4d8de" stroke-width="1">
      <rect width="34" height="24" rx="2" stroke="none"/>
      <rect x="0.5" y="0.5" width="33" height="23" rx="1.5" fill="none"/>
    </g>
    <g id="Mask_Group_21" data-name="Mask Group 21" clip-path="url(#clip-path)">
      <g id="cod-2" data-name="cod" transform="translate(2038.738 -1163.092)">
        <rect id="Rectangle_72" data-name="Rectangle 72" width="27.692" height="18" rx="1.662" transform="translate(-2015.585 1590.092)" fill="none"/>
        <g id="Group_46" data-name="Group 46" transform="translate(-2063.143 1535.552)">
          <g id="Group_40" data-name="Group 40" transform="translate(54.877 63.562)">
            <g id="Group_38" data-name="Group 38" transform="translate(8.252)">
              <path id="Path_58" data-name="Path 58" d="M56.831,57.124c.533,2.21-.7,4.781-1.568,6.24a6.487,6.487,0,0,0,4.72-6.24Z" transform="translate(-55.263 -57.124)" fill="#0170c2"/>
            </g>
            <g id="Group_39" data-name="Group 39">
              <path id="Path_59" data-name="Path 59" d="M56.511,62.285a4.751,4.751,0,0,1,.793-3.261,3.8,3.8,0,0,0,.63-1.9H53.951A6.472,6.472,0,0,0,56.511,62.285Z" transform="translate(-53.951 -57.124)" fill="#0170c2"/>
            </g>
          </g>
          <g id="Group_41" data-name="Group 41" transform="translate(54.877 57.017)">
            <path id="Path_60" data-name="Path 60" d="M66,56.092H54.878a.927.927,0,0,1-.927.927v3.706a.928.928,0,0,1,.927.927h3.091c-.008-.767-.093-1.5-.131-2.025a1.147,1.147,0,0,1,.778-1.141,1.927,1.927,0,0,1,1.82-1.7,2.1,2.1,0,0,1,0,4.169,1.689,1.689,0,0,1-.266-.024q-.005.383.007.718H66a.927.927,0,0,1,.926-.927V57.018A.926.926,0,0,1,66,56.092Zm-9.729,3.59a.811.811,0,1,1,.811-.811.811.811,0,0,1-.811.811Zm8.34,0a.811.811,0,1,1,.811-.811.811.811,0,0,1-.811.811Z" transform="translate(-53.951 -56.092)" fill="#86ccff"/>
          </g>
          <g id="Group_45" data-name="Group 45" transform="translate(53.776 55.918)">
            <g id="Group_42" data-name="Group 42" transform="translate(10.772 2.908)">
              <path id="Path_61" data-name="Path 61" d="M56.474,58.347a.984.984,0,1,0-.985-.985.984.984,0,0,0,.985.985Zm0-1.621a.637.637,0,1,1-.637.637.637.637,0,0,1,.637-.637Z" transform="translate(-55.489 -56.378)" fill="#1f1d21"/>
            </g>
            <g id="Group_43" data-name="Group 43" transform="translate(2.432 2.908)">
              <path id="Path_62" data-name="Path 62" d="M55.148,58.347a.984.984,0,1,0-.985-.985.984.984,0,0,0,.985.985Zm0-1.621a.637.637,0,1,1-.637.637.637.637,0,0,1,.637-.637Z" transform="translate(-54.163 -56.378)" fill="#1f1d21"/>
            </g>
            <g id="Group_44" data-name="Group 44">
              <path id="Path_63" data-name="Path 63" d="M68.775,55.918H53.95a.174.174,0,0,0-.174.174v7.441a.175.175,0,0,0,.174.175h4.714a3.442,3.442,0,0,1-.575,1.629c-1.706,2.315-.344,5.569-.286,5.707a.174.174,0,0,0,.16.106.169.169,0,0,0,.068-.014.175.175,0,0,0,.092-.229c-.013-.032-1.34-3.209.246-5.361a4.212,4.212,0,0,0,.689-2.316,15.549,15.549,0,0,0-.081-2.192c-.015-.172-.029-.332-.039-.477a.937.937,0,0,1,.371-.807,1.048,1.048,0,0,1,.968-.18,1.078,1.078,0,0,1,.7,1.121,16.016,16.016,0,0,0-.011,2.541,5.7,5.7,0,0,0,.533,2.142.174.174,0,1,0,.307-.165,4.619,4.619,0,0,1-.434-1.5h3.183c.654,3.173-2.308,7.12-2.338,7.16a.176.176,0,0,0,.033.245.172.172,0,0,0,.243-.033c.128-.167,3.049-4.06,2.416-7.372h3.866a.174.174,0,0,0,.173-.175V56.092a.174.174,0,0,0-.173-.174Zm-8.393,3.321a1.371,1.371,0,0,0-.605-.051,1.715,1.715,0,0,1,1.586-1.294,1.935,1.935,0,0,1,0,3.837c-.03,0-.058,0-.087,0,.008-.323.022-.657.048-1.01a1.431,1.431,0,0,0-.941-1.478Zm8.219,4.12H61.329c-.005-.052-.012-.1-.016-.156-.03-.348-.044-.726-.044-1.128.031,0,.063.005.094.005a2.281,2.281,0,0,0,0-4.534A2.089,2.089,0,0,0,59.392,59.3a1.413,1.413,0,0,0-.3.18,1.3,1.3,0,0,0-.5,1.107c.01.146.024.308.04.483a15.181,15.181,0,0,1,.079,2.143c0,.052-.008.1-.011.15H54.124V56.266H68.6Z" transform="translate(-53.776 -55.918)" fill="#1f1d21"/>
            </g>
          </g>
        </g>
      </g>
    </g>
  </g>
</svg>
