<svg xmlns="http://www.w3.org/2000/svg" width="23" height="23" viewBox="0 0 23 23">
  <g id="coupones" transform="translate(-30 -375)">
    <rect id="Rectangle_50" data-name="Rectangle 50" width="23" height="23" rx="6" transform="translate(30 375)" fill="rgba(0,182,95,0.2)"/>
    <g id="ticket" transform="translate(31.4 359.111)">
      <path id="Path_416" data-name="Path 416" d="M16.4,27.038a.186.186,0,0,0,.182-.172v-2.2a.188.188,0,0,0-.182-.182h-.484L15.7,23.042a.175.175,0,0,0-.2-.151l-2.735.4h-.01l-7.992,1.2a.186.186,0,0,0-.151.172v2.19a.186.186,0,0,0,.172.182.8.8,0,0,1,0,1.594A.186.186,0,0,0,4.6,28.8v2.19a.188.188,0,0,0,.182.182h11.6a.188.188,0,0,0,.182-.182v-2.18a.186.186,0,0,0-.172-.182.8.8,0,1,1,0-1.594Zm-3.764-3.36.071.474a.173.173,0,0,0,.172.151h.03a.175.175,0,0,0,.151-.2l-.071-.474,2.392-.353.182,1.221H7.173Zm3.592,5.3v1.857H13.611v-.484a.182.182,0,0,0-.363,0v.484H4.973V28.975a1.149,1.149,0,0,0,0-2.27V24.848h8.285v.474a.182.182,0,0,0,.363,0v-.484h2.614v1.857a1.15,1.15,0,0,0-.959,1.312A1.113,1.113,0,0,0,16.225,28.975Z" fill="#00b65f" stroke="#00b65f" stroke-width="0.5"/>
      <path id="Path_417" data-name="Path 417" d="M90.482,74.6a.186.186,0,0,0-.182.172v1.171a.182.182,0,0,0,.363,0v-1.16A.181.181,0,0,0,90.482,74.6Z" transform="translate(-77.052 -46.493)" fill="#00b65f" stroke="#00b65f" stroke-width="0.5"/>
      <path id="Path_418" data-name="Path 418" d="M90.482,54.2a.186.186,0,0,0-.182.172v1.171a.182.182,0,0,0,.363,0V54.372A.179.179,0,0,0,90.482,54.2Z" transform="translate(-77.052 -28.151)" fill="#00b65f" stroke="#00b65f" stroke-width="0.5"/>
      <path id="Path_419" data-name="Path 419" d="M25.682,53.853h2.19a.181.181,0,0,0,.182-.182.173.173,0,0,0-.182-.172h-2.19a.181.181,0,0,0-.182.182A.173.173,0,0,0,25.682,53.853Z" transform="translate(-18.791 -27.522)" fill="#00b65f" stroke="#00b65f" stroke-width="0.5"/>
      <path id="Path_420" data-name="Path 420" d="M30.061,64.6h-4.38a.182.182,0,0,0,0,.363h4.38a.182.182,0,0,0,0-.363Z" transform="translate(-18.791 -37.502)" fill="#00b65f" stroke="#00b65f" stroke-width="0.5"/>
      <path id="Path_421" data-name="Path 421" d="M30.061,75.7h-4.38a.182.182,0,0,0,0,.363h4.38a.182.182,0,0,0,0-.363Z" transform="translate(-18.791 -47.482)" fill="#00b65f" stroke="#00b65f" stroke-width="0.5"/>
      <path id="Path_422" data-name="Path 422" d="M30.061,86.8h-4.38a.182.182,0,1,0,0,.363h4.38a.182.182,0,1,0,0-.363Z" transform="translate(-18.791 -57.462)" fill="#00b65f" stroke="#00b65f" stroke-width="0.5"/>
    </g>
  </g>
</svg>
