<svg xmlns="http://www.w3.org/2000/svg" width="263.252" height="196.308" viewBox="0 0 263.252 196.308">
  <g id="emptycart" transform="translate(-2335.367 -784.47)">
    <g id="Group_5186" data-name="Group 5186" transform="translate(2335.867 808.467)">
      <g id="Group_5185" data-name="Group 5185" transform="translate(0 0)">
        <path id="Path_500" data-name="Path 500" d="M2589.566,1038.693q.145.9.266,1.8a84.317,84.317,0,0,1,.467,16.618q-.072,1.072-.165,2.133a100.364,100.364,0,0,1-2.281,14.143q-.288,1.219-.606,2.43c-6.127,23.394-20.27,44.418-38.779,59.85a138.015,138.015,0,0,1-15.61,11.236q-2.385,1.48-4.838,2.875-4.367,2.488-8.93,4.7a165.134,165.134,0,0,1-52.82,15.316q-.637.073-1.275.142a144.793,144.793,0,0,1-51.822-3.461q-.94-.245-1.877-.506-2.332-.65-4.613-1.4a99.248,99.248,0,0,1-9.386-3.64q-1.458-.65-2.89-1.347a100.705,100.705,0,0,1-17.736-11.028,103.1,103.1,0,0,1-12.353-11.309,106.862,106.862,0,0,1-28.252-78.964c1.252-20.535,7.9-48.741,29.6-56.756,23.284-8.6,46.391,7.543,68.047,13.876a123.929,123.929,0,0,0,63.418,1.618c22.667-5.28,49.513-22.245,72.63-9.684A35.426,35.426,0,0,1,2584.1,1021.9,52.7,52.7,0,0,1,2589.566,1038.693Z" transform="translate(-2335.867 -999.05)" fill="#cbf1de"/>
      </g>
    </g>
    <g id="Group_5188" data-name="Group 5188" transform="translate(2342.547 784.47)">
      <g id="Group_5187" data-name="Group 5187" transform="translate(0)">
        <path id="Path_501" data-name="Path 501" d="M2649.718,892.715q-.156.892-.336,1.786a84.353,84.353,0,0,1-4.984,15.86q-.417.99-.852,1.963a100.2,100.2,0,0,1-6.773,12.623q-.663,1.047-1.351,2.076l-.016.023a115.612,115.612,0,0,1-41.008,36.942l-.145.078q-1.788.971-3.609,1.88-.732.366-1.466.721-4.89,2.365-9.964,4.29a136.894,136.894,0,0,1-15.869,4.92q-1.274.314-2.555.6-2.737.621-5.511,1.137-4.941.928-9.976,1.526a165.127,165.127,0,0,1-54.926-2.767c-.417-.093-.835-.187-1.251-.283a144.771,144.771,0,0,1-47.853-20.189q-.81-.538-1.609-1.09-1.971-1.362-3.859-2.8c-.015-.01-.028-.021-.042-.032q-.79-.6-1.564-1.219-3.186-2.531-6.119-5.285-1.166-1.09-2.292-2.218a100.707,100.707,0,0,1-13.165-16.214c-.058-.089-.118-.179-.175-.27A102.715,102.715,0,0,1,2407,917.3q-1.248-2.461-2.361-4.981a106.864,106.864,0,0,1-.925-83.862c7.888-19,23.378-43.492,46.506-43.983,24.816-.527,41.387,22.274,59.789,35.331a123.933,123.933,0,0,0,59.415,22.234c23.149,2.409,54.063-4.861,71.813,14.557a35.416,35.416,0,0,1,8.8,18.46A52.7,52.7,0,0,1,2649.718,892.715Z" transform="translate(-2395.599 -784.47)" fill="#8cdcb5"/>
      </g>
    </g>
    <g id="Group_5360" data-name="Group 5360" transform="translate(1588.633 -173.784)">
      <g id="Group_5359" data-name="Group 5359" transform="translate(747.234 1006.571)">
        <g id="Group_5292" data-name="Group 5292" transform="translate(42.166 23.789)">
          <g id="Group_5291" data-name="Group 5291">
            <g id="Group_5283" data-name="Group 5283">
              <path id="Path_570" data-name="Path 570" d="M1588.631,1385.786l-20.211-1.491h-.005c-.027,0-.055,0-.082,0h-.041l-.049,0a1.2,1.2,0,0,0-.48.138l-.032.016-.034.022a1.2,1.2,0,0,0-.276.233c-.015.017-.03.034-.045.052l-.02.028c-.018.024-.035.048-.051.073l0,0-18.742,30.068-108.341-29.03a1.212,1.212,0,0,0-1.526,1.18l.472,62.286a1.212,1.212,0,0,0,.9,1.161l.011,0,.009,0,59.472,15.936.655.175,15.385,4.122h0l.008,0,6.745,1.807c3.237.867,5.377,2.36,6.362,4.436.846,1.784.9,4.091.158,6.858a9.231,9.231,0,0,1-11.293,6.52l-102-27.332a1.212,1.212,0,0,0-.627,2.341l102,27.332a11.658,11.658,0,0,0,14.262-8.234c.894-3.338.79-6.206-.309-8.524-1.3-2.748-3.97-4.678-7.925-5.738l-5.173-1.386,32.327-51.863.009-.014,18.829-30.207,19.481,1.437a1.212,1.212,0,1,0,.178-2.417Zm-63.614,25.346-5.576,11.958-28.025-7.509,3.363-12.551Zm-38.933,19.979-3.654,13.637-21.506-5.762,1.25-14.282Zm-23.81-7.551,1.25-14.281,26.508,7.1-3.654,13.637Zm24.9,7.844,25.235,6.762-6.059,12.993-22.83-6.117Zm.293-1.093,3.654-13.637,27.832,7.458-6.059,12.993Zm6.217-27.574-3.363,12.551-26.7-7.154,1.15-13.144Zm-52.557-14.083,22.534,6.038-1.15,13.144-21.282-5.7Zm.111,14.653,21.173,5.673-1.249,14.282-19.813-5.309Zm.12,15.819,19.7,5.28-1.249,14.282-18.343-4.915Zm.222,29.3-.1-13.48,18.234,4.886-1.15,13.144Zm18.091,4.848,1.15-13.144,21.313,5.711-3.363,12.551Zm20.193,5.411,3.363-12.551,22.638,6.066-5.576,11.958Zm35.493,9.51-13.959-3.74,5.576-11.958,15.568,4.171Zm7.811-12.531-15.708-4.209,6.059-12.993,17.456,4.677Zm8.432-13.528-17.6-4.715,6.059-12.993,19.344,5.183Zm8.432-13.528-19.484-5.221,5.576-11.958,21.093,5.652Z" transform="translate(-1413.829 -1384.071)" fill="#00b65f"/>
              <path id="Path_571" data-name="Path 571" d="M1516.7,1490.078a11.9,11.9,0,0,1-3.082-.408l-102-27.331a1.434,1.434,0,0,1,.743-2.771l102,27.332a9.009,9.009,0,0,0,11.021-6.363c.727-2.715.679-4.97-.144-6.7-.956-2.014-3.048-3.466-6.219-4.316l-6.74-1.806-.012,0-.015,0-75.511-20.233-.012,0a1.438,1.438,0,0,1-1.063-1.375l-.472-62.286a1.434,1.434,0,0,1,1.806-1.4l108.182,28.987,18.659-29.935,0,0c.018-.028.037-.055.056-.081l0-.006.019-.026c.015-.019.029-.036.044-.052l.009-.01a1.42,1.42,0,0,1,.327-.276l.008-.005.033-.02.03-.016.007,0a1.42,1.42,0,0,1,.568-.164h.013l.045,0h.049c.029,0,.059,0,.089,0h.017l20.208,1.49a1.434,1.434,0,0,1-.211,2.861l-19.347-1.427-50.935,81.715,4.883,1.308c4.021,1.078,6.735,3.048,8.068,5.858,1.123,2.367,1.232,5.287.323,8.677a11.9,11.9,0,0,1-11.453,8.8Zm-104.713-30.115a.99.99,0,0,0-.256,1.945l102,27.332a11.435,11.435,0,0,0,13.989-8.077c.88-3.285.781-6.1-.3-8.371-1.274-2.686-3.892-4.576-7.781-5.618l-5.463-1.464.159-.255,51.236-82.2,19.615,1.447a.989.989,0,0,0,.146-1.974l-20.2-1.49h-.011c-.022,0-.044,0-.067,0H1565l-.021,0a.977.977,0,0,0-.392.113l-.02.01-.014.009-.02.013a.981.981,0,0,0-.225.19l-.011.012-.027.031,0,0-.013.018c-.014.019-.028.038-.041.059l-.006.009-18.826,30.2-.159-.043-108.341-29.03a.989.989,0,0,0-1.245.963l.472,62.286a.992.992,0,0,0,.725.946l.018,0,.016,0,82.263,22.042c3.3.885,5.492,2.418,6.506,4.555.87,1.832.927,4.191.172,7.01a9.438,9.438,0,0,1-11.566,6.677l-102-27.332A.989.989,0,0,0,1411.989,1459.964Zm100.2,5.212-14.374-3.852,5.767-12.368,16.038,4.3Zm-13.747-4.144,13.544,3.629,6.939-11.132-15.1-4.045Zm-1.3.112-20.82-5.579,3.478-12.981,23.109,6.192Zm-20.275-5.893,20.029,5.367,5.385-11.549-22.167-5.94Zm-1.208.137-19.5-5.224,1.189-13.594,21.784,5.837Zm-19.02-5.557,18.7,5.012,3.248-12.121-20.842-5.585Zm63.36,2.815-16.123-4.32,6.25-13.4,17.926,4.8Zm-15.5-4.613,15.293,4.1,7.561-12.13-16.985-4.551Zm-49.013,1.951-17.4-4.663-.106-13.941,18.7,5.01Zm-16.959-5,16.562,4.438,1.111-12.694-17.772-4.762Zm64.672,3.166-23.225-6.223,3.769-14.067.215.057,25.491,6.83Zm-22.68-6.538,22.435,6.011,5.868-12.583-24.764-6.635Zm-1.208.137-.215-.058-21.686-5.811,1.289-14.732,24.381,6.533Zm-21.425-6.2L1479,1441.2l3.539-13.208-23.439-6.281Zm70.542,3.575-18.011-4.826,6.25-13.4,19.815,5.309ZM1511.045,1434l17.181,4.6,7.561-12.13-18.874-5.057Zm-54.307,1.7-18.763-5.027-.115-15.108,20.166,5.4Zm-18.32-5.37,17.923,4.8,1.21-13.831-19.241-5.156Zm71.327,3.785-.18-.048-25.642-6.871,3.769-14.067,28.3,7.584Zm-25.278-7.234,25.032,6.707,5.868-12.583-27.361-7.331Zm-1.208.137-.215-.057-24.284-6.507,1.289-14.732,26.979,7.229Zm-24.023-6.9,23.708,6.353,3.539-13.207-26.037-6.977Zm77.625,5.473-19.9-5.332,5.767-12.368,21.563,5.778Zm-19.272-5.625,19.069,5.109,6.939-11.132-20.623-5.526Zm-59.5.3-20.232-5.421-.115-15.108,21.636,5.8Zm-19.79-5.763,19.393,5.2,1.21-13.831-20.711-5.549Zm77.991,5.571-.18-.048-28.24-7.567,3.478-12.981,30.709,8.228Zm-27.875-7.93,27.629,7.4,5.385-11.549-29.767-7.976Zm-1.208.137-27.1-7.26,1.189-13.594.256.069,29.129,7.8Zm-26.62-7.594,26.305,7.048,3.248-12.121L1461.7,1392Zm-1.149.153-21.7-5.815-.106-13.941,23,6.162Zm-21.26-6.157,20.863,5.59,1.111-12.694-22.072-5.914Z" transform="translate(-1410.554 -1380.793)" fill="#00b65f"/>
            </g>
            <g id="Group_5284" data-name="Group 5284" transform="translate(17.529 90.337)">
              <path id="Path_572" data-name="Path 572" d="M1698.657,2805.646a7.031,7.031,0,1,0,4.972,8.612A7.039,7.039,0,0,0,1698.657,2805.646Zm2.631,7.984a4.607,4.607,0,1,1-3.258-5.643A4.612,4.612,0,0,1,1701.287,2813.63Z" transform="translate(-1689.582 -2805.183)" fill="#00b65f"/>
              <path id="Path_573" data-name="Path 573" d="M1693.557,2816.415a7.25,7.25,0,1,1,7.008-5.377A7.234,7.234,0,0,1,1693.557,2816.415Zm0-14.064a6.8,6.8,0,1,0,1.761.233A6.821,6.821,0,0,0,1693.56,2802.35Zm0,11.641a4.831,4.831,0,1,1,4.661-3.581l-.215-.058.215.058a4.843,4.843,0,0,1-4.661,3.581Zm0-9.217a4.387,4.387,0,1,0,1.134.15A4.393,4.393,0,0,0,1693.559,2804.774Z" transform="translate(-1686.304 -2801.905)" fill="#00b65f"/>
            </g>
            <g id="Group_5285" data-name="Group 5285" transform="translate(77.322 106.359)">
              <path id="Path_574" data-name="Path 574" d="M2639.289,3057.687a7.031,7.031,0,1,0,4.972,8.612A7.039,7.039,0,0,0,2639.289,3057.687Zm2.631,7.984a4.607,4.607,0,1,1-3.258-5.643A4.613,4.613,0,0,1,2641.92,3065.671Z" transform="translate(-2630.213 -3057.224)" fill="#00b65f"/>
              <path id="Path_575" data-name="Path 575" d="M2634.168,3068.456a7.254,7.254,0,1,1,7.008-5.377A7.247,7.247,0,0,1,2634.168,3068.456Zm0-14.064a6.812,6.812,0,1,0,1.761.233A6.821,6.821,0,0,0,2634.171,3054.392Zm0,11.64a4.83,4.83,0,1,1,4.667-3.58h0A4.839,4.839,0,0,1,2634.169,3066.032Zm0-9.216a4.385,4.385,0,1,0,4.235,5.521h0a4.387,4.387,0,0,0-4.235-5.521Z" transform="translate(-2626.914 -3053.947)" fill="#00b65f"/>
            </g>
            <g id="Group_5286" data-name="Group 5286" transform="translate(81.762 110.798)">
              <path id="Path_576" data-name="Path 576" d="M2703.539,3127.373a2.592,2.592,0,1,0,1.833,3.175A2.6,2.6,0,0,0,2703.539,3127.373Zm.74,2.882a1.461,1.461,0,1,1-1.033-1.79A1.463,1.463,0,0,1,2704.279,3130.256Z" transform="translate(-2700.053 -3127.062)" fill="#00b65f"/>
              <path id="Path_577" data-name="Path 577" d="M2699.589,3129.406a2.815,2.815,0,1,1,.729-5.534h0a2.815,2.815,0,0,1-.729,5.534Zm0-5.186a2.372,2.372,0,1,0,.615.081h0A2.377,2.377,0,0,0,2699.588,3124.221Zm0,4.054a1.683,1.683,0,1,1,1.627-1.248A1.676,1.676,0,0,1,2699.59,3128.275Zm0-2.923a1.239,1.239,0,1,0,1.2,1.559h0a1.239,1.239,0,0,0-1.2-1.559Z" transform="translate(-2696.775 -3123.775)" fill="#00b65f"/>
            </g>
            <g id="Group_5287" data-name="Group 5287" transform="translate(21.968 94.777)">
              <path id="Path_578" data-name="Path 578" d="M1762.906,2875.331a2.592,2.592,0,1,0,1.833,3.175A2.6,2.6,0,0,0,1762.906,2875.331Zm.741,2.882a1.461,1.461,0,1,1-1.033-1.79A1.463,1.463,0,0,1,1763.647,2878.213Z" transform="translate(-1759.42 -2875.02)" fill="#00b65f"/>
              <path id="Path_579" data-name="Path 579" d="M1758.957,2877.373a2.814,2.814,0,1,1,2.72-2.087A2.806,2.806,0,0,1,1758.957,2877.373Zm0-5.185a2.369,2.369,0,1,0,.613.081A2.374,2.374,0,0,0,1758.958,2872.188Zm0,4.054a1.7,1.7,0,0,1-.437-.058,1.673,1.673,0,1,1,.437.058Zm0-2.923a1.239,1.239,0,1,0,.32.042A1.241,1.241,0,0,0,1758.958,2873.319Z" transform="translate(-1756.142 -2871.743)" fill="#00b65f"/>
            </g>
            <g id="Group_5288" data-name="Group 5288" transform="translate(17.418 34.201)">
              <path id="Path_580" data-name="Path 580" d="M1688.682,1948.929a.566.566,0,0,0,.712-.551l-.209-25.507a.566.566,0,1,0-1.131.009l.209,25.507A.565.565,0,0,0,1688.682,1948.929Z" transform="translate(-1687.831 -1922.088)" fill="#00b65f"/>
              <path id="Path_581" data-name="Path 581" d="M1685.55,1945.894a.789.789,0,0,1-.2-.027h0a.79.79,0,0,1-.584-.755l-.209-25.507a.788.788,0,1,1,1.576-.013l.209,25.507a.789.789,0,0,1-.782.795Zm-.207-26.638h0a.343.343,0,0,0-.341.346l.209,25.507a.344.344,0,0,0,.254.329h0a.359.359,0,0,0,.092.011.343.343,0,0,0,.341-.346l-.209-25.507a.342.342,0,0,0-.342-.34Z" transform="translate(-1684.554 -1918.811)" fill="#00b65f"/>
            </g>
            <g id="Group_5289" data-name="Group 5289" transform="translate(10.741 19.686)">
              <path id="Path_582" data-name="Path 582" d="M1583.562,1709.605a.566.566,0,0,0,.712-.551l-.119-14.511a.566.566,0,0,0-1.131.009l.119,14.511A.566.566,0,0,0,1583.562,1709.605Z" transform="translate(-1582.801 -1693.76)" fill="#00b65f"/>
              <path id="Path_583" data-name="Path 583" d="M1580.43,1706.569a.787.787,0,0,1-.787-.782l-.119-14.511a.788.788,0,1,1,1.576-.013l.119,14.511a.788.788,0,0,1-.782.794Zm-.118-15.642h0a.343.343,0,0,0-.34.346l.119,14.511a.344.344,0,0,0,.254.328h0a.343.343,0,0,0,.432-.334l-.119-14.511a.342.342,0,0,0-.342-.34Z" transform="translate(-1579.524 -1690.482)" fill="#00b65f"/>
            </g>
            <g id="Group_5290" data-name="Group 5290" transform="translate(10.888 37.639)">
              <path id="Path_584" data-name="Path 584" d="M1585.9,1976.4a.566.566,0,0,0-.561.57l.062,7.554a.566.566,0,1,0,1.131-.009l-.062-7.554A.565.565,0,0,0,1585.9,1976.4Z" transform="translate(-1585.117 -1976.173)" fill="#00b65f"/>
              <path id="Path_585" data-name="Path 585" d="M1582.689,1982.026a.788.788,0,0,1-.787-.782l-.062-7.554a.788.788,0,1,1,1.576-.013l.062,7.555a.788.788,0,0,1-.781.794Zm-.064-8.685h0a.343.343,0,0,0-.34.346l.062,7.554a.344.344,0,0,0,.254.329.367.367,0,0,0,.092.011.343.343,0,0,0,.34-.346l-.062-7.554a.342.342,0,0,0-.1-.242.331.331,0,0,0-.243-.1Z" transform="translate(-1581.84 -1972.896)" fill="#00b65f"/>
            </g>
          </g>
        </g>
        <g id="Group_5351" data-name="Group 5351" transform="translate(174.277 80.715)">
          <g id="Group_5314" data-name="Group 5314" transform="translate(42.449 16.195)">
            <g id="Group_5313" data-name="Group 5313">
              <g id="Group_5296" data-name="Group 5296" transform="translate(0 9.36)">
                <g id="Group_5295" data-name="Group 5295">
                  <g id="Group_5294" data-name="Group 5294">
                    <g id="Group_5293" data-name="Group 5293">
                      <path id="Path_586" data-name="Path 586" d="M4192.905,2716.959h-36.3l3.3-38.627h29.7Z" transform="translate(-4156.606 -2678.332)" fill="#1b874c" stroke="rgba(0,0,0,0)" stroke-miterlimit="10" stroke-width="1"/>
                    </g>
                  </g>
                </g>
              </g>
              <g id="Group_5300" data-name="Group 5300" transform="translate(8.789)">
                <g id="Group_5299" data-name="Group 5299">
                  <g id="Group_5298" data-name="Group 5298">
                    <g id="Group_5297" data-name="Group 5297">
                      <path id="Path_587" data-name="Path 587" d="M4313.318,2538.191a9.36,9.36,0,0,0-18.443,2.261h2.359a7,7,0,1,1,14,0h2.359A9.308,9.308,0,0,0,4313.318,2538.191Z" transform="translate(-4294.875 -2531.092)" fill="#109953" stroke="rgba(0,0,0,0)" stroke-miterlimit="10" stroke-width="1"/>
                    </g>
                  </g>
                </g>
              </g>
              <g id="Group_5304" data-name="Group 5304" transform="translate(0 16.692)" opacity="0.4">
                <g id="Group_5303" data-name="Group 5303">
                  <g id="Group_5302" data-name="Group 5302">
                    <g id="Group_5301" data-name="Group 5301">
                      <path id="Path_588" data-name="Path 588" d="M4190.233,2793.684s-6.294,22.918-32.828,21.925l-.8,9.369h36.3Z" transform="translate(-4156.606 -2793.684)" fill="#109953" stroke="rgba(0,0,0,0)" stroke-miterlimit="10" stroke-width="1"/>
                    </g>
                  </g>
                </g>
              </g>
              <g id="Group_5308" data-name="Group 5308" transform="translate(8.789 7.099)" opacity="0.4">
                <g id="Group_5307" data-name="Group 5307">
                  <g id="Group_5306" data-name="Group 5306">
                    <g id="Group_5305" data-name="Group 5305">
                      <path id="Path_589" data-name="Path 589" d="M4297.609,2642.766a6.946,6.946,0,0,0-.375,2.261h-2.359a9.308,9.308,0,0,1,.276-2.261Z" transform="translate(-4294.875 -2642.766)" fill="#1b874c" stroke="rgba(0,0,0,0)" stroke-miterlimit="10" stroke-width="1"/>
                    </g>
                  </g>
                </g>
              </g>
              <g id="Group_5312" data-name="Group 5312" transform="translate(24.775 7.099)" opacity="0.4">
                <g id="Group_5311" data-name="Group 5311">
                  <g id="Group_5310" data-name="Group 5310">
                    <g id="Group_5309" data-name="Group 5309">
                      <path id="Path_590" data-name="Path 590" d="M4549.085,2645.027h-2.359a6.946,6.946,0,0,0-.375-2.261h2.457A9.308,9.308,0,0,1,4549.085,2645.027Z" transform="translate(-4546.351 -2642.766)" fill="#1b874c" stroke="rgba(0,0,0,0)" stroke-miterlimit="10" stroke-width="1"/>
                    </g>
                  </g>
                </g>
              </g>
            </g>
          </g>
          <g id="Group_5350" data-name="Group 5350">
            <g id="Group_5327" data-name="Group 5327" transform="translate(17.523)">
              <g id="Group_5318" data-name="Group 5318">
                <g id="Group_5317" data-name="Group 5317">
                  <g id="Group_5316" data-name="Group 5316">
                    <g id="Group_5315" data-name="Group 5315">
                      <path id="Path_591" data-name="Path 591" d="M3764.476,2288.247h3.006a8.92,8.92,0,1,1,17.841,0h3.006a11.926,11.926,0,1,0-23.852,0Z" transform="translate(-3764.476 -2276.321)" fill="#109953" stroke="rgba(0,0,0,0)" stroke-width="1"/>
                    </g>
                  </g>
                </g>
              </g>
              <g id="Group_5322" data-name="Group 5322" transform="translate(20.369 9.045)" opacity="0.4">
                <g id="Group_5321" data-name="Group 5321">
                  <g id="Group_5320" data-name="Group 5320">
                    <g id="Group_5319" data-name="Group 5319">
                      <path id="Path_592" data-name="Path 592" d="M4084.9,2418.613a8.858,8.858,0,0,1,.478,2.881h3.006a11.877,11.877,0,0,0-.352-2.881Z" transform="translate(-4084.898 -2418.613)" fill="#1b874c" stroke="rgba(0,0,0,0)" stroke-width="1"/>
                    </g>
                  </g>
                </g>
              </g>
              <g id="Group_5326" data-name="Group 5326" transform="translate(0 9.045)" opacity="0.2" style="mix-blend-mode: multiply;isolation: isolate">
                <g id="Group_5325" data-name="Group 5325" opacity="0.4">
                  <g id="Group_5324" data-name="Group 5324">
                    <g id="Group_5323" data-name="Group 5323">
                      <path id="Path_593" data-name="Path 593" d="M3764.476,2421.494h3.006a8.858,8.858,0,0,1,.478-2.881h-3.131A11.865,11.865,0,0,0,3764.476,2421.494Z" transform="translate(-3764.476 -2418.613)" fill="#1b874c" stroke="rgba(0,0,0,0)" stroke-width="1"/>
                    </g>
                  </g>
                </g>
              </g>
            </g>
            <rect id="Rectangle_2671" data-name="Rectangle 2671" width="40.911" height="52.256" transform="translate(8.993 11.926)" fill="#109953" stroke="rgba(0,0,0,0)" stroke-miterlimit="10" stroke-width="1"/>
            <rect id="Rectangle_2672" data-name="Rectangle 2672" width="40.911" height="52.256" transform="translate(40.911 64.182) rotate(180)" fill="#1b874c" stroke="rgba(0,0,0,0)" stroke-miterlimit="10" stroke-width="1"/>
            <path id="Path_594" data-name="Path 594" d="M4132.4,3217.419h8.993l-4.5-4.654Z" transform="translate(-4091.493 -3153.238)" fill="#578cca" stroke="rgba(0,0,0,0)" stroke-miterlimit="10" stroke-width="1" opacity="0.4" style="mix-blend-mode: multiply;isolation: isolate"/>
            <g id="Group_5337" data-name="Group 5337" transform="translate(29.107 11.926)">
              <g id="Group_5331" data-name="Group 5331">
                <g id="Group_5330" data-name="Group 5330">
                  <g id="Group_5329" data-name="Group 5329">
                    <g id="Group_5328" data-name="Group 5328">
                      <path id="Path_595" data-name="Path 595" d="M3946.711,2474.8v10.57h7.872V2474.8a.4.4,0,0,0-.118-.285l-3.533-3.535-.01-.008v-7.04h-.549v7.04l-.01.008-3.533,3.535A.4.4,0,0,0,3946.711,2474.8Zm4.043-2.576a.549.549,0,1,1-.646.646A.546.546,0,0,1,3950.754,2472.224Z" transform="translate(-3946.711 -2463.932)" fill="#fff" stroke="rgba(0,0,0,0)" stroke-miterlimit="10" stroke-width="1"/>
                    </g>
                  </g>
                </g>
              </g>
              <g id="Group_5336" data-name="Group 5336" transform="translate(0.968 13.141)">
                <g id="Group_5333" data-name="Group 5333">
                  <g id="Group_5332" data-name="Group 5332">
                    <path id="Path_596" data-name="Path 596" d="M3963.432,2670.656a1.477,1.477,0,0,0-1.319.811h0a1.482,1.482,0,0,0-.074.174c-.73,2,2.87,4.244,2.87,4.244v-3.752A1.477,1.477,0,0,0,3963.432,2670.656Z" transform="translate(-3961.941 -2670.656)" fill="#08b864"/>
                  </g>
                </g>
                <g id="Group_5335" data-name="Group 5335" transform="translate(2.968)">
                  <g id="Group_5334" data-name="Group 5334">
                    <path id="Path_597" data-name="Path 597" d="M4010.108,2670.656a1.476,1.476,0,0,1,1.318.811h0a1.4,1.4,0,0,1,.074.174c.73,2-2.87,4.244-2.87,4.244v-3.752A1.477,1.477,0,0,1,4010.108,2670.656Z" transform="translate(-4008.631 -2670.656)" fill="#08b864"/>
                  </g>
                </g>
              </g>
            </g>
            <rect id="Rectangle_2673" data-name="Rectangle 2673" width="4.496" height="52.256" transform="translate(45.407 64.182) rotate(180)" fill="#109953" stroke="rgba(0,0,0,0)" stroke-miterlimit="10" stroke-width="1" opacity="0.2" style="mix-blend-mode: multiply;isolation: isolate"/>
            <g id="Group_5341" data-name="Group 5341" transform="translate(8.529)">
              <g id="Group_5340" data-name="Group 5340">
                <g id="Group_5339" data-name="Group 5339">
                  <g id="Group_5338" data-name="Group 5338">
                    <path id="Path_598" data-name="Path 598" d="M3623,2288.247h3.006a8.92,8.92,0,1,1,17.841,0h3.006a11.926,11.926,0,1,0-23.852,0Z" transform="translate(-3623.005 -2276.321)" fill="#109953" stroke="rgba(0,0,0,0)" stroke-width="1"/>
                  </g>
                </g>
              </g>
            </g>
            <g id="Group_5345" data-name="Group 5345" transform="translate(28.898 9.045)" opacity="0.4">
              <g id="Group_5344" data-name="Group 5344">
                <g id="Group_5343" data-name="Group 5343">
                  <g id="Group_5342" data-name="Group 5342">
                    <path id="Path_599" data-name="Path 599" d="M3943.427,2418.613a8.858,8.858,0,0,1,.478,2.881h3.006a11.865,11.865,0,0,0-.353-2.881Z" transform="translate(-3943.427 -2418.613)" fill="#1b874c" stroke="rgba(0,0,0,0)" stroke-width="1"/>
                  </g>
                </g>
              </g>
            </g>
            <g id="Group_5349" data-name="Group 5349" transform="translate(8.529 9.045)" opacity="0.4">
              <g id="Group_5348" data-name="Group 5348">
                <g id="Group_5347" data-name="Group 5347">
                  <g id="Group_5346" data-name="Group 5346">
                    <path id="Path_600" data-name="Path 600" d="M3623,2421.494h3.006a8.858,8.858,0,0,1,.478-2.881h-3.131A11.865,11.865,0,0,0,3623,2421.494Z" transform="translate(-3623.005 -2418.613)" fill="#1b874c" stroke="rgba(0,0,0,0)" stroke-width="1"/>
                  </g>
                </g>
              </g>
            </g>
            <path id="Path_601" data-name="Path 601" d="M3586.989,2550.157s-.138,46.774-37.024,46.774h37.024Z" transform="translate(-3546.078 -2532.75)" fill="#00b65f" stroke="rgba(0,0,0,0)" stroke-miterlimit="10" stroke-width="1" opacity="0.4"/>
          </g>
        </g>
        <g id="Group_5353" data-name="Group 5353" transform="translate(8.389 12.25)">
          <g id="Group_5352" data-name="Group 5352" transform="translate(0 77.813)">
            <path id="Path_602" data-name="Path 602" d="M975.918,2426.261l2.89,1.581-2.89,1.581-1.581,2.89-1.581-2.89-2.89-1.581,2.89-1.581,1.581-2.89Z" transform="translate(-964.103 -2423.371)" fill="#00b65f" stroke="rgba(0,0,0,0)" stroke-width="1"/>
            <path id="Path_603" data-name="Path 603" d="M882.227,2607.663l1.445.79-1.445.791-.79,1.445-.79-1.445-1.445-.791,1.445-.79.79-1.445Z" transform="translate(-879.201 -2594.594)" fill="#00b65f" stroke="rgba(0,0,0,0)" stroke-width="1"/>
          </g>
          <path id="Path_604" data-name="Path 604" d="M4344.781,1202.379l3.1,1.7-3.1,1.7-1.7,3.1-1.7-3.1-3.1-1.7,3.1-1.7,1.7-3.1Z" transform="translate(-4118.396 -1199.275)" fill="#00b65f" stroke="rgba(0,0,0,0)" stroke-width="1"/>
        </g>
        <g id="Group_5354" data-name="Group 5354" transform="translate(0 144.897)">
          <path id="Path_605" data-name="Path 605" d="M1081.7,3285.975h132.523a1.288,1.288,0,0,1,1.278,1.3h0a1.288,1.288,0,0,1-1.278,1.3H1081.745a1.3,1.3,0,0,1-.949-2.214A1.265,1.265,0,0,1,1081.7,3285.975Z" transform="translate(-1059.242 -3285.975)" fill="#00b65f" stroke="rgba(0,0,0,0)" stroke-width="1"/>
          <path id="Path_606" data-name="Path 606" d="M3420.722,3287.273a1.3,1.3,0,0,1-1.3,1.3h-95.976a1.3,1.3,0,0,1-1.3-1.3h0a1.3,1.3,0,0,1,1.3-1.3h95.976A1.3,1.3,0,0,1,3420.722,3287.273Z" transform="translate(-3158.47 -3285.975)" fill="#00b65f" stroke="rgba(0,0,0,0)" stroke-width="1"/>
          <path id="Path_607" data-name="Path 607" d="M761.132,3288.575h-12.6a1.3,1.3,0,0,1-1.3-1.3h0a1.3,1.3,0,0,1,1.3-1.3h12.6a1.3,1.3,0,0,1,1.3,1.3h0A1.3,1.3,0,0,1,761.132,3288.575Z" transform="translate(-747.234 -3285.981)" fill="#00b65f" stroke="rgba(0,0,0,0)" stroke-width="1"/>
        </g>
        <g id="Group_5358" data-name="Group 5358" transform="translate(43.316 0)">
          <g id="Group_5355" data-name="Group 5355" transform="translate(17.766)">
            <path id="Path_608" data-name="Path 608" d="M1710.285,1015.478v-7.829a1.078,1.078,0,1,0-2.156,0v7.829a1.078,1.078,0,0,0,2.156,0Z" transform="translate(-1708.129 -1006.571)" fill="#00b65f" stroke="rgba(0,0,0,0)" stroke-width="1"/>
          </g>
          <g id="Group_5356" data-name="Group 5356" transform="translate(0 17.766)">
            <path id="Path_609" data-name="Path 609" d="M1438.627,1287.136a1.078,1.078,0,0,0-1.078-1.078h-7.829a1.078,1.078,0,0,0,0,2.156h7.829A1.078,1.078,0,0,0,1438.627,1287.136Z" transform="translate(-1428.642 -1286.058)" fill="#00b65f" stroke="rgba(0,0,0,0)" stroke-width="1"/>
          </g>
          <g id="Group_5357" data-name="Group 5357" transform="translate(5.204 5.204)">
            <path id="Path_610" data-name="Path 610" d="M1518.035,1094.886a1.074,1.074,0,0,0-.316-.762l-5.378-5.378a1.078,1.078,0,0,0-1.524,1.524l5.378,5.378a1.078,1.078,0,0,0,1.84-.762Z" transform="translate(-1510.501 -1088.43)" fill="#00b65f" stroke="rgba(0,0,0,0)" stroke-width="1"/>
          </g>
        </g>
      </g>
    </g>
  </g>
</svg>
