<svg id="favorite" xmlns="http://www.w3.org/2000/svg" width="23.1" height="21" viewBox="0 0 23.1 21">
  <g id="Group_5117" data-name="Group 5117" transform="translate(13.243 10.272)">
    <path id="Path_406" data-name="Path 406" d="M1928.1,1218.475a.574.574,0,0,1-.236-.051l-.051-.023a4.378,4.378,0,0,0-3.672.02.571.571,0,0,1-.807-.6,3.38,3.38,0,0,0-1.1-3.05l-.132-.118a.572.572,0,0,1,.281-.99l.435-.076a3.693,3.693,0,0,0,2.641-1.946.572.572,0,0,1,.507-.311h0a.572.572,0,0,1,.507.308,3.743,3.743,0,0,0,2.662,1.952l.416.073a.571.571,0,0,1,.281.99l-.125.111a3.3,3.3,0,0,0-1.049,3.041.571.571,0,0,1-.562.674Zm-4.5-3.906a4.508,4.508,0,0,1,.911,2.5,5.515,5.515,0,0,1,2.959,0,4.474,4.474,0,0,1,.876-2.5,4.91,4.91,0,0,1-2.375-1.623A4.856,4.856,0,0,1,1923.6,1214.569Z" transform="translate(-1921.905 -1211.326)" fill="#98a1af"/>
  </g>
  <g id="Group_5119" data-name="Group 5119" transform="translate(0 0)">
    <g id="Group_5118" data-name="Group 5118">
      <path id="Path_407" data-name="Path 407" d="M1827.887,1126.611a6.2,6.2,0,0,0-4.351-4.39c-2.348-.636-4.906.145-7.089,2.144a8.165,8.165,0,0,0-5.1-2.357,5.958,5.958,0,0,0-4.575,1.744,6.114,6.114,0,0,0-1.77,4.631,8.587,8.587,0,0,0,2.7,5.61l8.924,9.006,2.618-2.642a.354.354,0,0,1-.063-.04.587.587,0,0,1-.226-.558l.138-.908-2.467,2.49-8.1-8.176c-3.241-3.294-2.757-6.758-.937-8.582a4.848,4.848,0,0,1,3.45-1.411,7.084,7.084,0,0,1,4.99,2.414l.41.417.412-.416c1.968-1.986,4.294-2.8,6.38-2.236a5.03,5.03,0,0,1,3.53,3.561c.558,2.106-.25,4.453-2.217,6.438l-.117.118a3.084,3.084,0,0,0,1.156.46l.019,0C1827.7,1131.7,1828.532,1129.042,1827.887,1126.611Z" transform="translate(-1805.001 -1122)" fill="#98a1af"/>
    </g>
  </g>
</svg>
