<svg xmlns="http://www.w3.org/2000/svg" xmlns:xlink="http://www.w3.org/1999/xlink" width="34" height="24" viewBox="0 0 34 24">
  <defs>
    <clipPath id="clip-path">
      <rect id="Asset_5" data-name="Asset 5" width="28" height="18" rx="2" transform="translate(23 427)" fill="#e4e4e4"/>
    </clipPath>
  </defs>
  <g id="flutterwave" transform="translate(-20 -424)">
    <g id="Rectangle_10" data-name="Rectangle 10" transform="translate(20 424)" fill="none" stroke="#d4d8de" stroke-width="1">
      <rect width="34" height="24" rx="2" stroke="none"/>
      <rect x="0.5" y="0.5" width="33" height="23" rx="1.5" fill="none"/>
    </g>
    <g id="Mask_Group_22" data-name="Mask Group 22" clip-path="url(#clip-path)">
      <g id="flutterwave-2" data-name="flutterwave" transform="translate(2038.738 -1257.801)">
        <rect id="Rectangle_72" data-name="Rectangle 72" width="27.692" height="18" rx="1.662" transform="translate(-2015.585 1684.8)" fill="none"/>
        <g id="Page-1" transform="translate(-2018.711 1669.674)">
          <g id="Group-32" transform="translate(10.05 16.511)">
            <g id="Group-31">
              <path id="Shape" d="M20.432,22.991c1.952-1.613,5.968-7.377-.307-6.361-2.733.418-6.749,3.076-7.558,6.122a24.463,24.463,0,0,0-1.394-2.359c-.753-1.046-1.618-.239-.781.836a17.694,17.694,0,0,1,4.015,10.512,15.823,15.823,0,0,0-.837-6.331,3.621,3.621,0,0,0,1.115.179,11.431,11.431,0,0,0,5.438,4.719c2.008.807,4.685.329,3.6-2.9A10.349,10.349,0,0,0,20.432,22.991Zm.279-5.615c3.486-.388-.251,3.942-1.478,4.749a6.154,6.154,0,0,0-3.96-1.224c1-1.285,3.43-3.286,5.438-3.525Zm-5.467,4.48a4.549,4.549,0,0,1,2.761.985,6.317,6.317,0,0,1-2.454.687C14.269,23.529,14.018,21.976,15.245,21.856Zm4.825,6.75a9.5,9.5,0,0,1-4.295-3.136,8.094,8.094,0,0,0,2.649-1.045,5.694,5.694,0,0,0,.892-.568,8.019,8.019,0,0,1,2.37,3.435C22.078,28.755,21.018,28.875,20.07,28.606Z" transform="translate(-10.05 -16.511)" fill="#f5a623"/>
            </g>
          </g>
        </g>
      </g>
    </g>
  </g>
</svg>
