<svg id="home" xmlns="http://www.w3.org/2000/svg" width="21" height="21" viewBox="0 0 21 21">
  <path id="Path_399" data-name="Path 399" d="M1289.068,1142.679h-5.02a1.071,1.071,0,0,1-1.074-1.064v-6.153h-3.584v6.153a1.07,1.07,0,0,1-1.074,1.064h-5.02a1.07,1.07,0,0,1-1.074-1.064v-8.446a1.59,1.59,0,0,1-1.413-.988,1.567,1.567,0,0,1,.351-1.747l8-7.926a2.88,2.88,0,0,1,4.046,0l8,7.926a1.567,1.567,0,0,1,.351,1.747,1.59,1.59,0,0,1-1.413.988v8.446A1.07,1.07,0,0,1,1289.068,1142.679Zm-4.938-1.146h4.856v-8.444a1.071,1.071,0,0,1,1.074-1.064.453.453,0,0,0,.427-.282.446.446,0,0,0-.1-.5l-8-7.926a1.718,1.718,0,0,0-2.411,0l-8,7.926a.446.446,0,0,0-.1.5.452.452,0,0,0,.427.282,1.07,1.07,0,0,1,1.074,1.064v8.444h4.856v-6.153a1.07,1.07,0,0,1,1.074-1.064h3.748a1.07,1.07,0,0,1,1.074,1.064Z" transform="translate(-1270.682 -1121.679)" fill="#98a1af"/>
</svg>
