<svg xmlns="http://www.w3.org/2000/svg" width="23" height="23" viewBox="0 0 23 23">
  <g id="managecard" transform="translate(-30 -481)">
    <rect id="Rectangle_49" data-name="Rectangle 49" width="23" height="23" rx="6" transform="translate(30 481)" fill="rgba(0,182,95,0.2)"/>
    <g id="favourite" transform="translate(36 476.66)">
      <path id="Path_425" data-name="Path 425" d="M11.924,14.651a1.037,1.037,0,0,0-1-.726H7.931l-.942-2.861a1.037,1.037,0,0,0-1-.723h0a1.037,1.037,0,0,0-1,.731l-.915,2.854H1.055a1.053,1.053,0,0,0-.617,1.906L2.879,17.6l-.94,2.854a1.037,1.037,0,0,0,.378,1.179,1.037,1.037,0,0,0,1.238,0L6,19.863l2.416,1.765a1.053,1.053,0,0,0,1.623-1.171L9.124,17.6l2.42-1.768A1.037,1.037,0,0,0,11.924,14.651Zm-.794.61L8.3,17.327l1.072,3.344a.351.351,0,0,1-.541.39L6,19,3.145,21.062a.351.351,0,0,1-.539-.394l1.1-3.341L.849,15.262a.351.351,0,0,1,.206-.635H4.584l1.071-3.341a.341.341,0,0,1,.333-.244h0a.34.34,0,0,1,.333.241l1.1,3.344h3.5a.351.351,0,0,1,.207.634Z" transform="translate(0)" fill="#00b65f" stroke="#00b65f" stroke-width="0.5"/>
    </g>
  </g>
</svg>
