<svg xmlns="http://www.w3.org/2000/svg" width="23" height="23" viewBox="0 0 23 23">
  <g id="myorders" transform="translate(-30 -322)">
    <rect id="Rectangle_2652" data-name="Rectangle 2652" width="23" height="23" rx="6" transform="translate(30 322)" fill="rgba(0,182,95,0.2)"/>
    <path id="gift" d="M10.857,2.742H8.369A1.567,1.567,0,0,0,6.36.339.2.2,0,1,0,6.6.646a1.175,1.175,0,1,1,.808,2.1H6.155V1.569A1.567,1.567,0,1,0,3.549,2.742H1.062a.981.981,0,0,0-.98.98v1.01A.981.981,0,0,0,.915,5.7v5.08a.981.981,0,0,0,.98.98h8.13a.981.981,0,0,0,.98-.98V6.565a.2.2,0,0,0-.392,0V10.78a.588.588,0,0,1-.588.588H5.274V5.711H6.645v4.952a.2.2,0,1,0,.392,0V5.711h2.18a.2.2,0,0,0,0-.392h-1.3V3.134h2.939a.588.588,0,0,1,.588.588v1.01a.588.588,0,0,1-.588.588h-.38a.2.2,0,1,0,0,.392h.38a.981.981,0,0,0,.98-.98V3.721A.981.981,0,0,0,10.857,2.742ZM3.412,1.569a1.175,1.175,0,0,1,2.351,0V2.742H4.508A1.177,1.177,0,0,1,3.412,1.569Zm1.469,9.8H1.894a.588.588,0,0,1-.588-.588V5.711H4.882ZM7.527,5.319H1.062a.588.588,0,0,1-.588-.588V3.721a.588.588,0,0,1,.588-.588H4V4.7a.2.2,0,1,0,.392,0V3.134H7.527Z" transform="translate(35.418 327.498)" fill="#00b65f" stroke="#00b65f" stroke-width="0.5"/>
  </g>
</svg>
