<svg xmlns="http://www.w3.org/2000/svg" width="261.719" height="195.808" viewBox="0 0 261.719 195.808">
  <g id="noorder" transform="translate(-2335.867 -784.47)">
    <g id="Group_5186" data-name="Group 5186" transform="translate(2335.867 808.467)">
      <g id="Group_5185" data-name="Group 5185" transform="translate(0 0)">
        <path id="Path_500" data-name="Path 500" d="M2589.566,1038.693q.145.9.266,1.8a84.317,84.317,0,0,1,.467,16.618q-.072,1.072-.165,2.133a100.364,100.364,0,0,1-2.281,14.143q-.288,1.219-.606,2.43c-6.127,23.394-20.27,44.418-38.779,59.85a138.015,138.015,0,0,1-15.61,11.236q-2.385,1.48-4.838,2.875-4.367,2.488-8.93,4.7a165.134,165.134,0,0,1-52.82,15.316q-.637.073-1.275.142a144.793,144.793,0,0,1-51.822-3.461q-.94-.245-1.877-.506-2.332-.65-4.613-1.4a99.248,99.248,0,0,1-9.386-3.64q-1.458-.65-2.89-1.347a100.705,100.705,0,0,1-17.736-11.028,103.1,103.1,0,0,1-12.353-11.309,106.862,106.862,0,0,1-28.252-78.964c1.252-20.535,7.9-48.741,29.6-56.756,23.284-8.6,46.391,7.543,68.047,13.876a123.929,123.929,0,0,0,63.418,1.618c22.667-5.28,49.513-22.245,72.63-9.684A35.426,35.426,0,0,1,2584.1,1021.9,52.7,52.7,0,0,1,2589.566,1038.693Z" transform="translate(-2335.867 -999.05)" fill="#cbf1de"/>
      </g>
    </g>
    <g id="Group_5188" data-name="Group 5188" transform="translate(2342.547 784.47)">
      <g id="Group_5187" data-name="Group 5187" transform="translate(0)">
        <path id="Path_501" data-name="Path 501" d="M2649.718,892.715q-.156.892-.336,1.786a84.353,84.353,0,0,1-4.984,15.86q-.417.99-.852,1.963a100.2,100.2,0,0,1-6.773,12.623q-.663,1.047-1.351,2.076l-.016.023a115.612,115.612,0,0,1-41.008,36.942l-.145.078q-1.788.971-3.609,1.88-.732.366-1.466.721-4.89,2.365-9.964,4.29a136.894,136.894,0,0,1-15.869,4.92q-1.274.314-2.555.6-2.737.621-5.511,1.137-4.941.928-9.976,1.526a165.127,165.127,0,0,1-54.926-2.767c-.417-.093-.835-.187-1.251-.283a144.771,144.771,0,0,1-47.853-20.189q-.81-.538-1.609-1.09-1.971-1.362-3.859-2.8c-.015-.01-.028-.021-.042-.032q-.79-.6-1.564-1.219-3.186-2.531-6.119-5.285-1.166-1.09-2.292-2.218a100.707,100.707,0,0,1-13.165-16.214c-.058-.089-.118-.179-.175-.27A102.715,102.715,0,0,1,2407,917.3q-1.248-2.461-2.361-4.981a106.864,106.864,0,0,1-.925-83.862c7.888-19,23.378-43.492,46.506-43.983,24.816-.527,41.387,22.274,59.789,35.331a123.933,123.933,0,0,0,59.415,22.234c23.149,2.409,54.063-4.861,71.813,14.557a35.416,35.416,0,0,1,8.8,18.46A52.7,52.7,0,0,1,2649.718,892.715Z" transform="translate(-2395.599 -784.47)" fill="#8cdcb5"/>
      </g>
    </g>
    <g id="Group_5281" data-name="Group 5281" transform="translate(399.199 -2184.21)">
      <g id="Group_5280" data-name="Group 5280" transform="translate(1964.207 3003.016)">
        <g id="Group_5276" data-name="Group 5276" transform="translate(3.888 0)">
          <g id="Group_5225" data-name="Group 5225" transform="translate(0 17.06)">
            <g id="Group_5222" data-name="Group 5222" transform="translate(175.928)">
              <path id="Path_536" data-name="Path 536" d="M3363.97,3138.479l3.319,1.815-3.319,1.815-1.815,3.319-1.815-3.319-3.319-1.815,3.319-1.815,1.815-3.319Z" transform="translate(-3357.021 -3135.16)" fill="#00b65f"/>
            </g>
            <g id="Group_5223" data-name="Group 5223" transform="translate(169.19 12.594)">
              <path id="Path_537" data-name="Path 537" d="M3308.776,3234.589l1.883,1.03-1.883,1.03-1.03,1.883-1.03-1.883-1.884-1.03,1.884-1.03,1.03-1.883Z" transform="translate(-3304.833 -3232.707)" fill="#00b65f"/>
            </g>
            <g id="Group_5224" data-name="Group 5224" transform="translate(0 88.276)">
              <path id="Path_538" data-name="Path 538" d="M2001.851,3822.515l3.594,1.965-3.594,1.966-1.966,3.594-1.966-3.594-3.594-1.966,3.594-1.965,1.966-3.594Z" transform="translate(-1994.326 -3818.921)" fill="#00b65f"/>
            </g>
          </g>
          <g id="Group_5275" data-name="Group 5275" transform="translate(27.848)">
            <g id="Group_5254" data-name="Group 5254">
              <g id="Group_5248" data-name="Group 5248">
                <g id="Group_5237" data-name="Group 5237">
                  <g id="Group_5226" data-name="Group 5226" transform="translate(64.564 0)">
                    <path id="Path_539" data-name="Path 539" d="M2764.155,3025.586c-.26,4.137-1.891,8.458-6.036,12.828a40.974,40.974,0,0,1-4.078,3.757c-.9.726-1.8,1.38-2.672,1.968h0a32.495,32.495,0,0,1-11.061,5l-30.15-.2s-.024-.352-.027-1a.033.033,0,0,1,0-.011,46.269,46.269,0,0,1,1.085-9.776,47.046,47.046,0,0,1,17.255-27.673c19.868-15.409,31.068-3.27,33.582,3.619a35.66,35.66,0,0,1,1.917,7.164A21.161,21.161,0,0,1,2764.155,3025.586Z" transform="translate(-2710.128 -3003.018)" fill="#00b65f" stroke="rgba(0,0,0,0)" stroke-width="1"/>
                  </g>
                  <g id="Group_5227" data-name="Group 5227" transform="translate(91.597 12.972)" opacity="0.3">
                    <path id="Path_540" data-name="Path 540" d="M2946.513,3113.087c-.26,4.137-1.891,8.458-6.036,12.829a40.969,40.969,0,0,1-4.078,3.756h0c1.179-16.557-16.879-13.325-16.879-13.325l10.674-12.035S2944.145,3099.522,2946.513,3113.087Z" transform="translate(-2919.518 -3103.491)" fill="#cbf1de" stroke="rgba(0,0,0,0)" stroke-width="1"/>
                  </g>
                  <g id="Group_5228" data-name="Group 5228" transform="translate(9.013)">
                    <path id="Path_541" data-name="Path 541" d="M2333.9,3048.327c-.008.4-.023.609-.023.609l-30.15.2s-9.25-1.694-17.813-10.72c-8.2-8.642-6.565-17.1-3.932-24.314,2.514-6.888,13.713-19.027,33.582-3.619a47.085,47.085,0,0,1,17.324,28A45.289,45.289,0,0,1,2333.9,3048.327Z" transform="translate(-2279.84 -3003.016)" fill="#00b65f"/>
                  </g>
                  <g id="Group_5229" data-name="Group 5229" transform="translate(9.013 12.972)" opacity="0.3">
                    <path id="Path_542" data-name="Path 542" d="M2279.84,3113.087c.26,4.137,1.891,8.458,6.036,12.829a40.942,40.942,0,0,0,4.078,3.756h0c-1.179-16.557,16.878-13.325,16.878-13.325l-10.674-12.035S2282.208,3099.522,2279.84,3113.087Z" transform="translate(-2279.84 -3103.491)" fill="#cbf1de"/>
                  </g>
                  <g id="Group_5230" data-name="Group 5230" transform="translate(24.646 6.918)">
                    <path id="Path_543" data-name="Path 543" d="M2434.277,3090.8c-.186-.119-23.952-15.444-29.222-21.709-4.72-5.608-6.827-13.923,1.659-12.282h0a21.8,21.8,0,0,1,3.568,1.058c9.279,3.523,17.537,18.795,21.5,27.249C2433.355,3088.464,2434.253,3090.742,2434.277,3090.8Z" transform="translate(-2400.931 -3056.602)" fill="#d4d8de"/>
                  </g>
                  <g id="Group_5231" data-name="Group 5231" transform="translate(69.65 6.918)">
                    <path id="Path_544" data-name="Path 544" d="M2749.521,3090.806s10.995-28,24-32.934c12.526-4.756,10.519,4.936,5.227,11.224S2749.521,3090.806,2749.521,3090.806Z" transform="translate(-2749.521 -3056.603)" fill="#d4d8de"/>
                  </g>
                  <g id="Group_5232" data-name="Group 5232" transform="translate(24.646 6.918)" opacity="0.4" style="mix-blend-mode: multiply;isolation: isolate">
                    <path id="Path_545" data-name="Path 545" d="M2434.277,3090.8c-.186-.119-23.952-15.444-29.222-21.709-4.72-5.608-6.827-13.923,1.659-12.282h0c.038.163-3.593,12.8,25.072,28.306C2433.355,3088.464,2434.253,3090.742,2434.277,3090.8Z" transform="translate(-2400.931 -3056.602)" fill="#14244d"/>
                  </g>
                  <g id="Group_5233" data-name="Group 5233" transform="translate(69.651 6.918)" opacity="0.4" style="mix-blend-mode: multiply;isolation: isolate">
                    <path id="Path_546" data-name="Path 546" d="M2749.524,3090.8c.186-.119,23.952-15.444,29.222-21.709,4.72-5.608,6.827-13.923-1.659-12.282h0c-.038.163,3.593,12.8-25.072,28.306C2750.446,3088.464,2749.548,3090.742,2749.524,3090.8Z" transform="translate(-2749.524 -3056.602)" fill="#14244d"/>
                  </g>
                  <g id="Group_5234" data-name="Group 5234" transform="translate(55.501 36.99)">
                    <path id="Path_547" data-name="Path 547" d="M2648.248,3289.533a8.32,8.32,0,0,0-8.32,8.321h16.641A8.32,8.32,0,0,0,2648.248,3289.533Z" transform="translate(-2639.928 -3289.533)" fill="#d4d8de"/>
                  </g>
                  <g id="Group_5235" data-name="Group 5235" transform="translate(0 45.258)">
                    <rect id="Rectangle_2660" data-name="Rectangle 2660" width="127.644" height="23.931" fill="#00b65f"/>
                  </g>
                  <g id="Group_5236" data-name="Group 5236" transform="translate(42.954 45.258)" opacity="0.2">
                    <path id="Path_548" data-name="Path 548" d="M2602.373,3353.571s-11.24,24.383-59.635,23.931h84.69v-23.931Z" transform="translate(-2542.738 -3353.571)" fill="#00b65f"/>
                  </g>
                </g>
                <g id="Group_5247" data-name="Group 5247" transform="translate(6.611 45.31)">
                  <g id="Group_5238" data-name="Group 5238" transform="translate(0 23.878)">
                    <rect id="Rectangle_2661" data-name="Rectangle 2661" width="114.421" height="90.968" fill="#00b65f"/>
                  </g>
                  <g id="Group_5239" data-name="Group 5239" transform="translate(0 23.878)" opacity="0.2">
                    <path id="Path_549" data-name="Path 549" d="M2349.024,3538.932s-21.013,79.9-87.788,62.727v28.24h114.421v-90.967Z" transform="translate(-2261.236 -3538.932)" fill="#00b65f"/>
                  </g>
                  <g id="Group_5240" data-name="Group 5240" transform="translate(0 23.878)">
                    <path id="Path_550" data-name="Path 550" d="M2290.974,3538.931l-9.2,9.205-20.534,20.534v-16.365l4.169-4.169,9.205-9.205Z" transform="translate(-2261.236 -3538.931)" fill="#d4d8de"/>
                  </g>
                  <g id="Group_5241" data-name="Group 5241" transform="translate(0 23.878)">
                    <path id="Path_551" data-name="Path 551" d="M2352.963,3538.931l-9.205,9.205-81.764,81.763h-.758v-15.607l75.361-75.361Z" transform="translate(-2261.236 -3538.931)" fill="#d4d8de"/>
                  </g>
                  <g id="Group_5242" data-name="Group 5242" transform="translate(40.875 41.299)">
                    <path id="Path_552" data-name="Path 552" d="M2651.389,3673.872v16.364l-57.182,57.182h-16.364Z" transform="translate(-2577.842 -3673.872)" fill="#d4d8de"/>
                  </g>
                  <g id="Group_5243" data-name="Group 5243" transform="translate(97.356 97.78)">
                    <path id="Path_553" data-name="Path 553" d="M3032.4,4111.361v17.066h-17.065Z" transform="translate(-3015.331 -4111.361)" fill="#578cca"/>
                  </g>
                  <g id="Group_5244" data-name="Group 5244" transform="translate(48.188)">
                    <rect id="Rectangle_2662" data-name="Rectangle 2662" width="18.045" height="114.846" fill="#006736" stroke="rgba(0,0,0,0)" stroke-width="1"/>
                  </g>
                  <g id="Group_5245" data-name="Group 5245" transform="translate(0 23.878)" opacity="0.2" style="mix-blend-mode: multiply;isolation: isolate">
                    <rect id="Rectangle_2663" data-name="Rectangle 2663" width="114.421" height="9.205" fill="#87b1e0"/>
                  </g>
                  <g id="Group_5246" data-name="Group 5246" transform="translate(48.188 23.878)" opacity="0.4" style="mix-blend-mode: multiply;isolation: isolate">
                    <rect id="Rectangle_2664" data-name="Rectangle 2664" width="18.045" height="9.21" fill="#00b65f"/>
                  </g>
                </g>
              </g>
              <g id="Group_5253" data-name="Group 5253" transform="translate(16.77 45.258)">
                <g id="Group_5249" data-name="Group 5249">
                  <path id="Path_554" data-name="Path 554" d="M2353.58,3382.668v-29.1h-2.01v29.1l-11.65,11.323h0v26.145h25.309v-26.145Zm-1,5.132a1.981,1.981,0,1,1-1.981,1.981A1.981,1.981,0,0,1,2352.575,3387.8Z" transform="translate(-2339.92 -3353.571)" fill="#006736"/>
                </g>
                <g id="Group_5252" data-name="Group 5252" transform="translate(3.671 45.874)">
                  <g id="Group_5250" data-name="Group 5250">
                    <path id="Path_555" data-name="Path 555" d="M2377.338,3724.49s-10.7-6.107-8.745-12.305a4.5,4.5,0,0,1,4.272-3.285,4.477,4.477,0,1,0,8.945,0,4.5,4.5,0,0,1,4.272,3.285C2388.037,3718.383,2377.338,3724.49,2377.338,3724.49Z" transform="translate(-2368.354 -3708.899)" fill="#08b864"/>
                  </g>
                  <g id="Group_5251" data-name="Group 5251">
                    <path id="Path_556" data-name="Path 556" d="M2377.338,3713.572v10.918s-10.7-6.107-8.745-12.305a4.5,4.5,0,0,1,4.272-3.285A4.576,4.576,0,0,1,2377.338,3713.572Z" transform="translate(-2368.354 -3708.899)" fill="#fff"/>
                  </g>
                </g>
              </g>
            </g>
            <g id="Group_5274" data-name="Group 5274" transform="translate(98.368 78.399)">
              <g id="Group_5266" data-name="Group 5266">
                <g id="Group_5255" data-name="Group 5255" transform="translate(32.959 0)">
                  <path id="Path_557" data-name="Path 557" d="M3254.837,3621.795a10.247,10.247,0,0,1-3.081,6.549,20.807,20.807,0,0,1-2.082,1.917c-.461.371-.918.7-1.364,1h0a16.593,16.593,0,0,1-5.646,2.55l-15.391-.1s-.012-.179-.014-.509a.02.02,0,0,1,0-.005,23.621,23.621,0,0,1,.554-4.991,24.016,24.016,0,0,1,8.808-14.127c10.143-7.866,15.86-1.669,17.143,1.848a18.192,18.192,0,0,1,.979,3.657A10.748,10.748,0,0,1,3254.837,3621.795Z" transform="translate(-3227.257 -3610.275)" fill="#00b65f" stroke="rgba(0,0,0,0)" stroke-width="1"/>
                </g>
                <g id="Group_5256" data-name="Group 5256" transform="translate(46.759 6.622)" opacity="0.3">
                  <path id="Path_558" data-name="Path 558" d="M3347.927,3666.463a10.244,10.244,0,0,1-3.081,6.549,20.953,20.953,0,0,1-2.082,1.918h0c.6-8.452-8.616-6.8-8.616-6.8l5.449-6.144S3346.719,3659.539,3347.927,3666.463Z" transform="translate(-3334.147 -3661.564)" fill="#cbf1de" stroke="rgba(0,0,0,0)" stroke-width="1"/>
                </g>
                <g id="Group_5257" data-name="Group 5257" transform="translate(4.601)">
                  <path id="Path_559" data-name="Path 559" d="M3035.2,3633.4c0,.2-.012.311-.012.311l-15.391.1a18.473,18.473,0,0,1-9.093-5.472c-4.186-4.412-3.352-8.729-2.007-12.412,1.283-3.517,7-9.713,17.143-1.847a24.033,24.033,0,0,1,8.844,14.294A23.091,23.091,0,0,1,3035.2,3633.4Z" transform="translate(-3007.601 -3610.273)" fill="#00b65f" stroke="rgba(0,0,0,0)" stroke-width="1"/>
                </g>
                <g id="Group_5258" data-name="Group 5258" transform="translate(4.601 6.622)" opacity="0.3">
                  <path id="Path_560" data-name="Path 560" d="M3007.6,3666.463a10.242,10.242,0,0,0,3.082,6.549,20.95,20.95,0,0,0,2.081,1.918h0c-.6-8.452,8.616-6.8,8.616-6.8l-5.449-6.144S3008.81,3659.539,3007.6,3666.463Z" transform="translate(-3007.601 -3661.564)" fill="#cbf1de" stroke="rgba(0,0,0,0)" stroke-width="1"/>
                </g>
                <g id="Group_5259" data-name="Group 5259" transform="translate(12.582 3.531)">
                  <path id="Path_561" data-name="Path 561" d="M3086.439,3655.087c-.094-.061-12.227-7.885-14.917-11.082-2.41-2.863-3.486-7.108.847-6.271h0a11.152,11.152,0,0,1,1.821.54c4.737,1.8,8.953,9.595,10.978,13.91C3085.968,3653.893,3086.427,3655.056,3086.439,3655.087Z" transform="translate(-3069.416 -3637.627)" fill="#8cdcb5" stroke="rgba(0,0,0,0)" stroke-width="1"/>
                </g>
                <g id="Group_5260" data-name="Group 5260" transform="translate(35.555 3.532)">
                  <path id="Path_562" data-name="Path 562" d="M3247.366,3655.089s5.612-14.293,12.25-16.812c6.395-2.427,5.37,2.519,2.669,5.73S3247.366,3655.089,3247.366,3655.089Z" transform="translate(-3247.366 -3637.629)" fill="#8cdcb5"/>
                </g>
                <g id="Group_5261" data-name="Group 5261" transform="translate(12.582 3.531)" opacity="0.4" style="mix-blend-mode: multiply;isolation: isolate">
                  <path id="Path_563" data-name="Path 563" d="M3086.439,3655.087c-.094-.061-12.227-7.885-14.917-11.082-2.41-2.863-3.486-7.108.847-6.271h0c.019.083-1.834,6.533,12.8,14.45C3085.968,3653.893,3086.427,3655.056,3086.439,3655.087Z" transform="translate(-3069.416 -3637.627)" fill="#14244d"/>
                </g>
                <g id="Group_5262" data-name="Group 5262" transform="translate(35.556 3.531)" opacity="0.4" style="mix-blend-mode: multiply;isolation: isolate">
                  <path id="Path_564" data-name="Path 564" d="M3247.368,3655.087c.094-.061,12.227-7.885,14.917-11.082,2.409-2.863,3.485-7.108-.847-6.271h0c-.019.083,1.834,6.533-12.8,14.45C3247.839,3653.893,3247.38,3655.056,3247.368,3655.087Z" transform="translate(-3247.368 -3637.627)" fill="#14244d"/>
                </g>
                <g id="Group_5263" data-name="Group 5263" transform="translate(28.333 18.883)">
                  <path id="Path_565" data-name="Path 565" d="M3195.668,3756.536a4.247,4.247,0,0,0-4.248,4.248h8.495A4.247,4.247,0,0,0,3195.668,3756.536Z" transform="translate(-3191.421 -3756.536)" fill="#d4d8de"/>
                </g>
                <g id="Group_5264" data-name="Group 5264" transform="translate(0 23.103)">
                  <rect id="Rectangle_2665" data-name="Rectangle 2665" width="65.16" height="12.216" fill="#00b65f"/>
                </g>
                <g id="Group_5265" data-name="Group 5265" transform="translate(21.927 23.103)" opacity="0.4" style="mix-blend-mode: multiply;isolation: isolate">
                  <path id="Path_566" data-name="Path 566" d="M3172.249,3789.227s-5.738,12.447-30.443,12.216h43.232v-12.216Z" transform="translate(-3141.806 -3789.227)" fill="#14244d"/>
                </g>
              </g>
              <g id="Group_5271" data-name="Group 5271" transform="translate(3.375 23.13)">
                <g id="Group_5267" data-name="Group 5267" transform="translate(0 12.189)">
                  <rect id="Rectangle_2666" data-name="Rectangle 2666" width="58.411" height="46.438" fill="#2d9865"/>
                </g>
                <g id="Group_5268" data-name="Group 5268" transform="translate(0 12.189)" opacity="0.4" style="mix-blend-mode: multiply;isolation: isolate">
                  <path id="Path_567" data-name="Path 567" d="M3042.919,3883.851s-10.727,40.788-44.815,32.021v14.416h58.411v-46.438Z" transform="translate(-2998.104 -3883.851)" fill="#00b65f"/>
                </g>
                <g id="Group_5269" data-name="Group 5269" transform="translate(24.599)">
                  <rect id="Rectangle_2667" data-name="Rectangle 2667" width="9.212" height="58.627" fill="#d4d8de"/>
                </g>
                <g id="Group_5270" data-name="Group 5270" transform="translate(0 12.189)" opacity="0.4" style="mix-blend-mode: multiply;isolation: isolate">
                  <rect id="Rectangle_2668" data-name="Rectangle 2668" width="24.599" height="4.699" fill="#14244d"/>
                </g>
              </g>
              <g id="Group_5272" data-name="Group 5272" transform="translate(37.186 35.32)" opacity="0.4" style="mix-blend-mode: multiply;isolation: isolate">
                <rect id="Rectangle_2669" data-name="Rectangle 2669" width="24.599" height="4.699" fill="#14244d"/>
              </g>
              <g id="Group_5273" data-name="Group 5273" transform="translate(27.974 35.32)" opacity="0.4" style="mix-blend-mode: multiply;isolation: isolate">
                <rect id="Rectangle_2670" data-name="Rectangle 2670" width="9.212" height="4.699" fill="#00b65f" stroke="rgba(0,0,0,0)" stroke-width="1"/>
              </g>
            </g>
          </g>
        </g>
        <g id="Group_5279" data-name="Group 5279" transform="translate(0 158.865)">
          <g id="Group_5277" data-name="Group 5277">
            <path id="Path_568" data-name="Path 568" d="M1976.8,4236.127H1965.5a1.291,1.291,0,1,1,0-2.582H1976.8a1.291,1.291,0,1,1,0,2.582Z" transform="translate(-1964.207 -4233.546)" fill="#00b65f"/>
          </g>
          <g id="Group_5278" data-name="Group 5278" transform="translate(20.052)">
            <path id="Path_569" data-name="Path 569" d="M2304.824,4236.127H2120.816a1.291,1.291,0,1,1,0-2.582h184.008a1.291,1.291,0,1,1,0,2.582Z" transform="translate(-2119.525 -4233.546)" fill="#00b65f"/>
          </g>
        </g>
      </g>
    </g>
  </g>
</svg>
