<svg xmlns="http://www.w3.org/2000/svg" width="261.719" height="195.808" viewBox="0 0 261.719 195.808">
  <g id="noresult" transform="translate(-2335.867 -784.47)">
    <g id="Group_5186" data-name="Group 5186" transform="translate(2335.867 808.467)">
      <g id="Group_5185" data-name="Group 5185" transform="translate(0 0)">
        <path id="Path_500" data-name="Path 500" d="M2589.566,1038.693q.145.9.266,1.8a84.317,84.317,0,0,1,.467,16.618q-.072,1.072-.165,2.133a100.364,100.364,0,0,1-2.281,14.143q-.288,1.219-.606,2.43c-6.127,23.394-20.27,44.418-38.779,59.85a138.015,138.015,0,0,1-15.61,11.236q-2.385,1.48-4.838,2.875-4.367,2.488-8.93,4.7a165.134,165.134,0,0,1-52.82,15.316q-.637.073-1.275.142a144.793,144.793,0,0,1-51.822-3.461q-.94-.245-1.877-.506-2.332-.65-4.613-1.4a99.248,99.248,0,0,1-9.386-3.64q-1.458-.65-2.89-1.347a100.705,100.705,0,0,1-17.736-11.028,103.1,103.1,0,0,1-12.353-11.309,106.862,106.862,0,0,1-28.252-78.964c1.252-20.535,7.9-48.741,29.6-56.756,23.284-8.6,46.391,7.543,68.047,13.876a123.929,123.929,0,0,0,63.418,1.618c22.667-5.28,49.513-22.245,72.63-9.684A35.426,35.426,0,0,1,2584.1,1021.9,52.7,52.7,0,0,1,2589.566,1038.693Z" transform="translate(-2335.867 -999.05)" fill="#cbf1de"/>
      </g>
    </g>
    <g id="Group_5188" data-name="Group 5188" transform="translate(2342.547 784.47)">
      <g id="Group_5187" data-name="Group 5187" transform="translate(0)">
        <path id="Path_501" data-name="Path 501" d="M2649.718,892.715q-.156.892-.336,1.786a84.353,84.353,0,0,1-4.984,15.86q-.417.99-.852,1.963a100.2,100.2,0,0,1-6.773,12.623q-.663,1.047-1.351,2.076l-.016.023a115.612,115.612,0,0,1-41.008,36.942l-.145.078q-1.788.971-3.609,1.88-.732.366-1.466.721-4.89,2.365-9.964,4.29a136.894,136.894,0,0,1-15.869,4.92q-1.274.314-2.555.6-2.737.621-5.511,1.137-4.941.928-9.976,1.526a165.127,165.127,0,0,1-54.926-2.767c-.417-.093-.835-.187-1.251-.283a144.771,144.771,0,0,1-47.853-20.189q-.81-.538-1.609-1.09-1.971-1.362-3.859-2.8c-.015-.01-.028-.021-.042-.032q-.79-.6-1.564-1.219-3.186-2.531-6.119-5.285-1.166-1.09-2.292-2.218a100.707,100.707,0,0,1-13.165-16.214c-.058-.089-.118-.179-.175-.27A102.715,102.715,0,0,1,2407,917.3q-1.248-2.461-2.361-4.981a106.864,106.864,0,0,1-.925-83.862c7.888-19,23.378-43.492,46.506-43.983,24.816-.527,41.387,22.274,59.789,35.331a123.933,123.933,0,0,0,59.415,22.234c23.149,2.409,54.063-4.861,71.813,14.557a35.416,35.416,0,0,1,8.8,18.46A52.7,52.7,0,0,1,2649.718,892.715Z" transform="translate(-2395.599 -784.47)" fill="#8cdcb5"/>
      </g>
    </g>
    <circle id="Ellipse_539" data-name="Ellipse 539" cx="49.052" cy="49.052" r="49.052" transform="translate(2422.515 837.347)" fill="#121e3d" opacity="0.2" style="mix-blend-mode: multiply;isolation: isolate"/>
    <path id="Path_502" data-name="Path 502" d="M2918.149,1149.3a74.443,74.443,0,0,1-54.1-125.574l6.5,6.146a65.569,65.569,0,1,0,47.6-20.51v-8.947a74.442,74.442,0,1,1,0,148.884Z" transform="translate(-451.046 -191.798)" fill="#fff"/>
    <circle id="Ellipse_540" data-name="Ellipse 540" cx="46.207" cy="46.207" r="46.207" transform="translate(2420.896 836.855)" fill="#006736"/>
    <g id="Group_5189" data-name="Group 5189" transform="translate(2428.607 839.177)">
      <path id="Path_503" data-name="Path 503" d="M3515.347,1282.644c-1.69,0-3.02-4.649-2.3-6.476s8.185-1.51,9.337-.437-1.232,1.748-2.463,2.384S3516.34,1282.644,3515.347,1282.644Z" transform="translate(-3473.958 -1274.727)" fill="#00b65f"/>
      <path id="Path_504" data-name="Path 504" d="M3181.712,1355.628s-3.56-.61-5.594-7.221.305-6.512,0-7.884a10,10,0,0,1-.407-4.829c.407-2.237.813-3.966.3-4.373a4.465,4.465,0,0,1-.738-3.254c.23-1.017-4.56-2.531-4.809-5.942s-1.082-4.367-.624-5.449,3.7-3.411,3.744-5.615-1.165-2.288-2.2-4.159-.167-2.329-.79-2.828-1.539-1.082-1.581-1.581.374-1.123,0-1.5-4.825-1.913-3.7-4.991,13.952-23.838,38.3-22.26c0,0,.452,1.879-2.479,3.081a3.449,3.449,0,0,1-1.459-.941c-.706-.743-2.08.371-2.674.446s-1.3-1-2.08-.78-3.528,1.857-3.64,3.64,1.82,2.08,3.491,0,1.077.186,1.931-.334,2.3-1.783,3.12-.929-.334,2.6.483,3.863,1.04,4.346-.854,3.677-1.857-1.04-3.38.3-3.9-.223-6.574,1.523-2.34.037-4.791,1.894-2.637,1.114-3.677,5.348-1.857-2.34-2.711-3.083-6.685-1.448-8.32,2.563-.334,3.974,1.857,4.085,2.228.743,1.374,1.634-1.746,1.077-1.077,2.563-.78,3.083.557,4.383,3.863,2.08,4.865.743,1.295-1.35,3.013-.307,2.516,1.9,4.112,1.78.982,1.6,3.559,2.455,4.235,8.223,6.444,8.714,7.364,2.025,6.874,4.48-2.455,3.13-3.314,6.444a7.723,7.723,0,0,1-5.953,5.707c-2.761.736-2.946,5.462-4.418,6.444s-6.075,2.823-6.443,5.584A30.807,30.807,0,0,0,3181.712,1355.628Z" transform="translate(-3165.13 -1273.658)" fill="#00b65f"/>
      <path id="Path_505" data-name="Path 505" d="M3276.145,1481.226a.931.931,0,0,0,.428,1.508c1.614.484,4.184,1.123,5.018.58,1.25-.813-1.556-.369-2.539-1.024s-1.966-2.129-2.907-1.065Z" transform="translate(-3263.521 -1457.68)" fill="#00b65f"/>
      <path id="Path_506" data-name="Path 506" d="M3314.476,1517.014c-.913-.742,1.8-1.592,2.706-1s1.637,1.637.773,1.523S3314.84,1517.309,3314.476,1517.014Z" transform="translate(-3297.609 -1488.734)" fill="#00b65f"/>
      <path id="Path_507" data-name="Path 507" d="M3569.679,1317.918a3.008,3.008,0,0,1,1.907-1.43c1.271-.238,2.821.874,1.351,2.583S3569.917,1318.832,3569.679,1317.918Z" transform="translate(-3524.437 -1311.67)" fill="#00b65f"/>
      <path id="Path_508" data-name="Path 508" d="M3681.417,1368.312c.313-.86.784-1.7,2.351.174s3.484,4.834.7,4.79-1.568-2.32-2.047-2.967-.348.659-1.176.528S3680.895,1369.748,3681.417,1368.312Z" transform="translate(-3623.127 -1356.88)" fill="#00b65f"/>
      <path id="Path_509" data-name="Path 509" d="M3696.4,1328.349c2.743,1.035,14.27,9.241,17.716,20.059a.217.217,0,0,1-.146.274c-.436.131-1.515.21-2.746-1.522a.12.12,0,0,0-.2.006c-.228.363-.828,1.2-1.312.759-.611-.55-.367-2.69-.978-2.323s-.366,1.161-1.467.917-.245-1.712-1.039-2.323-1.712.061-3.363-1.223.489,2.568-1.1,3.424-4.708,1.406-6.664-3.057,4.219-1.1,5.808-3.3.55-2.079.489-3.118,1.1-1.406-.061-1.834-2.441-.122-3.085-1.284-2.425-.428-2.543-1.9a17.08,17.08,0,0,1,.188-3.26A.374.374,0,0,1,3696.4,1328.349Z" transform="translate(-3635.496 -1322.211)" fill="#00b65f"/>
      <path id="Path_510" data-name="Path 510" d="M3648.549,1559.306c-1.973-.064,2.609-4.522,2.493-6.261s-1.673-2.783,0-6.377,4.344-3.13,3.242-6.551.136-5.55.259-7.362.418-3.509-.491-3.014-1.567,0-2.436-.7-4.231.87-6.028,0-7.826-3.3-8.174-6.609,1.913-5.739,1.739-7.594-.406-3.478.927-4.637,2.55-1.218,3.71-2.9,5.855-2.493,9.275-1.913,4.058.928,5.8,1.913,2.055,1.507,4.332,2.029,2.972,3.71,3.32,6.551,1.651,15.7-2.574,24.392S3650.561,1559.372,3648.549,1559.306Z" transform="translate(-3584.568 -1479.313)" fill="#00b65f"/>
    </g>
    <path id="Path_511" data-name="Path 511" d="M3169.764,1263.073a48.533,48.533,0,0,0-25.741-25.741q-.33-.14-.663-.275a48.007,48.007,0,0,0-16.648-3.5q-.757-.024-1.518-.024a48.372,48.372,0,1,0,0,96.745q.762,0,1.518-.024a48.4,48.4,0,0,0,43.052-67.177Zm-3.989,35.971a44,44,0,0,1-39.063,26.873q-.757.026-1.518.026a44.09,44.09,0,0,1-40.581-26.9q-.7-1.652-1.256-3.343a44.027,44.027,0,0,1,41.837-57.84q.762,0,1.518.026a43.661,43.661,0,0,1,15.624,3.434q.724.307,1.435.638a44.091,44.091,0,0,1,22,57.086Z" transform="translate(-658.091 -398.84)" fill="#006736"/>
    <path id="Path_512" data-name="Path 512" d="M3143.771,1241.959a31.178,31.178,0,0,1-1.361,9.5c-4.869,15.045-14.713,27.159-27.748,36.11a47.041,47.041,0,0,1-31.3,8.136,38.755,38.755,0,0,1-4.783-.85,48.356,48.356,0,0,1,46.62-61.321q.762,0,1.518.024a48.007,48.007,0,0,1,16.648,3.5A30.448,30.448,0,0,1,3143.771,1241.959Z" transform="translate(-658.091 -398.84)" fill="#fff" opacity="0.03"/>
    <rect id="Rectangle_2659" data-name="Rectangle 2659" width="8.226" height="10.625" transform="translate(2516.49 938.329) rotate(-45)" fill="#fff"/>
    <path id="Path_513" data-name="Path 513" d="M4011.621,2160l31.774,31.774a3.147,3.147,0,0,1,0,4.45l-4.45,4.45a3.148,3.148,0,0,1-4.451,0l-31.774-31.774Z" transform="translate(-1480.443 -1221.699)" fill="#00b65f"/>
    <path id="Path_514" data-name="Path 514" d="M3108.288,927.764a18.341,18.341,0,0,0-11.006,23.486c2.8,7.741,19.8,19.126,26.073,23.119a2.133,2.133,0,0,0,3.177-1.149c2.263-7.081,8.043-26.709,5.243-34.45A18.34,18.34,0,0,0,3108.288,927.764Zm8.99,24.844a7.887,7.887,0,1,1,4.733-10.1A7.887,7.887,0,0,1,3117.278,952.608Z" transform="translate(-675.287 -126.293)" fill="#00b65f"/>
    <g id="Group_5195" data-name="Group 5195" transform="translate(2424.926 834.201)">
      <g id="Group_5191" data-name="Group 5191" transform="translate(0 0)">
        <g id="Group_5190" data-name="Group 5190">
          <circle id="Ellipse_541" data-name="Ellipse 541" cx="9.938" cy="9.938" r="9.938" transform="translate(0.816 0.816)" fill="#fff"/>
          <path id="Path_515" data-name="Path 515" d="M3142.974,1250.665a10.755,10.755,0,1,1,10.755-10.755A10.767,10.767,0,0,1,3142.974,1250.665Zm0-19.877a9.122,9.122,0,1,0,9.122,9.122A9.132,9.132,0,0,0,3142.974,1230.788Z" transform="translate(-3132.219 -1229.155)" fill="#cbf1de"/>
        </g>
      </g>
      <g id="Group_5194" data-name="Group 5194" transform="translate(5.721 5.721)">
        <g id="Group_5192" data-name="Group 5192">
          <path id="Path_516" data-name="Path 516" d="M3192.623,1290.376a.815.815,0,0,1-.577-.239l-8.436-8.436a.817.817,0,0,1,1.155-1.155l8.436,8.436a.817.817,0,0,1-.578,1.394Z" transform="translate(-3183.371 -1280.308)" fill="#00b65f"/>
        </g>
        <g id="Group_5193" data-name="Group 5193" transform="translate(0 0)">
          <path id="Path_517" data-name="Path 517" d="M3184.187,1290.377a.816.816,0,0,1-.577-1.394l8.436-8.436a.817.817,0,0,1,1.155,1.155l-8.436,8.436A.815.815,0,0,1,3184.187,1290.377Z" transform="translate(-3183.371 -1280.308)" fill="#00b65f"/>
        </g>
      </g>
    </g>
    <g id="Group_5199" data-name="Group 5199" transform="translate(2428.44 850.103)">
      <g id="Group_5198" data-name="Group 5198" transform="translate(0 0)">
        <g id="Group_5197" data-name="Group 5197">
          <path id="Path_518" data-name="Path 518" d="M3381.522,1412.549q.422,1.014.9,2.047" transform="translate(-3357.155 -1407.942)" fill="none" stroke="#fff" stroke-linecap="round" stroke-linejoin="round" stroke-width="18"/>
          <g id="Group_5196" data-name="Group 5196" transform="translate(2.28)">
            <path id="Path_519" data-name="Path 519" d="M3222.621,1442.645h-.01c-.95,0-1.91-.027-2.852-.079a1.006,1.006,0,1,1,.112-2.01c.9.05,1.827.076,2.74.076h.01c.552,0,1.111-.009,1.664-.028a1.006,1.006,0,0,1,.068,2.012C3223.777,1442.635,3223.195,1442.645,3222.621,1442.645Zm8.414-.712a1.007,1.007,0,0,1-.171-2c1.214-.21,2.4-.469,3.534-.769.243-.064.491-.134.738-.208a1.006,1.006,0,0,1,.577,1.929c-.268.08-.536.156-.8.226-1.188.315-2.435.586-3.706.806A1.025,1.025,0,0,1,3231.035,1441.934Zm-17.915-.221a1.006,1.006,0,0,1-.2-.021,39.038,39.038,0,0,1-4.466-1.19,1.007,1.007,0,0,1,.637-1.91,37.077,37.077,0,0,0,4.235,1.128,1.007,1.007,0,0,1-.2,1.992Zm28.493-3.469a1.007,1.007,0,0,1-.5-1.88,29.894,29.894,0,0,0,3.614-2.433,1.007,1.007,0,0,1,1.245,1.582,31.98,31.98,0,0,1-3.858,2.6A1,1,0,0,1,3241.613,1438.243Zm-39-.461a1,1,0,0,1-.492-.129,41.061,41.061,0,0,1-3.891-2.481,1.007,1.007,0,0,1,1.178-1.633,39.028,39.028,0,0,0,3.7,2.359,1.007,1.007,0,0,1-.494,1.884Zm-8.894-6.834a1,1,0,0,1-.724-.307,41.3,41.3,0,0,1-3.013-3.492,1.007,1.007,0,0,1,1.595-1.229,39.162,39.162,0,0,0,2.865,3.321,1.006,1.006,0,0,1-.723,1.706Zm56.344-.027a1.006,1.006,0,0,1-.812-1.6,16.012,16.012,0,0,0,2.051-3.693,1.007,1.007,0,0,1,1.88.72,18.006,18.006,0,0,1-2.307,4.161A1,1,0,0,1,3250.068,1430.921Zm-62.989-9.019a1.006,1.006,0,0,1-.878-.514c-.721-1.284-1.421-2.656-2.082-4.08a1.006,1.006,0,1,1,1.826-.847c.638,1.377,1.314,2.7,2.01,3.941a1.007,1.007,0,0,1-.876,1.5Zm65.776-1.535a1.006,1.006,0,0,1-.98-.785,11.79,11.79,0,0,0-1.674-3.776,1.007,1.007,0,1,1,1.692-1.09,13.741,13.741,0,0,1,1.945,4.421,1.008,1.008,0,0,1-.982,1.229Zm-6.166-9.249a1,1,0,0,1-.709-.293c-.884-.878-1.8-1.739-2.686-2.571l-.555-.522a1.007,1.007,0,1,1,1.38-1.465l.553.52c.9.842,1.822,1.712,2.726,2.61a1.006,1.006,0,0,1-.709,1.72Zm-9.273-6.01c-.667,0-1.348-.026-2.023-.077a1.007,1.007,0,0,1,.152-2.007c.625.047,1.254.072,1.875.071q.28,0,.558-.006a1.042,1.042,0,0,1-.1-.082c-1.043-1.018-2.153-2.114-3.2-3.225a1.006,1.006,0,1,1,1.463-1.383c1.025,1.085,2.118,2.163,3.146,3.167a1.006,1.006,0,0,1,.017,1.423l-.036.035c.2-.015.4-.033.593-.054a1.006,1.006,0,0,1,.208,2,25.735,25.735,0,0,1-2.651.136Zm-8.549-1.429a1,1,0,0,1-.327-.055,25.507,25.507,0,0,1-4.275-1.912,1.007,1.007,0,0,1,.991-1.752,23.491,23.491,0,0,0,3.937,1.76,1.007,1.007,0,0,1-.326,1.959Zm17.59-.453a1.007,1.007,0,0,1-.442-1.911,15.785,15.785,0,0,0,3.51-2.347,1.006,1.006,0,1,1,1.331,1.51,17.807,17.807,0,0,1-3.957,2.646A1,1,0,0,1,3246.457,1403.227Zm-26.954-5.579a1,1,0,0,1-.732-.316c-1.007-1.068-2.021-2.228-3.012-3.449a1.006,1.006,0,0,1,1.563-1.268c.959,1.182,1.939,2.3,2.913,3.336a1.006,1.006,0,0,1-.731,1.7Zm34.75-2.26a1.007,1.007,0,0,1-.906-1.443,14.109,14.109,0,0,0,1.246-4,1.007,1.007,0,0,1,1.991.3,16.127,16.127,0,0,1-1.422,4.57A1.007,1.007,0,0,1,3254.253,1395.388Zm-23.094-.529a1,1,0,0,1-.841-.453,24.991,24.991,0,0,1-1.641-2.88c-.2-.418-.388-.85-.557-1.286a1.007,1.007,0,0,1,1.878-.725c.149.386.314.768.492,1.138A23.043,23.043,0,0,0,3232,1393.3a1.007,1.007,0,0,1-.84,1.56Zm-18.62-6.046a1,1,0,0,1-.838-.448c-.843-1.263-1.658-2.564-2.421-3.868a1.006,1.006,0,1,1,1.737-1.017c.744,1.27,1.537,2.538,2.358,3.768a1.007,1.007,0,0,1-.836,1.565Zm42.444-4.374a1.008,1.008,0,0,1-.955-.688,15.235,15.235,0,0,0-1.88-3.768,1.007,1.007,0,0,1,1.663-1.135,17.255,17.255,0,0,1,2.127,4.267,1.008,1.008,0,0,1-.955,1.325Zm-27.034-.172h-.045a1.007,1.007,0,0,1-.961-1.05,14.08,14.08,0,0,1,1-4.722,1.006,1.006,0,1,1,1.863.761,12.092,12.092,0,0,0-.853,4.049A1.007,1.007,0,0,1,3227.949,1384.267Zm20.224-8.531a1,1,0,0,1-.544-.161,15.1,15.1,0,0,0-3.31-1.605c-.167-.057-.338-.112-.507-.162a1.007,1.007,0,0,1,.577-1.929c.193.058.388.12.579.185a17.1,17.1,0,0,1,3.751,1.819,1.007,1.007,0,0,1-.546,1.852Zm-14.983-.894a1.007,1.007,0,0,1-.512-1.874,12.924,12.924,0,0,1,4.583-1.6,1.006,1.006,0,1,1,.312,1.989,10.917,10.917,0,0,0-3.872,1.349A1,1,0,0,1,3233.189,1374.842Z" transform="translate(-3184.025 -1371.352)" fill="#fff"/>
          </g>
          <path id="Path_520" data-name="Path 520" d="M3164.367,1705.584q-.373-1.041-.73-2.114" transform="translate(-3163.637 -1666.328)" fill="none" stroke="#fff" stroke-linecap="round" stroke-linejoin="round" stroke-width="18"/>
        </g>
      </g>
    </g>
    <path id="Path_521" data-name="Path 521" d="M4046.964,2160l31.774,31.774a3.146,3.146,0,0,1,0,4.45l-2.225,2.225-34-34Z" transform="translate(-1515.786 -1221.699)" fill="#141835" opacity="0.4" style="mix-blend-mode: multiply;isolation: isolate"/>
    <g id="Group_5208" data-name="Group 5208" transform="translate(2552.71 896.875)">
      <g id="Group_5201" data-name="Group 5201" transform="translate(0 0)">
        <g id="Group_5200" data-name="Group 5200">
          <path id="Path_522" data-name="Path 522" d="M4274.841,1789.583l4.57,19.22,8.708-6.425Z" transform="translate(-4274.841 -1789.583)" fill="#fff"/>
        </g>
      </g>
      <g id="Group_5203" data-name="Group 5203" transform="translate(0 0)">
        <g id="Group_5202" data-name="Group 5202">
          <path id="Path_523" data-name="Path 523" d="M4274.841,1789.583l16.716,11.168,8.073-2.1Z" transform="translate(-4274.841 -1789.583)" fill="#fff"/>
        </g>
      </g>
      <g id="Group_5205" data-name="Group 5205" transform="translate(0 0)">
        <g id="Group_5204" data-name="Group 5204">
          <path id="Path_524" data-name="Path 524" d="M4274.841,1789.583l13.279,12.795,2.349,5.578,1.088-7.2Z" transform="translate(-4274.841 -1789.583)" fill="#fff"/>
        </g>
      </g>
      <g id="Group_5207" data-name="Group 5207" transform="translate(0 0)" opacity="0.1" style="mix-blend-mode: multiply;isolation: isolate">
        <g id="Group_5206" data-name="Group 5206">
          <path id="Path_525" data-name="Path 525" d="M4274.841,1789.583l13.279,12.795,2.349,5.578,1.088-7.2Z" transform="translate(-4274.841 -1789.583)" fill="#183970"/>
        </g>
      </g>
    </g>
    <g id="Group_5217" data-name="Group 5217" transform="translate(2356.173 829.486)">
      <g id="Group_5210" data-name="Group 5210" transform="translate(11.388 0)">
        <g id="Group_5209" data-name="Group 5209">
          <path id="Path_526" data-name="Path 526" d="M2632.943,1187l-5.164,19.069-8.506-6.692Z" transform="translate(-2619.274 -1186.998)" fill="#fff"/>
        </g>
      </g>
      <g id="Group_5212" data-name="Group 5212" transform="translate(0 0)">
        <g id="Group_5211" data-name="Group 5211">
          <path id="Path_527" data-name="Path 527" d="M2542.5,1187l-17.054,10.644-8-2.352Z" transform="translate(-2517.44 -1186.998)" fill="#fff"/>
        </g>
      </g>
      <g id="Group_5214" data-name="Group 5214" transform="translate(8.004 0)">
        <g id="Group_5213" data-name="Group 5213">
          <path id="Path_528" data-name="Path 528" d="M2606.062,1187l-13.669,12.377-2.521,5.5-.864-7.235Z" transform="translate(-2589.008 -1186.998)" fill="#fff"/>
        </g>
      </g>
      <g id="Group_5216" data-name="Group 5216" transform="translate(8.004 0)" opacity="0.1" style="mix-blend-mode: multiply;isolation: isolate">
        <g id="Group_5215" data-name="Group 5215">
          <path id="Path_529" data-name="Path 529" d="M2606.062,1187l-13.669,12.377-2.521,5.5-.864-7.235Z" transform="translate(-2589.008 -1186.998)" fill="#183970"/>
        </g>
      </g>
    </g>
    <g id="Group_5218" data-name="Group 5218" transform="translate(2361.715 850.688)">
      <path id="Path_530" data-name="Path 530" d="M2568.658,1394.029a1.007,1.007,0,0,1-.97-.741,21.257,21.257,0,0,1-.7-4.636,1.006,1.006,0,0,1,2.011-.092,19.259,19.259,0,0,0,.627,4.2,1.007,1.007,0,0,1-.7,1.237A1.018,1.018,0,0,1,2568.658,1394.029Zm-.183-11.1a1.025,1.025,0,0,1-.177-.016,1.007,1.007,0,0,1-.815-1.167,34.381,34.381,0,0,1,1.1-4.471,1.006,1.006,0,1,1,1.917.616,32.35,32.35,0,0,0-1.039,4.208A1.007,1.007,0,0,1,2568.475,1382.933Z" transform="translate(-2566.99 -1376.58)" fill="#fff"/>
    </g>
    <g id="Group_5219" data-name="Group 5219" transform="translate(2561.593 918.736)">
      <path id="Path_531" data-name="Path 531" d="M4355.274,2001.341a1.007,1.007,0,0,1-.764-1.662,22.756,22.756,0,0,0,2.466-3.5,1.006,1.006,0,0,1,1.746,1,24.862,24.862,0,0,1-2.684,3.8A1,1,0,0,1,4355.274,2001.341Zm5.074-9.855a1.007,1.007,0,0,1-.977-1.25,22.677,22.677,0,0,0,.641-4.228,1.007,1.007,0,0,1,2.01.111,24.681,24.681,0,0,1-.7,4.6A1.006,1.006,0,0,1,4360.348,1991.486Z" transform="translate(-4354.269 -1985.057)" fill="#fff"/>
    </g>
    <path id="Path_532" data-name="Path 532" d="M2583.3,1845l3.615,1.977-3.615,1.977-1.977,3.615-1.977-3.615-3.615-1.977,3.615-1.977,1.977-3.615Z" transform="translate(-213.043 -938.714)" fill="#00b65f"/>
    <path id="Path_533" data-name="Path 533" d="M2667.573,1943.136l1.754.959-1.754.959-.959,1.754-.959-1.754-1.754-.959,1.754-.959.959-1.754Z" transform="translate(-291.349 -1027.531)" fill="#00b65f"/>
    <path id="Path_534" data-name="Path 534" d="M4330.133,1463.643l3.614,1.977-3.614,1.977-1.978,3.615-1.977-3.615-3.615-1.977,3.615-1.977,1.977-3.615Z" transform="translate(-1764.517 -600.008)" fill="#00b65f"/>
    <path id="Path_535" data-name="Path 535" d="M4414.4,1561.782l1.754.959-1.754.959-.959,1.753-.959-1.753-1.753-.959,1.753-.959.959-1.753Z" transform="translate(-1842.823 -688.825)" fill="#00b65f"/>
  </g>
</svg>
