<svg xmlns="http://www.w3.org/2000/svg" width="171.144" height="189.484" viewBox="0 0 171.144 189.484">
  <g id="ordersuccess" transform="translate(-604.421 -304.341)">
    <path id="Path_664" data-name="Path 664" d="M775.065,389.913a85.072,85.072,0,1,0-95.173,84.472l4.822,8.352,5.824,10.088,5.824-10.088,4.906-8.5A85.086,85.086,0,0,0,775.065,389.913Z" transform="translate(0 0)" fill="#cbf1de" stroke="rgba(0,0,0,0)" stroke-width="1"/>
    <path id="Path_665" data-name="Path 665" d="M793.564,593.239l31.756,34.5a3.2,3.2,0,0,0,4.839-.151l55.628-68.564a3.2,3.2,0,0,0-.58-4.587l-13.654-10.114a3.2,3.2,0,0,0-4.435.612l-36.543,47.209a3.2,3.2,0,0,1-4.792.3L810.033,576.7a3.2,3.2,0,0,0-4.549.024l-11.852,12.107A3.2,3.2,0,0,0,793.564,593.239Z" transform="translate(-147.343 -197.211)" fill="#00b65f"/>
  </g>
</svg>
