<svg xmlns="http://www.w3.org/2000/svg" width="261.719" height="195.808" viewBox="0 0 261.719 195.808">
  <g id="ordercancel" transform="translate(-2335.867 -784.47)">
    <g id="Group_5186" data-name="Group 5186" transform="translate(2335.867 808.467)">
      <g id="Group_5185" data-name="Group 5185" transform="translate(0 0)">
        <path id="Path_500" data-name="Path 500" d="M2589.566,1038.693q.145.9.266,1.8a84.317,84.317,0,0,1,.467,16.618q-.072,1.072-.165,2.133a100.364,100.364,0,0,1-2.281,14.143q-.288,1.219-.606,2.43c-6.127,23.394-20.27,44.418-38.779,59.85a138.015,138.015,0,0,1-15.61,11.236q-2.385,1.48-4.838,2.875-4.367,2.488-8.93,4.7a165.134,165.134,0,0,1-52.82,15.316q-.637.073-1.275.142a144.793,144.793,0,0,1-51.822-3.461q-.94-.245-1.877-.506-2.332-.65-4.613-1.4a99.248,99.248,0,0,1-9.386-3.64q-1.458-.65-2.89-1.347a100.705,100.705,0,0,1-17.736-11.028,103.1,103.1,0,0,1-12.353-11.309,106.862,106.862,0,0,1-28.252-78.964c1.252-20.535,7.9-48.741,29.6-56.756,23.284-8.6,46.391,7.543,68.047,13.876a123.929,123.929,0,0,0,63.418,1.618c22.667-5.28,49.513-22.245,72.63-9.684A35.426,35.426,0,0,1,2584.1,1021.9,52.7,52.7,0,0,1,2589.566,1038.693Z" transform="translate(-2335.867 -999.05)" fill="#cbf1de"/>
      </g>
    </g>
    <g id="Group_5188" data-name="Group 5188" transform="translate(2342.547 784.47)">
      <g id="Group_5187" data-name="Group 5187" transform="translate(0)">
        <path id="Path_501" data-name="Path 501" d="M2649.718,892.715q-.156.892-.336,1.786a84.353,84.353,0,0,1-4.984,15.86q-.417.99-.852,1.963a100.2,100.2,0,0,1-6.773,12.623q-.663,1.047-1.351,2.076l-.016.023a115.612,115.612,0,0,1-41.008,36.942l-.145.078q-1.788.971-3.609,1.88-.732.366-1.466.721-4.89,2.365-9.964,4.29a136.894,136.894,0,0,1-15.869,4.92q-1.274.314-2.555.6-2.737.621-5.511,1.137-4.941.928-9.976,1.526a165.127,165.127,0,0,1-54.926-2.767c-.417-.093-.835-.187-1.251-.283a144.771,144.771,0,0,1-47.853-20.189q-.81-.538-1.609-1.09-1.971-1.362-3.859-2.8c-.015-.01-.028-.021-.042-.032q-.79-.6-1.564-1.219-3.186-2.531-6.119-5.285-1.166-1.09-2.292-2.218a100.707,100.707,0,0,1-13.165-16.214c-.058-.089-.118-.179-.175-.27A102.715,102.715,0,0,1,2407,917.3q-1.248-2.461-2.361-4.981a106.864,106.864,0,0,1-.925-83.862c7.888-19,23.378-43.492,46.506-43.983,24.816-.527,41.387,22.274,59.789,35.331a123.933,123.933,0,0,0,59.415,22.234c23.149,2.409,54.063-4.861,71.813,14.557a35.416,35.416,0,0,1,8.8,18.46A52.7,52.7,0,0,1,2649.718,892.715Z" transform="translate(-2395.599 -784.47)" fill="#8cdcb5"/>
      </g>
    </g>
  </g>
</svg>
