<svg xmlns="http://www.w3.org/2000/svg" xmlns:xlink="http://www.w3.org/1999/xlink" width="34" height="24" viewBox="0 0 34 24">
  <defs>
    <clipPath id="clip-path">
      <rect id="Asset_5" data-name="Asset 5" width="28" height="18" rx="2" transform="translate(23 427)" fill="#e4e4e4"/>
    </clipPath>
  </defs>
  <g id="paypal" transform="translate(-20 -424)">
    <g id="Rectangle_10" data-name="Rectangle 10" transform="translate(20 424)" fill="none" stroke="#d4d8de" stroke-width="1">
      <rect width="34" height="24" rx="2" stroke="none"/>
      <rect x="0.5" y="0.5" width="33" height="23" rx="1.5" fill="none"/>
    </g>
    <g id="Mask_Group_24" data-name="Mask Group 24" clip-path="url(#clip-path)">
      <g id="paypal-2" data-name="paypal" transform="translate(2038.738 -1210.445)">
        <rect id="Rectangle_72" data-name="Rectangle 72" width="27.692" height="18" rx="1.662" transform="translate(-2015.585 1637.446)" fill="none"/>
        <g id="PayPal_2_" data-name="PayPal (2)" transform="translate(-2008.258 1638.846)">
          <path id="Path_47" data-name="Path 47" d="M3.3,14.457l.254-1.675H.152L2.082.291q.076-.152.152-.152H7.007a4.207,4.207,0,0,1,3.25,1.015,1.983,1.983,0,0,1,.508.965,2.877,2.877,0,0,1,0,1.32v.406L11.019,4a1.147,1.147,0,0,1,.559.406,2.129,2.129,0,0,1,.457.965,4.592,4.592,0,0,1-.051,1.422,4.161,4.161,0,0,1-.609,1.625A3.539,3.539,0,0,1,10.46,9.43a3.226,3.226,0,0,1-1.269.559,6.978,6.978,0,0,1-1.574.2H7.261a1.213,1.213,0,0,0-.711.254.868.868,0,0,0-.355.66l-.051.152-.457,3v.1c0,.051,0,.051-.051.051H5.586C5.586,14.457,3.3,14.457,3.3,14.457Z" transform="translate(0.412 0.368)" fill="#253b80"/>
          <path id="Path_48" data-name="Path 48" d="M9.378,1.066V1.32C8.77,4.562,6.591,5.626,3.855,5.626H2.437a.659.659,0,0,0-.659.557l-.71,4.51-.2,1.267c-.051.2.1.355.3.405H3.7a.6.6,0,0,0,.608-.507v-.1l.456-2.939.051-.152a.6.6,0,0,1,.608-.507h.355c2.382,0,4.256-.963,4.813-3.8a3.11,3.11,0,0,0-.507-2.837A2.487,2.487,0,0,0,9.378,1.066Z" transform="translate(2.309 2.866)" fill="#179bd7"/>
          <path id="Path_49" data-name="Path 49" d="M8.1,1.181a1.349,1.349,0,0,0-.608-.152,9.839,9.839,0,0,0-1.216-.1H2.526a.6.6,0,0,0-.608.507L1.108,6.45V6.6a.652.652,0,0,1,.659-.557H3.185c2.736,0,4.864-1.115,5.523-4.306v-.3a2.117,2.117,0,0,0-.506-.2.157.157,0,0,0-.1-.051Z" transform="translate(2.979 2.478)" fill="#222d65"/>
          <path id="Path_50" data-name="Path 50" d="M4.882,3.91A.6.6,0,0,1,5.491,3.4H9.249a8.425,8.425,0,0,1,1.218.1,4.23,4.23,0,0,1,.762.2,5.268,5.268,0,0,1,.508.2,3.005,3.005,0,0,0-.66-2.742C10.366.355,9.1,0,7.422,0H2.648a.7.7,0,0,0-.66.559L.007,13.152a.374.374,0,0,0,.355.457h3l.711-4.672Z" fill="#253b80"/>
        </g>
      </g>
    </g>
  </g>
</svg>
