<svg xmlns="http://www.w3.org/2000/svg" xmlns:xlink="http://www.w3.org/1999/xlink" width="34" height="24" viewBox="0 0 34 24">
  <defs>
    <clipPath id="clip-path">
      <rect id="Asset_5" data-name="Asset 5" width="28" height="18" rx="2" transform="translate(23 427)" fill="#e4e4e4"/>
    </clipPath>
  </defs>
  <g id="paytm" transform="translate(-20 -424)">
    <g id="Rectangle_10" data-name="Rectangle 10" transform="translate(20 424)" fill="none" stroke="#d4d8de" stroke-width="1">
      <rect width="34" height="24" rx="2" stroke="none"/>
      <rect x="0.5" y="0.5" width="33" height="23" rx="1.5" fill="none"/>
    </g>
    <g id="Mask_Group_26" data-name="Mask Group 26" clip-path="url(#clip-path)">
      <g id="paytm-2" data-name="paytm" transform="translate(2038.738 -1305.154)">
        <rect id="Rectangle_72" data-name="Rectangle 72" width="27.692" height="18" rx="1.662" transform="translate(-2015.585 1732.154)" fill="none"/>
        <g id="layer1" transform="translate(-2013.924 1737.356)">
          <g id="g52" transform="translate(17.662 1.16)">
            <path id="path54" d="M5.865.977A1.615,1.615,0,0,0,4.342-.1H4.327a1.608,1.608,0,0,0-1.164.5A1.61,1.61,0,0,0,2-.1H1.984A1.6,1.6,0,0,0,.932.287V.163a.238.238,0,0,0-.237-.22H-.385a.239.239,0,0,0-.169.07.239.239,0,0,0-.07.169V6.047a.239.239,0,0,0,.07.169.239.239,0,0,0,.169.07H.695A.238.238,0,0,0,.93,6.08V1.87a.378.378,0,0,1,0-.042A.393.393,0,0,1,1.3,1.466h.2a.42.42,0,0,1,.228.088.4.4,0,0,1,.146.314l0,4.189a.239.239,0,0,0,.239.24H3.2a.239.239,0,0,0,.237-.228V1.864a.4.4,0,0,1,.176-.337.439.439,0,0,1,.2-.067h.2a.4.4,0,0,1,.374.4l0,4.184a.239.239,0,0,0,.239.239h1.08a.239.239,0,0,0,.239-.239v-4.5A1.5,1.5,0,0,0,5.865.976" transform="translate(0.624 0.104)" fill="#54c1f0"/>
          </g>
          <g id="g56" transform="translate(13.804 0.001)">
            <path id="path58" d="M2.743,1.1H2.126V.1h0v0a.215.215,0,0,0-.259-.213C1.182.075,1.319,1.024.069,1.1H-.053A.25.25,0,0,0-.1,1.11h0a.238.238,0,0,0-.187.233v1.08a.239.239,0,0,0,.239.239H.6v4.58a.236.236,0,0,0,.236.235H1.9a.235.235,0,0,0,.235-.236V2.661h.605a.239.239,0,0,0,.24-.238V1.343A.239.239,0,0,0,2.743,1.1" transform="translate(0.292 0.117)" fill="#54c1f0"/>
          </g>
          <g id="g60" transform="translate(9.116 1.222)">
            <path id="path62" d="M3.469,0H2.389a.239.239,0,0,0-.238.239V2.472a.253.253,0,0,1-.253.249H1.446a.253.253,0,0,1-.254-.253l0-2.229A.239.239,0,0,0,.95,0H-.13A.239.239,0,0,0-.369.239V2.686A1.533,1.533,0,0,0,1.224,4.278s.7,0,.72,0a.251.251,0,0,1,0,.5l-.018,0-1.58.005a.239.239,0,0,0-.238.239V6.11a.238.238,0,0,0,.239.239H2.115A1.532,1.532,0,0,0,3.708,4.756V.239A.239.239,0,0,0,3.469,0" transform="translate(0.369)" fill="#233266"/>
          </g>
          <g id="g64" transform="translate(0.001 1.222)">
            <path id="path66" d="M2.259,1.789v.666a.253.253,0,0,1-.253.254H1.321V1.374h.685a.253.253,0,0,1,.253.253ZM2.354-.19H-.006A.234.234,0,0,0-.24.044V5.912a.233.233,0,0,0,.218.239h1.1a.239.239,0,0,0,.239-.239l0-1.641H2.354A1.4,1.4,0,0,0,3.822,2.8V1.28A1.4,1.4,0,0,0,2.354-.19" transform="translate(0.24 0.19)" fill="#233266"/>
          </g>
          <g id="g68" transform="translate(4.443 1.228)">
            <path id="path70" d="M2.295,4.075v.169a.243.243,0,0,1-.254.238H1.591a.247.247,0,0,1-.255-.238V3.319a.246.246,0,0,1,.254-.236h.45a.246.246,0,0,1,.254.238ZM2.123-.434H.624a.232.232,0,0,0-.24.224V.8a.246.246,0,0,0,.254.238H2.066a.248.248,0,0,1,.215.229v.139a.239.239,0,0,1-.209.222H1.365a1.5,1.5,0,0,0-1.609,1.5V4.387A1.415,1.415,0,0,0,1.265,5.879H3.223a.616.616,0,0,0,.637-.594v-4.1c0-.994-.512-1.621-1.736-1.621" transform="translate(0.244 0.434)" fill="#233266"/>
          </g>
        </g>
      </g>
    </g>
  </g>
</svg>
