<svg xmlns="http://www.w3.org/2000/svg" width="16.812" height="16.84" viewBox="0 0 16.812 16.84">
  <path id="phone" d="M12.277,4.316A3.52,3.52,0,0,1,15.058,7.1M12.277,1.5a6.336,6.336,0,0,1,5.6,5.59m-.7,5.618v2.112a1.408,1.408,0,0,1-1.535,1.408,13.933,13.933,0,0,1-6.076-2.161A13.729,13.729,0,0,1,5.335,9.843a13.933,13.933,0,0,1-2.161-6.1A1.408,1.408,0,0,1,4.575,2.2H6.687A1.408,1.408,0,0,1,8.095,3.415a9.04,9.04,0,0,0,.493,1.978,1.408,1.408,0,0,1-.317,1.486l-.894.894A11.265,11.265,0,0,0,11.6,12L12.5,11.1a1.408,1.408,0,0,1,1.486-.317,9.04,9.04,0,0,0,1.978.493A1.408,1.408,0,0,1,17.17,12.708Z" transform="translate(-2.168 -0.396)" fill="none" stroke="#00b65f" stroke-linecap="round" stroke-linejoin="round" stroke-width="2"/>
</svg>
