<svg xmlns="http://www.w3.org/2000/svg" width="23" height="23" viewBox="0 0 23 23">
  <g id="setting" transform="translate(-30 -587)">
    <rect id="Rectangle_53" data-name="Rectangle 53" width="23" height="23" rx="6" transform="translate(30 587)" fill="rgba(0,182,95,0.2)"/>
    <g id="settings" transform="translate(36 592.996)">
      <g id="Group_5146" data-name="Group 5146" transform="translate(0 0.001)">
        <g id="Group_5145" data-name="Group 5145">
          <path id="Path_426" data-name="Path 426" d="M11.2,4.561l-.5-.036a4.915,4.915,0,0,0-.347-.836l.329-.381a.837.837,0,0,0-.041-1.135L9.8,1.333a.836.836,0,0,0-1.135-.04l-.38.33a4.912,4.912,0,0,0-.836-.346l-.036-.5A.837.837,0,0,0,6.582,0H5.392A.836.836,0,0,0,4.56.775l-.036.5a4.913,4.913,0,0,0-.832.345l-.381-.33a.837.837,0,0,0-1.135.041l-.842.842a.837.837,0,0,0-.041,1.135l.329.38a4.913,4.913,0,0,0-.347.836l-.5.036A.836.836,0,0,0,0,5.393v1.19a.837.837,0,0,0,.774.831l.5.036a4.916,4.916,0,0,0,.346.836l-.33.381A.837.837,0,0,0,1.332,9.8l.407.407A.187.187,0,1,0,2,9.945L1.6,9.538a.461.461,0,0,1-.022-.626l.415-.479a.187.187,0,0,0,.022-.214,4.538,4.538,0,0,1-.413-1,.187.187,0,0,0-.167-.136L.8,7.041a.461.461,0,0,1-.427-.458V5.393A.461.461,0,0,1,.8,4.934l.631-.045A.187.187,0,0,0,1.6,4.753a4.538,4.538,0,0,1,.414-1,.187.187,0,0,0-.022-.214l-.414-.478A.461.461,0,0,1,1.6,2.439L2.441,1.6a.461.461,0,0,1,.626-.022l.479.415a.187.187,0,0,0,.214.022A4.533,4.533,0,0,1,4.752,1.6a.187.187,0,0,0,.136-.167L4.933.8A.461.461,0,0,1,5.392.375h1.19A.461.461,0,0,1,7.041.8l.046.631a.187.187,0,0,0,.136.166,4.537,4.537,0,0,1,1,.413.187.187,0,0,0,.214-.022l.478-.415a.461.461,0,0,1,.626.022l.842.842a.461.461,0,0,1,.023.626l-.414.479a.187.187,0,0,0-.022.214,4.539,4.539,0,0,1,.414,1,.187.187,0,0,0,.167.136l.631.045a.461.461,0,0,1,.427.458v1.19a.461.461,0,0,1-.426.458l-.631.046a.187.187,0,0,0-.166.136,4.539,4.539,0,0,1-.413,1,.187.187,0,0,0,.022.214l.415.478a.461.461,0,0,1-.022.626l-.842.842a.461.461,0,0,1-.626.023l-.479-.414a.187.187,0,0,0-.214-.022,4.538,4.538,0,0,1-1,.415.187.187,0,0,0-.136.167l-.045.63a.461.461,0,0,1-.458.427H5.392a.461.461,0,0,1-.458-.427l-.045-.631a.187.187,0,0,0-.136-.167,4.538,4.538,0,0,1-1-.414.187.187,0,0,0-.214.022l-.478.414a.461.461,0,0,1-.626-.023.187.187,0,0,0-.264.264.837.837,0,0,0,1.135.041l.38-.329a4.915,4.915,0,0,0,.836.347l.036.5a.837.837,0,0,0,.831.774h1.19a.837.837,0,0,0,.831-.774l.036-.5a4.912,4.912,0,0,0,.84-.348l.381.329A.837.837,0,0,0,9.8,10.644l.842-.842a.836.836,0,0,0,.04-1.135l-.33-.38a4.912,4.912,0,0,0,.346-.836l.5-.036a.837.837,0,0,0,.773-.831V5.393A.836.836,0,0,0,11.2,4.561Z" transform="translate(0 -0.001)" fill="#00b65f" stroke="#00b65f" stroke-width="0.5"/>
          <path id="Path_427" data-name="Path 427" d="M155.6,153.569a2.032,2.032,0,0,1,.6.09.187.187,0,1,0,.11-.357,2.407,2.407,0,1,0,.743.382.187.187,0,1,0-.226.3,2.031,2.031,0,1,1-1.226-.412Z" transform="translate(-149.611 -149.611)" fill="#00b65f" stroke="#00b65f" stroke-width="0.5"/>
        </g>
      </g>
    </g>
  </g>
</svg>
