<svg xmlns="http://www.w3.org/2000/svg" width="208" height="198.888" viewBox="0 0 208 198.888">
  <g id="splashlogo" transform="translate(-4469.433 -827.38)">
    <g id="Group_5105" data-name="Group 5105" transform="translate(4525.259 827.38)">
      <path id="Path_16" data-name="Path 16" d="M4877,1129.917c-4.833,4.967-7.357,11.493-8.48,18.231h2.564a10.544,10.544,0,0,0,10.5-10.5v-10.5h-10.5a10.541,10.541,0,0,0-10.5,10.338c.005.5,0,.991,0,1.489v29.553h-35.95a15.318,15.318,0,0,1-2.324-.18,16.244,16.244,0,0,1-8.853-4.425,13.9,13.9,0,0,1-3.037-4.394v-12.139l9.577-62.472a18.758,18.758,0,0,1,5.027-10.423,14,14,0,0,1,6.792-3.818v7.093a7.663,7.663,0,0,0-2.043,1.474,11.986,11.986,0,0,0-3.139,6.671l-10.427,68.011a5.346,5.346,0,0,0-.062.829,6.244,6.244,0,0,0,2.006,4.393,9.479,9.479,0,0,0,5.153,2.565,9.132,9.132,0,0,0,1.328.1h30.972v-22.837c0-.5-.007-.991,0-1.474a10.548,10.548,0,0,0-10.5-10.352h-10.5v10.5a10.545,10.545,0,0,0,10.5,10.5h2.564c-1.135-6.811-3.683-13.3-8.479-18.231a31.683,31.683,0,0,1,13.3,22.7l.052.515H4845.1a15.528,15.528,0,0,1-15.482-15.482v-15.482H4845.1a15.465,15.465,0,0,1,10.962,4.575V1110c0-.335-.005-.671,0-1a6.828,6.828,0,0,0-6.8-6.7h-6.8v6.8a6.827,6.827,0,0,0,6.8,6.8h1.34c-.817-4.568-2.087-9.087-5.413-12.506a21.853,21.853,0,0,1,8.949,13.009,21.486,21.486,0,0,1,.479,2.834l.075.722h-5.429a10.889,10.889,0,0,1-10.857-10.858v-10.858h10.857a10.834,10.834,0,0,0,17.657,0h10.856V1109.1a10.888,10.888,0,0,1-10.856,10.858H4861.5l.073-.722a21.845,21.845,0,0,1,9.425-15.843c-3.325,3.419-4.595,7.938-5.413,12.506h1.342a6.827,6.827,0,0,0,6.8-6.8v-6.8h-6.8a6.824,6.824,0,0,0-6.8,6.681c0,.34,0,.677,0,1.015v16.739a15.467,15.467,0,0,1,10.963-4.575h15.482v15.482a15.528,15.528,0,0,1-15.482,15.482h-7.437l.052-.515a31.993,31.993,0,0,1,.694-4.106A31.624,31.624,0,0,1,4877,1129.917Z" transform="translate(-4810.42 -1048.504)" fill="#fff"/>
      <path id="Path_17" data-name="Path 17" d="M5137.218,933.625a12.881,12.881,0,0,1-4.026,9.168,16.249,16.249,0,0,1-8.852,4.425,15.313,15.313,0,0,1-2.324.18h-25.729v-6.716h25.729a9.151,9.151,0,0,0,1.328-.1,9.476,9.476,0,0,0,5.152-2.565,6.244,6.244,0,0,0,2.007-4.393,5.467,5.467,0,0,0-.063-.829l-10.427-68.011a11.988,11.988,0,0,0-3.138-6.671,7.327,7.327,0,0,0-5.286-2.213h-.114v5.345a5.008,5.008,0,1,1-6.717,0V855.9h-.019l-.053-7.458a16.194,16.194,0,0,0-32.32.742h29.014V855.9h-29.032v5.345a5.01,5.01,0,1,1-6.717,0v-12.06h.014a23.564,23.564,0,0,1,17.226-21.8h11.363a23.565,23.565,0,0,1,17.227,21.8h.127a13.9,13.9,0,0,1,10.034,4.18,18.764,18.764,0,0,1,5.028,10.423l10.424,68.01A12,12,0,0,1,5137.218,933.625Z" transform="translate(-5040.878 -827.38)" fill="#fff"/>
    </g>
    <text id="Grobag" transform="translate(4469.433 1010.268)" fill="#fff" font-size="64" font-family="MyriadPro-Semibold, Myriad Pro" font-weight="600"><tspan x="0" y="0">Grobag</tspan></text>
  </g>
</svg>
