<svg xmlns="http://www.w3.org/2000/svg" xmlns:xlink="http://www.w3.org/1999/xlink" width="34" height="24" viewBox="0 0 34 24">
  <defs>
    <clipPath id="clip-path">
      <rect id="Asset_5" data-name="Asset 5" width="28" height="18" rx="2" transform="translate(23 427)" fill="#e4e4e4"/>
    </clipPath>
  </defs>
  <g id="stripe" transform="translate(-20 -424)">
    <g id="Rectangle_10" data-name="Rectangle 10" transform="translate(20 424)" fill="none" stroke="#d4d8de" stroke-width="1">
      <rect width="34" height="24" rx="2" stroke="none"/>
      <rect x="0.5" y="0.5" width="33" height="23" rx="1.5" fill="none"/>
    </g>
    <g id="Mask_Group_25" data-name="Mask Group 25" clip-path="url(#clip-path)">
      <g id="stripe-2" data-name="stripe" transform="translate(2038.738 -1186.77)">
        <rect id="Rectangle_72" data-name="Rectangle 72" width="27.692" height="18" rx="1.662" transform="translate(-2015.585 1613.769)" fill="none"/>
        <g id="g32" transform="translate(-2022.453 1612.262)">
          <path id="path18" d="M52.5,12.728c0-1.883-.912-3.368-2.655-3.368s-2.809,1.486-2.809,3.354c0,2.214,1.25,3.332,3.045,3.332a4.1,4.1,0,0,0,2.037-.478V14.1a3.9,3.9,0,0,1-1.8.4c-.713,0-1.346-.25-1.426-1.118h3.6C52.485,13.287,52.5,12.9,52.5,12.728Zm-3.633-.7c0-.831.507-1.177.971-1.177s.927.346.927,1.177Z" transform="translate(-18.547 -2.051)" fill="#32325d" fill-rule="evenodd"/>
          <path id="path20" d="M38.906,9.36a2.078,2.078,0,0,0-1.441.574l-.1-.456H35.751v8.575l1.839-.39.007-2.081a2.071,2.071,0,0,0,1.3.463c1.316,0,2.515-1.059,2.515-3.39-.007-2.132-1.221-3.3-2.508-3.3Zm-.441,5.068a1.1,1.1,0,0,1-.868-.346l-.007-2.728a1.1,1.1,0,0,1,.875-.36c.669,0,1.133.75,1.133,1.714C39.6,13.692,39.141,14.428,38.465,14.428Z" transform="translate(-13.256 -2.051)" fill="#32325d" fill-rule="evenodd"/>
          <path id="polygon22" d="M32.834,4.985l-1.846.39v1.5l1.846-.4Z" transform="translate(-11.023)" fill="#32325d" fill-rule="evenodd"/>
          <path id="rect24" d="M30.988,9.6h1.846V16.03H30.988Z" transform="translate(-11.023 -2.162)" fill="#32325d" fill-rule="evenodd"/>
          <path id="path26" d="M25.757,10.073l-.118-.544H24.051v6.435h1.839V11.6a1.3,1.3,0,0,1,1.4-.382V9.528a1.248,1.248,0,0,0-1.53.544Z" transform="translate(-7.771 -2.095)" fill="#32325d" fill-rule="evenodd"/>
          <path id="path28" d="M18.749,6.591l-1.794.382-.007,5.891a1.848,1.848,0,0,0,1.9,1.89,2.846,2.846,0,0,0,1.287-.243V13.018c-.235.1-1.4.434-1.4-.655V9.753h1.4V8.187h-1.4Z" transform="translate(-4.44 -0.753)" fill="#32325d" fill-rule="evenodd"/>
          <path id="path30" d="M9.338,11.353c0-.287.235-.4.625-.4a4.1,4.1,0,0,1,1.824.471V9.7A4.85,4.85,0,0,0,9.963,9.36c-1.493,0-2.486.78-2.486,2.081,0,2.03,2.795,1.706,2.795,2.581,0,.338-.294.449-.706.449a4.578,4.578,0,0,1-2.008-.588v1.75a5.1,5.1,0,0,0,2.008.419c1.53,0,2.581-.758,2.581-2.074-.007-2.192-2.809-1.8-2.809-2.626Z" transform="translate(0 -2.051)" fill="#32325d" fill-rule="evenodd"/>
        </g>
      </g>
    </g>
  </g>
</svg>
